<svg width="24" height="24" viewBox="0 0 24 24" fill="none" xmlns="http://www.w3.org/2000/svg">
<g clip-path="url(#clip0_1255_759)">
<path d="M17.6124 15.5159C19.0648 13.5339 19.7154 11.0766 19.4338 8.63563C19.1523 6.19462 17.9595 3.94991 16.094 2.3506C14.2286 0.751288 11.828 -0.0846881 9.37265 0.00992167C6.91728 0.104531 4.58817 1.12275 2.8513 2.86087C1.11442 4.59899 0.0978694 6.92882 0.00501667 9.38426C-0.0878361 11.8397 0.749858 14.2396 2.35051 16.104C3.95115 17.9683 6.19671 19.1595 8.63792 19.4393C11.0791 19.7191 13.536 19.0668 15.5169 17.6129H15.5154C15.5604 17.6729 15.6084 17.7299 15.6624 17.7854L21.4374 23.5604C21.7187 23.8419 22.1002 24.0001 22.4981 24.0002C22.896 24.0003 23.2777 23.8424 23.5591 23.5612C23.8406 23.2799 23.9988 22.8983 23.9989 22.5004C23.9991 22.1025 23.8412 21.7209 23.5599 21.4394L17.7849 15.6644C17.7313 15.6101 17.6736 15.5615 17.6124 15.5159ZM17.9994 9.74991C17.9994 10.8333 17.786 11.9061 17.3714 12.907C16.9568 13.908 16.3491 14.8175 15.583 15.5835C14.8169 16.3496 13.9075 16.9573 12.9065 17.3719C11.9056 17.7865 10.8328 17.9999 9.74939 17.9999C8.66599 17.9999 7.59319 17.7865 6.59226 17.3719C5.59132 16.9573 4.68185 16.3496 3.91576 15.5835C3.14968 14.8175 2.54199 13.908 2.12739 12.907C1.71279 11.9061 1.49939 10.8333 1.49939 9.74991C1.49939 7.56187 2.36859 5.46345 3.91576 3.91628C5.46294 2.3691 7.56136 1.49991 9.74939 1.49991C11.9374 1.49991 14.0358 2.3691 15.583 3.91628C17.1302 5.46345 17.9994 7.56187 17.9994 9.74991Z" fill="#8995FF"/>
</g>
<defs>
<clipPath id="clip0_1255_759">
<rect width="24" height="24" fill="white"/>
</clipPath>
</defs>
</svg>
