<svg width="194" height="193" viewBox="0 0 194 193" fill="none" xmlns="http://www.w3.org/2000/svg">
<path d="M174.927 105.632C181.87 105.632 187.499 100.003 187.499 93.0599C187.499 86.1167 181.87 80.4881 174.927 80.4881C167.984 80.4881 162.355 86.1167 162.355 93.0599C162.355 100.003 167.984 105.632 174.927 105.632Z" stroke="#C1C1C1" stroke-width="0.376953" stroke-miterlimit="10" stroke-dasharray="4.63 4.63"/>
<path d="M145.341 45.7999C150.493 47.5458 155.615 49.676 159.219 53.0213C162.824 56.3666 164.628 61.1755 162.466 65.2C159.578 70.5754 150.429 73.7009 150.386 79.5248C150.355 83.6958 155.32 86.8785 160.332 88.3957C165.343 89.9111 170.892 90.4579 175.451 92.6739C182.329 96.0174 185.555 102.49 186.875 108.7C188.246 115.148 187.69 122.489 181.805 127.167C174.491 132.982 162.393 132.326 152.037 131.086C138.218 129.431 124.459 127.487 110.705 125.545C80.5501 121.284 50.3956 117.022 20.2412 112.762C17.0084 112.304 13.6434 111.806 11.0165 110.274C5.80013 107.235 5.35694 100.959 8.38955 96.4785C11.4221 91.9984 17.0317 88.955 22.6036 86.3192C28.1756 83.6851 34.0585 81.1939 38.2331 77.3036C42.4058 73.4132 44.4823 67.6553 41.3246 63.2271C38.6494 59.4761 32.9005 57.471 30.3951 53.6503C27.0927 48.6163 30.8919 42.1865 36.8839 38.9734C42.8758 35.7603 118.121 36.5716 145.341 45.7999Z" fill="#F7F7F7"/>
<path d="M157.205 101.804L154.927 102.258L154.6 100.619C154.378 99.504 153.345 98.7677 152.3 98.975L141.068 101.216C140.023 101.425 139.351 102.501 139.574 103.616L139.901 105.255L137.623 105.709C137.364 105.76 137.198 106.028 137.251 106.304L139.637 118.268C139.692 118.543 139.95 118.727 140.209 118.675L159.795 114.769C160.054 114.717 160.22 114.449 160.166 114.174L157.781 102.21C157.722 101.936 157.464 101.752 157.205 101.804ZM154.384 102.367L140.441 105.147L140.114 103.509C139.955 102.712 140.434 101.943 141.181 101.795L152.412 99.554C153.159 99.4057 153.898 99.9311 154.057 100.728L154.384 102.367Z" fill="#FFBE55"/>
<path d="M149.739 109.672L147.4 110.139L137.48 107.031L137.546 106.937L147.425 110.032L149.675 109.583L157.611 102.934L157.707 102.996L149.739 109.672Z" fill="white"/>
<path d="M96.1189 83.0545C96.1189 83.0545 93.9655 82.345 93.542 82.5934C93.1185 82.8418 90.9312 85.7833 90.9312 85.7833L93.8601 87.1807L97.1768 85.0291L96.1189 83.0545ZM147.807 97.3919C147.807 97.3919 149.562 100.948 149.194 101.582C148.824 102.219 144.851 102.933 144.851 102.933L143.788 99.3665L145.684 97.3901H147.807V97.3919Z" fill="#FCD2B1"/>
<path d="M117.342 154.477L108.083 157.481H119.354V154.477H117.342ZM140.289 154.477L131.833 157.481H143.009L142.435 154.477H140.289Z" fill="#0A3951"/>
<path d="M122.058 92.9208L116.214 155.846H119.983C119.983 155.846 128.943 129.727 125.954 126.27C126.915 121.991 133.036 105.035 131.622 103.225C130.209 101.415 127.617 91.963 127.617 91.963L122.058 92.9208Z" fill="#083047"/>
<path d="M123.452 94.6166L126.49 98.8001L139.017 155.846H142.996C142.996 155.846 143.327 127.228 140.475 123.615C139.335 117.149 138.795 95.1563 137.953 92.7456C134.151 92.5562 124.166 91.3839 124.166 91.3839L123.452 94.6166Z" fill="#0A3951"/>
<path d="M144.691 63.7973C142.75 60.7486 137.126 61.0292 132.83 60.6253C131.587 60.5092 130.548 59.9856 129.665 59.8658L123.817 61.6279C123.481 61.6993 118.781 62.0442 118.243 62.3677C118.178 62.4428 113.087 80.356 96.0835 82.7399C96.2622 83.9908 96.0835 85.7779 96.0835 85.7779C96.0835 85.7779 113.595 86.2854 119.099 76.0278C120.307 87.2629 122.058 92.9207 122.058 92.9207L138.141 93.6283C138.141 93.6283 138.971 76.4871 140.758 72.5556C150.05 78.4528 144.868 97.9315 144.868 97.9315C144.868 97.9315 145.583 98.2889 147.906 97.9315C153.269 84.3483 147.193 67.7288 144.691 63.7973Z" fill="white"/>
<path d="M125.954 63.3058L127.826 65.9792L131.622 60.2017L130.242 59.3296L125.954 63.3058ZM125.954 63.3058L125.371 65.9792L123.452 61.8726L124.166 60.6252L125.954 63.3058Z" fill="#F2F2F2"/>
<path d="M125.562 65.2965L125.953 66.5064L124.057 87.4236C124.057 87.4236 126.479 97.0629 126.641 96.4732C126.804 95.8835 129.177 88.2046 129.177 88.2046L127.016 66.5367L127.206 65.284L125.955 63.304L125.562 65.2965Z" fill="#FFBE55"/>
<path d="M130.25 44.0182C132.215 45.6266 133.109 49.3794 132.215 51.3451C131.322 53.3108 128.999 54.3831 128.105 55.4553C126.318 53.3108 123.816 51.8812 123.816 51.8812L125.067 46.5201L127.569 45.2692L130.25 44.0182Z" fill="#0E538C"/>
<path d="M124.174 56.4526V61.0989L125.961 63.7795L130.25 59.8033L128.552 51.574L124.174 56.4526Z" fill="#FCD2B1"/>
<path d="M118.686 45.5675C119.186 51.127 116.527 56.5113 119.52 58.2054C120.189 59.0471 126.915 59.9746 127.75 57.4477C128.584 54.9209 130.711 47.7584 129.04 45.5675C127.371 43.3766 118.686 45.5675 118.686 45.5675Z" fill="#FFE3CA"/>
<path d="M126.497 46.1628C126.14 47.5924 126.497 50.2729 127.927 50.6303C127.927 51.313 127.853 52.5049 127.802 53.2787C127.795 53.3801 127.808 53.4819 127.841 53.5781C127.874 53.6743 127.925 53.7631 127.992 53.8392C128.06 53.9153 128.142 53.9773 128.233 54.0216C128.325 54.0659 128.424 54.0916 128.525 54.0972C128.861 54.1151 129.178 54.1115 129.178 54.0257C129.178 53.847 130.25 46.1628 130.25 46.1628H126.497Z" fill="#0E538C"/>
<path d="M130.551 52.0618C130.832 51.0132 130.544 50.0249 129.909 49.8544C129.273 49.6838 128.529 50.3956 128.248 51.4442C127.967 52.4927 128.254 53.481 128.89 53.6516C129.526 53.8222 130.269 53.1104 130.551 52.0618Z" fill="#FFE3CA"/>
<path d="M128.105 50.4515L127.926 53.6682L128.82 53.8469L129.177 49.3793L128.105 50.4515ZM130.314 46.5021C127.349 47.2183 124.324 47.6551 121.278 47.8067C119.707 47.8853 117.962 47.8245 116.814 46.7487C115.869 45.8624 115.56 44.4113 115.914 43.1639C116.267 41.9166 117.215 40.8873 118.357 40.2743C119.498 39.6614 120.817 39.4362 122.113 39.4541C121.621 39.3701 121.194 39.9383 121.291 40.428C121.387 40.9176 121.85 41.2661 122.334 41.3894C122.819 41.5127 123.326 41.4555 123.825 41.4162C125.074 41.3197 126.343 41.343 127.556 41.6521C128.77 41.9595 129.978 42.6171 130.553 43.7304C131.128 44.8438 130.819 46.4503 129.685 46.9793" fill="#0E538C"/>
<path d="M12.6734 157.481H181.325C182.605 157.481 183.641 158.517 183.641 159.797V172.097C183.641 173.376 182.605 174.413 181.325 174.413H12.6734C11.3939 174.413 10.3574 173.376 10.3574 172.097V159.797C10.3574 158.517 11.3939 157.481 12.6734 157.481Z" fill="#F2F2F2"/>
<path d="M90.8933 83.0545C90.8933 83.0545 93.0485 82.345 93.4702 82.5934C93.892 82.8418 96.0811 85.7833 96.0811 85.7833L93.1521 87.1807L89.8354 85.0291L90.8933 83.0545ZM39.2051 97.3919C39.2051 97.3919 37.4502 102.628 37.8183 103.564C38.1883 104.501 42.1608 105.553 42.1608 105.553L41.7909 101.473L42.8077 103.096L43.2706 101.473L41.3299 97.3936H39.2051V97.3919Z" fill="#FCD2B1"/>
<path d="M69.6726 154.477L78.9312 157.481H67.6586V154.477H69.6726ZM46.7252 154.477L55.1815 157.481H44.0054L44.579 154.477H46.7252Z" fill="#0A3951"/>
<path d="M64.533 93.6767L70.7984 155.846H67.0295C67.0295 155.846 58.0693 129.727 61.059 126.27C60.0976 121.991 53.977 105.035 55.3906 103.225C56.8041 101.415 59.3953 91.963 59.3953 91.963L64.533 93.6767Z" fill="#083047"/>
<path d="M63.5629 94.6166L60.5249 98.8001L47.9978 155.846H44.0181C44.0181 155.846 43.6875 127.228 46.5396 123.615C47.6797 117.149 48.3909 94.6166 50.4836 93.0959C54.2864 92.9064 62.8481 91.3839 62.8481 91.3839L63.5629 94.6166Z" fill="#0A3951"/>
<path d="M64.8405 101.325L60.909 92.7473L53.046 101.325L49.4719 94.8917C49.4719 94.8917 48.0423 76.4853 46.2553 72.5538C36.9627 78.451 42.1451 97.9297 42.1451 97.9297C42.1451 97.9297 41.4303 98.2871 39.1071 97.9297C33.746 84.3482 39.8219 67.7288 42.3238 63.7973C44.2645 60.7486 49.9652 60.0642 54.2612 59.6603C55.505 59.5442 57.2563 60.5413 58.1391 60.4216C58.1391 60.4216 62.1331 60.2876 65.5285 61.2311L65.532 61.2329C66.9974 61.6403 68.234 62.0442 68.7719 62.3677C69.8442 63.6186 64.8405 101.325 64.8405 101.325Z" fill="#0E538C"/>
<path d="M68.772 62.3674C68.772 62.3674 71.81 80.0591 90.9313 82.7397C90.7526 83.9906 90.9313 85.7776 90.9313 85.7776C90.9313 85.7776 72.5248 86.3137 67.5211 75.2341C65.9128 64.6906 68.772 62.3674 68.772 62.3674Z" fill="#0E538C"/>
<path d="M64.5331 60.963L61.1413 82.2269L54.2612 59.6602C55.505 59.5441 56.6308 59.4494 57.5136 59.3296L64.5331 60.963Z" fill="white"/>
<path d="M56.7699 43.5447C54.8042 45.153 53.9107 48.9058 54.8042 50.8716C55.6977 52.8373 58.0209 53.9095 58.9144 54.9817C60.7014 52.8373 63.2033 51.4077 63.2033 51.4077L61.9524 46.0466L59.4505 44.7956L56.7699 43.5447Z" fill="#0E538C"/>
<path d="M62.8464 55.9791V60.6254L61.0594 63.306L56.7705 59.3298L58.4682 51.1005L62.8464 55.9791Z" fill="#FCD2B1"/>
<path d="M69.1008 45.1532C68.5647 51.0504 68.9221 57.6624 68.2073 58.556C67.4925 59.4495 60.3443 59.4495 59.4508 56.7689C58.5573 54.0884 56.2341 47.4763 58.0212 45.1532C59.8082 42.83 69.1008 45.1532 69.1008 45.1532Z" fill="#FFE3CA"/>
<path d="M60.5233 45.6892C60.8807 47.1188 60.5233 49.7994 59.0937 50.1568C59.0937 50.8395 59.1669 52.0314 59.2187 52.8052C59.2256 52.9066 59.2123 53.0084 59.1795 53.1046C59.1468 53.2008 59.0952 53.2895 59.0279 53.3657C58.9606 53.4418 58.8788 53.5038 58.7873 53.5481C58.6958 53.5924 58.5965 53.6181 58.495 53.6237C58.159 53.6415 57.8427 53.638 57.8427 53.5522C57.8427 53.3735 56.7705 45.6892 56.7705 45.6892H60.5233Z" fill="#0E538C"/>
<path d="M58.1269 53.1863C58.7627 53.0157 59.0501 52.0274 58.7688 50.9788C58.4876 49.9302 57.7441 49.2185 57.1083 49.389C56.4725 49.5596 56.1851 50.5479 56.4663 51.5965C56.7476 52.645 57.4911 53.3568 58.1269 53.1863Z" fill="#FFE3CA"/>
<path d="M58.9147 49.9782L59.0934 53.1949L58.1999 53.3736L57.8425 48.906L58.9147 49.9782ZM59.6921 45.9485C60.7179 46.7651 62.0796 47.1476 63.3788 46.9832C64.4081 46.8527 65.3856 46.4006 66.4221 46.3756C67.2155 46.3559 67.9911 46.59 68.781 46.6651C69.6924 46.7508 70.6502 46.6132 71.4204 46.1182C72.1906 45.6232 72.7375 44.7333 72.6714 43.8201C72.5802 42.5459 71.3454 41.5934 70.0837 41.3862C68.8221 41.1789 67.5461 41.5398 66.3202 41.9044C65.0961 42.2672 63.8237 42.6407 62.5603 42.4566C61.6757 42.3279 60.8483 41.9294 59.9655 41.7829C59.0095 41.622 58.0034 41.7686 57.1331 42.1939C56.4754 42.5156 55.8857 43.0034 55.5229 43.6414C55.1602 44.2794 55.0494 45.071 55.3014 45.759C55.5283 46.3773 56.0323 46.8724 56.622 47.1654C57.2117 47.4585 57.8818 47.5622 58.5413 47.5496L59.6921 45.9485Z" fill="#0E538C"/>
<path d="M61.0588 63.3058L59.1878 65.9792L55.3921 60.2017L56.7699 59.3296L61.0588 63.3058ZM61.0588 63.3058L61.6414 65.9792L63.5624 61.8726L62.8458 60.6252L61.0588 63.3058Z" fill="#F2F2F2"/>
<path d="M61.4507 65.1037L61.0594 66.1956L62.682 72.5628C62.682 72.5628 61.3024 82.7596 61.1398 82.2271C60.9772 81.6945 58.0625 72.1303 58.0625 72.1303L59.9979 66.2224L59.8084 65.093L61.0594 63.3059L61.4507 65.1037Z" fill="#FFBE55"/>
<path d="M91.2456 86.634C91.5905 86.1515 92.627 84.8594 92.627 84.8594L95.2504 86.634L93.4562 87.8081L91.2456 86.634ZM96.1546 83.0545C96.1546 83.0545 94.8107 82.4023 93.9083 82.3451C93.0058 82.2879 91.8175 83.5728 91.8175 83.5728C91.8175 83.5728 91.855 83.8033 92.3357 83.8033C92.8146 83.8033 93.7743 83.3422 93.7743 83.3422L96.1957 84.3573L96.1546 83.0545Z" fill="#FFE3CA"/>
<path d="M164.414 29.3377H143.54C139.406 29.3377 136.025 32.717 136.025 36.8468C136.025 39.7329 137.677 42.249 140.08 43.5053L139.624 45.648C139.624 45.648 142.997 44.356 143.54 44.356H164.414C168.548 44.356 171.929 40.9767 171.929 36.8468C171.929 32.717 168.548 29.3377 164.414 29.3377Z" fill="#2A94F4"/>
<path d="M166.156 31.291H145.282C141.149 31.291 137.768 34.6703 137.768 38.8001C137.768 41.6862 139.419 44.2024 141.822 45.4586L141.367 47.6013C141.367 47.6013 144.739 46.3093 145.282 46.3093H166.156C170.29 46.3093 173.671 42.93 173.671 38.8001C173.671 34.6703 170.29 31.291 166.156 31.291Z" stroke="#2A94F4" stroke-width="0.376953" stroke-miterlimit="10"/>
<path d="M51.2145 34.7291H28.3923C27.4434 34.7291 26.666 35.5065 26.666 36.4554V47.1794C26.666 48.1283 27.4434 48.9057 28.3923 48.9057H45.6193L48.8163 51.2878L47.4707 48.9057H51.2163C52.1652 48.9057 52.9426 48.1283 52.9426 47.1794V36.4554C52.9426 35.5065 52.1652 34.7291 51.2145 34.7291Z" fill="#CCE9FF"/>
<path d="M50.5908 35.8409H27.7668C26.8179 35.8409 26.0405 36.6183 26.0405 37.5672V48.2912C26.0405 49.2401 26.8179 50.0175 27.7668 50.0175H44.9938L48.1908 52.3996L46.8452 50.0175H50.5908C51.5398 50.0175 52.3171 49.2401 52.3171 48.2912V37.5672C52.3171 36.6183 51.5398 35.8409 50.5908 35.8409Z" stroke="#CCE9FF" stroke-width="0.376953" stroke-miterlimit="10"/>
<path d="M22.8931 159.693C26.7674 159.693 28.4026 156.6 29.0459 153.317C29.7732 149.614 29.2389 145.674 29.2389 145.674H16.5474C16.5474 145.674 16.5277 145.824 16.4991 146.092C16.2632 148.423 15.4984 159.693 22.8931 159.693Z" fill="#B6E7FF"/>
<path d="M16.5474 145.674C16.5474 145.951 19.3888 146.176 22.8949 146.176C26.3993 146.176 29.2425 145.951 29.2425 145.674C29.2425 145.397 26.4011 145.172 22.8949 145.172C19.3888 145.172 16.5474 145.397 16.5474 145.674Z" fill="#85DDFF"/>
<path d="M5.70703 110.486C5.70703 110.486 12.4013 120.67 16.4167 126.885C20.4322 133.101 21.4848 134.391 21.9619 136.399C22.4408 138.408 22.8697 145.817 22.8697 145.817H23.1664C23.1664 145.817 23.0627 139.527 22.7018 137.411C22.3515 135.365 22.7268 134.63 23.0145 132.479C23.3022 130.327 23.6846 126.885 21.508 124.494C19.3332 122.103 19.9068 119.76 19.142 118.184C18.3771 116.606 12.4477 114.694 11.6829 113.068C10.918 111.442 7.5727 110.437 5.70703 110.486Z" fill="#2A94F4"/>
<path d="M5.70703 110.485C5.70703 110.485 7.81037 112.876 9.24536 113.69C10.6804 114.503 11.3487 113.784 12.4477 115.745C13.5468 117.705 13.5897 118.566 14.5958 119.569C15.6019 120.573 16.7974 120.621 16.8939 122.82C16.9904 125.019 16.4167 126.883 16.4167 126.883C16.4167 126.883 6.13771 111.011 5.70703 110.485Z" fill="#41AAF7"/>
<path d="M22.3412 145.817H22.0409C22.0409 145.817 21.9516 143.781 21.1421 142.793C20.6202 142.155 18.4043 141.431 16.2152 140.563C15.0089 140.086 13.8116 139.564 12.9074 138.988C10.3609 137.371 7.93406 132.16 7.72677 131.231C7.6535 130.907 7.62133 130.711 7.62312 130.577V130.573C7.62848 130.323 7.75178 130.286 7.96623 130.034C8.06988 129.912 8.37903 129.953 8.75789 130.069C9.85513 130.403 10.7826 131.156 11.3562 132.149C11.887 133.068 12.7358 134.217 13.7759 134.496C15.5736 134.975 15.4235 135.273 16.0865 137.101C16.7477 138.929 18.4186 139.228 20.5148 141.383C22.611 143.54 22.3412 145.817 22.3412 145.817Z" fill="#2A94F4"/>
<path d="M16.2152 140.563C15.0089 140.086 13.8116 139.564 12.9074 138.989C10.3609 137.372 7.93406 132.161 7.72677 131.231C7.6535 130.908 7.62133 130.711 7.62312 130.577C7.63027 130.638 7.74821 131.464 9.07598 132.012C10.452 132.581 10.7218 132.581 10.9023 133.449C11.0828 134.318 11.2329 135.247 11.9513 135.426C12.6697 135.606 13.12 134.796 13.6865 136.114C14.2566 137.431 14.5282 137.881 15.05 138.06C15.5736 138.24 15.9704 137.97 16.0865 138.989C16.1562 139.611 16.1955 140.2 16.2152 140.563Z" fill="#41AAF7"/>
<path d="M24.5427 145.817H24.8983C24.8983 145.817 25.5935 133.21 26.5496 132.039C27.1661 131.283 29.2033 129.93 31.7981 128.901C33.2259 128.334 34.6466 127.718 35.7171 127.037C38.7336 125.121 41.6071 118.949 41.8537 117.848C41.9413 117.466 41.9788 117.233 41.9771 117.073V117.069C41.9699 116.772 41.8234 116.728 41.5714 116.431C41.4499 116.286 41.0817 116.336 40.6332 116.474C39.3322 116.871 38.235 117.761 37.5559 118.938C36.9269 120.027 35.9208 121.388 34.6895 121.717C32.5612 122.285 32.7381 122.639 31.9518 124.803C31.169 126.967 29.189 127.321 26.7068 129.875C24.2228 132.429 24.5427 145.817 24.5427 145.817Z" fill="#2A94F4"/>
<path d="M31.7979 128.901C33.2257 128.334 34.6464 127.718 35.7168 127.037C38.7333 125.121 41.6069 118.949 41.8535 117.848C41.9411 117.466 41.9786 117.233 41.9768 117.072C41.9679 117.146 41.8285 118.121 40.2577 118.77C38.6279 119.442 38.308 119.442 38.0954 120.473C37.8827 121.501 37.704 122.601 36.8534 122.814C36.0027 123.027 35.4702 122.069 34.7965 123.629C34.121 125.189 33.8011 125.722 33.181 125.934C32.5609 126.147 32.0909 125.827 31.9533 127.035C31.8675 127.773 31.8211 128.472 31.7979 128.901Z" fill="#41AAF7"/>
<path d="M22.8931 159.693C26.7674 159.693 28.4026 156.6 29.0459 153.317C25.2484 151.877 20.4663 149.57 16.4991 146.092C16.2632 148.423 15.4984 159.693 22.8931 159.693Z" fill="#CCE9FF"/>
<path d="M171.419 160.167C173.983 160.167 175.065 158.119 175.492 155.946C175.972 153.496 175.62 150.887 175.62 150.887H167.219C167.219 150.887 167.207 150.987 167.187 151.164C167.03 152.708 166.524 160.167 171.419 160.167Z" fill="#B6E7FF"/>
<path d="M167.218 150.889C167.218 151.073 169.098 151.221 171.42 151.221C173.739 151.221 175.621 151.073 175.621 150.889C175.621 150.704 173.741 150.556 171.42 150.556C169.1 150.556 167.218 150.704 167.218 150.889Z" fill="#85DDFF"/>
<path d="M157.643 122.989C157.643 122.989 162.947 131.058 166.128 135.983C169.311 140.908 170.143 141.93 170.522 143.521C170.901 145.111 171.242 150.983 171.242 150.983H171.659C171.659 150.983 171.923 146.021 171.432 144.393C170.939 142.765 171.128 142.119 171.357 140.415C171.584 138.71 171.888 135.983 170.163 134.089C168.44 132.194 168.894 130.339 168.288 129.088C167.683 127.837 162.985 126.324 162.379 125.035C161.773 123.747 159.121 122.952 157.643 122.989Z" fill="#2A94F4"/>
<path d="M158.803 122.989C158.803 122.989 160.47 124.883 161.607 125.527C162.743 126.17 163.274 125.602 164.144 127.155C165.016 128.708 165.048 129.39 165.847 130.186C166.644 130.981 167.591 131.018 167.668 132.761C167.743 134.503 167.289 135.981 167.289 135.981C167.289 135.981 159.144 123.406 158.803 122.989Z" fill="#41AAF7"/>
<path d="M173.006 150.888L173.31 150.797C173.31 150.797 172.783 148.71 173.303 147.465C173.637 146.66 175.66 145.256 177.613 143.714C178.689 142.865 179.743 141.973 180.485 141.117C182.572 138.708 183.446 132.698 183.377 131.694C183.353 131.344 183.326 131.136 183.284 131.001L183.282 130.997C183.201 130.745 183.064 130.745 182.771 130.556C182.63 130.463 182.328 130.6 181.981 130.833C180.971 131.504 180.262 132.546 179.981 133.726C179.722 134.818 179.211 136.238 178.244 136.833C176.571 137.865 176.813 138.12 176.695 140.172C176.58 142.221 174.979 143.031 173.512 145.849C172.043 148.665 173.006 150.888 173.006 150.888Z" fill="#2A94F4"/>
<path d="M177.614 143.712C178.689 142.863 179.744 141.971 180.485 141.115C182.573 138.706 183.447 132.696 183.377 131.692C183.354 131.342 183.327 131.134 183.284 130.999C183.295 131.063 183.425 131.933 182.249 132.891C181.029 133.883 180.755 133.965 180.837 134.9C180.92 135.833 181.048 136.819 180.375 137.219C179.701 137.62 179.002 136.937 178.827 138.442C178.65 139.948 178.513 140.484 178.037 140.826C177.562 141.165 177.079 141.013 177.269 142.08C177.385 142.729 177.524 143.338 177.614 143.712Z" fill="#41AAF7"/>
<path d="M171.419 160.167C173.983 160.167 175.065 158.119 175.492 155.946C172.979 154.993 169.812 153.465 167.187 151.164C167.03 152.708 166.524 160.167 171.419 160.167Z" fill="#CCE9FF"/>
</svg>
