<svg width="197" height="197" viewBox="0 0 197 197" fill="none" xmlns="http://www.w3.org/2000/svg">
<path d="M156.332 160.084H138.832C138.526 160.084 138.233 159.962 138.016 159.746C137.8 159.529 137.678 159.236 137.678 158.93C137.678 158.624 137.8 158.33 138.016 158.114C138.233 157.897 138.526 157.775 138.832 157.775H156.332C156.638 157.775 156.931 157.897 157.148 158.114C157.364 158.33 157.486 158.624 157.486 158.93C157.486 159.236 157.364 159.529 157.148 159.746C156.931 159.962 156.638 160.084 156.332 160.084ZM57.6814 83.7158C57.6814 83.7158 57.1274 81.361 63.6376 79.2833C70.1479 77.2055 73.7493 74.7123 74.4418 71.8034C74.4418 71.8034 75.9655 79.2833 78.7358 80.6684C78.7358 80.6684 82.1987 69.8642 74.1648 65.9858C66.1309 62.1073 56.9889 67.648 53.2489 74.8508C49.509 82.0536 50.2016 83.4388 46.3232 87.8713C43.8068 90.747 25.6843 100.753 39.8129 111.696C39.8129 111.696 49.7861 97.1518 55.3267 98.2599C55.3267 98.2599 57.2447 89.9297 56.9781 88.9698C56.7203 88.0402 51.4513 84.0486 53.1939 79.9609C53.2665 79.7765 53.3747 79.6082 53.5124 79.4657C53.65 79.3231 53.8144 79.2091 53.9962 79.1301C54.7976 78.8112 56.2713 79.0632 57.6814 83.7158Z" fill="black"/>
<path d="M62.7102 109.639C60.8017 109.64 58.3242 105.932 55.1495 98.3339C55.1328 98.2875 55.1346 98.2364 55.1546 98.1912C55.1745 98.146 55.211 98.1103 55.2566 98.0913C55.3022 98.0723 55.3533 98.0716 55.3994 98.0892C55.4455 98.1069 55.4831 98.1416 55.5043 98.1862C59.4835 107.709 61.7182 109.454 62.8999 109.237C64.6709 108.913 65.2273 103.898 65.2923 101.993C65.1375 100.122 65.3945 98.2401 66.0453 96.479C66.0621 96.4367 66.0934 96.4019 66.1336 96.3807C66.1739 96.3595 66.2203 96.3535 66.2646 96.3636C69.3043 97.0323 71.8422 96.5482 73.806 94.9257C78.758 90.8329 78.5464 80.7752 78.5433 80.674C78.5426 80.6487 78.5468 80.6235 78.5559 80.5998C78.5649 80.5762 78.5785 80.5546 78.5959 80.5362C78.6133 80.5178 78.6342 80.5031 78.6573 80.4928C78.6804 80.4825 78.7054 80.4768 78.7307 80.4762C78.7811 80.4768 78.8295 80.4964 78.8661 80.5312C78.9027 80.5659 78.9248 80.6132 78.928 80.6636C78.9396 81.0837 79.1485 91.0088 74.0515 95.222C72.0276 96.8945 69.4351 97.4163 66.3454 96.7745C65.7661 98.4457 65.5382 100.219 65.6759 101.982C65.6667 102.299 65.4054 109.17 62.9691 109.616C62.8837 109.631 62.797 109.639 62.7102 109.639Z" fill="black"/>
<path d="M72.2131 88.6411C71.7891 88.6357 71.3728 88.5262 71.0011 88.3222C70.6293 88.1181 70.3134 87.8258 70.0812 87.471C70.0543 87.4287 70.045 87.3777 70.0552 87.3286C70.0654 87.2796 70.0943 87.2365 70.1357 87.2084C70.1772 87.1804 70.228 87.1696 70.2773 87.1784C70.3266 87.1872 70.3705 87.2149 70.3997 87.2555C70.7044 87.7217 71.1736 88.0558 71.7137 88.1913C71.9023 88.2498 72.1007 88.27 72.2973 88.2509C72.4939 88.2317 72.6846 88.1735 72.8584 88.0797C73.0161 87.9538 73.1472 87.7978 73.244 87.6208C73.3407 87.4438 73.4013 87.2492 73.4221 87.0485C73.5126 86.5058 73.4501 85.9486 73.2416 85.4394C73.1534 85.1593 73.0754 84.876 73.0077 84.5902C72.7926 83.6541 72.4982 82.3728 73.0181 81.1474C73.1998 80.6916 73.4783 80.2806 73.8343 79.9429C74.1903 79.6052 74.6153 79.3487 75.08 79.1912C75.7451 79.0027 76.4535 79.0369 77.0973 79.2886C77.1449 79.3071 77.1832 79.3437 77.2037 79.3904C77.2242 79.4372 77.2253 79.4901 77.2068 79.5377C77.1883 79.5852 77.1516 79.6235 77.1049 79.644C77.0582 79.6645 77.0052 79.6657 76.9577 79.6472C76.3934 79.4258 75.7722 79.3953 75.1889 79.5602C74.7789 79.7016 74.4043 79.93 74.0909 80.2297C73.7774 80.5294 73.5324 80.8934 73.3728 81.2966C72.9011 82.4082 73.1793 83.6195 73.3828 84.5037C73.4548 84.8172 73.5371 85.0885 73.6098 85.3271C73.8388 85.8967 73.9045 86.519 73.7995 87.1239C73.7701 87.375 73.6903 87.6175 73.565 87.837C73.4396 88.0565 73.2713 88.2484 73.07 88.4013C72.8141 88.5639 72.5163 88.6473 72.2131 88.6411ZM71.4409 80.1304C71.4085 80.1304 71.3767 80.1222 71.3483 80.1066C71.3199 80.091 71.2959 80.0685 71.2785 80.0412C69.8784 77.848 66.4209 79.1801 66.3862 79.1931C66.3626 79.203 66.3373 79.2081 66.3117 79.208C66.2861 79.208 66.2608 79.2028 66.2372 79.1929C66.2136 79.1829 66.1923 79.1684 66.1744 79.1501C66.1565 79.1318 66.1425 79.1101 66.1331 79.0863C66.1237 79.0625 66.1191 79.037 66.1197 79.0114C66.1202 78.9858 66.1259 78.9606 66.1363 78.9373C66.1468 78.9139 66.1617 78.8928 66.1804 78.8753C66.1991 78.8578 66.221 78.8442 66.245 78.8353C66.2827 78.8199 70.0342 77.377 71.6029 79.8345C71.6214 79.8636 71.6318 79.8971 71.633 79.9316C71.6342 79.966 71.626 80.0002 71.6095 80.0304C71.5929 80.0607 71.5685 80.0859 71.5389 80.1035C71.5092 80.1211 71.4754 80.1304 71.4409 80.1304Z" fill="black"/>
<path d="M70.2307 83.36C70.3458 82.565 70.0402 81.8628 69.548 81.7916C69.0559 81.7203 68.5637 82.307 68.4486 83.102C68.3335 83.897 68.6392 84.5992 69.1313 84.6704C69.6234 84.7416 70.1157 84.155 70.2307 83.36Z" fill="black"/>
<path d="M76.7835 84.3083C76.8985 83.5133 76.5929 82.8111 76.1008 82.7399C75.6087 82.6686 75.1164 83.2553 75.0013 84.0503C74.8863 84.8452 75.1919 85.5474 75.684 85.6187C76.1762 85.6899 76.6684 85.1032 76.7835 84.3083Z" fill="black"/>
<path d="M69.5476 91.0186L69.5306 91.0179C68.0624 90.889 67.0766 90.418 66.6006 89.6192C66.417 89.2604 66.3137 88.8659 66.2977 88.4632C66.2818 88.0604 66.3536 87.659 66.5083 87.2868C66.5286 87.2399 66.5666 87.2031 66.614 87.1843C66.6615 87.1655 66.7144 87.1663 66.7613 87.1866C66.8081 87.2068 66.845 87.2448 66.8638 87.2923C66.8826 87.3397 66.8818 87.3927 66.8615 87.4395C66.8569 87.4503 66.4017 88.5365 66.9331 89.4249C67.3425 90.1098 68.2278 90.5169 69.5641 90.6346C69.6134 90.639 69.6591 90.6623 69.6917 90.6995C69.7243 90.7367 69.7413 90.7851 69.7391 90.8345C69.737 90.884 69.7159 90.9307 69.6802 90.965C69.6446 90.9992 69.597 91.0185 69.5476 91.0186ZM66.2232 96.3438C63.625 96.0202 61.2559 94.6948 59.6206 92.65C60.4008 96.209 62.4838 99.3475 65.4602 101.449C65.3516 99.7124 65.6116 97.9726 66.2232 96.3438Z" fill="black"/>
<path d="M55.9225 132.45C52.6278 132.45 49.9217 132.435 49.2187 132.388C49.1011 132.381 48.9868 132.346 48.8857 132.285C48.7845 132.224 48.6995 132.14 48.6377 132.04C47.6539 130.533 49.8971 123.939 50.4411 122.401C47.343 122.102 36.6885 117.166 36.2225 116.949C36.1971 116.937 36.1746 116.92 36.1566 116.899C36.1385 116.877 36.1254 116.852 36.118 116.825C36.1107 116.798 36.1094 116.77 36.1141 116.742C36.1189 116.715 36.1296 116.688 36.1456 116.665L39.6546 111.586C39.6845 111.547 39.7286 111.52 39.7776 111.512C39.8266 111.504 39.8768 111.516 39.9176 111.544C39.9585 111.572 39.9868 111.615 39.9968 111.664C40.0067 111.712 39.9974 111.763 39.9709 111.805L36.5919 116.696C38.1729 117.423 48.2972 122.031 50.7089 122.031C50.7398 122.031 50.7703 122.038 50.7977 122.052C50.8251 122.066 50.8486 122.087 50.8664 122.112C50.8841 122.138 50.8955 122.167 50.8996 122.197C50.9036 122.228 50.9003 122.259 50.8898 122.288C50.0814 124.526 48.1579 130.602 48.9602 131.829C48.9892 131.88 49.0304 131.922 49.0801 131.953C49.1297 131.983 49.1863 132.001 49.2445 132.004C51.2149 132.135 69.7352 132.014 71.2904 132.004C71.8514 131.155 76.3905 124.179 75.6452 122.04C74.8249 119.685 74.2678 118.243 74.262 118.229C74.2457 118.187 74.2447 118.14 74.2593 118.098C74.2738 118.055 74.303 118.019 74.3416 117.995L77.2501 116.232C76.7476 114.995 73.0215 106.344 65.3589 101.613C65.3154 101.586 65.2844 101.543 65.2726 101.493C65.2609 101.443 65.2693 101.391 65.2962 101.347C65.323 101.304 65.366 101.273 65.4157 101.261C65.4655 101.249 65.5178 101.258 65.5613 101.285C73.8999 106.434 77.6321 116.147 77.6687 116.245C77.6846 116.287 77.6853 116.333 77.6706 116.376C77.656 116.418 77.627 116.454 77.5887 116.478L74.6787 118.241C75.1386 119.459 75.5819 120.683 76.0084 121.914C76.8611 124.361 71.771 131.981 71.554 132.303C71.5365 132.329 71.5129 132.351 71.4853 132.366C71.4577 132.38 71.4268 132.388 71.3955 132.388C70.8549 132.392 62.29 132.45 55.9225 132.45Z" fill="black"/>
<path d="M54.6858 112.619L50.8997 122.223L48.2964 121.63L54.6858 112.619ZM74.3031 118.298L70.2169 111.488L75.522 117.56L74.3031 118.298Z" fill="black"/>
<path d="M93.5597 153.678C92.3046 153.678 91.0718 152.842 90.664 152.537C90.4681 152.746 90.2269 152.907 89.9589 153.008C89.691 153.109 89.4034 153.147 89.1184 153.119C87.4324 152.91 85.9071 150.205 84.8975 148.415C84.6642 147.974 84.4061 147.547 84.1245 147.135C83.7821 146.695 82.8082 147.245 81.5751 147.943C79.9964 148.834 77.8274 150.058 75.5158 149.98L74.7566 149.956C57.8462 149.43 29.1438 148.021 26.9072 144.488C24.2431 140.283 37.0107 118.26 37.5556 117.324C37.5683 117.302 37.5853 117.283 37.6054 117.268C37.6255 117.253 37.6485 117.241 37.6729 117.235C37.6974 117.229 37.7229 117.227 37.7479 117.23C37.773 117.234 37.7971 117.242 37.8189 117.255C37.8408 117.268 37.8599 117.285 37.8752 117.305C37.8904 117.325 37.9016 117.348 37.908 117.372C37.9144 117.397 37.916 117.422 37.9125 117.447C37.9091 117.472 37.9008 117.496 37.888 117.518C37.7556 117.745 24.6921 140.273 27.2319 144.283C28.7964 146.753 46.1228 148.68 74.7686 149.571L75.5285 149.595C77.7359 149.663 79.7609 148.526 81.3858 147.608C82.8348 146.788 83.8813 146.196 84.4281 146.899C84.7226 147.325 84.9913 147.769 85.2326 148.227C86.2042 149.949 87.6721 152.552 89.1657 152.737C89.4207 152.757 89.6768 152.714 89.911 152.611C90.1453 152.509 90.3506 152.35 90.5085 152.148C90.542 152.113 90.5877 152.092 90.6363 152.089C90.6848 152.086 90.7327 152.102 90.7702 152.133C90.7894 152.148 92.6825 153.68 94.1985 153.198C94.9738 152.951 95.534 152.206 95.8645 150.984C95.8727 150.954 95.888 150.927 95.9091 150.904C95.9303 150.881 95.9566 150.864 95.9858 150.854C96.0151 150.843 96.0464 150.84 96.0772 150.844C96.1079 150.849 96.1371 150.861 96.1623 150.879C96.1827 150.893 98.1881 152.315 99.6298 151.691C100.418 151.347 100.911 150.44 101.096 148.995C101.278 147.421 101.042 145.827 100.412 144.374C99.6267 142.51 97.9907 139.124 95.8603 137.402C95.8236 137.372 95.7993 137.33 95.7918 137.283C95.7844 137.236 95.7944 137.189 95.82 137.149C95.8455 137.109 95.8848 137.08 95.9303 137.067C95.9759 137.055 96.0245 137.059 96.0669 137.08C96.3054 137.199 101.937 140.027 104.285 142.237C105.498 143.379 106.693 143.437 107.339 142.988C108.068 142.481 108.185 141.373 107.647 140.097C106.346 137.016 98.4663 130.903 97.1508 130.582C97.1157 130.573 97.0838 130.555 97.0587 130.529C97.0336 130.503 97.0162 130.471 97.0087 130.436C97.0011 130.4 97.0036 130.364 97.0158 130.33C97.0281 130.296 97.0497 130.266 97.078 130.244C97.1069 130.221 99.9657 127.977 100.363 125.859C100.624 124.461 100.452 123.383 99.8895 122.9C99.4266 122.502 98.6921 122.476 97.7064 122.82C96.4878 123.247 95.2323 124.095 94.018 124.914C92.487 125.948 90.9045 127.016 89.2996 127.329C87.4743 127.686 85.6201 127.902 84.2669 128.061C83.4793 128.153 82.8575 128.226 82.4396 128.299C80.0041 128.729 74.0652 129.984 71.5254 132.338C71.4879 132.372 71.4382 132.391 71.3872 132.389C71.3362 132.387 71.288 132.365 71.2533 132.327C71.2187 132.29 71.2002 132.24 71.2022 132.189C71.2041 132.138 71.2263 132.09 71.2637 132.055C73.8786 129.632 79.9036 128.357 82.3727 127.921C82.8017 127.845 83.4285 127.772 84.2219 127.679C85.5693 127.521 87.415 127.305 89.2261 126.952C90.754 126.653 92.3039 125.607 93.8025 124.595C95.0372 123.762 96.3139 122.9 97.5794 122.458C98.7044 122.063 99.5659 122.114 100.14 122.608C100.82 123.191 101.033 124.371 100.741 125.929C100.387 127.82 98.317 129.709 97.5752 130.335C99.6463 131.301 106.736 136.952 108.001 139.948C108.735 141.685 108.254 142.82 107.559 143.303C106.785 143.841 105.391 143.806 104.022 142.517C102.366 140.959 98.9318 139.029 97.1027 138.053C98.7037 139.805 99.9526 142.292 100.767 144.225C101.423 145.741 101.668 147.403 101.477 149.044C101.275 150.634 100.704 151.643 99.7822 152.043C98.4309 152.631 96.7606 151.717 96.1615 151.34C95.7848 152.546 95.1646 153.294 94.3147 153.565C94.0704 153.642 93.8157 153.68 93.5597 153.678Z" fill="black"/>
<path d="M90.648 152.473C90.6232 152.473 90.5986 152.468 90.5756 152.459C90.5283 152.44 90.4906 152.403 90.4707 152.356C90.4508 152.309 90.4503 152.256 90.4694 152.208C91.1766 150.468 87.8223 144.798 86.4706 142.76C86.4561 142.739 86.4459 142.716 86.4407 142.691C86.4355 142.666 86.4352 142.64 86.4401 142.615C86.4449 142.59 86.4547 142.566 86.4689 142.545C86.483 142.523 86.5013 142.505 86.5226 142.491C86.5439 142.477 86.5677 142.467 86.5928 142.462C86.6179 142.458 86.6437 142.458 86.6687 142.463C86.6937 142.468 86.7174 142.479 86.7384 142.493C86.7594 142.508 86.7773 142.526 86.7911 142.548C86.9942 142.854 91.7538 150.069 90.8261 152.353C90.8117 152.389 90.787 152.419 90.7553 152.44C90.7236 152.462 90.6862 152.473 90.648 152.473ZM96.0497 151.227C96.0015 151.227 95.955 151.209 95.9196 151.176C95.8841 151.143 95.8621 151.099 95.8581 151.051C95.4522 146.178 90.6538 139.856 90.6053 139.793C90.5889 139.773 90.5768 139.75 90.5695 139.725C90.5622 139.7 90.56 139.674 90.563 139.649C90.566 139.623 90.5741 139.598 90.5869 139.576C90.5996 139.553 90.6168 139.534 90.6373 139.518C90.6578 139.502 90.6812 139.491 90.7062 139.485C90.7312 139.478 90.7572 139.477 90.7828 139.481C90.8083 139.485 90.8328 139.493 90.8547 139.507C90.8767 139.52 90.8958 139.538 90.9108 139.559C91.1109 139.821 95.8262 146.033 96.2413 151.018C96.2456 151.069 96.2295 151.12 96.1966 151.159C96.1637 151.197 96.1167 151.222 96.0659 151.226C96.0605 151.227 96.0551 151.227 96.0497 151.227ZM83.3163 128.173C83.2831 128.173 83.2504 128.165 83.2215 128.148C83.1926 128.132 83.1683 128.109 83.1512 128.08L76.4328 116.953C76.4064 116.909 76.3984 116.857 76.4106 116.807C76.4228 116.758 76.4542 116.715 76.4978 116.689C76.5415 116.662 76.5939 116.654 76.6435 116.667C76.693 116.679 76.7357 116.71 76.7622 116.754L83.481 127.881C83.4985 127.91 83.508 127.944 83.5085 127.978C83.509 128.012 83.5004 128.045 83.4837 128.075C83.4669 128.105 83.4426 128.129 83.4132 128.147C83.3838 128.164 83.3503 128.173 83.3163 128.173V128.173ZM28.4545 155.03C28.4372 155.03 28.42 155.028 28.4033 155.023C28.3789 155.017 28.3561 155.005 28.3361 154.99C28.3161 154.974 28.2994 154.955 28.2869 154.933C28.2744 154.911 28.2663 154.887 28.2632 154.862C28.2601 154.837 28.2619 154.811 28.2686 154.787L30.6723 146.064C30.6858 146.015 30.7184 145.973 30.7628 145.948C30.8071 145.923 30.8597 145.917 30.9089 145.93C30.9581 145.944 30.9999 145.976 31.025 146.021C31.0502 146.065 31.0567 146.118 31.0432 146.167L28.6399 154.889C28.6287 154.93 28.6045 154.965 28.571 154.991C28.5375 155.016 28.4966 155.03 28.4545 155.03ZM75.5217 155.03C75.4707 155.03 75.4217 155.01 75.3857 154.974C75.3496 154.937 75.3293 154.889 75.3293 154.838V149.788C75.3293 149.737 75.3496 149.688 75.3857 149.652C75.4217 149.616 75.4707 149.595 75.5217 149.595C75.5727 149.595 75.6216 149.616 75.6577 149.652C75.6938 149.688 75.7141 149.737 75.7141 149.788V154.838C75.7141 154.889 75.6938 154.938 75.6577 154.974C75.6216 155.01 75.5727 155.03 75.5217 155.03Z" fill="black"/>
<path d="M178.143 155.03H23.5601C23.509 155.03 23.4601 155.01 23.424 154.973C23.3879 154.937 23.3677 154.888 23.3677 154.837C23.3677 154.786 23.3879 154.737 23.424 154.701C23.4601 154.665 23.509 154.645 23.5601 154.645H178.143C178.195 154.645 178.243 154.665 178.28 154.701C178.316 154.737 178.336 154.786 178.336 154.837C178.336 154.888 178.316 154.937 178.28 154.973C178.243 155.01 178.195 155.03 178.143 155.03Z" fill="black"/>
<path d="M167.052 148.634H115.965L123.661 111.696H174.427C174.541 111.696 174.654 111.722 174.757 111.771C174.861 111.82 174.952 111.891 175.024 111.98C175.096 112.069 175.147 112.173 175.174 112.284C175.201 112.395 175.203 112.511 175.18 112.623L167.805 148.021C167.769 148.194 167.675 148.35 167.537 148.461C167.4 148.573 167.229 148.634 167.052 148.634Z" fill="#FED44A"/>
<path d="M120.54 112.309L113.165 147.707C113.142 147.819 113.144 147.935 113.171 148.046C113.198 148.157 113.249 148.261 113.321 148.35C113.394 148.438 113.485 148.51 113.588 148.559C113.691 148.608 113.804 148.634 113.918 148.634H115.965L123.661 111.696H121.293C121.116 111.696 120.945 111.757 120.808 111.869C120.671 111.98 120.576 112.135 120.54 112.309Z" fill="black"/>
<path d="M160.563 160.084H148.348L140.652 137.922H153.402C153.562 137.922 153.718 137.971 153.849 138.064C153.979 138.157 154.077 138.288 154.13 138.439L161.29 159.062C161.33 159.178 161.342 159.302 161.325 159.424C161.307 159.545 161.261 159.661 161.19 159.761C161.119 159.861 161.025 159.942 160.916 159.999C160.807 160.055 160.686 160.084 160.563 160.084Z" fill="#2CA68F"/>
<path d="M138.428 138.944L145.589 159.567C145.641 159.718 145.739 159.849 145.87 159.942C146 160.034 146.156 160.084 146.316 160.084H148.348L140.652 137.922H139.156C139.033 137.922 138.912 137.951 138.803 138.007C138.694 138.063 138.599 138.145 138.528 138.245C138.457 138.345 138.411 138.461 138.394 138.582C138.376 138.704 138.388 138.828 138.428 138.944Z" fill="black"/>
<path d="M146.685 128.41H144.653C143.684 128.41 142.899 129.195 142.899 130.164C142.899 131.133 143.684 131.919 144.653 131.919H146.685C147.654 131.919 148.44 131.133 148.44 130.164C148.44 129.195 147.654 128.41 146.685 128.41Z" fill="black"/>
<path d="M112.245 48.0733H88.5103C88.3062 48.0733 88.1104 48.1544 87.9661 48.2987C87.8218 48.443 87.7407 48.6387 87.7407 48.8428V65.8649C87.7407 66.069 87.8218 66.2647 87.9661 66.409C88.1104 66.5533 88.3062 66.6344 88.5103 66.6344H103.225L106.204 71.3774C106.24 71.434 106.289 71.4803 106.348 71.5118C106.407 71.5434 106.473 71.559 106.54 71.5573C106.607 71.5555 106.672 71.5364 106.729 71.5019C106.786 71.4673 106.833 71.4184 106.866 71.3601L109.505 66.6344H112.245C112.449 66.6344 112.645 66.5533 112.789 66.409C112.934 66.2647 113.015 66.069 113.015 65.8649V48.8428C113.015 48.6387 112.934 48.443 112.789 48.2987C112.645 48.1544 112.449 48.0733 112.245 48.0733Z" fill="#FD6F41"/>
<path d="M159.271 64.0768H123.138C122.934 64.0768 122.738 64.1579 122.594 64.3022C122.449 64.4465 122.368 64.6422 122.368 64.8463V84.9642C122.368 85.1683 122.449 85.364 122.594 85.5083C122.738 85.6526 122.934 85.7337 123.138 85.7337H150.136L152.679 89.7818C152.714 89.8383 152.764 89.8846 152.823 89.9161C152.882 89.9476 152.948 89.9633 153.014 89.9616C153.081 89.9599 153.146 89.9408 153.203 89.9064C153.26 89.8719 153.308 89.8231 153.34 89.7649L155.591 85.7337H159.271C159.475 85.7337 159.67 85.6526 159.815 85.5083C159.959 85.364 160.04 85.1683 160.04 84.9642V64.8463C160.04 64.6422 159.959 64.4465 159.815 64.3022C159.67 64.1579 159.475 64.0768 159.271 64.0768H159.271Z" fill="#C1E5D9"/>
<path d="M94.5599 58.8604C96.0451 58.8604 96.0478 56.5518 94.5599 56.5518C93.0743 56.5518 93.072 58.8604 94.5599 58.8604ZM100.378 58.8604C101.863 58.8604 101.865 56.5518 100.378 56.5518C98.892 56.5518 98.8896 58.8604 100.378 58.8604ZM106.195 58.8604C107.68 58.8604 107.683 56.5518 106.195 56.5518C104.71 56.5518 104.707 58.8604 106.195 58.8604ZM155.122 71.9424H141.824C141.722 71.9424 141.625 71.9019 141.552 71.8298C141.48 71.7576 141.44 71.6597 141.44 71.5577C141.44 71.4556 141.48 71.3578 141.552 71.2856C141.625 71.2135 141.722 71.1729 141.824 71.1729H155.122C155.224 71.1729 155.322 71.2135 155.394 71.2856C155.466 71.3578 155.507 71.4556 155.507 71.5577C155.507 71.6597 155.466 71.7576 155.394 71.8298C155.322 71.9019 155.224 71.9424 155.122 71.9424ZM155.122 75.4503H141.824C141.722 75.4503 141.625 75.4098 141.552 75.3377C141.48 75.2655 141.44 75.1676 141.44 75.0656C141.44 74.9635 141.48 74.8657 141.552 74.7935C141.625 74.7214 141.722 74.6808 141.824 74.6808H155.122C155.224 74.6808 155.322 74.7214 155.394 74.7935C155.466 74.8657 155.507 74.9635 155.507 75.0656C155.507 75.1676 155.466 75.2655 155.394 75.3377C155.322 75.4098 155.224 75.4503 155.122 75.4503ZM155.122 78.9579H141.824C141.722 78.9579 141.625 78.9173 141.552 78.8452C141.48 78.773 141.44 78.6752 141.44 78.5731C141.44 78.4711 141.48 78.3732 141.552 78.301C141.625 78.2289 141.722 78.1883 141.824 78.1883H155.122C155.224 78.1883 155.322 78.2289 155.394 78.301C155.466 78.3732 155.507 78.4711 155.507 78.5731C155.507 78.6752 155.466 78.773 155.394 78.8452C155.322 78.9173 155.224 78.9579 155.122 78.9579ZM137.546 80.8063H127.45C127.144 80.806 126.85 80.6843 126.634 80.4679C126.417 80.2515 126.296 79.958 126.295 79.652V70.4792C126.296 70.1731 126.417 69.8797 126.634 69.6633C126.85 69.4469 127.144 69.3252 127.45 69.3249H137.546C137.852 69.3252 138.145 69.4469 138.362 69.6633C138.578 69.8797 138.7 70.1731 138.7 70.4792V79.652C138.7 79.958 138.578 80.2515 138.362 80.4679C138.145 80.6843 137.852 80.806 137.546 80.8063ZM127.45 70.0944C127.348 70.0945 127.25 70.1351 127.178 70.2072C127.106 70.2794 127.065 70.3772 127.065 70.4792V79.652C127.065 79.754 127.106 79.8518 127.178 79.9239C127.25 79.9961 127.348 80.0367 127.45 80.0368H137.546C137.648 80.0367 137.746 79.9961 137.818 79.9239C137.89 79.8518 137.931 79.754 137.931 79.652V70.4792C137.931 70.3772 137.89 70.2794 137.818 70.2072C137.746 70.1351 137.648 70.0945 137.546 70.0944H127.45Z" fill="black"/>
<path d="M139.808 77.205H116.138C115.934 77.205 115.738 77.286 115.594 77.4303C115.449 77.5747 115.368 77.7704 115.368 77.9745V94.2878C115.368 94.4919 115.449 94.6876 115.594 94.8319C115.738 94.9762 115.934 95.0573 116.138 95.0573H120.932L123.5 99.1458C123.536 99.2024 123.585 99.2487 123.644 99.2803C123.703 99.3118 123.769 99.3275 123.836 99.3257C123.903 99.324 123.968 99.3049 124.025 99.2703C124.082 99.2357 124.129 99.1869 124.162 99.1285L126.435 95.0573H139.808C140.013 95.0573 140.208 94.9762 140.353 94.8319C140.497 94.6876 140.578 94.4919 140.578 94.2878V77.9745C140.578 77.7704 140.497 77.5747 140.353 77.4303C140.208 77.286 140.013 77.205 139.808 77.205Z" fill="#2CA68F"/>
<path d="M134.622 83.1332H121.324C121.222 83.1332 121.124 83.0926 121.052 83.0205C120.98 82.9483 120.939 82.8505 120.939 82.7484C120.939 82.6464 120.98 82.5485 121.052 82.4763C121.124 82.4042 121.222 82.3636 121.324 82.3636H134.622C134.724 82.3636 134.822 82.4042 134.894 82.4763C134.966 82.5485 135.006 82.6464 135.006 82.7484C135.006 82.8505 134.966 82.9483 134.894 83.0205C134.822 83.0926 134.724 83.1332 134.622 83.1332ZM134.622 86.6407H121.324C121.222 86.6407 121.124 86.6002 121.052 86.528C120.98 86.4558 120.939 86.358 120.939 86.2559C120.939 86.1539 120.98 86.056 121.052 85.9839C121.124 85.9117 121.222 85.8712 121.324 85.8712H134.622C134.724 85.8712 134.822 85.9117 134.894 85.9839C134.966 86.056 135.006 86.1539 135.006 86.2559C135.006 86.358 134.966 86.4558 134.894 86.528C134.822 86.6002 134.724 86.6407 134.622 86.6407ZM134.622 90.1486H121.324C121.222 90.1486 121.124 90.1081 121.052 90.0359C120.98 89.9638 120.939 89.8659 120.939 89.7638C120.939 89.6618 120.98 89.5639 121.052 89.4918C121.124 89.4196 121.222 89.3791 121.324 89.3791H134.622C134.724 89.3791 134.822 89.4196 134.894 89.4918C134.966 89.5639 135.006 89.6618 135.006 89.7638C135.006 89.8659 134.966 89.9638 134.894 90.0359C134.822 90.1081 134.724 90.1486 134.622 90.1486Z" fill="black"/>
<path d="M18.8564 130.687H40.456V133.151H18.8564V130.687Z" fill="#FED44A"/>
<path d="M155.122 102.86H176.722V105.324H155.122V102.86Z" fill="#674CFB"/>
<path d="M40.6919 56.4738H62.2915V58.9379H40.6919V56.4738Z" fill="#FD6F41"/>
<path d="M134.622 49.8402C134.272 49.8402 133.931 49.7366 133.64 49.5425C133.35 49.3483 133.123 49.0724 132.989 48.7495C132.856 48.4267 132.821 48.0714 132.889 47.7287C132.957 47.386 133.125 47.0711 133.372 46.824C133.62 46.577 133.934 46.4087 134.277 46.3405C134.62 46.2723 134.975 46.3073 135.298 46.441C135.621 46.5748 135.897 46.8012 136.091 47.0918C136.285 47.3823 136.389 47.7239 136.389 48.0734C136.388 48.5418 136.202 48.9909 135.871 49.3222C135.539 49.6534 135.09 49.8397 134.622 49.8402ZM134.622 46.6913C134.348 46.6913 134.081 46.7724 133.854 46.9242C133.627 47.0761 133.45 47.292 133.345 47.5445C133.24 47.797 133.213 48.0749 133.266 48.343C133.32 48.6111 133.451 48.8574 133.644 49.0507C133.838 49.244 134.084 49.3756 134.352 49.4289C134.62 49.4822 134.898 49.4549 135.151 49.3503C135.403 49.2457 135.619 49.0685 135.771 48.8412C135.923 48.614 136.004 48.3467 136.004 48.0734C136.003 47.707 135.858 47.3558 135.598 47.0967C135.339 46.8376 134.988 46.6918 134.622 46.6913ZM86.6307 98.8163C86.2813 98.8162 85.9398 98.7125 85.6493 98.5184C85.3588 98.3242 85.1324 98.0482 84.9987 97.7254C84.865 97.4026 84.83 97.0474 84.8982 96.7047C84.9664 96.362 85.1347 96.0472 85.3818 95.8001C85.6288 95.553 85.9436 95.3848 86.2863 95.3166C86.629 95.2484 86.9842 95.2833 87.3071 95.417C87.6299 95.5507 87.9058 95.7771 88.1 96.0676C88.2942 96.3581 88.3979 96.6996 88.3979 97.0491C88.3974 97.5176 88.2111 97.9668 87.8798 98.2981C87.5485 98.6294 87.0993 98.8158 86.6307 98.8163ZM86.6307 95.6674C86.3574 95.6674 86.0902 95.7486 85.8629 95.9005C85.6357 96.0524 85.4586 96.2683 85.3541 96.5209C85.2495 96.7735 85.2223 97.0514 85.2757 97.3195C85.3291 97.5875 85.4608 97.8338 85.6541 98.027C85.8474 98.2202 86.0937 98.3518 86.3619 98.405C86.63 98.4583 86.9078 98.4308 87.1604 98.3262C87.4129 98.2215 87.6287 98.0443 87.7805 97.817C87.9323 97.5896 88.0133 97.3224 88.0132 97.0491C88.0127 96.6826 87.8668 96.3314 87.6077 96.0723C87.3485 95.8133 86.9971 95.6677 86.6307 95.6674Z" fill="black"/>
<path d="M167.33 92.427L164.514 91.6575L166.561 89.2257L167.33 92.427Z" fill="#FD6F41"/>
<path d="M28.1324 109L25.3159 108.231L27.3629 105.799L28.1324 109ZM109.584 38.359L106.767 37.5895L108.814 35.1578L109.584 38.359Z" fill="#FED44A"/>
<path d="M52.8995 67.9112L50.083 67.1416L52.13 64.7099L52.8995 67.9112Z" fill="#674CFB"/>
<path d="M102.26 161.842L99.4438 161.073L101.491 158.641L102.26 161.842Z" fill="#2CA68F"/>
</svg>
