<svg width="451" height="451" viewBox="0 0 451 451" fill="none" xmlns="http://www.w3.org/2000/svg">
<path d="M357.891 366.487H317.829C317.128 366.487 316.456 366.209 315.961 365.713C315.465 365.217 315.187 364.545 315.187 363.844C315.187 363.144 315.465 362.471 315.961 361.976C316.456 361.48 317.128 361.202 317.829 361.202H357.891C358.592 361.202 359.264 361.48 359.759 361.976C360.255 362.471 360.533 363.144 360.533 363.844C360.533 364.545 360.255 365.217 359.759 365.713C359.264 366.209 358.592 366.487 357.891 366.487ZM132.047 191.654C132.047 191.654 130.779 186.263 145.683 181.507C160.587 176.75 168.832 171.042 170.417 164.383C170.417 164.383 173.906 181.507 180.248 184.678C180.248 184.678 188.176 159.943 169.783 151.064C151.391 142.185 130.462 154.869 121.9 171.359C113.338 187.849 114.923 191.02 106.044 201.167C100.283 207.751 58.7949 230.658 91.14 255.71C91.14 255.71 113.972 222.414 126.656 224.95C126.656 224.95 131.047 205.88 130.437 203.682C129.847 201.554 117.784 192.416 121.774 183.058C121.94 182.636 122.188 182.25 122.503 181.924C122.818 181.598 123.194 181.337 123.61 181.156C125.445 180.426 128.819 181.003 132.047 191.654Z" fill="black"/>
<path d="M143.563 251.001C139.194 251.002 133.522 242.514 126.254 225.119C126.216 225.013 126.22 224.896 126.266 224.792C126.312 224.689 126.395 224.607 126.5 224.564C126.604 224.52 126.721 224.519 126.827 224.559C126.932 224.599 127.018 224.679 127.067 224.781C136.176 246.582 141.293 250.576 143.998 250.081C148.052 249.339 149.326 237.858 149.475 233.497C149.12 229.214 149.709 224.904 151.199 220.873C151.237 220.776 151.309 220.696 151.401 220.648C151.493 220.599 151.599 220.585 151.701 220.608C158.66 222.139 164.47 221.031 168.966 217.317C180.302 207.947 179.818 184.921 179.811 184.69C179.809 184.632 179.819 184.574 179.84 184.52C179.86 184.466 179.891 184.416 179.931 184.374C179.971 184.332 180.019 184.298 180.072 184.275C180.125 184.251 180.182 184.238 180.24 184.237C180.355 184.238 180.466 184.283 180.55 184.363C180.634 184.442 180.684 184.55 180.692 184.666C180.718 185.628 181.196 208.349 169.528 217.995C164.894 221.824 158.959 223.018 151.886 221.549C150.559 225.375 150.038 229.434 150.353 233.471C150.332 234.196 149.734 249.928 144.156 250.947C143.961 250.983 143.762 251.001 143.563 251.001Z" fill="black"/>
<path d="M165.321 202.93C164.35 202.918 163.397 202.667 162.546 202.2C161.695 201.733 160.972 201.064 160.44 200.251C160.379 200.154 160.358 200.037 160.381 199.925C160.404 199.813 160.47 199.714 160.565 199.65C160.66 199.586 160.777 199.561 160.889 199.581C161.002 199.601 161.103 199.665 161.17 199.758C161.867 200.825 162.941 201.59 164.178 201.9C164.61 202.034 165.064 202.08 165.514 202.037C165.964 201.993 166.401 201.859 166.798 201.645C167.159 201.357 167.46 200.999 167.681 200.594C167.903 200.189 168.041 199.743 168.089 199.284C168.296 198.042 168.153 196.766 167.676 195.6C167.474 194.959 167.295 194.31 167.14 193.656C166.648 191.513 165.974 188.58 167.164 185.774C167.58 184.731 168.218 183.79 169.033 183.017C169.848 182.244 170.821 181.657 171.884 181.296C173.407 180.864 175.029 180.943 176.503 181.519C176.612 181.561 176.699 181.645 176.746 181.752C176.793 181.859 176.796 181.98 176.753 182.089C176.711 182.198 176.627 182.286 176.52 182.333C176.413 182.38 176.292 182.382 176.183 182.34C174.891 181.833 173.469 181.763 172.134 182.141C171.195 182.464 170.338 182.987 169.62 183.673C168.902 184.36 168.342 185.193 167.976 186.116C166.896 188.661 167.533 191.434 167.999 193.458C168.164 194.176 168.352 194.797 168.519 195.343C169.043 196.647 169.193 198.072 168.953 199.457C168.886 200.031 168.703 200.587 168.416 201.089C168.129 201.592 167.744 202.031 167.283 202.381C166.697 202.753 166.015 202.944 165.321 202.93ZM163.553 183.446C163.479 183.446 163.406 183.427 163.341 183.392C163.276 183.356 163.221 183.304 163.182 183.242C159.976 178.221 152.061 181.27 151.981 181.3C151.927 181.323 151.869 181.335 151.811 181.334C151.752 181.334 151.694 181.323 151.64 181.3C151.586 181.277 151.537 181.244 151.496 181.202C151.456 181.16 151.423 181.11 151.402 181.056C151.38 181.001 151.37 180.943 151.371 180.884C151.372 180.826 151.385 180.768 151.409 180.715C151.433 180.661 151.467 180.613 151.51 180.573C151.553 180.533 151.603 180.502 151.658 180.481C151.745 180.446 160.333 177.143 163.924 182.769C163.967 182.835 163.99 182.912 163.993 182.991C163.996 183.07 163.977 183.148 163.939 183.217C163.901 183.286 163.846 183.344 163.778 183.384C163.71 183.425 163.632 183.446 163.553 183.446Z" fill="black"/>
<path d="M160.782 190.839C161.045 189.019 160.345 187.412 159.219 187.249C158.092 187.086 156.965 188.429 156.702 190.249C156.438 192.069 157.138 193.676 158.265 193.839C159.391 194.002 160.518 192.659 160.782 190.839Z" fill="black"/>
<path d="M175.783 193.011C176.047 191.191 175.347 189.583 174.221 189.42C173.094 189.257 171.967 190.6 171.704 192.42C171.44 194.24 172.14 195.848 173.267 196.011C174.393 196.174 175.52 194.831 175.783 193.011Z" fill="black"/>
<path d="M159.218 208.373L159.18 208.371C155.818 208.076 153.561 206.998 152.472 205.169C152.051 204.347 151.815 203.444 151.778 202.522C151.742 201.6 151.906 200.681 152.26 199.829C152.307 199.722 152.394 199.637 152.503 199.594C152.611 199.551 152.732 199.553 152.84 199.6C152.947 199.646 153.031 199.733 153.074 199.842C153.117 199.95 153.115 200.072 153.069 200.179C153.059 200.203 152.016 202.69 153.233 204.724C154.17 206.292 156.197 207.224 159.256 207.493C159.369 207.504 159.474 207.557 159.548 207.642C159.623 207.727 159.662 207.838 159.657 207.951C159.652 208.064 159.604 208.171 159.522 208.25C159.44 208.328 159.332 208.372 159.218 208.373ZM151.608 220.564C145.66 219.823 140.236 216.789 136.492 212.107C138.278 220.255 143.047 227.44 149.861 232.251C149.612 228.276 150.208 224.293 151.608 220.564Z" fill="black"/>
<path d="M128.026 303.224C120.484 303.224 114.289 303.189 112.679 303.081C112.41 303.065 112.148 302.984 111.917 302.845C111.685 302.707 111.49 302.514 111.349 302.284C109.097 298.835 114.232 283.739 115.478 280.219C108.385 279.533 83.9931 268.232 82.9264 267.737C82.8683 267.71 82.8167 267.67 82.7754 267.621C82.7341 267.572 82.704 267.515 82.6872 267.453C82.6704 267.391 82.6674 267.326 82.6783 267.263C82.6892 267.2 82.7137 267.14 82.7503 267.087L90.7837 255.459C90.8521 255.369 90.953 255.308 91.0652 255.29C91.1774 255.272 91.2923 255.298 91.3858 255.362C91.4793 255.427 91.5442 255.525 91.567 255.636C91.5897 255.748 91.5685 255.864 91.5078 255.96L83.772 267.156C87.3915 268.82 110.57 279.37 116.091 279.37C116.161 279.37 116.231 279.387 116.294 279.419C116.357 279.452 116.411 279.499 116.451 279.557C116.492 279.615 116.518 279.682 116.527 279.752C116.537 279.822 116.529 279.893 116.505 279.96C114.654 285.083 110.251 298.992 112.087 301.802C112.154 301.918 112.248 302.016 112.362 302.085C112.475 302.155 112.605 302.195 112.738 302.202C117.249 302.502 159.648 302.226 163.209 302.203C164.493 300.259 174.885 284.289 173.178 279.391C171.3 274 170.025 270.699 170.012 270.667C169.974 270.57 169.972 270.464 170.006 270.366C170.039 270.268 170.106 270.185 170.194 270.131L176.852 266.096C175.702 263.263 167.172 243.458 149.63 232.626C149.53 232.564 149.459 232.466 149.432 232.352C149.405 232.238 149.424 232.118 149.486 232.019C149.547 231.919 149.646 231.848 149.76 231.821C149.873 231.794 149.993 231.814 150.093 231.875C169.183 243.664 177.727 265.901 177.811 266.125C177.847 266.221 177.849 266.327 177.815 266.424C177.782 266.521 177.715 266.604 177.628 266.657L170.966 270.694C172.019 273.483 173.033 276.285 174.01 279.102C175.962 284.706 164.309 302.149 163.812 302.888C163.772 302.947 163.718 302.996 163.655 303.03C163.592 303.064 163.521 303.082 163.449 303.082C162.212 303.091 142.604 303.224 128.026 303.224Z" fill="black"/>
<path d="M125.198 257.824L116.53 279.81L110.57 278.454L125.198 257.824ZM170.108 270.825L160.754 255.234L172.899 269.134L170.108 270.825Z" fill="black"/>
<path d="M214.188 351.821C211.315 351.821 208.493 349.906 207.559 349.208C207.11 349.686 206.558 350.055 205.945 350.286C205.331 350.517 204.673 350.604 204.02 350.541C200.16 350.063 196.669 343.871 194.357 339.773C193.823 338.764 193.232 337.785 192.588 336.842C191.804 335.836 189.574 337.094 186.751 338.69C183.137 340.732 178.172 343.533 172.879 343.355L171.141 343.3C132.428 342.096 66.7182 338.869 61.5978 330.783C55.4987 321.155 84.7282 270.737 85.9755 268.594C86.0048 268.544 86.0435 268.501 86.0896 268.466C86.1357 268.431 86.1883 268.405 86.2443 268.39C86.3003 268.376 86.3586 268.372 86.4159 268.38C86.4733 268.388 86.5285 268.407 86.5785 268.436C86.6285 268.465 86.6722 268.504 86.7072 268.55C86.7422 268.596 86.7677 268.649 86.7824 268.705C86.7971 268.761 86.8006 268.819 86.7928 268.877C86.7849 268.934 86.7658 268.989 86.7366 269.039C86.4336 269.559 56.5267 321.131 62.3412 330.312C65.9228 335.967 105.589 340.38 171.169 342.419L172.908 342.475C177.962 342.63 182.598 340.026 186.318 337.924C189.635 336.048 192.031 334.691 193.283 336.302C193.957 337.278 194.572 338.293 195.125 339.341C197.349 343.284 200.709 349.243 204.129 349.667C204.713 349.713 205.299 349.614 205.835 349.379C206.371 349.144 206.841 348.78 207.203 348.319C207.28 348.238 207.384 348.189 207.495 348.183C207.607 348.176 207.716 348.212 207.802 348.283C207.846 348.318 212.18 351.826 215.65 350.723C217.425 350.156 218.708 348.45 219.464 345.654C219.483 345.585 219.518 345.522 219.567 345.47C219.615 345.418 219.675 345.379 219.742 345.355C219.809 345.331 219.881 345.324 219.951 345.334C220.022 345.344 220.089 345.371 220.146 345.412C220.193 345.445 224.784 348.701 228.085 347.271C229.889 346.485 231.018 344.409 231.441 341.1C231.858 337.497 231.318 333.848 229.875 330.521C228.078 326.253 224.332 318.503 219.455 314.559C219.371 314.491 219.315 314.394 219.298 314.287C219.281 314.18 219.304 314.071 219.363 313.98C219.421 313.889 219.511 313.823 219.615 313.794C219.719 313.765 219.831 313.775 219.928 313.823C220.474 314.096 233.366 320.569 238.743 325.629C241.519 328.243 244.255 328.376 245.734 327.347C247.402 326.187 247.671 323.652 246.438 320.73C243.46 313.676 225.421 299.681 222.409 298.946C222.329 298.926 222.256 298.884 222.198 298.825C222.141 298.766 222.101 298.692 222.084 298.611C222.067 298.53 222.072 298.446 222.1 298.369C222.128 298.291 222.178 298.223 222.243 298.172C222.309 298.12 228.854 292.982 229.763 288.133C230.362 284.934 229.967 282.465 228.679 281.359C227.619 280.449 225.938 280.388 223.681 281.177C220.891 282.153 218.017 284.095 215.237 285.971C211.732 288.337 208.109 290.783 204.435 291.5C200.256 292.316 196.012 292.812 192.914 293.175C191.111 293.386 189.687 293.553 188.73 293.721C183.155 294.705 169.559 297.576 163.744 302.965C163.658 303.045 163.544 303.087 163.428 303.083C163.311 303.078 163.201 303.027 163.121 302.942C163.042 302.856 163 302.742 163.004 302.625C163.009 302.509 163.059 302.398 163.145 302.319C169.131 296.771 182.925 293.852 188.577 292.854C189.559 292.681 190.994 292.512 192.811 292.3C195.895 291.939 200.121 291.444 204.267 290.635C207.765 289.953 211.313 287.557 214.744 285.241C217.571 283.333 220.493 281.36 223.39 280.347C225.966 279.444 227.938 279.561 229.253 280.69C230.809 282.027 231.297 284.727 230.629 288.295C229.817 292.622 225.079 296.948 223.381 298.381C228.122 300.592 244.354 313.529 247.249 320.388C248.928 324.364 247.827 326.964 246.236 328.069C244.465 329.301 241.275 329.221 238.139 326.27C234.348 322.703 226.487 318.285 222.299 316.051C225.964 320.06 228.824 325.755 230.688 330.179C232.19 333.65 232.751 337.455 232.314 341.211C231.85 344.851 230.544 347.162 228.433 348.079C225.34 349.425 221.516 347.333 220.145 346.468C219.282 349.229 217.862 350.942 215.916 351.562C215.357 351.738 214.774 351.825 214.188 351.821Z" fill="black"/>
<path d="M207.525 349.062C207.468 349.063 207.411 349.051 207.359 349.03C207.251 348.986 207.164 348.901 207.119 348.793C207.073 348.686 207.072 348.565 207.116 348.456C208.735 344.471 201.055 331.492 197.961 326.827C197.928 326.779 197.905 326.724 197.893 326.667C197.881 326.61 197.88 326.551 197.891 326.493C197.902 326.436 197.925 326.381 197.957 326.333C197.99 326.284 198.031 326.242 198.08 326.21C198.129 326.178 198.184 326.155 198.241 326.144C198.298 326.133 198.357 326.134 198.415 326.146C198.472 326.158 198.526 326.181 198.574 326.215C198.622 326.248 198.663 326.29 198.695 326.34C199.16 327.04 210.056 343.559 207.932 348.788C207.899 348.869 207.843 348.939 207.77 348.988C207.698 349.036 207.612 349.062 207.525 349.062ZM219.891 346.209C219.781 346.209 219.674 346.168 219.593 346.093C219.512 346.018 219.462 345.916 219.452 345.806C218.523 334.651 207.538 320.178 207.427 320.033C207.389 319.987 207.361 319.934 207.345 319.878C207.328 319.821 207.323 319.761 207.33 319.703C207.337 319.644 207.355 319.587 207.385 319.536C207.414 319.485 207.453 319.44 207.5 319.404C207.547 319.368 207.601 319.342 207.658 319.327C207.715 319.312 207.775 319.309 207.833 319.318C207.892 319.327 207.948 319.347 207.998 319.378C208.048 319.409 208.092 319.45 208.126 319.498C208.584 320.097 219.379 334.319 220.33 345.732C220.339 345.848 220.303 345.964 220.227 346.053C220.152 346.142 220.044 346.198 219.928 346.208C219.916 346.209 219.903 346.209 219.891 346.209ZM190.74 293.432C190.664 293.432 190.589 293.412 190.523 293.375C190.457 293.338 190.401 293.284 190.362 293.219L174.981 267.745C174.921 267.645 174.902 267.525 174.93 267.412C174.958 267.298 175.03 267.2 175.13 267.14C175.23 267.079 175.35 267.061 175.463 267.089C175.577 267.117 175.675 267.189 175.735 267.289L191.117 292.763C191.157 292.83 191.179 292.906 191.18 292.984C191.181 293.062 191.161 293.139 191.123 293.207C191.085 293.275 191.029 293.331 190.962 293.371C190.894 293.41 190.818 293.431 190.74 293.431V293.432ZM65.1424 354.916C65.1029 354.916 65.0635 354.911 65.0253 354.901C64.9694 354.885 64.9172 354.859 64.8714 354.824C64.8257 354.788 64.7875 354.744 64.7588 354.694C64.7302 354.643 64.7118 354.588 64.7046 354.531C64.6974 354.473 64.7016 354.415 64.717 354.359L70.2197 334.391C70.2508 334.278 70.3253 334.183 70.4269 334.125C70.5285 334.067 70.6488 334.052 70.7614 334.083C70.874 334.114 70.9697 334.189 71.0273 334.291C71.085 334.392 71.0999 334.513 71.0689 334.625L65.567 354.593C65.5414 354.686 65.4859 354.768 65.4093 354.827C65.3326 354.885 65.2388 354.916 65.1424 354.916ZM172.895 354.916C172.779 354.916 172.666 354.869 172.584 354.787C172.501 354.704 172.455 354.592 172.455 354.475V342.915C172.455 342.798 172.501 342.686 172.584 342.603C172.666 342.521 172.779 342.474 172.895 342.474C173.012 342.474 173.124 342.521 173.207 342.603C173.289 342.686 173.336 342.798 173.336 342.915V354.476C173.336 354.593 173.289 354.705 173.207 354.788C173.124 354.87 173.012 354.916 172.895 354.916Z" fill="black"/>
<path d="M407.833 354.916H53.9385C53.8217 354.916 53.7096 354.87 53.627 354.787C53.5444 354.704 53.498 354.592 53.498 354.476C53.498 354.359 53.5444 354.247 53.627 354.164C53.7096 354.082 53.8217 354.035 53.9385 354.035H407.833C407.949 354.035 408.061 354.082 408.144 354.164C408.227 354.247 408.273 354.359 408.273 354.476C408.273 354.592 408.227 354.704 408.144 354.787C408.061 354.87 407.949 354.916 407.833 354.916Z" fill="black"/>
<path d="M382.443 340.272H265.488L283.105 255.71H399.326C399.588 255.71 399.846 255.768 400.083 255.881C400.319 255.993 400.528 256.157 400.693 256.36C400.858 256.563 400.976 256.801 401.038 257.055C401.1 257.31 401.104 257.575 401.051 257.831L384.167 338.87C384.085 339.266 383.868 339.622 383.554 339.878C383.24 340.133 382.847 340.272 382.443 340.272Z" fill="#FED44A"/>
<path d="M275.962 257.112L259.078 338.151C259.025 338.408 259.029 338.673 259.091 338.927C259.153 339.182 259.271 339.419 259.436 339.622C259.601 339.825 259.809 339.989 260.046 340.102C260.282 340.214 260.541 340.272 260.803 340.272H265.489L283.106 255.71H277.686C277.281 255.71 276.889 255.849 276.575 256.105C276.261 256.36 276.044 256.716 275.962 257.112Z" fill="black"/>
<path d="M367.587 366.487H339.621L322.004 315.749H351.193C351.559 315.749 351.916 315.863 352.214 316.075C352.513 316.287 352.738 316.587 352.858 316.933L369.251 364.147C369.343 364.413 369.37 364.696 369.33 364.974C369.291 365.253 369.185 365.517 369.022 365.746C368.859 365.975 368.644 366.162 368.394 366.291C368.144 366.419 367.868 366.487 367.587 366.487Z" fill="#2CA68F"/>
<path d="M316.908 318.089L333.301 365.303C333.421 365.649 333.646 365.949 333.944 366.161C334.242 366.373 334.6 366.487 334.966 366.487H339.617L321.999 315.749H318.573C318.292 315.749 318.015 315.816 317.765 315.945C317.515 316.074 317.3 316.261 317.137 316.49C316.974 316.719 316.868 316.983 316.828 317.261C316.788 317.54 316.816 317.823 316.908 318.089Z" fill="black"/>
<path d="M335.816 293.974H331.165C328.947 293.974 327.148 295.773 327.148 297.991C327.148 300.209 328.947 302.008 331.165 302.008H335.816C338.034 302.008 339.833 300.209 339.833 297.991C339.833 295.773 338.034 293.974 335.816 293.974Z" fill="black"/>
<path d="M256.966 110.056H202.629C202.162 110.056 201.714 110.242 201.383 110.572C201.053 110.903 200.867 111.351 200.867 111.818V150.787C200.867 151.254 201.053 151.702 201.383 152.033C201.714 152.363 202.162 152.549 202.629 152.549H236.316L243.136 163.407C243.217 163.537 243.331 163.643 243.466 163.715C243.601 163.787 243.752 163.823 243.905 163.819C244.058 163.815 244.207 163.771 244.338 163.692C244.469 163.613 244.577 163.501 244.651 163.368L250.692 152.549H256.966C257.434 152.549 257.882 152.363 258.212 152.033C258.543 151.702 258.728 151.254 258.728 150.787V111.818C258.728 111.351 258.543 110.903 258.212 110.572C257.882 110.242 257.434 110.056 256.966 110.056Z" fill="#FD6F41"/>
<path d="M364.624 146.693H281.902C281.435 146.693 280.987 146.878 280.657 147.209C280.326 147.539 280.141 147.987 280.141 148.455V194.511C280.141 194.978 280.326 195.427 280.657 195.757C280.987 196.087 281.435 196.273 281.902 196.273H343.71L349.532 205.54C349.613 205.67 349.727 205.776 349.862 205.848C349.996 205.92 350.147 205.956 350.3 205.952C350.453 205.948 350.602 205.904 350.733 205.826C350.864 205.747 350.972 205.635 351.046 205.502L356.199 196.273H364.623C365.09 196.273 365.538 196.087 365.869 195.757C366.199 195.427 366.385 194.978 366.385 194.511V148.455C366.385 147.987 366.199 147.539 365.869 147.209C365.538 146.878 365.09 146.693 364.623 146.693H364.624Z" fill="#C1E5D9"/>
<path d="M216.482 134.751C219.883 134.751 219.889 129.466 216.482 129.466C213.081 129.466 213.076 134.751 216.482 134.751ZM229.801 134.751C233.201 134.751 233.207 129.466 229.801 129.466C226.4 129.466 226.395 134.751 229.801 134.751ZM243.12 134.751C246.52 134.751 246.526 129.466 243.12 129.466C239.719 129.466 239.713 134.751 243.12 134.751ZM355.13 164.7H324.687C324.454 164.7 324.23 164.607 324.064 164.442C323.899 164.277 323.806 164.053 323.806 163.819C323.806 163.586 323.899 163.362 324.064 163.196C324.23 163.031 324.454 162.938 324.687 162.938H355.13C355.363 162.938 355.587 163.031 355.753 163.196C355.918 163.362 356.011 163.586 356.011 163.819C356.011 164.053 355.918 164.277 355.753 164.442C355.587 164.607 355.363 164.7 355.13 164.7ZM355.13 172.731H324.687C324.454 172.731 324.23 172.638 324.064 172.473C323.899 172.308 323.806 172.084 323.806 171.85C323.806 171.617 323.899 171.392 324.064 171.227C324.23 171.062 324.454 170.969 324.687 170.969H355.13C355.363 170.969 355.587 171.062 355.753 171.227C355.918 171.392 356.011 171.617 356.011 171.85C356.011 172.084 355.918 172.308 355.753 172.473C355.587 172.638 355.363 172.731 355.13 172.731ZM355.13 180.761H324.687C324.454 180.761 324.23 180.668 324.064 180.503C323.899 180.338 323.806 180.114 323.806 179.88C323.806 179.646 323.899 179.422 324.064 179.257C324.23 179.092 324.454 178.999 324.687 178.999H355.13C355.363 178.999 355.587 179.092 355.753 179.257C355.918 179.422 356.011 179.646 356.011 179.88C356.011 180.114 355.918 180.338 355.753 180.503C355.587 180.668 355.363 180.761 355.13 180.761ZM314.892 184.993H291.778C291.078 184.992 290.406 184.713 289.91 184.218C289.415 183.722 289.136 183.051 289.136 182.35V161.35C289.136 160.65 289.415 159.978 289.91 159.482C290.406 158.987 291.078 158.708 291.778 158.708H314.892C315.593 158.708 316.264 158.987 316.76 159.482C317.255 159.978 317.534 160.65 317.535 161.35V182.35C317.534 183.051 317.255 183.722 316.76 184.218C316.264 184.713 315.593 184.992 314.892 184.993ZM291.778 160.469C291.545 160.47 291.321 160.563 291.156 160.728C290.991 160.893 290.898 161.117 290.897 161.35V182.35C290.898 182.584 290.991 182.807 291.156 182.973C291.321 183.138 291.545 183.231 291.778 183.231H314.892C315.126 183.231 315.35 183.138 315.515 182.973C315.68 182.807 315.773 182.584 315.773 182.35V161.35C315.773 161.117 315.68 160.893 315.515 160.728C315.35 160.563 315.126 160.47 314.892 160.469H291.778Z" fill="black"/>
<path d="M320.073 176.749H265.883C265.416 176.749 264.967 176.935 264.637 177.265C264.307 177.595 264.121 178.044 264.121 178.511V215.857C264.121 216.325 264.307 216.773 264.637 217.103C264.967 217.434 265.416 217.619 265.883 217.619H276.858L282.738 226.979C282.819 227.109 282.933 227.215 283.068 227.287C283.203 227.359 283.354 227.395 283.507 227.391C283.66 227.387 283.809 227.343 283.94 227.264C284.071 227.185 284.179 227.073 284.253 226.94L289.457 217.619H320.073C320.541 217.619 320.989 217.434 321.319 217.103C321.649 216.773 321.835 216.325 321.835 215.857V178.511C321.835 178.044 321.649 177.595 321.319 177.265C320.989 176.935 320.541 176.749 320.073 176.749Z" fill="#2CA68F"/>
<path d="M308.192 190.32H277.75C277.516 190.32 277.292 190.228 277.127 190.062C276.962 189.897 276.869 189.673 276.869 189.439C276.869 189.206 276.962 188.982 277.127 188.817C277.292 188.651 277.516 188.559 277.75 188.559H308.192C308.426 188.559 308.65 188.651 308.815 188.817C308.981 188.982 309.073 189.206 309.073 189.439C309.073 189.673 308.981 189.897 308.815 190.062C308.65 190.228 308.426 190.32 308.192 190.32ZM308.192 198.35H277.75C277.516 198.35 277.292 198.257 277.127 198.092C276.962 197.927 276.869 197.703 276.869 197.469C276.869 197.236 276.962 197.012 277.127 196.847C277.292 196.681 277.516 196.589 277.75 196.589H308.192C308.426 196.589 308.65 196.681 308.815 196.847C308.981 197.012 309.073 197.236 309.073 197.469C309.073 197.703 308.981 197.927 308.815 198.092C308.65 198.257 308.426 198.35 308.192 198.35ZM308.192 206.381H277.75C277.516 206.381 277.292 206.288 277.127 206.123C276.962 205.958 276.869 205.734 276.869 205.5C276.869 205.267 276.962 205.042 277.127 204.877C277.292 204.712 277.516 204.619 277.75 204.619H308.192C308.426 204.619 308.65 204.712 308.815 204.877C308.981 205.042 309.073 205.267 309.073 205.5C309.073 205.734 308.981 205.958 308.815 206.123C308.65 206.288 308.426 206.381 308.192 206.381Z" fill="black"/>
<path d="M43.1719 299.188H92.6207V304.829H43.1719V299.188Z" fill="#FED44A"/>
<path d="M355.129 235.483H404.578V241.124H355.129V235.483Z" fill="#674CFB"/>
<path d="M93.1602 129.288H142.609V134.929H93.1602V129.288Z" fill="#FD6F41"/>
<path d="M308.197 114.101C307.397 114.101 306.615 113.864 305.95 113.419C305.285 112.975 304.766 112.343 304.46 111.604C304.154 110.865 304.074 110.052 304.23 109.267C304.386 108.482 304.771 107.762 305.337 107.196C305.903 106.63 306.623 106.245 307.408 106.089C308.193 105.933 309.006 106.013 309.745 106.319C310.484 106.625 311.116 107.144 311.56 107.809C312.005 108.474 312.242 109.256 312.242 110.056C312.241 111.129 311.814 112.157 311.056 112.915C310.298 113.673 309.269 114.1 308.197 114.101ZM308.197 106.892C307.571 106.892 306.959 107.078 306.439 107.425C305.919 107.773 305.513 108.267 305.274 108.845C305.034 109.423 304.972 110.06 305.094 110.673C305.216 111.287 305.517 111.851 305.96 112.293C306.402 112.736 306.966 113.037 307.58 113.159C308.194 113.281 308.83 113.219 309.408 112.979C309.986 112.74 310.48 112.334 310.828 111.814C311.175 111.294 311.361 110.682 311.361 110.056C311.36 109.217 311.026 108.413 310.433 107.82C309.84 107.227 309.036 106.893 308.197 106.892ZM198.329 226.224C197.529 226.224 196.747 225.986 196.082 225.542C195.417 225.097 194.899 224.466 194.593 223.726C194.287 222.987 194.207 222.174 194.363 221.39C194.519 220.605 194.904 219.884 195.47 219.319C196.036 218.753 196.756 218.368 197.541 218.212C198.325 218.056 199.139 218.136 199.878 218.442C200.617 218.748 201.248 219.266 201.693 219.931C202.137 220.596 202.375 221.378 202.375 222.178C202.374 223.251 201.947 224.279 201.189 225.038C200.43 225.796 199.402 226.223 198.329 226.224ZM198.329 219.015C197.703 219.015 197.092 219.201 196.571 219.549C196.051 219.896 195.646 220.391 195.407 220.969C195.167 221.547 195.105 222.183 195.227 222.797C195.349 223.411 195.651 223.975 196.093 224.417C196.536 224.859 197.1 225.16 197.714 225.282C198.327 225.404 198.964 225.341 199.542 225.102C200.12 224.862 200.614 224.457 200.961 223.936C201.309 223.416 201.494 222.804 201.494 222.178C201.493 221.339 201.159 220.535 200.566 219.942C199.972 219.349 199.168 219.016 198.329 219.015Z" fill="black"/>
<path d="M383.075 211.596L376.627 209.835L381.313 204.268L383.075 211.596Z" fill="#FD6F41"/>
<path d="M64.4049 249.539L57.957 247.778L62.6432 242.211L64.4049 249.539ZM250.875 87.817L244.427 86.0553L249.113 80.4883L250.875 87.817Z" fill="#FED44A"/>
<path d="M121.106 155.472L114.658 153.71L119.344 148.143L121.106 155.472Z" fill="#674CFB"/>
<path d="M234.108 370.511L227.66 368.75L232.346 363.183L234.108 370.511Z" fill="#2CA68F"/>
</svg>
