<svg width="100" height="100" viewBox="0 0 100 100" fill="none" xmlns="http://www.w3.org/2000/svg">
<path d="M0 24C0 10.7452 10.7452 0 24 0H76C89.2548 0 100 10.7452 100 24V76C100 89.2548 89.2548 100 76 100H24C10.7452 100 0 89.2548 0 76V24Z" fill="#DFFFF7"/>
<path d="M68.125 72.5L64.625 69L68.5625 65H58.125V60H68.5625L64.625 56L68.125 52.5L78.125 62.5L68.125 72.5ZM45 57.5C47.3333 57.5 49.4375 56.9267 51.3125 55.78C53.1875 54.6333 54.6667 53.1233 55.75 51.25C54.2917 50.0417 52.6458 49.1142 50.8125 48.4675C48.9792 47.8208 47.0417 47.4983 45 47.5C42.9583 47.5 41.0208 47.8233 39.1875 48.47C37.3542 49.1167 35.7083 50.0433 34.25 51.25C35.3333 53.125 36.8125 54.6358 38.6875 55.7825C40.5625 56.9292 42.6667 57.5017 45 57.5ZM45 45C46.375 45 47.5525 44.51 48.5325 43.53C49.5125 42.55 50.0017 41.3733 50 40C50 38.625 49.51 37.4475 48.53 36.4675C47.55 35.4875 46.3733 34.9983 45 35C43.625 35 42.4475 35.49 41.4675 36.47C40.4875 37.45 39.9983 38.6267 40 40C40 41.375 40.49 42.5525 41.47 43.5325C42.45 44.5125 43.6267 45.0017 45 45ZM45 75C38.2917 69.2917 33.2817 63.99 29.97 59.095C26.6583 54.2 25.0017 49.6683 25 45.5C25 39.25 27.0108 34.2708 31.0325 30.5625C35.0542 26.8542 39.71 25 45 25C50.2917 25 54.9483 26.8542 58.97 30.5625C62.9917 34.2708 65.0017 39.25 65 45.5C65 45.875 64.9892 46.2608 64.9675 46.6575C64.9458 47.0542 64.8942 47.46 64.8125 47.875H59.75C59.8333 47.4583 59.8958 47.0517 59.9375 46.655C59.9792 46.2583 60 45.8733 60 45.5C60 40.9583 58.5517 37.2392 55.655 34.3425C52.7583 31.4458 49.2067 29.9983 45 30C40.7917 30 37.2392 31.4483 34.3425 34.345C31.4458 37.2417 29.9983 40.96 30 45.5C30 48.4583 31.2292 51.8442 33.6875 55.6575C36.1458 59.4708 39.9167 63.71 45 68.375C45.9583 67.5417 46.8442 66.7083 47.6575 65.875C48.4708 65.0417 49.2517 64.2292 50 63.4375L50.5625 64L51.7825 65.22C52.2192 65.6567 52.615 66.0625 52.97 66.4375L53.5 67C52.2917 68.2917 50.9792 69.6042 49.5625 70.9375C48.1458 72.2708 46.625 73.625 45 75Z" fill="#13B68F"/>
</svg>
