<svg width="100" height="100" viewBox="0 0 100 100" fill="none" xmlns="http://www.w3.org/2000/svg">
<rect width="100" height="100" rx="18" fill="#FFEFC5"/>
<g clip-path="url(#clip0_1180_1268)">
<path d="M73.3333 45H71.6666V35C71.6666 34.5579 71.4911 34.134 71.1785 33.8214C70.8659 33.5089 70.442 33.3333 70 33.3333H30C29.6053 33.3397 29.2212 33.2059 28.916 32.9556C28.6108 32.7054 28.4043 32.3549 28.3333 31.9666V31.3666C28.4043 30.9784 28.6108 30.6279 28.916 30.3776C29.2212 30.1274 29.6053 29.9935 30 30H69.3C69.742 30 70.1659 29.8244 70.4785 29.5118C70.7911 29.1992 70.9667 28.7753 70.9667 28.3333C70.9667 27.8913 70.7911 27.4673 70.4785 27.1548C70.1659 26.8422 69.742 26.6666 69.3 26.6666H30C28.6739 26.6666 27.4021 27.1934 26.4645 28.1311C25.5268 29.0688 25 30.3405 25 31.6666C24.9883 31.8665 24.9883 32.0668 25 32.2666V66.55C25.0065 67.4473 25.1898 68.3346 25.5392 69.1612C25.8887 69.9877 26.3975 70.7374 27.0367 71.3673C27.6759 71.9972 28.4329 72.495 29.2645 72.8323C30.0961 73.1697 30.9859 73.3399 31.8833 73.3333H70C70.442 73.3333 70.8659 73.1577 71.1785 72.8451C71.4911 72.5326 71.6666 72.1087 71.6666 71.6666V61.6666H73.3333C73.7753 61.6666 74.1993 61.491 74.5118 61.1785C74.8244 60.8659 75 60.442 75 60V46.6666C75 46.2246 74.8244 45.8007 74.5118 45.4881C74.1993 45.1756 73.7753 45 73.3333 45ZM68.3333 70H31.8833C30.9563 70.0089 30.0633 69.6515 29.3985 69.0054C28.7337 68.3593 28.3508 67.4768 28.3333 66.55V36.4666C28.8743 36.6234 29.4373 36.691 30 36.6666H68.3333V45H56.6667C54.4565 45 52.3369 45.8779 50.7741 47.4407C49.2113 49.0035 48.3333 51.1232 48.3333 53.3333C48.3333 55.5434 49.2113 57.663 50.7741 59.2258C52.3369 60.7887 54.4565 61.6666 56.6667 61.6666H68.3333V70ZM71.6666 58.3333H56.6667C55.3406 58.3333 54.0688 57.8065 53.1311 56.8688C52.1934 55.9311 51.6667 54.6594 51.6667 53.3333C51.6667 52.0072 52.1934 50.7354 53.1311 49.7978C54.0688 48.8601 55.3406 48.3333 56.6667 48.3333H71.6666V58.3333Z" fill="#FFB801"/>
<path d="M58.3501 55.8334C59.7308 55.8334 60.8501 54.7141 60.8501 53.3334C60.8501 51.9527 59.7308 50.8334 58.3501 50.8334C56.9694 50.8334 55.8501 51.9527 55.8501 53.3334C55.8501 54.7141 56.9694 55.8334 58.3501 55.8334Z" fill="#FFB801"/>
</g>
<defs>
<clipPath id="clip0_1180_1268">
<rect width="60" height="60" fill="white" transform="translate(20 20)"/>
</clipPath>
</defs>
</svg>
