<svg width="101" height="13" viewBox="0 0 101 13" fill="none" xmlns="http://www.w3.org/2000/svg">
<path d="M3.90254 11.6553L4.7191 8.12524L1.98047 5.75092L5.59848 5.43686L7.00548 2.10779L8.41249 5.43686L12.0305 5.75092L9.29186 8.12524L10.1084 11.6553L7.00548 9.7835L3.90254 11.6553Z" fill="#2C71F0"/>
<path d="M25.8283 11.6553L26.6449 8.12524L23.9062 5.75092L27.5243 5.43686L28.9313 2.10779L30.3383 5.43686L33.9563 5.75092L31.2176 8.12524L32.0342 11.6553L28.9313 9.7835L25.8283 11.6553Z" fill="#2C71F0"/>
<path d="M47.758 11.6553L48.5746 8.12524L45.8359 5.75092L49.4539 5.43686L50.861 2.10779L52.268 5.43686L55.886 5.75092L53.1473 8.12524L53.9639 11.6553L50.861 9.7835L47.758 11.6553Z" fill="#2C71F0"/>
<path d="M69.6838 11.6553L70.5004 8.12524L67.7617 5.75092L71.3797 5.43686L72.7867 2.10779L74.1937 5.43686L77.8117 5.75092L75.0731 8.12524L75.8897 11.6553L72.7867 9.7835L69.6838 11.6553Z" fill="black"/>
<path d="M91.6135 11.6553L92.43 8.12524L89.6914 5.75092L93.3094 5.43686L94.7164 2.10779L96.1234 5.43686L99.7414 5.75092L97.0028 8.12524L97.8194 11.6553L94.7164 9.7835L91.6135 11.6553Z" fill="black"/>
</svg>
