<svg width="46" height="43" viewBox="0 0 46 43" fill="none" xmlns="http://www.w3.org/2000/svg">
<rect width="46" height="43" rx="8" fill="#DEEFFF"/>
<path d="M20 21.25H21.5C21.7074 21.25 21.875 21.0824 21.875 20.875V19.75C21.875 19.5426 21.7074 19.375 21.5 19.375H20.75V20.125H21.125V20.5H20.375V19H21.875V18.25H20C19.7926 18.25 19.625 18.4176 19.625 18.625V20.875C19.625 21.0824 19.7926 21.25 20 21.25ZM24.875 21.25H25.25C26.0773 21.25 26.75 20.5773 26.75 19.75C26.75 18.9227 26.0773 18.25 25.25 18.25H24.875C24.6676 18.25 24.5 18.4176 24.5 18.625V20.875C24.5 21.0824 24.6676 21.25 24.875 21.25ZM25.25 19C25.6636 19 26 19.3364 26 19.75C26 20.1636 25.6636 20.5 25.25 20.5V19ZM23 20.5C23.6203 20.5 24.125 19.9952 24.125 19.375C24.125 18.7548 23.6203 18.25 23 18.25H22.625C22.4176 18.25 22.25 18.4176 22.25 18.625V21.25H23V20.5ZM23 19C23.207 19 23.375 19.168 23.375 19.375C23.375 19.582 23.207 19.75 23 19.75V19ZM17 21.25H17.75V20.5H18.125C18.332 20.5 18.5 20.668 18.5 20.875V21.25H19.25V20.875C19.25 20.5859 19.1371 20.3245 18.9575 20.125C19.1375 19.9255 19.25 19.6641 19.25 19.375C19.25 18.7548 18.7452 18.25 18.125 18.25H17.375C17.1676 18.25 17 18.4176 17 18.625V21.25ZM17.75 19H18.125C18.332 19 18.5 19.168 18.5 19.375C18.5 19.582 18.332 19.75 18.125 19.75H17.75V19Z" fill="#2C71F0"/>
<path d="M32 27.0947L31.9996 11.8746C31.9996 11.0478 31.3269 10.375 30.5 10.375H16.25C15.4227 10.375 14.75 11.0477 14.75 11.875C13.9227 11.875 13.25 12.5477 13.25 13.375V32.125C13.25 32.9522 13.9227 33.625 14.75 33.625H29C29.8272 33.625 30.5 32.9522 30.5 32.125C31.3272 32.125 32 31.4522 32 30.625V30.1919C32.4534 29.8315 32.75 29.2821 32.75 28.6593C32.75 28.1343 32.5456 27.6404 32.1744 27.2691L32 27.0947ZM16.25 11.125H30.5C30.9136 11.125 31.2496 11.461 31.2496 11.8746L31.25 26.3447L30.5 25.5947V15.625C30.5 15.5252 30.4606 15.43 30.3901 15.3599L27.0151 11.9849C26.945 11.9144 26.8497 11.875 26.75 11.875H15.5C15.5 11.4614 15.8364 11.125 16.25 11.125ZM27.125 13.1552L29.2197 15.25H27.875C27.4614 15.25 27.125 14.9136 27.125 14.5V13.1552ZM29 32.875H14.75C14.3364 32.875 14 32.5386 14 32.125V13.375C14 12.9614 14.3364 12.625 14.75 12.625H26.375V14.5C26.375 15.3273 27.0477 16 27.875 16H29.75V24.8447L28.1401 23.2349C27.9935 23.0883 27.7565 23.0883 27.6099 23.2349L27.5 23.3447L26.891 22.7358C27.6515 22.6634 28.25 22.0289 28.25 21.25V18.25C28.25 17.4227 27.5773 16.75 26.75 16.75H26.6304C25.6036 15.1266 23.8029 14.125 21.875 14.125C19.9471 14.125 18.1464 15.1266 17.1196 16.75H17C16.1727 16.75 15.5 17.4227 15.5 18.25V21.25C15.5 22.0773 16.1727 22.75 17 22.75H17.1196C18.1464 24.3734 19.9471 25.375 21.875 25.375C22.883 25.375 23.8565 25.1013 24.7032 24.6085L25.4697 25.375L25.3599 25.4849C25.2133 25.6315 25.2133 25.8685 25.3599 26.0151L29.3941 30.0494C29.5025 30.1577 29.6232 30.247 29.75 30.3258V32.125C29.75 32.5386 29.4136 32.875 29 32.875ZM26 24.8447L25.3351 24.1799C25.6948 23.8997 26.0218 23.5754 26.3068 23.212L26.9697 23.875L26 24.8447ZM24.6987 16.75C23.9311 16.0259 22.9366 15.625 21.875 15.625C20.8145 15.625 19.8177 16.0259 19.0497 16.75H18.0339C18.9507 15.58 20.3686 14.875 21.875 14.875C23.3814 14.875 24.7992 15.58 25.7161 16.75H24.6987ZM23.4193 16.75H20.3296C20.8017 16.5062 21.3282 16.375 21.875 16.375C22.4221 16.375 22.9475 16.5062 23.4193 16.75ZM26.75 17.5C27.1636 17.5 27.5 17.8364 27.5 18.25V21.25C27.5 21.6636 27.1636 22 26.75 22H17C16.5864 22 16.25 21.6636 16.25 21.25V18.25C16.25 17.8364 16.5864 17.5 17 17.5H26.75ZM23.4196 22.75C22.9479 22.9937 22.4225 23.125 21.875 23.125C21.3275 23.125 20.8025 22.9937 20.3304 22.75H23.4196ZM19.0509 22.75C19.8185 23.4741 20.8134 23.875 21.875 23.875C22.9366 23.875 23.9315 23.4741 24.6991 22.75H25.7161C24.7992 23.92 23.3814 24.625 21.875 24.625C20.3686 24.625 18.9507 23.92 18.0339 22.75H19.0509ZM31.25 30.625C31.25 31.0386 30.9136 31.375 30.5 31.375V30.5972C30.5938 30.6108 30.6875 30.625 30.7843 30.625C30.9455 30.625 31.1 30.5999 31.25 30.5631V30.625ZM30.7843 29.875C30.4595 29.875 30.1539 29.7486 29.9244 29.5191L26.1553 25.75L27.875 24.0303L31.6441 27.7994C31.8736 28.0289 32 28.3345 32 28.6593C32 29.3298 31.4548 29.875 30.7843 29.875Z" fill="#2C71F0"/>
<path d="M20.375 26.125H14.75V26.875H20.375V26.125Z" fill="#2C71F0"/>
<path d="M24.875 27.625H14.75V28.375H24.875V27.625Z" fill="#2C71F0"/>
<path d="M22.25 29.125H14.75V29.875H22.25V29.125Z" fill="#2C71F0"/>
<path d="M26.75 30.625H14.75V31.375H26.75V30.625Z" fill="#2C71F0"/>
</svg>
