<svg width="75" height="75" viewBox="0 0 75 75" fill="none" xmlns="http://www.w3.org/2000/svg">
<g filter="url(#filter0_b_1332_1534)">
<rect width="75" height="75" rx="19.1774" fill="white" fill-opacity="0.24"/>
<rect x="0.353774" y="0.353774" width="74.2924" height="74.2924" rx="18.8237" stroke="#C4C4C4" stroke-opacity="0.24" stroke-width="0.707547"/>
</g>
<g filter="url(#filter1_b_1332_1534)">
<rect x="15.5664" y="15.5659" width="44.3478" height="44.3478" rx="10.7873" fill="#B9FBEB" fill-opacity="0.8"/>
</g>
<path d="M48.0871 35.5225H47.348V31.0877C47.348 30.8917 47.2701 30.7037 47.1315 30.5651C46.9929 30.4265 46.8049 30.3486 46.6088 30.3486H28.8697C28.6947 30.3515 28.5244 30.2921 28.389 30.1811C28.2536 30.0701 28.1621 29.9147 28.1306 29.7425V29.4764C28.1621 29.3043 28.2536 29.1488 28.389 29.0378C28.5244 28.9268 28.6947 28.8675 28.8697 28.8704H46.2984C46.4944 28.8704 46.6824 28.7925 46.8211 28.6539C46.9597 28.5153 47.0375 28.3272 47.0375 28.1312C47.0375 27.9352 46.9597 27.7472 46.8211 27.6086C46.6824 27.47 46.4944 27.3921 46.2984 27.3921H28.8697C28.2816 27.3921 27.7176 27.6257 27.3018 28.0415C26.8859 28.4574 26.6523 29.0214 26.6523 29.6095C26.6471 29.6981 26.6471 29.7869 26.6523 29.8756V45.0795C26.6552 45.4774 26.7365 45.8709 26.8915 46.2375C27.0465 46.6041 27.2721 46.9365 27.5556 47.2158C27.839 47.4952 28.1748 47.716 28.5435 47.8656C28.9123 48.0152 29.307 48.0907 29.7049 48.0877H46.6088C46.8049 48.0877 46.9929 48.0099 47.1315 47.8713C47.2701 47.7326 47.348 47.5446 47.348 47.3486V42.9138H48.0871C48.2831 42.9138 48.4711 42.836 48.6097 42.6973C48.7484 42.5587 48.8262 42.3707 48.8262 42.1747V36.2617C48.8262 36.0656 48.7484 35.8776 48.6097 35.739C48.4711 35.6004 48.2831 35.5225 48.0871 35.5225ZM45.8697 46.6095H29.7049C29.2938 46.6134 28.8978 46.4549 28.603 46.1684C28.3081 45.8819 28.1384 45.4905 28.1306 45.0795V31.7382C28.3705 31.8077 28.6202 31.8377 28.8697 31.8269H45.8697V35.5225H40.6958C39.7157 35.5225 38.7756 35.9119 38.0826 36.605C37.3895 37.298 37.0001 38.238 37.0001 39.2182C37.0001 40.1983 37.3895 41.1383 38.0826 41.8314C38.7756 42.5245 39.7157 42.9138 40.6958 42.9138H45.8697V46.6095ZM47.348 41.4356H40.6958C40.1077 41.4356 39.5437 41.2019 39.1279 40.7861C38.712 40.3703 38.4784 39.8063 38.4784 39.2182C38.4784 38.6301 38.712 38.0661 39.1279 37.6502C39.5437 37.2344 40.1077 37.0008 40.6958 37.0008H47.348V41.4356Z" fill="#0EE4B1"/>
<path d="M41.4446 40.3268C42.0569 40.3268 42.5533 39.8304 42.5533 39.2181C42.5533 38.6058 42.0569 38.1094 41.4446 38.1094C40.8323 38.1094 40.3359 38.6058 40.3359 39.2181C40.3359 39.8304 40.8323 40.3268 41.4446 40.3268Z" fill="#0EE4B1"/>
<defs>
<filter id="filter0_b_1332_1534" x="-8.49057" y="-8.49057" width="91.9811" height="91.9811" filterUnits="userSpaceOnUse" color-interpolation-filters="sRGB">
<feFlood flood-opacity="0" result="BackgroundImageFix"/>
<feGaussianBlur in="BackgroundImageFix" stdDeviation="4.24528"/>
<feComposite in2="SourceAlpha" operator="in" result="effect1_backgroundBlur_1332_1534"/>
<feBlend mode="normal" in="SourceGraphic" in2="effect1_backgroundBlur_1332_1534" result="shape"/>
</filter>
<filter id="filter1_b_1332_1534" x="7.07584" y="7.07535" width="61.3288" height="61.3288" filterUnits="userSpaceOnUse" color-interpolation-filters="sRGB">
<feFlood flood-opacity="0" result="BackgroundImageFix"/>
<feGaussianBlur in="BackgroundImageFix" stdDeviation="4.24528"/>
<feComposite in2="SourceAlpha" operator="in" result="effect1_backgroundBlur_1332_1534"/>
<feBlend mode="normal" in="SourceGraphic" in2="effect1_backgroundBlur_1332_1534" result="shape"/>
</filter>
</defs>
</svg>
