<svg width="46" height="43" viewBox="0 0 46 43" fill="none" xmlns="http://www.w3.org/2000/svg">
<rect width="46" height="43" rx="8" fill="#FEFAD9"/>
<path d="M29 26.625H26C25.7016 26.625 25.4155 26.5065 25.2045 26.2955C24.9935 26.0845 24.875 25.7984 24.875 25.5V23.625C24.875 23.3266 24.9935 23.0405 25.2045 22.8295C25.4155 22.6185 25.7016 22.5 26 22.5H29C29.2984 22.5 29.5845 22.6185 29.7955 22.8295C30.0065 23.0405 30.125 23.3266 30.125 23.625V25.5C30.125 25.7984 30.0065 26.0845 29.7955 26.2955C29.5845 26.5065 29.2984 26.625 29 26.625ZM26 23.25C25.9005 23.25 25.8052 23.2895 25.7348 23.3598C25.6645 23.4302 25.625 23.5255 25.625 23.625V25.5C25.625 25.5995 25.6645 25.6948 25.7348 25.7652C25.8052 25.8355 25.9005 25.875 26 25.875H29C29.0995 25.875 29.1948 25.8355 29.2652 25.7652C29.3355 25.6948 29.375 25.5995 29.375 25.5V23.625C29.375 23.5255 29.3355 23.4302 29.2652 23.3598C29.1948 23.2895 29.0995 23.25 29 23.25H26Z" fill="#EDD500"/>
<path d="M29 23.25H26C25.9005 23.25 25.8052 23.2105 25.7348 23.1402C25.6645 23.0698 25.625 22.9745 25.625 22.875V22.5C25.625 22.0027 25.8225 21.5258 26.1742 21.1742C26.5258 20.8225 27.0027 20.625 27.5 20.625C27.9973 20.625 28.4742 20.8225 28.8258 21.1742C29.1775 21.5258 29.375 22.0027 29.375 22.5V22.875C29.375 22.9745 29.3355 23.0698 29.2652 23.1402C29.1948 23.2105 29.0995 23.25 29 23.25ZM26.375 22.5H28.625C28.625 22.2016 28.5065 21.9155 28.2955 21.7045C28.0845 21.4935 27.7984 21.375 27.5 21.375C27.2016 21.375 26.9155 21.4935 26.7045 21.7045C26.4935 21.9155 26.375 22.2016 26.375 22.5ZM27.5 25.125C27.4005 25.125 27.3052 25.0855 27.2348 25.0152C27.1645 24.9448 27.125 24.8495 27.125 24.75V24.375C27.125 24.2755 27.1645 24.1802 27.2348 24.1098C27.3052 24.0395 27.4005 24 27.5 24C27.5995 24 27.6948 24.0395 27.7652 24.1098C27.8355 24.1802 27.875 24.2755 27.875 24.375V24.75C27.875 24.8495 27.8355 24.9448 27.7652 25.0152C27.6948 25.0855 27.5995 25.125 27.5 25.125ZM21.3125 16.5C17.3075 16.5 13.25 15.6 13.25 13.875C13.25 12.15 17.3075 11.25 21.3125 11.25C25.3175 11.25 29.375 12.15 29.375 13.875C29.375 15.6 25.3175 16.5 21.3125 16.5ZM21.3125 12C16.85 12 14 13.125 14 13.875C14 14.625 16.85 15.75 21.3125 15.75C25.775 15.75 28.625 14.625 28.625 13.875C28.625 13.125 25.775 12 21.3125 12Z" fill="#EDD500"/>
<path d="M27.5002 30.75C27.4514 30.7506 27.403 30.7417 27.3577 30.7237C26.1731 30.2387 25.1177 29.4848 24.2749 28.5215C23.432 27.5583 22.8249 26.4121 22.5014 25.1737C22.363 24.6449 22.2788 24.1034 22.2502 23.5575C22.2502 23.4225 22.2502 23.2987 22.2502 23.1825V19.575C22.2477 19.4893 22.2746 19.4054 22.3264 19.3371C22.3783 19.2689 22.452 19.2205 22.5352 19.2L27.4102 18C27.4693 17.9854 27.531 17.9854 27.5902 18L32.4652 19.2C32.5484 19.2205 32.622 19.2689 32.6739 19.3371C32.7257 19.4054 32.7527 19.4893 32.7502 19.575V23.175C32.7467 24.7982 32.2587 26.3834 31.3488 27.7276C30.4389 29.0717 29.1484 30.1137 27.6427 30.72C27.5976 30.7392 27.5492 30.7494 27.5002 30.75ZM23.0002 19.875V23.175C23.0002 23.2912 23.0002 23.4075 23.0002 23.5237C23.0231 24.0176 23.0973 24.5077 23.2214 24.9862C23.3379 25.4403 23.4974 25.8823 23.6977 26.3062C24.1882 27.3364 24.9062 28.2416 25.7977 28.9537C26.3186 29.365 26.8909 29.7066 27.5002 29.97C28.8326 29.4015 29.969 28.4549 30.7689 27.2471C31.5687 26.0394 31.9968 24.6236 32.0002 23.175V19.875L27.5002 18.75L23.0002 19.875Z" fill="#EDD500"/>
<path d="M21.3125 25.5C17.3075 25.5 13.25 24.6 13.25 22.875V18.375C13.25 18.2755 13.2895 18.1802 13.3598 18.1098C13.4302 18.0395 13.5255 18 13.625 18C13.7245 18 13.8198 18.0395 13.8902 18.1098C13.9605 18.1802 14 18.2755 14 18.375C14 19.125 16.85 20.25 21.3125 20.25C21.7525 20.25 22.1837 20.2387 22.6062 20.2162C22.6572 20.214 22.7081 20.2221 22.7558 20.2401C22.8035 20.2582 22.8471 20.2858 22.8837 20.3213C22.9203 20.3561 22.9495 20.398 22.9694 20.4444C22.9894 20.4908 22.9998 20.5407 23 20.5912V23.175C23 23.2912 23 23.4075 23 23.5237C23.0229 24.0176 23.0971 24.5077 23.2212 24.9863C23.2352 25.0399 23.237 25.096 23.2266 25.1505C23.2162 25.205 23.1939 25.2564 23.1612 25.3013C23.1286 25.3461 23.0865 25.3831 23.0379 25.4097C22.9892 25.4363 22.9353 25.4517 22.88 25.455C22.3812 25.5 21.8487 25.5 21.3125 25.5ZM14 19.5525V22.875C14 23.625 16.85 24.75 21.3125 24.75C21.6875 24.75 22.0625 24.75 22.4 24.7275C22.3219 24.3416 22.2717 23.9506 22.25 23.5575C22.25 23.4225 22.25 23.2987 22.25 23.1825V21C21.9425 21 21.6275 21 21.3125 21C18.3462 21 15.3537 20.505 14 19.5525Z" fill="#EDD500"/>
<path d="M21.3125 21C17.3075 21 13.25 20.1 13.25 18.375V13.875C13.25 13.7755 13.2895 13.6802 13.3598 13.6098C13.4302 13.5395 13.5255 13.5 13.625 13.5C13.7245 13.5 13.8198 13.5395 13.8902 13.6098C13.9605 13.6802 14 13.7755 14 13.875C14 14.625 16.85 15.75 21.3125 15.75C25.775 15.75 28.625 14.625 28.625 13.875C28.625 13.7755 28.6645 13.6802 28.7348 13.6098C28.8052 13.5395 28.9005 13.5 29 13.5C29.0995 13.5 29.1948 13.5395 29.2652 13.6098C29.3355 13.6802 29.375 13.7755 29.375 13.875V18.375C29.3747 18.5574 29.3283 18.7367 29.24 18.8962C29.2008 18.9697 29.1382 19.028 29.0621 19.062C28.9861 19.0959 28.9009 19.1036 28.82 19.0837L27.5 18.75L23 19.875V20.5988C23.0001 20.695 22.9632 20.7877 22.8969 20.8575C22.8306 20.9273 22.7399 20.9689 22.6437 20.9738C22.2087 21 21.7625 21 21.3125 21ZM14 15.0525V18.375C14 19.125 16.85 20.25 21.3125 20.25C21.6275 20.25 21.9425 20.25 22.25 20.2313V19.575C22.2475 19.4893 22.2744 19.4054 22.3263 19.3372C22.3781 19.2689 22.4518 19.2205 22.535 19.2L27.41 18C27.4691 17.9854 27.5309 17.9854 27.59 18L28.625 18.2625V15.0525C27.2712 16.005 24.2787 16.5 21.3125 16.5C18.3463 16.5 15.3537 16.005 14 15.0525Z" fill="#EDD500"/>
<path d="M29 19.125C28.9701 19.1286 28.9399 19.1286 28.91 19.125L28.82 19.1025C28.7647 19.0887 28.7134 19.0624 28.6698 19.0258C28.6262 18.9892 28.5915 18.9431 28.5683 18.891C28.5452 18.839 28.5342 18.7823 28.5363 18.7254C28.5383 18.6685 28.5532 18.6128 28.58 18.5625C28.6111 18.505 28.6266 18.4404 28.625 18.375C28.625 18.2755 28.6645 18.1802 28.7348 18.1098C28.8052 18.0395 28.9005 18 29 18C29.0995 18 29.1948 18.0395 29.2652 18.1098C29.3355 18.1802 29.375 18.2755 29.375 18.375V18.75C29.375 18.8495 29.3355 18.9448 29.2652 19.0152C29.1948 19.0855 29.0995 19.125 29 19.125ZM21.3125 30C17.3075 30 13.25 29.1 13.25 27.375V22.875C13.25 22.7755 13.2895 22.6802 13.3598 22.6098C13.4302 22.5395 13.5255 22.5 13.625 22.5C13.7245 22.5 13.8198 22.5395 13.8902 22.6098C13.9605 22.6802 14 22.7755 14 22.875C14 23.625 16.85 24.75 21.3125 24.75C21.8337 24.75 22.3512 24.75 22.8425 24.705C22.9277 24.7023 23.0112 24.7287 23.0794 24.7798C23.1475 24.8309 23.1962 24.9037 23.2175 24.9863C23.334 25.4404 23.4935 25.8824 23.6937 26.3063C24.1842 27.3364 24.9023 28.2417 25.7938 28.9538C25.8486 28.9977 25.8899 29.0561 25.9131 29.1224C25.9363 29.1887 25.9404 29.2602 25.925 29.3288C25.9077 29.3981 25.871 29.461 25.8192 29.5102C25.7674 29.5593 25.7026 29.5927 25.6325 29.6063C24.2081 29.8733 22.7617 30.0052 21.3125 30ZM14 24.0525V27.375C14 28.125 16.85 29.25 21.3125 29.25C22.4581 29.2539 23.6024 29.1737 24.7362 29.01C24.0288 28.324 23.4508 27.5161 23.03 26.625C22.8526 26.2504 22.7034 25.8631 22.5837 25.4663C22.1712 25.4663 21.7437 25.4963 21.3125 25.4963C18.3463 25.5 15.3537 25.005 14 24.0525ZM23.375 14.25H19.25C19.1505 14.25 19.0552 14.2105 18.9848 14.1402C18.9145 14.0698 18.875 13.9745 18.875 13.875C18.875 13.7755 18.9145 13.6802 18.9848 13.6098C19.0552 13.5395 19.1505 13.5 19.25 13.5H23.375C23.4745 13.5 23.5698 13.5395 23.6402 13.6098C23.7105 13.6802 23.75 13.7755 23.75 13.875C23.75 13.9745 23.7105 14.0698 23.6402 14.1402C23.5698 14.2105 23.4745 14.25 23.375 14.25Z" fill="#EDD500"/>
</svg>
