<svg width="100" height="100" viewBox="0 0 100 100" fill="none" xmlns="http://www.w3.org/2000/svg">
<rect width="100" height="100" rx="18" fill="#B5CDFA"/>
<path d="M68.1875 37.4375L55.0625 24.3125C54.6875 23.9375 54.3125 23.75 53.75 23.75H35C32.9375 23.75 31.25 25.4375 31.25 27.5V72.5C31.25 74.5625 32.9375 76.25 35 76.25H65C67.0625 76.25 68.75 74.5625 68.75 72.5V38.75C68.75 38.1875 68.5625 37.8125 68.1875 37.4375ZM53.75 28.25L64.25 38.75H53.75V28.25ZM65 72.5H35V27.5H50V38.75C50 40.8125 51.6875 42.5 53.75 42.5H65V72.5Z" fill="#2C71F0"/>
<path d="M38.75 61.25H61.25V65H38.75V61.25ZM38.75 50H61.25V53.75H38.75V50Z" fill="#2C71F0"/>
</svg>
