<svg width="100" height="100" viewBox="0 0 100 100" fill="none" xmlns="http://www.w3.org/2000/svg">
<rect width="100" height="100" rx="18" fill="#FFFDEB"/>
<g clip-path="url(#clip0_1180_1307)">
<path d="M56.4288 22.1428H26.4288C25.2921 22.1428 24.2021 22.5944 23.3983 23.3981C22.5946 24.2018 22.1431 25.2919 22.1431 26.4285V73.5714C22.1431 74.708 22.5946 75.7981 23.3983 76.6018C24.2021 77.4056 25.2921 77.8571 26.4288 77.8571H73.5716C74.7083 77.8571 75.7984 77.4056 76.6021 76.6018C77.4058 75.7981 77.8574 74.708 77.8574 73.5714V43.5714L56.4288 22.1428Z" stroke="#FFE500" stroke-width="3" stroke-linecap="round" stroke-linejoin="round"/>
<path d="M39.286 39.2857V32.8571M39.286 39.2857C35.7289 39.2857 32.8574 39.2857 32.8574 43.5714C32.8574 50 45.7146 50 45.7146 56.4285C45.7146 60.7142 42.8431 60.7142 39.286 60.7142M39.286 39.2857C42.8431 39.2857 45.7146 40.9143 45.7146 43.5714M32.8574 56.4285C32.8574 59.6428 35.7289 60.7142 39.286 60.7142M39.286 60.7142V67.1428M56.4288 60.7142H69.286M56.4288 41.4285V22.1428L77.8574 43.5714H58.5717C58.0034 43.5714 57.4583 43.3456 57.0565 42.9438C56.6546 42.5419 56.4288 41.9969 56.4288 41.4285Z" stroke="#FFE500" stroke-width="3" stroke-linecap="round" stroke-linejoin="round"/>
</g>
<defs>
<clipPath id="clip0_1180_1307">
<rect width="60" height="60" fill="white" transform="translate(20 20)"/>
</clipPath>
</defs>
</svg>
