<svg width="100" height="100" viewBox="0 0 100 100" fill="none" xmlns="http://www.w3.org/2000/svg">
<rect width="100" height="100" rx="18" fill="#FFCFC5"/>
<path d="M66.875 80C70.356 80 73.6944 78.6172 76.1558 76.1558C78.6172 73.6944 80 70.356 80 66.875C80 63.394 78.6172 60.0556 76.1558 57.5942C73.6944 55.1328 70.356 53.75 66.875 53.75C63.394 53.75 60.0556 55.1328 57.5942 57.5942C55.1328 60.0556 53.75 63.394 53.75 66.875C53.75 70.356 55.1328 73.6944 57.5942 76.1558C60.0556 78.6172 63.394 80 66.875 80ZM68.75 61.25V65H72.5C72.9973 65 73.4742 65.1975 73.8258 65.5492C74.1775 65.9008 74.375 66.3777 74.375 66.875C74.375 67.3723 74.1775 67.8492 73.8258 68.2008C73.4742 68.5525 72.9973 68.75 72.5 68.75H68.75V72.5C68.75 72.9973 68.5525 73.4742 68.2008 73.8258C67.8492 74.1775 67.3723 74.375 66.875 74.375C66.3777 74.375 65.9008 74.1775 65.5492 73.8258C65.1975 73.4742 65 72.9973 65 72.5V68.75H61.25C60.7527 68.75 60.2758 68.5525 59.9242 68.2008C59.5725 67.8492 59.375 67.3723 59.375 66.875C59.375 66.3777 59.5725 65.9008 59.9242 65.5492C60.2758 65.1975 60.7527 65 61.25 65H65V61.25C65 60.7527 65.1975 60.2758 65.5492 59.9242C65.9008 59.5725 66.3777 59.375 66.875 59.375C67.3723 59.375 67.8492 59.5725 68.2008 59.9242C68.5525 60.2758 68.75 60.7527 68.75 61.25ZM61.25 38.75C61.25 41.7337 60.0647 44.5952 57.955 46.705C55.8452 48.8147 52.9837 50 50 50C47.0163 50 44.1548 48.8147 42.045 46.705C39.9353 44.5952 38.75 41.7337 38.75 38.75C38.75 35.7663 39.9353 32.9048 42.045 30.795C44.1548 28.6853 47.0163 27.5 50 27.5C52.9837 27.5 55.8452 28.6853 57.955 30.795C60.0647 32.9048 61.25 35.7663 61.25 38.75ZM50 46.25C51.9891 46.25 53.8968 45.4598 55.3033 44.0533C56.7098 42.6468 57.5 40.7391 57.5 38.75C57.5 36.7609 56.7098 34.8532 55.3033 33.4467C53.8968 32.0402 51.9891 31.25 50 31.25C48.0109 31.25 46.1032 32.0402 44.6967 33.4467C43.2902 34.8532 42.5 36.7609 42.5 38.75C42.5 40.7391 43.2902 42.6468 44.6967 44.0533C46.1032 45.4598 48.0109 46.25 50 46.25Z" fill="#FF512D"/>
<path d="M50.96 72.5C50.5298 71.2822 50.2416 70.0189 50.1012 68.735H31.25C31.2537 67.8125 31.8275 65.0375 34.37 62.495C36.815 60.05 41.4162 57.5 50 57.5C50.975 57.5 51.9012 57.5337 52.775 57.5937C53.6225 56.315 54.635 55.1563 55.79 54.1513C54.0387 53.8925 52.115 53.75 50 53.75C31.25 53.75 27.5 65 27.5 68.75C27.5 72.5 31.25 72.5 31.25 72.5H50.96Z" fill="#FF512D"/>
</svg>
