<svg width="485" height="226" viewBox="0 0 485 226" fill="none" xmlns="http://www.w3.org/2000/svg">
<path d="M6.25785 70.4439C9.68754 70.4439 12.4679 67.6636 12.4679 64.2339C12.4679 60.8042 9.68754 58.0239 6.25785 58.0239C2.82816 58.0239 0.0478516 60.8042 0.0478516 64.2339C0.0478516 67.6636 2.82816 70.4439 6.25785 70.4439Z" fill="#FFBE55"/>
<path d="M103.963 185.536C107.393 185.536 110.173 182.756 110.173 179.326C110.173 175.896 107.393 173.116 103.963 173.116C100.533 173.116 97.7529 175.896 97.7529 179.326C97.7529 182.756 100.533 185.536 103.963 185.536Z" fill="#FFBE55"/>
<path d="M396.246 92.3861C399.676 92.3861 402.456 89.6058 402.456 86.1761C402.456 82.7464 399.676 79.9661 396.246 79.9661C392.816 79.9661 390.036 82.7464 390.036 86.1761C390.036 89.6058 392.816 92.3861 396.246 92.3861Z" fill="#FFBE55"/>
<path d="M354.018 27.3883C357.448 27.3883 360.228 24.608 360.228 21.1783C360.228 17.7486 357.448 14.9683 354.018 14.9683C350.588 14.9683 347.808 17.7486 347.808 21.1783C347.808 24.608 350.588 27.3883 354.018 27.3883Z" fill="#FFBE55"/>
<path d="M477.805 225.694C481.234 225.694 484.015 222.914 484.015 219.484C484.015 216.054 481.234 213.274 477.805 213.274C474.375 213.274 471.595 216.054 471.595 219.484C471.595 222.914 474.375 225.694 477.805 225.694Z" fill="#FFBE55"/>
<path d="M261.696 205.408C265.126 205.408 267.906 202.628 267.906 199.198C267.906 195.768 265.126 192.988 261.696 192.988C258.267 192.988 255.486 195.768 255.486 199.198C255.486 202.628 258.267 205.408 261.696 205.408Z" fill="#FFBE55"/>
<path d="M312.619 83.692C316.049 83.692 318.829 80.9117 318.829 77.482C318.829 74.0523 316.049 71.272 312.619 71.272C309.189 71.272 306.409 74.0523 306.409 77.482C306.409 80.9117 309.189 83.692 312.619 83.692Z" fill="#FFBE55"/>
<path d="M216.156 118.054C219.586 118.054 222.366 115.274 222.366 111.844C222.366 108.414 219.586 105.634 216.156 105.634C212.727 105.634 209.946 108.414 209.946 111.844C209.946 115.274 212.727 118.054 216.156 118.054Z" fill="#FFBE55"/>
<path d="M159.438 12.484C162.868 12.484 165.648 9.70365 165.648 6.27396C165.648 2.84428 162.868 0.0639648 159.438 0.0639648C156.008 0.0639648 153.228 2.84428 153.228 6.27396C153.228 9.70365 156.008 12.484 159.438 12.484Z" fill="#FFBE55"/>
</svg>
