<svg width="101" height="13" viewBox="0 0 101 13" fill="none" xmlns="http://www.w3.org/2000/svg">
<path d="M3.58776 11.5348L4.40668 7.99457L1.66016 5.61341L5.28859 5.29844L6.69965 1.95978L8.11071 5.29844L11.7391 5.61341L8.99262 7.99457L9.81154 11.5348L6.69965 9.6576L3.58776 11.5348Z" fill="#2C71F0"/>
<path d="M25.58 11.5348L26.3989 7.99457L23.6523 5.61341L27.2808 5.29844L28.6918 1.95978L30.1029 5.29844L33.7313 5.61341L30.9848 7.99457L31.8037 11.5348L28.6918 9.6576L25.58 11.5348Z" fill="#2C71F0"/>
<path d="M47.5682 11.5348L48.3871 7.99457L45.6406 5.61341L49.2691 5.29844L50.6801 1.95978L52.0912 5.29844L55.7196 5.61341L52.9731 7.99457L53.792 11.5348L50.6801 9.6576L47.5682 11.5348Z" fill="#2C71F0"/>
<path d="M69.5604 11.5348L70.3793 7.99457L67.6328 5.61341L71.2612 5.29844L72.6723 1.95978L74.0834 5.29844L77.7118 5.61341L74.9653 7.99457L75.7842 11.5348L72.6723 9.6576L69.5604 11.5348Z" fill="#2C71F0"/>
<path d="M91.5448 11.5348L92.3637 7.99457L89.6172 5.61341L93.2456 5.29844L94.6567 1.95978L96.0677 5.29844L99.6962 5.61341L96.9497 7.99457L97.7686 11.5348L94.6567 9.6576L91.5448 11.5348Z" fill="black"/>
</svg>
