<svg width="143" height="138" viewBox="0 0 143 138" fill="none" xmlns="http://www.w3.org/2000/svg">
<path d="M91.4939 4.42343L69.424 16.0547C66.6946 17.4931 63.438 17.5201 60.6852 16.1267L46.7835 9.09152C41.3776 6.35557 34.8253 9.29787 33.2777 15.1555L27.8682 35.6346C26.9024 39.2896 23.8659 42.0273 20.1306 42.611L12.0631 43.8707C4.1198 45.1106 1.1937 55.0286 7.19108 60.3824L43.7812 93.0447C45.8177 94.8628 46.9761 97.4674 46.9623 100.197L46.8213 127.535C46.7811 135.347 55.6464 139.881 61.9563 135.276L74.6889 125.983C79.6275 122.379 86.6357 124.297 89.0501 129.914C92.1472 137.119 102.138 137.7 106.05 130.905L110.839 122.586C112.791 119.196 116.617 117.345 120.485 117.917L123.361 118.342C131.84 119.597 137.529 109.887 132.291 103.103L122.337 90.2133C119.617 86.6904 119.7 81.7535 122.537 78.3241L140.801 56.247C145.754 50.2598 141.837 41.1803 134.083 40.6752L112.029 39.2392C106.466 38.8769 102.402 33.8333 103.233 28.32L105.348 14.2641C106.511 6.54453 98.4007 0.783489 91.4939 4.42343Z" fill="#1EF4A6"/>
<path d="M34.3522 105.854C36.1632 109.384 37.5897 113.109 38.5303 117.016C39.0071 118.996 39.3503 121.151 38.5309 123.017C37.6359 125.054 35.498 126.318 33.3217 126.781C28.0045 127.911 22.4907 124.882 19.1422 120.599C15.7938 116.316 14.1796 110.966 12.6836 105.74C11.5055 101.625 10.3417 97.4477 8.30761 93.6566C7.43542 92.0316 2.48419 85.8326 4.60589 84.0654C7.5038 81.5604 16.3349 83.7241 22.2021 89.5553C27.0358 94.3584 31.2558 99.8189 34.3522 105.854Z" fill="black"/>
<path d="M33.3221 127.252C33.114 127.252 32.9238 127.114 32.8662 126.903C32.8518 126.85 31.3984 121.549 28.0548 114.295C24.9727 107.609 19.6082 97.8458 11.5533 89.3111C11.3739 89.1215 11.3829 88.8222 11.5725 88.6434C11.762 88.4647 12.0613 88.4731 12.2401 88.6626C20.3886 97.2964 25.8089 107.163 28.9216 113.919C32.294 121.24 33.763 126.602 33.7774 126.656C33.8458 126.908 33.697 127.167 33.4451 127.235C33.4043 127.247 33.3629 127.252 33.3221 127.252Z" fill="white"/>
<path d="M29.5124 116.989C29.5052 116.989 29.498 116.989 29.4908 116.988C29.2305 116.977 29.0283 116.756 29.0397 116.495C29.0457 116.362 29.5496 102.994 22.1048 94.3378C21.935 94.1398 21.9572 93.8417 22.1551 93.6713C22.3531 93.5016 22.6512 93.5238 22.821 93.7217C26.8472 98.4036 28.5796 104.358 29.3241 108.53C30.1291 113.038 29.9893 116.397 29.9827 116.538C29.9725 116.791 29.7637 116.989 29.5124 116.989Z" fill="white"/>
<path d="M25.1619 109.467C23.5638 109.467 20.0481 108.698 16.3949 102.853C16.257 102.631 16.3241 102.34 16.5449 102.202C16.7662 102.063 17.0578 102.131 17.1957 102.352C21.6401 109.463 25.7593 108.47 25.8001 108.46C26.0508 108.393 26.31 108.541 26.3784 108.791C26.4467 109.041 26.3022 109.299 26.0526 109.37C26.0047 109.383 25.6861 109.467 25.1619 109.467Z" fill="white"/>
<path d="M32.1618 52.2192C32.1516 48.3309 34.8864 43.601 38.266 41.6509L67.4215 24.8261C69.1227 23.8441 70.6649 23.7529 71.7783 24.4002L74.384 25.9208C74.387 25.9226 74.39 25.9244 74.393 25.9262L74.4098 25.9358V25.9364C75.5082 26.5752 76.1896 27.9315 76.195 29.8631L76.1644 107.321C76.1746 111.204 73.4399 115.939 70.0603 117.89L40.9054 134.715C39.2042 135.696 37.6631 135.786 36.5498 135.138V135.139L33.9176 133.604C32.8187 132.965 32.1372 131.606 32.1318 129.677L32.1618 52.2192Z" fill="black"/>
<path d="M39.4321 134.52L47.1444 130.068L65.1234 119.695L69.8851 116.946C73.2797 114.987 75.3708 111.365 75.3714 107.446L75.3828 29.3085C75.3828 27.1976 73.0985 25.8785 71.2701 26.9331L65.0436 30.5262C64.9794 30.5634 64.9212 30.6108 64.8721 30.666L60.3647 35.748C60.3155 35.8038 60.2573 35.8506 60.1932 35.8877L51.0585 41.1581C50.9253 41.2349 50.77 41.2649 50.6176 41.2439L47.5188 40.809C47.3664 40.7874 47.211 40.818 47.0779 40.8948L41.4224 44.1586C37.981 46.1447 35.8611 49.8158 35.8605 53.7887L35.8491 132.45C35.8473 134.29 37.8383 135.44 39.4321 134.52Z" fill="white"/>
<path d="M59.6576 35.1849L53.5834 38.6911C53.2487 38.8843 52.9775 38.7697 52.9775 38.435C52.9775 38.1003 53.2487 37.6726 53.5834 37.4794L59.6576 33.9732C59.9923 33.7801 60.2634 33.8947 60.2634 34.2294C60.2634 34.5641 59.9923 34.9918 59.6576 35.1849Z" fill="white"/>
<path d="M33.6095 66.3492C33.7283 66.4848 33.8296 66.6443 33.9034 66.8117C33.9874 67.0012 34.0354 67.2004 34.0354 67.3833L34.0348 73.8216C34.0342 74.0628 33.9496 74.2319 33.814 74.3111L33.2634 74.6302C33.3995 74.551 33.4841 74.3819 33.4847 74.1407L33.4853 67.7025C33.4859 67.5195 33.4373 67.3204 33.3533 67.1308C33.2796 66.964 33.1782 66.8039 33.0594 66.6689C32.9592 66.5549 32.8465 66.4578 32.7265 66.3888L32.5171 66.2682C32.3066 66.1464 32.1152 66.1356 31.9761 66.2166L32.5261 65.8969C32.6647 65.8159 32.8567 65.8273 33.0672 65.9485L33.2766 66.069C33.3965 66.1386 33.5093 66.2352 33.6095 66.3492Z" fill="white"/>
<path d="M33.5052 67.7091L33.4584 74.1474C33.4536 74.6333 33.1123 74.824 32.6918 74.5769L32.4836 74.4545C32.0667 74.2098 31.7296 73.6207 31.7344 73.1348L31.7812 66.6966C31.786 66.2161 32.1309 66.0229 32.5478 66.2671L32.756 66.3894C33.1771 66.6372 33.5094 67.2286 33.5052 67.7091Z" fill="black"/>
<path d="M51.1643 38.6218C50.7534 38.8587 50.4217 39.434 50.4229 39.9061C50.4241 40.3781 50.7582 40.5689 51.1691 40.332C51.58 40.095 51.9123 39.5197 51.9111 39.0477C51.9099 38.5756 51.5758 38.3848 51.1643 38.6218Z" fill="white"/>
<path d="M59.5929 118.845C59.6649 118.831 59.7327 118.824 59.7933 118.824C59.9114 118.824 60.0032 118.851 60.0488 118.902C60.1166 118.978 60.1166 119.151 60.0494 119.352C59.8443 119.968 59.1034 120.621 58.4634 120.75C58.2516 120.792 58.0771 120.771 58.0087 120.693C57.9415 120.617 57.9409 120.444 58.0081 120.243C58.2162 119.617 58.9421 118.977 59.5929 118.845Z" fill="white"/>
<path d="M57.3012 121.319C57.5303 121.578 57.8723 121.716 58.2694 121.716C58.3917 121.716 58.5195 121.702 58.6509 121.676C59.6257 121.479 60.634 120.59 60.9465 119.65C61.1247 119.115 61.0557 118.614 60.757 118.276C60.4571 117.937 59.9646 117.806 59.4073 117.919C58.4331 118.116 57.4254 119.005 57.1122 119.945C56.9335 120.48 57.0025 120.981 57.3012 121.319ZM58.0084 120.244C58.2172 119.617 58.943 118.977 59.5939 118.845C59.6658 118.831 59.7336 118.824 59.7942 118.824C59.9124 118.824 60.0042 118.851 60.0497 118.902C60.1175 118.978 60.1175 119.151 60.0504 119.352C59.8452 119.968 59.1044 120.621 58.4643 120.75C58.2526 120.792 58.078 120.771 58.0096 120.693C57.9412 120.617 57.9412 120.445 58.0084 120.244Z" fill="black"/>
<path d="M36.335 65.7838L53.0494 75.4337V74.0505L36.335 56.9809V65.7838Z" fill="white"/>
<path d="M83.3784 58.4993L86.5205 56.6853V55.3884L83.3784 57.203V58.4993Z" fill="white"/>
<path d="M86.1621 54.4405L69.1502 37.0668L66.0039 38.8831L81.6854 54.8987L83.0153 56.2568L86.1621 54.4405Z" fill="white"/>
<path d="M56.9834 73.7402L60.1255 71.9262V70.6275L56.9834 72.4421V73.7402Z" fill="white"/>
<path d="M39.6035 54.1254L56.6155 71.4991L59.7617 69.6827L45.0142 54.6215L42.7498 52.309L39.6035 54.1254Z" fill="white"/>
<path d="M76.7739 62.3128L79.916 60.4982V59.2013L76.7739 61.0153V62.3128Z" fill="white"/>
<path d="M79.562 58.2513L62.5501 40.8776L59.4038 42.6946L69.8545 53.3673L76.4158 60.0677L79.562 58.2513Z" fill="white"/>
<path d="M92.6238 53.1614V51.8651L89.9814 53.3905V54.6868L92.6238 53.1614Z" fill="white"/>
<path d="M92.339 50.8744L75.327 33.5007L72.603 35.0735L74.8627 37.3812L89.615 52.4472L92.339 50.8744Z" fill="white"/>
<path d="M70.1802 66.12L73.3228 64.3054V63.0079L70.1802 64.8219V66.12Z" fill="white"/>
<path d="M72.9619 62.0611L55.95 44.6874L52.8037 46.5044L69.3466 63.3993L69.8157 63.878L72.9619 62.0611Z" fill="white"/>
<path d="M63.5771 69.9329L66.7198 68.1184V66.8209L63.5771 68.6348V69.9329Z" fill="white"/>
<path d="M66.3618 65.8724L49.3505 48.4987L46.2036 50.3151L49.1309 53.3042L63.2156 67.6888L66.3618 65.8724Z" fill="white"/>
<path d="M93.3729 50.5665C93.3663 50.5623 93.3585 50.5611 93.3513 50.5575L75.4899 32.3165L35.738 55.267C35.7068 55.273 35.6762 55.2814 35.6462 55.2934C35.4578 55.3702 35.3354 55.5532 35.3354 55.7565V66.0735C35.3354 66.2522 35.4308 66.4172 35.5856 66.5066L53.3 76.7336C53.3774 76.7779 53.4638 76.8007 53.5501 76.8007C53.6365 76.8007 53.7229 76.7785 53.8003 76.7336L93.3735 53.8832C93.5283 53.7938 93.6237 53.6288 93.6237 53.4501V50.9996C93.6225 50.8209 93.5271 50.6559 93.3729 50.5665ZM92.6231 51.8652V53.1615L89.9807 54.687V53.3907L92.6231 51.8652ZM45.0148 54.6216L59.7623 69.6828L56.616 71.4992L39.604 54.1255L42.7503 52.3091L45.0148 54.6216ZM53.0499 75.4343L36.3354 65.7843V56.9808L53.0499 74.0504V75.4343ZM60.1252 71.9263L56.9831 73.7409V72.4422L60.1252 70.6282V71.9263ZM49.131 53.3043L46.2037 50.3152L49.3499 48.4988L66.3619 65.8725L63.2157 67.6889L49.131 53.3043ZM66.7194 68.1184L63.5774 69.933V68.6349L66.7194 66.8209V68.1184ZM69.3468 63.3999L52.8033 46.5049L55.9496 44.6885L72.9615 62.0622L69.8153 63.8786L69.3468 63.3999ZM73.3227 64.3057L70.1806 66.1203V64.8228L73.3227 63.0088V64.3057ZM69.8543 53.3673L59.4035 42.6946L62.5498 40.8782L79.5618 58.2519L76.4155 60.0683L69.8543 53.3673ZM79.9163 60.4984L76.7742 62.313V61.0155L79.9163 59.2015V60.4984ZM81.6853 54.8993L66.0032 38.8843L69.1494 37.0679L86.1614 54.4416L83.0152 56.258L81.6853 54.8993ZM86.5195 56.6857L83.3775 58.5003V57.2034L86.5195 55.3894V56.6857ZM74.8631 37.3811L72.6034 35.0734L75.3274 33.5006L92.3394 50.8743L89.6154 52.4471L74.8631 37.3811Z" fill="black"/>
<path d="M82.1399 101.485C83.7259 101.107 85.0696 100.133 85.9244 98.7445L87.4637 96.2419C88.3173 94.8544 88.5788 93.2186 88.2015 91.6356C87.8494 90.1575 86.9634 88.8708 85.7073 88.0142L79.251 83.6364C78.6122 83.2495 77.7778 83.4517 77.3854 84.0887C77.1887 84.4085 77.1299 84.7744 77.2145 85.1283C77.2991 85.4822 77.5162 85.7821 77.8258 85.9723L78.293 86.2608C78.5276 86.406 78.6008 86.7137 78.4562 86.9483C78.3116 87.1834 78.0039 87.2566 77.7688 87.1114L75.7802 85.8883C75.1408 85.4954 74.2998 85.6952 73.9063 86.3352C73.5092 86.9813 73.7053 87.8163 74.337 88.2128L76.3351 89.4419C76.5702 89.5864 76.6434 89.8942 76.4989 90.1293C76.3543 90.3645 76.0466 90.4376 75.8114 90.2931L73.8229 89.07C73.8187 89.0676 73.8145 89.0646 73.8103 89.0622L72.6298 88.3363C72.3197 88.1456 71.9537 88.0868 71.6004 88.1708C71.2465 88.2554 70.9466 88.4725 70.7558 88.7826C70.754 88.785 70.7468 88.797 70.745 88.7994C70.3575 89.4299 70.5555 90.2673 71.1907 90.662L74.3784 92.6229C74.6135 92.7675 74.6867 93.0752 74.5421 93.3104C74.3976 93.5455 74.0898 93.6187 73.8547 93.4741L70.673 91.5168C70.6706 91.515 70.6676 91.5138 70.6652 91.512L65.8958 88.5781C65.678 88.4443 65.4333 88.3753 65.1843 88.3753C65.0788 88.3753 64.972 88.3879 64.8664 88.4131C64.5125 88.4977 64.2126 88.7148 64.0218 89.025C63.6223 89.674 63.8227 90.515 64.4627 90.9085L76.3987 98.2502C76.5588 98.3486 76.65 98.5291 76.635 98.7163C76.62 98.9034 76.5007 99.0666 76.3267 99.1386L70.1254 101.686C69.2982 102.012 68.8339 102.904 69.0378 103.762C69.1428 104.202 69.5861 104.474 70.0264 104.37L82.1399 101.485Z" fill="white"/>
<path d="M89.174 91.4043C88.7643 89.6833 87.7332 88.186 86.2695 87.1879L79.8024 82.8029C79.7964 82.7987 79.7898 82.7945 79.7838 82.7909C78.6747 82.1089 77.2171 82.4562 76.5284 83.5749C76.2681 83.9984 76.1499 84.4813 76.1823 84.9672C75.09 84.3811 73.7121 84.7428 73.0492 85.8214C72.7721 86.2725 72.6647 86.7806 72.7097 87.2712C72.2826 87.1177 71.8207 87.0913 71.369 87.1993C70.7554 87.3456 70.2353 87.7223 69.9096 88.252C69.9078 88.2544 69.9006 88.2664 69.8988 88.2688C69.633 88.7007 69.5239 89.1854 69.5545 89.6563L66.4202 87.7283C65.8821 87.3972 65.2481 87.2958 64.635 87.4422C64.0214 87.5886 63.5013 87.9647 63.1648 88.5123C62.4827 89.6215 62.8301 91.0791 63.9392 91.7618L75.0384 98.5888L69.7518 100.761C68.4717 101.267 67.7465 102.657 68.0656 103.995C68.2648 104.831 69.0128 105.394 69.8364 105.394C69.9756 105.394 70.1171 105.378 70.2581 105.344L82.3716 102.458C84.2174 102.018 85.7812 100.886 86.7758 99.269L88.315 96.7664C89.3084 95.1516 89.6131 93.247 89.174 91.4043ZM69.0386 103.763C68.834 102.905 69.2989 102.014 70.1261 101.688L76.3275 99.14C76.5014 99.0687 76.6208 98.9055 76.6358 98.7177C76.6508 98.5306 76.5596 98.35 76.3994 98.2516L64.4635 90.91C63.824 90.5165 63.6231 89.6755 64.0226 89.0264C64.2133 88.7163 64.5133 88.4992 64.8672 88.4146C64.9728 88.3894 65.0789 88.3768 65.1851 88.3768C65.434 88.3768 65.6794 88.4458 65.8965 88.5795L70.666 91.5134C70.6684 91.5146 70.6708 91.5164 70.6738 91.5182L73.8554 93.4756C74.0906 93.6195 74.3983 93.547 74.5429 93.3118C74.6875 93.0767 74.6143 92.7689 74.3791 92.6244L71.1915 90.6634C70.5568 90.2681 70.3589 89.4307 70.7458 88.8009C70.7476 88.7985 70.7548 88.7865 70.7566 88.7841C70.9473 88.474 71.2473 88.2568 71.6012 88.1722C71.9551 88.0877 72.3204 88.1464 72.6305 88.3378L73.8111 89.0636C73.8153 89.066 73.8195 89.069 73.8237 89.0714L75.8122 90.2945C76.0473 90.4391 76.3551 90.3659 76.4996 90.1308C76.6442 89.8956 76.571 89.5879 76.3359 89.4433L74.3377 88.2142C73.7061 87.8177 73.5099 86.9827 73.907 86.3367C74.3005 85.6972 75.1409 85.4969 75.781 85.8898L77.7695 87.1129C78.0047 87.258 78.3124 87.1843 78.457 86.9497C78.6015 86.7146 78.5289 86.4068 78.2938 86.2623L77.8265 85.9738C77.517 85.7836 77.2998 85.4837 77.2153 85.1297C77.1307 84.7758 77.1895 84.4099 77.3862 84.0902C77.7779 83.4531 78.6129 83.2516 79.2518 83.6379L85.708 88.0157C86.9641 88.8723 87.8501 90.159 88.2023 91.637C88.5796 93.22 88.3174 94.8558 87.4644 96.2433L85.9252 98.7459C85.071 100.135 83.7267 101.108 82.1407 101.486L70.0272 104.373C69.5863 104.475 69.143 104.203 69.0386 103.763Z" fill="black"/>
<path d="M4.7876 43.7156C7.54298 60.1535 13.1276 81.1663 24.2627 91.4983C29.9773 96.8011 34.7588 96.9488 35.6673 96.9256C48.1759 92.8021 57.1207 82.0446 62.2538 64.9459C65.3676 54.5729 66.0626 44.8525 66.2186 41.1887L34.9121 30.6159L4.7876 43.7156Z" fill="white"/>
<path d="M34.7159 26L0 41.0971L0.262679 42.7457C9.09795 98.1926 30.8373 101.234 35.4902 101.234C35.9513 101.234 36.244 101.204 36.3412 101.193L36.545 101.168L36.7407 101.105C50.638 96.637 60.8974 84.5265 66.4096 66.0816C70.503 52.3854 70.5686 40.1709 70.57 39.6579L70.5727 38.1092L34.7159 26ZM62.2532 64.9447C57.1201 82.0434 48.1767 92.8008 35.6667 96.9243C34.7569 96.9476 29.9767 96.7999 24.2621 91.497C13.127 81.1651 7.5424 60.1522 4.78702 43.7143L34.9101 30.6147L66.2167 41.1874C66.0621 44.8526 65.3671 54.573 62.2532 64.9447Z" fill="black"/>
<path d="M35.5029 91.2911C34.0363 91.2911 29.8554 90.856 25.1135 86.4562C17.6737 79.5541 12.3736 66.4653 9.36102 47.5553C9.27894 47.0422 9.5553 46.5374 10.0328 46.3308L34.5056 35.6883C34.7641 35.5761 35.0569 35.5638 35.3251 35.6541L60.6885 44.2198C61.1523 44.3758 61.4642 44.8122 61.4642 45.302C61.4642 45.6864 61.415 54.8377 58.3449 65.1082C54.231 78.8686 46.597 87.8982 36.2677 91.22C36.1993 91.2419 36.1282 91.2583 36.0556 91.2665C36.016 91.2692 35.8244 91.2911 35.5029 91.2911ZM11.7525 48.0683C13.8006 60.473 17.9993 76.5456 26.4556 84.5901C31.1386 89.0447 35.0186 89.046 35.6904 89.0077C56.8988 82.0728 58.962 51.5064 59.1603 46.1106L35.009 37.9539L11.7525 48.0683Z" fill="black"/>
<path d="M102.229 134.616C101.599 134.616 100.949 134.453 100.321 134.117C99.8774 133.878 99.2187 133.236 99.794 131.607C100.33 130.09 101.921 127.859 104.035 125.528C103.226 124.103 101.988 122.596 100.233 121.096C98.4077 119.536 96.3922 118.918 94.2441 119.259C87.6409 120.308 81.7119 129.894 81.6531 129.991C81.5091 130.226 81.2014 130.301 80.9657 130.156C80.7299 130.012 80.6561 129.705 80.8001 129.469C80.8625 129.366 82.3603 126.931 84.7364 124.322C87.9618 120.781 91.1081 118.745 94.0876 118.271C96.538 117.882 98.8246 118.577 100.883 120.335C102.532 121.745 103.836 123.242 104.748 124.76C108.39 120.917 113.284 116.989 117.094 115.676C117.116 114.893 117.189 114.123 117.313 113.384C117.938 109.686 119.799 106.834 122.695 105.136C122.934 104.996 123.24 105.076 123.379 105.314C123.519 105.552 123.439 105.858 123.201 105.998C119.874 107.948 118.699 111.182 118.299 113.55C118.199 114.144 118.134 114.76 118.104 115.385C118.882 115.21 119.599 115.168 120.231 115.286C122.605 115.734 123.024 118.207 122.957 120.202C122.843 123.594 122.213 125.332 121.03 125.516C119.968 125.682 118.892 124.458 118.073 122.16C117.483 120.504 117.149 118.614 117.095 116.744C113.542 118.118 108.76 121.964 105.249 125.679C105.539 126.269 105.77 126.86 105.937 127.449C106.52 129.502 106.305 131.484 105.345 132.887C104.574 134.016 103.437 134.616 102.229 134.616ZM104.516 126.474C102.644 128.553 101.234 130.531 100.737 131.94C100.565 132.425 100.436 133.044 100.794 133.236C102.174 133.976 103.636 133.617 104.52 132.324C105.441 130.976 105.592 128.875 104.516 126.474ZM118.086 116.418C118.109 118.278 118.427 120.175 119.015 121.825C119.712 123.782 120.525 124.586 120.875 124.529C121.201 124.479 121.846 123.502 121.958 120.169C122.076 116.652 120.547 116.364 120.045 116.27C119.485 116.164 118.822 116.223 118.086 116.418Z" fill="black"/>
<path d="M81.2971 15.8984C80.906 15.8984 80.5221 15.8444 80.1598 15.7316C79.062 15.3897 78.3614 14.5553 78.2378 13.4432C78.0345 11.6124 80.879 9.0738 83.4194 7.19564C82.6378 6.58558 81.4729 6.16688 79.9348 5.94494C76.0165 5.37927 69.7636 6.15668 62.7801 8.07743C61.3662 8.46614 60.0465 8.86804 58.836 9.26995C58.9788 11.4396 57.7239 12.7773 56.7539 13.4785C54.7528 14.9248 50.9155 15.5793 49.7332 14.2668C49.5106 14.0202 49.0877 13.3418 49.9557 12.3712C50.8681 11.3515 53.8284 9.93639 57.7221 8.59211C57.5751 7.92567 57.2878 7.21363 56.8583 6.46141C56.1864 5.28329 55.1541 4.54427 53.7006 4.20055C45.8287 2.33919 29.4496 13.1738 29.2852 13.2836C29.0555 13.4366 28.7453 13.3748 28.5918 13.145C28.4388 12.9153 28.5006 12.6052 28.7303 12.4516C29.4166 11.9939 45.6361 1.26544 53.9298 3.22758C55.6436 3.63308 56.9207 4.55446 57.7257 5.96653C58.2056 6.80873 58.5103 7.57475 58.6783 8.26938C59.8906 7.86988 61.1791 7.48057 62.5137 7.11346C69.6251 5.15732 76.0261 4.37091 80.0764 4.95517C81.9276 5.22211 83.3258 5.77098 84.255 6.59158C87.3389 4.4195 91.0484 2.35898 94.0855 1.14007C97.4219 -0.198211 99.42 -0.356574 100.193 0.655986C100.361 0.875534 100.319 1.18926 100.1 1.35662C99.8801 1.52398 99.5664 1.48199 99.399 1.26244C99.0817 0.846742 97.597 0.80835 94.458 2.06745C91.2397 3.35835 87.7492 5.34688 84.922 7.339C85.036 7.50517 85.1362 7.67912 85.2226 7.86088C86.832 11.2519 85.7241 13.3118 84.9202 14.238C84.0127 15.2859 82.6144 15.8984 81.2971 15.8984ZM84.1116 7.92627C81.1513 10.1139 79.1082 12.2248 79.2312 13.3334C79.3326 14.2428 79.9534 14.6207 80.4573 14.7778C81.6564 15.151 83.2508 14.6387 84.1662 13.5847C85.2778 12.304 85.3323 10.4241 84.3204 8.29158C84.2604 8.16441 84.1908 8.04324 84.1116 7.92627ZM57.8372 9.61067C53.9634 10.9639 51.384 12.2746 50.7013 13.0383C50.5658 13.19 50.3558 13.4642 50.4764 13.5979C51.0193 14.2002 54.1265 14.145 56.1684 12.6687C57.2764 11.8685 57.8336 10.8356 57.8372 9.61067Z" fill="black"/>
</svg>
