<svg width="182" height="22" viewBox="0 0 182 22" fill="none" xmlns="http://www.w3.org/2000/svg">
<path d="M5.33828 20.1667L6.82786 13.7271L1.83203 9.39583L8.43203 8.82292L10.9987 2.75L13.5654 8.82292L20.1654 9.39583L15.1695 13.7271L16.6591 20.1667L10.9987 16.7521L5.33828 20.1667Z" fill="#2C71F0"/>
<path d="M45.3383 20.1667L46.8279 13.7271L41.832 9.39583L48.432 8.82292L50.9987 2.75L53.5654 8.82292L60.1654 9.39583L55.1695 13.7271L56.6591 20.1667L50.9987 16.7521L45.3383 20.1667Z" fill="#2C71F0"/>
<path d="M85.3383 20.1667L86.8279 13.7271L81.832 9.39583L88.432 8.82292L90.9987 2.75L93.5654 8.82292L100.165 9.39583L95.1695 13.7271L96.6591 20.1667L90.9987 16.7521L85.3383 20.1667Z" fill="#2C71F0"/>
<path d="M125.338 20.1667L126.828 13.7271L121.832 9.39583L128.432 8.82292L130.999 2.75L133.565 8.82292L140.165 9.39583L135.17 13.7271L136.659 20.1667L130.999 16.7521L125.338 20.1667Z" fill="#2C71F0"/>
<path d="M165.338 20.1667L166.828 13.7271L161.832 9.39583L168.432 8.82292L170.999 2.75L173.565 8.82292L180.165 9.39583L175.17 13.7271L176.659 20.1667L170.999 16.7521L165.338 20.1667Z" fill="black"/>
</svg>
