<svg width="100" height="100" viewBox="0 0 100 100" fill="none" xmlns="http://www.w3.org/2000/svg">
<rect width="100" height="100" rx="24" fill="#DFFFF7"/>
<path d="M60.0993 34.7166C58.1826 33.4332 55.9993 32.5166 53.666 32.0332C52.6326 31.8332 51.666 32.6166 51.666 33.6832C51.666 34.4499 52.1826 35.1499 52.9326 35.2999C54.8826 35.6832 56.6993 36.4666 58.2826 37.5332C58.9326 37.9666 59.7826 37.8499 60.3326 37.2999C61.0993 36.5499 60.9826 35.2999 60.0993 34.7166ZM48.3326 33.6832C48.3326 32.6166 47.366 31.8332 46.3326 32.0332C43.9993 32.5166 41.816 33.4332 39.8993 34.7166C39.0326 35.2999 38.916 36.5499 39.6493 37.2832C40.1993 37.8332 41.0493 37.9499 41.6993 37.5166C43.2993 36.4499 45.0993 35.6832 47.0493 35.2832C47.816 35.1499 48.3326 34.4499 48.3326 33.6832ZM37.2993 39.6499C37.1252 39.4751 36.9145 39.3411 36.6823 39.2576C36.4501 39.1741 36.2023 39.1432 35.9568 39.1672C35.7112 39.1911 35.474 39.2692 35.2623 39.3959C35.0506 39.5226 34.8697 39.6948 34.7326 39.8999C33.4222 41.8461 32.5102 44.0327 32.0493 46.3332C31.9999 46.5754 32.0049 46.8256 32.0641 47.0655C32.1233 47.3055 32.2351 47.5294 32.3914 47.7208C32.5477 47.9122 32.7447 48.0665 32.968 48.1724C33.1914 48.2784 33.4355 48.3333 33.6826 48.3332C34.4493 48.3332 35.1493 47.8166 35.2993 47.0666C35.6826 45.1166 36.466 43.2999 37.5326 41.6999C37.9493 41.0666 37.8326 40.1999 37.2993 39.6499ZM66.316 48.3332C66.5631 48.3333 66.8072 48.2784 67.0306 48.1724C67.2539 48.0665 67.4508 47.9122 67.6072 47.7208C67.7635 47.5294 67.8753 47.3055 67.9345 47.0655C67.9937 46.8256 67.9987 46.5754 67.9493 46.3332C67.466 43.9999 66.5493 41.8332 65.266 39.8999C64.6826 39.0332 63.4326 38.8999 62.6993 39.6499C62.1493 40.1999 62.0326 41.0499 62.466 41.6999C63.5326 43.2999 64.2993 45.1166 64.6993 47.0666C64.8493 47.8166 65.5493 48.3332 66.316 48.3332ZM43.3326 50.7666L47.3993 52.6166L49.2326 56.6666C49.2989 56.8121 49.4057 56.9354 49.5401 57.0219C49.6746 57.1084 49.8311 57.1544 49.991 57.1544C50.1508 57.1544 50.3073 57.1084 50.4418 57.0219C50.5763 56.9354 50.683 56.8121 50.7493 56.6666L52.5993 52.5999L56.666 50.7666C56.8115 50.7003 56.9348 50.5935 57.0213 50.4591C57.1078 50.3246 57.1538 50.1681 57.1538 50.0082C57.1538 49.8484 57.1078 49.6919 57.0213 49.5574C56.9348 49.4229 56.8115 49.3162 56.666 49.2499L52.5993 47.3999L50.766 43.3332C50.6997 43.1878 50.5929 43.0644 50.4585 42.9779C50.324 42.8914 50.1675 42.8454 50.0076 42.8454C49.8478 42.8454 49.6912 42.8914 49.5568 42.9779C49.4223 43.0644 49.3156 43.1878 49.2493 43.3332L47.3993 47.3999L43.3326 49.2332C42.6826 49.5332 42.6826 50.4666 43.3326 50.7666Z" fill="#00AC6B"/>
<path d="M50.0013 65C47.54 64.9995 45.1169 64.3906 42.9477 63.2275C40.7786 62.0644 38.9305 60.3831 37.568 58.3333H40.0013C40.918 58.3333 41.668 57.5833 41.668 56.6667C41.668 55.75 40.918 55 40.0013 55H33.3346C32.418 55 31.668 55.75 31.668 56.6667V63.3333C31.668 64.25 32.418 65 33.3346 65C34.2513 65 35.0013 64.25 35.0013 63.3333V60.5C38.318 65.2333 43.7846 68.3333 50.0013 68.3333C57.418 68.3333 63.7846 63.9333 66.668 57.6167C66.7675 57.3909 66.8162 57.1459 66.8106 56.8992C66.805 56.6525 66.7452 56.4101 66.6355 56.189C66.5258 55.968 66.3688 55.7738 66.1757 55.6201C65.9826 55.4665 65.758 55.3572 65.518 55.3C64.768 55.1333 63.968 55.4833 63.6513 56.2C61.2846 61.3833 56.068 65 50.0013 65Z" fill="#00AC6B"/>
</svg>
