<svg width="100" height="100" viewBox="0 0 100 100" fill="none" xmlns="http://www.w3.org/2000/svg">
<rect width="100" height="100" rx="24" fill="#D3D7FB"/>
<path d="M65.4494 40.1L66.6069 38.94C67.5286 38.0181 68.7787 37.5 70.0823 37.4998C71.3859 37.4995 72.6362 38.0172 73.5582 38.9388C74.4802 39.8604 74.9982 41.1105 74.9985 42.4141C74.9987 43.7178 74.4811 44.9681 73.5594 45.89L72.4019 47.05M65.4494 40.1C65.4494 40.1 65.5944 42.56 67.7669 44.7325C69.9394 46.905 72.4019 47.05 72.4019 47.05M65.4494 40.1L54.7994 50.75C54.0744 51.47 53.7144 51.8325 53.4044 52.23C53.0394 52.7 52.7269 53.205 52.4694 53.745C52.2519 54.2 52.0919 54.6825 51.7694 55.65L50.7369 58.75L50.4019 59.7525M72.4019 47.05L61.7519 57.7C61.0269 58.425 60.6669 58.785 60.2694 59.095C59.7994 59.46 59.2944 59.7725 58.7544 60.03C58.2994 60.2475 57.8169 60.4075 56.8494 60.73L53.7494 61.7625L52.7469 62.0975M50.4019 59.7525L50.0694 60.7575C49.992 60.9908 49.981 61.241 50.0376 61.4802C50.0942 61.7194 50.2162 61.9381 50.39 62.1119C50.5638 62.2857 50.7826 62.4078 51.0218 62.4644C51.2609 62.521 51.5112 62.51 51.7444 62.4325L52.7469 62.0975M50.4019 59.7525L52.7469 62.0975" stroke="#8995FF" stroke-width="3"/>
<path d="M40 52.5H46.25M40 42.5H56.25M40 62.5H43.75M27.5 55V45C27.5 35.5725 27.5 30.8575 30.43 27.93C33.3575 25 38.0725 25 47.5 25H52.5C61.9275 25 66.6425 25 69.57 27.93M72.5 55C72.5 64.4275 72.5 69.1425 69.57 72.07M69.57 72.07C66.6425 75 61.9275 75 52.5 75H47.5C38.0725 75 33.3575 75 30.43 72.07M69.57 72.07C71.93 69.7125 72.3875 66.2 72.4775 60" stroke="#8995FF" stroke-width="3" stroke-linecap="round"/>
</svg>
