<svg width="100" height="100" viewBox="0 0 100 100" fill="none" xmlns="http://www.w3.org/2000/svg">
<rect width="100" height="100" rx="18" fill="#D9FFFF"/>
<path d="M65.4499 40.1L66.6074 38.94C67.5291 38.0181 68.7792 37.5 70.0828 37.4998C71.3864 37.4995 72.6367 38.0172 73.5587 38.9388C74.4806 39.8604 74.9987 41.1105 74.999 42.4141C74.9992 43.7178 74.4816 44.9681 73.5599 45.89L72.4024 47.05M65.4499 40.1C65.4499 40.1 65.5949 42.56 67.7674 44.7325C69.9399 46.905 72.4024 47.05 72.4024 47.05M65.4499 40.1L54.7999 50.75C54.0749 51.47 53.7149 51.8325 53.4049 52.23C53.0399 52.7 52.7274 53.205 52.4699 53.745C52.2524 54.2 52.0924 54.6825 51.7699 55.65L50.7374 58.75L50.4024 59.7525M72.4024 47.05L61.7524 57.7C61.0274 58.425 60.6674 58.785 60.2699 59.095C59.7999 59.46 59.2949 59.7725 58.7549 60.03C58.2999 60.2475 57.8174 60.4075 56.8499 60.73L53.7499 61.7625L52.7474 62.0975M50.4024 59.7525L50.0699 60.7575C49.9925 60.9908 49.9815 61.241 50.0381 61.4802C50.0947 61.7194 50.2167 61.9381 50.3905 62.1119C50.5643 62.2857 50.7831 62.4078 51.0222 62.4644C51.2614 62.521 51.5117 62.51 51.7449 62.4325L52.7474 62.0975M50.4024 59.7525L52.7474 62.0975" stroke="#00EAEA" stroke-width="2"/>
<path d="M40 52.5H46.25M40 42.5H56.25M40 62.5H43.75M27.5 55V45C27.5 35.5725 27.5 30.8575 30.43 27.93C33.3575 25 38.0725 25 47.5 25H52.5C61.9275 25 66.6425 25 69.57 27.93M72.5 55C72.5 64.4275 72.5 69.1425 69.57 72.07M69.57 72.07C66.6425 75 61.9275 75 52.5 75H47.5C38.0725 75 33.3575 75 30.43 72.07M69.57 72.07C71.93 69.7125 72.3875 66.2 72.4775 60" stroke="#00EAEA" stroke-width="2" stroke-linecap="round"/>
</svg>
