<svg width="24" height="24" viewBox="0 0 24 24" fill="none" xmlns="http://www.w3.org/2000/svg">
<path fill-rule="evenodd" clip-rule="evenodd" d="M10.5 2.69347C10.5001 2.61428 10.5189 2.53625 10.555 2.46578C10.5912 2.39531 10.6435 2.33443 10.7078 2.28815C10.772 2.24187 10.8463 2.21151 10.9246 2.19957C11.0029 2.18762 11.0829 2.19445 11.158 2.21947L17.658 4.38597C17.7576 4.41914 17.8442 4.48283 17.9056 4.56799C17.967 4.65316 18 4.75549 18 4.86047V19.1395C18 19.2444 17.967 19.3468 17.9056 19.4319C17.8442 19.5171 17.7576 19.5808 17.658 19.614L11.158 21.7805C11.0829 21.8055 11.0029 21.8123 10.9246 21.8004C10.8463 21.7884 10.772 21.7581 10.7078 21.7118C10.6435 21.6655 10.5912 21.6046 10.555 21.5342C10.5189 21.4637 10.5001 21.3857 10.5 21.3065V19.5H6V3.99997H10.5V2.69347ZM13.5 11.5C13.5 12.0525 13.276 12.5 13 12.5C12.724 12.5 12.5 12.0525 12.5 11.5C12.5 10.9475 12.724 10.5 13 10.5C13.276 10.5 13.5 10.9475 13.5 11.5ZM10.5 4.99997H7V18.5H10.5V4.99997Z" fill="black"/>
</svg>
