<svg width="40" height="40" viewBox="0 0 40 40" fill="none" xmlns="http://www.w3.org/2000/svg">
<path fill-rule="evenodd" clip-rule="evenodd" d="M17.5 4.48895C17.5001 4.35698 17.5315 4.22692 17.5917 4.10947C17.6519 3.99203 17.7392 3.89056 17.8463 3.81342C17.9533 3.73628 18.0772 3.68568 18.2077 3.66578C18.3381 3.64588 18.4715 3.65725 18.5967 3.69895L29.43 7.30978C29.596 7.36507 29.7404 7.47121 29.8427 7.61316C29.945 7.7551 30 7.92565 30 8.10062V31.8989C30 32.0739 29.945 32.2445 29.8427 32.3864C29.7404 32.5284 29.596 32.6345 29.43 32.6898L18.5967 36.3006C18.4715 36.3423 18.3381 36.3537 18.2077 36.3338C18.0772 36.3139 17.9533 36.2633 17.8463 36.1861C17.7392 36.109 17.6519 36.0075 17.5917 35.8901C17.5315 35.7727 17.5001 35.6426 17.5 35.5106V32.4998H10V6.66645H17.5V4.48895ZM22.5 19.1665C22.5 20.0873 22.1267 20.8331 21.6667 20.8331C21.2067 20.8331 20.8333 20.0873 20.8333 19.1665C20.8333 18.2456 21.2067 17.4998 21.6667 17.4998C22.1267 17.4998 22.5 18.2456 22.5 19.1665ZM17.5 8.33312H11.6667V30.8331H17.5V8.33312Z" fill="#FFB802"/>
</svg>
