<svg width="114" height="113" viewBox="0 0 114 113" fill="none" xmlns="http://www.w3.org/2000/svg">
<path d="M82.2282 81.4375H77.6335V99.1003H82.2282V81.4375Z" fill="#D9D9D9" stroke="black" stroke-width="0.75" stroke-linecap="round" stroke-linejoin="round"/>
<path d="M66.5514 77.8491H93.4193V80.7486C93.4193 80.9277 93.3483 81.0976 93.2217 81.2242C93.0951 81.3508 92.9253 81.4218 92.7462 81.4218H67.2277C67.0486 81.4218 66.8787 81.3508 66.7521 81.2242C66.6255 81.0976 66.5545 80.9277 66.5545 80.7486V77.8491H66.5514Z" fill="#D9D9D9" stroke="black" stroke-width="0.75" stroke-linecap="round" stroke-linejoin="round"/>
<path d="M98.5628 20.7506V69.941H61.0107V20.5097C61.0045 19.9755 61.1033 19.4475 61.3009 18.9534C61.4986 18.4594 61.7919 18.0085 62.1656 17.6256C62.5392 17.2427 62.9808 16.9401 63.4718 16.7301C63.9627 16.5201 64.4877 16.409 65.0219 16.4028H94.5578C95.6663 16.4491 96.71 16.9308 97.4635 17.7461C98.2139 18.5613 98.6122 19.642 98.5659 20.7506H98.5628Z" fill="#E9F1FF" stroke="black" stroke-width="0.75" stroke-linecap="round" stroke-linejoin="round"/>
<path d="M78.9377 77.8495C78.9377 73.5017 74.8709 69.9507 69.8561 69.9507H102.471C107.495 69.9507 111.559 73.4956 111.559 77.8588L78.9346 77.8526L78.9377 77.8495Z" fill="#E9F1FF" stroke="black" stroke-width="0.75" stroke-linecap="round" stroke-linejoin="round"/>
<path d="M78.6847 77.843H55.4914V20.7506C55.476 19.747 55.794 18.7681 56.3962 17.9684C56.7513 17.4867 57.2145 17.0945 57.7487 16.8228C58.2829 16.551 58.8696 16.4059 59.4686 16.4028H65.0207C64.4865 16.409 63.9616 16.5201 63.4706 16.7301C62.9796 16.9401 62.538 17.2458 62.1644 17.6256C61.7908 18.0085 61.4974 18.4594 61.2998 18.9534C61.1021 19.4475 61.0033 19.9786 61.0095 20.5097V69.941H70.7797C72.8764 69.941 74.8835 70.7747 76.3657 72.2539C77.8479 73.736 78.6785 75.7463 78.6785 77.8399L78.6847 77.843Z" stroke="black" stroke-width="0.75" stroke-linecap="round" stroke-linejoin="round"/>
<path d="M78.683 77.8429H55.2643V20.5127C55.2643 20.1021 55.3323 19.6945 55.4589 19.3023C55.5978 18.8329 55.8232 18.3914 56.1258 18.0054C56.4902 17.5113 56.9627 17.113 57.5092 16.8351C58.0558 16.5571 58.6579 16.4089 59.2724 16.4058H65.019C64.4848 16.412 63.9599 16.5232 63.4689 16.7331C62.9779 16.9431 62.5364 17.2488 62.1627 17.6286C61.7891 18.0116 61.4957 18.4624 61.2981 18.9564C61.1005 19.4505 61.0016 19.9816 61.0078 20.5127V69.944H70.778C72.8747 69.944 74.8818 70.7778 76.364 72.2569C77.8462 73.7391 78.6768 75.7493 78.6768 77.8429H78.683Z" fill="#2C71F0" stroke="black" stroke-width="0.75" stroke-linecap="round" stroke-linejoin="round"/>
<path opacity="0.1" d="M98.2828 62.623H61.3483V69.6202H98.2828V62.623Z" fill="black"/>
<path opacity="0.1" d="M58.8197 77.6209V16.752C56.9823 16.752 55.4909 18.929 55.4909 20.5872V77.6209H58.8197Z" fill="black"/>
<path d="M62.0062 108.756C62.9697 108.756 63.754 107.975 63.754 107.009C63.754 106.042 62.9727 105.261 62.0062 105.261C61.0397 105.261 60.2585 106.042 60.2585 107.009C60.2585 107.975 61.0397 108.756 62.0062 108.756Z" stroke="black" stroke-width="0.75" stroke-linecap="round" stroke-linejoin="round"/>
<path d="M73.4654 109.392C74.7068 109.392 75.7134 108.386 75.7134 107.144C75.7134 105.903 74.7068 104.896 73.4654 104.896C72.2241 104.896 71.2174 105.903 71.2174 107.144C71.2174 108.386 72.2241 109.392 73.4654 109.392Z" stroke="black" stroke-width="0.75" stroke-linecap="round" stroke-linejoin="round"/>
<path d="M100.055 108.704C101.019 108.704 101.803 107.922 101.803 106.956C101.803 105.989 101.022 105.208 100.055 105.208C99.0885 105.208 98.3073 105.989 98.3073 106.956C98.3073 107.922 99.0885 108.704 100.055 108.704Z" stroke="black" stroke-width="0.75" stroke-linecap="round" stroke-linejoin="round"/>
<path opacity="0.1" d="M82.185 82.1108H77.6335V86.4678H82.185V82.1108Z" fill="#2C71F0" stroke="black" stroke-width="0.75" stroke-miterlimit="10"/>
<path d="M62.0453 99.1006C61.6963 99.1006 61.3474 99.1685 61.0262 99.3043C60.702 99.4371 60.4086 99.6347 60.1616 99.8818C59.9146 100.129 59.72 100.422 59.5842 100.747C59.4514 101.071 59.3835 101.417 59.3835 101.766V102.562C59.4514 103.201 59.754 103.791 60.2296 104.224C60.7051 104.656 61.3258 104.891 61.9711 104.891C62.6165 104.891 63.2341 104.653 63.7127 104.224C64.1913 103.794 64.4909 103.201 64.5588 102.562H70.8427C70.9106 103.201 71.2132 103.791 71.6888 104.224C72.1674 104.653 72.785 104.891 73.4304 104.891C74.0757 104.891 74.6933 104.653 75.1719 104.224C75.6506 103.794 75.9501 103.201 76.018 102.562H96.5743C96.6453 103.201 96.9448 103.791 97.4235 104.22C97.9021 104.65 98.5197 104.887 99.162 104.891C99.8042 104.891 100.425 104.653 100.901 104.224C101.379 103.794 101.679 103.201 101.75 102.565V100.972C101.75 100.478 101.555 100.002 101.203 99.6533C100.854 99.3012 100.382 99.1036 99.8845 99.1036H62.0422L62.0453 99.1006Z" fill="white" stroke="black" stroke-width="0.75" stroke-linecap="round" stroke-linejoin="round"/>
<path d="M37.8591 49.9541H33.1881V58.523H37.8591V49.9541Z" fill="black"/>
<path d="M37.5505 50.2731V58.2068H33.5111V50.2731H37.5505ZM38.182 49.6416H32.8796V58.8456H38.182V49.6416Z" fill="black"/>
<path d="M32.0629 44.8217C32.3496 44.8217 32.5782 44.5894 32.5782 44.3063C32.5782 44.0233 32.346 43.791 32.0629 43.791C31.7798 43.791 31.5475 44.0233 31.5475 44.3063C31.5475 44.5894 31.7798 44.8217 32.0629 44.8217Z" fill="black"/>
<path d="M34.2484 49.1954C34.5351 49.1954 34.7638 48.9631 34.7638 48.68C34.7638 48.3969 34.5315 48.1646 34.2484 48.1646C33.9653 48.1646 33.7331 48.3969 33.7331 48.68C33.7331 48.9631 33.9653 49.1954 34.2484 49.1954Z" fill="black"/>
<path d="M37.557 53.5751C37.8437 53.5751 38.0724 53.3429 38.0724 53.0598C38.0724 52.7767 37.8401 52.5444 37.557 52.5444C37.2739 52.5444 37.0417 52.7767 37.0417 53.0598C37.0417 53.3429 37.2739 53.5751 37.557 53.5751Z" fill="black"/>
<path d="M32.0629 53.5751C32.3496 53.5751 32.5782 53.3429 32.5782 53.0598C32.5782 52.7767 32.346 52.5444 32.0629 52.5444C31.7798 52.5444 31.5475 52.7767 31.5475 53.0598C31.5475 53.3429 31.7798 53.5751 32.0629 53.5751Z" fill="black"/>
<path d="M66.0649 101.999H29.884C28.5871 101.999 27.5358 103.05 27.5358 104.347V107.044C27.5358 108.341 28.5871 109.392 29.884 109.392H66.0649C67.3617 109.392 68.4131 108.341 68.4131 107.044V104.347C68.4131 103.05 67.3617 101.999 66.0649 101.999Z" fill="#E0E0E0" stroke="black" stroke-width="0.75"/>
<path d="M65.5906 53.9895C65.645 53.8298 65.6704 53.6629 65.674 53.4923L65.6994 50.1316C65.6994 49.7105 65.5361 49.304 65.2385 49.0028C64.9409 48.7016 64.538 48.531 64.117 48.5274L32.0736 48.2915C31.7397 48.2915 31.4094 48.3931 31.1372 48.5891C30.865 48.7851 30.6581 49.0609 30.5493 49.3766C30.4948 49.5363 30.4694 49.7033 30.4658 49.8739L30.444 53.2383C30.444 53.4488 30.4803 53.6556 30.5601 53.848C30.64 54.0403 30.7561 54.2182 30.9049 54.367C31.0501 54.5158 31.2279 54.6355 31.4203 54.7154C31.6127 54.7989 31.8195 54.8388 32.03 54.8424L64.0699 55.0711C64.4038 55.0747 64.734 54.9731 65.0062 54.7771C65.2784 54.5811 65.4853 54.3053 65.5906 53.9895Z" fill="black"/>
<path d="M30.8711 49.4898C30.8311 49.6168 30.8057 49.7475 30.8057 49.8817L30.7839 53.2461C30.7839 53.58 30.911 53.903 31.1469 54.1389C31.3828 54.3749 31.6985 54.5091 32.0324 54.5091L64.0759 54.745C64.3408 54.745 64.6021 54.6652 64.8163 54.5091C65.034 54.3531 65.1937 54.1353 65.2772 53.8849C65.3171 53.7579 65.3425 53.6272 65.3425 53.4929L65.3679 50.1322C65.3679 49.7983 65.2373 49.4789 65.0086 49.2393C64.7727 49.0034 64.4533 48.8691 64.1194 48.8655L32.076 48.6296C31.811 48.6296 31.5534 48.7131 31.3356 48.8655C31.1215 49.0179 30.9582 49.2393 30.8711 49.4898ZM30.2432 49.2793C30.3702 48.8945 30.617 48.5606 30.9473 48.3284C31.2775 48.0925 31.6731 47.9691 32.076 47.9727L64.1194 48.2014C64.3735 48.2014 64.6239 48.2558 64.8562 48.3538C65.0885 48.4518 65.299 48.5969 65.4768 48.7748C65.6547 48.9526 65.7926 49.1668 65.8869 49.4027C65.9813 49.6386 66.0285 49.889 66.0249 50.1394L66.0031 53.5038C66.0031 53.6998 65.9704 53.8958 65.9123 54.0809C65.7817 54.4656 65.5349 54.7959 65.2046 55.0318C64.8744 55.2677 64.4788 55.3911 64.0723 55.3874L32.0324 55.1588C31.7784 55.1588 31.528 55.1044 31.2957 55.0064C31.0634 54.9084 30.8529 54.7632 30.6751 54.5854C30.4972 54.4039 30.3557 54.1934 30.2613 53.9575C30.1669 53.7216 30.1198 53.4711 30.1198 53.2207L30.1452 49.86C30.1452 49.664 30.1742 49.468 30.2359 49.2829L30.2432 49.2793Z" fill="black"/>
<path d="M67.6162 57.6113C67.6707 57.4516 67.6961 57.2846 67.6997 57.1141L67.7215 53.7497C67.7215 53.5392 67.6852 53.3323 67.6053 53.1399C67.5255 52.9476 67.413 52.7697 67.2642 52.6209C67.119 52.4721 66.9448 52.3524 66.7524 52.2725C66.5601 52.1927 66.3532 52.1491 66.1427 52.1491L34.0992 51.9205C33.7653 51.9168 33.4351 52.0185 33.1629 52.2144C32.8907 52.4104 32.6838 52.6863 32.5785 53.002C32.5241 53.1617 32.4987 53.3286 32.4951 53.4992L32.4733 56.8636C32.4733 57.0741 32.5096 57.281 32.5894 57.4734C32.6693 57.6657 32.7818 57.8436 32.9306 57.9924C33.0758 58.1412 33.25 58.2609 33.4423 58.3408C33.6347 58.4206 33.8416 58.4642 34.0521 58.4642L66.0955 58.7001C66.4294 58.7001 66.7597 58.5985 67.0319 58.4025C67.3041 58.2065 67.511 57.9307 67.6199 57.6149L67.6162 57.6113Z" fill="black"/>
<path d="M65.5353 61.6477C65.5897 61.488 65.6188 61.321 65.6188 61.1505L65.6442 57.7896C65.6442 57.5791 65.6079 57.3723 65.528 57.18C65.4482 56.9876 65.332 56.8097 65.1869 56.6609C65.0417 56.5121 64.8639 56.3923 64.6715 56.3125C64.4792 56.2326 64.2723 56.1892 64.0618 56.1892L32.0365 55.9604C31.6989 55.9604 31.3723 56.0621 31.1001 56.2581C30.8279 56.4541 30.621 56.7299 30.5158 57.0493C30.4613 57.209 30.4359 57.376 30.4323 57.5465L30.4069 60.9072C30.4069 61.1177 30.4432 61.3247 30.523 61.517C30.6029 61.7094 30.719 61.8871 30.8642 62.0359C31.0094 62.1847 31.1872 62.3045 31.3796 62.3843C31.5719 62.4642 31.7788 62.5078 31.9893 62.5078L64.0291 62.7365C64.363 62.7365 64.6897 62.6349 64.9619 62.4389C65.2341 62.2429 65.4337 61.9671 65.5389 61.6513L65.5353 61.6477Z" fill="black"/>
<path d="M30.8217 57.1466C30.7782 57.2737 30.7564 57.4043 30.7564 57.5386L30.731 60.8994C30.731 61.0663 30.76 61.2297 30.8217 61.3821C30.8834 61.5345 30.9742 61.676 31.0903 61.7922C31.2064 61.9083 31.3444 62.0027 31.4968 62.068C31.6492 62.1333 31.8125 62.166 31.9795 62.166L64.0157 62.3983C64.2806 62.3983 64.5419 62.3185 64.7597 62.166C64.9775 62.0136 65.1372 61.7922 65.2243 61.5418C65.2678 61.4148 65.286 61.2805 65.2823 61.1498L65.3077 57.789C65.3077 57.6221 65.2787 57.4588 65.217 57.3063C65.1553 57.1539 65.061 57.0123 64.9448 56.8962C64.8287 56.7801 64.6907 56.6857 64.5383 56.6204C64.3859 56.555 64.2226 56.5224 64.0556 56.5224L32.0194 56.2901C31.7545 56.2901 31.4932 56.37 31.279 56.526C31.0613 56.6821 30.9016 56.8998 30.8181 57.1503L30.8217 57.1466ZM30.1866 56.9325C30.3173 56.5478 30.5641 56.2139 30.8943 55.978C31.2246 55.7421 31.6202 55.6151 32.0267 55.6187L64.0629 55.851C64.5746 55.8546 65.061 56.0615 65.4203 56.428C65.7796 56.791 65.9792 57.2809 65.9755 57.7927L65.9501 61.1534C65.9501 61.3494 65.9211 61.5454 65.8594 61.7305C65.7287 62.1152 65.4819 62.4491 65.1517 62.6814C64.8214 62.9173 64.4258 63.0407 64.0193 63.0371L31.9759 62.8193C31.4641 62.8157 30.9778 62.6088 30.6185 62.2422C30.2592 61.8757 30.0596 61.3893 30.0632 60.8776L30.0886 57.5168C30.0886 57.3208 30.1213 57.1249 30.1793 56.9398V56.9289L30.1866 56.9325Z" fill="black"/>
<path d="M64.3086 95.0158C64.4792 94.5005 64.5699 93.9597 64.5735 93.4153L64.9111 45.5189C64.9183 44.1615 64.3884 42.8586 63.4339 41.8932C62.483 40.9277 61.1837 40.3797 59.83 40.3688L38.377 40.2273C37.299 40.2164 36.2465 40.5503 35.3718 41.1745C34.4935 41.7988 33.8366 42.688 33.4955 43.7078C33.3213 44.2232 33.2342 44.7603 33.2305 45.3047L32.8894 93.2048C32.8821 94.5622 33.412 95.8651 34.3665 96.8305C35.3174 97.7959 36.6167 98.3439 37.9705 98.3548L59.4162 98.5072C60.4941 98.5181 61.5503 98.1842 62.4286 97.5564C63.3069 96.9285 63.9638 96.0393 64.3086 95.0158Z" fill="black"/>
<path d="M57.6775 41.0114C57.7356 40.8408 57.7646 40.6666 57.7646 40.4851V40.3654L40.4381 40.2383V40.3617C40.4381 40.5831 40.4781 40.8009 40.5615 41.0078C40.645 41.211 40.7684 41.3997 40.9209 41.5558C41.0769 41.7119 41.262 41.8389 41.4653 41.9223C41.6685 42.0058 41.8862 42.053 42.1076 42.053L56.0661 42.151C56.4218 42.1583 56.7665 42.053 57.0569 41.8461C57.3472 41.6429 57.565 41.3489 57.6775 41.015V41.0114Z" fill="black"/>
<path d="M48.4616 41.1382L51.9494 41.1636V41.3015L48.4616 41.2761V41.1382Z" fill="black"/>
<path d="M48.1315 40.9419C48.146 40.8983 48.175 40.862 48.2113 40.833C48.2476 40.8075 48.2948 40.793 48.3384 40.793L52.0548 40.8293C52.0839 40.8293 52.1129 40.8366 52.1383 40.8475C52.1637 40.8584 52.1891 40.8765 52.2072 40.8947C52.2254 40.9164 52.2435 40.9382 52.2544 40.9636C52.2653 40.989 52.2689 41.0181 52.2689 41.0471V41.4173C52.2653 41.4391 52.2544 41.4645 52.2435 41.4826C52.229 41.5189 52.2072 41.5479 52.1782 41.5734C52.1492 41.5988 52.1129 41.6133 52.0766 41.6205L48.3674 41.5842C48.3093 41.5842 48.2549 41.5625 48.2113 41.5189C48.1714 41.479 48.1496 41.4209 48.1496 41.3628V40.9999L48.1714 40.9346H48.1315V40.9419Z" fill="black"/>
<path d="M46.8136 41.1309L46.7838 41.2388H46.8136V41.1309Z" fill="black"/>
<path d="M46.4767 41.0181C46.5021 40.9491 46.5456 40.8911 46.6037 40.8475C46.6618 40.804 46.7344 40.7822 46.8069 40.7822C46.8541 40.7822 46.8977 40.7931 46.9412 40.8112C46.9848 40.8294 47.0211 40.8548 47.0537 40.8874C47.0864 40.9201 47.1118 40.96 47.1263 40.9999C47.1445 41.0435 47.1517 41.087 47.1517 41.1342V41.2431L47.1191 41.3411C47.0973 41.4101 47.0501 41.4718 46.992 41.5153C46.934 41.5589 46.8614 41.5806 46.7888 41.5843C46.7416 41.5843 46.6981 41.5734 46.6545 41.5552C46.611 41.5371 46.5747 41.5117 46.542 41.479C46.5093 41.4464 46.4839 41.4064 46.4694 41.3629C46.4513 41.3193 46.444 41.2758 46.444 41.2286V41.1197C46.4513 41.0834 46.4621 41.0471 46.4803 41.0145L46.4767 41.0181Z" fill="black"/>
<path d="M51.1833 65.248C51.2632 65.0084 51.3031 64.7579 51.3067 64.5039C51.3067 63.8724 51.0635 63.2699 50.6208 62.8199C50.3377 62.5295 49.982 62.3154 49.59 62.1992C49.1981 62.0831 48.7843 62.0723 48.3887 62.163C47.9931 62.2538 47.6229 62.446 47.3217 62.7182C47.0204 62.9904 46.7918 63.3389 46.6648 63.7273C46.5849 63.9668 46.5414 64.2172 46.5378 64.4676C46.5378 64.7797 46.5958 65.0883 46.712 65.3786C46.8281 65.669 47.0023 65.9303 47.2201 66.1517C47.4378 66.3731 47.6991 66.5508 47.9859 66.6706C48.2726 66.7903 48.5811 66.8558 48.8932 66.8558C49.394 66.8667 49.8876 66.7141 50.2977 66.4274C50.7079 66.1371 51.0164 65.7271 51.1797 65.2516L51.1833 65.248Z" fill="black"/>
<path d="M47.0149 63.8428C46.9459 64.0496 46.9097 64.2638 46.9097 64.4815C46.9169 65.015 47.131 65.5231 47.5085 65.9006C47.6936 66.0929 47.9186 66.2454 48.1654 66.3506C48.4122 66.4559 48.6771 66.5067 48.9457 66.5067C49.3776 66.5103 49.795 66.3797 50.147 66.1329C50.4991 65.8824 50.7604 65.5304 50.8983 65.1239C50.9673 64.917 51.0035 64.7029 51.0035 64.4852C51.0035 64.0025 50.8293 63.5343 50.5172 63.1677C50.2051 62.8011 49.7732 62.5543 49.2978 62.4745C48.8223 62.3946 48.3324 62.4854 47.9186 62.7322C47.5049 62.979 47.1891 63.3637 47.0294 63.821L47.0185 63.85L47.0149 63.8428ZM46.3979 63.6032C46.6157 62.9608 47.0693 62.4273 47.6682 62.1043C48.2634 61.7813 48.9602 61.6942 49.6171 61.8648C50.274 62.0317 50.8439 62.4418 51.2141 63.0116C51.5842 63.5814 51.7258 64.2674 51.6096 64.9352C51.4935 65.603 51.1342 66.2055 50.5934 66.6192C50.0563 67.033 49.3812 67.2289 48.7062 67.1672C48.0311 67.1055 47.4032 66.7934 46.9496 66.2889C46.4959 65.7844 46.2455 65.1312 46.2528 64.4525C46.2528 64.1658 46.3035 63.879 46.3979 63.6068V63.6032Z" fill="black"/>
<path d="M58.8985 65.3025C58.9783 65.0666 59.0183 64.8162 59.0183 64.5657C59.0183 63.9379 58.7751 63.3318 58.336 62.8817C57.8932 62.4317 57.2943 62.1776 56.6628 62.1704C56.162 62.1704 55.6756 62.3228 55.2692 62.6095C54.8627 62.8999 54.5578 63.31 54.3981 63.7818C54.2602 64.1992 54.2384 64.6456 54.3364 65.0739C54.4344 65.5021 54.6485 65.8941 54.9534 66.2098C55.2365 66.5002 55.5922 66.7143 55.9842 66.8304C56.3761 66.9466 56.7899 66.9575 57.1855 66.8667C57.5811 66.776 57.9513 66.5836 58.2525 66.3114C58.5537 66.0392 58.7787 65.6908 58.9094 65.3025H58.8985Z" fill="black"/>
<path d="M54.7115 63.8906C54.6426 64.0974 54.6063 64.3116 54.599 64.5293C54.5918 65.0157 54.7587 65.4911 55.0708 65.8649C55.383 66.2387 55.8185 66.4892 56.3012 66.569C56.7802 66.6489 57.2775 66.5545 57.6948 66.3041C58.1122 66.0537 58.4243 65.658 58.5768 65.1971C58.6457 64.9939 58.682 64.7797 58.682 64.562C58.682 64.0793 58.5151 63.6075 58.203 63.2373C57.8908 62.8671 57.4589 62.6203 56.9799 62.5405C56.5008 62.4606 56.0108 62.5513 55.5971 62.7981C55.1797 63.0449 54.8676 63.4333 54.7115 63.8906ZM54.08 63.6764C54.2978 63.0304 54.7478 62.486 55.3467 62.1557C55.9455 61.8255 56.646 61.7347 57.3065 61.8981C57.9707 62.0614 58.5441 62.4715 58.9216 63.0413C59.2954 63.6111 59.4442 64.3007 59.3317 64.9757C59.2192 65.6508 58.8598 66.2569 58.3227 66.6743C57.7856 67.0953 57.1069 67.2949 56.4282 67.2368C55.7495 67.1787 55.1144 66.8666 54.6534 66.3658C54.1925 65.8613 53.9385 65.2044 53.9421 64.5221C53.9421 64.2353 53.9893 63.9486 54.08 63.6764Z" fill="black"/>
<path d="M43.4623 65.1933C43.5422 64.9537 43.5857 64.7033 43.5893 64.4529C43.5784 63.8976 43.3752 63.3641 43.0159 62.9431C42.653 62.5221 42.1557 62.2426 41.6113 62.1519C41.0633 62.0612 40.5008 62.1628 40.0217 62.4422C39.5426 62.7217 39.1761 63.1608 38.9873 63.6798C38.9075 63.9194 38.8639 64.1698 38.8639 64.4238C38.8748 64.9791 39.0781 65.5127 39.4374 65.9337C39.8003 66.3547 40.2975 66.6341 40.8419 66.7249C41.39 66.8156 41.9525 66.714 42.4316 66.4345C42.9106 66.155 43.2772 65.7159 43.4659 65.1969H43.4623V65.1933Z" fill="black"/>
<path d="M39.2857 63.7776C39.2167 63.9845 39.1804 64.1986 39.1804 64.4164C39.1731 64.9027 39.3401 65.3782 39.6522 65.752C39.9644 66.1258 40.3999 66.3762 40.8826 66.4561C41.3616 66.5359 41.8589 66.4416 42.2762 66.1912C42.6936 65.9407 43.0057 65.5451 43.1582 65.0842C43.2271 64.8809 43.2634 64.6668 43.2634 64.449C43.2634 63.9083 43.0565 63.3857 42.6755 62.9973C42.4287 62.7505 42.1274 62.5691 41.7899 62.4711C41.456 62.3731 41.1003 62.3658 40.7628 62.442C40.4253 62.5183 40.1095 62.6816 39.8518 62.9175C39.5942 63.1498 39.3982 63.4474 39.2857 63.774V63.7776ZM38.6578 63.5671C38.861 62.9574 39.2784 62.4384 39.8301 62.1081C40.3817 61.7779 41.035 61.6545 41.6702 61.7597C42.3053 61.8686 42.8823 62.1989 43.2925 62.6925C43.7062 63.1861 43.9276 63.8103 43.924 64.4563C43.9203 64.8483 43.8296 65.233 43.6627 65.585C43.4957 65.9371 43.2525 66.2492 42.9549 66.4996C42.6537 66.7501 42.3053 66.9315 41.9278 67.0368C41.5504 67.1384 41.1548 67.1566 40.7701 67.0949C40.3853 67.0295 40.0188 66.8807 39.6958 66.663C39.3728 66.4452 39.1006 66.1549 38.901 65.821C38.7013 65.4871 38.5743 65.1132 38.5308 64.7249C38.4872 64.3365 38.5308 63.9446 38.6542 63.5744L38.6578 63.5671Z" fill="black"/>
<path d="M51.1051 73.3633C51.1849 73.1237 51.2284 72.8733 51.2284 72.6193C51.2284 72.0241 51.0107 71.4505 50.6078 71.0114C50.205 70.5722 49.6533 70.3 49.0581 70.2492C48.4629 70.1984 47.8749 70.3763 47.4031 70.7393C46.9313 71.1058 46.6192 71.6357 46.5212 72.2237C46.4232 72.8116 46.5502 73.4141 46.8769 73.9113C47.2035 74.4085 47.708 74.7642 48.2851 74.9094C48.8621 75.0546 49.4755 74.9747 49.9981 74.688C50.5207 74.4013 50.9163 73.9295 51.1051 73.3633Z" fill="black"/>
<path d="M46.9381 71.9545C46.8691 72.1614 46.8328 72.3755 46.8328 72.5933C46.8328 73.1341 47.0433 73.653 47.4208 74.0378C47.8019 74.4225 48.3172 74.6402 48.858 74.6439C49.2318 74.6439 49.602 74.5459 49.925 74.3499C50.248 74.1539 50.5093 73.8781 50.6836 73.5442C50.8578 73.2103 50.934 72.8365 50.9086 72.459C50.8832 72.0852 50.7525 71.7222 50.5348 71.4174C50.317 71.1125 50.0194 70.873 49.671 70.7242C49.3262 70.5754 48.9451 70.5282 48.5749 70.5826C48.2011 70.6371 47.8527 70.7931 47.566 71.0363C47.2792 71.2758 47.0615 71.5952 46.9417 71.9509L46.9381 71.9545ZM46.3066 71.7404C46.5243 71.0944 46.9744 70.55 47.5732 70.2197C48.172 69.8894 48.8725 69.7987 49.5331 69.962C50.1972 70.1253 50.7707 70.5355 51.1481 71.1053C51.5219 71.6751 51.6707 72.3647 51.5582 73.0397C51.4457 73.7148 51.0864 74.3209 50.5493 74.7382C50.0121 75.1592 49.3334 75.3588 48.6548 75.3008C47.9761 75.2427 47.3409 74.9306 46.88 74.4298C46.4191 73.9253 46.165 73.2684 46.1687 72.586C46.1687 72.2993 46.2158 72.0126 46.3066 71.7404Z" fill="black"/>
<path d="M58.833 73.4212C58.9128 73.1853 58.9563 72.9348 58.96 72.6844C58.9491 72.1291 58.7458 71.5955 58.3865 71.1745C58.0236 70.7535 57.5264 70.4742 56.9784 70.3834C56.4303 70.2927 55.8714 70.3942 55.3887 70.6737C54.9096 70.9531 54.5431 71.3924 54.3507 71.9114C54.2309 72.267 54.1983 72.6481 54.2527 73.0183C54.3072 73.3885 54.4487 73.7442 54.6665 74.0491C54.8842 74.3539 55.171 74.6044 55.5049 74.7786C55.8388 74.9528 56.2089 75.0435 56.5828 75.0471C57.08 75.0471 57.5663 74.8873 57.9692 74.597C58.372 74.3066 58.6733 73.893 58.8293 73.4212H58.833Z" fill="black"/>
<path d="M54.6488 72.0093C54.5799 72.2162 54.5436 72.4303 54.5436 72.6481C54.5363 73.1344 54.7033 73.6099 55.0154 73.9837C55.3275 74.3575 55.7631 74.6079 56.2421 74.6878C56.7212 74.7676 57.2148 74.6769 57.6322 74.4229C58.0496 74.1724 58.3617 73.7804 58.5177 73.3159C58.5867 73.109 58.6194 72.8949 58.623 72.6771C58.6302 72.1908 58.4633 71.7154 58.1512 71.3416C57.839 70.9677 57.4035 70.7173 56.9245 70.6375C56.4454 70.5576 55.9518 70.6483 55.5344 70.9024C55.117 71.1528 54.8049 71.5448 54.6488 72.0093ZM54.021 71.7988C54.2424 71.1564 54.696 70.6193 55.2912 70.2963C55.8901 69.9733 56.5869 69.8862 57.2438 70.0531C57.9007 70.2201 58.4742 70.6302 58.8444 71.2C59.2146 71.7698 59.3561 72.4594 59.24 73.1272C59.1238 73.7986 58.7609 74.3974 58.2238 74.8148C57.6866 75.2286 57.0079 75.4245 56.3329 75.3628C55.6542 75.3011 55.0263 74.989 54.5726 74.4845C54.119 73.98 53.8685 73.3232 53.8758 72.6445C53.8758 72.3578 53.9266 72.071 54.021 71.7988Z" fill="black"/>
<path d="M43.4111 73.3084C43.4909 73.0725 43.5308 72.8221 43.5308 72.5716C43.5199 72.0163 43.3167 71.4828 42.9574 71.0618C42.5945 70.6408 42.0972 70.3614 41.5492 70.2706C41.0012 70.1799 40.4423 70.2815 39.9595 70.561C39.4768 70.8404 39.1139 71.2796 38.9216 71.7986C38.7836 72.216 38.7619 72.6624 38.8598 73.0906C38.9578 73.5189 39.172 73.9109 39.4768 74.2266C39.7599 74.517 40.1156 74.7311 40.5076 74.8472C40.8996 74.9634 41.3133 74.9743 41.7089 74.8835C42.1045 74.7928 42.4747 74.6004 42.7759 74.3282C43.0772 74.056 43.3058 73.7076 43.4328 73.3193L43.4074 73.3084H43.4111Z" fill="black"/>
<path d="M39.2252 71.8971C39.1562 72.1039 39.12 72.3181 39.12 72.5358C39.12 73.0185 39.2869 73.4903 39.599 73.8605C39.9112 74.2307 40.343 74.4775 40.8221 74.5574C41.2976 74.6372 41.7911 74.5465 42.2049 74.2997C42.6223 74.0529 42.9344 73.6645 43.0905 73.2072C43.2102 72.8443 43.2247 72.456 43.134 72.0858C43.0433 71.7156 42.8545 71.3781 42.5823 71.1095C42.3392 70.8627 42.0343 70.6812 41.7004 70.5832C41.3665 70.4852 41.0108 70.478 40.6733 70.5542C40.3321 70.634 40.02 70.7974 39.7624 71.0296C39.5047 71.2619 39.3087 71.5595 39.1998 71.8898L39.2288 71.9007L39.2252 71.8971ZM38.5647 71.6757C38.7824 71.026 39.2325 70.4816 39.8349 70.1513C40.4338 69.8211 41.1379 69.7303 41.802 69.8937C42.4662 70.057 43.0433 70.4671 43.4207 71.0369C43.7982 71.6067 43.9433 72.2999 43.8345 72.975C43.722 73.65 43.3627 74.2597 42.8219 74.6771C42.2811 75.0981 41.6024 75.2978 40.9201 75.2397C40.2378 75.1816 39.6027 74.8695 39.1417 74.365C38.6808 73.8605 38.4267 73.2 38.4304 72.514C38.4304 72.2273 38.4776 71.9406 38.5719 71.6684L38.5647 71.6757Z" fill="black"/>
<path d="M51.0669 81.4855C51.1468 81.2459 51.1903 80.9955 51.1903 80.7415C51.1794 80.1862 50.9762 79.6527 50.6169 79.2317C50.254 78.8107 49.7567 78.5312 49.2087 78.4405C48.6607 78.3497 48.0981 78.4514 47.619 78.7308C47.14 79.0103 46.7734 79.4495 46.5847 79.9721C46.5048 80.2116 46.4613 80.462 46.4577 80.7124C46.4722 81.2641 46.6791 81.7903 47.042 82.2077C47.4049 82.6215 47.8985 82.9009 48.4429 82.9917C48.9873 83.0824 49.5462 82.9808 50.0217 82.7049C50.4971 82.4291 50.8673 81.9972 51.0597 81.4819H51.0669V81.4855Z" fill="black"/>
<path d="M46.8758 80.0732C46.7379 80.4833 46.7307 80.9261 46.8577 81.3399C46.9847 81.7536 47.2424 82.1166 47.5872 82.3743C47.9356 82.6319 48.353 82.7735 48.7885 82.7808C49.224 82.788 49.645 82.6537 49.9971 82.4033C50.3491 82.1529 50.6141 81.7972 50.752 81.3871C50.8899 80.9769 50.8935 80.5342 50.7629 80.1204C50.6322 79.7067 50.3745 79.3474 50.0261 79.0897C49.6777 78.832 49.2567 78.6941 48.8248 78.6905C48.3965 78.6868 47.9755 78.8175 47.6235 79.0643C47.2714 79.3147 47.0101 79.6667 46.8722 80.0732H46.8758ZM46.248 79.8627C46.4657 79.2167 46.9158 78.6723 47.5146 78.3457C48.1135 78.0154 48.8139 77.9247 49.4744 78.088C50.1386 78.2513 50.7121 78.6614 51.0895 79.2312C51.4633 79.8011 51.6121 80.4906 51.4996 81.1657C51.3871 81.8407 51.0278 82.4468 50.4907 82.8642C49.9535 83.2852 49.2748 83.4848 48.5961 83.4267C47.9175 83.3687 47.2823 83.0566 46.8214 82.5557C46.3605 82.0513 46.1064 81.3943 46.1101 80.712C46.1101 80.4253 46.1572 80.1386 46.248 79.8664V79.8627Z" fill="black"/>
<path d="M50.9994 89.6045C51.199 89.0092 51.1555 88.356 50.876 87.7898C50.5966 87.2236 50.103 86.7954 49.5078 86.5921C48.9126 86.3925 48.2593 86.4361 47.6931 86.7155C47.1305 86.995 46.6986 87.4886 46.499 88.0838C46.4192 88.3233 46.3756 88.5737 46.3756 88.8278C46.3865 89.3831 46.5898 89.9166 46.9527 90.3376C47.3156 90.7586 47.8129 91.0381 48.3609 91.1288C48.9089 91.2195 49.4715 91.1179 49.9505 90.8384C50.4296 90.559 50.7962 90.1198 50.9849 89.5972L51.0031 89.6045H50.9994Z" fill="black"/>
<path d="M46.8171 88.1928C46.6429 88.7045 46.6828 89.2671 46.9224 89.7498C47.1619 90.2361 47.5866 90.6026 48.0983 90.7769C48.61 90.9511 49.1726 90.9112 49.6553 90.6716C50.1416 90.4321 50.5082 90.0075 50.6824 89.4957C50.7513 89.2889 50.7876 89.0747 50.7949 88.857C50.8021 88.3706 50.6352 87.8952 50.3231 87.5213C50.011 87.1475 49.5754 86.8971 49.0927 86.8173C48.61 86.7374 48.1164 86.8318 47.6991 87.0822C47.2817 87.3326 46.9696 87.7282 46.8171 88.1891V88.1928ZM46.182 87.9786C46.3889 87.3689 46.8062 86.8535 47.3579 86.5269C47.9096 86.1966 48.5592 86.0733 49.1944 86.1821C49.8295 86.2874 50.4029 86.6176 50.8167 87.1076C51.2304 87.5976 51.4554 88.2218 51.4554 88.8642C51.4554 89.1509 51.4082 89.4376 51.3175 89.7098C51.0889 90.3922 50.5989 90.9511 49.9529 91.2704C49.3069 91.5898 48.5665 91.6406 47.8842 91.4084C47.2019 91.1797 46.6429 90.6898 46.3235 90.0438C46.0042 89.4014 45.9533 88.6573 46.1856 87.975L46.182 87.9786Z" fill="black"/>
<path d="M58.7782 81.5436C58.858 81.3041 58.9016 81.0536 58.9016 80.7996C58.8907 80.2443 58.6874 79.7108 58.3281 79.2898C57.9652 78.8688 57.468 78.5893 56.9236 78.4986C56.3755 78.4078 55.813 78.5095 55.3339 78.7889C54.8548 79.0684 54.4883 79.5075 54.2959 80.0265C54.2161 80.266 54.1725 80.5165 54.1725 80.7705C54.1834 81.3258 54.3867 81.8594 54.746 82.2804C55.1089 82.7014 55.6061 82.9808 56.1505 83.0715C56.6985 83.1623 57.2611 83.0607 57.7402 82.7812C58.2192 82.5017 58.5858 82.0662 58.7745 81.5436H58.7782Z" fill="black"/>
<path d="M54.5982 80.128C54.5293 80.3349 54.493 80.549 54.493 80.7668C54.493 81.2495 54.6599 81.7213 54.9721 82.0915C55.2842 82.4617 55.7161 82.7085 56.1951 82.7919C56.6706 82.8718 57.1642 82.7811 57.5779 82.5343C57.9917 82.2875 58.3074 81.8991 58.4635 81.4418C58.5832 81.0789 58.5978 80.6906 58.507 80.3204C58.4163 79.9502 58.2276 79.6126 57.9554 79.3441C57.5743 78.9593 57.0589 78.7416 56.5182 78.738C56.0899 78.7344 55.6689 78.865 55.3205 79.1154C54.9721 79.3658 54.7107 79.7179 54.5728 80.1244L54.6019 80.1316L54.5982 80.128ZM53.9377 79.9066C54.1555 79.257 54.6055 78.7126 55.208 78.3823C55.8068 78.052 56.5073 77.9613 57.1751 78.1246C57.8392 78.2879 58.4163 78.698 58.7938 79.2679C59.1712 79.8377 59.3164 80.5309 59.2075 81.2059C59.095 81.881 58.7357 82.4907 58.1949 82.9117C57.6541 83.3327 56.9755 83.5323 56.2931 83.4742C55.6108 83.4162 54.9757 83.1041 54.5148 82.5996C54.0538 82.0951 53.7998 81.4346 53.8034 80.7486C53.8034 80.4619 53.8506 80.1752 53.9413 79.903L53.9377 79.9066Z" fill="black"/>
<path d="M43.3507 81.4308C43.4306 81.1913 43.4741 80.9409 43.4777 80.6905C43.4668 80.1352 43.2636 79.6017 42.9043 79.1807C42.5414 78.7597 42.0441 78.4802 41.4997 78.3858C40.9553 78.2915 40.3892 78.3967 39.9101 78.6762C39.431 78.9556 39.0645 79.3948 38.8721 79.9138C38.7923 80.1533 38.7487 80.4037 38.7487 80.6578C38.7596 81.2131 38.9628 81.7466 39.3221 82.1676C39.6851 82.5886 40.1823 82.8681 40.7267 82.9588C41.2747 83.0496 41.8336 82.9479 42.3163 82.6685C42.7954 82.389 43.162 81.9498 43.3543 81.4308H43.3507Z" fill="black"/>
<path d="M39.1638 80.0231C39.0949 80.2263 39.0586 80.4405 39.0586 80.6582C39.0513 81.1445 39.2183 81.62 39.5304 81.9938C39.8425 82.3677 40.278 82.6181 40.7571 82.7015C41.2362 82.7814 41.7298 82.6907 42.1471 82.4402C42.5645 82.1898 42.8766 81.7979 43.0327 81.3333C43.1017 81.1264 43.138 80.9123 43.138 80.6945C43.1452 80.2082 42.9783 79.7327 42.6662 79.3589C42.354 78.9851 41.9185 78.7347 41.4358 78.6549C40.9531 78.575 40.4595 78.6694 40.0421 78.9198C39.6248 79.1738 39.3126 79.5658 39.1602 80.0303L39.1638 80.0231ZM38.536 79.8126C38.7428 79.2029 39.1602 78.6911 39.7119 78.3609C40.2635 78.0306 40.9132 77.9108 41.5483 78.0161C42.1798 78.1213 42.7569 78.4516 43.1706 78.9415C43.5844 79.4351 43.8094 80.0558 43.8058 80.6982C43.8058 81.0901 43.7187 81.4784 43.5517 81.8341C43.3848 82.1898 43.1416 82.5056 42.844 82.7596C42.5428 83.0137 42.1907 83.1988 41.8133 83.3004C41.4358 83.402 41.0366 83.4238 40.6482 83.3585C40.2599 83.2931 39.8933 83.1443 39.5667 82.9229C39.2437 82.7015 38.9715 82.4112 38.7682 82.0737C38.5686 81.7361 38.4416 81.3587 38.4017 80.9667C38.3618 80.5748 38.4053 80.1792 38.5323 79.809L38.536 79.8126Z" fill="black"/>
<path d="M30.931 51.2749L62.9708 51.5072C64.0342 51.5145 64.8907 52.3819 64.8834 53.4453L64.858 56.806C64.8508 57.8694 63.9834 58.726 62.92 58.7187L30.8801 58.4864C29.8167 58.4792 28.9602 57.6118 28.9675 56.5484L28.9929 53.1876C29.0001 52.1242 29.8676 51.2677 30.931 51.2749Z" fill="black"/>
<path d="M32.9541 54.8897L64.9939 55.1219C66.0573 55.1292 66.9139 55.9966 66.903 57.06L66.8776 60.4208C66.8703 61.4842 66.0029 62.3407 64.9395 62.3334L32.8997 62.1012C31.8363 62.0939 30.9798 61.2265 30.987 60.1631L31.0124 56.8023C31.0197 55.7389 31.8871 54.8824 32.9505 54.8897H32.9541Z" fill="black"/>
<path d="M30.8779 58.9332L62.9178 59.1655C63.9812 59.1727 64.8377 60.0401 64.8268 61.1035L64.8014 64.4643C64.7941 65.5277 63.9267 66.3841 62.8633 66.3769L30.8235 66.1446C29.7601 66.1374 28.9036 65.2699 28.9108 64.2066L28.9363 60.8459C28.9435 59.7825 29.8109 58.926 30.8743 58.9332H30.8779Z" fill="black"/>
<path d="M64.9169 100.053C65.0984 99.5159 65.1928 98.9534 65.2 98.3835L65.5666 47.1518C65.5775 45.7363 65.0222 44.3753 64.0278 43.3664C63.0333 42.3574 61.6796 41.7876 60.2641 41.7767L35.7262 41.5843C35.0257 41.5771 34.3289 41.7114 33.6792 41.9727C33.0296 42.234 32.438 42.626 31.9371 43.1159C31.4363 43.6095 31.0407 44.1938 30.7685 44.8399C30.4963 45.4859 30.3547 46.1791 30.3511 46.8796L29.9773 98.1331C29.97 99.5485 30.5253 100.91 31.5197 101.915C32.5142 102.924 33.8643 103.497 35.2797 103.508L59.8286 103.686C60.9501 103.693 62.0498 103.345 62.9607 102.692C63.8753 102.038 64.5576 101.113 64.9169 100.049V100.053Z" fill="#01090F" stroke="black" stroke-width="0.75"/>
<path d="M63.1763 98.355C63.3505 97.8396 63.4413 97.2989 63.4485 96.7545L63.7861 48.8581C63.7933 48.1867 63.6663 47.5188 63.4122 46.8946C63.1582 46.2703 62.788 45.7042 62.3162 45.2251C61.8444 44.746 61.2818 44.3649 60.6612 44.1036C60.0406 43.8423 59.3764 43.708 58.705 43.7044L37.2556 43.552C36.1777 43.5411 35.1252 43.875 34.2505 44.4992C33.3722 45.1235 32.7153 46.0127 32.3741 47.0325C32.1999 47.5479 32.1092 48.085 32.1055 48.6258L31.7644 96.5259C31.7571 97.8832 32.287 99.1862 33.2415 100.152C34.1924 101.117 35.4917 101.665 36.8455 101.676L58.2949 101.829C59.3728 101.839 60.4253 101.506 61.3036 100.881C62.1819 100.257 62.8388 99.3676 63.18 98.3478L63.1763 98.355Z" fill="#E9F1FF" stroke="black" stroke-width="0.75"/>
<path d="M39.0223 43.1021V43.5522C39.0151 44.0857 39.2219 44.6011 39.5958 44.9785C39.9696 45.3596 40.4813 45.5773 41.0148 45.581L54.9733 45.679C55.5068 45.679 56.0185 45.4757 56.3996 45.0983C56.7807 44.7244 56.9948 44.2126 57.0021 43.6791V43.2219" fill="#01090F"/>
<path d="M39.0223 43.1021V43.5522C39.0151 44.0857 39.2219 44.6011 39.5958 44.9785C39.9696 45.3596 40.4813 45.5773 41.0148 45.581L54.9733 45.679C55.5068 45.679 56.0185 45.4757 56.3996 45.0983C56.7807 44.7244 56.9948 44.2126 57.0021 43.6791V43.2219" stroke="black" stroke-width="0.75" stroke-miterlimit="10" stroke-linecap="round"/>
<path d="M47.2022 43.5049L50.915 43.5303C51.0348 43.5303 51.1328 43.6282 51.1328 43.7516V44.1218C51.1328 44.2416 51.0312 44.3396 50.9078 44.3396L47.195 44.3142C47.0752 44.3142 46.9772 44.2162 46.9772 44.0928V43.7226C46.9772 43.6028 47.0788 43.5049 47.2022 43.5049Z" fill="black"/>
<path d="M45.6616 43.4971H45.6688C45.8612 43.4971 46.0136 43.6532 46.0136 43.8456V43.9617C46.0136 44.1541 45.8539 44.3065 45.6652 44.3065H45.6579C45.4656 44.3065 45.3131 44.1504 45.3131 43.9581V43.8419C45.3131 43.6496 45.4692 43.4971 45.6616 43.4971Z" fill="black"/>
<path d="M49.4709 68.3616L49.5761 68.0822C49.587 68.0023 49.5942 67.9188 49.5942 67.839C49.5942 67.3636 49.4092 66.9063 49.0789 66.5651C48.8648 66.3437 48.5998 66.184 48.3058 66.0969C48.0119 66.0098 47.6997 65.9989 47.4021 66.0679C47.1045 66.1368 46.8251 66.282 46.6 66.4853C46.3714 66.6921 46.2044 66.9534 46.1065 67.2438C46.0484 67.4216 46.0157 67.6104 46.0085 67.7991C46.023 68.2092 46.179 68.6012 46.4512 68.9097C46.7234 69.2218 47.0973 69.4323 47.5074 69.4976C47.9175 69.5666 48.3385 69.4903 48.6978 69.2835C49.0571 69.0766 49.3329 68.75 49.4817 68.3616H49.4709Z" fill="white" stroke="black" stroke-width="0.75"/>
<path d="M57.2719 68.242C57.3518 67.8501 57.301 67.4436 57.1231 67.0806C56.9126 66.656 56.5424 66.333 56.0924 66.1806C55.6424 66.0281 55.1524 66.0608 54.7278 66.2713C54.3031 66.4818 53.9801 66.852 53.8277 67.302C53.7696 67.4799 53.737 67.665 53.737 67.8537C53.7442 68.2711 53.9003 68.6703 54.1689 68.986C54.4411 69.3018 54.8185 69.5123 55.2286 69.5813C55.6424 69.6502 56.0634 69.574 56.4263 69.3599C56.7856 69.1494 57.0614 68.8191 57.2066 68.4271L57.2756 68.2384L57.2719 68.242Z" fill="white" stroke="black" stroke-width="0.75"/>
<path d="M39.1962 66.2788C38.8369 66.4893 38.561 66.8159 38.4195 67.2043C38.3614 67.3785 38.3324 67.5636 38.3288 67.7487C38.336 68.1661 38.4885 68.5653 38.7607 68.881C39.0329 69.1968 39.4067 69.4073 39.8204 69.4763C40.2342 69.5452 40.6552 69.469 41.0181 69.2549C41.3484 69.0625 41.6061 68.7685 41.7585 68.4201L41.7875 68.333C41.8456 68.1552 41.8783 67.9701 41.8855 67.7813C41.8746 67.3676 41.7222 66.9684 41.4536 66.6562C41.1814 66.3405 40.8076 66.13 40.3939 66.0574C39.9837 65.9884 39.5591 66.0647 39.1998 66.2752L39.1962 66.2788Z" fill="white" stroke="black" stroke-width="0.75"/>
<path d="M49.5179 75.9507C49.5179 75.5007 49.3509 75.0688 49.0497 74.7385C48.7484 74.4082 48.3311 74.205 47.8847 74.1651C47.4383 74.1288 46.9955 74.2594 46.6398 74.5353C46.2877 74.8111 46.0482 75.2103 45.9756 75.6495C45.9031 76.0923 45.9974 76.5459 46.2442 76.9198C46.491 77.2936 46.8684 77.5621 47.304 77.671C47.7395 77.7799 48.1968 77.7182 48.5924 77.5041C48.9843 77.2899 49.282 76.9343 49.4235 76.5096L49.9788 76.6947L49.4235 76.506C49.4852 76.3282 49.5142 76.1394 49.5142 75.9507H49.5179Z" fill="white" stroke="black" stroke-width="0.75"/>
<path d="M54.5575 74.5097C54.1982 74.7202 53.9224 75.0469 53.7808 75.4352C53.7228 75.6094 53.6937 75.7945 53.6901 75.9796C53.6974 76.397 53.8498 76.7962 54.122 77.112C54.3942 77.4277 54.7716 77.6382 55.1818 77.7072C55.5955 77.7761 56.0165 77.6999 56.3794 77.4858C56.7387 77.2753 57.0109 76.9487 57.1561 76.5567C57.2142 76.3825 57.2432 76.201 57.2432 76.0196C57.236 75.6022 57.0835 75.203 56.8113 74.8872C56.5391 74.5715 56.1653 74.3609 55.7516 74.2884C55.3378 74.2194 54.9168 74.2956 54.5539 74.5061L54.5575 74.5097Z" fill="white" stroke="black" stroke-width="0.75"/>
<path d="M40.9539 77.3699C41.3132 77.1594 41.5891 76.8327 41.7306 76.4444C41.7887 76.2702 41.8177 76.0851 41.8213 75.9C41.8141 75.4862 41.6616 75.0834 41.3894 74.7713C41.1172 74.4555 40.7434 74.245 40.3297 74.1761C39.9196 74.1071 39.4949 74.1833 39.1356 74.3938C38.7763 74.6043 38.5005 74.931 38.359 75.3193C38.3009 75.4935 38.2719 75.6786 38.2682 75.8637C38.2755 76.2774 38.4279 76.6803 38.7001 76.9924C38.9723 77.3082 39.3461 77.5187 39.7599 77.5876C40.17 77.6566 40.5946 77.5804 40.9539 77.3699Z" fill="white" stroke="black" stroke-width="0.75"/>
<path d="M49.4628 84.3165C49.4737 84.2367 49.481 84.1532 49.481 84.0734C49.481 83.5979 49.2959 83.1406 48.9656 82.7995C48.7515 82.5781 48.4865 82.4184 48.1926 82.3313C47.8986 82.2442 47.5865 82.2333 47.2889 82.3022C46.9912 82.3712 46.7118 82.5164 46.4868 82.7196C46.2617 82.9229 46.0875 83.1878 45.9932 83.4781C45.9351 83.656 45.8988 83.8447 45.8952 84.0298C45.9097 84.4399 46.0658 84.8319 46.3343 85.1404C46.6065 85.4525 46.9803 85.663 47.3905 85.732C47.8006 85.801 48.2216 85.7247 48.5809 85.5178C48.9402 85.311 49.216 84.9844 49.3648 84.596L49.4701 84.3165H49.4628Z" fill="white" stroke="black" stroke-width="0.75"/>
<path d="M48.669 93.6333C48.9738 93.4156 49.2061 93.1071 49.3259 92.7514C49.4783 92.3014 49.4456 91.8114 49.2351 91.3868C49.0246 90.9622 48.6544 90.6392 48.2044 90.4867C47.7543 90.3343 47.2644 90.367 46.8398 90.5775C46.4151 90.788 46.0921 91.1581 45.9397 91.6082C45.8489 91.8767 45.8235 92.1599 45.8671 92.4429C45.907 92.7224 46.0159 92.9873 46.1792 93.2196C46.3426 93.4483 46.5603 93.637 46.8107 93.7676C47.0612 93.8983 47.3406 93.9672 47.6237 93.9672C48.0012 93.9672 48.3677 93.8547 48.6726 93.637L48.669 93.6333Z" fill="white" stroke="black" stroke-width="0.75"/>
<path d="M57.0878 84.6575L57.1531 84.476C57.1966 84.2692 57.2039 84.055 57.1712 83.8445C57.1313 83.5651 57.0224 83.3001 56.8591 83.0678C56.6958 82.8356 56.478 82.6505 56.2276 82.5162C55.9772 82.3819 55.6977 82.3166 55.4182 82.313C55.0444 82.313 54.6742 82.4255 54.3694 82.6432C54.0645 82.861 53.8322 83.1695 53.7125 83.5288C53.6544 83.7066 53.6217 83.8917 53.6217 84.0804C53.629 84.4942 53.7814 84.897 54.0536 85.2092C54.3258 85.5249 54.6996 85.7354 55.1134 85.8044C55.5235 85.8733 55.9481 85.7971 56.3074 85.5866C56.6667 85.3761 56.9462 85.0458 57.0878 84.6539V84.6575Z" fill="white" stroke="black" stroke-width="0.75"/>
<path d="M39.0754 82.5198C38.7161 82.7303 38.4402 83.0569 38.2987 83.4489C38.2406 83.6231 38.2116 83.8046 38.2116 83.986C38.2188 84.3998 38.3713 84.8026 38.6435 85.1184C38.9157 85.4342 39.2895 85.6447 39.7032 85.7136C40.1134 85.7826 40.538 85.7064 40.9009 85.4959C41.2312 85.3035 41.4925 85.0095 41.6413 84.6611L41.6704 84.5776C41.7321 84.3998 41.7647 84.2111 41.7683 84.0223C41.7574 83.6086 41.605 83.2094 41.3364 82.8972C41.0642 82.5815 40.6868 82.371 40.2767 82.302C39.8629 82.2331 39.4419 82.3093 39.079 82.5198H39.0754Z" fill="white" stroke="black" stroke-width="0.75"/>
<path d="M3.95178 107.424C3.95178 107.322 4.04978 107.25 4.14777 107.282L5.30917 107.696C5.40353 107.729 5.43619 107.849 5.37449 107.925L4.24577 109.337C4.15867 109.446 3.98808 109.384 3.98445 109.246L3.95178 107.42V107.424Z" fill="black"/>
<path d="M25.8305 32.2489C25.9865 31.7916 26.3168 31.4142 26.7487 31.2001C27.1842 30.9859 27.6851 30.9496 28.1424 31.1057L32.9621 32.7244C33.4194 32.8768 33.8005 33.2071 34.0146 33.639C34.2324 34.0709 34.2651 34.5717 34.1163 35.0326L34.0836 35.1342L25.8014 32.3542L25.8341 32.2525L25.8305 32.2489Z" fill="black"/>
<path d="M28.5358 31.1344C28.7644 30.6517 29.16 30.2706 29.65 30.0637C30.14 29.8532 30.688 29.8314 31.1961 30.002C31.7006 30.1726 32.1252 30.521 32.3902 30.9819C32.6551 31.4429 32.7422 31.9873 32.6333 32.5099L28.5394 31.1344H28.5358Z" fill="black"/>
<path d="M32.3287 32.0563L29.0442 30.953C29.2329 30.7062 29.4833 30.5102 29.7664 30.3868C30.0531 30.2634 30.3652 30.2126 30.6737 30.2417C30.9822 30.2707 31.2798 30.3796 31.5375 30.5538C31.7952 30.728 32.0021 30.9675 32.14 31.247C32.267 31.4974 32.3323 31.7732 32.3287 32.0527V32.0563ZM32.884 32.8729C33.0945 32.2414 33.0473 31.5482 32.7497 30.953C32.4521 30.3542 31.9295 29.9005 31.298 29.69C30.6665 29.4795 29.9769 29.5267 29.3781 29.8243C28.7829 30.1219 28.3256 30.6409 28.1114 31.2724L28.0788 31.374L32.8513 32.9745L32.884 32.8729Z" fill="black"/>
<path d="M25.3161 51.8187L22.7175 50.9477C22.4235 50.8497 22.1041 51.0057 22.0061 51.2997L6.0588 98.8114C5.96081 99.1054 6.12049 99.4248 6.41084 99.5228L9.00943 100.394C9.30341 100.492 9.6228 100.336 9.72079 100.042L25.6681 52.5301C25.7661 52.2361 25.6101 51.9167 25.3161 51.8187Z" fill="black"/>
<path d="M9.39481 99.9293C9.37667 99.9837 9.33675 100.027 9.28594 100.053C9.23513 100.078 9.17705 100.082 9.12261 100.064L6.52401 99.1925C6.46957 99.1744 6.42601 99.1344 6.40061 99.0836C6.3752 99.0328 6.37158 98.9748 6.38973 98.9203L22.3371 51.4086C22.3552 51.3542 22.3952 51.3106 22.446 51.2852C22.4968 51.2598 22.5548 51.2562 22.6093 51.2743L25.2079 52.1454C25.2623 52.1635 25.3059 52.2034 25.3313 52.2542C25.3567 52.3051 25.3603 52.3631 25.3422 52.4176L9.39481 99.9293ZM25.9991 52.639C26.0753 52.4103 26.0572 52.1599 25.9519 51.9458C25.843 51.7316 25.6579 51.5647 25.4293 51.4885L22.8307 50.6174C22.602 50.5412 22.3516 50.5594 22.1375 50.6646C21.9197 50.7735 21.7564 50.9586 21.6802 51.1872L5.73282 98.6989C5.6566 98.9276 5.67475 99.178 5.78 99.3921C5.88525 99.6063 6.07761 99.7732 6.30263 99.8494L8.90123 100.721C9.12988 100.797 9.37668 100.779 9.59444 100.673C9.80857 100.565 9.97553 100.379 10.0517 100.151L25.9991 52.639Z" fill="black"/>
<path d="M24.4404 47.0128C24.4803 46.8894 24.5456 46.7769 24.6291 46.6752C24.7126 46.5772 24.8178 46.4974 24.934 46.4393C25.0501 46.3813 25.1771 46.345 25.3078 46.3377C25.4384 46.3304 25.5691 46.345 25.6889 46.3849C25.874 46.4466 26.0409 46.5627 26.1607 46.7152C26.2804 46.8712 26.353 47.0563 26.3675 47.2523C26.3821 47.4483 26.3385 47.6443 26.2405 47.8148C26.1425 47.9854 25.9974 48.1234 25.8231 48.2105C25.6489 48.2976 25.4493 48.3339 25.2533 48.3084C25.0574 48.283 24.8759 48.2032 24.7271 48.0725C24.5783 47.9455 24.473 47.7749 24.4222 47.5862C24.3714 47.3975 24.375 47.1979 24.4404 47.0091V47.0128Z" fill="black"/>
<path d="M25.9863 47.5323C25.9609 47.6121 25.9174 47.6847 25.8629 47.75C25.8085 47.8154 25.7395 47.8662 25.6669 47.9025C25.5109 47.975 25.3331 47.9859 25.1734 47.9315C25.0536 47.8916 24.9447 47.8154 24.8685 47.7137C24.7923 47.6121 24.7451 47.4887 24.7342 47.3617C24.7269 47.2347 24.756 47.1076 24.8177 46.9951C24.883 46.8862 24.9774 46.7955 25.0899 46.7375C25.206 46.6794 25.333 46.6612 25.4601 46.6757C25.5871 46.6939 25.7069 46.7483 25.8012 46.8318C25.8956 46.9153 25.9645 47.0278 25.9972 47.1512C26.0299 47.2746 26.0262 47.4052 25.9827 47.525L25.9863 47.5323ZM26.6432 47.7537C26.7013 47.5867 26.7231 47.4125 26.7122 47.2347C26.7013 47.0605 26.6541 46.8863 26.5743 46.7302C26.4944 46.5741 26.3856 46.4326 26.2549 46.3164C26.1242 46.2003 25.9682 46.1132 25.8012 46.0588C25.5508 45.9753 25.2786 45.968 25.0245 46.037C24.7705 46.106 24.5418 46.2511 24.3676 46.4507C24.1934 46.6503 24.0845 46.8971 24.0483 47.1584C24.0156 47.4198 24.0592 47.6883 24.1789 47.9242C24.2987 48.1601 24.4838 48.3561 24.7124 48.4904C24.9411 48.6211 25.206 48.6828 25.4673 48.6646C25.7323 48.6465 25.9827 48.5521 26.1932 48.3888C26.4037 48.2255 26.5598 48.0077 26.6432 47.7573V47.7537Z" fill="black"/>
<path d="M26.5513 41.6345C26.7836 41.5183 27.0558 41.5002 27.3026 41.58C27.4877 41.6417 27.6547 41.7578 27.7744 41.9103C27.8942 42.0663 27.9668 42.2514 27.9813 42.4474C27.9958 42.6434 27.9523 42.8394 27.8543 43.01C27.7563 43.1805 27.6111 43.3185 27.4333 43.4056C27.2591 43.4927 27.0594 43.5253 26.8635 43.4999C26.6675 43.4745 26.486 43.3911 26.3372 43.264C26.1884 43.1334 26.0832 42.9628 26.0323 42.7741C25.9815 42.5853 25.9888 42.3821 26.0505 42.197C26.134 41.9502 26.3118 41.747 26.5477 41.6308L26.5513 41.6345Z" fill="black"/>
<path d="M27.6013 42.7196C27.5759 42.7995 27.5323 42.8757 27.4742 42.9374C27.4198 43.0027 27.3509 43.0535 27.2746 43.0898C27.1984 43.1261 27.115 43.1515 27.0315 43.1552C26.948 43.1624 26.8609 43.1515 26.7811 43.1225C26.6613 43.0826 26.5524 43.0064 26.4762 42.9047C26.4 42.8031 26.3528 42.6833 26.3419 42.5563C26.3346 42.4293 26.3637 42.3023 26.4254 42.1898C26.4871 42.0809 26.5851 41.9902 26.6976 41.9321C26.8101 41.874 26.9407 41.8522 27.0678 41.8704C27.1948 41.8849 27.3146 41.9393 27.4089 42.0228C27.5033 42.1063 27.5759 42.2152 27.6085 42.3386C27.6412 42.462 27.6376 42.5926 27.5977 42.7124L27.6013 42.7196ZM28.2582 42.941C28.3126 42.7741 28.338 42.5999 28.3235 42.4257C28.3126 42.2515 28.2655 42.0809 28.1856 41.9248C28.1058 41.7688 27.9969 41.6272 27.8662 41.5147C27.7319 41.3986 27.5795 41.3115 27.4126 41.257C27.1621 41.1735 26.8899 41.1663 26.6359 41.2352C26.3782 41.3042 26.1495 41.4494 25.9753 41.649C25.8011 41.8486 25.6922 42.0954 25.6596 42.3603C25.6269 42.6217 25.6705 42.8902 25.7903 43.1261C25.91 43.362 26.0951 43.558 26.3238 43.6887C26.5524 43.8193 26.8174 43.881 27.0823 43.8593C27.3472 43.8411 27.5977 43.7431 27.8082 43.5798C28.0187 43.4165 28.1747 43.1951 28.2546 42.9447L28.2582 42.941Z" fill="black"/>
<path d="M27.7102 37.272C27.7501 37.1486 27.8154 37.0361 27.8989 36.9345C27.9824 36.8365 28.0876 36.7566 28.2038 36.6985C28.3199 36.6405 28.4469 36.6042 28.5776 36.5969C28.7082 36.586 28.8389 36.6042 28.9623 36.6441C29.1474 36.7058 29.3143 36.8219 29.4341 36.9744C29.5539 37.1304 29.6265 37.3155 29.641 37.5115C29.6555 37.7075 29.6119 37.9035 29.5139 38.0741C29.416 38.2447 29.2708 38.3826 29.0966 38.4697C28.9224 38.5568 28.7228 38.5931 28.5268 38.5677C28.3308 38.5423 28.1493 38.4624 28.0005 38.3317C27.8517 38.2047 27.7465 38.0341 27.6957 37.8454C27.6449 37.6567 27.6485 37.4571 27.7138 37.2683L27.7102 37.272Z" fill="black"/>
<path d="M28.9294 38.1576C28.7769 38.2338 28.5991 38.2447 28.4394 38.1903C28.3196 38.1503 28.2108 38.0741 28.1345 37.9725C28.0583 37.8709 28.0111 37.7475 28.0003 37.6205C27.993 37.4934 28.022 37.3664 28.0874 37.2539C28.1527 37.1414 28.247 37.0543 28.3596 36.9962C28.4721 36.9381 28.6027 36.92 28.7298 36.9345C28.8568 36.9527 28.9765 37.0071 29.0709 37.0906C29.1653 37.1741 29.2342 37.2866 29.2669 37.41C29.2996 37.5334 29.2959 37.664 29.2524 37.7838C29.1979 37.9435 29.0782 38.0778 28.9257 38.1503L28.9294 38.1576ZM29.9383 37.2321C29.8694 36.9781 29.7278 36.7458 29.5282 36.5716C29.3286 36.3974 29.0818 36.2849 28.8205 36.2522C28.5592 36.2195 28.2906 36.2631 28.0547 36.3792C27.8188 36.4954 27.6192 36.6805 27.4885 36.9127C27.3579 37.1414 27.2962 37.4063 27.3143 37.6713C27.3324 37.9362 27.4268 38.1903 27.5901 38.3971C27.7535 38.6076 27.9712 38.7637 28.2253 38.8472C28.3922 38.9053 28.5664 38.9271 28.7406 38.9162C28.9149 38.9053 29.0854 38.8581 29.2451 38.7818C29.4012 38.7056 29.5427 38.5967 29.6589 38.4625C29.775 38.3318 29.8621 38.1757 29.9166 38.0088C30.0037 37.7584 30.0109 37.4862 29.942 37.2321H29.9383Z" fill="black"/>
<path d="M4.46919 97.8133L10.6972 99.9038L5.92453 107.649C5.8955 107.7 5.85557 107.689 5.85557 107.689L3.64895 106.948C3.64895 106.948 3.62717 106.93 3.61991 106.916C3.61265 106.901 3.61265 106.887 3.61628 106.872L4.4728 97.8096L4.46919 97.8133Z" fill="white" stroke="black" stroke-width="0.75"/>
<path d="M27.0642 27.0518L4.14124 95.3487L12.4198 98.1252L35.3427 29.8319L27.0642 27.0554V27.0518Z" fill="#FBE62E" stroke="black" stroke-width="0.75"/>
<path d="M4.12806 95.3853L12.4175 98.1654L11.9239 99.6389C11.8549 99.8385 11.7098 100.005 11.5211 100.1C11.3323 100.194 11.1109 100.209 10.9113 100.143L4.13894 97.8714C3.93932 97.8025 3.77237 97.6573 3.678 97.4686C3.58364 97.2798 3.56912 97.0584 3.63445 96.8588L4.12806 95.3853Z" fill="white" stroke="black" stroke-width="0.75"/>
<path d="M27.1385 26.8303C27.2946 26.3693 27.6248 25.9919 28.0567 25.7741C28.4922 25.56 28.9931 25.5237 29.4504 25.6761L34.2665 27.2948C34.7238 27.4509 35.1013 27.7812 35.319 28.213C35.5332 28.6449 35.5658 29.1458 35.4134 29.6067L35.3807 29.7047L27.1022 26.9283L27.1349 26.8303H27.1385Z" fill="white" stroke="black" stroke-width="0.75"/>
<path d="M29.8405 25.7197C30.0691 25.237 30.4647 24.8559 30.9547 24.6491C31.4447 24.4386 31.9927 24.4168 32.4972 24.5874C33.0016 24.758 33.4263 25.1064 33.6912 25.5673C33.9562 26.0282 34.0433 26.5726 33.9344 27.0953L29.8405 25.7197Z" fill="black" stroke="black" stroke-width="0.75"/>
<path d="M26.7352 46.0619L24.1438 45.1908C23.6684 45.0312 23.153 45.2888 22.9933 45.7643L7.04598 93.276C6.88629 93.7514 7.14398 94.2668 7.61942 94.4265L10.2144 95.2975C10.6899 95.4572 11.2053 95.1995 11.3649 94.7241L27.3123 47.2124C27.472 46.737 27.2143 46.2216 26.7388 46.0619H26.7352Z" fill="#E0E0E0" stroke="black" stroke-width="0.75" stroke-linejoin="round"/>
<path d="M25.7519 41.5909C25.7845 41.4566 25.8462 41.3332 25.9297 41.2244C26.0132 41.1155 26.1184 41.0284 26.2382 40.9594C26.358 40.8941 26.4923 40.8542 26.6265 40.8433C26.7608 40.8324 26.8987 40.8469 27.0294 40.8904C27.1601 40.934 27.2798 41.0029 27.3778 41.0937C27.4794 41.1844 27.5593 41.2969 27.6173 41.4203C27.6754 41.5437 27.7044 41.678 27.7044 41.8159C27.7044 41.9539 27.6791 42.0881 27.6246 42.2152C27.5266 42.4438 27.3451 42.6289 27.1201 42.7305C26.8915 42.8321 26.6338 42.8467 26.3979 42.7668C26.162 42.687 25.9624 42.52 25.8426 42.3023C25.7228 42.0845 25.6902 41.8268 25.7519 41.5837V41.5909Z" fill="white" stroke="black" stroke-width="0.75"/>
<path d="M27.3663 36.7782C27.4498 36.5314 27.6276 36.3246 27.8599 36.2084C28.0922 36.0923 28.3644 36.0741 28.6112 36.1576C28.7963 36.2193 28.9632 36.3355 29.083 36.4879C29.2028 36.6439 29.2753 36.829 29.2899 37.025C29.3044 37.221 29.2608 37.417 29.1628 37.5876C29.0648 37.7581 28.9197 37.8961 28.7455 37.9832C28.5676 38.0703 28.3716 38.1029 28.1756 38.0775C27.9797 38.0521 27.7982 37.9687 27.6494 37.8416C27.5006 37.7146 27.3953 37.5404 27.3445 37.3516C27.2937 37.1629 27.301 36.9597 27.3663 36.7746V36.7782Z" fill="white" stroke="black" stroke-width="0.75"/>
<path d="M29.6418 33.0943C30.1572 33.2685 30.7161 32.9891 30.8903 32.4737C31.0646 31.9583 30.7851 31.3994 30.2697 31.2252C29.7544 31.051 29.1954 31.3305 29.0212 31.8458C28.847 32.3612 29.1265 32.9201 29.6418 33.0943Z" fill="white" stroke="black" stroke-width="0.75"/>
</svg>
