<svg width="114" height="112" viewBox="0 0 114 112" fill="none" xmlns="http://www.w3.org/2000/svg">
<path fill-rule="evenodd" clip-rule="evenodd" d="M47.6892 22.6914H34.5703V53.9291H47.6892V22.6914ZM46.7718 23.6088V53.0118H35.4877V23.6088H46.7718Z" fill="#9EFF00" stroke="black" stroke-width="0.75" stroke-miterlimit="10"/>
<path d="M33.9863 104.313H27.4863V105.119C27.4863 106.34 28.4774 107.331 29.6983 107.331H31.7743C32.9953 107.331 33.9863 106.34 33.9863 105.119V104.313Z" fill="#F8BC20" stroke="black" stroke-width="0.75" stroke-miterlimit="10"/>
<path d="M25.5548 104.313H19.0547V105.119C19.0547 106.34 20.0458 107.331 21.2667 107.331H23.3428C24.5637 107.331 25.5548 106.34 25.5548 105.119V104.313Z" fill="#F8BC20" stroke="black" stroke-width="0.75" stroke-miterlimit="10"/>
<path d="M59.8771 104.313H53.377V105.119C53.377 106.34 54.3681 107.331 55.589 107.331H57.6651C58.886 107.331 59.8771 106.34 59.8771 105.119V104.313Z" fill="#F8BC20" stroke="black" stroke-width="0.75" stroke-miterlimit="10"/>
<path d="M34.5816 49.5874H20.7289C18.4106 49.5874 16.5273 51.4707 16.5273 53.789V101.17C16.5273 103.488 18.4106 105.372 20.7289 105.372H34.5816V49.5874Z" fill="#31DD9C" stroke="black" stroke-width="0.75" stroke-miterlimit="10"/>
<path d="M51.2267 104.314H44.7266V105.12C44.7266 106.341 45.7177 107.332 46.9386 107.332H49.0147C50.2356 107.332 51.2267 106.341 51.2267 105.12V104.314Z" fill="#F8BC20" stroke="black" stroke-width="0.75" stroke-miterlimit="10"/>
<path d="M30.2094 49.5874H57.4676C59.788 49.5874 61.6691 51.4685 61.6691 53.789V101.17C61.6691 103.491 59.788 105.372 57.4676 105.372H30.2094C27.8889 105.372 26.0078 103.491 26.0078 101.17V53.789C26.0078 51.4685 27.8889 49.5874 30.2094 49.5874Z" fill="#FD9EC0" stroke="black" stroke-width="0.75" stroke-miterlimit="10"/>
<path d="M56.6258 109.722C55.4355 109.722 54.4707 108.757 54.4707 107.567C54.4707 106.377 55.4355 105.412 56.6258 105.412C57.8161 105.412 58.7809 106.377 58.7809 107.567C58.7809 108.757 57.8161 109.722 56.6258 109.722Z" fill="black" stroke="black" stroke-width="0.75" stroke-miterlimit="10"/>
<path d="M47.9775 109.722C46.7872 109.722 45.8223 108.757 45.8223 107.567C45.8223 106.377 46.7872 105.412 47.9775 105.412C49.1677 105.412 50.1326 106.377 50.1326 107.567C50.1326 108.757 49.1677 109.722 47.9775 109.722Z" fill="black" stroke="black" stroke-width="0.75" stroke-miterlimit="10"/>
<path d="M30.7353 109.722C29.545 109.722 28.5801 108.757 28.5801 107.567C28.5801 106.377 29.545 105.412 30.7353 105.412C31.9255 105.412 32.8904 106.377 32.8904 107.567C32.8904 108.757 31.9255 109.722 30.7353 109.722Z" fill="black" stroke="black" stroke-width="0.75" stroke-miterlimit="10"/>
<path d="M22.0867 109.722C20.8965 109.722 19.9316 108.757 19.9316 107.567C19.9316 106.377 20.8965 105.412 22.0867 105.412C23.277 105.412 24.2419 106.377 24.2419 107.567C24.2419 108.757 23.277 109.722 22.0867 109.722Z" fill="black" stroke="black" stroke-width="0.75" stroke-miterlimit="10"/>
<path d="M34.8258 21.3853H47.6628C48.7315 21.3853 49.598 22.2517 49.598 23.3204C49.598 24.3892 48.7315 25.2556 47.6628 25.2556H34.8258C33.757 25.2556 32.8906 24.3892 32.8906 23.3204C32.8906 22.2517 33.757 21.3853 34.8258 21.3853Z" fill="#FD9EC0" stroke="black" stroke-width="0.75" stroke-miterlimit="10"/>
<path d="M56.623 56.582V98.3875" stroke="black" stroke-width="0.75" stroke-miterlimit="10"/>
<path d="M48.3984 56.582V98.3875" stroke="black" stroke-width="0.75" stroke-miterlimit="10"/>
<path d="M40.1777 56.582V98.3875" stroke="black" stroke-width="0.75" stroke-miterlimit="10"/>
<path d="M31.9512 56.582V98.3875" stroke="black" stroke-width="0.75" stroke-miterlimit="10"/>
<path d="M20.9199 56.5815V98.387" stroke="black" stroke-width="0.75" stroke-miterlimit="10"/>
<path d="M107.123 68.1621H56.7495C55.2094 68.1621 53.9609 69.4106 53.9609 70.9507V107.409C53.9609 108.949 55.2094 110.197 56.7495 110.197H107.123C108.664 110.197 109.912 108.949 109.912 107.409V70.9507C109.912 69.4106 108.664 68.1621 107.123 68.1621Z" fill="#F8BC20" stroke="black" stroke-width="0.75" stroke-miterlimit="10"/>
<path d="M102.457 68.1621H52.0835C50.5434 68.1621 49.2949 69.4106 49.2949 70.9507V107.409C49.2949 108.949 50.5434 110.197 52.0835 110.197H102.457C103.998 110.197 105.246 108.949 105.246 107.409V70.9507C105.246 69.4106 103.998 68.1621 102.457 68.1621Z" fill="#31DD9C" stroke="black" stroke-width="0.75" stroke-miterlimit="10"/>
<path d="M53.6152 78.9349L77.253 93.0035L100.922 78.8989" stroke="black" stroke-width="0.75" stroke-linecap="round" stroke-linejoin="round"/>
<path d="M80.9231 87.875H76.6212C76.2393 87.875 75.9297 88.1846 75.9297 88.5665V95.4953C75.9297 95.8772 76.2393 96.1868 76.6212 96.1868H80.9231C81.305 96.1868 81.6146 95.8772 81.6146 95.4953V88.5665C81.6146 88.1846 81.305 87.875 80.9231 87.875Z" fill="#FEAD3B" stroke="black" stroke-width="0.75" stroke-linecap="round" stroke-linejoin="round"/>
<path d="M78.7673 57.1245C78.2195 57.0348 77.6654 56.9884 77.1103 56.9854C74.1461 56.9854 71.3032 58.1629 69.2072 60.2589C67.1111 62.3549 65.9336 65.1978 65.9336 68.1621H69.764C69.764 66.2137 70.538 64.345 71.9157 62.9674C73.2934 61.5897 75.162 60.8157 77.1103 60.8157C77.6684 60.8172 78.2245 60.8835 78.7673 61.0133C80.3855 61.385 81.83 62.2941 82.865 63.5924C83.8999 64.8908 84.4642 66.5017 84.4657 68.1621H88.3005C88.2991 65.4849 87.3356 62.8974 85.5856 60.8713C83.8356 58.8452 81.4158 57.5154 78.7673 57.1245Z" fill="#31DD9C" stroke="black" stroke-width="0.75" stroke-miterlimit="10"/>
<path d="M79.4211 87.875H75.1193C74.7373 87.875 74.4277 88.1846 74.4277 88.5665V95.4953C74.4277 95.8772 74.7373 96.1868 75.1193 96.1868H79.4211C79.803 96.1868 80.1127 95.8772 80.1127 95.4953V88.5665C80.1127 88.1846 79.803 87.875 79.4211 87.875Z" fill="#F5E644" stroke="black" stroke-width="0.75" stroke-linecap="round" stroke-linejoin="round"/>
<path d="M107.123 68.1621H56.7495C55.2094 68.1621 53.9609 69.4106 53.9609 70.9507V107.409C53.9609 108.949 55.2094 110.197 56.7495 110.197H107.123C108.664 110.197 109.912 108.949 109.912 107.409V70.9507C109.912 69.4106 108.664 68.1621 107.123 68.1621Z" fill="#31DD9C" stroke="black" stroke-width="0.75" stroke-miterlimit="10"/>
<path d="M102.457 68.1621H52.0835C50.5434 68.1621 49.2949 69.4106 49.2949 70.9507V107.409C49.2949 108.949 50.5434 110.197 52.0835 110.197H102.457C103.998 110.197 105.246 108.949 105.246 107.409V70.9507C105.246 69.4106 103.998 68.1621 102.457 68.1621Z" fill="#31DD9C" stroke="black" stroke-width="0.75" stroke-miterlimit="10"/>
<path d="M53.6152 78.9349L77.253 93.0035L100.922 78.8989" stroke="black" stroke-width="0.75" stroke-linecap="round" stroke-linejoin="round"/>
<path d="M78.7673 57.1245C78.2195 57.0348 77.6654 56.9884 77.1103 56.9854C74.1461 56.9854 71.3032 58.1629 69.2072 60.2589C67.1111 62.3549 65.9336 65.1978 65.9336 68.1621H69.764C69.764 66.2137 70.538 64.345 71.9157 62.9674C73.2934 61.5897 75.162 60.8157 77.1103 60.8157C77.6684 60.8172 78.2245 60.8835 78.7673 61.0133C80.3855 61.385 81.83 62.2941 82.865 63.5924C83.8999 64.8908 84.4642 66.5017 84.4657 68.1621H88.3005C88.2991 65.4849 87.3356 62.8974 85.5856 60.8713C83.8356 58.8452 81.4158 57.5154 78.7673 57.1245Z" fill="#31DD9C" stroke="black" stroke-width="0.75" stroke-miterlimit="10"/>
<path d="M79.4211 87.875H75.1193C74.7373 87.875 74.4277 88.1846 74.4277 88.5665V95.4953C74.4277 95.8772 74.7373 96.1868 75.1193 96.1868H79.4211C79.803 96.1868 80.1127 95.8772 80.1127 95.4953V88.5665C80.1127 88.1846 79.803 87.875 79.4211 87.875Z" fill="#F5E644" stroke="black" stroke-width="0.75" stroke-linecap="round" stroke-linejoin="round"/>
<path d="M58.364 75.3843H36.3873C35.0203 75.3843 33.9121 76.4891 33.9121 77.852V107.501C33.9121 108.864 35.0203 109.969 36.3873 109.969H58.364C59.7311 109.969 60.8393 108.864 60.8393 107.501V77.852C60.8393 76.4891 59.7311 75.3843 58.364 75.3843Z" fill="#FD9EC0" stroke="#01090F" stroke-width="0.75" stroke-linecap="round" stroke-linejoin="round"/>
<path d="M56.0339 75.3843H34.0573C32.6902 75.3843 31.582 76.4891 31.582 77.852V107.501C31.582 108.864 32.6902 109.969 34.0573 109.969H56.0339C57.401 109.969 58.5092 108.864 58.5092 107.501V77.852C58.5092 76.4891 57.401 75.3843 56.0339 75.3843Z" fill="#E9F1FF" stroke="#01090F" stroke-width="0.75" stroke-linecap="round" stroke-linejoin="round"/>
<path d="M35.1445 105.419V107.951" stroke="#01090F" stroke-width="0.75" stroke-linecap="round" stroke-linejoin="round"/>
<path d="M35.1445 75.3843V101.232V103.1" stroke="#01090F" stroke-width="0.75" stroke-linecap="round" stroke-linejoin="round"/>
<path d="M46.4646 99.4797C50.01 99.4797 52.8842 96.6142 52.8842 93.0795C52.8842 89.5447 50.01 86.6792 46.4646 86.6792C42.9191 86.6792 40.0449 89.5447 40.0449 93.0795C40.0449 96.6142 42.9191 99.4797 46.4646 99.4797Z" stroke="#01090F" stroke-width="0.75" stroke-linecap="round" stroke-linejoin="round"/>
<path d="M40.0371 93.0801H52.8848" stroke="#01090F" stroke-width="0.75" stroke-linecap="round" stroke-linejoin="round"/>
<path d="M46.4648 86.6792V99.4797" stroke="#01090F" stroke-width="0.75" stroke-linecap="round" stroke-linejoin="round"/>
<path d="M46.464 99.4721H46.422L46.1954 99.288C45.2995 98.583 44.5715 97.6886 44.0639 96.6694C43.2324 95.0437 42.9911 93.181 43.3812 91.3981C43.7713 89.6151 44.7687 88.0218 46.2038 86.8891L46.4304 86.7134H46.4724" stroke="#01090F" stroke-width="0.75" stroke-linecap="round" stroke-linejoin="round"/>
<path d="M46.6406 99.4721H46.691C47.6316 98.7717 48.4077 97.8752 48.9651 96.8451C49.8726 95.1662 50.1423 93.2172 49.7245 91.3561C49.3068 89.495 48.2297 87.8465 46.691 86.7134H46.6406" stroke="#01090F" stroke-width="0.75" stroke-linecap="round" stroke-linejoin="round"/>
<path d="M50.7499 88.3032C50.2103 88.7331 49.6074 89.0774 48.9625 89.3239C48.1591 89.632 47.3058 89.7908 46.445 89.7924C44.8904 89.7964 43.3787 89.2842 42.1484 88.3367" stroke="#01090F" stroke-width="0.75" stroke-linecap="round" stroke-linejoin="round"/>
<path d="M42.1348 97.8079C42.7913 97.302 43.533 96.9168 44.325 96.6701C45.0025 96.4511 45.7107 96.3409 46.4229 96.3438C47.2843 96.3481 48.1375 96.5097 48.9404 96.8207C49.5854 97.0672 50.1883 97.4115 50.7279 97.8414" stroke="#01090F" stroke-width="0.75" stroke-linecap="round" stroke-linejoin="round"/>
</svg>
