<svg width="114" height="113" viewBox="0 0 114 113" fill="none" xmlns="http://www.w3.org/2000/svg">
<path d="M99.9868 78.6484H17.5514V31.4626H99.9868V78.6484Z" fill="black" stroke="black" stroke-width="0.75" stroke-linecap="round" stroke-linejoin="round"/>
<path d="M40.7776 53.9208C39.0684 52.0864 39.2577 51.0457 39.336 48.5306C39.4142 46.0155 40.4805 43.6347 42.3003 41.9119C43.2017 41.0597 44.261 40.3948 45.4174 39.9552C46.5739 39.5157 47.8049 39.31 49.0403 39.3501C50.2756 39.3901 51.491 39.6751 52.617 40.1887C53.7431 40.7022 54.7577 41.4343 55.6029 42.3432L55.6831 42.4267L72.6986 59.8688C74.3249 61.9837 71.9389 64.4045 69.8738 63.62C70.6857 65.6594 68.2688 67.6975 66.3696 66.7782C67.0196 69.2045 64.0491 70.9069 62.4093 69.3015C61.655 71.0713 57.3871 70.2127 55.7059 68.8351L41.2198 53.9208H40.7776Z" fill="black" stroke="black" stroke-width="0.75" stroke-linejoin="round"/>
<path d="M74.1938 42.5871C72.4259 40.8122 70.0387 39.8259 67.5574 39.845C65.0761 39.864 62.7038 40.8869 60.9623 42.6887L52.7643 50.7362C52.7643 50.7362 54.1838 53.2466 57.6528 52.6234C59.9841 52.2034 61.7571 50.5695 62.6477 49.5738L71.5733 58.6914L74.2815 56.0686C75.1444 55.1777 75.8267 54.1222 76.2893 52.9624C76.7519 51.8026 76.9859 50.5613 76.9777 49.3094C76.9696 48.0574 76.7195 46.8193 76.2418 45.6659C75.7642 44.5125 75.0682 43.4663 74.1938 42.5871Z" fill="black" stroke="black" stroke-width="0.75" stroke-linejoin="round"/>
<path d="M59.7565 60.0645L66.4964 66.8044" stroke="black" stroke-width="0.75" stroke-linecap="round" stroke-linejoin="round"/>
<path d="M63.2506 57.0688L69.9905 63.8087" stroke="black" stroke-width="0.75" stroke-linecap="round" stroke-linejoin="round"/>
<path d="M49.0133 64.0582C48.708 64.0617 48.4052 64.0029 48.1241 63.8856C47.843 63.7683 47.5896 63.595 47.3799 63.3766C46.9762 62.9565 46.7586 62.3959 46.7749 61.818C46.7913 61.2401 47.0404 60.6923 47.4672 60.295L50.2754 57.6648C50.7024 57.2676 51.2721 57.0535 51.8595 57.0697C52.4469 57.0858 53.0037 57.3308 53.4074 57.7508C53.8111 58.1709 54.0287 58.7315 54.0123 59.3094C53.9959 59.8873 53.7469 60.4351 53.32 60.8324L50.5119 63.4626C50.1068 63.8403 49.5714 64.0531 49.0133 64.0582Z" fill="black" stroke="black" stroke-width="0.75" stroke-linejoin="round"/>
<path d="M52.1878 67.3032C51.892 67.3069 51.5986 67.2457 51.3262 67.1235C51.0539 67.0013 50.8084 66.8208 50.6052 66.5932C50.214 66.1554 50.0032 65.5712 50.0191 64.9689C50.0349 64.3667 50.2762 63.7958 50.6899 63.3817L54.1352 59.9357C54.549 59.5223 55.101 59.2995 55.6699 59.3163C56.2389 59.3331 56.7783 59.5881 57.1696 60.0253C57.5608 60.4631 57.7716 61.0474 57.7558 61.6496C57.7399 62.2518 57.4986 62.8228 57.0849 63.2368L53.6396 66.6828C53.2472 67.0763 52.7285 67.298 52.1878 67.3032Z" fill="black" stroke="black" stroke-width="0.75" stroke-linejoin="round"/>
<path d="M55.4331 70.0492C55.137 70.0529 54.8433 69.9936 54.5706 69.875C54.298 69.7564 54.0524 69.5811 53.8493 69.3602C53.4581 68.9363 53.2473 68.3705 53.2632 67.7874C53.2791 67.2042 53.5203 66.6514 53.9339 66.2505L57.3793 62.9125C57.7929 62.5116 58.345 62.2956 58.914 62.3119C59.4831 62.3281 60.0226 62.5754 60.4137 62.9992C60.8049 63.4233 61.0158 63.9893 60.9999 64.5726C60.984 65.156 60.7427 65.7091 60.3291 66.1102L56.8837 69.4482C56.4913 69.8286 55.9733 70.0433 55.4331 70.0492Z" fill="black" stroke="black" stroke-width="0.75" stroke-linecap="round" stroke-linejoin="round"/>
<path d="M59.0512 72.348C58.7579 72.3638 58.4646 72.3193 58.1898 72.2173C57.915 72.1154 57.6648 71.9582 57.455 71.7558C57.0505 71.3671 56.8194 70.8358 56.8123 70.2787C56.8052 69.7216 57.0228 69.1843 57.4171 68.7848L60.04 66.1369C60.4346 65.7376 60.9736 65.509 61.5386 65.5014C62.1036 65.4938 62.6483 65.7077 63.0529 66.0961C63.4572 66.4849 63.6881 67.0163 63.695 67.5735C63.7018 68.1306 63.484 68.6678 63.0895 69.0671L60.4679 71.715C60.0938 72.0952 59.5875 72.3215 59.0512 72.348Z" fill="black" stroke="black" stroke-width="0.75" stroke-linejoin="round"/>
<path d="M70.239 47.0835C68.6671 48.758 66.2807 49.0896 63.3894 48.5934C63.1912 48.8503 62.7282 49.4707 62.5006 49.7045" fill="black"/>
<path d="M70.239 47.0835C68.6671 48.758 66.2807 49.0896 63.3894 48.5934C63.1912 48.8503 62.7282 49.4707 62.5006 49.7045" stroke="black" stroke-width="0.75" stroke-linejoin="round"/>
<path d="M48.1092 34.3877L34.3686 48.6802L17.6549 31.4589L45.2761 31.4561L48.1092 34.3877Z" fill="black" stroke="black" stroke-width="0.75" stroke-linecap="round" stroke-linejoin="round"/>
<path d="M46.9027 35.3419L34.9622 46.7484C33.99 47.6772 33.9547 49.2183 34.8835 50.1906L38.2083 53.671C39.1371 54.6432 40.6782 54.6785 41.6504 53.7497L53.5909 42.3432C54.5631 41.4144 54.5983 39.8733 53.6696 38.901L50.3448 35.4206C49.416 34.4484 47.8749 34.4131 46.9027 35.3419Z" fill="black" stroke="black" stroke-width="0.75" stroke-linecap="round" stroke-linejoin="round"/>
<path d="M69.9889 34.2464L83.4991 48.3319L99.6943 31.3601L72.7744 31.3574L69.9889 34.2464Z" fill="black" stroke="black" stroke-width="0.75" stroke-linecap="round" stroke-linejoin="round"/>
<path d="M63.965 40.834L77.079 53.3616C77.7272 53.9808 78.7545 53.9573 79.3737 53.3092L83.8197 48.6551C84.4388 48.007 84.4153 46.9796 83.7672 46.3604L70.6532 33.8327C70.005 33.2136 68.9776 33.237 68.3584 33.8852L63.9125 38.5392C63.2933 39.1874 63.3168 40.2148 63.965 40.834Z" fill="black" stroke="black" stroke-width="0.75" stroke-linecap="round" stroke-linejoin="round"/>
<path d="M39.9092 50.9519C41.0118 50.9519 41.9056 50.058 41.9056 48.9554C41.9056 47.8528 41.0118 46.959 39.9092 46.959C38.8066 46.959 37.9127 47.8528 37.9127 48.9554C37.9127 50.058 38.8066 50.9519 39.9092 50.9519Z" fill="black" stroke="black" stroke-width="0.75"/>
<path d="M78.3506 50.4533C79.4532 50.4533 80.347 49.5595 80.347 48.4569C80.347 47.3543 79.4532 46.4604 78.3506 46.4604C77.248 46.4604 76.3541 47.3543 76.3541 48.4569C76.3541 49.5595 77.248 50.4533 78.3506 50.4533Z" fill="black" stroke="black" stroke-width="0.75"/>
<path d="M103.783 87.8237H12.6908C10.1134 87.8237 8.02405 85.7344 8.02405 83.1571V27.0693C8.02405 24.492 10.1134 22.4026 12.6908 22.4026H103.783C106.36 22.4026 108.45 24.492 108.45 27.0693V83.1571C108.45 85.7344 106.36 87.8237 103.783 87.8237Z" fill="#FD9EC0" stroke="black" stroke-width="0.75" stroke-linecap="round" stroke-linejoin="round"/>
<path d="M70.5827 98.2562H44.6217V87.772H70.5827V98.2562Z" fill="#FD9EC0" stroke="black" stroke-width="0.75" stroke-linecap="round" stroke-linejoin="round"/>
<path d="M100.795 87.8237H9.70247C7.12513 87.8237 5.03577 85.7344 5.03577 83.1571V27.0693C5.03577 24.492 7.12513 22.4026 9.70247 22.4026H100.795C103.372 22.4026 105.462 24.492 105.462 27.0693V83.1571C105.462 85.7344 103.372 87.8237 100.795 87.8237Z" fill="#E9F1FF" stroke="black" stroke-width="0.75" stroke-linecap="round" stroke-linejoin="round"/>
<path d="M21.7604 103.748H91.6554V103.029C91.6554 101.763 91.1933 100.549 90.3708 99.654C89.5484 98.759 88.4329 98.2563 87.2698 98.2563H26.1486C25.5727 98.2563 25.0023 98.3797 24.4703 98.6195C23.9382 98.8593 23.4547 99.2108 23.0475 99.654C22.6403 100.097 22.3172 100.623 22.0968 101.202C21.8764 101.781 21.763 102.402 21.763 103.029V103.748H21.7604Z" fill="#E9F1FF" stroke="black" stroke-width="0.75" stroke-linecap="round" stroke-linejoin="round"/>
<path d="M101.105 80.9073H10.3756V28.9744H101.105V80.9073Z" fill="white" stroke="black" stroke-width="0.75" stroke-linecap="round" stroke-linejoin="round"/>
<path d="M42.1334 87.772V98.2563H68.0944V87.772H42.1334Z" fill="#E9F1FF" stroke="black" stroke-width="0.75" stroke-linecap="round" stroke-linejoin="round"/>
<path d="M36.9515 57.5833C34.7985 55.8572 34.8393 54.6937 34.5248 51.9422C34.2103 49.1906 34.9931 46.4283 36.7012 44.2627C37.5475 43.1914 38.5954 42.2989 39.785 41.6364C40.9746 40.9739 42.2826 40.5543 43.6343 40.4016C44.9861 40.2489 46.355 40.366 47.6629 40.7464C48.9709 41.1267 50.1922 41.7628 51.2572 42.6183L51.3579 42.6965L72.661 58.9878C74.7683 61.0326 72.5545 64.0482 70.1808 63.5221C71.3891 65.6141 69.0809 68.2178 66.8664 67.5185C67.96 70.0576 64.9954 72.3837 62.9545 70.896C61.8607 73.1797 59.4246 73.7468 56.3777 71.5462L37.4331 57.513L36.9515 57.5833Z" fill="#FFAE1F" stroke="black" stroke-width="0.75" stroke-linejoin="round"/>
<path d="M73.4665 44.3503C71.9222 42.0662 69.5456 40.5064 66.8593 40.014C64.1731 39.5217 61.3971 40.137 59.1421 41.7247L48.6162 48.7294C48.6162 48.7294 49.6317 51.7367 53.5106 51.7801C56.1176 51.8081 58.6604 50.2047 59.8289 49.3124L69.9852 56.9296L71.8472 58.2838C72.5243 57.6067 72.847 57.1575 73.5869 55.9994C74.3267 54.8413 74.8362 53.5478 75.0862 52.1927C75.3363 50.8376 75.3219 49.4475 75.044 48.1019C74.766 46.7563 74.23 45.4815 73.4665 44.3503Z" fill="#F78400" stroke="black" stroke-width="0.75" stroke-linejoin="round"/>
<path d="M58.5983 61.2573L67.0097 67.5263" stroke="black" stroke-width="0.75" stroke-linecap="round" stroke-linejoin="round"/>
<path d="M54.6842 64.6621L63.0956 70.9311" stroke="black" stroke-width="0.75" stroke-linecap="round" stroke-linejoin="round"/>
<path d="M61.9264 57.4395L70.3378 63.7085" stroke="black" stroke-width="0.75" stroke-linecap="round" stroke-linejoin="round"/>
<path d="M43.5027 64.3272C43.1666 64.325 42.8346 64.2544 42.5275 64.1198C42.2205 63.9851 41.9451 63.7895 41.7186 63.545C41.2826 63.0748 41.0543 62.4535 41.0837 61.8179C41.1131 61.1823 41.398 60.5844 41.8756 60.1556L45.0176 57.3167C45.4953 56.888 46.1265 56.6637 46.7726 56.693C47.4186 56.7223 48.0265 57.0029 48.4625 57.4731C48.8985 57.9433 49.1269 58.5645 49.0974 59.2002C49.068 59.8358 48.7831 60.4337 48.3055 60.8625L45.1635 63.7014C44.7103 64.1091 44.1169 64.3327 43.5027 64.3272Z" fill="#F78400" stroke="black" stroke-width="0.75" stroke-linejoin="round"/>
<path d="M46.9337 67.9606C46.608 67.9588 46.2864 67.8857 45.9891 67.7459C45.6918 67.606 45.4252 67.4025 45.2061 67.1481C44.7843 66.6586 44.5638 66.0115 44.5932 65.3491C44.6225 64.6867 44.8993 64.0632 45.3627 63.6157L49.2219 59.8917C49.6854 59.4448 50.2973 59.2106 50.9231 59.2403C51.5488 59.27 52.1373 59.5612 52.5594 60.0501C52.9812 60.5396 53.2017 61.1867 53.1723 61.8491C53.143 62.5115 52.8662 63.135 52.4028 63.5825L48.5435 67.3065C48.1039 67.7318 47.5287 67.9655 46.9337 67.9606Z" fill="#F78400" stroke="black" stroke-width="0.75" stroke-linejoin="round"/>
<path d="M50.4496 71.0458C50.1237 71.0441 49.8017 70.9731 49.504 70.8372C49.2063 70.7013 48.9395 70.5034 48.7203 70.2564C48.2983 69.7822 48.0775 69.1554 48.1064 68.514C48.1354 67.8726 48.4118 67.2691 48.8748 66.8362L52.732 63.2307C53.1951 62.7978 53.8069 62.571 54.4328 62.6001C55.0587 62.6292 55.6474 62.9119 56.0695 63.3861C56.4917 63.8605 56.7125 64.4875 56.6835 65.1292C56.6545 65.7708 56.3781 66.3745 55.915 66.8078L52.0578 70.4131C51.6185 70.824 51.0442 71.05 50.4496 71.0458Z" fill="#F78400" stroke="black" stroke-width="0.75" stroke-linecap="round" stroke-linejoin="round"/>
<path d="M54.8702 72.9522C54.5753 72.9628 54.2815 72.9128 54.0073 72.8055C53.7331 72.6981 53.4846 72.5357 53.2775 72.3286C52.8782 71.9309 52.6555 71.3931 52.6584 70.8333C52.6613 70.2736 52.8896 69.7377 53.293 69.3436L55.9753 66.7309C56.3788 66.337 56.9244 66.1171 57.4921 66.1196C58.0598 66.1221 58.603 66.3467 59.0025 66.7442C59.4016 67.1421 59.624 67.68 59.6209 68.2398C59.6177 68.7996 59.3893 69.3353 58.9857 69.7293L56.3047 72.3419C55.9221 72.7171 55.4094 72.9352 54.8702 72.9522Z" fill="#F78400" stroke="black" stroke-width="0.75" stroke-linejoin="round"/>
<path d="M68.2642 48.3933C66.2187 49.8785 63.5704 49.7437 60.5475 48.6096C60.2801 48.8463 58.7725 50.1221 58.4782 50.3278" stroke="black" stroke-width="0.75" stroke-linejoin="round"/>
<path d="M42.0742 34.6135L28.4507 51.6591L10.2318 37.1252L10.2318 29.1694H35.284L42.0742 34.6135Z" fill="#9BCDFB" stroke="black" stroke-width="0.75" stroke-linecap="round" stroke-linejoin="round"/>
<path d="M41.0336 35.139L28.3337 51.1543C27.4982 52.2078 27.675 53.7391 28.7286 54.5746L33.8931 58.67C34.9466 59.5055 36.4779 59.3287 37.3134 58.2751L50.0134 42.2599C50.8488 41.2063 50.672 39.675 49.6185 38.8396L44.454 34.7441C43.4004 33.9087 41.8691 34.0855 41.0336 35.139Z" fill="#9BCDFB" stroke="black" stroke-width="0.75" stroke-linecap="round" stroke-linejoin="round"/>
<path d="M69.0981 34.0155L81.8534 51.2993L100.962 34.7555V29.1692H74.3857L69.0981 34.0155Z" fill="#519AF4" stroke="black" stroke-width="0.75" stroke-linecap="round" stroke-linejoin="round"/>
<path d="M61.7114 39.9428L75.9874 56.3345C76.5761 57.0105 77.6014 57.0812 78.2773 56.4925L84.3605 51.1945C85.0364 50.6058 85.1072 49.5805 84.5184 48.9046L70.2424 32.5129C69.6537 31.8369 68.6285 31.7662 67.9525 32.3549L61.8694 37.6529C61.1934 38.2417 61.1227 39.2669 61.7114 39.9428Z" fill="#519AF4" stroke="black" stroke-width="0.75" stroke-linecap="round" stroke-linejoin="round"/>
<path d="M34.9902 54.6286C36.3284 54.5141 37.3204 53.3364 37.2058 51.9982C37.0912 50.6599 35.9135 49.668 34.5753 49.7826C33.2371 49.8971 32.2452 51.0748 32.3597 52.413C32.4743 53.7512 33.652 54.7432 34.9902 54.6286Z" fill="#519AF4" stroke="black" stroke-width="0.75"/>
<path d="M78.2042 52.8636C79.4328 52.983 80.5255 52.0837 80.6448 50.8552C80.7641 49.6266 79.8649 48.5339 78.6363 48.4145C77.4077 48.2952 76.315 49.1945 76.1957 50.423C76.0764 51.6516 76.9756 52.7443 78.2042 52.8636Z" fill="#9BCDFB" stroke="black" stroke-width="0.75"/>
<path d="M75.06 63.4893L79.319 65.1178M72.8052 66.1199L76.3126 69.1262M70.1747 68.4999L72.4294 72.6337" stroke="black" stroke-width="0.75"/>
<path d="M39.3593 63.4893L35.1003 65.1178M41.614 66.1199L38.1066 69.1262M44.2446 68.4999L41.9898 72.6337" stroke="black" stroke-width="0.75"/>
</svg>
