<svg width="114" height="112" viewBox="0 0 114 112" fill="none" xmlns="http://www.w3.org/2000/svg">
<path d="M38.5039 13C38.1584 13 37.8785 13.2803 37.8789 13.6258L37.9788 94.487C37.9788 99.497 42.05 103.564 47.0554 103.564H73.0302V13.625C73.0302 13.2798 72.7504 13 72.4052 13H38.5039Z" fill="white" stroke="black" stroke-width="0.75" stroke-miterlimit="10"/>
<path d="M58.8148 51.1494H42.7324" stroke="black" stroke-width="0.75" stroke-linecap="round" stroke-linejoin="round"/>
<path d="M81.9342 57.5068H42.7324" stroke="black" stroke-width="0.75" stroke-linecap="round" stroke-linejoin="round"/>
<path d="M67.4846 63.8652H42.7324" stroke="black" stroke-width="0.75" stroke-linecap="round" stroke-linejoin="round"/>
<path d="M58.8148 70.2231H42.7324" stroke="black" stroke-width="0.75" stroke-linecap="round" stroke-linejoin="round"/>
<path d="M81.9342 76.5806H42.7324" stroke="black" stroke-width="0.75" stroke-linecap="round" stroke-linejoin="round"/>
<path d="M67.4846 82.9385H42.7324" stroke="black" stroke-width="0.75" stroke-linecap="round" stroke-linejoin="round"/>
<path d="M44.9434 103.587H95.2286C82.6715 103.587 82.6715 89.2363 70.1193 89.2363C57.567 89.2363 57.5622 103.52 45.0099 103.52V103.587H44.9481H44.9434Z" fill="#1C4396" stroke="black" stroke-width="0.75" stroke-miterlimit="10"/>
<path d="M68.7793 89.3374H97.947C105.332 89.3374 111.29 96.2422 111.29 103.627L76.3264 103.603C76.2053 96.911 76.7528 90.1112 68.7793 89.3374Z" fill="white" stroke="black" stroke-width="0.75" stroke-miterlimit="10"/>
<path d="M105.908 98.7031H81.1562" stroke="black" stroke-width="0.75" stroke-linecap="round" stroke-linejoin="round"/>
<path d="M59.995 36.6984C59.3091 36.3886 58.5927 36.1516 57.8576 35.9911C58.0173 35.9313 58.1737 35.8659 58.3278 35.796C59.6711 35.1816 60.7754 34.1409 61.4703 32.8347C62.1651 31.5284 62.4118 30.0291 62.1723 28.5682C61.9329 27.1074 61.2205 25.7661 60.1453 24.7516C59.07 23.737 57.6916 23.1056 56.2229 22.9547C54.7541 22.8038 53.2767 23.1418 52.0186 23.9166C50.7605 24.6915 49.7917 25.86 49.2618 27.2418C48.7318 28.6236 48.6702 30.1419 49.0864 31.5623C49.5026 32.9828 50.3735 34.2263 51.5646 35.1011C51.5995 35.1146 51.6321 35.1304 51.667 35.1428L51.6355 35.1519C52.1212 35.5001 52.6508 35.7823 53.2104 35.9911C50.6673 36.5323 48.4116 37.9931 46.8736 40.0948C45.2615 38.4143 44.1763 36.2966 43.7522 34.0038C43.3281 31.7111 43.5837 29.344 44.4875 27.1955C45.3913 25.047 46.9035 23.2114 48.8371 21.9159C50.7706 20.6203 53.0405 19.9217 55.3659 19.9065C57.6914 19.8913 59.9702 20.5602 61.9204 21.8303C63.8706 23.1004 65.4066 24.9161 66.3383 27.0526C67.2699 29.1891 67.5564 31.5527 67.1621 33.8507C66.7679 36.1488 65.7103 38.2805 64.1202 39.982C63.0454 38.5542 61.6257 37.4241 59.995 36.6984Z" fill="#1C4396" stroke="black" stroke-width="0.75" stroke-linecap="round" stroke-linejoin="round"/>
<path d="M55.3471 43.6871C53.7493 43.6709 52.1708 43.338 50.7043 42.7079C49.2377 42.0777 47.9126 41.163 46.8066 40.0173C48.3635 37.9095 50.6467 36.4446 53.2211 35.9019C52.6546 35.6925 52.1185 35.4095 51.6268 35.0602L51.6587 35.0512C51.6234 35.0387 51.5904 35.0229 51.5551 35.0093C50.3524 34.1326 49.4734 32.8872 49.0538 31.465C48.6343 30.0429 48.6974 28.5231 49.2334 27.1402C49.7695 25.7572 50.7487 24.5879 52.02 23.8126C53.2914 23.0373 54.7842 22.6991 56.2682 22.8501C57.7522 23.0012 59.1449 23.6331 60.2316 24.6484C61.3182 25.6637 62.0384 27.006 62.281 28.4683C62.5236 29.9305 62.2752 31.4314 61.574 32.7394C60.8728 34.0475 59.7579 35.09 58.4012 35.7062C58.2452 35.7763 58.0869 35.8419 57.9252 35.9019C58.6693 36.0628 59.3944 36.3005 60.0888 36.6112C61.7374 37.3409 63.172 38.4753 64.2577 39.9076C63.1183 41.118 61.7375 42.0793 60.2033 42.73C58.6691 43.3808 57.0152 43.7067 55.3471 43.6871Z" fill="white" stroke="black" stroke-width="0.75" stroke-linecap="round" stroke-linejoin="round"/>
<path d="M84.3555 55.7418C84.3555 52.2328 87.2035 49.3848 90.7125 49.3848C94.2215 49.3848 97.0696 52.2328 97.0696 55.7418C97.0696 59.2508 94.2215 62.0989 90.7125 62.0989C87.2035 62.0989 84.3555 59.2508 84.3555 55.7418Z" fill="#FBE62E" stroke="black" stroke-width="0.75"/>
<path d="M93.3253 53.2438L89.3668 57.2023L88.1012 55.9366C87.9754 55.8106 87.8047 55.7397 87.6266 55.7397C87.4485 55.7397 87.2778 55.8106 87.152 55.9366C86.8894 56.1992 86.8894 56.6233 87.152 56.8858L88.8956 58.6295C89.1582 58.892 89.5823 58.892 89.8448 58.6295L94.2813 54.193C94.5438 53.9305 94.5438 53.5063 94.2813 53.2438C94.0187 52.9812 93.5879 52.9812 93.3253 53.2438Z" fill="#1C4396"/>
<path d="M84.3555 74.8771C84.3555 71.3681 87.2035 68.52 90.7125 68.52C94.2215 68.52 97.0696 71.3681 97.0696 74.8771C97.0696 78.3861 94.2215 81.2342 90.7125 81.2342C87.2035 81.2342 84.3555 78.3861 84.3555 74.8771Z" fill="#FBE62E" stroke="black" stroke-width="0.75"/>
<path d="M93.3253 72.379L89.3668 76.3375L88.1012 75.0719C87.9754 74.9458 87.8047 74.875 87.6266 74.875C87.4485 74.875 87.2778 74.9458 87.152 75.0719C86.8894 75.3344 86.8894 75.7585 87.152 76.0211L88.8956 77.7647C89.1582 78.0273 89.5823 78.0273 89.8448 77.7647L94.2813 73.3283C94.5438 73.0657 94.5438 72.6416 94.2813 72.379C94.0187 72.1165 93.5879 72.1165 93.3253 72.379Z" fill="#1C4396"/>
<path d="M23.4395 94.035L26.4753 94.6948L32.6625 66.2292L29.6267 65.5693L23.4395 94.035Z" fill="#D1D3D5" stroke="black" stroke-width="0.75"/>
<path d="M30.4785 66.177L31.4345 71.7828L32.5037 66.6552L31.5141 66.4401L30.4785 66.177Z" fill="black"/>
<path d="M22.7003 103.767L22.8841 103.808C24.1304 104.078 25.3628 103.286 25.6343 102.04L31.9931 72.8537L27.293 71.8337L20.9342 101.02C20.6627 102.266 21.454 103.497 22.7003 103.767Z" fill="white" stroke="black" stroke-width="0.75"/>
<path d="M54.0498 51.8813C56.2764 41.6332 49.7514 31.4844 39.5037 29.2555C29.2569 27.0278 19.1068 33.5538 16.8792 43.8006C14.6525 54.0487 21.1775 64.1974 31.4243 66.4251C41.6711 68.6527 51.8211 62.1267 54.0488 51.88L54.0498 51.8813ZM31.6725 65.1437C22.0832 63.06 15.9985 53.5953 18.0834 44.005C20.1684 34.4148 29.6319 28.331 39.2234 30.415C48.8127 32.4987 54.8975 41.9634 52.8125 51.5537C50.7275 61.1439 41.2641 67.2277 31.6725 65.1437Z" fill="black" stroke="black" stroke-width="0.75"/>
<path opacity="0.43" d="M31.6835 65.2412C22.0887 63.1556 15.9804 53.6537 18.067 44.0602C20.1513 34.4664 29.6532 28.3581 39.247 30.4424C48.8408 32.5268 54.9502 42.0299 52.8635 51.6234C50.7782 61.2159 41.2774 67.3256 31.6835 65.2412Z" fill="white" stroke="black" stroke-width="0.75"/>
</svg>
