<svg width="114" height="112" viewBox="0 0 114 112" fill="none" xmlns="http://www.w3.org/2000/svg">
<path d="M99.951 78.2456H17.5156V31.0598H99.951V78.2456Z" fill="black" stroke="black" stroke-width="0.75" stroke-linecap="round" stroke-linejoin="round"/>
<path d="M40.7418 53.518C39.0326 51.6836 39.2219 50.6429 39.3002 48.1278C39.3784 45.6127 40.4447 43.2319 42.2645 41.5091C43.1659 40.6569 44.2252 39.992 45.3816 39.5524C46.5381 39.1129 47.7691 38.9072 49.0045 38.9473C50.2398 38.9873 51.4552 39.2723 52.5812 39.7859C53.7073 40.2994 54.7219 41.0315 55.5671 41.9404L55.6473 42.0239L72.6628 59.466C74.2891 61.5809 71.9031 64.0017 69.838 63.2172C70.6499 65.2566 68.233 67.2947 66.3338 66.3754C66.9838 68.8017 64.0133 70.5041 62.3735 68.8987C61.6192 70.6685 57.3513 69.8099 55.6701 68.4323L41.184 53.518H40.7418Z" fill="black" stroke="black" stroke-width="0.75" stroke-linejoin="round"/>
<path d="M74.158 42.1843C72.3901 40.4094 70.0029 39.4231 67.5216 39.4422C65.0403 39.4612 62.668 40.4841 60.9265 42.2859L52.7285 50.3334C52.7285 50.3334 54.148 52.8438 57.617 52.2206C59.9483 51.8006 61.7213 50.1667 62.6119 49.171L71.5375 58.2886L74.2457 55.6658C75.1086 54.7749 75.7909 53.7194 76.2535 52.5596C76.7161 51.3998 76.9501 50.1585 76.9419 48.9066C76.9338 47.6546 76.6837 46.4165 76.206 45.2631C75.7284 44.1097 75.0324 43.0635 74.158 42.1843Z" fill="black" stroke="black" stroke-width="0.75" stroke-linejoin="round"/>
<path d="M59.7207 59.6616L66.4606 66.4015" stroke="black" stroke-width="0.75" stroke-linecap="round" stroke-linejoin="round"/>
<path d="M63.2148 56.666L69.9547 63.4059" stroke="black" stroke-width="0.75" stroke-linecap="round" stroke-linejoin="round"/>
<path d="M48.9775 63.6554C48.6722 63.6589 48.3694 63.6001 48.0883 63.4828C47.8072 63.3655 47.5538 63.1922 47.3441 62.9738C46.9404 62.5537 46.7228 61.9931 46.7391 61.4152C46.7555 60.8373 47.0046 60.2895 47.4314 59.8922L50.2396 57.262C50.6666 56.8648 51.2363 56.6507 51.8237 56.6669C52.4111 56.683 52.9679 56.928 53.3716 57.348C53.7753 57.7681 53.9929 58.3287 53.9765 58.9066C53.9601 59.4845 53.7111 60.0323 53.2842 60.4296L50.4761 63.0598C50.071 63.4375 49.5356 63.6503 48.9775 63.6554Z" fill="black" stroke="black" stroke-width="0.75" stroke-linejoin="round"/>
<path d="M52.152 66.9004C51.8562 66.9041 51.5628 66.8429 51.2904 66.7207C51.0181 66.5985 50.7726 66.418 50.5694 66.1904C50.1782 65.7526 49.9674 65.1684 49.9833 64.5661C49.9991 63.9639 50.2404 63.393 50.6541 62.9789L54.0994 59.5329C54.5132 59.1195 55.0652 58.8967 55.6341 58.9135C56.2031 58.9303 56.7425 59.1853 57.1338 59.6225C57.525 60.0603 57.7358 60.6446 57.72 61.2468C57.7041 61.849 57.4628 62.42 57.0491 62.834L53.6038 66.28C53.2114 66.6735 52.6927 66.8952 52.152 66.9004Z" fill="black" stroke="black" stroke-width="0.75" stroke-linejoin="round"/>
<path d="M55.3973 69.6464C55.1012 69.6501 54.8075 69.5908 54.5348 69.4722C54.2622 69.3536 54.0166 69.1783 53.8135 68.9574C53.4223 68.5335 53.2115 67.9677 53.2274 67.3846C53.2433 66.8014 53.4845 66.2486 53.8981 65.8477L57.3435 62.5097C57.7571 62.1088 58.3092 61.8928 58.8782 61.9091C59.4473 61.9253 59.9868 62.1726 60.3779 62.5964C60.7691 63.0205 60.98 63.5865 60.9641 64.1698C60.9482 64.7532 60.7069 65.3063 60.2933 65.7074L56.8479 69.0454C56.4555 69.4258 55.9375 69.6405 55.3973 69.6464Z" fill="black" stroke="black" stroke-width="0.75" stroke-linecap="round" stroke-linejoin="round"/>
<path d="M59.0154 71.9452C58.7221 71.961 58.4288 71.9165 58.154 71.8145C57.8792 71.7126 57.629 71.5554 57.4192 71.353C57.0147 70.9643 56.7836 70.433 56.7765 69.8759C56.7694 69.3188 56.987 68.7815 57.3813 68.382L60.0042 65.7341C60.3988 65.3348 60.9378 65.1062 61.5028 65.0986C62.0678 65.091 62.6125 65.3049 63.0171 65.6933C63.4214 66.0821 63.6523 66.6135 63.6592 67.1707C63.666 67.7278 63.4482 68.265 63.0537 68.6643L60.4321 71.3122C60.058 71.6924 59.5517 71.9187 59.0154 71.9452Z" fill="black" stroke="black" stroke-width="0.75" stroke-linejoin="round"/>
<path d="M70.2032 46.6807C68.6313 48.3552 66.2449 48.6868 63.3536 48.1906C63.1554 48.4475 62.6924 49.0679 62.4648 49.3017" fill="black"/>
<path d="M70.2032 46.6807C68.6313 48.3552 66.2449 48.6868 63.3536 48.1906C63.1554 48.4475 62.6924 49.0679 62.4648 49.3017" stroke="black" stroke-width="0.75" stroke-linejoin="round"/>
<path d="M48.0734 33.9848L34.3328 48.2773L17.6191 31.056L45.2403 31.0532L48.0734 33.9848Z" fill="black" stroke="black" stroke-width="0.75" stroke-linecap="round" stroke-linejoin="round"/>
<path d="M46.8672 34.9391L34.9267 46.3456C33.9545 47.2744 33.9192 48.8155 34.848 49.7878L38.1728 53.2682C39.1016 54.2404 40.6427 54.2757 41.6149 53.3469L53.5554 41.9404C54.5276 41.0116 54.5628 39.4705 53.6341 38.4982L50.3093 35.0178C49.3805 34.0456 47.8394 34.0103 46.8672 34.9391Z" fill="black" stroke="black" stroke-width="0.75" stroke-linecap="round" stroke-linejoin="round"/>
<path d="M69.9531 33.8436L83.4633 47.9291L99.6585 30.9573L72.7386 30.9546L69.9531 33.8436Z" fill="black" stroke="black" stroke-width="0.75" stroke-linecap="round" stroke-linejoin="round"/>
<path d="M63.9297 40.4312L77.0437 52.9588C77.6919 53.578 78.7192 53.5545 79.3384 52.9064L83.7844 48.2523C84.4035 47.6042 84.38 46.5768 83.7319 45.9576L70.6179 33.4299C69.9697 32.8108 68.9423 32.8342 68.3231 33.4824L63.8772 38.1364C63.258 38.7846 63.2815 39.812 63.9297 40.4312Z" fill="black" stroke="black" stroke-width="0.75" stroke-linecap="round" stroke-linejoin="round"/>
<path d="M39.8734 50.549C40.976 50.549 41.8698 49.6552 41.8698 48.5526C41.8698 47.45 40.976 46.5562 39.8734 46.5562C38.7708 46.5562 37.877 47.45 37.877 48.5526C37.877 49.6552 38.7708 50.549 39.8734 50.549Z" fill="black" stroke="black" stroke-width="0.75"/>
<path d="M78.3148 50.0505C79.4174 50.0505 80.3112 49.1567 80.3112 48.0541C80.3112 46.9515 79.4174 46.0576 78.3148 46.0576C77.2122 46.0576 76.3184 46.9515 76.3184 48.0541C76.3184 49.1567 77.2122 50.0505 78.3148 50.0505Z" fill="black" stroke="black" stroke-width="0.75"/>
<path d="M103.747 87.4209H12.655C10.0776 87.4209 7.98828 85.3316 7.98828 82.7543V26.6665C7.98828 24.0892 10.0776 21.9998 12.655 21.9998H103.747C106.324 21.9998 108.414 24.0892 108.414 26.6665V82.7543C108.414 85.3316 106.324 87.4209 103.747 87.4209Z" fill="#FD9EC0" stroke="black" stroke-width="0.75" stroke-linecap="round" stroke-linejoin="round"/>
<path d="M70.5469 97.8533H44.5859V87.3691H70.5469V97.8533Z" fill="#FD9EC0" stroke="black" stroke-width="0.75" stroke-linecap="round" stroke-linejoin="round"/>
<path d="M100.759 87.4209H9.6667C7.08936 87.4209 5 85.3316 5 82.7543V26.6665C5 24.0892 7.08936 21.9998 9.6667 21.9998H100.759C103.336 21.9998 105.426 24.0892 105.426 26.6665V82.7543C105.426 85.3316 103.336 87.4209 100.759 87.4209Z" fill="#E9F1FF" stroke="black" stroke-width="0.75" stroke-linecap="round" stroke-linejoin="round"/>
<path d="M21.7246 103.345H91.6196V102.626C91.6196 101.36 91.1575 100.146 90.335 99.2512C89.5126 98.3562 88.3971 97.8535 87.234 97.8535H26.1128C25.5369 97.8535 24.9665 97.9769 24.4345 98.2167C23.9024 98.4565 23.4189 98.808 23.0117 99.2512C22.6045 99.6943 22.2814 100.22 22.061 100.799C21.8406 101.378 21.7272 101.999 21.7272 102.626V103.345H21.7246Z" fill="#E9F1FF" stroke="black" stroke-width="0.75" stroke-linecap="round" stroke-linejoin="round"/>
<path d="M101.069 80.5044H10.3398V28.5715H101.069V80.5044Z" fill="white" stroke="black" stroke-width="0.75" stroke-linecap="round" stroke-linejoin="round"/>
<path d="M42.0977 87.3691V97.8534H68.0587V87.3691H42.0977Z" fill="#E9F1FF" stroke="black" stroke-width="0.75" stroke-linecap="round" stroke-linejoin="round"/>
<path d="M36.9157 57.1805C34.7627 55.4544 34.8035 54.2909 34.489 51.5394C34.1745 48.7878 34.9573 46.0255 36.6654 43.8599C37.5117 42.7886 38.5596 41.8961 39.7492 41.2336C40.9388 40.5711 42.2468 40.1515 43.5985 39.9988C44.9503 39.8461 46.3192 39.9632 47.6271 40.3436C48.9351 40.7239 50.1564 41.36 51.2214 42.2155L51.3221 42.2937L72.6252 58.585C74.7325 60.6298 72.5187 63.6454 70.145 63.1193C71.3533 65.2113 69.0451 67.815 66.8306 67.1157C67.9242 69.6548 64.9596 71.9809 62.9187 70.4932C61.8249 72.7769 59.3888 73.344 56.3419 71.1434L37.3973 57.1102L36.9157 57.1805Z" fill="#FFAE1F" stroke="black" stroke-width="0.75" stroke-linejoin="round"/>
<path d="M73.4304 43.9475C71.8861 41.6634 69.5095 40.1036 66.8232 39.6112C64.137 39.1189 61.361 39.7342 59.106 41.3219L48.5801 48.3266C48.5801 48.3266 49.5956 51.3339 53.4745 51.3773C56.0815 51.4053 58.6243 49.8019 59.7928 48.9096L69.9491 56.5268L71.8111 57.881C72.4882 57.2039 72.8109 56.7547 73.5508 55.5966C74.2906 54.4385 74.8001 53.145 75.0501 51.7899C75.3002 50.4348 75.2858 49.0447 75.0079 47.6991C74.7299 46.3535 74.1939 45.0787 73.4304 43.9475Z" fill="#F78400" stroke="black" stroke-width="0.75" stroke-linejoin="round"/>
<path d="M58.5625 60.8545L66.9739 67.1235" stroke="black" stroke-width="0.75" stroke-linecap="round" stroke-linejoin="round"/>
<path d="M54.6484 64.2593L63.0598 70.5283" stroke="black" stroke-width="0.75" stroke-linecap="round" stroke-linejoin="round"/>
<path d="M61.8906 57.0366L70.302 63.3056" stroke="black" stroke-width="0.75" stroke-linecap="round" stroke-linejoin="round"/>
<path d="M43.4664 63.9243C43.1303 63.9221 42.7983 63.8515 42.4912 63.7169C42.1842 63.5822 41.9088 63.3866 41.6823 63.1421C41.2463 62.6719 41.018 62.0506 41.0474 61.415C41.0768 60.7794 41.3617 60.1815 41.8393 59.7527L44.9813 56.9138C45.459 56.4851 46.0902 56.2608 46.7363 56.2901C47.3823 56.3194 47.9902 56.6 48.4262 57.0702C48.8622 57.5404 49.0906 58.1616 49.0611 58.7973C49.0317 59.4329 48.7468 60.0308 48.2692 60.4596L45.1272 63.2985C44.674 63.7062 44.0806 63.9298 43.4664 63.9243Z" fill="#F78400" stroke="black" stroke-width="0.75" stroke-linejoin="round"/>
<path d="M46.8978 67.5578C46.5721 67.556 46.2505 67.4829 45.9532 67.3431C45.6559 67.2032 45.3893 66.9997 45.1702 66.7453C44.7484 66.2558 44.5279 65.6087 44.5573 64.9463C44.5866 64.2839 44.8634 63.6604 45.3268 63.2129L49.186 59.4889C49.6495 59.042 50.2614 58.8078 50.8872 58.8375C51.5129 58.8672 52.1014 59.1584 52.5235 59.6473C52.9453 60.1368 53.1658 60.7839 53.1364 61.4463C53.1071 62.1087 52.8303 62.7322 52.3669 63.1797L48.5076 66.9037C48.068 67.329 47.4928 67.5627 46.8978 67.5578Z" fill="#F78400" stroke="black" stroke-width="0.75" stroke-linejoin="round"/>
<path d="M50.4141 70.643C50.0882 70.6413 49.7662 70.5702 49.4685 70.4343C49.1708 70.2984 48.904 70.1006 48.6848 69.8536C48.2628 69.3794 48.042 68.7526 48.0709 68.1112C48.0999 67.4698 48.3763 66.8662 48.8393 66.4333L52.6965 62.8279C53.1596 62.395 53.7714 62.1682 54.3973 62.1973C55.0232 62.2264 55.6119 62.5091 56.034 62.9833C56.4562 63.4577 56.677 64.0846 56.648 64.7263C56.619 65.3679 56.3426 65.9717 55.8795 66.405L52.0223 70.0103C51.583 70.4212 51.0087 70.6472 50.4141 70.643Z" fill="#F78400" stroke="black" stroke-width="0.75" stroke-linecap="round" stroke-linejoin="round"/>
<path d="M54.8349 72.5494C54.54 72.56 54.2462 72.51 53.972 72.4027C53.6978 72.2953 53.4493 72.1329 53.2422 71.9258C52.8429 71.5281 52.6202 70.9903 52.6231 70.4305C52.626 69.8708 52.8543 69.3349 53.2577 68.9408L55.94 66.3281C56.3435 65.9342 56.8891 65.7143 57.4568 65.7168C58.0245 65.7193 58.5677 65.9439 58.9672 66.3414C59.3663 66.7393 59.5887 67.2772 59.5856 67.837C59.5824 68.3968 59.354 68.9325 58.9504 69.3265L56.2694 71.9391C55.8868 72.3143 55.3741 72.5324 54.8349 72.5494Z" fill="#F78400" stroke="black" stroke-width="0.75" stroke-linejoin="round"/>
<path d="M68.2284 47.9905C66.1829 49.4757 63.5346 49.3409 60.5117 48.2068C60.2443 48.4435 58.7367 49.7193 58.4424 49.925" stroke="black" stroke-width="0.75" stroke-linejoin="round"/>
<path d="M42.0387 34.2107L28.4152 51.2563L10.1963 36.7224L10.1963 28.7666H35.2485L42.0387 34.2107Z" fill="#9BCDFB" stroke="black" stroke-width="0.75" stroke-linecap="round" stroke-linejoin="round"/>
<path d="M40.9975 34.7364L28.2976 50.7517C27.4621 51.8052 27.6389 53.3365 28.6925 54.172L33.857 58.2674C34.9105 59.1029 36.4418 58.9261 37.2773 57.8725L49.9773 41.8573C50.8127 40.8037 50.6359 39.2724 49.5824 38.437L44.4179 34.3415C43.3643 33.5061 41.833 33.6829 40.9975 34.7364Z" fill="#9BCDFB" stroke="black" stroke-width="0.75" stroke-linecap="round" stroke-linejoin="round"/>
<path d="M69.0625 33.6127L81.8178 50.8965L100.926 34.3527V28.7664H74.3501L69.0625 33.6127Z" fill="#519AF4" stroke="black" stroke-width="0.75" stroke-linecap="round" stroke-linejoin="round"/>
<path d="M61.6755 39.54L75.9515 55.9317C76.5402 56.6077 77.5655 56.6784 78.2414 56.0897L84.3246 50.7917C85.0005 50.203 85.0713 49.1777 84.4825 48.5018L70.2065 32.1101C69.6178 31.4341 68.5926 31.3634 67.9166 31.9521L61.8335 37.2501C61.1575 37.8389 61.0868 38.8641 61.6755 39.54Z" fill="#519AF4" stroke="black" stroke-width="0.75" stroke-linecap="round" stroke-linejoin="round"/>
<path d="M34.9541 54.2261C36.2923 54.1115 37.2843 52.9338 37.1697 51.5956C37.0552 50.2574 35.8775 49.2654 34.5393 49.38C33.201 49.4945 32.2091 50.6722 32.3237 52.0104C32.4382 53.3487 33.6159 54.3406 34.9541 54.2261Z" fill="#519AF4" stroke="black" stroke-width="0.75"/>
<path d="M78.1684 52.4608C79.397 52.5801 80.4897 51.6809 80.609 50.4523C80.7283 49.2237 79.8291 48.131 78.6005 48.0117C77.3719 47.8924 76.2792 48.7916 76.1599 50.0202C76.0406 51.2488 76.9398 52.3415 78.1684 52.4608Z" fill="#9BCDFB" stroke="black" stroke-width="0.75"/>
<path d="M75.024 63.0864L79.283 64.7149M72.7692 65.717L76.2766 68.7233M70.1387 68.097L72.3934 72.2308" stroke="black" stroke-width="0.75"/>
<path d="M39.3235 63.0864L35.0645 64.7149M41.5782 65.717L38.0708 68.7233M44.2088 68.097L41.954 72.2308" stroke="black" stroke-width="0.75"/>
</svg>
