<svg width="114" height="113" viewBox="0 0 114 113" fill="none" xmlns="http://www.w3.org/2000/svg">
<path d="M73.9061 61.3777C87.7063 61.3777 98.8935 50.1905 98.8935 36.3903C98.8935 22.5901 87.7063 11.4028 73.9061 11.4028C60.1059 11.4028 48.9186 22.5901 48.9186 36.3903C48.9186 50.1905 60.1059 61.3777 73.9061 61.3777Z" fill="#F5E644" stroke="black" stroke-width="0.75" stroke-linecap="round" stroke-linejoin="round"/>
<path d="M73.9064 55.7046C84.5732 55.7046 93.2203 47.0575 93.2203 36.3907C93.2203 25.7239 84.5732 17.0767 73.9064 17.0767C63.2396 17.0767 54.5924 25.7239 54.5924 36.3907C54.5924 47.0575 63.2396 55.7046 73.9064 55.7046Z" fill="#FEAD3B" stroke="black" stroke-width="0.75" stroke-linecap="round" stroke-linejoin="round"/>
<path d="M72.439 51.8238V48.0849C67.51 47.2807 65.2764 43.645 65.0319 40.7811L69.8522 39.6942C70.0261 41.7212 71.4282 43.5418 74.4334 43.5418C76.1833 43.5418 77.4387 42.6995 77.4387 41.3408C77.4387 40.3246 76.6724 39.6616 75.2649 39.3464L72.1564 38.6128C68.2382 37.6672 65.8308 35.2923 65.8308 31.9719C65.8308 28.0537 68.7653 25.3637 72.4336 24.7333V20.9292H76.455V24.8093C77.9498 25.0844 79.3279 25.8008 80.4118 26.8662C81.4957 27.9317 82.2356 29.2973 82.5362 30.7872L77.6778 32.0806C77.4713 30.9937 76.8735 29.1786 74.1128 29.1786C72.1564 29.1786 71.1782 30.3361 71.1782 31.4556C71.1782 32.3958 71.8738 33.1294 73.2379 33.4446L76.2811 34.1076C80.9656 35.1565 82.8025 37.9117 82.8025 41.0311C82.8025 44.1504 80.4928 47.2535 76.4387 47.9871V51.7912L72.439 51.8238Z" fill="#F5E644" stroke="black" stroke-width="0.75" stroke-linecap="round" stroke-linejoin="round"/>
<path d="M64.5271 41.9478L14.8138 42.0762C10.437 42.0876 6.89555 45.3305 6.90689 49.3218L6.98246 73.6474C6.9938 77.6387 10.5542 80.8665 14.931 80.8551L64.6443 80.7266C69.0211 80.7153 72.5626 77.4724 72.5513 73.4811L72.4757 49.1555C72.4644 45.1642 68.9039 41.9364 64.5271 41.9478Z" fill="#FBE62E" stroke="black" stroke-width="0.75" stroke-miterlimit="10"/>
<path d="M66.2706 47.1826L55.8843 47.2091C54.7995 47.2091 53.9227 48.0141 53.9264 49.0044L53.9415 53.8536C53.9415 54.8401 54.826 55.6414 55.9107 55.6376L66.2971 55.6111C67.3819 55.6111 68.2587 54.8061 68.2549 53.8158L68.2398 48.9666C68.2398 47.9801 67.3554 47.1788 66.2706 47.1826Z" fill="#F78400" stroke="black" stroke-width="0.75" stroke-miterlimit="10"/>
<path d="M68.253 53.816L68.238 48.9668L55.9088 55.6378L66.2952 55.6113C67.38 55.6113 68.2568 54.8063 68.253 53.816Z" fill="#FFC664" stroke="black" stroke-width="0.75" stroke-linejoin="round"/>
<path d="M14.3444 72.1013L24.0391 72.0786" stroke="black" stroke-width="0.75" stroke-miterlimit="10"/>
<path d="M28.7897 72.0598L38.4844 72.0371" stroke="black" stroke-width="0.75" stroke-miterlimit="10"/>
<path d="M43.2409 72.0222L52.9356 71.9995" stroke="black" stroke-width="0.75" stroke-miterlimit="10"/>
<path d="M57.6862 71.9883L67.3809 71.9619" stroke="black" stroke-width="0.75" stroke-miterlimit="10"/>
<path d="M86.2295 105.596H47.7379C37.9311 105.596 29.8405 97.6281 29.8405 87.6987C29.8405 77.8919 37.8085 69.8013 47.7379 69.8013H86.2295C96.0363 69.8013 104.127 77.7693 104.127 87.6987C104.127 97.6281 96.1589 105.596 86.2295 105.596Z" fill="#D5E3FC" stroke="#01090F" stroke-width="0.75" stroke-miterlimit="10" stroke-linecap="round" stroke-linejoin="round"/>
<path d="M82.8032 103.072H48.3463C39.5674 103.072 32.3249 96.2087 32.3249 87.6556C32.3249 79.208 39.4577 72.2388 48.3463 72.2388H82.8032C91.5821 72.2388 98.8246 79.1024 98.8246 87.6556C98.8246 96.2087 91.6918 103.072 82.8032 103.072Z" fill="#9BCDFB" stroke="#01090F" stroke-width="0.75" stroke-miterlimit="10" stroke-linecap="round" stroke-linejoin="round"/>
<path d="M52.8924 89.4771H50.3181V94.9934H47.4987V80.4058H53.015C54.486 80.4058 55.5893 80.7736 56.4474 81.6317C57.3055 82.4898 57.7958 83.593 57.7958 84.9415C57.7958 86.2899 57.3055 87.3932 56.4474 88.2512C55.4667 88.9868 54.3634 89.4771 52.8924 89.4771ZM50.3181 87.0254H52.5247C53.2602 87.0254 53.7505 86.7802 54.2409 86.4125C54.6086 86.0447 54.8538 85.5544 54.8538 84.9415C54.8538 84.3285 54.6086 83.8382 54.2409 83.3479C53.8731 82.9801 53.2602 82.7349 52.5247 82.7349H50.3181V87.0254Z" fill="#1C4396"/>
<path d="M69.8077 94.9934L68.5819 91.6836H62.6978L61.472 94.9934H58.5299L64.1688 80.4058H67.4786L72.9949 94.9934H69.8077ZM65.6399 83.4704L63.6785 88.9868H67.7238L65.6399 83.4704Z" fill="#1C4396"/>
<path d="M78.5125 88.8642L73.3639 80.4058H76.6737L79.9835 86.1673L83.2933 80.4058H86.4805L81.3319 88.8642V94.9934H78.5125V88.8642Z" fill="#1C4396"/>
</svg>
