<svg width="114" height="113" viewBox="0 0 114 113" fill="none" xmlns="http://www.w3.org/2000/svg">
<path d="M104.418 63.1711C104.418 62.4822 103.862 61.9206 103.173 61.918C102.729 61.9154 102.313 61.9128 102.209 61.9128H101.304L101.66 61.6216C102.791 60.6857 103.535 59.3286 103.696 57.8753C103.953 56.0658 102.726 54.3864 100.917 54.064C100.659 54.0328 100.399 53.999 100.141 53.999C98.8494 54.0302 97.6873 54.7737 97.1362 55.9359L96.975 56.2582L96.845 55.9021C96.4576 54.8049 95.3917 54.0276 94.1958 54.0276C92.2901 54.0276 90.9642 55.5459 90.9642 57.7427C90.9642 58.3875 91.0604 59.0348 91.2866 59.6484L91.4166 60.0046L91.0604 59.8434C90.8342 59.7472 90.608 59.6172 90.3819 59.4872C90.2857 59.391 90.1557 59.326 90.0595 59.2922C89.4147 59.001 88.6712 59.3234 88.38 59.9708C88.0888 60.6155 88.4112 61.3591 89.0585 61.6502C90.0933 62.3288 91.2866 62.7162 92.5163 62.7474C92.9037 62.7474 93.2598 62.7162 93.616 62.6174H93.681L93.746 62.6486C94.6507 63.1659 95.6855 63.4233 96.7176 63.4233C97.3312 63.4233 97.9447 63.3583 98.5271 63.1971L98.6233 63.1659L98.6883 63.2309C99.4084 63.9225 100.287 64.64 103.256 64.4164C103.912 64.3671 104.418 63.8211 104.418 63.1659V63.1711ZM94.1334 59.2012L93.9722 59.4586L93.8422 59.2012C93.616 58.7489 93.486 58.2315 93.486 57.7167C93.486 56.9732 93.7434 56.5546 94.1958 56.5546C94.357 56.5546 94.5181 56.6508 94.5831 56.812C94.8405 57.2644 94.6143 58.3615 94.1308 59.2012H94.1334ZM96.4602 60.8495L96.2029 60.8183L96.3328 60.5921C96.429 60.4309 96.5278 60.2697 96.5902 60.1086L96.7852 59.7524L96.9152 60.1736C96.9802 60.3347 97.0114 60.4959 97.0764 60.6571L97.1414 60.8521H96.4628L96.4602 60.8495ZM101.112 57.6205C100.95 58.5565 100.433 59.365 99.658 59.9136L99.4968 60.0436L99.4318 59.8174C99.0756 58.7827 99.1094 57.5555 99.4968 56.9108C99.6268 56.6534 99.8842 56.5234 100.141 56.5234C100.238 56.5234 100.336 56.5234 100.368 56.5546C100.851 56.6508 101.208 57.137 101.112 57.6205Z" fill="#FC7DAB" stroke="black" stroke-width="0.75" stroke-linejoin="round"/>
<path d="M93.7135 62.5913C93.7135 62.5913 97.7849 61.6866 96.9451 56.1958" stroke="black" stroke-width="0.75" stroke-linejoin="round"/>
<path d="M99.3682 63.6888L102.21 61.9131L101.305 61.8481L98.4948 63.109L99.3682 63.6914V63.6888Z" fill="black"/>
<path d="M91.063 59.8148C91.063 59.8148 93.1092 61.5853 94.2401 59.001" stroke="black" stroke-width="0.75" stroke-linejoin="round"/>
<path d="M98.4596 63.1735C98.4596 63.1735 100.592 62.7212 101.819 61.4629" stroke="black" stroke-width="0.75" stroke-linejoin="round"/>
<path d="M97.0436 60.8468C98.0133 60.8468 99.1104 60.5244 99.8228 59.7808" stroke="black" stroke-width="0.75" stroke-linejoin="round"/>
<path d="M21.9244 33.5229H22.5717C24.4462 33.5229 29.2273 33.8142 32.6512 36.6558C33.4909 37.3005 33.9771 38.2703 34.0083 39.305C34.1045 42.5678 30.197 46.4753 29.3573 47.2838L21.927 33.5256L21.9244 33.5229Z" fill="#FD9EC0"/>
<path d="M29.3236 47.507C25.7384 46.3761 23.0242 43.4045 22.2495 39.7232C22.2183 39.562 22.1845 39.367 22.1533 39.2058C21.8621 37.269 21.5709 35.4595 21.5397 33.4888C24.0277 35.0383 26.1596 37.139 27.4205 39.7882C29.5523 44.2443 29.3262 47.507 29.3262 47.507H29.3236Z" fill="black" stroke="black" stroke-width="0.75" stroke-linejoin="round"/>
<path d="M23.0892 38.8835C23.058 38.7223 23.0242 38.5273 22.993 38.3661C22.7356 36.944 22.5718 35.4907 22.4756 34.0712C22.1845 33.845 21.8621 33.65 21.5397 33.4888C21.6047 35.4257 21.7971 37.3964 22.1533 39.302C22.1871 39.4632 22.2183 39.6582 22.2495 39.8194C23.123 43.5007 25.8996 46.4073 29.5186 47.442C29.5186 47.0209 29.4874 46.6023 29.4536 46.1811C26.222 44.954 23.8639 42.2086 23.0892 38.8809V38.8835Z" fill="#FC7DAB" stroke="black" stroke-width="0.75" stroke-linejoin="round"/>
<path d="M28.8053 78.5151V97.0024C28.8053 97.6159 31.5507 98.0995 34.9435 98.0995C38.3362 98.0995 41.0505 97.6159 41.0505 97.0024V78.5151H28.8053Z" fill="#FC7DAB" stroke="black" stroke-width="0.75" stroke-linejoin="round"/>
<path d="M69.5143 78.5151V97.0024C69.5143 97.6159 72.2597 98.0995 75.6525 98.0995C79.0452 98.0995 81.7906 97.6159 81.7906 97.0024V78.5151H69.5143Z" fill="#FC7DAB" stroke="black" stroke-width="0.75" stroke-linejoin="round"/>
<path d="M54.7496 94.3738C75.0542 94.3738 91.5162 81.1434 91.5162 64.8218C91.5162 48.5001 75.0542 35.2671 54.7496 35.2671C34.4451 35.2671 17.9831 48.4975 17.9831 64.8218C17.9831 81.146 34.4425 94.3738 54.7496 94.3738Z" fill="#FD9EC0" stroke="black" stroke-width="0.75" stroke-linejoin="round"/>
<path d="M32.782 41.6288C32.9432 40.2717 32.3608 38.9146 31.2325 38.1399C27.7436 35.4595 23.3785 33.9724 21.569 33.4238H22.3151C24.5432 33.4238 28.7445 33.78 31.9423 36.2654C33.5568 37.4275 33.8167 39.2682 32.782 41.6262V41.6288Z" fill="#FEDFEA" stroke="black" stroke-width="0.75" stroke-linejoin="round"/>
<path d="M30.4206 32.0356C31.6477 32.2306 37.1411 33.2627 40.3727 37.139C41.0512 37.9138 41.3736 38.9797 41.1812 40.0144C40.6326 43.2122 36.044 46.3138 35.108 46.9273L30.4232 32.0382L30.4206 32.0356Z" fill="#FD9EC0" stroke="black" stroke-width="0.75" stroke-linejoin="round"/>
<path d="M39.9526 42.5986C40.405 41.3064 40.1476 39.8843 39.2429 38.8522C36.4325 35.4595 32.7485 33.104 31.1003 32.1655C33.0397 32.5529 37.5608 33.78 40.3738 37.1727C41.6347 38.691 41.5047 40.5005 39.9526 42.5986Z" fill="#FEDFEA" stroke="black" stroke-width="0.75" stroke-linejoin="round"/>
<path d="M35.0116 47.1846C31.6839 45.4089 29.5832 41.9511 29.5182 38.1736V37.6251C29.5832 35.6882 30.0668 33.9437 30.423 32.0381C32.5886 34.0399 33.8469 36.3667 34.5593 39.2083C35.8514 44.0206 35.0116 47.1872 35.0116 47.1872V47.1846Z" fill="black" stroke="black" stroke-width="0.75" stroke-linejoin="round"/>
<path d="M30.5529 37.4614V36.9129C30.6179 35.4596 30.7479 34.0375 30.9403 32.5842C30.6829 32.3268 30.6803 32.293 30.423 32.0356C30.0668 33.9413 29.5832 35.6858 29.5182 37.6226V38.1712C29.5832 41.9513 31.6839 45.3727 35.0116 47.1821C35.1078 46.761 35.1728 46.3736 35.2066 45.955C32.3624 44.0494 30.6179 40.8854 30.5529 37.4614Z" fill="#FC7DAB" stroke="black" stroke-width="0.75" stroke-linejoin="round"/>
<path d="M27.2234 56.0033C28.0267 56.0033 28.6767 55.3534 28.6767 54.55C28.6767 53.7467 28.0267 53.0967 27.2234 53.0967C26.42 53.0967 25.7701 53.7467 25.7701 54.55C25.7701 55.3534 26.42 56.0033 27.2234 56.0033Z" fill="black"/>
<path d="M54.7496 93.4568C34.7181 93.4568 18.3704 80.5045 17.9831 64.4844C29.7108 82.7325 44.8313 86.5777 55.4932 86.5777C70.5149 86.5777 84.5383 79.02 89.6756 73.1418C87.3825 78.7626 82.89 83.8323 77.0118 87.4512C70.5825 91.3925 62.861 93.4594 54.7522 93.4594L54.7496 93.4568Z" fill="#FC7DAB"/>
<path d="M30.9733 85.394V97.2466C30.9733 97.8601 33.7187 98.3125 37.1115 98.3125C40.5042 98.3125 43.2184 97.8289 43.2184 97.2466V90.916" fill="#FC7DAB"/>
<path d="M30.9733 85.394V97.2466C30.9733 97.8601 33.7187 98.3125 37.1115 98.3125C40.5042 98.3125 43.2184 97.8289 43.2184 97.2466V90.916" stroke="black" stroke-width="0.75" stroke-linecap="round" stroke-linejoin="round"/>
<path d="M71.6784 89.0751V97.2463C71.6784 97.8599 74.4238 98.3122 77.8165 98.3122C81.2093 98.3122 83.9547 97.8287 83.9547 97.2463V80.8701" fill="#FC7DAB"/>
<path d="M71.6784 89.0751V97.2463C71.6784 97.8599 74.4238 98.3122 77.8165 98.3122C81.2093 98.3122 83.9547 97.8287 83.9547 97.2463V80.8701" stroke="black" stroke-width="0.75" stroke-linecap="round" stroke-linejoin="round"/>
<path d="M64.0519 39.1408C61.0803 38.5272 58.0437 38.236 55.0045 38.236C54.326 38.236 53.6474 38.2672 52.9689 38.2672C50.9332 38.3634 48.9314 38.5896 46.9269 38.9458C46.7969 38.9146 46.3784 38.3322 46.0534 37.6225C48.3152 37.1701 50.6082 36.9127 52.9351 36.7827C53.6136 36.7515 54.2922 36.7515 54.9369 36.7515C58.0697 36.7515 61.2051 37.0739 64.2729 37.7213C64.2079 38.2048 64.1429 38.691 64.0467 39.1434L64.0519 39.1408Z" fill="#FC7DAB" stroke="black" stroke-width="0.75" stroke-linejoin="round"/>
<path d="M64.0196 39.1407C61.048 38.5272 58.0114 38.236 54.9748 38.236C54.2963 38.236 53.6178 38.2672 52.9392 38.2672C50.9035 38.3634 48.9017 38.5895 46.8972 38.9457C46.8972 38.9457 46.801 38.9145 46.5749 38.6233C48.6755 38.236 50.8074 37.976 52.9392 37.8798C53.6178 37.8486 54.2651 37.8486 54.941 37.8486C58.0114 37.8486 61.0792 38.171 64.1158 38.7845C64.0846 38.9145 64.0846 39.0419 64.0196 39.1407Z" fill="black"/>
<path d="M13.6569 77.4488V57.23H20.3436C22.2181 57.23 23.8014 61.8499 23.8014 67.3407C23.8014 72.8315 22.2181 77.4514 20.3436 77.4514H13.6569V77.4488Z" fill="#FD9EC0" stroke="black" stroke-width="0.75" stroke-linejoin="round"/>
<path d="M13.4936 77.4494C11.6191 77.4494 10.0358 72.8295 10.0358 67.3387C10.0358 61.8479 11.6191 57.228 13.4936 57.228C15.368 57.228 16.9175 61.8479 16.9175 67.3387C16.9175 72.8295 15.368 77.4494 13.4936 77.4494Z" fill="#FC7DAB" stroke="black" stroke-width="0.75" stroke-linejoin="round"/>
<path d="M12.0698 70.0529C12.4624 70.0529 12.7795 68.8388 12.7795 67.3387C12.7795 65.8386 12.4624 64.6245 12.0698 64.6245C11.6772 64.6245 11.36 65.8386 11.36 67.3387C11.36 68.8388 11.6772 70.0529 12.0698 70.0529Z" fill="black"/>
<path d="M14.2357 70.7936C14.6283 70.7936 14.9454 69.5795 14.9454 68.0794C14.9454 66.5793 14.6283 65.3652 14.2357 65.3652C13.8431 65.3652 13.5259 66.5793 13.5259 68.0794C13.5259 69.5795 13.8431 70.7936 14.2357 70.7936Z" fill="black"/>
<path d="M102.042 96.0981V97.4058C102.042 97.6684 101.361 97.9284 100.001 98.139C97.1745 98.5835 92.4663 98.6356 89.4843 98.2691C87.94 98.0871 87.1548 97.8245 87.1548 97.5359V96.2281C87.1548 96.4907 87.94 96.7767 89.4843 96.9613C92.4663 97.3278 97.1745 97.2758 100.001 96.8313C101.361 96.6233 102.042 96.3607 102.042 96.0981Z" fill="#FBE62E" stroke="black" stroke-width="0.75" stroke-linejoin="round"/>
<path d="M99.7126 95.3675C102.695 95.7341 102.825 96.3866 100.001 96.8312C97.1752 97.2758 92.4669 97.3277 89.4849 96.9612C86.5029 96.5946 86.373 95.942 89.1964 95.4975C92.0224 95.0529 96.7306 95.0009 99.7126 95.3675Z" fill="#FBE62E"/>
<path d="M102.042 93.9014V95.2091C102.042 95.4717 101.361 95.7317 100.001 95.9423C97.1745 96.3869 92.4663 96.4389 89.4843 96.0723C87.94 95.8903 87.1548 95.6277 87.1548 95.3391V94.0314C87.1548 94.294 87.94 94.58 89.4843 94.7646C92.4663 95.1311 97.1745 95.0791 100.001 94.6346C101.361 94.4266 102.042 94.164 102.042 93.9014Z" fill="#FBE62E" stroke="black" stroke-width="0.75" stroke-linejoin="round"/>
<path d="M94.5976 95.0304C98.7001 94.9914 102.023 94.4896 102.018 93.9125C102.012 93.3353 98.6819 92.8986 94.5768 92.9375C90.4743 92.9765 87.1517 93.4783 87.1569 94.0555C87.1621 94.6326 90.4925 95.0694 94.5976 95.0304Z" fill="#FBE62E"/>
<path d="M102.042 91.731V93.0387C102.042 93.3013 101.361 93.5613 100.001 93.7719C97.1745 94.2164 92.4663 94.2684 89.4843 93.9019C87.94 93.7199 87.1548 93.4313 87.1548 93.1687V91.861C87.1548 92.1236 87.94 92.4096 89.4843 92.5942C92.4663 92.9607 97.1745 92.9087 100.001 92.4642C101.361 92.2276 102.042 91.9676 102.042 91.731Z" fill="#FBE62E" stroke="black" stroke-width="0.75" stroke-linejoin="round"/>
<path d="M99.7126 90.9999C102.695 91.3665 102.825 92.019 100.001 92.4636C97.1752 92.9082 92.4669 92.9602 89.4849 92.5936C86.5029 92.227 86.373 91.5745 89.1964 91.1299C92.0224 90.6853 96.7306 90.6333 99.7126 90.9999Z" fill="#FBE62E"/>
<path d="M102.042 89.5337V90.8414C102.042 91.1039 101.361 91.3639 100.001 91.5745C97.1745 92.0191 92.4663 92.0711 89.4843 91.7045C87.94 91.5225 87.1548 91.2599 87.1548 90.9714V89.6637C87.1548 89.9262 87.94 90.2122 89.4843 90.3968C92.4663 90.7634 97.1745 90.7114 100.001 90.2668C101.361 90.0588 102.042 89.7962 102.042 89.5337Z" fill="#FBE62E" stroke="black" stroke-width="0.75" stroke-linejoin="round"/>
<path d="M99.7126 88.803C102.695 89.1696 102.825 89.8222 100.001 90.2667C97.1752 90.7113 92.4669 90.7633 89.4849 90.3967C86.5029 90.0301 86.373 89.3776 89.1964 88.933C92.0224 88.4885 96.7306 88.4365 99.7126 88.803Z" fill="#FBE62E"/>
<path d="M102.042 87.3369V88.6446C102.042 88.9072 101.361 89.1672 100.001 89.3777C97.1745 89.8223 92.4663 89.8743 89.4843 89.5077C87.94 89.3257 87.1548 89.0632 87.1548 88.7746V87.4669C87.1548 87.7295 87.94 88.0154 89.4843 88.2C92.4663 88.5666 97.1745 88.5146 100.001 88.07C101.361 87.862 102.042 87.5995 102.042 87.3369Z" fill="#FBE62E" stroke="black" stroke-width="0.75" stroke-linejoin="round"/>
<path d="M94.5976 88.4654C98.7001 88.4264 102.023 87.9246 102.018 87.3474C102.012 86.7703 98.6819 86.3335 94.5768 86.3725C90.4743 86.4115 87.1517 86.9133 87.1569 87.4904C87.1621 88.0676 90.4925 88.5044 94.5976 88.4654Z" fill="#FBE62E"/>
<path d="M102.042 85.1401V86.4478C102.042 86.7104 101.361 86.9704 100.001 87.181C97.1745 87.6255 92.4663 87.6775 89.4843 87.311C87.94 87.129 87.1548 86.8664 87.1548 86.5778V85.2701C87.1548 85.5327 87.94 85.8187 89.4843 86.0032C92.4663 86.3698 97.1745 86.3178 100.001 85.8733C101.361 85.6653 102.042 85.4027 102.042 85.1401Z" fill="#FBE62E" stroke="black" stroke-width="0.75" stroke-linejoin="round"/>
<path d="M99.7126 84.41C102.695 84.7765 102.825 85.4291 100.001 85.8737C97.1752 86.3182 92.4669 86.3702 89.4849 86.0037C86.5029 85.6371 86.373 84.9845 89.1964 84.54C92.0224 84.0954 96.7306 84.0434 99.7126 84.41Z" fill="#FBE62E"/>
<path d="M102.042 82.9434V84.2511C102.042 84.5137 101.361 84.7737 100.001 84.9843C97.1745 85.4288 92.4663 85.4808 89.4843 85.1143C87.94 84.9323 87.1548 84.6697 87.1548 84.3811V83.0734C87.1548 83.336 87.94 83.622 89.4843 83.8066C92.4663 84.1731 97.1745 84.1211 100.001 83.6766C101.361 83.4686 102.042 83.206 102.042 82.9434Z" fill="#FBE62E" stroke="black" stroke-width="0.75" stroke-linejoin="round"/>
<path d="M99.7126 82.2127C102.695 82.5793 102.825 83.2318 100.001 83.6764C97.1752 84.121 92.4669 84.1731 89.4849 83.8065C86.5029 83.4399 86.373 82.7874 89.1964 82.3428C92.0224 81.8982 96.7306 81.8461 99.7126 82.2127Z" fill="#FBE62E" stroke="black" stroke-width="0.75" stroke-linejoin="round"/>
<path d="M92.7016 96.5864V97.8941C92.7016 98.1567 92.0205 98.4167 90.6608 98.6272C87.8348 99.0718 83.1265 99.1238 80.1446 98.7572C78.6003 98.5753 77.8151 98.2867 77.8151 98.0241V96.7164C77.8151 96.979 78.6003 97.2649 80.1446 97.4495C83.1265 97.8161 87.8348 97.7641 90.6608 97.3195C92.0465 97.083 92.7016 96.823 92.7016 96.5864Z" fill="#FBE62E" stroke="black" stroke-width="0.75" stroke-linejoin="round"/>
<path d="M85.2889 97.6885C89.3914 97.6495 92.7139 97.1477 92.7087 96.5706C92.7035 95.9934 89.3732 95.5567 85.2681 95.5957C81.1655 95.6346 77.843 96.1364 77.8482 96.7136C77.8534 97.2907 81.1838 97.7275 85.2889 97.6885Z" fill="#FBE62E"/>
<path d="M92.7016 94.5195V95.8272C92.7016 96.0898 92.0205 96.3498 90.6608 96.5603C87.8348 97.0049 83.1265 97.0569 80.1446 96.6903C78.6003 96.5084 77.8151 96.2458 77.8151 95.9572V94.6495C77.8151 94.9121 78.6003 95.198 80.1446 95.3826C83.1265 95.7492 87.8348 95.6972 90.6608 95.2526C92.0465 95.0447 92.7016 94.7821 92.7016 94.5195Z" fill="#FBE62E" stroke="black" stroke-width="0.75" stroke-linejoin="round"/>
<path d="M90.4001 93.7889C93.3821 94.1554 93.5121 94.808 90.6887 95.2526C87.8627 95.6971 83.1544 95.7491 80.1724 95.3826C77.1904 95.016 77.0605 94.3634 79.8839 93.9189C82.7099 93.4743 87.4181 93.4223 90.4001 93.7889Z" fill="#FBE62E"/>
<path d="M92.7016 92.4551V93.7629C92.7016 94.0254 92.0205 94.2854 90.6608 94.496C87.8348 94.9406 83.1265 94.9926 80.1446 94.626C78.6003 94.444 77.8151 94.1814 77.8151 93.8928V92.5851C77.8151 92.8477 78.6003 93.1337 80.1446 93.3183C83.1265 93.6849 87.8348 93.6329 90.6608 93.1883C92.0465 92.9803 92.7016 92.7177 92.7016 92.4551Z" fill="#FBE62E" stroke="black" stroke-width="0.75" stroke-linejoin="round"/>
<path d="M90.4001 91.722C93.3821 92.0886 93.5121 92.7411 90.6887 93.1857C87.8627 93.6302 83.1544 93.6822 80.1724 93.3157C77.1904 92.9491 77.0605 92.2965 79.8839 91.852C82.7099 91.4074 87.4181 91.3554 90.4001 91.722Z" fill="#FBE62E" stroke="black" stroke-width="0.75" stroke-linejoin="round"/>
<path d="M55.0075 30.0676C59.6118 30.0676 63.3425 26.3369 63.3425 21.7352C63.3425 17.1335 59.6118 13.4028 55.0075 13.4028C50.4032 13.4028 46.6725 17.1335 46.6725 21.7352C46.6725 26.3369 50.4032 30.0676 55.0075 30.0676Z" fill="#FBE62E" stroke="black" stroke-width="0.75" stroke-linejoin="round"/>
<path d="M55.0075 30.0676C59.6118 30.0676 63.3425 26.3369 63.3425 21.7352C63.3425 17.1335 59.6118 13.4028 55.0075 13.4028C50.4032 13.4028 46.6725 17.1335 46.6725 21.7352C46.6725 26.3369 50.4032 30.0676 55.0075 30.0676Z" fill="#FBE62E" stroke="black" stroke-width="0.75" stroke-linejoin="round"/>
<path d="M55.0086 28.2581C58.6119 28.2581 61.5342 25.3359 61.5342 21.7325C61.5342 18.1292 58.6119 15.207 55.0086 15.207C51.4053 15.207 48.4831 18.1292 48.4831 21.7325C48.4831 25.3359 51.4053 28.2581 55.0086 28.2581Z" fill="#FBE62E" stroke="black" stroke-width="0.75" stroke-linejoin="round"/>
<path d="M55.0072 15.2096C54.8772 15.2096 54.7498 15.2096 54.651 15.2408C58.27 15.4358 61.0154 18.4698 60.8542 22.0887C60.693 25.4477 58.01 28.1281 54.651 28.2893C54.781 28.2893 54.8772 28.3205 55.0072 28.3205C58.6261 28.2555 61.5015 25.2527 61.4053 21.6337C61.3404 18.1136 58.53 15.272 55.0072 15.207V15.2096Z" fill="black"/>
<path d="M26.5593 95.9365V97.2988C26.5593 97.5718 25.8496 97.8448 24.4327 98.0605C21.4897 98.5233 16.5838 98.5779 13.477 98.1957C11.8704 98.0059 11.0514 97.733 11.0514 97.434V96.0717C11.0514 96.3447 11.8678 96.6436 13.477 96.8334C16.5838 97.2156 21.4897 97.161 24.4327 96.6982C25.8782 96.4799 26.5593 96.2069 26.5593 95.9365Z" fill="#FBE62E" stroke="black" stroke-width="0.75" stroke-linejoin="round"/>
<path d="M18.8308 97.1114C23.1049 97.0698 26.5652 96.5498 26.56 95.9467C26.5548 95.3435 23.0841 94.8911 18.81 94.9301C14.5359 94.9717 11.0755 95.4917 11.0807 96.0949C11.0859 96.698 14.5567 97.1504 18.8308 97.1114Z" fill="#FBE62E"/>
<path d="M26.5593 93.8101V95.1724C26.5593 95.4454 25.8496 95.7184 24.4327 95.9342C21.4897 96.3969 16.5838 96.4515 13.477 96.0694C11.8704 95.8796 11.0514 95.6066 11.0514 95.3076V93.9453C11.0514 94.2183 11.8678 94.5173 13.477 94.7071C16.5838 95.0892 21.4897 95.0346 24.4327 94.5719C25.8782 94.3535 26.5593 94.0805 26.5593 93.8101Z" fill="#FBE62E" stroke="black" stroke-width="0.75" stroke-linejoin="round"/>
<path d="M24.1311 93.0478C27.2379 93.4299 27.373 94.1111 24.4301 94.5738C21.4871 95.0366 16.5812 95.0912 13.4744 94.709C10.3676 94.3269 10.2325 93.6457 13.1755 93.1829C16.1185 92.7202 21.0503 92.637 24.1311 93.0478Z" fill="#FBE62E"/>
<path d="M26.5593 91.6572V93.0195C26.5593 93.2925 25.8496 93.5655 24.4327 93.7812C21.4897 94.244 16.5838 94.2986 13.477 93.9164C11.8704 93.7266 11.0514 93.4537 11.0514 93.1547V91.7924C11.0514 92.0654 11.8678 92.3643 13.477 92.5541C16.5838 92.9363 21.4897 92.8817 24.4327 92.4189C25.8782 92.2006 26.5593 91.9276 26.5593 91.6572Z" fill="#FBE62E" stroke="black" stroke-width="0.75" stroke-linejoin="round"/>
<path d="M24.1311 90.8954C27.2379 91.2776 27.373 91.9587 24.4301 92.4215C21.4871 92.8843 16.5812 92.9389 13.4744 92.5567C10.3676 92.1745 10.2325 91.4934 13.1755 91.0306C16.1185 90.5678 21.0503 90.5132 24.1311 90.8954Z" fill="#FBE62E" stroke="black" stroke-width="0.75" stroke-linejoin="round"/>
</svg>
