<svg width="114" height="113" viewBox="0 0 114 113" fill="none" xmlns="http://www.w3.org/2000/svg">
<path d="M93.403 102.372V72.7329H89.6044V102.372H93.403Z" fill="#E9F1FF" stroke="#1D1D1B" stroke-width="0.75" stroke-miterlimit="10"/>
<path d="M56.5319 102.372V72.7329H52.7333V102.372H56.5319Z" fill="#E9F1FF" stroke="#1D1D1B" stroke-width="0.75" stroke-miterlimit="10"/>
<path d="M69.237 102.372V72.7329H65.4384V102.372H69.237Z" fill="#E9F1FF" stroke="#1D1D1B" stroke-width="0.75" stroke-miterlimit="10"/>
<path d="M106.11 102.372V72.7329H102.312V102.372H106.11Z" fill="#D5E3FC" stroke="#1D1D1B" stroke-width="0.75" stroke-miterlimit="10"/>
<path d="M93.405 56.73H7.05923V61.1446H93.405V56.73Z" fill="#E9F1FF" stroke="#1D1D1B" stroke-width="0.75" stroke-miterlimit="10"/>
<path d="M10.8346 102.441V56.7612H7.03601V102.441H10.8346Z" fill="#E9F1FF" stroke="#1D1D1B" stroke-width="0.75" stroke-miterlimit="10"/>
<path d="M106.11 56.73H93.403V61.1446H106.11V56.73Z" fill="#D5E3FC" stroke="#1D1D1B" stroke-width="0.75" stroke-miterlimit="10"/>
<path d="M106.11 61.1445H93.403V73.4948H106.11V61.1445Z" fill="#D5E3FC" stroke="#1D1D1B" stroke-width="0.75" stroke-miterlimit="10"/>
<path d="M93.4032 61.1445H52.7331V73.4652H93.4032V61.1445Z" fill="#E9F1FF" stroke="#1D1D1B" stroke-width="0.75" stroke-miterlimit="10"/>
<path d="M73.0674 69.3118C74.0212 69.3118 74.7943 68.4133 74.7943 67.3049C74.7943 66.1965 74.0212 65.2979 73.0674 65.2979C72.1137 65.2979 71.3405 66.1965 71.3405 67.3049C71.3405 68.4133 72.1137 69.3118 73.0674 69.3118Z" fill="black" stroke="#1D1D1B" stroke-width="0.75" stroke-miterlimit="10"/>
<path d="M91.3264 18.4028H40.803C39.0644 18.4028 37.6549 19.8131 37.6549 21.5528V46.4655C37.6549 48.2052 39.0644 49.6156 40.803 49.6156H91.3264C93.065 49.6156 94.4744 48.2052 94.4744 46.4655V21.5528C94.4744 19.8131 93.065 18.4028 91.3264 18.4028Z" fill="#D5DDE0" stroke="#1D1D1B" stroke-width="0.75" stroke-miterlimit="10"/>
<path d="M90.7258 21.6133H41.403V46.402H90.7258V21.6133Z" fill="#549CF1" stroke="black" stroke-width="0.75" stroke-linecap="round" stroke-linejoin="round"/>
<path d="M70.2345 49.6157H61.8971V54.1002H70.2345V49.6157Z" fill="#D5DDE0" stroke="#1D1D1B" stroke-width="0.75" stroke-miterlimit="10"/>
<path d="M90.7258 21.6133H41.403V46.402H90.7258V21.6133Z" stroke="black" stroke-width="0.75" stroke-linecap="round" stroke-linejoin="round"/>
<path d="M52.8424 54.1958H79.2851V56.5423H52.8424V54.1958Z" fill="#D9D9D9" stroke="black" stroke-width="0.75"/>
<path d="M32.2394 80.0674H29.5983V96.1101H32.2394V80.0674Z" fill="#9BAEB5" stroke="#1D1D1B" stroke-width="0.75" stroke-miterlimit="10"/>
<path d="M15.5553 96.1518V95.0783C15.5553 94.643 15.7234 94.2254 16.0226 93.9176C16.3218 93.6097 16.7275 93.4368 17.1506 93.4368H44.6858C45.1089 93.4368 45.5146 93.6097 45.8138 93.9176C46.113 94.2254 46.2811 94.643 46.2811 95.0783V96.1518H15.5553Z" fill="#9BAEB5" stroke="#1D1D1B" stroke-width="0.75" stroke-miterlimit="10"/>
<path d="M44.6746 102.286C46.4815 102.286 47.9462 100.779 47.9462 98.9192C47.9462 97.0599 46.4815 95.5527 44.6746 95.5527C42.8677 95.5527 41.403 97.0599 41.403 98.9192C41.403 100.779 42.8677 102.286 44.6746 102.286Z" fill="#6D8894" stroke="#1D1D1B" stroke-width="0.75" stroke-miterlimit="10"/>
<path d="M31.4711 95.5527H30.2405C29.3217 95.5527 28.5768 96.3191 28.5768 97.2646V100.73C28.5768 101.676 29.3217 102.442 30.2405 102.442H31.4711C32.3899 102.442 33.1348 101.676 33.1348 100.73V97.2646C33.1348 96.3191 32.3899 95.5527 31.4711 95.5527Z" fill="#6D8894" stroke="#1D1D1B" stroke-width="0.75" stroke-miterlimit="10"/>
<path d="M47.1562 79.3953H15.5568C13.6754 79.3953 12.151 77.9206 12.151 76.1018C12.151 72.1127 17.3522 71.9746 18.6259 73.7724C20.6997 72.1153 24.9057 72.0162 27.0556 73.7724C29.3067 72.2299 33.4038 72.1153 35.5663 73.7724C37.8858 72.1153 41.7347 72.0579 43.953 73.7724C45.6951 71.5082 50.4531 72.5869 50.4531 76.1018C50.4516 76.5423 50.3645 76.978 50.1971 77.3834C50.0297 77.7887 49.7852 78.1556 49.4781 78.4624C49.1709 78.7692 48.8074 79.0097 48.4086 79.17C48.0099 79.3302 47.5841 79.4068 47.1562 79.3953Z" fill="#FD9EC0" stroke="#1D1D1B" stroke-width="0.75" stroke-miterlimit="10"/>
<path d="M44.6747 100.23C45.3782 100.23 45.9484 99.6428 45.9484 98.919C45.9484 98.1952 45.3782 97.6084 44.6747 97.6084C43.9713 97.6084 43.401 98.1952 43.401 98.919C43.401 99.6428 43.9713 100.23 44.6747 100.23Z" fill="#4A687B" stroke="#1D1D1B" stroke-width="0.75" stroke-miterlimit="10"/>
<path d="M17.3504 102.286C19.1572 102.286 20.622 100.779 20.622 98.9192C20.622 97.0599 19.1572 95.5527 17.3504 95.5527C15.5435 95.5527 14.0788 97.0599 14.0788 98.9192C14.0788 100.779 15.5435 102.286 17.3504 102.286Z" fill="#6D8894" stroke="#1D1D1B" stroke-width="0.75" stroke-miterlimit="10"/>
<path d="M17.3505 100.23C18.054 100.23 18.6242 99.6428 18.6242 98.919C18.6242 98.1952 18.054 97.6084 17.3505 97.6084C16.6471 97.6084 16.0768 98.1952 16.0768 98.919C16.0768 99.6428 16.6471 100.23 17.3505 100.23Z" fill="#4A687B" stroke="#1D1D1B" stroke-width="0.75" stroke-miterlimit="10"/>
<path d="M14.9854 79.4058H47.2659C47.2659 79.8384 47.0989 80.2533 46.8016 80.5592C46.5043 80.8651 46.1011 81.037 45.6807 81.037H16.5604C16.14 81.037 15.7368 80.8651 15.4395 80.5592C15.1423 80.2533 14.9753 79.8384 14.9753 79.4058H14.9854Z" fill="#9BAEB5" stroke="#1D1D1B" stroke-width="0.75" stroke-miterlimit="10"/>
<path d="M31.7171 81.0366H26.3336C25.605 81.0366 25.0143 81.6444 25.0143 82.3941V82.3967C25.0143 83.1465 25.605 83.7542 26.3336 83.7542H31.7171C32.4457 83.7542 33.0363 83.1465 33.0363 82.3967V82.3941C33.0363 81.6444 32.4457 81.0366 31.7171 81.0366Z" fill="#6D8894" stroke="#1D1D1B" stroke-width="0.75" stroke-miterlimit="10"/>
<path d="M30.2268 81.042H24.8434C24.1147 81.042 23.5241 81.6497 23.5241 82.3995V82.4021C23.5241 83.1518 24.1147 83.7596 24.8434 83.7596H30.2268C30.9554 83.7596 31.5461 83.1518 31.5461 82.4021V82.3995C31.5461 81.6497 30.9554 81.042 30.2268 81.042Z" fill="#6D8894" stroke="#1D1D1B" stroke-width="0.75" stroke-miterlimit="10"/>
<path d="M28.7366 81.0498H23.3531C22.6245 81.0498 22.0338 81.6576 22.0338 82.4073V82.4099C22.0338 83.1596 22.6245 83.7674 23.3531 83.7674H28.7366C29.4652 83.7674 30.0559 83.1596 30.0559 82.4099V82.4073C30.0559 81.6576 29.4652 81.0498 28.7366 81.0498Z" fill="#6D8894" stroke="#1D1D1B" stroke-width="0.75" stroke-miterlimit="10"/>
<path d="M27.2463 81.0576H21.8629C21.1343 81.0576 20.5436 81.6654 20.5436 82.4151V82.4177C20.5436 83.1675 21.1343 83.7752 21.8629 83.7752H27.2463C27.975 83.7752 28.5656 83.1675 28.5656 82.4177V82.4151C28.5656 81.6654 27.975 81.0576 27.2463 81.0576Z" fill="#9BAEB5" stroke="#1D1D1B" stroke-width="0.75" stroke-miterlimit="10"/>
<path d="M34.2386 46.4419H17.8527C12.3846 46.4419 7.95181 51.0032 7.95181 56.6298C7.95181 62.2565 12.3846 66.8177 17.8527 66.8177H34.2386C39.7067 66.8177 44.1395 62.2565 44.1395 56.6298C44.1395 51.0032 39.7067 46.4419 34.2386 46.4419Z" fill="#FD9EC0" stroke="#1D1D1B" stroke-width="0.75" stroke-miterlimit="10"/>
<path d="M33.3051 48.1274H18.7652C14.2019 48.1274 10.5026 51.9339 10.5026 56.6295V56.6321C10.5026 61.3277 14.2019 65.1342 18.7652 65.1342H33.3051C37.8684 65.1342 41.5676 61.3277 41.5676 56.6321V56.6295C41.5676 51.9339 37.8684 48.1274 33.3051 48.1274Z" fill="#9BAEB5" stroke="#1D1D1B" stroke-width="0.75" stroke-miterlimit="10"/>
<path d="M27.2073 53.9146H21.8238C21.0952 53.9146 20.5046 54.5224 20.5046 55.2721V55.2747C20.5046 56.0245 21.0952 56.6323 21.8238 56.6323H27.2073C27.9359 56.6323 28.5266 56.0245 28.5266 55.2747V55.2721C28.5266 54.5224 27.9359 53.9146 27.2073 53.9146Z" fill="#9BAEB5" stroke="#1D1D1B" stroke-width="0.75" stroke-miterlimit="10"/>
<path d="M27.2073 56.6328H21.8238C21.0952 56.6328 20.5046 57.2406 20.5046 57.9903V57.9929C20.5046 58.7427 21.0952 59.3504 21.8238 59.3504H27.2073C27.9359 59.3504 28.5266 58.7427 28.5266 57.9929V57.9903C28.5266 57.2406 27.9359 56.6328 27.2073 56.6328Z" fill="#9BAEB5" stroke="#1D1D1B" stroke-width="0.75" stroke-miterlimit="10"/>
<path d="M27.2073 59.3477H21.8238C21.0952 59.3477 20.5046 59.9555 20.5046 60.7052V60.7079C20.5046 61.4576 21.0952 62.0654 21.8238 62.0654H27.2073C27.9359 62.0654 28.5266 61.4576 28.5266 60.7079V60.7052C28.5266 59.9555 27.9359 59.3477 27.2073 59.3477Z" fill="#9BAEB5" stroke="#1D1D1B" stroke-width="0.75" stroke-miterlimit="10"/>
<path d="M27.2073 62.0654H21.8238C21.0952 62.0654 20.5046 62.6732 20.5046 63.4229V63.4255C20.5046 64.1753 21.0952 64.783 21.8238 64.783H27.2073C27.9359 64.783 28.5266 64.1753 28.5266 63.4255V63.4229C28.5266 62.6732 27.9359 62.0654 27.2073 62.0654Z" fill="#9BAEB5" stroke="#1D1D1B" stroke-width="0.75" stroke-miterlimit="10"/>
<path d="M27.2073 64.7827H21.8238C21.0952 64.7827 20.5046 65.3905 20.5046 66.1402V66.1428C20.5046 66.8926 21.0952 67.5003 21.8238 67.5003H27.2073C27.9359 67.5003 28.5266 66.8926 28.5266 66.1428V66.1402C28.5266 65.3905 27.9359 64.7827 27.2073 64.7827Z" fill="#9BAEB5" stroke="#1D1D1B" stroke-width="0.75" stroke-miterlimit="10"/>
<path d="M27.2073 67.5005H21.8238C21.0952 67.5005 20.5046 68.1082 20.5046 68.858V68.8606C20.5046 69.6103 21.0952 70.2181 21.8238 70.2181H27.2073C27.9359 70.2181 28.5266 69.6103 28.5266 68.8606V68.858C28.5266 68.1082 27.9359 67.5005 27.2073 67.5005Z" fill="#9BAEB5" stroke="#1D1D1B" stroke-width="0.75" stroke-miterlimit="10"/>
<path d="M27.2073 70.2183H21.8238C21.0952 70.2183 20.5046 70.8261 20.5046 71.5758V71.5785C20.5046 72.3282 21.0952 72.936 21.8238 72.936H27.2073C27.9359 72.936 28.5266 72.3282 28.5266 71.5785V71.5758C28.5266 70.8261 27.9359 70.2183 27.2073 70.2183Z" fill="#9BAEB5" stroke="#1D1D1B" stroke-width="0.75" stroke-miterlimit="10"/>
<path d="M27.2073 72.936H21.8238C21.0952 72.936 20.5046 73.5438 20.5046 74.2935V74.2961C20.5046 75.0459 21.0952 75.6537 21.8238 75.6537H27.2073C27.9359 75.6537 28.5266 75.0459 28.5266 74.2961V74.2935C28.5266 73.5438 27.9359 72.936 27.2073 72.936Z" fill="#9BAEB5" stroke="#1D1D1B" stroke-width="0.75" stroke-miterlimit="10"/>
<path d="M27.2073 75.6509H21.8238C21.0952 75.6509 20.5046 76.2587 20.5046 77.0085V77.0111C20.5046 77.7608 21.0952 78.3686 21.8238 78.3686H27.2073C27.9359 78.3686 28.5266 77.7608 28.5266 77.0111V77.0085C28.5266 76.2587 27.9359 75.6509 27.2073 75.6509Z" fill="#9BAEB5" stroke="#1D1D1B" stroke-width="0.75" stroke-miterlimit="10"/>
<path d="M27.2073 78.3687H21.8238C21.0952 78.3687 20.5046 78.9765 20.5046 79.7262V79.7288C20.5046 80.4786 21.0952 81.0864 21.8238 81.0864H27.2073C27.9359 81.0864 28.5266 80.4786 28.5266 79.7288V79.7262C28.5266 78.9765 27.9359 78.3687 27.2073 78.3687Z" fill="#9BAEB5" stroke="#1D1D1B" stroke-width="0.75" stroke-miterlimit="10"/>
<path d="M24.8322 61.5543C26.0055 61.5543 26.9567 60.5756 26.9567 59.3682C26.9567 58.1609 26.0055 57.1821 24.8322 57.1821C23.6588 57.1821 22.7077 58.1609 22.7077 59.3682C22.7077 60.5756 23.6588 61.5543 24.8322 61.5543Z" fill="#6D8894" stroke="#1D1D1B" stroke-width="0.75" stroke-miterlimit="10"/>
<path d="M23.8361 61.5543C25.0094 61.5543 25.9606 60.5756 25.9606 59.3682C25.9606 58.1609 25.0094 57.1821 23.8361 57.1821C22.6628 57.1821 21.7116 58.1609 21.7116 59.3682C21.7116 60.5756 22.6628 61.5543 23.8361 61.5543Z" fill="#9BAEB5" stroke="#1D1D1B" stroke-width="0.75" stroke-miterlimit="10"/>
</svg>
