<svg width="224" height="176" viewBox="0 0 224 176" fill="none" xmlns="http://www.w3.org/2000/svg">
<path d="M134.429 153.675C139.264 152.163 143.602 150.618 148.821 147.686C154.204 144.662 178.114 130.272 181.224 105.366C182.038 98.5396 181.362 91.618 179.242 85.0788C178.281 82.2602 176.287 76.5992 171.256 71.0007C165.097 64.1432 158.069 61.4854 153.948 59.9823C147.733 57.747 141.138 56.7667 134.542 57.0982C130.805 57.2203 124.208 57.4941 116.71 60.771C111.819 62.9081 108.778 65.3457 104.297 68.9887C97.1972 74.7658 96.2629 77.1707 83.8435 89.0999C80.4336 92.3739 77.6307 94.9543 73.3521 97.4961C70.3855 99.2581 67.9873 100.243 63.5629 102.041C52.6876 106.461 49.5912 107.356 46.0326 109.844C39.1117 114.687 39.56 119.968 39.2624 121.104C38.4887 124.012 38.3096 127.046 38.7358 130.025C39.6433 135.998 42.8598 139.903 44.8563 142.266C47.5968 145.481 50.9177 148.15 54.6455 150.136C57.2334 151.502 59.9139 152.684 62.6673 153.675L134.429 153.675Z" fill="#D5EFC8"/>
<path d="M149.78 149.453L149.634 149.194C156.745 145.197 180.191 130.215 183.309 105.222C184.15 98.1345 183.449 90.9488 181.252 84.1581C180.366 81.5592 178.292 75.4731 172.966 69.5455C166.444 62.2859 158.998 59.5692 154.998 58.1099C148.543 55.7857 141.691 54.7671 134.84 55.113C131.143 55.2333 124.262 55.4573 116.32 58.9262L116.201 58.6535C124.195 55.1616 131.378 54.9279 134.83 54.8157C141.719 54.4676 148.609 55.4923 155.099 57.8302C159.124 59.2985 166.616 62.0317 173.188 69.3467C178.554 75.3194 180.642 81.4458 181.534 84.062C183.744 90.8956 184.451 98.1266 183.605 105.259C180.469 130.39 156.922 145.439 149.78 149.453Z" fill="#D5EFC8"/>
<path d="M62.7373 50.5613L65.0638 62.8175L69.8117 64.5851L74.5591 62.8175L76.8856 50.5613H62.7373Z" fill="#FFBA55"/>
<path d="M82.3121 45.5747C81.9871 45.264 81.5781 45.0556 81.1358 44.9751C80.6935 44.8947 80.2373 44.9458 79.8237 45.1221C79.5974 45.2315 79.3959 45.3861 79.2316 45.5764C79.0674 45.7666 78.9438 45.9886 78.8686 46.2285C78.8499 46.2953 78.6314 47.1268 79.1451 47.6616C79.3868 47.9134 79.8389 48.1494 80.1505 47.9885C80.227 47.9506 80.2926 47.8937 80.341 47.8233C80.3894 47.7529 80.419 47.6713 80.4269 47.5862C80.4256 47.4451 80.3251 47.416 80.2762 47.2342C80.221 47.0291 80.262 46.7439 80.4019 46.681C80.5506 46.6141 80.8108 46.7989 80.9297 47.0079C81.1512 47.3972 80.9554 47.9998 80.6197 48.3405C80.0758 48.8925 79.1817 48.7394 78.8099 48.6758C77.9896 48.5073 77.2544 48.0565 76.732 47.4018C76.3411 46.9878 76.064 46.4796 75.9276 45.9267C75.8334 45.3918 75.8563 44.8428 75.9947 44.3175C76.2069 43.2988 76.4705 43.1478 76.933 41.8366C77.2837 40.8427 77.4579 40.3312 77.4023 39.624C77.386 39.015 77.1745 38.4274 76.799 37.9478C76.3387 37.4138 75.6906 37.0777 74.9892 37.0091C74.5531 36.9825 74.1166 37.0529 73.7109 37.2152C73.3053 37.3775 72.9406 37.6277 72.6432 37.9478L71.8053 36.9976C71.8053 36.9976 72.8107 36.6235 71.3529 34.1092L71.6293 33.8954C71.6293 30.8268 70.4107 27.8838 68.2415 25.714C66.0723 23.5441 63.1303 22.3251 60.0626 22.3251C56.9949 22.3251 54.0528 23.5441 51.8836 25.714C49.7144 27.8838 48.4958 30.8268 48.4958 33.8954L47.324 65.3041H46.9207C46.8017 65.3039 46.6839 65.3271 46.5739 65.3725C46.4639 65.4179 46.3639 65.4846 46.2797 65.5686C46.1955 65.6527 46.1287 65.7526 46.0831 65.8625C46.0376 65.9724 46.0141 66.0903 46.0141 66.2093C46.0141 66.3283 46.0376 66.4461 46.0831 66.5561C46.1287 66.666 46.1955 66.7659 46.2797 66.8499C46.3639 66.934 46.4639 67.0006 46.5739 67.046C46.6839 67.0914 46.8017 67.1147 46.9207 67.1144H47.2564L47.1156 70.8916H46.9207C46.8017 70.8914 46.6839 70.9146 46.5739 70.96C46.4639 71.0054 46.3639 71.072 46.2797 71.1561C46.1955 71.2402 46.1287 71.34 46.0831 71.45C46.0376 71.5599 46.0141 71.6777 46.0141 71.7968C46.0141 71.9158 46.0376 72.0336 46.0831 72.1435C46.1287 72.2535 46.1955 72.3533 46.2797 72.4374C46.3639 72.5215 46.4639 72.5881 46.5739 72.6335C46.6839 72.6789 46.8017 72.7022 46.9207 72.7019H47.0481L44.1123 151.396H43.9378C43.6356 151.396 43.3458 151.516 43.1321 151.73C42.9184 151.944 42.7983 152.233 42.7983 152.536C42.7983 152.838 42.9184 153.128 43.1321 153.342C43.3458 153.556 43.6356 153.676 43.9378 153.676H56.5059C56.8081 153.676 57.0979 153.556 57.3116 153.342C57.5253 153.128 57.6453 152.838 57.6453 152.536C57.6453 152.233 57.5253 151.944 57.3116 151.73C57.0979 151.516 56.8081 151.396 56.5059 151.396H56.2308L53.295 72.7019H53.4225C53.5415 72.7022 53.6593 72.6789 53.7693 72.6335C53.8793 72.5881 53.9792 72.5215 54.0634 72.4374C54.1477 72.3533 54.2145 72.2535 54.26 72.1435C54.3056 72.0336 54.3291 71.9158 54.3291 71.7968C54.3291 71.6777 54.3056 71.5599 54.26 71.45C54.2145 71.34 54.1477 71.2402 54.0634 71.1561C53.9792 71.072 53.8793 71.0054 53.7693 70.96C53.6593 70.9146 53.5415 70.8914 53.4225 70.8916H53.2275L53.0866 67.1144H53.4225C53.5415 67.1147 53.6593 67.0914 53.7693 67.046C53.8793 67.0006 53.9792 66.934 54.0634 66.8499C54.1477 66.7659 54.2145 66.666 54.26 66.5561C54.3056 66.4461 54.3291 66.3283 54.3291 66.2093C54.3291 66.0903 54.3056 65.9724 54.26 65.8625C54.2145 65.7526 54.1477 65.6527 54.0634 65.5686C53.9792 65.4846 53.8793 65.4179 53.7693 65.3725C53.6593 65.3271 53.5415 65.3039 53.4225 65.3041H53.019L51.8473 33.8954C51.8473 31.7159 52.7128 29.6257 54.2535 28.0846C55.7941 26.5434 57.8837 25.6776 60.0626 25.6776C62.2414 25.6776 64.331 26.5434 65.8717 28.0846C67.4123 29.6257 68.2779 31.7159 68.2779 33.8954L68.5544 34.1092C67.0965 36.6235 68.1019 36.9976 68.1019 36.9976L67.2641 37.9478C66.9666 37.6277 66.602 37.3775 66.1963 37.2152C65.7907 37.0529 65.3541 36.9825 64.9181 37.0091C64.2166 37.0777 63.5685 37.4138 63.1083 37.9478C62.7328 38.4274 62.5213 39.015 62.505 39.624C62.4494 40.3312 62.6235 40.8427 62.9742 41.8366C63.4368 43.1478 63.7003 43.2988 63.9126 44.3175C64.051 44.8428 64.0738 45.3918 63.9796 45.9267C63.8433 46.4796 63.5662 46.9878 63.1753 47.4018C62.6529 48.0565 61.9176 48.5073 61.0973 48.6758C60.7256 48.7394 59.8315 48.8925 59.2876 48.3405C58.9519 47.9998 58.7561 47.3972 58.9776 47.0079C59.0964 46.7989 59.3566 46.6141 59.5054 46.681C59.6453 46.7439 59.6863 47.0291 59.6311 47.2342C59.5821 47.416 59.4817 47.4451 59.4803 47.5862C59.4883 47.6713 59.5178 47.7529 59.5662 47.8233C59.6146 47.8937 59.6802 47.9506 59.7568 47.9885C60.0684 48.1494 60.5204 47.9134 60.7622 47.6616C61.2759 47.1268 61.0574 46.2953 61.0387 46.2285C60.9635 45.9886 60.8399 45.7666 60.6756 45.5764C60.5114 45.3861 60.3099 45.2315 60.0836 45.1221C59.67 44.9458 59.2138 44.8947 58.7715 44.9751C58.3292 45.0556 57.9202 45.264 57.5951 45.5747C57.1463 46.0046 56.8769 46.5885 56.841 47.2091C56.7907 48.6251 58.1333 49.5865 58.5 49.8491C59.7924 50.7746 61.2201 50.8142 62.2704 50.8297C65.082 50.8713 67.5771 50.8877 69.9536 50.8814C72.3301 50.8877 74.8253 50.8713 77.6368 50.8297C78.6872 50.8142 80.1148 50.7746 81.4072 49.8491C81.7739 49.5865 83.1166 48.6251 83.0663 47.2091C83.0303 46.5885 82.7609 46.0046 82.3121 45.5747Z" fill="#6B3832"/>
<path d="M62.7373 50.5613L65.0638 62.8175L69.8117 64.5851L74.5591 62.8175L76.8856 50.5613H62.7373ZM63.4115 51.1201H69.5324V63.8848L65.5536 62.4039L63.4115 51.1201ZM74.0692 62.4039L70.091 63.8848V51.1201H76.2114L74.0692 62.4039Z" fill="#6B3832"/>
<path d="M69.8055 66.2096C70.4581 66.2096 70.9871 65.6804 70.9871 65.0277C70.9871 64.375 70.4581 63.8458 69.8055 63.8458C69.153 63.8458 68.624 64.375 68.624 65.0277C68.624 65.6804 69.153 66.2096 69.8055 66.2096Z" fill="#6B3832"/>
<path d="M171.78 153.529L172.013 153.389C171.947 153.28 165.455 142.456 164.444 139.76L164.189 139.855C165.209 142.575 171.512 153.082 171.78 153.529Z" fill="#8B9D36"/>
<path d="M166.517 134.085C166.243 134.766 166.032 135.47 165.89 136.19C165.744 136.894 165.637 137.606 165.569 138.323C165.499 139.039 165.47 139.759 165.481 140.478C165.485 141.212 165.559 141.944 165.702 142.663C165.978 141.983 166.189 141.279 166.331 140.559C166.477 139.854 166.584 139.142 166.651 138.426C166.719 137.709 166.748 136.99 166.737 136.27C166.733 135.537 166.659 134.805 166.517 134.085Z" fill="#8B9D36"/>
<path d="M168.913 137.362C168.578 137.996 168.306 138.66 168.099 139.346C167.89 140.017 167.719 140.699 167.587 141.388C167.453 142.078 167.359 142.774 167.304 143.474C167.242 144.188 167.25 144.907 167.328 145.619C167.664 144.986 167.937 144.322 168.144 143.636C168.352 142.965 168.523 142.283 168.654 141.593C168.786 140.904 168.88 140.207 168.935 139.507C168.996 138.793 168.989 138.075 168.913 137.362Z" fill="#8B9D36"/>
<path d="M170.234 141.178C169.939 141.767 169.707 142.385 169.54 143.022C169.373 143.643 169.243 144.273 169.153 144.91C169.06 145.546 169.008 146.187 168.996 146.83C168.977 147.489 169.027 148.147 169.147 148.795C169.443 148.206 169.676 147.588 169.842 146.951C170.01 146.33 170.139 145.7 170.228 145.063C170.319 144.427 170.371 143.785 170.383 143.142C170.402 142.484 170.352 141.826 170.234 141.178Z" fill="#8B9D36"/>
<path d="M171.896 144.985C171.6 145.478 171.364 146.005 171.193 146.554C171.022 147.085 170.889 147.627 170.794 148.176C170.698 148.725 170.641 149.28 170.625 149.838C170.602 150.413 170.648 150.988 170.763 151.552C171.06 151.059 171.296 150.532 171.467 149.983C171.638 149.453 171.771 148.911 171.865 148.361C171.96 147.812 172.016 147.256 172.032 146.699C172.055 146.125 172.009 145.549 171.896 144.985Z" fill="#8B9D36"/>
<path d="M173.363 147.366C173.061 147.793 172.812 148.256 172.621 148.743C172.433 149.209 172.278 149.686 172.154 150.173C172.032 150.656 171.938 151.145 171.872 151.639C171.842 151.887 171.814 152.135 171.795 152.387C171.786 152.644 171.758 152.9 171.713 153.153C171.776 153.12 171.836 153.082 171.894 153.039L172.04 152.893C172.134 152.792 172.219 152.685 172.296 152.572C172.445 152.354 172.577 152.125 172.69 151.886C172.911 151.423 173.084 150.939 173.207 150.441C173.333 149.947 173.414 149.443 173.45 148.935C173.494 148.411 173.465 147.882 173.363 147.366Z" fill="#8B9D36"/>
<path d="M165.092 141.491C164.599 140.95 164.044 140.469 163.439 140.057C162.856 139.652 162.246 139.288 161.612 138.968C160.98 138.645 160.325 138.368 159.653 138.138C158.964 137.894 158.247 137.732 157.519 137.656C158.011 138.198 158.565 138.68 159.171 139.091C159.754 139.497 160.365 139.86 160.999 140.18C161.632 140.501 162.287 140.777 162.958 141.007C163.648 141.251 164.364 141.414 165.092 141.491Z" fill="#8B9D36"/>
<path d="M166.716 144.524C166.085 144.009 165.402 143.561 164.677 143.19C163.973 142.82 163.247 142.495 162.503 142.216C161.76 141.934 160.999 141.7 160.226 141.515C159.436 141.317 158.627 141.204 157.813 141.178C158.443 141.695 159.126 142.143 159.851 142.515C160.554 142.884 161.281 143.209 162.026 143.487C162.769 143.767 163.53 144.001 164.303 144.186C165.093 144.384 165.902 144.497 166.716 144.524Z" fill="#8B9D36"/>
<path d="M168.627 147.896C168.066 147.398 167.449 146.965 166.79 146.607C166.152 146.253 165.491 145.942 164.812 145.678C164.133 145.411 163.437 145.191 162.728 145.02C162 144.836 161.254 144.737 160.503 144.724C161.063 145.224 161.68 145.657 162.34 146.015C162.977 146.369 163.638 146.679 164.318 146.943C164.998 147.208 165.694 147.428 166.403 147.599C167.131 147.783 167.877 147.882 168.627 147.896Z" fill="#8B9D36"/>
<path d="M170.137 150.49C169.648 150.066 169.105 149.709 168.523 149.427C167.966 149.149 167.388 148.917 166.794 148.731C166.201 148.543 165.593 148.404 164.978 148.314C164.338 148.213 163.688 148.198 163.045 148.269C163.533 148.694 164.076 149.052 164.658 149.334C165.215 149.611 165.794 149.843 166.388 150.027C166.982 150.214 167.589 150.353 168.205 150.443C168.844 150.543 169.494 150.559 170.137 150.49Z" fill="#8B9D36"/>
<path d="M171.329 152.819C170.792 152.303 170.196 151.85 169.555 151.47C168.936 151.095 168.292 150.763 167.628 150.476C166.965 150.187 166.282 149.944 165.585 149.749C164.869 149.541 164.132 149.417 163.387 149.379C163.924 149.897 164.519 150.35 165.16 150.73C165.779 151.105 166.424 151.436 167.088 151.722C167.752 152.01 168.435 152.253 169.132 152.447C169.848 152.655 170.585 152.78 171.329 152.819Z" fill="#8B9D36"/>
<path d="M164.564 140.199C164.664 139.475 164.646 138.739 164.511 138.02C164.393 137.342 164.207 136.678 163.956 136.037C163.708 135.396 163.394 134.781 163.021 134.204C162.631 133.584 162.144 133.032 161.578 132.569C161.476 133.293 161.493 134.03 161.628 134.749C161.746 135.427 161.933 136.091 162.186 136.731C162.436 137.371 162.751 137.985 163.124 138.563C163.513 139.182 164 139.735 164.564 140.199Z" fill="#8B9D36"/>
<path d="M172.48 153.675L172.752 153.67C172.74 152.928 172.418 135.421 168.917 129.876L168.687 130.021C172.147 135.502 172.477 153.494 172.48 153.675Z" fill="#50661A"/>
<path d="M169.926 132.377C169.819 131.565 169.791 130.744 169.845 129.926C169.89 129.13 169.978 128.336 170.11 127.549C170.237 126.765 170.409 125.989 170.612 125.219C170.815 124.444 171.071 123.699 171.344 122.905C171.422 123.102 171.48 123.306 171.52 123.514C171.563 123.719 171.595 123.925 171.615 124.133C171.658 124.542 171.676 124.952 171.67 125.362C171.659 126.17 171.585 126.975 171.449 127.771C171.318 128.565 171.132 129.348 170.892 130.116C170.656 130.904 170.332 131.662 169.926 132.377Z" fill="#50661A"/>
<path d="M165.622 121.291C166.224 121.871 166.74 122.534 167.155 123.26C167.559 123.949 167.903 124.671 168.182 125.419C168.464 126.166 168.68 126.937 168.827 127.721C168.991 128.542 169.036 129.381 168.961 130.214C168.358 129.635 167.841 128.972 167.426 128.246C167.022 127.557 166.679 126.835 166.402 126.086C166.122 125.338 165.907 124.568 165.759 123.783C165.596 122.963 165.549 122.124 165.622 121.291Z" fill="#50661A"/>
<path d="M162.738 125.752C163.452 126.326 164.126 126.948 164.756 127.612C165.38 128.259 165.975 128.92 166.558 129.585L168.288 131.571C168.578 131.897 168.871 132.217 169.181 132.521C169.487 132.842 169.844 133.112 170.237 133.319C169.997 133.36 169.752 133.354 169.514 133.3C169.275 133.253 169.042 133.179 168.818 133.081C168.381 132.889 167.965 132.65 167.578 132.37C166.828 131.82 166.142 131.186 165.536 130.48C164.933 129.788 164.39 129.046 163.913 128.262C163.422 127.476 163.028 126.633 162.738 125.752Z" fill="#50661A"/>
<path d="M162.738 130.215C163.618 130.655 164.458 131.171 165.247 131.759C166.028 132.33 166.779 132.941 167.498 133.589C168.218 134.235 168.904 134.918 169.554 135.636C170.221 136.359 170.822 137.141 171.349 137.972C170.468 137.534 169.628 137.017 168.839 136.43C168.058 135.859 167.307 135.247 166.589 134.598C165.87 133.951 165.184 133.267 164.535 132.55C163.868 131.826 163.267 131.045 162.738 130.215Z" fill="#50661A"/>
<path d="M163.031 133.716C163.917 134.129 164.766 134.619 165.565 135.182C166.357 135.729 167.119 136.316 167.85 136.942C168.582 137.565 169.282 138.226 169.945 138.923C170.626 139.625 171.242 140.387 171.787 141.2C170.9 140.789 170.051 140.298 169.251 139.735C168.46 139.188 167.698 138.601 166.968 137.974C166.236 137.35 165.538 136.688 164.874 135.992C164.193 135.289 163.577 134.528 163.031 133.716Z" fill="#50661A"/>
<path d="M163.227 137.457C164.109 137.789 164.959 138.201 165.766 138.689C166.562 139.161 167.333 139.676 168.074 140.23C168.817 140.783 169.53 141.375 170.208 142.005C170.905 142.64 171.542 143.338 172.109 144.091C171.226 143.761 170.376 143.349 169.569 142.861C168.773 142.389 168.002 141.874 167.262 141.318C166.52 140.765 165.808 140.172 165.129 139.542C164.433 138.907 163.796 138.209 163.227 137.457Z" fill="#50661A"/>
<path d="M163.031 140.173C163.954 140.544 164.843 140.996 165.687 141.522C166.522 142.033 167.331 142.586 168.111 143.178C168.891 143.769 169.642 144.399 170.358 145.067C171.092 145.739 171.765 146.475 172.369 147.265C171.446 146.895 170.556 146.444 169.712 145.918C168.877 145.407 168.068 144.854 167.29 144.26C166.51 143.668 165.76 143.037 165.044 142.37C164.31 141.697 163.636 140.962 163.031 140.173Z" fill="#50661A"/>
<path d="M162.346 142.716C163.307 143.164 164.235 143.679 165.123 144.258C166.005 144.823 166.857 145.419 167.689 146.042C168.523 146.661 169.334 147.307 170.131 147.974C170.935 148.636 171.696 149.324 172.528 150.007C171.993 149.919 171.471 149.766 170.973 149.553C170.48 149.346 169.998 149.114 169.53 148.857C168.608 148.342 167.721 147.765 166.876 147.13C166.034 146.499 165.23 145.82 164.466 145.096C163.688 144.369 162.978 143.573 162.346 142.716Z" fill="#50661A"/>
<path d="M161.515 145.358C162.554 145.761 163.562 146.24 164.53 146.791C165.493 147.327 166.428 147.904 167.341 148.51C168.254 149.116 169.145 149.754 170.014 150.423C170.449 150.758 170.879 151.099 171.305 151.447C171.717 151.812 172.155 152.148 172.615 152.45C172.327 152.45 172.04 152.401 171.768 152.305C171.495 152.224 171.23 152.125 170.968 152.023C170.445 151.816 169.94 151.578 169.445 151.326C168.461 150.82 167.508 150.257 166.589 149.641C165.67 149.029 164.783 148.372 163.93 147.67C163.063 146.967 162.255 146.194 161.515 145.358Z" fill="#50661A"/>
<path d="M170.77 135.484C170.814 134.602 170.944 133.726 171.159 132.868C171.362 132.027 171.613 131.198 171.911 130.385C172.206 129.571 172.549 128.776 172.937 128.002C173.325 127.208 173.791 126.454 174.327 125.752C174.285 126.635 174.155 127.512 173.94 128.369C173.737 129.21 173.485 130.039 173.186 130.852C172.889 131.665 172.546 132.46 172.159 133.234C171.77 134.028 171.305 134.781 170.77 135.484Z" fill="#50661A"/>
<path d="M171.35 138.539C171.516 137.662 171.768 136.802 172.1 135.972C172.419 135.157 172.783 134.36 173.192 133.585C173.598 132.81 174.049 132.058 174.541 131.334C175.037 130.59 175.604 129.897 176.235 129.264C176.07 130.143 175.819 131.003 175.486 131.832C175.168 132.648 174.803 133.445 174.393 134.218C173.985 134.993 173.534 135.745 173.042 136.469C172.546 137.212 171.979 137.905 171.35 138.539Z" fill="#50661A"/>
<path d="M171.788 141.492C172.073 140.601 172.441 139.739 172.886 138.915C173.316 138.104 173.79 137.315 174.304 136.554C174.817 135.792 175.371 135.058 175.964 134.357C176.561 133.636 177.225 132.973 177.946 132.377C177.662 133.268 177.294 134.132 176.849 134.955C176.419 135.767 175.945 136.555 175.429 137.315C174.915 138.076 174.361 138.81 173.768 139.512C173.171 140.232 172.508 140.895 171.788 141.492Z" fill="#50661A"/>
<path d="M172.108 144.752C172.557 143.789 173.083 142.864 173.681 141.986C174.266 141.113 174.89 140.273 175.553 139.464C176.213 138.654 176.912 137.875 177.65 137.127C178.39 136.365 179.192 135.666 180.048 135.036C179.602 136.001 179.076 136.926 178.477 137.803C177.892 138.676 177.268 139.516 176.604 140.324C175.942 141.133 175.242 141.912 174.505 142.66C173.765 143.422 172.963 144.121 172.108 144.752Z" fill="#50661A"/>
<path d="M172.369 148.131C172.919 147.216 173.541 146.346 174.232 145.531C174.907 144.72 175.619 143.945 176.366 143.205C177.111 142.464 177.891 141.757 178.705 141.086C179.525 140.401 180.399 139.784 181.319 139.243C180.771 140.16 180.149 141.03 179.458 141.844C178.782 142.656 178.07 143.431 177.323 144.169C176.576 144.909 175.796 145.615 174.982 146.287C174.162 146.972 173.289 147.588 172.369 148.131Z" fill="#50661A"/>
<path d="M172.528 150.298C173.138 149.508 173.815 148.772 174.552 148.1C175.272 147.432 176.025 146.801 176.808 146.209C177.59 145.616 178.401 145.062 179.24 144.552C180.087 144.025 180.98 143.575 181.906 143.205C181.298 143.996 180.621 144.732 179.884 145.404C179.164 146.072 178.411 146.702 177.627 147.293C176.844 147.885 176.032 148.438 175.194 148.949C174.346 149.475 173.454 149.926 172.528 150.298Z" fill="#50661A"/>
<path d="M172.616 152.107C173.347 151.386 174.138 150.729 174.98 150.141C175.806 149.553 176.658 149.01 177.535 148.51C178.411 148.007 179.311 147.548 180.236 147.131C181.169 146.702 182.137 146.354 183.129 146.091C182.399 146.813 181.609 147.472 180.766 148.059C179.939 148.646 179.087 149.19 178.21 149.689C177.333 150.189 176.433 150.648 175.508 151.065C174.575 151.494 173.608 151.842 172.616 152.107Z" fill="#50661A"/>
<path d="M172.548 153.282C173.426 152.676 174.351 152.143 175.314 151.688C176.263 151.23 177.231 150.822 178.214 150.456C179.197 150.09 180.198 149.771 181.215 149.498C182.243 149.214 183.292 149.015 184.352 148.904C183.476 149.511 182.551 150.045 181.587 150.499C180.638 150.957 179.671 151.368 178.686 151.73C177.702 152.094 176.703 152.415 175.684 152.686C174.657 152.97 173.608 153.169 172.548 153.282Z" fill="#50661A"/>
<path d="M173.024 153.188C173.291 152.742 179.594 142.235 180.614 139.515L180.359 139.419C179.349 142.116 172.856 152.939 172.791 153.048L173.024 153.188Z" fill="#5E7C24"/>
<path d="M178.299 133.788C178.574 134.468 178.784 135.172 178.927 135.892C179.073 136.596 179.18 137.308 179.248 138.025C179.317 138.741 179.347 139.461 179.336 140.18C179.332 140.914 179.258 141.646 179.114 142.365C178.838 141.685 178.628 140.981 178.485 140.261C178.339 139.557 178.233 138.844 178.166 138.128C178.098 137.411 178.069 136.692 178.079 135.972C178.084 135.239 178.157 134.507 178.299 133.788Z" fill="#5E7C24"/>
<path d="M175.903 137.065C176.238 137.698 176.51 138.362 176.717 139.048C176.926 139.719 177.097 140.401 177.229 141.09C177.363 141.78 177.457 142.476 177.511 143.176C177.573 143.89 177.566 144.609 177.488 145.321C177.152 144.688 176.879 144.024 176.672 143.338C176.463 142.667 176.293 141.985 176.162 141.295C176.029 140.606 175.936 139.909 175.881 139.209C175.82 138.495 175.827 137.777 175.903 137.065Z" fill="#5E7C24"/>
<path d="M174.584 140.88C174.878 141.469 175.111 142.087 175.277 142.724C175.445 143.345 175.574 143.975 175.665 144.612C175.757 145.248 175.81 145.889 175.822 146.532C175.841 147.191 175.79 147.849 175.671 148.497C175.375 147.909 175.142 147.29 174.976 146.653C174.808 146.032 174.679 145.402 174.589 144.765C174.498 144.129 174.446 143.487 174.434 142.845C174.415 142.186 174.465 141.528 174.584 140.88Z" fill="#5E7C24"/>
<path d="M172.921 144.689C173.217 145.182 173.453 145.709 173.624 146.258C173.795 146.788 173.928 147.33 174.023 147.88C174.119 148.429 174.176 148.984 174.192 149.541C174.215 150.116 174.169 150.692 174.054 151.255C173.757 150.763 173.521 150.236 173.35 149.687C173.179 149.156 173.046 148.614 172.952 148.065C172.857 147.515 172.801 146.96 172.785 146.403C172.762 145.828 172.807 145.253 172.921 144.689Z" fill="#5E7C24"/>
<path d="M171.454 147.069C171.756 147.497 172.005 147.96 172.196 148.447C172.383 148.913 172.539 149.39 172.662 149.876C172.785 150.359 172.879 150.849 172.944 151.342C172.975 151.591 173.003 151.838 173.021 152.091C173.031 152.348 173.058 152.604 173.103 152.857C173.041 152.823 172.98 152.785 172.923 152.743L172.776 152.596C172.683 152.496 172.597 152.389 172.52 152.276C172.372 152.058 172.24 151.828 172.126 151.59C171.906 151.127 171.733 150.642 171.61 150.144C171.484 149.651 171.403 149.147 171.366 148.639C171.323 148.114 171.352 147.586 171.454 147.069Z" fill="#5E7C24"/>
<path d="M179.724 141.193C180.217 140.652 180.772 140.171 181.377 139.759C181.96 139.354 182.57 138.99 183.204 138.67C183.836 138.347 184.491 138.07 185.163 137.84C185.852 137.596 186.569 137.434 187.297 137.358C186.805 137.9 186.25 138.382 185.645 138.794C185.062 139.199 184.451 139.562 183.817 139.882C183.184 140.203 182.529 140.479 181.858 140.709C181.168 140.953 180.452 141.116 179.724 141.193Z" fill="#5E7C24"/>
<path d="M178.101 144.227C178.732 143.711 179.415 143.263 180.14 142.892C180.843 142.522 181.57 142.197 182.314 141.918C183.057 141.636 183.818 141.402 184.59 141.217C185.381 141.019 186.19 140.906 187.004 140.88C186.374 141.397 185.691 141.845 184.966 142.217C184.262 142.586 183.536 142.911 182.791 143.189C182.047 143.469 181.287 143.703 180.514 143.888C179.724 144.086 178.915 144.199 178.101 144.227Z" fill="#5E7C24"/>
<path d="M176.19 147.598C176.752 147.1 177.368 146.667 178.028 146.309C178.666 145.955 179.326 145.645 180.006 145.38C180.685 145.113 181.381 144.893 182.09 144.722C182.818 144.538 183.564 144.439 184.315 144.427C183.754 144.926 183.138 145.359 182.478 145.717C181.841 146.072 181.179 146.382 180.499 146.645C179.82 146.911 179.124 147.13 178.415 147.301C177.687 147.485 176.941 147.584 176.19 147.598Z" fill="#5E7C24"/>
<path d="M174.68 150.194C175.169 149.77 175.711 149.412 176.294 149.13C176.851 148.853 177.429 148.62 178.023 148.435C178.616 148.247 179.223 148.108 179.839 148.018C180.478 147.917 181.128 147.901 181.772 147.972C181.284 148.397 180.741 148.755 180.158 149.037C179.601 149.315 179.023 149.547 178.429 149.731C177.835 149.917 177.227 150.056 176.612 150.146C175.973 150.247 175.323 150.263 174.68 150.194Z" fill="#5E7C24"/>
<path d="M173.488 152.522C174.025 152.006 174.621 151.554 175.262 151.174C175.881 150.799 176.525 150.467 177.189 150.179C177.852 149.89 178.535 149.647 179.232 149.453C179.948 149.244 180.685 149.12 181.43 149.083C180.893 149.6 180.298 150.054 179.656 150.433C179.038 150.808 178.393 151.14 177.728 151.426C177.065 151.714 176.382 151.956 175.685 152.151C174.969 152.359 174.232 152.483 173.488 152.522Z" fill="#5E7C24"/>
<path d="M180.253 139.901C180.153 139.177 180.171 138.441 180.305 137.722C180.424 137.044 180.61 136.38 180.861 135.739C181.109 135.098 181.423 134.483 181.796 133.906C182.185 133.286 182.673 132.734 183.239 132.271C183.34 132.995 183.323 133.732 183.189 134.451C183.071 135.129 182.884 135.793 182.631 136.433C182.381 137.074 182.066 137.688 181.693 138.265C181.304 138.884 180.817 139.437 180.253 139.901Z" fill="#5E7C24"/>
<path d="M52.1525 153.529L51.9194 153.389C51.9851 153.28 58.4776 142.456 59.4882 139.76L59.7427 139.855C58.7231 142.575 52.4201 153.082 52.1525 153.529Z" fill="#8B9D36"/>
<path d="M57.415 134.085C57.6898 134.766 57.9 135.47 58.0426 136.19C58.1884 136.894 58.2955 137.606 58.3633 138.323C58.433 139.039 58.4625 139.759 58.4517 140.478C58.4476 141.212 58.3734 141.944 58.2302 142.663C57.954 141.983 57.7434 141.279 57.6011 140.559C57.455 139.854 57.3485 139.142 57.2818 138.426C57.2135 137.709 57.1845 136.99 57.195 136.27C57.1995 135.537 57.2732 134.805 57.415 134.085Z" fill="#8B9D36"/>
<path d="M55.0188 137.362C55.3534 137.996 55.6261 138.66 55.8331 139.346C56.0419 140.017 56.2127 140.699 56.3448 141.388C56.4786 142.078 56.5729 142.774 56.6272 143.474C56.6892 144.188 56.6813 144.907 56.6038 145.619C56.268 144.986 55.9947 144.322 55.788 143.636C55.5792 142.965 55.4088 142.283 55.2778 141.593C55.1452 140.904 55.0514 140.207 54.9969 139.507C54.9353 138.793 54.9426 138.075 55.0188 137.362Z" fill="#8B9D36"/>
<path d="M53.6985 141.178C53.9932 141.767 54.2255 142.385 54.3917 143.022C54.5596 143.643 54.6891 144.273 54.7796 144.91C54.8719 145.546 54.9243 146.187 54.9365 146.83C54.9556 147.489 54.9049 148.147 54.7853 148.795C54.4893 148.206 54.2565 147.588 54.0906 146.951C53.9226 146.33 53.7935 145.7 53.7042 145.063C53.6131 144.427 53.5612 143.785 53.5487 143.142C53.53 142.484 53.5802 141.826 53.6985 141.178Z" fill="#8B9D36"/>
<path d="M52.0355 144.985C52.3314 145.478 52.5673 146.005 52.7384 146.554C52.9096 147.085 53.0429 147.627 53.1374 148.176C53.2338 148.725 53.2903 149.28 53.3066 149.838C53.3299 150.413 53.2837 150.988 53.169 151.552C52.8719 151.059 52.6354 150.532 52.4646 149.983C52.2933 149.453 52.1603 148.911 52.067 148.361C51.9719 147.812 51.9159 147.256 51.8993 146.699C51.8764 146.125 51.9221 145.549 52.0355 144.985Z" fill="#8B9D36"/>
<path d="M50.5682 147.366C50.87 147.793 51.1192 148.256 51.3102 148.743C51.4975 149.209 51.6534 149.686 51.7768 150.173C51.899 150.656 51.9931 151.145 52.0585 151.639C52.089 151.887 52.117 152.135 52.1356 152.387C52.1452 152.644 52.1726 152.9 52.2176 153.153C52.1548 153.12 52.0945 153.082 52.0372 153.039L51.8907 152.893C51.7974 152.792 51.7117 152.685 51.6346 152.572C51.4859 152.354 51.3542 152.125 51.2407 151.886C51.0203 151.423 50.8472 150.939 50.7239 150.441C50.5982 149.947 50.5168 149.443 50.4806 148.935C50.4368 148.411 50.4662 147.882 50.5682 147.366Z" fill="#8B9D36"/>
<path d="M58.8398 141.491C59.3329 140.95 59.8876 140.469 60.4927 140.057C61.0756 139.652 61.6861 139.288 62.3195 138.968C62.9521 138.645 63.6066 138.368 64.2783 138.138C64.9681 137.894 65.6846 137.732 66.4126 137.656C65.9207 138.198 65.3662 138.68 64.7607 139.091C64.1779 139.497 63.5671 139.86 62.9329 140.18C62.2997 140.501 61.645 140.777 60.9734 141.007C60.2836 141.251 59.5675 141.414 58.8398 141.491Z" fill="#8B9D36"/>
<path d="M57.2158 144.524C57.8463 144.009 58.5296 143.561 59.2544 143.19C59.9582 142.82 60.6844 142.495 61.4285 142.216C62.1719 141.934 62.9323 141.7 63.7052 141.515C64.4954 141.317 65.3045 141.204 66.1187 141.178C65.4891 141.695 64.8059 142.143 64.0809 142.515C63.3772 142.884 62.6508 143.209 61.9061 143.487C61.1622 143.767 60.4016 144.001 59.6287 144.186C58.8386 144.384 58.0298 144.497 57.2158 144.524Z" fill="#8B9D36"/>
<path d="M55.3052 147.896C55.8665 147.398 56.4831 146.965 57.1428 146.607C57.7803 146.253 58.4411 145.942 59.1206 145.678C59.7993 145.411 60.4955 145.191 61.2044 145.02C61.9323 144.836 62.679 144.737 63.4296 144.724C62.8692 145.224 62.2528 145.657 61.5927 146.015C60.9553 146.369 60.2942 146.679 59.6142 146.943C58.935 147.208 58.2386 147.428 57.5297 147.599C56.802 147.783 56.0556 147.882 55.3052 147.896Z" fill="#8B9D36"/>
<path d="M53.7954 150.49C54.2844 150.066 54.8271 149.709 55.4094 149.427C55.9665 149.149 56.5446 148.917 57.1385 148.731C57.7317 148.543 58.3392 148.404 58.9549 148.314C59.5942 148.213 60.2441 148.198 60.8874 148.269C60.3993 148.694 59.8567 149.052 59.274 149.334C58.717 149.611 58.1386 149.843 57.5442 150.027C56.9506 150.214 56.3431 150.353 55.7275 150.443C55.0883 150.543 54.4387 150.559 53.7954 150.49Z" fill="#8B9D36"/>
<path d="M52.6025 152.819C53.1401 152.303 53.7354 151.85 54.3766 151.47C54.9956 151.095 55.6395 150.763 56.3038 150.476C56.9671 150.187 57.6498 149.944 58.3468 149.749C59.0625 149.541 59.8 149.417 60.5445 149.379C60.0079 149.897 59.4128 150.35 58.7712 150.73C58.1523 151.105 57.5081 151.436 56.8432 151.722C56.1793 152.01 55.4964 152.253 54.7995 152.447C54.0839 152.655 53.3467 152.78 52.6025 152.819Z" fill="#8B9D36"/>
<path d="M59.3673 140.199C59.2681 139.475 59.286 138.739 59.4202 138.02C59.5384 137.342 59.7244 136.678 59.9754 136.037C60.224 135.396 60.5375 134.781 60.911 134.204C61.3002 133.584 61.7875 133.032 62.3538 132.569C62.4552 133.293 62.4382 134.03 62.3034 134.749C62.1854 135.427 61.9986 136.091 61.7459 136.731C61.4953 137.371 61.181 137.985 60.8077 138.563C60.4183 139.182 59.932 139.735 59.3673 140.199Z" fill="#8B9D36"/>
<path d="M51.453 153.675L51.1816 153.67C51.1936 152.928 51.5158 135.421 55.0169 129.876L55.2464 130.021C51.786 135.502 51.4559 153.494 51.453 153.675Z" fill="#50661A"/>
<path d="M54.0068 132.377C54.1145 131.565 54.1418 130.744 54.0883 129.926C54.0431 129.13 53.9547 128.336 53.8235 127.549C53.6967 126.765 53.5241 125.989 53.3211 125.219C53.1184 124.444 52.8624 123.699 52.5889 122.905C52.5116 123.102 52.453 123.306 52.4137 123.514C52.3699 123.719 52.3379 123.925 52.3179 124.133C52.2755 124.542 52.2571 124.952 52.2627 125.362C52.2747 126.17 52.3486 126.975 52.4838 127.771C52.6155 128.565 52.8016 129.348 53.041 130.116C53.2777 130.904 53.6016 131.662 54.0068 132.377Z" fill="#50661A"/>
<path d="M58.3095 121.291C57.7078 121.871 57.1918 122.534 56.777 123.26C56.373 123.949 56.0294 124.671 55.7499 125.419C55.4679 126.166 55.2522 126.937 55.1052 127.721C54.9409 128.542 54.8956 129.381 54.9707 130.214C55.5742 129.635 56.0911 128.972 56.5056 128.246C56.9099 127.557 57.2528 126.835 57.5303 126.086C57.8104 125.338 58.0253 124.568 58.1726 123.783C58.3364 122.963 58.3825 122.124 58.3095 121.291Z" fill="#50661A"/>
<path d="M61.1941 125.752C60.4801 126.326 59.8059 126.948 59.1759 127.612C58.5522 128.259 57.957 128.92 57.3746 129.585L55.6445 131.571C55.3542 131.897 55.0609 132.217 54.7511 132.521C54.4449 132.842 54.0883 133.112 53.6953 133.319C53.935 133.36 54.1806 133.354 54.4179 133.3C54.6571 133.253 54.8905 133.179 55.114 133.081C55.5514 132.889 55.967 132.65 56.3539 132.37C57.1047 131.82 57.79 131.186 58.3963 130.48C58.9994 129.788 59.5424 129.046 60.0193 128.262C60.5102 127.476 60.9046 126.633 61.1941 125.752Z" fill="#50661A"/>
<path d="M61.195 130.215C60.3149 130.655 59.4754 131.171 58.6862 131.759C57.9052 132.33 57.1539 132.941 56.4352 133.589C55.715 134.235 55.0288 134.918 54.3794 135.636C53.7126 136.359 53.1117 137.141 52.584 137.972C53.465 137.534 54.305 137.017 55.0941 136.43C55.8753 135.859 56.6262 135.247 57.3439 134.598C58.0631 133.951 58.7488 133.267 59.3984 132.55C60.0648 131.826 60.666 131.045 61.195 130.215Z" fill="#50661A"/>
<path d="M60.9018 133.716C60.0151 134.129 59.1669 134.619 58.3671 135.182C57.576 135.729 56.8135 136.316 56.0826 136.942C55.3502 137.565 54.651 138.226 53.9876 138.923C53.3067 139.625 52.6901 140.387 52.1455 141.2C53.033 140.789 53.8818 140.298 54.6815 139.735C55.4727 139.188 56.2348 138.601 56.9647 137.974C57.6961 137.35 58.3949 136.688 59.0585 135.992C59.7391 135.289 60.3559 134.528 60.9018 133.716Z" fill="#50661A"/>
<path d="M60.7054 137.457C59.8231 137.789 58.9732 138.201 58.1665 138.689C57.3701 139.161 56.5996 139.676 55.8581 140.23C55.1152 140.783 54.4029 141.375 53.7243 142.005C53.0272 142.64 52.3907 143.338 51.8232 144.091C52.7063 143.761 53.5566 143.349 54.3632 142.861C55.1597 142.389 55.9299 141.874 56.6706 141.318C57.4125 140.765 58.1244 140.172 58.8032 139.542C59.4999 138.907 60.1367 138.209 60.7054 137.457Z" fill="#50661A"/>
<path d="M60.9011 140.173C59.978 140.544 59.0892 140.996 58.2446 141.522C57.4095 142.033 56.6007 142.586 55.8212 143.178C55.0404 143.769 54.2904 144.399 53.5741 145.067C52.8401 145.739 52.167 146.475 51.5625 147.265C52.4863 146.895 53.3756 146.444 54.22 145.918C55.0553 145.407 55.8638 144.854 56.6424 144.26C57.4223 143.668 58.1719 143.037 58.8883 142.37C59.6219 141.697 60.2954 140.962 60.9011 140.173Z" fill="#50661A"/>
<path d="M61.5858 142.716C60.6247 143.164 59.6968 143.679 58.809 144.258C57.9274 144.823 57.0745 145.419 56.2429 146.042C55.4089 146.661 54.598 147.307 53.8015 147.974C52.9967 148.636 52.2365 149.324 51.4038 150.007C51.9385 149.919 52.4605 149.766 52.9586 149.553C53.4517 149.346 53.9337 149.114 54.4024 148.857C55.3243 148.342 56.2107 147.765 57.0557 147.13C57.8976 146.499 58.7024 145.82 59.466 145.096C60.2442 144.369 60.9537 143.573 61.5858 142.716Z" fill="#50661A"/>
<path d="M62.4167 145.358C61.3781 145.761 60.3703 146.24 59.4014 146.791C58.4385 147.327 57.504 147.904 56.591 148.51C55.6778 149.116 54.7867 149.754 53.9175 150.423C53.4831 150.758 53.0528 151.099 52.6267 151.447C52.2145 151.812 51.7766 152.148 51.3164 152.45C51.605 152.45 51.8915 152.401 52.1635 152.305C52.4365 152.224 52.7015 152.125 52.9637 152.023C53.4864 151.816 53.9916 151.578 54.487 151.326C55.4705 150.82 56.4241 150.257 57.3431 149.641C58.262 149.029 59.1493 148.372 60.0016 147.67C60.8691 146.967 61.6769 146.194 62.4167 145.358Z" fill="#50661A"/>
<path d="M53.1624 135.484C53.1183 134.602 52.9878 133.726 52.7727 132.868C52.5697 132.027 52.3187 131.198 52.0211 130.385C51.7256 129.571 51.3832 128.776 50.9955 128.002C50.6073 127.208 50.1413 126.454 49.6045 125.752C49.647 126.635 49.777 127.512 49.9924 128.369C50.1953 129.21 50.4468 130.039 50.7458 130.852C51.0427 131.665 51.3857 132.46 51.7732 133.234C52.1617 134.028 52.627 134.781 53.1624 135.484Z" fill="#50661A"/>
<path d="M52.5836 138.539C52.417 137.662 52.1657 136.802 51.8331 135.972C51.5145 135.157 51.1501 134.36 50.7416 133.585C50.3352 132.81 49.8846 132.058 49.3921 131.334C48.8965 130.59 48.3291 129.897 47.6982 129.264C47.8633 130.143 48.1141 131.003 48.447 131.832C48.7655 132.648 49.1305 133.445 49.5402 134.218C49.948 134.993 50.3991 135.745 50.8914 136.469C51.3873 137.212 51.954 137.905 52.5836 138.539Z" fill="#50661A"/>
<path d="M52.1451 141.492C51.8594 140.601 51.4916 139.739 51.0465 138.915C50.6165 138.104 50.1432 137.315 49.6286 136.554C49.1158 135.792 48.5618 135.058 47.9689 134.357C47.3716 133.636 46.708 132.973 45.9868 132.377C46.2711 133.268 46.6384 134.132 47.084 134.955C47.5137 135.767 47.9876 136.555 48.5035 137.315C49.0174 138.076 49.5719 138.81 50.1646 139.512C50.7621 140.232 51.4251 140.895 52.1451 141.492Z" fill="#50661A"/>
<path d="M51.8238 144.752C51.3757 143.789 50.8496 142.864 50.251 141.986C49.6664 141.113 49.0426 140.273 48.3797 139.464C47.7189 138.654 47.0199 137.875 46.2826 137.127C45.5423 136.365 44.7401 135.666 43.8843 135.036C44.3307 136.001 44.8562 136.926 45.4556 137.803C46.0402 138.676 46.6644 139.516 47.3283 140.324C47.9906 141.133 48.6901 141.912 49.4268 142.66C50.1675 143.422 50.9691 144.121 51.8238 144.752Z" fill="#50661A"/>
<path d="M51.5624 148.131C51.013 147.216 50.3901 146.346 49.6998 145.531C49.0241 144.72 48.3127 143.945 47.5656 143.205C46.8206 142.464 46.0408 141.757 45.2261 141.086C44.407 140.401 43.5328 139.784 42.6123 139.243C43.1601 140.16 43.7826 141.03 44.4735 141.844C45.1492 142.656 45.861 143.431 46.6089 144.169C47.3554 144.909 48.1357 145.615 48.9498 146.287C49.7692 146.972 50.643 147.588 51.5624 148.131Z" fill="#50661A"/>
<path d="M51.403 150.298C50.7936 149.508 50.1165 148.772 49.3794 148.1C48.6596 147.432 47.9067 146.801 47.1235 146.209C46.3417 145.616 45.53 145.062 44.6916 144.552C43.844 144.025 42.9517 143.575 42.0249 143.205C42.6332 143.996 43.3099 144.732 44.0474 145.404C44.7671 146.072 45.5204 146.702 46.3045 147.293C47.0872 147.885 47.8993 148.438 48.7376 148.949C49.5852 149.475 50.4771 149.926 51.403 150.298Z" fill="#50661A"/>
<path d="M51.3168 152.107C50.5857 151.386 49.7949 150.729 48.9527 150.141C48.1261 149.553 47.2742 149.01 46.3972 148.51C45.5216 148.007 44.6215 147.548 43.6969 147.131C42.7638 146.702 41.7957 146.354 40.8032 146.091C41.5333 146.813 42.324 147.472 43.1665 148.059C43.9932 148.646 44.8453 149.19 45.7228 149.689C46.5994 150.189 47.4998 150.648 48.4241 151.065C49.3572 151.494 50.3249 151.842 51.3168 152.107Z" fill="#50661A"/>
<path d="M51.3837 153.282C50.5065 152.676 49.5815 152.143 48.6178 151.688C47.6688 151.23 46.7013 150.822 45.7179 150.456C44.7347 150.09 43.7343 149.771 42.7167 149.497C41.6893 149.214 40.6402 149.015 39.5801 148.904C40.4563 149.511 41.3812 150.045 42.3453 150.499C43.2944 150.957 44.2613 151.368 45.2459 151.73C46.2297 152.094 47.2295 152.415 48.2477 152.686C49.2752 152.97 50.324 153.169 51.3837 153.282Z" fill="#50661A"/>
<path d="M50.9086 153.188C50.641 152.742 44.338 142.235 43.3184 139.515L43.5729 139.419C44.5835 142.116 51.076 152.939 51.1417 153.048L50.9086 153.188Z" fill="#5E7C24"/>
<path d="M45.6321 133.788C45.3573 134.468 45.1472 135.172 45.0045 135.892C44.8587 136.596 44.7516 137.308 44.6838 138.025C44.6141 138.741 44.5846 139.461 44.5954 140.18C44.5995 140.914 44.6737 141.646 44.817 142.365C45.0931 141.685 45.3037 140.981 45.446 140.261C45.5921 139.557 45.6987 138.844 45.7653 138.128C45.8336 137.411 45.8626 136.692 45.8522 135.972C45.8476 135.239 45.774 134.507 45.6321 133.788Z" fill="#5E7C24"/>
<path d="M48.0286 137.065C47.694 137.698 47.4213 138.362 47.2142 139.048C47.0055 139.719 46.8347 140.401 46.7026 141.09C46.5688 141.78 46.4745 142.476 46.4202 143.176C46.3582 143.89 46.366 144.609 46.4436 145.321C46.7794 144.688 47.0527 144.024 47.2594 143.338C47.4682 142.667 47.6385 141.985 47.7695 141.295C47.9022 140.606 47.996 139.909 48.0505 139.209C48.1121 138.495 48.1048 137.777 48.0286 137.065Z" fill="#5E7C24"/>
<path d="M49.3484 140.88C49.0537 141.469 48.8214 142.087 48.6551 142.724C48.4873 143.345 48.3578 143.975 48.2673 144.612C48.175 145.248 48.1226 145.889 48.1104 146.532C48.0913 147.191 48.142 147.849 48.2616 148.497C48.5576 147.909 48.7904 147.29 48.9563 146.653C49.1243 146.032 49.2534 145.402 49.3427 144.765C49.4338 144.129 49.4857 143.487 49.4982 142.845C49.5169 142.186 49.4667 141.528 49.3484 140.88Z" fill="#5E7C24"/>
<path d="M51.0118 144.689C50.7159 145.182 50.48 145.709 50.3089 146.258C50.1377 146.788 50.0044 147.33 49.9099 147.88C49.8135 148.429 49.757 148.984 49.7407 149.541C49.7174 150.116 49.7636 150.692 49.8783 151.255C50.1754 150.763 50.4119 150.236 50.5827 149.687C50.754 149.156 50.887 148.614 50.9803 148.065C51.0754 147.515 51.1314 146.96 51.148 146.403C51.1709 145.828 51.1252 145.253 51.0118 144.689Z" fill="#5E7C24"/>
<path d="M52.4785 147.069C52.1767 147.497 51.9275 147.96 51.7364 148.447C51.5492 148.913 51.3933 149.39 51.2699 149.876C51.1476 150.359 51.0535 150.849 50.9881 151.342C50.9576 151.591 50.9296 151.838 50.9111 152.091C50.9015 152.348 50.8741 152.604 50.8291 152.857C50.8919 152.823 50.9521 152.785 51.0095 152.743L51.156 152.596C51.2493 152.496 51.3349 152.389 51.4121 152.276C51.5608 152.058 51.6925 151.828 51.8059 151.59C52.0263 151.127 52.1995 150.642 52.3227 150.144C52.4485 149.651 52.5299 149.147 52.566 148.639C52.6099 148.114 52.5804 147.586 52.4785 147.069Z" fill="#5E7C24"/>
<path d="M44.208 141.193C43.715 140.652 43.1603 140.171 42.5552 139.759C41.9722 139.354 41.3618 138.99 40.7283 138.67C40.0958 138.347 39.4412 138.07 38.7696 137.84C38.0797 137.596 37.3633 137.434 36.6353 137.358C37.1272 137.9 37.6817 138.382 38.2871 138.794C38.87 139.199 39.4808 139.562 40.1149 139.882C40.7481 140.203 41.4029 140.479 42.0745 140.709C42.7643 140.953 43.4804 141.116 44.208 141.193Z" fill="#5E7C24"/>
<path d="M45.8316 144.227C45.2011 143.711 44.5177 143.263 43.793 142.892C43.0891 142.522 42.363 142.197 41.6188 141.918C40.8755 141.636 40.1151 141.402 39.3422 141.217C38.552 141.019 37.7429 140.906 36.9287 140.88C37.5583 141.397 38.2414 141.845 38.9665 142.217C39.6702 142.586 40.3966 142.911 41.1413 143.189C41.8852 143.469 42.6458 143.703 43.4186 143.888C44.2087 144.086 45.0176 144.199 45.8316 144.227Z" fill="#5E7C24"/>
<path d="M47.7416 147.598C47.1803 147.1 46.5637 146.667 45.904 146.309C45.2665 145.955 44.6057 145.645 43.9262 145.38C43.2475 145.113 42.5513 144.893 41.8424 144.722C41.1146 144.538 40.3678 144.439 39.6172 144.427C40.1776 144.926 40.7941 145.359 41.4541 145.717C42.0915 146.072 42.7526 146.382 43.4326 146.645C44.1118 146.911 44.8083 147.13 45.5171 147.301C46.2449 147.485 46.9912 147.584 47.7416 147.598Z" fill="#5E7C24"/>
<path d="M49.2532 150.194C48.7642 149.77 48.2215 149.412 47.6392 149.13C47.0821 148.853 46.5039 148.62 45.9101 148.435C45.3168 148.247 44.7094 148.108 44.0937 148.018C43.4544 147.917 42.8045 147.901 42.1611 147.972C42.6493 148.397 43.1919 148.755 43.7746 149.037C44.3315 149.315 44.91 149.547 45.5043 149.731C46.098 149.917 46.7055 150.056 47.3211 150.146C47.9603 150.247 48.6099 150.263 49.2532 150.194Z" fill="#5E7C24"/>
<path d="M50.4453 152.522C49.9078 152.006 49.3125 151.554 48.6713 151.174C48.0522 150.799 47.4084 150.467 46.7441 150.179C46.0807 149.89 45.3981 149.647 44.701 149.453C43.9854 149.244 43.2478 149.12 42.5034 149.083C43.04 149.6 43.6351 150.054 44.2767 150.433C44.8956 150.808 45.5398 151.14 46.2046 151.426C46.8686 151.714 47.5514 151.956 48.2484 152.151C48.964 152.359 49.7012 152.483 50.4453 152.522Z" fill="#5E7C24"/>
<path d="M43.6801 139.901C43.7793 139.177 43.7614 138.441 43.6272 137.722C43.509 137.044 43.323 136.38 43.072 135.739C42.8234 135.098 42.5099 134.483 42.1364 133.906C41.7472 133.286 41.2599 132.734 40.6936 132.271C40.5922 132.995 40.6092 133.732 40.744 134.451C40.8619 135.129 41.0488 135.793 41.3015 136.433C41.5521 137.074 41.8663 137.688 42.2396 138.265C42.6291 138.884 43.1154 139.437 43.6801 139.901Z" fill="#5E7C24"/>
<path d="M92.7393 65.6647C97.1673 65.6647 100.757 62.074 100.757 57.6446C100.757 53.2153 97.1673 49.6246 92.7393 49.6246C88.3113 49.6246 84.7217 53.2153 84.7217 57.6446C84.7217 62.074 88.3113 65.6647 92.7393 65.6647Z" fill="#F9E0C0"/>
<path d="M139.327 105.093C143.755 105.093 147.345 101.502 147.345 97.0728C147.345 92.6434 143.755 89.0527 139.327 89.0527C134.899 89.0527 131.31 92.6434 131.31 97.0728C131.31 101.502 134.899 105.093 139.327 105.093Z" fill="#F9E0C0"/>
<path d="M142.47 96.1301H141.842V94.8723C141.841 94.2061 141.576 93.5674 141.105 93.0966C140.633 92.6258 139.995 92.3613 139.329 92.3613C138.663 92.3613 138.024 92.6258 137.553 93.0966C137.081 93.5674 136.816 94.2061 136.816 94.8723V96.1301H136.187C136.104 96.13 136.022 96.1461 135.946 96.1777C135.87 96.2092 135.8 96.2555 135.742 96.314C135.683 96.3724 135.637 96.4418 135.606 96.5182C135.574 96.5946 135.558 96.6764 135.558 96.7591V101.16C135.558 101.242 135.574 101.324 135.606 101.4C135.637 101.476 135.684 101.546 135.742 101.604C135.801 101.662 135.87 101.708 135.946 101.74C136.023 101.771 136.104 101.787 136.187 101.787H142.47C142.553 101.787 142.635 101.771 142.711 101.74C142.787 101.708 142.857 101.662 142.915 101.604C142.974 101.546 143.02 101.476 143.051 101.4C143.083 101.324 143.099 101.242 143.099 101.16V96.7591C143.099 96.6764 143.083 96.5946 143.052 96.5182C143.02 96.4418 142.974 96.3724 142.915 96.314C142.857 96.2555 142.788 96.2092 142.711 96.1777C142.635 96.1461 142.553 96.13 142.47 96.1301ZM139.329 99.5863C139.142 99.5863 138.96 99.5311 138.805 99.4275C138.65 99.324 138.53 99.1768 138.458 99.0046C138.387 98.8324 138.368 98.6429 138.405 98.4601C138.441 98.2773 138.531 98.1093 138.662 97.9775C138.794 97.8457 138.962 97.756 139.145 97.7196C139.328 97.6832 139.517 97.7019 139.689 97.7732C139.861 97.8446 140.008 97.9654 140.112 98.1203C140.215 98.2753 140.271 98.4575 140.271 98.6439C140.271 98.7677 140.246 98.8902 140.199 99.0046C140.152 99.1189 140.082 99.2228 139.995 99.3103C139.907 99.3979 139.803 99.4673 139.689 99.5146C139.575 99.562 139.452 99.5864 139.329 99.5863ZM140.586 96.1301H138.071V94.8723C138.071 94.7069 138.103 94.5432 138.166 94.3903C138.229 94.2375 138.322 94.0986 138.439 93.9816C138.556 93.8645 138.694 93.7717 138.847 93.7084C139 93.645 139.163 93.6124 139.329 93.6124C139.494 93.6124 139.658 93.645 139.81 93.7084C139.963 93.7717 140.102 93.8645 140.218 93.9816C140.335 94.0986 140.428 94.2375 140.491 94.3903C140.554 94.5432 140.586 94.7069 140.586 94.8723V96.1301Z" fill="#FFBA55"/>
<path d="M185.621 153.378H36.8486V153.973H185.621V153.378Z" fill="#935B50"/>
<path d="M62.3906 153.557L67.4496 128.65H73.3284L64.2812 153.557H62.3906Z" fill="#935B50"/>
<path d="M158.11 128.65L163.566 153.557H160.877L152.031 128.65H158.11Z" fill="#935B50"/>
<path d="M161.084 122.437H65.5916C63.8761 122.437 62.4854 123.828 62.4854 125.544V125.544C62.4854 127.26 63.8761 128.651 65.5916 128.651H161.084C162.799 128.651 164.19 127.26 164.19 125.544C164.19 123.828 162.799 122.437 161.084 122.437Z" fill="#C38F86"/>
<path d="M104.173 145.063L103.746 149.317L111.131 152.927L99.7905 152.926L99.7918 145.062L104.173 145.063Z" fill="#F9977A"/>
<path d="M117.773 145.066L117.346 149.32L124.73 152.931L113.39 152.929L113.391 145.065L117.773 145.066Z" fill="#F9977A"/>
<path d="M125.87 153.318V153.292C125.87 153.093 125.815 152.898 125.711 152.728C125.606 152.559 125.457 152.422 125.28 152.332L117.615 148.467C117.54 148.429 117.454 148.419 117.372 148.438C117.291 148.457 117.218 148.504 117.168 148.571L115.669 150.566C115.616 150.637 115.538 150.685 115.451 150.702C115.365 150.719 115.275 150.703 115.199 150.658L113.44 149.602C113.386 149.569 113.324 149.552 113.261 149.551C113.197 149.55 113.135 149.566 113.08 149.597C113.025 149.629 112.979 149.674 112.947 149.729C112.915 149.783 112.898 149.846 112.898 149.909L112.897 153.315C112.897 153.363 112.907 153.409 112.925 153.453C112.943 153.496 112.969 153.535 113.002 153.569C113.035 153.602 113.075 153.628 113.118 153.646C113.162 153.664 113.208 153.674 113.255 153.674L125.512 153.676C125.559 153.676 125.606 153.666 125.649 153.648C125.692 153.63 125.732 153.604 125.765 153.571C125.798 153.538 125.825 153.498 125.843 153.455C125.861 153.411 125.87 153.365 125.87 153.318Z" fill="#6C7FD8"/>
<path d="M112.269 153.315V153.289C112.269 153.09 112.214 152.895 112.11 152.726C112.005 152.556 111.856 152.419 111.679 152.329L104.014 148.464C103.939 148.426 103.853 148.416 103.771 148.435C103.689 148.454 103.617 148.501 103.567 148.568L102.068 150.563C102.015 150.634 101.937 150.682 101.85 150.699C101.764 150.716 101.673 150.7 101.598 150.655L99.8392 149.599C99.7848 149.566 99.7228 149.549 99.6595 149.548C99.5962 149.547 99.5337 149.563 99.4786 149.594C99.4235 149.626 99.3776 149.671 99.3457 149.726C99.3138 149.78 99.297 149.843 99.297 149.906L99.2964 153.313C99.2964 153.36 99.3056 153.406 99.3236 153.45C99.3416 153.493 99.368 153.533 99.4012 153.566C99.4344 153.599 99.4739 153.625 99.5173 153.643C99.5607 153.661 99.6073 153.671 99.6543 153.671L111.911 153.673C111.958 153.673 112.005 153.664 112.048 153.646C112.091 153.628 112.131 153.601 112.164 153.568C112.197 153.535 112.224 153.495 112.242 153.452C112.26 153.408 112.269 153.362 112.269 153.315Z" fill="#6C7FD8"/>
<path d="M118.529 92.3785C118.529 92.3785 119.208 103.391 119.207 105.981L119.205 121.259C119.205 121.888 119.174 122.516 119.112 123.143L119.417 146.118C119.395 146.341 119.291 146.548 119.124 146.698C118.958 146.849 118.742 146.932 118.518 146.932C117.526 147.587 116.337 147.874 115.156 147.744C114.387 147.646 113.653 147.368 113.012 146.931C112.779 146.825 112.109 146.497 112.109 146.028C112.109 146.006 112.11 145.984 112.112 145.962L111.237 126.565C111.367 124.783 111.247 122.991 110.882 121.242L105.19 94.0025L118.529 92.3785Z" fill="#F73C4F"/>
<path d="M101.555 147.051C100.71 146.876 99.6088 146.536 99.3504 146.277C99.2664 146.194 99.1998 146.094 99.1544 145.984C99.109 145.875 99.0858 145.757 99.0859 145.639L99.0886 129.882C99.0891 126.803 99.4358 123.733 100.122 120.732C100.245 120.194 100.294 119.641 100.268 119.09C100.076 115.033 99.3574 97.2384 101.38 94.0021L114.316 93.0488L105.084 146.083C105.01 146.517 103.112 147.374 101.555 147.051Z" fill="#F73C4F"/>
<path d="M103.766 113.408L103.835 113.299C101.644 111.907 101.128 107.75 101.123 107.708L100.995 107.723C101 107.766 101.523 111.983 103.766 113.408Z" fill="#B02336"/>
<path d="M108.59 96.2296C115.972 96.2309 118.703 94.0026 118.738 93.9734L118.654 93.8752C118.611 93.9119 114.135 97.551 101.072 95.4474L101.051 95.5747C103.543 95.9927 106.064 96.2117 108.59 96.2296Z" fill="#065082"/>
<path d="M113.776 95.722L110.059 117.598L110.186 117.62L113.904 95.7437L113.776 95.722Z" fill="#B02336"/>
<path d="M112.891 101.146L112.969 101.043L111.997 100.311L112.721 95.932L112.594 95.9106L111.858 100.367L112.891 101.146Z" fill="#B02336"/>
<path d="M103.763 115.141L103.836 115.035C102.065 113.821 101.128 111.433 101.118 111.409L100.998 111.456C101.007 111.48 101.958 113.905 103.763 115.141Z" fill="#B02336"/>
<path d="M115.451 131.948L115.52 131.839C113.329 130.447 112.813 126.29 112.808 126.248L112.68 126.263C112.685 126.305 113.208 130.523 115.451 131.948Z" fill="#B02336"/>
<path d="M115.45 133.681L115.522 133.575C113.75 132.36 112.814 129.973 112.805 129.949L112.684 129.996C112.693 130.02 113.645 132.445 115.45 133.681Z" fill="#B02336"/>
<path d="M115.314 54.6675L115.119 57.4827C115.056 58.6246 115.114 59.7701 115.293 60.8998C115.498 62.3237 113.618 64.5726 112.933 64.6006V67.4325C113.109 69.3836 111.824 70.9648 110.469 71.1459C108.915 71.3537 107.003 69.7542 107.107 67.4325V60.8091C107.107 60.8091 104.726 60.3704 106.104 58.0203C106.923 56.6485 107.406 55.1023 107.514 53.5081L110.083 51.5654L115.314 54.6675Z" fill="#F9977A"/>
<path d="M96.6115 81.6126C96.6115 81.6126 96.3214 75.638 98.4481 71.2162C99.0182 70.0319 99.9482 69.0583 101.105 68.4346C102.439 67.7147 104.727 66.4566 107.106 65.8238C107.086 67.5813 108.478 67.9293 110.144 67.8949C111.705 67.8627 112.862 67.9014 112.932 66.2612C116.625 67.091 118.443 68.562 119.077 69.9033C120.338 72.5691 120.528 78.1586 120.528 78.1586L118.576 78.5455C118.576 78.5455 119.065 93.2932 118.678 94.884C116.77 95.3188 114.784 96.7929 112.412 97.0034C107.982 97.3966 103.925 96.0159 100.811 95.5496C101.216 93.7376 101.586 91.8011 101.894 89.748C102.306 86.9991 102.58 84.2313 102.715 81.4549L96.6115 81.6126Z" fill="#8B9D36"/>
<path d="M109.487 55.8786C109.448 55.8786 109.411 55.8659 109.38 55.8425C109.35 55.8191 109.328 55.7862 109.318 55.7491C109.308 55.712 109.311 55.6727 109.326 55.6373C109.341 55.6018 109.367 55.5723 109.4 55.5532C109.713 55.3972 110.057 55.3157 110.407 55.3151C110.756 55.3145 111.101 55.3948 111.414 55.5498C111.455 55.5711 111.486 55.6076 111.5 55.6515C111.514 55.6953 111.51 55.7429 111.489 55.7837C111.468 55.8246 111.431 55.8555 111.387 55.8696C111.344 55.8838 111.296 55.88 111.255 55.8592C111.246 55.8551 110.354 55.4082 109.573 55.8557C109.546 55.8706 109.517 55.8785 109.487 55.8786Z" fill="#1E1D22"/>
<path d="M112.933 55.8786C112.895 55.8787 112.857 55.8661 112.827 55.8427C112.796 55.8193 112.775 55.7865 112.765 55.7493C112.755 55.7122 112.757 55.6728 112.772 55.6374C112.787 55.6019 112.813 55.5724 112.847 55.5533C113.159 55.3972 113.504 55.3157 113.853 55.3151C114.203 55.3145 114.548 55.3949 114.861 55.5499C114.881 55.5603 114.899 55.5747 114.914 55.5921C114.929 55.6095 114.94 55.6297 114.947 55.6514C114.954 55.6732 114.956 55.6961 114.954 55.7189C114.953 55.7416 114.946 55.7638 114.936 55.7841C114.925 55.8044 114.911 55.8225 114.894 55.8373C114.876 55.852 114.856 55.8632 114.834 55.8702C114.813 55.8772 114.79 55.8798 114.767 55.8779C114.744 55.8761 114.722 55.8697 114.702 55.8593C114.439 55.7324 114.152 55.6663 113.861 55.6657C113.569 55.6651 113.282 55.7301 113.019 55.8558C112.993 55.8707 112.963 55.8786 112.933 55.8786Z" fill="#1E1D22"/>
<path d="M114.029 58.1657C114.164 58.161 114.293 58.1039 114.387 58.0064C114.481 57.909 114.533 57.7789 114.533 57.6435C114.533 57.508 114.481 57.3779 114.387 57.2805C114.293 57.1831 114.164 57.126 114.029 57.1212C113.894 57.126 113.766 57.1831 113.671 57.2805C113.577 57.3779 113.525 57.508 113.525 57.6435C113.525 57.7789 113.577 57.909 113.671 58.0064C113.766 58.1039 113.894 58.161 114.029 58.1657Z" fill="#1E1D22"/>
<path d="M110.458 58.1342C110.594 58.1295 110.722 58.0724 110.816 57.9749C110.91 57.8775 110.962 57.7474 110.962 57.612C110.962 57.4765 110.91 57.3464 110.816 57.249C110.722 57.1516 110.594 57.0945 110.458 57.0897C110.323 57.0945 110.195 57.1516 110.101 57.249C110.007 57.3464 109.954 57.4765 109.954 57.612C109.954 57.7474 110.007 57.8775 110.101 57.9749C110.195 58.0724 110.323 58.1295 110.458 58.1342Z" fill="#1E1D22"/>
<path d="M112.494 57.1384C112.817 57.5675 113.062 58.0498 113.219 58.5636C113.304 58.8264 113.337 59.1034 113.316 59.3789C113.304 59.5244 113.247 59.6625 113.154 59.7748C113.105 59.8258 113.046 59.8661 112.981 59.893C112.916 59.9199 112.846 59.9329 112.776 59.9311C112.899 59.8986 113.006 59.8209 113.074 59.7134C113.132 59.6075 113.16 59.4881 113.157 59.3675C113.147 59.1138 113.102 58.8627 113.022 58.6214C112.876 58.1247 112.674 57.6405 112.494 57.1384Z" fill="#DD765E"/>
<path d="M112.932 64.6006C112.932 64.6006 111.053 64.5046 110.145 63.6439C110.145 63.6439 111.304 65.948 112.932 66.2613V64.6006Z" fill="#DD765E"/>
<path d="M116.692 53.8215C116.692 53.8215 116.661 52.5368 114.406 51.9728C112.15 51.4087 111.712 50.1553 110.412 50.5C109.572 50.7615 108.834 51.2759 108.297 51.9728C108.297 51.9728 104.214 51.3479 106.193 57.8646C106.193 57.8646 107.671 59.5871 107.827 58.0517C107.984 56.5163 108.329 53.8842 109.174 53.1948C110.02 52.5054 111.336 53.1948 111.837 53.5708C112.338 53.9468 115.471 56.1716 115.784 55.9836C116.097 55.7956 117.35 55.4196 116.692 53.8215Z" fill="#1E1D22"/>
<path d="M107.106 65.8238L110.144 67.8949L108.625 69.9841L105.324 66.4085L107.106 65.8238Z" fill="#8B9D36"/>
<path d="M110.145 67.8943L112.932 66.2607L114.212 66.5948L111.265 69.6623L110.145 67.8943Z" fill="#8B9D36"/>
<path d="M105.324 66.4082C105.903 66.9773 106.479 67.5499 107.04 68.1351L107.887 69.0095C108.171 69.2991 108.443 69.5995 108.722 69.8938L108.518 69.9059C109.022 69.2076 109.513 68.5002 110.027 67.8096L110.155 67.6382L110.266 67.8171L111.373 69.5938L111.173 69.5737C111.668 69.0666 112.177 68.5726 112.678 68.0713C113.183 67.5734 113.694 67.0813 114.212 66.5952C113.747 67.132 113.276 67.6624 112.798 68.1865C112.318 68.7076 111.844 69.2359 111.357 69.7513L111.246 69.8694L111.157 69.7312L110.022 67.9721L110.261 67.9798C109.763 68.682 109.241 69.3674 108.732 70.0621L108.635 70.1943L108.527 70.074C108.256 69.7726 107.978 69.4769 107.712 69.1705L106.908 68.2571C106.37 67.6504 105.845 67.0312 105.324 66.4082Z" fill="#5E7C24"/>
<path d="M110.145 67.8949C110.739 70.1752 111.211 72.4863 111.63 74.8059C112.045 77.1265 112.377 79.4607 112.626 81.8085C112.877 84.1555 112.999 86.5144 112.992 88.8748C113.005 91.2366 112.754 93.5925 112.244 95.8985L112.513 94.1534C112.593 93.5713 112.615 92.9816 112.67 92.3973C112.735 91.8132 112.731 91.224 112.751 90.6369L112.774 89.7562C112.783 89.4627 112.766 89.1687 112.763 88.8749C112.753 86.5246 112.574 84.1769 112.331 81.839C112.11 79.4974 111.772 77.168 111.405 74.8438C111.226 73.6808 111.025 72.5212 110.811 71.3637C110.608 70.2041 110.382 69.0487 110.145 67.8949Z" fill="#5E7C24"/>
<path d="M118.575 78.5451C118.477 78.0934 118.405 77.6389 118.337 77.1838C118.267 76.7292 118.215 76.2726 118.163 75.8159C118.117 75.3585 118.071 74.9012 118.043 74.442C118.014 73.9829 117.987 73.5234 117.988 73.0612C118.086 73.5129 118.158 73.9674 118.226 74.4224C118.296 74.8771 118.349 75.3337 118.4 75.7904C118.446 76.2478 118.492 76.7051 118.519 77.1645C118.549 77.6234 118.575 78.0829 118.575 78.5451Z" fill="#5E7C24"/>
<path d="M118.849 76.9255H124.15L119.966 84.8363L114.722 84.9803L118.849 76.9255Z" fill="#935B50"/>
<path d="M102.716 81.4542V84.0913L112.573 80.9956C112.573 80.9956 113.404 78.9031 116.155 79.1897L116.47 79.7343C116.47 79.7343 120.195 79.763 120.167 80.4223L119.966 80.6803C119.966 80.6803 121.084 80.7376 120.167 81.5115C120.167 81.5115 120.482 82.1134 119.508 82.4001C118.533 82.6867 116.785 83.1454 116.785 83.1454C116.946 83.2702 117.132 83.3559 117.331 83.3957C117.53 83.4355 117.736 83.4283 117.932 83.3747C118.266 83.2616 118.612 83.1847 118.963 83.1454C119.007 83.2022 119.035 83.2688 119.047 83.3393C119.059 83.4098 119.053 83.4821 119.03 83.5499C119.008 83.6177 118.969 83.679 118.917 83.7283C118.866 83.7777 118.803 83.8138 118.734 83.8333C118.19 84.0339 117.502 84.4352 117.187 84.4352C116.871 84.4352 113.891 84.8939 113.891 84.8939L101.897 90.217C101.392 90.4408 100.841 90.5368 100.29 90.4964C99.74 90.4559 99.2082 90.2803 98.742 89.9852C98.2758 89.6901 97.8895 89.2844 97.6174 88.8043C97.3454 88.3242 97.1959 87.7843 97.1822 87.2326L97.042 81.5688L102.716 81.4542Z" fill="#F9977A"/>
<path d="M121.342 78.5173C121.434 78.514 121.522 78.4749 121.587 78.408C121.651 78.3412 121.688 78.2519 121.688 78.159C121.688 78.066 121.651 77.9767 121.587 77.9099C121.522 77.843 121.434 77.8039 121.342 77.8007C121.249 77.8039 121.161 77.843 121.096 77.9099C121.032 77.9767 120.996 78.066 120.996 78.159C120.996 78.2519 121.032 78.3412 121.096 78.408C121.161 78.4749 121.249 78.514 121.342 78.5173Z" fill="#6C7FD8"/>
<path d="M123.497 78.1587C123.497 78.1587 124.222 78.8821 122.573 80.9535C122.589 81.0913 122.574 81.2309 122.529 81.3622C122.485 81.4936 122.411 81.6134 122.315 81.7131C122.394 81.8132 122.436 81.9368 122.436 82.0642C122.436 82.1916 122.394 82.3152 122.315 82.4153C122.368 82.5483 122.378 82.6946 122.343 82.8335C122.308 82.9724 122.231 83.0968 122.122 83.1892C122.122 83.1892 122.079 84.0707 121.498 84.0707H120.37C120.37 84.0707 120.013 83.7998 120.37 83.5977C120.37 83.5977 119.521 83.5547 120.166 82.9528C120.166 82.9528 119.779 82.5228 120.359 82.0929C120.308 82.0313 120.271 81.9589 120.252 81.8812C120.232 81.8035 120.231 81.7224 120.247 81.6439C120.263 81.5654 120.296 81.4916 120.345 81.4279C120.394 81.3642 120.456 81.3123 120.527 81.2759C121.031 81.199 121.529 81.0913 122.019 80.9535L123.497 78.1587Z" fill="#F9977A"/>
<path d="M101.167 85.3524C101.331 85.0513 101.549 84.7823 101.808 84.5582C102.065 84.3266 102.377 84.1657 102.714 84.0913C102.415 84.2392 102.136 84.4266 101.886 84.6486C101.633 84.8698 101.393 85.1047 101.167 85.3524Z" fill="#DD765E"/>
<path d="M119.965 80.6806C119.594 80.7216 119.221 80.7415 118.848 80.7403C118.474 80.7418 118.101 80.7218 117.73 80.6806C118.101 80.6395 118.474 80.6195 118.848 80.6209C119.221 80.6198 119.594 80.6397 119.965 80.6806Z" fill="#DD765E"/>
<path d="M116.47 79.7351C116.325 79.7757 116.176 79.7958 116.026 79.7948C115.876 79.7961 115.726 79.776 115.582 79.7351C115.726 79.6943 115.876 79.6743 116.026 79.6756C116.176 79.6746 116.325 79.6947 116.47 79.7351Z" fill="#DD765E"/>
<path d="M120.166 81.5122C119.808 81.5864 119.446 81.6397 119.082 81.6719C118.719 81.7069 118.353 81.7206 117.988 81.7129C118.346 81.6385 118.707 81.5852 119.071 81.5532C119.435 81.5185 119.8 81.5048 120.166 81.5122Z" fill="#DD765E"/>
<path d="M122.02 80.9528C122.047 80.9044 122.088 80.8649 122.137 80.8393C122.186 80.8137 122.242 80.8029 122.297 80.8085C122.351 80.8139 122.404 80.8285 122.452 80.8516C122.5 80.8757 122.542 80.9103 122.574 80.9528C122.465 80.951 122.379 80.9266 122.291 80.9275C122.2 80.9196 122.108 80.9282 122.02 80.9528Z" fill="#DD765E"/>
<path d="M120.36 82.0921C120.676 81.9889 120.999 81.9059 121.326 81.8437C121.653 81.7787 121.983 81.7348 122.316 81.7122C121.999 81.8157 121.676 81.8987 121.349 81.9607C121.022 82.0254 120.692 82.0693 120.36 82.0921Z" fill="#DD765E"/>
<path d="M120.167 82.953C120.516 82.8249 120.876 82.74 121.233 82.6479L121.774 82.5294C121.954 82.4908 122.137 82.4625 122.315 82.4155C122.15 82.501 121.976 82.569 121.796 82.6185C121.619 82.6735 121.439 82.7167 121.261 82.7639C120.9 82.8504 120.535 82.9136 120.167 82.953Z" fill="#DD765E"/>
<path d="M120.371 83.5974C120.656 83.5005 120.945 83.4202 121.239 83.3567C121.533 83.2964 121.824 83.2377 122.122 83.1889C121.849 83.3182 121.561 83.4137 121.265 83.4732C120.971 83.5392 120.672 83.5807 120.371 83.5974Z" fill="#DD765E"/>
<path d="M102.715 81.4542C102.693 80.9953 102.704 80.5375 102.722 80.0801C102.738 79.6225 102.778 79.1664 102.824 78.7108C102.876 78.2558 102.937 77.8011 103.027 77.3508C103.105 76.8968 103.233 76.453 103.409 76.0275C103.365 76.2536 103.322 76.4756 103.295 76.7022C103.262 76.9272 103.233 77.1528 103.209 77.379L103.062 78.7365C103.01 79.1892 102.964 79.6425 102.904 80.0951C102.848 80.5482 102.791 81.0014 102.715 81.4542Z" fill="#5E7C24"/>
<path d="M110.213 72.6808C110.329 72.6768 110.439 72.628 110.519 72.5447C110.599 72.4614 110.644 72.3501 110.644 72.2344C110.644 72.1186 110.599 72.0073 110.519 71.924C110.439 71.8407 110.329 71.7919 110.213 71.7879C110.098 71.7919 109.988 71.8407 109.908 71.924C109.827 72.0073 109.782 72.1186 109.782 72.2344C109.782 72.3501 109.827 72.4614 109.908 72.5447C109.988 72.628 110.098 72.6768 110.213 72.6808Z" fill="#5E7C24"/>
<path d="M110.749 76.1097C110.865 76.1057 110.974 76.0569 111.055 75.9736C111.135 75.8903 111.18 75.779 111.18 75.6632C111.18 75.5475 111.135 75.4362 111.055 75.3529C110.974 75.2696 110.865 75.2208 110.749 75.2168C110.633 75.2208 110.524 75.2696 110.443 75.3529C110.363 75.4362 110.318 75.5475 110.318 75.6632C110.318 75.779 110.363 75.8903 110.443 75.9736C110.524 76.0569 110.633 76.1057 110.749 76.1097Z" fill="#5E7C24"/>
<path d="M111.392 79.752C111.508 79.748 111.617 79.6992 111.698 79.6159C111.778 79.5327 111.823 79.4214 111.823 79.3056C111.823 79.1898 111.778 79.0785 111.698 78.9952C111.617 78.9119 111.508 78.8631 111.392 78.8591C111.276 78.8631 111.167 78.9119 111.086 78.9952C111.006 79.0785 110.961 79.1898 110.961 79.3056C110.961 79.4214 111.006 79.5327 111.086 79.6159C111.167 79.6992 111.276 79.748 111.392 79.752Z" fill="#5E7C24"/>
<path d="M112.034 87.7886C112.15 87.7846 112.259 87.7358 112.34 87.6525C112.42 87.5692 112.465 87.4579 112.465 87.3421C112.465 87.2264 112.42 87.1151 112.34 87.0318C112.259 86.9485 112.15 86.8997 112.034 86.8957C111.918 86.8997 111.809 86.9485 111.728 87.0318C111.648 87.1151 111.603 87.2264 111.603 87.3421C111.603 87.4579 111.648 87.5692 111.728 87.6525C111.809 87.7358 111.918 87.7846 112.034 87.7886Z" fill="#5E7C24"/>
<path d="M112.034 91.6458C112.15 91.6418 112.259 91.593 112.34 91.5097C112.42 91.4264 112.465 91.3151 112.465 91.1993C112.465 91.0835 112.42 90.9723 112.34 90.889C112.259 90.8057 112.15 90.7569 112.034 90.7529C111.918 90.7569 111.809 90.8057 111.728 90.889C111.648 90.9723 111.603 91.0835 111.603 91.1993C111.603 91.3151 111.648 91.4264 111.728 91.5097C111.809 91.593 111.918 91.6418 112.034 91.6458Z" fill="#5E7C24"/>
<path d="M111.606 94.9672C111.722 94.9632 111.831 94.9144 111.912 94.8311C111.992 94.7479 112.037 94.6366 112.037 94.5208C112.037 94.405 111.992 94.2937 111.912 94.2104C111.831 94.1271 111.722 94.0784 111.606 94.0743C111.49 94.0784 111.381 94.1271 111.3 94.2104C111.22 94.2937 111.175 94.405 111.175 94.5208C111.175 94.6366 111.22 94.7479 111.3 94.8311C111.381 94.9144 111.49 94.9632 111.606 94.9672Z" fill="#5E7C24"/>
<path d="M111.643 61.1288C111.643 61.1288 112.57 61.9803 113.345 61.3909L111.643 61.1288Z" fill="#DD2F22"/>
<path d="M109.891 60.5039C110.318 60.5932 110.763 60.5129 111.132 60.2799C111.379 60.1278 111.658 60.0356 111.947 60.0106C112.099 59.9987 112.253 60.0068 112.403 60.0349C112.569 60.0628 112.729 60.1188 112.876 60.2005L112.647 60.1366C112.72 60.1352 112.793 60.1345 112.867 60.1363L112.637 60.2003C112.715 60.1565 112.798 60.1202 112.883 60.0919C112.957 60.0667 113.033 60.0474 113.11 60.0342C113.26 60.0062 113.414 59.9979 113.567 60.0095C113.856 60.0344 114.135 60.1266 114.381 60.2788C114.547 60.3905 114.733 60.4664 114.93 60.5014C115.159 60.5437 115.393 60.5446 115.622 60.5039C115.437 60.7115 115.196 60.8608 114.928 60.9333C114.66 61.0058 114.377 60.9985 114.113 60.9122C113.93 60.8567 113.738 60.8338 113.547 60.8445C113.462 60.8518 113.377 60.8664 113.294 60.8881C113.254 60.8986 113.215 60.9138 113.177 60.9264C113.15 60.9369 113.123 60.9489 113.096 60.9623L112.867 61.0264C112.793 61.0281 112.72 61.0277 112.647 61.0261L112.417 60.9622C112.391 60.9487 112.364 60.9367 112.336 60.9262C112.298 60.9136 112.26 60.8975 112.219 60.8873C112.136 60.8657 112.051 60.8511 111.966 60.8436C111.775 60.8326 111.583 60.8555 111.4 60.9111C111.136 60.9971 110.853 61.0044 110.585 60.9321C110.317 60.8598 110.076 60.711 109.891 60.5039Z" fill="#1E1D22"/>
<path d="M163.264 85.3077C176.484 85.3077 187.201 74.5877 187.201 61.3639C187.201 48.1401 176.484 37.42 163.264 37.42C150.044 37.42 139.328 48.1401 139.328 61.3639C139.328 74.5877 150.044 85.3077 163.264 85.3077Z" fill="#FFBA55"/>
<path d="M170.454 57.4717C170.454 57.4004 170.426 57.332 170.376 57.2816C170.325 57.2312 170.257 57.2029 170.186 57.2029H165.325C165.254 57.2029 165.185 57.2312 165.135 57.2816C165.084 57.332 165.056 57.4004 165.056 57.4717V57.5065C165.056 57.5778 165.084 57.6462 165.135 57.6966C165.185 57.747 165.254 57.7753 165.325 57.7753H167.096C167.424 57.7757 167.745 57.8751 168.016 58.0604C168.287 58.2457 168.495 58.5085 168.615 58.8143C168.631 58.8553 168.638 58.8998 168.633 58.9438C168.629 58.9878 168.613 59.0301 168.589 59.0669C168.564 59.1037 168.531 59.1339 168.492 59.1549C168.453 59.1759 168.41 59.187 168.365 59.1873H165.325C165.254 59.1873 165.185 59.2156 165.135 59.266C165.084 59.3165 165.056 59.3848 165.056 59.4561V59.4909C165.056 59.5622 165.084 59.6306 165.135 59.681C165.185 59.7314 165.254 59.7597 165.325 59.7597H168.306C168.352 59.7601 168.398 59.7724 168.439 59.7957C168.479 59.8189 168.513 59.8522 168.537 59.8923C168.561 59.9325 168.574 59.9781 168.575 60.0248C168.576 60.0715 168.565 60.1177 168.543 60.1589C168.405 60.4239 168.198 60.6459 167.943 60.801C167.687 60.956 167.395 61.038 167.096 61.0382H165.611C165.576 61.0382 165.541 61.0451 165.508 61.0586C165.476 61.0721 165.446 61.0919 165.421 61.1169C165.396 61.1419 165.376 61.1715 165.363 61.2041C165.349 61.2367 165.342 61.2717 165.342 61.307V61.5178C165.342 61.5768 165.362 61.6341 165.397 61.6809L168.169 65.3124C168.213 65.3691 168.276 65.4062 168.347 65.4157C168.418 65.4252 168.489 65.4062 168.546 65.363L168.574 65.3419C168.602 65.3204 168.625 65.2937 168.643 65.2632C168.661 65.2326 168.672 65.1989 168.677 65.1639C168.682 65.1289 168.679 65.0933 168.67 65.0592C168.661 65.0251 168.646 64.9931 168.624 64.965L166.393 62.0425C166.363 62.0027 166.344 61.9552 166.339 61.9053C166.334 61.8554 166.344 61.8051 166.366 61.7602C166.388 61.7153 166.422 61.6775 166.465 61.651C166.507 61.6246 166.557 61.6106 166.607 61.6106H167.429C167.454 61.6106 167.479 61.6076 167.503 61.6016C167.911 61.5132 168.287 61.3147 168.591 61.0277C168.895 60.7407 169.114 60.376 169.225 59.9732C169.239 59.9134 169.272 59.8599 169.32 59.8212C169.368 59.7826 169.427 59.7609 169.488 59.7597H170.186C170.257 59.7597 170.325 59.7314 170.376 59.681C170.426 59.6306 170.454 59.5622 170.454 59.4909V59.4561C170.454 59.3848 170.426 59.3165 170.376 59.266C170.325 59.2156 170.257 59.1873 170.186 59.1873H169.533C169.469 59.1885 169.407 59.1678 169.357 59.1288C169.307 59.0897 169.272 59.0346 169.258 58.9727C169.173 58.546 168.963 58.1543 168.655 57.8478C168.629 57.8222 168.601 57.7995 168.575 57.7753H170.186C170.257 57.7753 170.325 57.747 170.376 57.6966C170.426 57.6462 170.454 57.5778 170.454 57.5065V57.4717Z" fill="#5E7C24"/>
<path d="M177.009 57.4717C177.009 57.4004 176.98 57.332 176.93 57.2816C176.88 57.2312 176.811 57.2029 176.74 57.2029H171.879C171.808 57.2029 171.739 57.2312 171.689 57.2816C171.639 57.332 171.61 57.4004 171.61 57.4717V57.5065C171.61 57.5778 171.639 57.6462 171.689 57.6966C171.739 57.747 171.808 57.7753 171.879 57.7753H173.65C173.979 57.7757 174.299 57.8751 174.57 58.0604C174.841 58.2457 175.05 58.5085 175.169 58.8143C175.186 58.8553 175.192 58.8998 175.187 58.9438C175.183 58.9878 175.168 59.0301 175.143 59.0669C175.118 59.1037 175.085 59.1339 175.046 59.1549C175.007 59.1759 174.964 59.187 174.92 59.1873H171.879C171.808 59.1873 171.739 59.2156 171.689 59.266C171.639 59.3165 171.61 59.3848 171.61 59.4561V59.4909C171.61 59.5622 171.639 59.6306 171.689 59.681C171.739 59.7314 171.808 59.7597 171.879 59.7597H174.86C174.907 59.7601 174.952 59.7724 174.993 59.7957C175.033 59.8189 175.067 59.8522 175.091 59.8923C175.115 59.9325 175.128 59.9781 175.129 60.0248C175.13 60.0715 175.119 60.1177 175.097 60.1589C174.96 60.4239 174.752 60.6459 174.497 60.801C174.242 60.956 173.949 61.038 173.65 61.0382H172.165C172.13 61.0382 172.095 61.0451 172.062 61.0586C172.03 61.0721 172 61.0919 171.975 61.1169C171.95 61.1419 171.93 61.1715 171.917 61.2041C171.903 61.2367 171.896 61.2717 171.896 61.307V61.5178C171.896 61.5768 171.916 61.6341 171.952 61.6809L174.723 65.3124C174.767 65.3691 174.831 65.4062 174.901 65.4157C174.972 65.4252 175.043 65.4062 175.1 65.363L175.128 65.3419C175.156 65.3204 175.179 65.2937 175.197 65.2632C175.215 65.2326 175.226 65.1989 175.231 65.1639C175.236 65.1289 175.234 65.0933 175.224 65.0592C175.215 65.0251 175.2 64.9931 175.178 64.965L172.947 62.0425C172.917 62.0027 172.898 61.9552 172.893 61.9053C172.889 61.8554 172.898 61.8051 172.92 61.7602C172.942 61.7153 172.977 61.6775 173.019 61.651C173.062 61.6246 173.111 61.6106 173.161 61.6106H173.983C174.008 61.6106 174.033 61.6076 174.057 61.6016C174.465 61.5132 174.842 61.3147 175.145 61.0277C175.449 60.7407 175.668 60.376 175.779 59.9732C175.793 59.9134 175.826 59.8599 175.874 59.8212C175.922 59.7826 175.981 59.7609 176.042 59.7597H176.74C176.811 59.7597 176.88 59.7314 176.93 59.681C176.98 59.6306 177.009 59.5622 177.009 59.4909V59.4561C177.009 59.3848 176.98 59.3165 176.93 59.266C176.88 59.2156 176.811 59.1873 176.74 59.1873H176.087C176.023 59.1885 175.962 59.1678 175.912 59.1288C175.862 59.0897 175.826 59.0346 175.812 58.9727C175.728 58.546 175.518 58.1543 175.209 57.8478C175.183 57.8222 175.156 57.7995 175.129 57.7753H176.74C176.811 57.7753 176.88 57.747 176.93 57.6966C176.98 57.6462 177.009 57.5778 177.009 57.5065V57.4717Z" fill="#5E7C24"/>
<path d="M168.274 79.7018C171.437 79.7018 174 77.1373 174 73.9738C174 70.8103 171.437 68.2458 168.274 68.2458C165.112 68.2458 162.548 70.8103 162.548 73.9738C162.548 77.1373 165.112 79.7018 168.274 79.7018Z" fill="#F9E0C0"/>
<path d="M166.953 76.8416L166.947 76.8413C166.876 76.8406 166.805 76.8254 166.74 76.7965C166.674 76.7677 166.615 76.7258 166.566 76.6734L164.669 74.6397C164.574 74.5372 164.523 74.4011 164.528 74.2612C164.533 74.1213 164.593 73.989 164.695 73.8936C164.798 73.7981 164.934 73.7471 165.073 73.7519C165.213 73.7567 165.346 73.8168 165.441 73.9191L166.96 75.5469L171.114 71.2678C171.162 71.218 171.22 71.1783 171.283 71.1508C171.347 71.1233 171.416 71.1086 171.485 71.1076C171.554 71.1066 171.623 71.1192 171.688 71.1449C171.752 71.1705 171.811 71.2085 171.861 71.2569C171.911 71.3052 171.95 71.3629 171.978 71.4266C172.005 71.4903 172.02 71.5588 172.021 71.6282C172.022 71.6976 172.009 71.7665 171.984 71.831C171.958 71.8955 171.92 71.9543 171.872 72.0041L167.331 76.6813C167.282 76.732 167.223 76.7723 167.158 76.7998C167.093 76.8274 167.023 76.8416 166.953 76.8416Z" fill="#6C7FD8"/>
<path d="M176.618 50.0514H150.127V51.372H176.618V50.0514Z" fill="#F9E0C0"/>
<path d="M176.746 53.2569H150.255V54.5775H176.746V53.2569Z" fill="#F9E0C0"/>
<path d="M159.528 51.6542H126.915C126.095 51.6542 125.43 52.3191 125.43 53.1394V74.0763C125.43 74.8966 126.095 75.5615 126.915 75.5615H159.528C160.348 75.5615 161.013 74.8966 161.013 74.0763V53.1394C161.013 52.3191 160.348 51.6542 159.528 51.6542Z" fill="#F73C4F"/>
<path d="M147.498 53.3543H127.034V54.8424H147.498V53.3543Z" fill="#F9E0C0"/>
<path d="M125.431 61.812L161.014 61.812V56.0834L125.431 56.0834V61.812Z" fill="#F9E0C0"/>
<path d="M158.418 67.7904H149.942V69.2785H158.418V67.7904Z" fill="#FFBA55"/>
<path d="M154.179 71.6246H145.895V73.1127H154.179V71.6246Z" fill="#FFBA55"/>
<path d="M144.062 71.6246H139.328V73.1127H144.062V71.6246Z" fill="#FFBA55"/>
<path d="M148.415 67.7904H143.681V69.2785H148.415V67.7904Z" fill="#FFBA55"/>
<path d="M129.554 73.7412C132.42 73.7412 132.425 69.2857 129.554 69.2857C126.688 69.2857 126.683 73.7412 129.554 73.7412Z" fill="#FFBA55"/>
<path d="M96.6625 51.9155C96.6625 51.8306 96.6288 51.7492 96.5688 51.6892C96.5088 51.6292 96.4275 51.5955 96.3426 51.5955H89.1363C89.0515 51.5955 88.9701 51.6292 88.9101 51.6892C88.8501 51.7492 88.8164 51.8306 88.8164 51.9155V52.1075C88.8164 52.1923 88.8501 52.2737 88.9101 52.3337C88.9701 52.3937 89.0515 52.4275 89.1363 52.4275H91.7815C92.2832 52.4282 92.7717 52.5878 93.1769 52.8835C93.5822 53.1793 93.8834 53.5958 94.0372 54.0734C94.0511 54.121 94.0535 54.1713 94.0445 54.22C94.0354 54.2688 94.0151 54.3148 93.9851 54.3543C93.9551 54.3937 93.9162 54.4257 93.8717 54.4474C93.8272 54.4692 93.7781 54.4803 93.7285 54.4797H89.1363C89.0515 54.4797 88.9701 54.5134 88.9101 54.5734C88.8501 54.6335 88.8164 54.7148 88.8164 54.7997V54.9917C88.8164 55.0766 88.8501 55.158 88.9101 55.218C88.9701 55.278 89.0515 55.3117 89.1363 55.3117H93.653C93.7067 55.3119 93.7595 55.3256 93.8067 55.3514C93.8538 55.3772 93.8937 55.4145 93.9227 55.4597C93.9518 55.5049 93.9691 55.5566 93.973 55.6102C93.9769 55.6638 93.9674 55.7176 93.9453 55.7666C93.7583 56.1843 93.4545 56.5389 93.0706 56.7879C92.6867 57.0369 92.2391 57.1695 91.7815 57.1698H89.5522C89.4673 57.1698 89.386 57.2036 89.326 57.2636C89.266 57.3236 89.2323 57.405 89.2323 57.4898V57.8909C89.2323 57.9611 89.2554 58.0293 89.2979 58.0851L93.3841 63.4384C93.4355 63.5058 93.5117 63.5501 93.5958 63.5614C93.6798 63.5726 93.765 63.5501 93.8324 63.4986L93.985 63.3821C94.0184 63.3566 94.0464 63.3248 94.0675 63.2884C94.0886 63.2521 94.1024 63.2119 94.108 63.1703C94.1136 63.1286 94.1109 63.0863 94.1001 63.0456C94.0893 63.005 94.0707 62.9669 94.0452 62.9335L90.6729 58.516C90.6367 58.4686 90.6144 58.412 90.6087 58.3526C90.603 58.2932 90.6139 58.2334 90.6404 58.18C90.6668 58.1265 90.7077 58.0815 90.7583 58.05C90.809 58.0185 90.8675 58.0018 90.9271 58.0018H92.2761C92.3051 58.0018 92.334 57.9983 92.3621 57.9913C92.9707 57.862 93.5308 57.5642 93.9785 57.132C94.4263 56.6998 94.7437 56.1505 94.8946 55.5467C94.9122 55.4787 94.9522 55.4185 95.0082 55.3759C95.0641 55.3333 95.1326 55.3107 95.2029 55.3117H96.3426C96.4275 55.3117 96.5088 55.278 96.5688 55.218C96.6288 55.158 96.6625 55.0766 96.6625 54.9917V54.7997C96.6625 54.7148 96.6288 54.6334 96.5688 54.5734C96.5088 54.5134 96.4275 54.4797 96.3426 54.4797H95.2472C95.1738 54.4807 95.1024 54.4559 95.0453 54.4097C94.9883 54.3636 94.9492 54.2989 94.9348 54.2269C94.8201 53.5843 94.5099 52.9927 94.0467 52.5328C94.0095 52.4956 93.9692 52.4626 93.9305 52.4274H96.3426C96.4275 52.4274 96.5088 52.3937 96.5688 52.3337C96.6288 52.2737 96.6625 52.1923 96.6625 52.1074V51.9155Z" fill="#FFBA55"/>
</svg>
