<svg width="60" height="60" viewBox="0 0 60 60" fill="none" xmlns="http://www.w3.org/2000/svg">
<path d="M48.125 52.5L44.625 49L48.5625 45H38.125V40H48.5625L44.625 36L48.125 32.5L58.125 42.5L48.125 52.5ZM25 37.5C27.3333 37.5 29.4375 36.9267 31.3125 35.78C33.1875 34.6333 34.6667 33.1233 35.75 31.25C34.2917 30.0417 32.6458 29.1142 30.8125 28.4675C28.9792 27.8208 27.0417 27.4983 25 27.5C22.9583 27.5 21.0208 27.8233 19.1875 28.47C17.3542 29.1167 15.7083 30.0433 14.25 31.25C15.3333 33.125 16.8125 34.6358 18.6875 35.7825C20.5625 36.9292 22.6667 37.5017 25 37.5ZM25 25C26.375 25 27.5525 24.51 28.5325 23.53C29.5125 22.55 30.0017 21.3733 30 20C30 18.625 29.51 17.4475 28.53 16.4675C27.55 15.4875 26.3733 14.9983 25 15C23.625 15 22.4475 15.49 21.4675 16.47C20.4875 17.45 19.9983 18.6267 20 20C20 21.375 20.49 22.5525 21.47 23.5325C22.45 24.5125 23.6267 25.0017 25 25ZM25 55C18.2917 49.2917 13.2817 43.99 9.97 39.095C6.65833 34.2 5.00167 29.6683 5 25.5C5 19.25 7.01083 14.2708 11.0325 10.5625C15.0542 6.85417 19.71 5 25 5C30.2917 5 34.9483 6.85417 38.97 10.5625C42.9917 14.2708 45.0017 19.25 45 25.5C45 25.875 44.9892 26.2608 44.9675 26.6575C44.9458 27.0542 44.8942 27.46 44.8125 27.875H39.75C39.8333 27.4583 39.8958 27.0517 39.9375 26.655C39.9792 26.2583 40 25.8733 40 25.5C40 20.9583 38.5517 17.2392 35.655 14.3425C32.7583 11.4458 29.2067 9.99833 25 10C20.7917 10 17.2392 11.4483 14.3425 14.345C11.4458 17.2417 9.99833 20.96 10 25.5C10 28.4583 11.2292 31.8442 13.6875 35.6575C16.1458 39.4708 19.9167 43.71 25 48.375C25.9583 47.5417 26.8442 46.7083 27.6575 45.875C28.4708 45.0417 29.2517 44.2292 30 43.4375L30.5625 44L31.7825 45.22C32.2192 45.6567 32.615 46.0625 32.97 46.4375L33.5 47C32.2917 48.2917 30.9792 49.6042 29.5625 50.9375C28.1458 52.2708 26.625 53.625 25 55Z" fill="#13B68F"/>
</svg>
