<svg width="24" height="24" viewBox="0 0 24 24" fill="none" xmlns="http://www.w3.org/2000/svg">
<path d="M2 18V17.2C2 16.65 2.14167 16.1333 2.425 15.65C2.70833 15.1667 3.1 14.8 3.6 14.55C4.45 14.1167 5.40834 13.75 6.475 13.45C7.54167 13.15 8.71667 13 10 13H10.35C10.45 13 10.55 13.0167 10.65 13.05C10.1667 14.25 9.96667 15.4417 10.05 16.625C10.1333 17.8083 10.5333 18.9333 11.25 20H4C3.45 20 2.979 19.804 2.587 19.412C2.195 19.02 1.99934 18.5493 2 18ZM17 18C17.55 18 18.021 17.804 18.413 17.412C18.805 17.02 19.0007 16.5493 19 16C19 15.45 18.804 14.979 18.412 14.587C18.02 14.195 17.5493 13.9993 17 14C16.45 14 15.979 14.196 15.587 14.588C15.195 14.98 14.9993 15.4507 15 16C15 16.55 15.196 17.021 15.588 17.413C15.98 17.805 16.4507 18.0007 17 18ZM10 12C8.9 12 7.95834 11.6083 7.175 10.825C6.39167 10.0417 6 9.1 6 8C6 6.9 6.39167 5.95833 7.175 5.175C7.95834 4.39167 8.9 4 10 4C11.1 4 12.0417 4.39167 12.825 5.175C13.6083 5.95833 14 6.9 14 8C14 9.1 13.6083 10.0417 12.825 10.825C12.0417 11.6083 11.1 12 10 12ZM15.85 20.2L15.7 19.5C15.5 19.4167 15.3127 19.3293 15.138 19.238C14.9633 19.1467 14.784 19.034 14.6 18.9L13.875 19.125C13.6583 19.1917 13.446 19.1833 13.238 19.1C13.03 19.0167 12.8673 18.8833 12.75 18.7L12.55 18.35C12.4333 18.15 12.3917 17.9333 12.425 17.7C12.4583 17.4667 12.5667 17.275 12.75 17.125L13.3 16.65C13.2667 16.4167 13.25 16.2 13.25 16C13.25 15.8 13.2667 15.5833 13.3 15.35L12.75 14.875C12.5667 14.725 12.4583 14.5373 12.425 14.312C12.3917 14.0867 12.4333 13.8743 12.55 13.675L12.775 13.3C12.8917 13.1167 13.05 12.9833 13.25 12.9C13.45 12.8167 13.6583 12.8083 13.875 12.875L14.6 13.1C14.7833 12.9667 14.9623 12.854 15.137 12.762C15.3117 12.67 15.4993 12.5827 15.7 12.5L15.85 11.775C15.9 11.5417 16.0127 11.354 16.188 11.212C16.3633 11.07 16.5673 10.9993 16.8 11H17.2C17.4333 11 17.6377 11.075 17.813 11.225C17.9883 11.375 18.1007 11.5667 18.15 11.8L18.3 12.5C18.5 12.5833 18.6873 12.675 18.862 12.775C19.0367 12.875 19.216 13 19.4 13.15L20.075 12.925C20.3083 12.8417 20.5333 12.8417 20.75 12.925C20.9667 13.0083 21.1333 13.15 21.25 13.35L21.45 13.7C21.5667 13.9 21.6083 14.1167 21.575 14.35C21.5417 14.5833 21.4333 14.775 21.25 14.925L20.7 15.4C20.7333 15.6 20.75 15.8083 20.75 16.025C20.75 16.2417 20.7333 16.45 20.7 16.65L21.25 17.125C21.4333 17.275 21.5417 17.4627 21.575 17.688C21.6083 17.9133 21.5667 18.1257 21.45 18.325L21.225 18.7C21.1083 18.8833 20.95 19.0167 20.75 19.1C20.55 19.1833 20.3417 19.1917 20.125 19.125L19.4 18.9C19.2167 19.0333 19.0373 19.1457 18.862 19.237C18.6867 19.3283 18.4993 19.416 18.3 19.5L18.15 20.225C18.1 20.4583 17.9877 20.646 17.813 20.788C17.6383 20.93 17.434 21.0007 17.2 21H16.8C16.5667 21 16.3623 20.925 16.187 20.775C16.0117 20.625 15.8993 20.4333 15.85 20.2Z" fill="black"/>
</svg>
