<svg width="40" height="40" viewBox="0 0 40 40" fill="none" xmlns="http://www.w3.org/2000/svg">
<path d="M18.3333 13.3333C18.3333 17.0167 15.35 20 11.6667 20C7.98333 20 5 17.0167 5 13.3333C5 9.65 7.98333 6.66667 11.6667 6.66667C15.35 6.66667 18.3333 9.65 18.3333 13.3333ZM18.3333 24.5333V33.3333H0V30C0 26.3167 5.21667 23.3333 11.6667 23.3333C14.1667 23.3333 16.45 23.7833 18.3333 24.5333ZM40 33.3333H21.6667V5H40V33.3333ZM26.6667 19.1667C26.6667 18.0616 27.1057 17.0018 27.8871 16.2204C28.6685 15.439 29.7283 15 30.8333 15C31.9384 15 32.9982 15.439 33.7796 16.2204C34.561 17.0018 35 18.0616 35 19.1667C35 20.2717 34.561 21.3315 33.7796 22.1129C32.9982 22.8943 31.9384 23.3333 30.8333 23.3333C29.7283 23.3333 28.6685 22.8943 27.8871 22.1129C27.1057 21.3315 26.6667 20.2717 26.6667 19.1667ZM36.6667 11.6667C35.7826 11.6667 34.9348 11.3155 34.3096 10.6904C33.6845 10.0652 33.3333 9.21739 33.3333 8.33333H28.3333C28.3333 10.1833 26.85 11.6667 25 11.6667V26.6667C25.8841 26.6667 26.7319 27.0179 27.357 27.643C27.9821 28.2681 28.3333 29.1159 28.3333 30H33.3333C33.3333 28.1667 34.8333 26.6667 36.6667 26.6667V11.6667Z" fill="#2C71F0"/>
</svg>
