<svg width="31" height="31" viewBox="0 0 31 31" fill="none" xmlns="http://www.w3.org/2000/svg">
<path d="M28.7831 7.5387C27.8157 7.97844 26.7729 8.26742 25.6924 8.40562C26.798 7.73973 27.6524 6.68434 28.0544 5.41537C27.0116 6.04357 25.8557 6.48331 24.637 6.7346C23.6444 5.65408 22.2498 5.02588 20.6667 5.02588C17.7142 5.02588 15.3018 7.43819 15.3018 10.4159C15.3018 10.8431 15.3521 11.2577 15.44 11.6472C10.9672 11.421 6.98441 9.27255 4.33338 6.01844C3.86851 6.80998 3.60466 7.73973 3.60466 8.71973C3.60466 10.5918 4.54697 12.2502 6.00441 13.1925C5.11236 13.1925 4.28313 12.9413 3.55441 12.5643V12.602C3.55441 15.2154 5.4139 17.4015 7.87646 17.8915C7.08583 18.1079 6.25581 18.138 5.45159 17.9795C5.79284 19.0505 6.46116 19.9877 7.36261 20.6593C8.26406 21.3309 9.3533 21.7031 10.4772 21.7236C8.57205 23.2318 6.21045 24.0471 3.78056 24.0354C3.35338 24.0354 2.9262 24.0102 2.49902 23.96C4.8862 25.4928 7.72569 26.3849 10.7662 26.3849C20.6667 26.3849 26.107 18.1679 26.107 11.0441C26.107 10.8054 26.107 10.5792 26.0944 10.3405C27.1498 9.58665 28.0544 8.63178 28.7831 7.5387Z" fill="black"/>
</svg>
