<svg width="31" height="31" viewBox="0 0 31 31" fill="none" xmlns="http://www.w3.org/2000/svg">
<path d="M28.7841 7.5387C27.8167 7.97844 26.7738 8.26742 25.6933 8.40562C26.799 7.73973 27.6533 6.68434 28.0554 5.41537C27.0126 6.04357 25.8567 6.48331 24.6379 6.7346C23.6454 5.65408 22.2508 5.02588 20.6677 5.02588C17.7151 5.02588 15.3028 7.43819 15.3028 10.4159C15.3028 10.8431 15.3531 11.2577 15.441 11.6472C10.9682 11.421 6.98538 9.27255 4.33436 6.01844C3.86949 6.80998 3.60564 7.73973 3.60564 8.71973C3.60564 10.5918 4.54795 12.2502 6.00538 13.1925C5.11333 13.1925 4.2841 12.9413 3.55538 12.5643V12.602C3.55538 15.2154 5.41487 17.4015 7.87744 17.8915C7.08681 18.1079 6.25679 18.138 5.45256 17.9795C5.79381 19.0505 6.46214 19.9877 7.36358 20.6593C8.26503 21.3309 9.35428 21.7031 10.4782 21.7236C8.57302 23.2318 6.21143 24.0471 3.78154 24.0354C3.35436 24.0354 2.92718 24.0102 2.5 23.96C4.88718 25.4928 7.72667 26.3849 10.7672 26.3849C20.6677 26.3849 26.108 18.1679 26.108 11.0441C26.108 10.8054 26.1079 10.5792 26.0954 10.3405C27.1508 9.58665 28.0554 8.63178 28.7841 7.5387Z" fill="black"/>
</svg>
