<svg width="31" height="31" viewBox="0 0 31 31" fill="none" xmlns="http://www.w3.org/2000/svg">
<path d="M28.1729 15.0772C28.1729 12.6543 27.4544 10.2859 26.1084 8.27142C24.7623 6.25692 22.8491 4.6868 20.6107 3.75963C18.3723 2.83246 15.9093 2.58987 13.533 3.06253C11.1567 3.5352 8.97399 4.7019 7.2608 6.4151C5.54761 8.12829 4.38091 10.311 3.90824 12.6873C3.43557 15.0636 3.67816 17.5266 4.60533 19.765C5.53251 22.0034 7.10262 23.9166 9.11712 25.2627C11.1316 26.6087 13.5 27.3272 15.9229 27.3272C19.1708 27.324 22.2848 26.0324 24.5815 23.7358C26.8781 21.4391 28.1697 18.3251 28.1729 15.0772ZM16.8652 25.3954V17.9041H19.6921C19.942 17.9041 20.1817 17.8048 20.3584 17.6281C20.5351 17.4514 20.6344 17.2117 20.6344 16.9618C20.6344 16.7119 20.5351 16.4722 20.3584 16.2955C20.1817 16.1187 19.942 16.0195 19.6921 16.0195H16.8652V13.1925C16.8652 12.6927 17.0637 12.2133 17.4172 11.8599C17.7706 11.5065 18.25 11.3079 18.7498 11.3079H20.6344C20.8843 11.3079 21.124 11.2086 21.3007 11.0319C21.4774 10.8552 21.5767 10.6155 21.5767 10.3656C21.5767 10.1157 21.4774 9.87602 21.3007 9.6993C21.124 9.52259 20.8843 9.42331 20.6344 9.42331H18.7498C17.7511 9.42641 16.7942 9.82453 16.088 10.5307C15.3818 11.2369 14.9837 12.1938 14.9805 13.1925V16.0195H12.1536C11.9037 16.0195 11.664 16.1187 11.4873 16.2955C11.3106 16.4722 11.2113 16.7119 11.2113 16.9618C11.2113 17.2117 11.3106 17.4514 11.4873 17.6281C11.664 17.8048 11.9037 17.9041 12.1536 17.9041H14.9805V25.3954C12.3242 25.1529 9.86354 23.8957 8.11046 21.8853C6.35739 19.8748 5.44684 17.266 5.56821 14.6013C5.68958 11.9367 6.83353 9.42137 8.76212 7.57863C10.6907 5.73589 13.2554 4.70757 15.9229 4.70757C18.5903 4.70757 21.155 5.73589 23.0836 7.57863C25.0122 9.42137 26.1561 11.9367 26.2775 14.6013C26.3989 17.266 25.4883 19.8748 23.7353 21.8853C21.9822 23.8957 19.5215 25.1529 16.8652 25.3954Z" fill="black"/>
</svg>
