<svg width="31" height="31" viewBox="0 0 31 31" fill="none" xmlns="http://www.w3.org/2000/svg">
<path d="M28.1738 15.0772C28.1738 12.6543 27.4554 10.2859 26.1093 8.27142C24.7633 6.25692 22.8501 4.6868 20.6117 3.75963C18.3733 2.83246 15.9102 2.58987 13.534 3.06253C11.1577 3.5352 8.97497 4.7019 7.26178 6.4151C5.54858 8.12829 4.38188 10.311 3.90921 12.6873C3.43654 15.0636 3.67914 17.5266 4.60631 19.765C5.53348 22.0034 7.1036 23.9166 9.1181 25.2627C11.1326 26.6087 13.501 27.3272 15.9238 27.3272C19.1718 27.324 22.2858 26.0324 24.5824 23.7358C26.8791 21.4391 28.1707 18.3251 28.1738 15.0772ZM16.8661 25.3954V17.9041H19.6931C19.943 17.9041 20.1827 17.8048 20.3594 17.6281C20.5361 17.4514 20.6354 17.2117 20.6354 16.9618C20.6354 16.7119 20.5361 16.4722 20.3594 16.2955C20.1827 16.1187 19.943 16.0195 19.6931 16.0195H16.8661V13.1925C16.8661 12.6927 17.0647 12.2133 17.4181 11.8599C17.7716 11.5065 18.2509 11.3079 18.7508 11.3079H20.6354C20.8853 11.3079 21.125 11.2086 21.3017 11.0319C21.4784 10.8552 21.5777 10.6155 21.5777 10.3656C21.5777 10.1157 21.4784 9.87602 21.3017 9.6993C21.125 9.52259 20.8853 9.42331 20.6354 9.42331H18.7508C17.7521 9.42641 16.7951 9.82453 16.0889 10.5307C15.3827 11.2369 14.9846 12.1938 14.9815 13.1925V16.0195H12.1546C11.9047 16.0195 11.665 16.1187 11.4883 16.2955C11.3116 16.4722 11.2123 16.7119 11.2123 16.9618C11.2123 17.2117 11.3116 17.4514 11.4883 17.6281C11.665 17.8048 11.9047 17.9041 12.1546 17.9041H14.9815V25.3954C12.3252 25.1529 9.86452 23.8957 8.11144 21.8853C6.35837 19.8748 5.44781 17.266 5.56918 14.6013C5.69056 11.9367 6.83451 9.42137 8.76309 7.57863C10.6917 5.73589 13.2564 4.70757 15.9238 4.70757C18.5913 4.70757 21.156 5.73589 23.0846 7.57863C25.0132 9.42137 26.1571 11.9367 26.2785 14.6013C26.3999 17.266 25.4893 19.8748 23.7362 21.8853C21.9832 23.8957 19.5225 25.1529 16.8661 25.3954Z" fill="black"/>
</svg>
