<svg width="31" height="31" viewBox="0 0 31 31" fill="none" xmlns="http://www.w3.org/2000/svg">
<path d="M15.3585 9.89453C14.3334 9.89453 13.3314 10.1985 12.4791 10.768C11.6268 11.3375 10.9626 12.1469 10.5703 13.0939C10.178 14.0409 10.0754 15.083 10.2754 16.0883C10.4753 17.0937 10.9689 18.0171 11.6938 18.7419C12.4186 19.4668 13.342 19.9604 14.3474 20.1603C15.3527 20.3603 16.3948 20.2577 17.3418 19.8654C18.2888 19.4731 19.0982 18.8089 19.6677 17.9566C20.2372 17.1043 20.5412 16.1023 20.5412 15.0772C20.5412 13.7027 19.9951 12.3844 19.0232 11.4125C18.0512 10.4406 16.733 9.89453 15.3585 9.89453ZM15.3585 19.3176C14.5198 19.3176 13.7 19.0689 13.0026 18.603C12.3053 18.137 11.7618 17.4748 11.4409 16.6999C11.1199 15.9251 11.036 15.0725 11.1996 14.25C11.3632 13.4274 11.767 12.6718 12.3601 12.0788C12.9531 11.4858 13.7087 11.0819 14.5312 10.9183C15.3538 10.7547 16.2064 10.8387 16.9812 11.1596C17.756 11.4806 18.4183 12.0241 18.8842 12.7214C19.3502 13.4187 19.5989 14.2386 19.5989 15.0772C19.5989 16.2018 19.1521 17.2804 18.3569 18.0756C17.5617 18.8709 16.4831 19.3176 15.3585 19.3176ZM20.5412 3.76953H10.1758C8.55133 3.76953 6.99341 4.41484 5.84475 5.5635C4.69609 6.71216 4.05078 8.27008 4.05078 9.89453V20.2599C4.05078 21.0643 4.20921 21.8607 4.51702 22.6039C4.82483 23.347 5.27599 24.0222 5.84475 24.5909C6.99341 25.7396 8.55133 26.3849 10.1758 26.3849H20.5412C21.3455 26.3849 22.142 26.2265 22.8851 25.9187C23.6282 25.6109 24.3034 25.1597 24.8722 24.5909C25.441 24.0222 25.8921 23.347 26.1999 22.6039C26.5077 21.8607 26.6662 21.0643 26.6662 20.2599V9.89453C26.6662 9.09018 26.5077 8.29372 26.1999 7.5506C25.8921 6.80748 25.441 6.13226 24.8722 5.5635C24.3034 4.99474 23.6282 4.54358 22.8851 4.23577C22.142 3.92796 21.3455 3.76953 20.5412 3.76953ZM25.7239 20.2599C25.7239 21.6345 25.1778 22.9527 24.2059 23.9246C23.2339 24.8966 21.9157 25.4426 20.5412 25.4426H10.1758C8.80125 25.4426 7.48301 24.8966 6.51106 23.9246C5.53912 22.9527 4.99309 21.6345 4.99309 20.2599V9.89453C4.99309 8.52 5.53912 7.20176 6.51106 6.22981C7.48301 5.25787 8.80125 4.71184 10.1758 4.71184H20.5412C21.9157 4.71184 23.2339 5.25787 24.2059 6.22981C25.1778 7.20176 25.7239 8.52 25.7239 9.89453V20.2599ZM22.4258 8.95222C22.4258 9.13859 22.3705 9.32078 22.267 9.47574C22.1634 9.6307 22.0163 9.75148 21.8441 9.8228C21.6719 9.89412 21.4824 9.91278 21.2996 9.87643C21.1168 9.84007 20.9489 9.75032 20.8172 9.61854C20.6854 9.48675 20.5956 9.31885 20.5593 9.13606C20.5229 8.95327 20.5416 8.7638 20.6129 8.59162C20.6842 8.41943 20.805 8.27227 20.96 8.16872C21.1149 8.06518 21.2971 8.00992 21.4835 8.00992C21.7334 8.00992 21.9731 8.10919 22.1498 8.28591C22.3265 8.46263 22.4258 8.70231 22.4258 8.95222Z" fill="black"/>
</svg>
