<svg width="31" height="31" viewBox="0 0 31 31" fill="none" xmlns="http://www.w3.org/2000/svg">
<path d="M15.3595 9.89441C14.3344 9.89441 13.3324 10.1984 12.4801 10.7679C11.6278 11.3373 10.9635 12.1468 10.5713 13.0938C10.179 14.0408 10.0764 15.0829 10.2763 16.0882C10.4763 17.0935 10.9699 18.017 11.6947 18.7418C12.4195 19.4666 13.343 19.9602 14.3484 20.1602C15.3537 20.3602 16.3958 20.2576 17.3428 19.8653C18.2898 19.473 19.0992 18.8087 19.6687 17.9565C20.2382 17.1042 20.5421 16.1021 20.5421 15.0771C20.5421 13.7026 19.9961 12.3843 19.0242 11.4124C18.0522 10.4404 16.734 9.89441 15.3595 9.89441ZM15.3595 19.3175C14.5208 19.3175 13.7009 19.0688 13.0036 18.6029C12.3063 18.1369 11.7628 17.4747 11.4418 16.6998C11.1209 15.925 11.0369 15.0724 11.2005 14.2498C11.3642 13.4273 11.768 12.6717 12.361 12.0787C12.9541 11.4857 13.7096 11.0818 14.5322 10.9182C15.3547 10.7546 16.2073 10.8386 16.9822 11.1595C17.757 11.4804 18.4193 12.0239 18.8852 12.7213C19.3511 13.4186 19.5998 14.2384 19.5998 15.0771C19.5998 16.2017 19.1531 17.2803 18.3579 18.0755C17.5626 18.8707 16.4841 19.3175 15.3595 19.3175ZM20.5421 3.76941H10.1768C8.55231 3.76941 6.99439 4.41472 5.84573 5.56338C4.69707 6.71204 4.05176 8.26996 4.05176 9.89441V20.2598C4.05176 21.0641 4.21019 21.8606 4.518 22.6037C4.82581 23.3468 5.27697 24.0221 5.84573 24.5908C6.99439 25.7395 8.55231 26.3848 10.1768 26.3848H20.5421C21.3465 26.3848 22.143 26.2264 22.8861 25.9186C23.6292 25.6107 24.3044 25.1596 24.8732 24.5908C25.4419 24.0221 25.8931 23.3468 26.2009 22.6037C26.5087 21.8606 26.6671 21.0641 26.6671 20.2598V9.89441C26.6671 9.09006 26.5087 8.29359 26.2009 7.55047C25.8931 6.80735 25.4419 6.13214 24.8732 5.56338C24.3044 4.99462 23.6292 4.54346 22.8861 4.23565C22.143 3.92784 21.3465 3.76941 20.5421 3.76941ZM25.7248 20.2598C25.7248 21.6343 25.1788 22.9526 24.2069 23.9245C23.2349 24.8965 21.9167 25.4425 20.5421 25.4425H10.1768C8.80222 25.4425 7.48398 24.8965 6.51204 23.9245C5.5401 22.9526 4.99407 21.6343 4.99407 20.2598V9.89441C4.99407 8.51987 5.5401 7.20164 6.51204 6.22969C7.48398 5.25775 8.80222 4.71172 10.1768 4.71172H20.5421C21.9167 4.71172 23.2349 5.25775 24.2069 6.22969C25.1788 7.20164 25.7248 8.51987 25.7248 9.89441V20.2598ZM22.4268 8.9521C22.4268 9.13847 22.3715 9.32066 22.268 9.47562C22.1644 9.63058 22.0172 9.75136 21.8451 9.82268C21.6729 9.894 21.4834 9.91266 21.3006 9.8763C21.1178 9.83994 20.9499 9.7502 20.8181 9.61841C20.6864 9.48663 20.5966 9.31873 20.5602 9.13594C20.5239 8.95315 20.5426 8.76368 20.6139 8.5915C20.6852 8.41931 20.806 8.27214 20.9609 8.1686C21.1159 8.06506 21.2981 8.00979 21.4845 8.00979C21.7344 8.00979 21.974 8.10907 22.1508 8.28579C22.3275 8.46251 22.4268 8.70219 22.4268 8.9521Z" fill="black"/>
</svg>
