<svg width="31" height="31" viewBox="0 0 31 31" fill="none" xmlns="http://www.w3.org/2000/svg">
<path d="M15.359 9.89441C14.3339 9.89441 13.3319 10.1984 12.4796 10.7679C11.6273 11.3373 10.963 12.1468 10.5708 13.0938C10.1785 14.0408 10.0759 15.0829 10.2759 16.0882C10.4758 17.0935 10.9694 18.017 11.6942 18.7418C12.4191 19.4666 13.3425 19.9602 14.3479 20.1602C15.3532 20.3602 16.3953 20.2576 17.3423 19.8653C18.2893 19.473 19.0987 18.8087 19.6682 17.9565C20.2377 17.1042 20.5417 16.1021 20.5417 15.0771C20.5417 13.7026 19.9956 12.3843 19.0237 11.4124C18.0517 10.4404 16.7335 9.89441 15.359 9.89441ZM15.359 19.3175C14.5203 19.3175 13.7005 19.0688 13.0031 18.6029C12.3058 18.1369 11.7623 17.4747 11.4414 16.6998C11.1204 15.925 11.0364 15.0724 11.2001 14.2498C11.3637 13.4273 11.7675 12.6717 12.3606 12.0787C12.9536 11.4857 13.7091 11.0818 14.5317 10.9182C15.3543 10.7546 16.2069 10.8386 16.9817 11.1595C17.7565 11.4804 18.4188 12.0239 18.8847 12.7213C19.3507 13.4186 19.5993 14.2384 19.5993 15.0771C19.5993 16.2017 19.1526 17.2803 18.3574 18.0755C17.5621 18.8707 16.4836 19.3175 15.359 19.3175ZM20.5417 3.76941H10.1763C8.55182 3.76941 6.9939 4.41472 5.84524 5.56338C4.69658 6.71204 4.05127 8.26996 4.05127 9.89441V20.2598C4.05127 21.0641 4.2097 21.8606 4.51751 22.6037C4.82532 23.3468 5.27648 24.0221 5.84524 24.5908C6.9939 25.7395 8.55182 26.3848 10.1763 26.3848H20.5417C21.346 26.3848 22.1425 26.2264 22.8856 25.9186C23.6287 25.6107 24.3039 25.1596 24.8727 24.5908C25.4414 24.0221 25.8926 23.3468 26.2004 22.6037C26.5082 21.8606 26.6667 21.0641 26.6667 20.2598V9.89441C26.6667 9.09006 26.5082 8.29359 26.2004 7.55047C25.8926 6.80735 25.4414 6.13214 24.8727 5.56338C24.3039 4.99462 23.6287 4.54346 22.8856 4.23565C22.1425 3.92784 21.346 3.76941 20.5417 3.76941ZM25.7243 20.2598C25.7243 21.6343 25.1783 22.9526 24.2064 23.9245C23.2344 24.8965 21.9162 25.4425 20.5417 25.4425H10.1763C8.80173 25.4425 7.4835 24.8965 6.51155 23.9245C5.53961 22.9526 4.99358 21.6343 4.99358 20.2598V9.89441C4.99358 8.51987 5.53961 7.20164 6.51155 6.22969C7.4835 5.25775 8.80173 4.71172 10.1763 4.71172H20.5417C21.9162 4.71172 23.2344 5.25775 24.2064 6.22969C25.1783 7.20164 25.7243 8.51987 25.7243 9.89441V20.2598ZM22.4263 8.9521C22.4263 9.13847 22.371 9.32066 22.2675 9.47562C22.1639 9.63058 22.0168 9.75136 21.8446 9.82268C21.6724 9.894 21.4829 9.91266 21.3001 9.8763C21.1173 9.83994 20.9494 9.7502 20.8176 9.61841C20.6859 9.48663 20.5961 9.31873 20.5598 9.13594C20.5234 8.95315 20.5421 8.76368 20.6134 8.5915C20.6847 8.41931 20.8055 8.27214 20.9604 8.1686C21.1154 8.06506 21.2976 8.00979 21.484 8.00979C21.7339 8.00979 21.9736 8.10907 22.1503 8.28579C22.327 8.46251 22.4263 8.70219 22.4263 8.9521Z" fill="black"/>
</svg>
