<svg width="811" height="811" viewBox="0 0 811 811" fill="none" xmlns="http://www.w3.org/2000/svg">
<path fill-rule="evenodd" clip-rule="evenodd" d="M583.954 265.992L596.346 284.457L601.11 214.45L541.433 257.458L559.048 257.491L532.121 299.211L361.063 251.753C359.436 251.303 357.736 251.179 356.061 251.39C354.386 251.6 352.769 252.14 351.304 252.979C349.838 253.817 348.554 254.938 347.524 256.276C346.494 257.613 345.739 259.142 345.303 260.773L324.147 340.2L289.206 345.505C286.849 345.864 284.639 346.875 282.825 348.423C281.012 349.971 279.667 351.996 278.943 354.268L253.112 435.575C250.98 442.29 254.698 449.478 261.417 451.61C268.136 453.744 275.33 450.019 277.462 443.304L300.888 369.563L336.236 364.2C338.695 363.825 340.991 362.742 342.844 361.082C344.697 359.423 346.027 357.26 346.67 354.857L366.668 279.81L534.344 326.331C536.968 327.059 539.756 326.929 542.301 325.96C544.847 324.992 547.016 323.236 548.493 320.948L583.954 265.992Z" fill="#EEEEEE"/>
<path fill-rule="evenodd" clip-rule="evenodd" d="M208.577 601.754C204.962 574.166 184.879 569.268 166.313 559.677C149.711 551.087 132.369 538.931 119.534 523.471C103.833 504.57 96.6235 477.177 109.744 453.655C114.658 444.84 121.156 437.18 128.385 431.17C134.153 426.378 140.557 422.938 147.302 420.727C202.183 402.718 214.809 497.687 266.702 490.044C298.435 485.371 318.993 450.355 337.198 422.391C354.587 395.677 375.221 371.348 401.689 358.498C432.189 343.697 460.63 365.719 489.242 377.262C505.977 384.014 523.414 387.152 541.049 385.933C583.104 383.028 582.725 314.511 621.232 291.891C699.886 245.683 740.613 352.982 676.169 430.278C657.698 452.434 631.828 469.076 617.702 496.267C600.674 529.065 604.743 562.977 608.092 599.512L208.577 601.754Z" fill="#EEEEEE"/>
<path fill-rule="evenodd" clip-rule="evenodd" d="M216.531 599.446C216 592.567 213.704 585.719 211.528 579.221C205.722 561.924 197.359 546.392 182.539 535.238C175.34 529.821 165.573 524.749 156.238 526.028C151.816 526.633 146.883 529.186 147.103 534.296C147.484 543.434 158.444 550.574 165.142 555.016C181.506 565.875 211.889 577.637 216.531 599.446Z" fill="#6993A4"/>
<mask id="mask0_1255_761" style="mask-type:luminance" maskUnits="userSpaceOnUse" x="147" y="525" width="70" height="75">
<path d="M216.529 599.446C215.998 592.567 213.702 585.719 211.526 579.221C205.72 561.924 197.357 546.392 182.537 535.238C175.338 529.821 165.571 524.749 156.236 526.028C151.814 526.633 146.881 529.186 147.101 534.296C147.482 543.434 158.442 550.574 165.14 555.016C181.504 565.875 211.887 577.637 216.529 599.446Z" fill="white"/>
</mask>
<g mask="url(#mask0_1255_761)">
<path fill-rule="evenodd" clip-rule="evenodd" d="M151.119 521.328C149.866 524.45 150.396 528.149 151.047 531.341C151.625 534.221 152.432 537.148 153.914 539.702C159.287 548.93 170.588 552.81 180.587 554.327C185.105 555.014 192.345 555.472 195.887 551.761C198.32 549.207 196.561 546.75 196.417 543.882C196.381 543.123 196.983 542.943 197.622 543.136C201.079 544.147 204.043 549.075 205.898 551.809C211.464 560.062 215.018 570.049 216.488 579.868C217.006 583.325 217.777 588.156 215.548 591.216C212.753 595.059 206.392 592.12 203.151 590.602C202.212 590.156 201.272 589.686 200.344 589.204C199.272 588.65 198.2 588.072 197.152 587.493C195.501 586.59 193.887 585.626 192.285 584.662C182.49 578.807 135.687 554.484 129.519 542.979C123.085 530.968 140 525.402 151.119 521.328Z" fill="#477282"/>
</g>
<path fill-rule="evenodd" clip-rule="evenodd" d="M221.562 599.446C222.094 592.567 224.39 585.719 226.566 579.221C232.372 561.924 240.734 546.392 255.555 535.238C262.754 529.821 272.521 524.749 281.856 526.028C286.278 526.633 291.211 529.186 290.991 534.296C290.61 543.434 279.65 550.574 272.952 555.016C256.587 565.875 226.205 577.637 221.562 599.446Z" fill="#6993A4"/>
<mask id="mask1_1255_761" style="mask-type:luminance" maskUnits="userSpaceOnUse" x="221" y="525" width="70" height="75">
<path d="M221.562 599.446C222.094 592.567 224.39 585.719 226.566 579.221C232.372 561.924 240.734 546.392 255.555 535.238C262.754 529.821 272.521 524.749 281.856 526.028C286.278 526.633 291.211 529.186 290.991 534.296C290.61 543.434 279.65 550.574 272.952 555.016C256.587 565.875 226.205 577.637 221.562 599.446Z" fill="white"/>
</mask>
<g mask="url(#mask1_1255_761)">
<path fill-rule="evenodd" clip-rule="evenodd" d="M286.974 521.328C288.227 524.45 287.697 528.149 287.047 531.341C286.468 534.221 285.661 537.148 284.18 539.702C278.806 548.93 267.506 552.81 257.507 554.327C252.989 555.014 245.749 555.472 242.207 551.761C239.773 549.207 241.532 546.75 241.677 543.882C241.713 543.123 241.111 542.943 240.472 543.136C237.015 544.147 234.051 549.075 232.196 551.809C226.63 560.062 223.076 570.049 221.606 579.868C221.088 583.325 220.317 588.156 222.546 591.216C225.341 595.059 231.702 592.12 234.942 590.602C235.882 590.156 236.822 589.686 237.749 589.204C238.822 588.65 239.894 588.072 240.942 587.493C242.592 586.59 244.207 585.626 245.809 584.662C255.603 578.807 302.407 554.484 308.575 542.979C315.008 530.968 298.094 525.402 286.974 521.328Z" fill="#477282"/>
</g>
<path fill-rule="evenodd" clip-rule="evenodd" d="M214.346 596.044C214.692 583.09 215.503 569.152 214.013 555.783C212.59 543.126 209.105 530.974 200.765 520.879C191.733 509.932 178.857 503.065 167.324 495.08C154.488 486.185 143.248 476.004 138.925 459.218C137.608 454.157 137.116 448.897 137.621 443.694C138.167 438.147 140.002 432.798 142.463 427.798C143.647 425.388 146.573 424.398 148.981 425.586C151.389 426.774 152.386 429.695 151.189 432.104C149.247 436.056 147.744 440.267 147.305 444.652C146.906 448.719 147.318 452.83 148.343 456.786C152.041 471.086 161.924 479.502 172.871 487.08C185.122 495.567 198.676 503.048 208.28 514.68C226.943 537.302 224.814 568.841 224.083 596.303C224.003 598.995 221.768 601.118 219.081 601.04C216.394 600.975 214.279 598.736 214.346 596.044Z" fill="#6993A4"/>
<mask id="mask2_1255_761" style="mask-type:luminance" maskUnits="userSpaceOnUse" x="137" y="425" width="88" height="177">
<path d="M214.346 596.044C214.692 583.09 215.503 569.152 214.013 555.783C212.59 543.126 209.105 530.974 200.765 520.879C191.733 509.932 178.857 503.065 167.324 495.08C154.488 486.185 143.248 476.004 138.925 459.218C137.608 454.157 137.116 448.897 137.621 443.694C138.167 438.147 140.002 432.798 142.463 427.798C143.647 425.388 146.573 424.398 148.981 425.586C151.389 426.774 152.386 429.695 151.189 432.104C149.247 436.056 147.744 440.267 147.305 444.652C146.906 448.719 147.318 452.83 148.343 456.786C152.041 471.086 161.924 479.502 172.871 487.08C185.122 495.567 198.676 503.048 208.28 514.68C226.943 537.302 224.814 568.841 224.083 596.303C224.003 598.995 221.768 601.118 219.081 601.04C216.394 600.975 214.279 598.736 214.346 596.044Z" fill="white"/>
</mask>
<g mask="url(#mask2_1255_761)">
<path fill-rule="evenodd" clip-rule="evenodd" d="M163.927 418.701C156.541 424.748 153.707 461.939 148.372 469.715C147.107 471.577 145.159 478.86 142.614 479.277C140.647 479.595 138.961 476.736 138.127 475.409C135.152 470.715 133.512 465.016 132.089 459.704C128.387 446.004 126.348 429.501 130.51 415.697C131.205 413.365 132.146 411.015 133.456 408.956C139.205 399.975 149.689 404.495 155.991 410.121C158.901 412.726 161.478 415.655 163.927 418.701Z" fill="#477282"/>
</g>
<path d="M156.214 455.971C130.985 455.971 110.533 435.519 110.533 410.29C110.533 385.061 130.985 364.609 156.214 364.609C181.443 364.609 201.895 385.061 201.895 410.29C201.895 435.519 181.443 455.971 156.214 455.971Z" fill="#F29F05"/>
<mask id="mask3_1255_761" style="mask-type:luminance" maskUnits="userSpaceOnUse" x="110" y="364" width="92" height="92">
<path d="M156.214 455.971C130.985 455.971 110.533 435.519 110.533 410.29C110.533 385.061 130.985 364.609 156.214 364.609C181.443 364.609 201.895 385.061 201.895 410.29C201.895 435.519 181.443 455.971 156.214 455.971Z" fill="white"/>
</mask>
<g mask="url(#mask3_1255_761)">
<path fill-rule="evenodd" clip-rule="evenodd" d="M118.975 374.499C114.421 396.979 115.879 424.145 136.407 438.47C140.33 441.189 144.612 443.35 149.129 444.891C160.478 448.77 174.091 448.71 184.982 443.433C188.187 441.891 191.235 439.928 193.825 437.482C195.451 435.952 197.066 433.398 199.09 432.398C201.101 431.398 201.656 433.952 201.535 435.398C201.101 440.843 197.415 446.24 194.102 450.336C181.356 466.106 160.309 470.733 141.299 464.588C108.518 453.999 91.3624 404.424 118.975 374.499Z" fill="#D98A00"/>
</g>
<path d="M165.372 416.563C164.53 415.104 163.455 414.175 162.144 413.78C160.838 413.383 159.002 413.38 156.637 413.772C154.277 414.161 152.183 414.402 150.362 414.493C148.535 414.586 146.851 414.454 145.304 414.101C143.769 413.75 142.322 413.088 141.052 412.157C139.759 411.218 138.612 409.875 137.604 408.13C135.866 405.12 135.405 402.099 136.218 399.065C137.031 396.031 138.936 393.436 141.94 391.274L138.64 385.558L142.911 383.092L146.257 388.888C149.669 387.512 152.894 387.401 155.933 388.555C158.972 389.709 161.496 392.021 163.501 395.493L155.781 399.95C154.547 397.813 153.181 396.471 151.692 395.918C150.198 395.368 148.711 395.52 147.236 396.372C145.776 397.215 144.883 398.282 144.559 399.573C144.235 400.865 144.496 402.239 145.339 403.699C146.121 405.052 147.137 405.914 148.397 406.279C149.652 406.646 151.591 406.643 154.212 406.269C156.834 405.895 159.049 405.691 160.856 405.656C162.663 405.621 164.313 405.809 165.81 406.215C167.278 406.611 168.652 407.294 169.854 408.224C171.057 409.157 172.126 410.433 173.062 412.053C174.809 415.08 175.281 418.084 174.487 421.059C173.688 424.037 171.729 426.652 168.615 428.901L171.684 434.217L167.437 436.668L164.384 431.379C160.505 433.097 156.931 433.433 153.658 432.391C150.385 431.348 147.694 429.002 145.587 425.352L153.307 420.895C154.53 423.013 155.971 424.347 157.631 424.897C159.291 425.447 161.062 425.177 162.951 424.087C164.516 423.183 165.513 422.056 165.947 420.701C166.376 419.35 166.185 417.97 165.372 416.563Z" fill="white"/>
<path fill-rule="evenodd" clip-rule="evenodd" d="M583.198 416.804C539.08 394.129 446.422 419.731 446.422 419.731L370.002 326.646C370.002 326.646 373.867 304.846 371.455 303.033C363.536 297.082 357.659 313.413 357.659 313.413C357.659 313.413 325.647 295.087 316.565 295.578C298.602 296.554 332.487 325.148 332.487 325.148C332.487 325.148 363.042 440.425 396.75 469.329C430.457 498.233 507.314 497 534.702 498.578C585.067 501.481 608.831 429.978 583.198 416.804Z" fill="#FAD8BA"/>
<mask id="mask4_1255_761" style="mask-type:luminance" maskUnits="userSpaceOnUse" x="311" y="295" width="283" height="204">
<path d="M583.198 416.803C539.08 394.128 446.422 419.73 446.422 419.73L370.002 326.645C370.002 326.645 373.867 304.845 371.455 303.032C363.536 297.082 357.659 313.412 357.659 313.412C357.659 313.412 325.647 295.086 316.565 295.578C298.602 296.553 332.487 325.148 332.487 325.148C332.487 325.148 363.042 440.424 396.75 469.328C430.457 498.232 507.314 497 534.702 498.578C585.067 501.48 608.831 429.977 583.198 416.803Z" fill="white"/>
</mask>
<g mask="url(#mask4_1255_761)">
<path fill-rule="evenodd" clip-rule="evenodd" d="M333.4 327.624C341.075 335.21 364.039 443.843 435.066 473.711C450.765 480.312 479.379 469.542 496.394 469.501C504.665 469.48 514.261 466.716 522.378 468.246C528.974 469.489 532.878 475.876 533.885 482.098C538.92 513.205 499.466 523.158 476.369 523.564C470.965 523.659 465.56 523.535 460.177 523.028C454.3 522.473 448.412 521.68 442.618 520.537C382.728 508.729 348.278 386.437 333.4 327.624Z" fill="#D7B699"/>
<path fill-rule="evenodd" clip-rule="evenodd" d="M496.902 400.725C488.034 414.363 487.323 432.648 487.023 448.386C486.798 459.951 486.837 471.224 490.741 482.216C494.162 491.841 499.467 502.679 507.157 509.675C522.963 524.032 546.718 515.687 562.513 505.854C590.957 488.15 615.808 446.818 591.287 416.117C587.486 411.357 582.785 407.187 577.64 403.922C568.018 397.818 508.035 402.373 496.902 400.725Z" fill="#F25C05"/>
</g>
<path fill-rule="evenodd" clip-rule="evenodd" d="M644.316 439.255C621.424 416.358 523.961 374.374 515.68 437.967C504.851 521.106 464.441 601.548 464.441 601.548L640.709 600.335C640.709 600.335 667.197 462.151 644.316 439.255Z" fill="#F25C05"/>
<mask id="mask5_1255_761" style="mask-type:luminance" maskUnits="userSpaceOnUse" x="464" y="404" width="190" height="198">
<path d="M644.316 439.255C621.424 416.358 523.961 374.374 515.68 437.967C504.851 521.106 464.441 601.548 464.441 601.548L640.709 600.335C640.709 600.335 667.197 462.151 644.316 439.255Z" fill="white"/>
</mask>
<g mask="url(#mask5_1255_761)">
<path fill-rule="evenodd" clip-rule="evenodd" d="M656.122 437.33C647.635 477.744 634.546 524.174 602.212 552.004C589.78 562.71 570.023 565.166 553.666 580.228C525.925 605.76 510.667 594.427 487.765 586.043C476.618 581.975 462.316 576.468 450.48 577.947C434.287 579.981 438.962 592.876 447.449 603.726C454.62 612.87 465.696 618.161 476.351 622.096C498.019 630.11 521.733 633.47 544.717 634.456C576.763 635.823 612.24 633.172 640.967 617.606C699.706 585.766 679.743 495.171 656.122 437.33Z" fill="#D23F00"/>
</g>
<path fill-rule="evenodd" clip-rule="evenodd" d="M571.068 393.384L596.696 393.756C593.142 403.39 594.727 408.301 598.383 417.337C565.789 480.291 557.391 458.948 568.435 417.917C572.755 411.77 574.186 403.918 571.068 393.384Z" fill="#FAD8BA"/>
<mask id="mask6_1255_761" style="mask-type:luminance" maskUnits="userSpaceOnUse" x="563" y="393" width="36" height="65">
<path d="M571.066 393.384L596.694 393.756C593.14 403.39 594.725 408.301 598.381 417.337C565.787 480.291 557.389 458.948 568.433 417.917C572.753 411.77 574.185 403.918 571.066 393.384Z" fill="white"/>
</mask>
<g mask="url(#mask6_1255_761)">
<path fill-rule="evenodd" clip-rule="evenodd" d="M568.296 408.513C572.976 415.302 581.011 418.063 588.959 416.401C593.538 415.449 597.901 412.562 598.88 407.685C599.874 402.717 596.807 398.775 592.645 396.405C586.151 392.713 574.171 403.769 568.296 408.513Z" fill="#D7B699"/>
<path fill-rule="evenodd" clip-rule="evenodd" d="M569.375 377.42C567.813 389.386 566.091 401.525 566.896 413.606C567.314 419.884 559.043 449.056 572.124 452.354C583.517 455.219 585.521 458.877 577.949 465.63C570.509 472.253 560.484 471.994 554.407 463.744C550.826 458.891 548.976 452.743 547.889 446.882C545.5 433.98 566.658 390.149 569.375 377.42Z" fill="#D7B699"/>
</g>
<path fill-rule="evenodd" clip-rule="evenodd" d="M583.122 362.627C573.212 362.627 565.167 373.261 565.167 386.36C565.167 399.458 566.886 410.822 576.786 410.822C586.696 410.822 601.066 399.458 601.066 386.36C601.066 373.261 593.022 362.627 583.122 362.627Z" fill="#FAD8BA"/>
<path fill-rule="evenodd" clip-rule="evenodd" d="M583.232 380.641C580.571 384.141 575.362 385.245 571.262 385.109C567.594 384.987 563.751 384.071 560.453 382.484C551.268 378.071 552.408 367.124 556.446 359.377C560.032 352.504 566.197 348.392 573.564 352.609C574.981 353.423 576.07 354.574 577.108 355.828C580.077 354.603 583.704 354.776 586.818 355.113C589.602 355.413 592.561 355.887 595.171 356.93C606.894 361.618 609.524 374.695 606.38 385.645C605.034 390.315 602.486 395.092 598.736 398.273C597.051 399.698 594.76 401.098 592.438 400.647C586.448 399.486 592.356 393.761 593.003 390.875C593.321 389.467 593.291 387.117 591.616 386.575C590.629 386.252 589.664 386.687 588.903 387.314C586.848 389.009 585.831 391.692 583.602 393.243C581.608 394.631 581.002 392.961 581.547 391.208C581.732 390.61 581.947 390.025 582.174 389.439C582.615 388.268 583.088 381.888 583.232 380.641Z" fill="#03222F"/>
<path d="M354.236 476.592L340.592 459.586C340.592 459.586 377.97 449.7 384.864 445.407C394.707 439.283 407.406 435.426 422.972 433.836C438.548 432.246 449.809 429.94 456.765 426.918C463.731 423.896 469.33 419.453 473.563 413.586C486.345 395.882 484.557 381.132 468.22 369.336C460.463 363.741 452.542 361.644 444.435 363.045C436.329 364.446 429.157 369.262 422.89 377.492L377.323 344.599L363.658 326.975C363.658 326.975 413.612 313.357 430.647 311.623C451.535 309.496 472.988 316.373 494.985 332.252C517.199 348.282 530.555 366.089 535.056 385.674C539.566 405.259 534.747 424.846 520.61 444.435C514.178 453.34 506.123 460.31 496.434 465.345C486.745 470.382 473.44 474.127 456.538 476.582L435.075 479.493C421.595 481.394 410.571 487.061 402.002 496.496L394.46 505.628L354.236 476.592ZM314.854 521.545C319.919 514.525 326.485 510.457 334.54 509.342C342.595 508.225 350.342 510.35 357.781 515.719C365.219 521.088 369.668 527.771 371.148 535.77C372.627 543.764 370.829 551.275 365.764 558.292C360.771 565.207 354.328 569.234 346.407 570.375C338.496 571.515 330.718 569.327 323.074 563.799C315.419 558.282 310.898 551.593 309.481 543.723C308.073 535.853 309.861 528.458 314.854 521.545Z" fill="#023341"/>
<path d="M340.439 458.763C351.025 444.098 361.301 433.741 371.146 427.634C380.998 421.517 393.68 417.639 409.185 416.014C424.807 414.457 436.038 412.135 443.002 409.106C449.958 406.087 455.609 401.683 459.847 395.812C472.629 378.103 470.785 363.312 454.43 351.507C446.74 345.956 438.738 343.805 430.64 345.209C422.543 346.613 415.414 351.467 409.147 359.694L363.548 326.781C378.204 306.932 396.007 295.961 416.849 293.789C437.792 291.707 459.211 298.552 481.198 314.422C503.402 330.449 516.746 348.252 521.346 367.898C525.829 387.477 520.949 407.017 506.814 426.6C500.38 435.514 492.364 442.513 482.65 447.527C473.043 452.619 459.67 456.31 442.748 458.757L421.342 461.708C407.808 463.57 396.795 469.244 388.3 478.73L380.731 487.846L340.439 458.763ZM301.068 503.722C306.134 496.703 312.7 492.628 320.749 491.519C328.806 490.399 336.621 492.581 343.986 497.897C351.46 503.291 355.884 509.944 357.359 517.944C358.841 525.933 357.041 533.448 351.975 540.467C346.987 547.377 340.593 551.443 332.683 552.587C324.773 553.731 316.973 551.527 309.283 545.976C301.701 540.503 297.154 533.795 295.748 525.928C294.343 518.06 296.08 510.632 301.068 503.722Z" fill="#A6D2E4"/>
<path fill-rule="evenodd" clip-rule="evenodd" d="M638.697 439.083C589.359 444.216 525.771 516.31 525.771 516.31L410.892 480.146C410.892 480.146 402.21 459.779 399.2 459.58C389.316 458.926 393.323 475.813 393.323 475.813C393.323 475.813 362.88 472.927 357.568 474.773C340.574 480.69 378.661 499.401 378.661 499.401C378.661 499.401 467.268 579.221 511.294 584.995C555.32 590.77 619.001 547.72 642.796 534.068C686.555 508.964 667.362 436.1 638.697 439.083Z" fill="#FAD8BA"/>
<mask id="mask7_1255_761" style="mask-type:luminance" maskUnits="userSpaceOnUse" x="353" y="438" width="316" height="148">
<path d="M638.695 439.083C589.357 444.216 525.769 516.31 525.769 516.31L410.89 480.146C410.89 480.146 402.208 459.779 399.198 459.58C389.314 458.926 393.321 475.813 393.321 475.813C393.321 475.813 362.878 472.927 357.566 474.773C340.572 480.69 378.659 499.401 378.659 499.401C378.659 499.401 467.266 579.221 511.292 584.995C555.318 590.77 618.999 547.72 642.794 534.068C686.553 508.964 667.36 436.1 638.695 439.083Z" fill="white"/>
</mask>
<g mask="url(#mask7_1255_761)">
<path fill-rule="evenodd" clip-rule="evenodd" d="M580.718 478.986C578.54 489.622 580.112 502.668 584.335 512.523C587.325 519.473 590.931 526.146 593.859 533.111C595.061 535.966 596.993 539.706 596.037 542.891C594.928 546.589 590.643 549.528 587.571 551.418C584.797 553.124 581.818 554.501 578.766 555.61C573.608 557.491 568.204 558.682 562.82 559.71C554.354 561.323 545.682 562.186 537.083 562.72C524.024 563.522 510.677 563.409 497.701 561.518C468.408 557.244 441.089 545.47 416.594 529.166C407.224 522.926 397.998 516.393 389.059 509.544C386.922 507.903 378.867 500.042 380.233 507.464C381.415 513.912 385.144 520.224 388.473 525.736C395.429 537.25 403.659 547.894 413.307 557.275C422.369 566.09 432.592 573.755 443.411 580.259C493.868 610.568 555.474 606.171 606.867 580.403C630.107 568.751 655.691 552.148 666.653 527.489C670.085 519.752 580.04 487.363 580.718 478.986Z" fill="#D7B699"/>
<path fill-rule="evenodd" clip-rule="evenodd" d="M571.811 462.654C571.841 478.921 581.242 494.621 589.596 507.963C595.729 517.77 601.925 527.187 611.203 534.257C619.33 540.445 629.697 546.62 639.961 548.275C661.044 551.655 676.373 531.68 684.223 514.812C698.361 484.437 696.573 436.243 659.256 423.942C653.472 422.034 647.256 421.112 641.163 421.191C629.769 421.34 582.034 457.947 571.811 462.654Z" fill="#F25C05"/>
</g>
<path fill-rule="evenodd" clip-rule="evenodd" d="M197.309 599.639H656.155V602.652H197.309V599.639Z" fill="#03222F"/>
<path fill-rule="evenodd" clip-rule="evenodd" d="M132.828 600.018H181.991V603.22H132.828V600.018Z" fill="#03222F"/>
<path fill-rule="evenodd" clip-rule="evenodd" d="M127.358 242.501C127.358 225.333 151 207.781 168.168 207.781H283.714C300.882 207.781 314.82 221.72 314.82 238.888V301.102C314.82 318.271 300.882 332.209 283.714 332.209V371.108C283.714 373.404 269.216 386.043 267.673 384.339C253.63 368.77 235.6 332.209 235.6 332.209H168.168C151 332.209 137.061 318.271 137.061 301.102L127.358 242.501Z" fill="#023341"/>
<path fill-rule="evenodd" clip-rule="evenodd" d="M126.116 247.244C126.116 230.076 140.055 216.137 157.222 216.137H272.769C289.936 216.137 303.875 230.076 303.875 247.244V309.458C303.875 326.627 289.936 340.565 272.769 340.565V379.464C272.768 380.586 272.428 381.68 271.793 382.605C271.159 383.529 270.259 384.239 269.212 384.641C268.164 385.043 267.02 385.119 265.928 384.858C264.837 384.597 263.85 384.012 263.098 383.18C249.055 367.61 224.654 340.565 224.654 340.565H157.222C140.055 340.565 126.116 326.627 126.116 309.458V247.244Z" fill="#6993A4"/>
<path fill-rule="evenodd" clip-rule="evenodd" d="M154.889 246.723C139.519 263.335 140.526 289.255 157.134 304.622C164.256 311.211 173.487 315.06 183.18 315.482L184.518 284.782C182.093 284.677 179.784 283.715 178.003 282.067C173.852 278.227 173.601 271.745 177.444 267.591L154.889 246.723ZM190.872 315.094C200.144 313.74 208.672 309.25 215.036 302.373C229.921 286.286 229.508 261.333 214.098 245.745L199.53 260.149C207.232 267.941 207.439 280.418 199.999 288.46C196.815 291.9 192.552 294.143 187.918 294.822L190.872 315.094ZM206.959 239.984C192.562 230.82 173.992 231.541 160.349 241.794L169.091 253.429C177.888 246.82 189.862 246.355 199.145 252.262L206.959 239.984Z" fill="white"/>
<path fill-rule="evenodd" clip-rule="evenodd" d="M270.919 249.319C270.917 248.128 270.442 246.987 269.6 246.146C268.757 245.305 267.616 244.832 266.425 244.832H241.724C240.537 244.832 239.392 245.305 238.555 246.147C238.137 246.563 237.806 247.057 237.58 247.601C237.354 248.146 237.238 248.73 237.238 249.319V249.421C237.238 250.61 237.71 251.752 238.555 252.593C238.97 253.01 239.464 253.34 240.008 253.566C240.552 253.791 241.135 253.907 241.724 253.907H266.425C267.616 253.907 268.757 253.435 269.6 252.593C270.442 251.752 270.917 250.611 270.919 249.421V249.319Z" fill="white"/>
<path fill-rule="evenodd" clip-rule="evenodd" d="M291.919 270.855C291.919 269.866 291.523 268.917 290.824 268.218C290.124 267.518 289.175 267.125 288.185 267.125H240.966C239.977 267.125 239.027 267.518 238.328 268.218C237.628 268.917 237.232 269.866 237.232 270.855V270.858C237.232 271.847 237.628 272.796 238.328 273.496C239.027 274.195 239.977 274.588 240.966 274.588H288.185C289.175 274.588 290.124 274.195 290.824 273.496C291.523 272.796 291.919 271.847 291.919 270.858V270.855Z" fill="white"/>
<path fill-rule="evenodd" clip-rule="evenodd" d="M291.919 283.402C291.919 282.413 291.523 281.464 290.824 280.765C290.124 280.065 289.175 279.672 288.185 279.672H240.966C239.977 279.672 239.027 280.065 238.328 280.765C237.628 281.464 237.232 282.413 237.232 283.402V283.405C237.232 284.394 237.628 285.343 238.328 286.043C239.027 286.742 239.977 287.135 240.966 287.135H288.185C289.175 287.135 290.124 286.742 290.824 286.043C291.523 285.343 291.919 284.394 291.919 283.405V283.402Z" fill="white"/>
<path fill-rule="evenodd" clip-rule="evenodd" d="M291.919 295.948C291.919 294.959 291.523 294.01 290.824 293.311C290.124 292.611 289.175 292.218 288.185 292.218H240.966C239.977 292.218 239.027 292.611 238.328 293.311C237.628 294.01 237.232 294.959 237.232 295.948V295.951C237.232 296.94 237.628 297.889 238.328 298.588C239.027 299.288 239.977 299.681 240.966 299.681H288.185C289.175 299.681 290.124 299.288 290.824 298.588C291.523 297.889 291.919 296.94 291.919 295.951V295.948Z" fill="white"/>
</svg>
