<svg width="31" height="31" viewBox="0 0 31 31" fill="none" xmlns="http://www.w3.org/2000/svg">
<path d="M23.0361 23.0415H19.6878V17.7935C19.6878 16.5421 19.6626 14.9314 17.9413 14.9314C16.1962 14.9314 15.9298 16.2933 15.9298 17.7017V23.0415H12.5802V12.2502H15.7967V13.7202H15.8406C16.2904 12.8734 17.3835 11.9775 19.0168 11.9775C22.4091 11.9775 23.0374 14.2114 23.0374 17.1175V23.0415H23.0361ZM8.79845 10.7739C8.54284 10.7742 8.28968 10.7241 8.05348 10.6264C7.81728 10.5287 7.60269 10.3853 7.422 10.2045C7.24132 10.0237 7.09809 9.80905 7.00054 9.57278C6.90299 9.33652 6.85303 9.08333 6.85353 8.82772C6.85378 8.44305 6.96809 8.06709 7.18201 7.74739C7.39592 7.42769 7.69984 7.1786 8.05532 7.03162C8.41081 6.88464 8.80189 6.84638 9.17912 6.92167C9.55635 6.99696 9.90278 7.18242 10.1746 7.45459C10.4464 7.72677 10.6314 8.07344 10.7062 8.45077C10.7811 8.8281 10.7423 9.21913 10.5948 9.57442C10.4474 9.92972 10.1979 10.2333 9.87795 10.4468C9.55797 10.6603 9.18312 10.7741 8.79845 10.7739ZM10.477 23.0415H7.11863V12.2502H10.4783V23.0415H10.477ZM24.7134 3.76941H5.43881C4.51409 3.76941 3.76904 4.49813 3.76904 5.39897V24.7552C3.76904 25.6561 4.51535 26.3848 5.43756 26.3848H24.7084C25.6306 26.3848 26.3844 25.6561 26.3844 24.7552V5.39897C26.3844 4.49813 25.6306 3.76941 24.7084 3.76941H24.7134Z" fill="black"/>
</svg>
