<svg width="183" height="139" viewBox="0 0 183 139" fill="none" xmlns="http://www.w3.org/2000/svg">
<path d="M5.00181 52.0907C4.94965 52.0907 4.89665 52.0841 4.84365 52.07C2.41016 51.4312 0.894907 51.2557 0.880003 51.254L0.336426 51.1928L0.328163 50.6459C0.309119 49.2689 0.275579 47.8804 0.229211 46.5187C0.225322 46.4366 0.237773 46.3544 0.265876 46.2772C0.293978 46.1999 0.337156 46.1289 0.392901 46.0684C0.448645 46.008 0.51587 45.9592 0.590627 45.9249C0.665385 45.8906 0.746206 45.8715 0.828404 45.8687C0.910603 45.8659 0.992526 45.8795 1.06944 45.9086C1.14636 45.9377 1.21672 45.9818 1.27644 46.0384C1.33617 46.0949 1.38407 46.1628 1.41736 46.238C1.45066 46.3132 1.46867 46.3942 1.47038 46.4765C1.51162 47.6828 1.54212 48.8896 1.56187 50.0965C2.22759 50.2008 3.47538 50.4273 5.1587 50.8694C5.30432 50.908 5.43095 50.9982 5.51501 51.1232C5.59908 51.2482 5.63485 51.3995 5.61566 51.5489C5.59646 51.6983 5.52361 51.8356 5.41068 51.9353C5.29775 52.035 5.15244 52.0902 5.00181 52.0907ZM47.5196 126.688L47.4894 126.687C47.4079 126.683 47.328 126.664 47.2543 126.629C47.1805 126.594 47.1143 126.545 47.0595 126.485C47.0047 126.424 46.9623 126.354 46.9347 126.277C46.9072 126.2 46.8951 126.119 46.899 126.037C47.0054 123.815 47.0597 121.603 47.0597 119.463C47.0597 119.07 47.058 118.679 47.0543 118.29C47.0535 118.209 47.0688 118.128 47.0993 118.052C47.1298 117.976 47.1749 117.908 47.232 117.849C47.2892 117.791 47.3572 117.745 47.4323 117.713C47.5073 117.681 47.5879 117.664 47.6695 117.663C48.018 117.668 48.293 117.935 48.2963 118.279C48.3 118.671 48.3017 119.066 48.3017 119.463C48.3017 121.622 48.247 123.854 48.1394 126.097C48.1318 126.256 48.0632 126.406 47.9478 126.516C47.8325 126.626 47.6791 126.688 47.5196 126.688ZM47.3523 111.133C47.1958 111.132 47.0451 111.073 46.9304 110.966C46.8157 110.86 46.7455 110.714 46.7338 110.558C46.5426 107.987 46.2535 105.424 45.8673 102.875C45.846 102.714 45.8887 102.551 45.9862 102.421C46.0838 102.291 46.2285 102.204 46.3892 102.179C46.5498 102.155 46.7138 102.194 46.8457 102.289C46.9776 102.384 47.0671 102.527 47.0948 102.687C47.486 105.268 47.7788 107.862 47.9725 110.465C47.979 110.55 47.9677 110.636 47.9395 110.717C47.9112 110.797 47.8665 110.871 47.8083 110.934C47.7501 110.997 47.6795 111.047 47.6011 111.081C47.5226 111.115 47.4379 111.133 47.3523 111.133ZM44.9764 95.7706C44.8374 95.7704 44.7025 95.7237 44.5933 95.6379C44.484 95.552 44.4067 95.432 44.3736 95.297C43.7641 92.7972 43.0281 90.3299 42.1686 87.9046C42.116 87.7501 42.1263 87.5811 42.1974 87.4342C42.2684 87.2872 42.3945 87.1741 42.5482 87.1194C42.702 87.0646 42.8711 87.0726 43.0191 87.1417C43.167 87.2107 43.2818 87.3351 43.3386 87.4881C44.2126 89.9531 44.9607 92.4609 45.58 95.0018C45.6025 95.0933 45.6039 95.1887 45.584 95.2808C45.5642 95.3728 45.5237 95.4592 45.4655 95.5333C45.4073 95.6074 45.3331 95.6672 45.2483 95.7084C45.1636 95.7495 45.0706 95.7708 44.9764 95.7706ZM39.7335 81.1519C39.6175 81.152 39.5038 81.1196 39.4053 81.0583C39.3068 80.9971 39.2275 80.9094 39.1763 80.8054C38.0422 78.5015 36.7609 76.273 35.3406 74.1338C35.2953 74.0659 35.264 73.9898 35.2482 73.9098C35.2324 73.8297 35.2325 73.7474 35.2485 73.6674C35.2646 73.5875 35.2962 73.5114 35.3416 73.4437C35.387 73.376 35.4453 73.3178 35.5132 73.2726C35.5811 73.2274 35.6572 73.196 35.7372 73.1803C35.8172 73.1645 35.8995 73.1646 35.9795 73.1806C36.0595 73.1966 36.1355 73.2283 36.2032 73.2737C36.271 73.3191 36.3291 73.3774 36.3743 73.4453C37.8243 75.629 39.1323 77.9038 40.2899 80.2556C40.3369 80.3502 40.3589 80.4553 40.3538 80.5608C40.3488 80.6663 40.3169 80.7688 40.2612 80.8586C40.2055 80.9483 40.1278 81.0224 40.0354 81.0737C39.9431 81.125 39.8391 81.152 39.7335 81.1519ZM31.1124 68.25C30.941 68.25 30.7708 68.1796 30.6479 68.0417C28.9432 66.1241 27.1026 64.3316 25.1404 62.6784C25.076 62.6265 25.0226 62.5623 24.9834 62.4896C24.9441 62.4168 24.9198 62.3369 24.9118 62.2546C24.9038 62.1723 24.9123 62.0893 24.9368 62.0103C24.9614 61.9314 25.0015 61.8581 25.0547 61.7948C25.1079 61.7316 25.1732 61.6796 25.2468 61.6419C25.3204 61.6042 25.4008 61.5816 25.4833 61.5754C25.5657 61.5692 25.6486 61.5795 25.727 61.6058C25.8054 61.632 25.8777 61.6736 25.9398 61.7282C27.9478 63.4202 29.8314 65.2544 31.576 67.2166C31.6555 67.3061 31.7074 67.4166 31.7255 67.5349C31.7437 67.6531 31.7273 67.7741 31.6783 67.8832C31.6293 67.9924 31.5498 68.0851 31.4494 68.1501C31.3491 68.2152 31.232 68.2498 31.1124 68.25ZM19.2401 58.2602C19.1283 58.2602 19.0157 58.2304 18.9138 58.167C16.7305 56.8158 14.4527 55.6234 12.0982 54.5992C12.0234 54.5666 11.9558 54.5197 11.8991 54.461C11.8425 54.4023 11.7979 54.333 11.7681 54.2572C11.7382 54.1813 11.7236 54.1002 11.725 54.0187C11.7265 53.9372 11.7439 53.8567 11.7765 53.7819C11.8089 53.7071 11.8558 53.6393 11.9145 53.5826C11.9732 53.5259 12.0425 53.4814 12.1184 53.4515C12.1943 53.4216 12.2753 53.407 12.3569 53.4085C12.4385 53.41 12.519 53.4276 12.5937 53.4602C15.003 54.5082 17.3338 55.7283 19.568 57.1109C19.683 57.182 19.7717 57.2887 19.8206 57.4148C19.8694 57.5409 19.8758 57.6795 19.8387 57.8095C19.8016 57.9396 19.723 58.054 19.615 58.1353C19.507 58.2166 19.3753 58.2605 19.2401 58.2602ZM47.0824 138.175L45.8727 137.915C46.042 136.533 46.1944 135.153 46.326 133.814C46.3336 133.733 46.3573 133.654 46.3956 133.581C46.4339 133.509 46.4862 133.445 46.5493 133.394C46.6124 133.342 46.6852 133.303 46.7634 133.279C46.8416 133.256 46.9237 133.248 47.005 133.256C47.0993 133.266 47.1902 133.296 47.2708 133.346C47.3514 133.396 47.4195 133.463 47.4699 133.544C47.5788 133.474 47.7066 133.44 47.8356 133.447C47.9646 133.453 48.0883 133.5 48.1896 133.58C48.2909 133.66 48.3648 133.77 48.4009 133.894C48.437 134.018 48.4336 134.15 48.3911 134.272C47.5275 136.743 47.087 138.161 47.0824 138.175ZM50.6171 127.066C50.5162 127.066 50.4167 127.041 50.3274 126.995C50.238 126.948 50.1615 126.879 50.1044 126.796C50.0474 126.713 50.0115 126.617 50 126.517C49.9885 126.416 50.0017 126.315 50.0384 126.221C51.0206 123.685 52.0386 121.163 53.092 118.655C53.1558 118.503 53.2773 118.383 53.4298 118.321C53.5823 118.259 53.7533 118.259 53.9051 118.323C54.057 118.387 54.1773 118.509 54.2395 118.661C54.3018 118.814 54.301 118.985 54.2372 119.136C53.1883 121.633 52.1746 124.144 51.1963 126.669C51.1511 126.786 51.0716 126.886 50.9683 126.957C50.8649 127.028 50.7425 127.066 50.6171 127.066ZM56.9178 112.057C56.814 112.057 56.7118 112.031 56.6206 111.981C56.5295 111.932 56.4522 111.86 56.396 111.773C56.3397 111.686 56.3063 111.585 56.2987 111.482C56.2912 111.378 56.3097 111.275 56.3527 111.18C57.4738 108.703 58.6291 106.242 59.8183 103.797C59.8904 103.649 60.0183 103.536 60.174 103.482C60.3297 103.428 60.5003 103.439 60.6483 103.511C60.7964 103.583 60.9098 103.711 60.9636 103.866C61.0173 104.022 61.0069 104.193 60.9348 104.341C59.7505 106.775 58.6 109.226 57.4838 111.692C57.3803 111.922 57.1542 112.057 56.9178 112.057ZM64.0419 97.4254C63.9352 97.4253 63.8302 97.3977 63.7372 97.3452C63.6443 97.2927 63.5664 97.2172 63.5111 97.1259C63.4559 97.0345 63.4251 96.9305 63.4218 96.8238C63.4184 96.717 63.4427 96.6113 63.4921 96.5166C64.7524 94.1078 66.049 91.7182 67.3817 89.3487C67.4649 89.2099 67.5991 89.1091 67.7555 89.0677C67.9119 89.0263 68.0783 89.0476 68.2193 89.127C68.3603 89.2063 68.4648 89.3375 68.5106 89.4927C68.5563 89.648 68.5397 89.8149 68.4643 89.9581C67.1374 92.3164 65.8467 94.6948 64.5926 97.0925C64.4816 97.3041 64.2655 97.4254 64.0419 97.4254ZM72.0301 83.2513C71.9199 83.2512 71.8118 83.2219 71.7167 83.1662C71.6216 83.1105 71.543 83.0306 71.4891 82.9345C71.4351 82.8385 71.4076 82.7298 71.4095 82.6197C71.4114 82.5096 71.4425 82.4019 71.4997 82.3078C72.9113 79.9837 74.3647 77.6852 75.8592 75.4134C75.9497 75.2759 76.0913 75.1799 76.2526 75.1467C76.4139 75.1134 76.5819 75.1456 76.7195 75.2362C76.857 75.3268 76.953 75.4683 76.9862 75.6297C77.0194 75.791 76.9872 75.9589 76.8966 76.0965C75.4103 78.3556 73.9649 80.6414 72.5612 82.9528C72.5059 83.044 72.4279 83.1195 72.3348 83.1718C72.2418 83.2241 72.1368 83.2514 72.0301 83.2513ZM80.982 69.6712C80.8678 69.6712 80.7559 69.6396 80.6585 69.5801C80.5611 69.5205 80.482 69.4353 80.4299 69.3337C80.3778 69.2322 80.3547 69.1182 80.3631 69.0043C80.3716 68.8905 80.4112 68.7812 80.4778 68.6884C82.0599 66.4796 83.6904 64.3057 85.3679 62.1683C85.4705 62.0412 85.6189 61.9596 85.7812 61.9412C85.9434 61.9227 86.1064 61.969 86.2348 62.0699C86.3633 62.1707 86.4468 62.3181 86.4673 62.4802C86.4878 62.6422 86.4437 62.8057 86.3445 62.9355C84.6781 65.0584 83.0586 67.2176 81.4871 69.4117C81.3658 69.5814 81.1753 69.6712 80.982 69.6712ZM91.0302 56.9043C90.9111 56.9042 90.7947 56.8698 90.6947 56.8053C90.5946 56.7409 90.5152 56.649 90.4659 56.5407C90.4165 56.4324 90.3993 56.3122 90.4164 56.1945C90.4334 56.0767 90.4839 55.9662 90.5619 55.8763C92.3462 53.8199 94.1869 51.8131 96.0818 49.858C96.1974 49.7444 96.353 49.6804 96.5152 49.6799C96.6774 49.6794 96.8333 49.7424 96.9497 49.8554C97.066 49.9683 97.1336 50.1223 97.1379 50.2844C97.1422 50.4465 97.0829 50.6039 96.9727 50.7229C95.0941 52.6617 93.269 54.6517 91.4996 56.6907C91.4413 56.7579 91.3691 56.8117 91.2881 56.8486C91.2071 56.8854 91.1191 56.9044 91.0302 56.9043ZM102.368 45.2498C102.243 45.25 102.12 45.2121 102.017 45.1412C101.913 45.0703 101.834 44.9698 101.788 44.8528C101.743 44.7358 101.735 44.6079 101.763 44.4858C101.792 44.3638 101.858 44.2534 101.951 44.1693C103.967 42.3338 106.047 40.5698 108.187 38.8804C108.317 38.7803 108.48 38.7354 108.643 38.7554C108.805 38.7755 108.953 38.8588 109.055 38.9874C109.156 39.1159 109.202 39.2792 109.184 39.4419C109.165 39.6045 109.084 39.7533 108.956 39.8558C106.839 41.527 104.78 43.2721 102.786 45.0879C102.672 45.1923 102.523 45.2501 102.368 45.2498ZM115.151 35.2124C115.018 35.2125 114.888 35.1697 114.781 35.0902C114.673 35.0108 114.595 34.8989 114.556 34.7713C114.518 34.6436 114.521 34.5069 114.566 34.3813C114.611 34.2558 114.696 34.1482 114.807 34.0743C117.077 32.5613 119.413 31.1505 121.809 29.8461C121.881 29.8052 121.96 29.7791 122.042 29.7692C122.124 29.7593 122.207 29.7659 122.287 29.7885C122.366 29.8112 122.44 29.8495 122.505 29.9011C122.569 29.9528 122.623 30.0168 122.662 30.0894C122.702 30.162 122.726 30.2418 122.734 30.324C122.743 30.4062 122.734 30.4892 122.71 30.5682C122.686 30.6472 122.646 30.7205 122.593 30.7839C122.54 30.8473 122.475 30.8995 122.401 30.9374C120.038 32.2242 117.733 33.6158 115.494 35.108C115.393 35.1762 115.273 35.2126 115.151 35.2124ZM129.418 27.4942C129.275 27.4943 129.136 27.4447 129.025 27.3539C128.914 27.2631 128.838 27.1367 128.809 26.9961C128.781 26.8554 128.802 26.7093 128.869 26.5825C128.936 26.4558 129.045 26.3562 129.177 26.3006C131.688 25.2434 134.254 24.3215 136.864 23.5392C136.943 23.5144 137.025 23.5054 137.107 23.5129C137.189 23.5203 137.269 23.544 137.342 23.5826C137.415 23.6211 137.479 23.6738 137.531 23.7374C137.584 23.8011 137.623 23.8746 137.646 23.9535C137.67 24.0324 137.678 24.1152 137.669 24.1972C137.66 24.2791 137.635 24.3584 137.595 24.4306C137.556 24.5028 137.502 24.5663 137.438 24.6176C137.373 24.6688 137.299 24.7067 137.22 24.7291C134.652 25.4989 132.128 26.4058 129.658 27.4457C129.582 27.4776 129.501 27.4941 129.418 27.4942ZM144.927 22.876C144.772 22.876 144.622 22.8179 144.508 22.713C144.393 22.6081 144.322 22.4641 144.308 22.3094C144.295 22.1547 144.34 22.0005 144.434 21.8773C144.529 21.754 144.666 21.6706 144.819 21.6435C147.504 21.1645 150.214 20.841 152.936 20.6743C153.285 20.6507 153.573 20.9141 153.594 21.2564C153.615 21.5988 153.355 21.8932 153.013 21.9139C150.338 22.0779 147.675 22.3958 145.037 22.8661C145.001 22.8727 144.964 22.876 144.927 22.876ZM169.17 22.7526C169.137 22.7526 169.104 22.7501 169.07 22.7447C166.418 22.3147 163.745 22.0271 161.062 21.8832C160.981 21.8789 160.901 21.8586 160.827 21.8235C160.754 21.7884 160.688 21.7391 160.633 21.6785C160.578 21.6178 160.536 21.5471 160.509 21.4702C160.482 21.3933 160.47 21.3118 160.475 21.2304C160.478 21.1488 160.498 21.0687 160.533 20.9949C160.568 20.9211 160.618 20.855 160.678 20.8004C160.739 20.7457 160.81 20.7037 160.887 20.6766C160.964 20.6496 161.046 20.6381 161.127 20.6429C163.811 20.7845 166.551 21.0792 169.268 21.5185C169.422 21.5433 169.562 21.6252 169.658 21.7479C169.755 21.8706 169.801 22.0252 169.789 22.1808C169.776 22.3364 169.706 22.4817 169.591 22.5877C169.477 22.6936 169.326 22.7525 169.17 22.7526ZM182.361 26.0369L180.852 25.5616C179.545 25.1496 178.229 24.7679 176.904 24.4169C176.825 24.3963 176.75 24.3603 176.685 24.3109C176.62 24.2615 176.565 24.1998 176.524 24.1292C176.483 24.0585 176.456 23.9805 176.445 23.8994C176.434 23.8184 176.439 23.736 176.46 23.6569C176.481 23.5779 176.517 23.5037 176.567 23.4387C176.616 23.3738 176.678 23.3193 176.749 23.2783C176.82 23.2374 176.898 23.2108 176.979 23.2002C177.06 23.1895 177.143 23.195 177.222 23.2163C178.015 23.4262 178.817 23.6506 179.62 23.8874C179.171 23.2186 178.705 22.5617 178.221 21.9176C178.172 21.8523 178.137 21.778 178.116 21.699C178.096 21.62 178.092 21.5378 178.103 21.4571C178.115 21.3764 178.142 21.2987 178.184 21.2285C178.225 21.1584 178.28 21.0971 178.346 21.0482C178.411 20.9993 178.485 20.9637 178.564 20.9435C178.643 20.9233 178.725 20.9189 178.806 20.9304C178.887 20.942 178.965 20.9694 179.035 21.0109C179.105 21.0525 179.166 21.1075 179.215 21.1728C180.771 23.2494 181.547 24.6057 181.579 24.6624L182.361 26.0369ZM173.511 16.1729C173.352 16.1729 173.193 16.1125 173.072 15.9912C171.221 14.1368 169.238 12.4183 167.139 10.8489C167.01 10.7493 166.925 10.603 166.903 10.4416C166.881 10.2801 166.923 10.1165 167.021 9.98585C167.118 9.85524 167.263 9.76818 167.424 9.74344C167.585 9.71871 167.75 9.75827 167.882 9.85362C170.028 11.459 172.056 13.2168 173.95 15.1135C174.037 15.2004 174.096 15.3109 174.12 15.4312C174.143 15.5516 174.131 15.6763 174.084 15.7896C174.037 15.9029 173.958 15.9998 173.856 16.068C173.754 16.1362 173.634 16.1727 173.511 16.1729ZM107.678 10.4854C107.54 10.4851 107.407 10.439 107.298 10.3545C107.189 10.27 107.112 10.1517 107.077 10.0184C107.043 9.885 107.054 9.74404 107.109 9.61763C107.163 9.49123 107.259 9.38652 107.379 9.31997C109.779 8.00345 112.192 6.81239 114.55 5.77987C114.625 5.74714 114.705 5.72944 114.787 5.72779C114.869 5.72614 114.95 5.74056 115.026 5.77024C115.102 5.79992 115.171 5.84427 115.23 5.90075C115.289 5.95724 115.336 6.02477 115.368 6.09947C115.401 6.17417 115.419 6.25459 115.42 6.33613C115.422 6.41767 115.408 6.49873 115.378 6.57469C115.348 6.65066 115.304 6.72004 115.248 6.77886C115.191 6.83769 115.124 6.88481 115.049 6.91754C112.724 7.93515 110.345 9.11007 107.977 10.4088C107.882 10.461 107.779 10.4854 107.678 10.4854ZM160.798 6.73247C160.701 6.73247 160.602 6.70929 160.51 6.66126C158.196 5.44477 155.782 4.42683 153.295 3.61837C153.216 3.59496 153.142 3.55583 153.077 3.5033C153.013 3.45077 152.96 3.38592 152.921 3.31255C152.883 3.23918 152.859 3.15877 152.852 3.07611C152.845 2.99345 152.854 2.91021 152.88 2.83128C152.905 2.75235 152.947 2.67932 153.001 2.61655C153.055 2.55378 153.121 2.50253 153.196 2.4658C153.27 2.42907 153.351 2.40761 153.434 2.4027C153.517 2.3978 153.6 2.40953 153.678 2.43722C156.232 3.26735 158.71 4.3126 161.087 5.5617C161.21 5.62626 161.308 5.73015 161.365 5.85679C161.422 5.98342 161.435 6.12549 161.401 6.2603C161.368 6.39511 161.291 6.51487 161.181 6.60047C161.072 6.68606 160.937 6.73252 160.798 6.73247ZM122.23 4.16776C122.081 4.16855 121.937 4.11584 121.824 4.01926C121.711 3.92267 121.636 3.78861 121.613 3.64154C121.591 3.49448 121.622 3.34419 121.701 3.21804C121.78 3.0919 121.901 2.9983 122.043 2.95431C124.658 2.13087 127.277 1.48172 129.827 1.02549C129.988 0.999274 130.153 1.03743 130.286 1.13169C130.419 1.22596 130.509 1.36879 130.538 1.52932C130.567 1.68986 130.531 1.85521 130.439 1.98969C130.347 2.12416 130.205 2.21696 130.045 2.24803C127.547 2.69474 124.981 3.33106 122.416 4.13878C122.356 4.15808 122.293 4.16786 122.23 4.16776ZM145.755 1.86964C145.727 1.86964 145.697 1.86797 145.668 1.86342C143.522 1.56483 141.358 1.41545 139.191 1.41632C138.749 1.39562 138.3 1.42209 137.848 1.43451C137.684 1.4382 137.525 1.37688 137.405 1.26385C137.286 1.15082 137.216 0.995241 137.211 0.830923C137.208 0.749398 137.222 0.668217 137.251 0.592034C137.28 0.51585 137.324 0.446146 137.38 0.386904C137.436 0.327661 137.504 0.280045 137.578 0.246764C137.652 0.213483 137.733 0.195194 137.814 0.192942C138.271 0.18037 138.729 0.174166 139.186 0.174319H139.191C141.43 0.174319 143.667 0.32872 145.841 0.633424C145.997 0.654883 146.139 0.734788 146.238 0.856974C146.337 0.979161 146.387 1.13452 146.376 1.29159C146.365 1.44866 146.295 1.59573 146.18 1.70304C146.064 1.81036 145.913 1.86991 145.755 1.86964ZM101.448 17.8111C101.397 17.811 101.346 17.8047 101.296 17.7925C98.7339 17.15 97.3143 16.8887 97.3002 16.8862L95.8359 16.6188L97.0559 15.7664C98.193 14.9719 99.3432 14.1965 100.506 13.4405C100.575 13.3948 100.651 13.3631 100.732 13.3473C100.813 13.3315 100.896 13.3318 100.976 13.3484C101.057 13.3649 101.133 13.3973 101.201 13.4436C101.269 13.4899 101.327 13.5493 101.372 13.6182C101.417 13.6871 101.448 13.7643 101.462 13.8452C101.477 13.9261 101.476 14.0092 101.458 14.0895C101.441 14.1698 101.407 14.2459 101.36 14.3132C101.313 14.3805 101.253 14.4378 101.183 14.4817C100.436 14.967 99.695 15.4605 98.9591 15.9622C99.6207 16.1083 100.505 16.3133 101.599 16.5878C101.758 16.6279 101.896 16.7298 101.98 16.8711C102.065 17.0124 102.09 17.1815 102.05 17.3412C102.016 17.4753 101.938 17.5943 101.829 17.6794C101.72 17.7645 101.586 17.8108 101.448 17.8111Z" fill="#FFBE55"/>
</svg>
