<svg width="474" height="208" viewBox="0 0 474 208" fill="none" xmlns="http://www.w3.org/2000/svg">
<path d="M467.005 197.104C466.893 197.104 466.783 197.074 466.687 197.017C466.591 196.96 466.512 196.877 466.459 196.779C465.187 194.434 463.886 192.106 462.556 189.794C462.477 189.652 462.457 189.484 462.501 189.326C462.544 189.169 462.648 189.035 462.789 188.954C462.931 188.873 463.098 188.85 463.256 188.892C463.414 188.933 463.549 189.035 463.633 189.175C464.968 191.495 466.274 193.833 467.55 196.187C467.602 196.282 467.628 196.388 467.626 196.496C467.624 196.603 467.594 196.709 467.539 196.801C467.484 196.894 467.406 196.97 467.312 197.023C467.218 197.077 467.112 197.104 467.005 197.104ZM459.007 183.21C458.798 183.21 458.594 183.105 458.477 182.913C457.088 180.637 455.668 178.379 454.22 176.141C454.13 176.002 454.099 175.834 454.134 175.673C454.168 175.512 454.266 175.371 454.404 175.282C454.542 175.192 454.71 175.161 454.871 175.196C455.032 175.23 455.173 175.327 455.263 175.466C456.717 177.714 458.142 179.981 459.537 182.266C459.594 182.36 459.626 182.468 459.628 182.578C459.63 182.688 459.602 182.797 459.548 182.893C459.495 182.989 459.416 183.069 459.321 183.125C459.226 183.181 459.118 183.21 459.007 183.21ZM450.297 169.754C450.196 169.754 450.097 169.73 450.007 169.683C449.918 169.636 449.841 169.568 449.784 169.484C448.276 167.286 446.738 165.108 445.17 162.951C445.077 162.818 445.039 162.653 445.066 162.493C445.093 162.332 445.182 162.188 445.313 162.093C445.445 161.997 445.609 161.957 445.77 161.981C445.931 162.005 446.076 162.091 446.174 162.221C447.749 164.387 449.294 166.574 450.809 168.782C450.873 168.875 450.91 168.984 450.917 169.097C450.923 169.21 450.899 169.322 450.846 169.422C450.793 169.522 450.715 169.606 450.618 169.665C450.521 169.723 450.41 169.754 450.297 169.754ZM440.868 156.79C440.683 156.79 440.498 156.706 440.376 156.548C438.749 154.436 437.091 152.347 435.405 150.282C435.353 150.219 435.313 150.146 435.289 150.068C435.266 149.989 435.257 149.907 435.265 149.826C435.273 149.744 435.297 149.665 435.336 149.593C435.375 149.521 435.427 149.457 435.491 149.405C435.554 149.353 435.627 149.314 435.706 149.291C435.784 149.267 435.866 149.26 435.948 149.268C436.029 149.277 436.108 149.301 436.18 149.341C436.252 149.38 436.316 149.433 436.367 149.497C438.061 151.571 439.725 153.669 441.36 155.79C441.431 155.882 441.474 155.992 441.486 156.107C441.497 156.222 441.476 156.338 441.425 156.442C441.374 156.546 441.295 156.634 441.196 156.695C441.098 156.757 440.984 156.789 440.868 156.79ZM430.728 144.375C430.553 144.375 430.381 144.302 430.258 144.16C428.512 142.145 426.738 140.155 424.935 138.191C424.88 138.131 424.837 138.06 424.809 137.984C424.781 137.907 424.769 137.826 424.772 137.744C424.776 137.663 424.795 137.583 424.829 137.509C424.864 137.435 424.912 137.368 424.972 137.313C425.032 137.258 425.103 137.215 425.179 137.187C425.256 137.159 425.337 137.147 425.419 137.15C425.5 137.153 425.58 137.173 425.654 137.207C425.728 137.242 425.795 137.29 425.85 137.35C427.661 139.323 429.444 141.322 431.197 143.347C431.275 143.437 431.326 143.547 431.343 143.665C431.36 143.783 431.342 143.904 431.293 144.012C431.244 144.12 431.164 144.212 431.064 144.277C430.963 144.341 430.847 144.375 430.728 144.375ZM419.884 132.567C419.723 132.567 419.562 132.504 419.44 132.379C417.579 130.469 415.69 128.587 413.774 126.733C413.715 126.677 413.667 126.609 413.634 126.534C413.602 126.459 413.584 126.378 413.582 126.296C413.581 126.215 413.595 126.133 413.625 126.057C413.655 125.981 413.7 125.912 413.757 125.853C413.814 125.794 413.882 125.747 413.957 125.714C414.032 125.682 414.113 125.665 414.195 125.664C414.276 125.662 414.358 125.677 414.434 125.708C414.51 125.738 414.579 125.783 414.637 125.841C416.563 127.703 418.46 129.594 420.329 131.512C420.414 131.6 420.472 131.711 420.494 131.831C420.517 131.95 420.503 132.074 420.456 132.187C420.409 132.299 420.329 132.395 420.227 132.463C420.126 132.53 420.007 132.567 419.884 132.567ZM408.36 121.421C408.211 121.421 408.061 121.368 407.942 121.259C405.971 119.464 403.972 117.699 401.947 115.965C401.829 115.856 401.757 115.705 401.748 115.544C401.738 115.384 401.791 115.226 401.896 115.103C402.001 114.981 402.149 114.904 402.309 114.889C402.469 114.874 402.629 114.921 402.755 115.021C404.789 116.764 406.798 118.537 408.778 120.341C408.871 120.425 408.936 120.535 408.965 120.657C408.993 120.779 408.984 120.907 408.939 121.024C408.894 121.141 408.815 121.241 408.711 121.312C408.608 121.383 408.486 121.421 408.36 121.421ZM396.182 110.993C396.045 110.993 395.908 110.948 395.793 110.856C393.715 109.185 391.612 107.545 389.484 105.939C389.353 105.84 389.266 105.692 389.243 105.529C389.22 105.366 389.263 105.2 389.362 105.069C389.462 104.937 389.609 104.851 389.772 104.828C389.935 104.805 390.101 104.848 390.232 104.947C392.371 106.561 394.484 108.208 396.572 109.888C396.672 109.969 396.745 110.078 396.78 110.202C396.815 110.326 396.811 110.457 396.768 110.579C396.725 110.7 396.646 110.805 396.541 110.879C396.436 110.953 396.31 110.993 396.182 110.993ZM383.383 101.334C383.258 101.334 383.133 101.297 383.024 101.22C380.847 99.6811 378.645 98.1764 376.42 96.707C376.352 96.662 376.294 96.6041 376.248 96.5365C376.202 96.4689 376.171 96.393 376.154 96.3131C376.138 96.2332 376.137 96.1509 376.153 96.0708C376.168 95.9908 376.2 95.9145 376.245 95.8465C376.289 95.7784 376.347 95.7199 376.415 95.6743C376.483 95.6286 376.559 95.5967 376.638 95.5804C376.718 95.5641 376.801 95.5637 376.881 95.5792C376.961 95.5947 377.037 95.6258 377.105 95.6707C379.341 97.1478 381.553 98.6598 383.741 100.206C383.849 100.282 383.93 100.391 383.972 100.516C384.014 100.641 384.015 100.776 383.975 100.902C383.935 101.027 383.856 101.137 383.749 101.215C383.643 101.293 383.514 101.334 383.383 101.334ZM370.001 92.4974C369.886 92.4975 369.774 92.4655 369.676 92.4051C367.405 91.007 365.112 89.6456 362.797 88.3214C362.654 88.2396 362.549 88.1044 362.506 87.9454C362.463 87.7864 362.485 87.6168 362.566 87.4737C362.648 87.3307 362.783 87.2261 362.942 87.1828C363.101 87.1395 363.271 87.1611 363.414 87.2429C365.74 88.5738 368.045 89.9421 370.327 91.3473C370.442 91.4182 370.531 91.5247 370.58 91.6508C370.63 91.7768 370.636 91.9155 370.599 92.0457C370.562 92.1759 370.484 92.2905 370.376 92.372C370.268 92.4535 370.137 92.4976 370.001 92.4974ZM356.079 84.5362C355.981 84.5362 355.881 84.513 355.789 84.4638C353.432 83.2161 351.054 82.0083 348.657 80.8409C348.582 80.806 348.515 80.7566 348.46 80.6956C348.404 80.6346 348.362 80.5631 348.334 80.4855C348.307 80.4079 348.295 80.3255 348.3 80.2433C348.304 80.161 348.325 80.0805 348.361 80.0065C348.397 79.9324 348.448 79.8662 348.51 79.8119C348.572 79.7575 348.644 79.716 348.722 79.6897C348.8 79.6634 348.882 79.653 348.964 79.6589C349.047 79.6649 349.127 79.6871 349.2 79.7243C351.61 80.8981 354 82.1123 356.37 83.3662C356.492 83.4313 356.589 83.5354 356.646 83.662C356.702 83.7886 356.714 83.9304 356.681 84.0648C356.647 84.1993 356.57 84.3187 356.461 84.4041C356.352 84.4895 356.217 84.536 356.079 84.5362ZM341.656 77.516C341.572 77.516 341.487 77.4986 341.405 77.4622C338.968 76.3781 336.512 75.3376 334.039 74.3415C333.886 74.28 333.764 74.1604 333.699 74.0089C333.634 73.8574 333.633 73.6864 333.694 73.5335C333.755 73.3807 333.875 73.2585 334.027 73.1939C334.178 73.1292 334.349 73.1274 334.502 73.1889C336.99 74.1904 339.459 75.2366 341.909 76.327C342.04 76.3846 342.146 76.4854 342.211 76.6124C342.276 76.7393 342.295 76.8848 342.266 77.0242C342.236 77.1637 342.159 77.2887 342.048 77.3783C341.937 77.4678 341.799 77.5165 341.656 77.516ZM326.771 71.5345C326.702 71.5345 326.631 71.5229 326.562 71.4981C324.052 70.5978 321.524 69.7515 318.978 68.9599C318.823 68.9095 318.694 68.7999 318.618 68.6549C318.543 68.5099 318.528 68.3411 318.577 68.1851C318.625 68.0291 318.733 67.8985 318.877 67.8215C319.021 67.7445 319.19 67.7274 319.346 67.7738C321.909 68.5705 324.455 69.4224 326.981 70.329C327.118 70.3783 327.234 70.4747 327.308 70.6011C327.381 70.7275 327.408 70.8758 327.383 71.0199C327.358 71.1639 327.283 71.2946 327.171 71.3887C327.059 71.4829 326.918 71.5345 326.771 71.5345ZM472.598 207.898C472.482 207.898 472.369 207.866 472.27 207.805C472.172 207.743 472.092 207.656 472.041 207.552C471.43 206.318 470.811 205.087 470.185 203.861C470.115 203.714 470.105 203.547 470.157 203.393C470.209 203.24 470.319 203.113 470.463 203.039C470.607 202.966 470.774 202.951 470.929 202.999C471.084 203.047 471.214 203.153 471.291 203.295C471.92 204.526 472.542 205.762 473.155 207.001C473.202 207.096 473.224 207.201 473.219 207.306C473.214 207.412 473.182 207.515 473.126 207.604C473.07 207.694 472.992 207.768 472.9 207.82C472.808 207.871 472.704 207.898 472.598 207.898ZM1.46669 52.6479C1.32755 52.6481 1.19236 52.6016 1.08281 52.5158C0.973269 52.43 0.895713 52.3099 0.862584 52.1747C0.829455 52.0396 0.842677 51.8972 0.90012 51.7705C0.957564 51.6438 1.05591 51.54 1.17938 51.4758C1.2332 51.4481 2.52529 50.777 4.93229 49.6642C5.08165 49.5959 5.25194 49.5896 5.40593 49.6466C5.55992 49.7037 5.68506 49.8194 5.75397 49.9684C5.82288 50.1175 5.82996 50.2877 5.77365 50.442C5.71735 50.5962 5.60224 50.7219 5.45351 50.7915C3.07674 51.8907 1.76601 52.5709 1.75317 52.5779C1.66461 52.6237 1.5664 52.6477 1.46669 52.6479ZM204.588 89.4943C204.39 89.4943 204.195 89.3995 204.075 89.2235C202.475 86.8789 200.813 84.5772 199.09 82.3209C198.99 82.19 198.946 82.0247 198.968 81.8615C198.99 81.6982 199.076 81.5503 199.207 81.4503C199.338 81.3502 199.503 81.3063 199.666 81.3281C199.829 81.3499 199.977 81.4357 200.077 81.5666C201.813 83.8405 203.488 86.1602 205.1 88.523C205.164 88.6163 205.201 88.7251 205.208 88.8379C205.214 88.9506 205.19 89.063 205.137 89.1629C205.084 89.2628 205.005 89.3465 204.909 89.4048C204.812 89.4632 204.701 89.4941 204.588 89.4943ZM194.205 75.9221C194.03 75.9221 193.857 75.8488 193.734 75.7056C191.886 73.5529 189.973 71.4564 187.999 69.419C187.941 69.3606 187.896 69.2915 187.865 69.2154C187.834 69.1394 187.819 69.0581 187.82 68.9761C187.821 68.8941 187.838 68.813 187.87 68.7377C187.903 68.6623 187.95 68.5941 188.008 68.537C188.067 68.4799 188.137 68.4351 188.213 68.405C188.289 68.3749 188.371 68.3603 188.453 68.3618C188.535 68.3634 188.616 68.3812 188.691 68.4143C188.766 68.4473 188.834 68.4948 188.89 68.5541C190.882 70.6094 192.812 72.7244 194.676 74.8962C194.753 74.9863 194.803 75.0968 194.82 75.2144C194.837 75.3321 194.819 75.4521 194.769 75.5601C194.72 75.6681 194.64 75.7596 194.54 75.8238C194.44 75.8879 194.324 75.9221 194.205 75.9221ZM182.303 63.6644C182.154 63.6644 182.005 63.6114 181.886 63.5034C179.785 61.5977 177.622 59.7621 175.4 57.9996C175.274 57.8965 175.194 57.7477 175.176 57.5856C175.159 57.4234 175.205 57.2609 175.307 57.1331C175.408 57.0053 175.556 56.9224 175.717 56.9025C175.879 56.8825 176.042 56.927 176.172 57.0263C178.415 58.8059 180.599 60.6593 182.72 62.5834C182.813 62.6677 182.878 62.7781 182.907 62.9001C182.936 63.0221 182.927 63.1501 182.882 63.2671C182.837 63.384 182.757 63.4846 182.654 63.5555C182.551 63.6265 182.428 63.6644 182.303 63.6644ZM168.91 53.0565C168.789 53.0565 168.667 53.0213 168.56 52.9476C166.221 51.3433 163.828 49.8208 161.384 48.3828C161.312 48.3422 161.25 48.2877 161.199 48.2226C161.149 48.1574 161.112 48.0829 161.091 48.0034C161.069 47.9238 161.064 47.8408 161.075 47.7592C161.086 47.6775 161.113 47.5989 161.155 47.5279C161.197 47.4569 161.252 47.3949 161.318 47.3455C161.384 47.2962 161.459 47.2604 161.539 47.2403C161.619 47.2202 161.702 47.2163 161.783 47.2286C161.865 47.241 161.943 47.2694 162.013 47.3122C164.482 48.7648 166.9 50.3029 169.262 51.9238C169.371 51.9988 169.453 52.1068 169.497 52.232C169.54 52.3572 169.542 52.493 169.503 52.6195C169.464 52.746 169.385 52.8567 169.278 52.9353C169.172 53.0139 169.043 53.0564 168.91 53.0565ZM13.0372 47.4455C12.8934 47.4452 12.7542 47.395 12.6433 47.3036C12.5323 47.2121 12.4565 47.0851 12.4288 46.944C12.4011 46.8029 12.4231 46.6566 12.4912 46.53C12.5592 46.4033 12.6691 46.3042 12.802 46.2495C15.4498 45.1684 18.1177 44.1371 20.8042 43.1561C20.8808 43.128 20.9621 43.1152 21.0436 43.1186C21.1251 43.122 21.2051 43.1415 21.2791 43.1759C21.3531 43.2103 21.4195 43.2589 21.4746 43.319C21.5298 43.3791 21.5725 43.4495 21.6003 43.5262C21.6283 43.6028 21.641 43.6841 21.6375 43.7656C21.6341 43.847 21.6146 43.927 21.5802 44.0009C21.5459 44.0749 21.4973 44.1413 21.4372 44.1965C21.3772 44.2516 21.3068 44.2944 21.2302 44.3223C18.5583 45.2981 15.9049 46.3239 13.2715 47.3992C13.1972 47.4298 13.1176 47.4456 13.0372 47.4455ZM154.182 44.3973C154.089 44.3973 153.995 44.3761 153.906 44.3323C151.366 43.0708 148.783 41.8979 146.162 40.8157C146.01 40.7529 145.888 40.6321 145.825 40.48C145.762 40.3279 145.762 40.157 145.825 40.0047C145.888 39.8525 146.008 39.7314 146.16 39.6682C146.313 39.605 146.484 39.6049 146.636 39.6677C149.284 40.7609 151.893 41.9458 154.459 43.2202C154.584 43.2826 154.685 43.3855 154.744 43.5122C154.804 43.6389 154.819 43.782 154.787 43.9183C154.755 44.0546 154.678 44.1761 154.568 44.263C154.458 44.3499 154.322 44.3972 154.182 44.3973ZM29.1045 41.5692C28.9565 41.5694 28.8134 41.5167 28.7008 41.4207C28.5882 41.3247 28.5136 41.1916 28.4904 41.0455C28.4673 40.8993 28.497 40.7497 28.5744 40.6235C28.6518 40.4974 28.7716 40.403 28.9124 40.3574C31.6315 39.4732 34.3661 38.6374 37.115 37.8507C37.1934 37.8282 37.2755 37.8215 37.3565 37.8308C37.4376 37.8401 37.516 37.8652 37.5873 37.9048C37.6586 37.9444 37.7214 37.9977 37.7721 38.0615C37.8229 38.1254 37.8605 38.1987 37.883 38.2771C37.9054 38.3555 37.9121 38.4376 37.9028 38.5186C37.8936 38.5997 37.8684 38.6781 37.8288 38.7494C37.7892 38.8207 37.7359 38.8835 37.6721 38.9342C37.6082 38.985 37.535 39.0226 37.4565 39.0451C34.7218 39.8275 32.0013 40.6587 29.2962 41.5382C29.2344 41.5588 29.1697 41.5693 29.1045 41.5692ZM138.389 37.8747C138.324 37.8747 138.258 37.8643 138.192 37.8424C135.501 36.943 132.782 36.1325 130.038 35.4122C129.959 35.3915 129.885 35.3555 129.82 35.3061C129.755 35.2568 129.7 35.1952 129.659 35.1247C129.576 34.9825 129.553 34.8131 129.595 34.6538C129.637 34.4945 129.74 34.3583 129.882 34.2752C130.024 34.1921 130.194 34.169 130.353 34.2108C133.124 34.9376 135.869 35.7558 138.586 36.6641C138.742 36.7164 138.871 36.8286 138.944 36.976C139.018 37.1233 139.03 37.2938 138.978 37.4499C138.937 37.5735 138.858 37.6811 138.752 37.7573C138.646 37.8335 138.52 37.8746 138.389 37.8747ZM45.5523 36.867C45.4009 36.8664 45.2549 36.8106 45.1417 36.7099C45.0286 36.6093 44.956 36.4708 44.9378 36.3205C44.9195 36.1702 44.9568 36.0183 45.0426 35.8935C45.1284 35.7688 45.2568 35.6796 45.4037 35.6428C48.18 34.9578 50.9691 34.3254 53.7694 33.7458C53.8492 33.7292 53.9316 33.7285 54.0117 33.7437C54.0918 33.759 54.1682 33.7899 54.2363 33.8347C54.3045 33.8795 54.3631 33.9373 54.4089 34.0048C54.4546 34.0724 54.4866 34.1483 54.503 34.2282C54.5196 34.308 54.5202 34.3903 54.505 34.4704C54.4897 34.5506 54.4588 34.6269 54.414 34.695C54.3692 34.7631 54.3114 34.8218 54.2439 34.8676C54.1764 34.9133 54.1006 34.9453 54.0207 34.9618C51.2359 35.5381 48.4623 36.167 45.7013 36.8484C45.6517 36.8612 45.6016 36.867 45.5523 36.867ZM121.861 33.5281C121.821 33.5281 121.781 33.5244 121.741 33.5165C118.955 32.9732 116.154 32.5137 113.34 32.1387C113.259 32.128 113.181 32.1014 113.111 32.0605C113.04 32.0196 112.978 31.9652 112.929 31.9004C112.879 31.8357 112.843 31.7618 112.822 31.6829C112.801 31.6041 112.796 31.522 112.807 31.4411C112.817 31.3603 112.844 31.2823 112.885 31.2118C112.926 31.1412 112.98 31.0794 113.045 31.0298C113.11 30.9803 113.184 30.944 113.262 30.923C113.341 30.902 113.423 30.8967 113.504 30.9075C116.342 31.2856 119.169 31.749 121.979 32.2973C122.13 32.3274 122.265 32.4125 122.356 32.5361C122.448 32.6597 122.491 32.8129 122.476 32.9662C122.461 33.1194 122.39 33.2618 122.277 33.3656C122.163 33.4694 122.015 33.5273 121.861 33.5281ZM62.304 33.4105C62.1477 33.411 61.9969 33.3526 61.8818 33.2468C61.7666 33.1411 61.6956 32.9958 61.6829 32.84C61.6702 32.6842 61.7168 32.5293 61.8132 32.4063C61.9097 32.2833 62.049 32.2012 62.2034 32.1764C65.0252 31.7095 67.8564 31.3019 70.6953 30.9538C70.7764 30.9434 70.8587 30.9492 70.9375 30.9709C71.0162 30.9925 71.0899 31.0295 71.1543 31.0799C71.2186 31.1302 71.2723 31.1928 71.3123 31.2641C71.3523 31.3353 71.3777 31.4138 71.3871 31.4949C71.397 31.5759 71.3909 31.658 71.3691 31.7366C71.3472 31.8152 71.3101 31.8887 71.2599 31.9529C71.2096 32.0172 71.1472 32.0709 71.0762 32.111C71.0052 32.1511 70.927 32.1768 70.846 32.1867C68.0244 32.5325 65.2104 32.9376 62.4058 33.4018C62.3722 33.4076 62.3381 33.4105 62.304 33.4105ZM79.2809 31.3418C79.1199 31.3423 78.9651 31.2802 78.849 31.1688C78.7328 31.0574 78.6645 30.9052 78.6584 30.7444C78.6523 30.5835 78.7089 30.4266 78.8162 30.3067C78.9235 30.1868 79.0732 30.1131 79.2337 30.1014C82.0864 29.8812 84.9439 29.7285 87.8039 29.6435C87.9685 29.6387 88.1283 29.6996 88.2481 29.8126C88.3679 29.9257 88.4379 30.0817 88.4427 30.2463C88.4475 30.4109 88.3867 30.5708 88.2736 30.6905C88.1606 30.8103 88.0046 30.8803 87.8399 30.8851C85.0405 30.9675 82.1772 31.1203 79.3289 31.3401C79.3129 31.3413 79.2969 31.3418 79.2809 31.3418ZM104.917 31.2598C104.901 31.2598 104.886 31.2594 104.87 31.2581C102.038 31.0457 99.2003 30.9093 96.3609 30.8491C96.1962 30.8474 96.0389 30.7802 95.9237 30.6625C95.8085 30.5448 95.7447 30.3862 95.7465 30.2215C95.7482 30.0568 95.8154 29.8995 95.9331 29.7843C96.0508 29.6691 96.2094 29.6054 96.3741 29.6071H96.3878C99.2659 29.6684 102.151 29.8071 104.963 30.0194C105.124 30.0312 105.273 30.1047 105.381 30.2246C105.488 30.3444 105.545 30.5012 105.539 30.662C105.533 30.8228 105.464 30.9749 105.349 31.0864C105.233 31.1979 105.078 31.26 104.917 31.2598ZM211.614 101.304L210.827 99.9486C210.136 98.7591 209.432 97.5776 208.714 96.4043C208.628 96.2637 208.602 96.0949 208.64 95.9347C208.679 95.7746 208.78 95.6363 208.92 95.5503C209.061 95.4645 209.229 95.4379 209.39 95.4765C209.55 95.5151 209.688 95.6156 209.774 95.756C210.232 96.5049 210.684 97.257 211.132 98.0123C211.302 97.3615 211.533 96.507 211.829 95.467C211.874 95.3086 211.98 95.1746 212.124 95.0945C212.268 95.0143 212.438 94.9947 212.596 95.0398C212.755 95.0849 212.889 95.1912 212.969 95.3351C213.049 95.479 213.069 95.6489 213.024 95.8074C212.311 98.3088 211.972 99.7627 211.969 99.7768L211.614 101.304ZM214.781 88.6924C214.682 88.6924 214.585 88.6689 214.497 88.624C214.41 88.579 214.334 88.5139 214.276 88.4339C214.219 88.3538 214.181 88.2613 214.166 88.1638C214.152 88.0664 214.16 87.9669 214.192 87.8735C215.037 85.3567 215.934 82.8574 216.881 80.3772C216.94 80.2244 217.058 80.1013 217.208 80.0348C217.358 79.9683 217.528 79.9638 217.681 80.0222C217.834 80.0807 217.958 80.1973 218.025 80.3467C218.093 80.4961 218.099 80.6661 218.041 80.8197C217.1 83.2845 216.21 85.768 215.369 88.2688C215.328 88.3922 215.249 88.4994 215.143 88.5754C215.038 88.6514 214.911 88.6923 214.781 88.6924ZM220.438 73.8637C220.336 73.8637 220.234 73.8382 220.144 73.7894C220.053 73.7406 219.976 73.6702 219.92 73.5843C219.863 73.4985 219.829 73.3999 219.82 73.2975C219.811 73.1951 219.827 73.0921 219.868 72.9976C220.913 70.5583 222.008 68.1409 223.153 65.7468C223.226 65.6014 223.353 65.4903 223.507 65.4376C223.661 65.3849 223.829 65.3947 223.976 65.4649C224.123 65.5351 224.236 65.6601 224.292 65.813C224.347 65.9659 224.341 66.1345 224.273 66.2825C223.136 68.6611 222.048 71.063 221.01 73.4865C220.909 73.7225 220.679 73.8637 220.438 73.8637ZM227.293 59.5563C227.186 59.5562 227.08 59.5284 226.987 59.4755C226.894 59.4226 226.816 59.3464 226.761 59.2544C226.705 59.1624 226.675 59.0577 226.672 58.9504C226.67 58.8432 226.695 58.7372 226.746 58.6426C227.996 56.3009 229.301 53.989 230.66 51.7089C230.702 51.6389 230.757 51.5777 230.822 51.529C230.888 51.4802 230.962 51.4449 231.041 51.4249C231.12 51.4049 231.203 51.4007 231.283 51.4125C231.364 51.4243 231.442 51.4518 231.512 51.4936C231.582 51.5354 231.643 51.5906 231.692 51.656C231.74 51.7214 231.776 51.7958 231.796 51.8748C231.816 51.9539 231.82 52.0362 231.808 52.1169C231.796 52.1976 231.769 52.2752 231.727 52.3452C230.378 54.6084 229.082 56.9031 227.841 59.2276C227.788 59.3269 227.709 59.41 227.613 59.4679C227.516 59.5258 227.406 59.5563 227.293 59.5563ZM235.43 45.9431C235.318 45.943 235.207 45.9124 235.111 45.8545C235.015 45.7966 234.936 45.7136 234.883 45.6144C234.83 45.5152 234.805 45.4035 234.811 45.2912C234.816 45.1789 234.852 45.0703 234.915 44.9769C236.391 42.7696 237.93 40.6046 239.53 38.4845C239.578 38.4185 239.64 38.3627 239.71 38.3206C239.781 38.2784 239.859 38.2507 239.94 38.2389C240.021 38.2272 240.104 38.2317 240.184 38.2522C240.263 38.2726 240.338 38.3087 240.403 38.3582C240.469 38.4077 240.524 38.4697 240.565 38.5407C240.607 38.6116 240.634 38.69 240.644 38.7714C240.655 38.8528 240.65 38.9356 240.629 39.0149C240.607 39.0942 240.57 39.1685 240.52 39.2334C238.935 41.3345 237.41 43.4802 235.946 45.6678C235.89 45.7527 235.813 45.8223 235.723 45.8703C235.633 45.9183 235.532 45.9433 235.43 45.9431ZM244.997 33.3033C244.878 33.3032 244.762 33.269 244.662 33.2049C244.562 33.1407 244.482 33.0493 244.433 32.9413C244.383 32.8334 244.366 32.7136 244.382 32.596C244.399 32.4783 244.449 32.3679 244.526 32.2778C246.257 30.2615 248.058 28.3058 249.924 26.4143C249.981 26.3548 250.049 26.3071 250.125 26.2742C250.2 26.2413 250.282 26.2237 250.364 26.2226C250.447 26.2214 250.528 26.2366 250.605 26.2674C250.681 26.2981 250.751 26.3438 250.809 26.4017C250.868 26.4596 250.915 26.5286 250.946 26.6047C250.978 26.6807 250.994 26.7624 250.994 26.8448C250.994 26.9272 250.977 27.0087 250.945 27.0846C250.913 27.1606 250.867 27.2294 250.808 27.2871C248.961 29.1581 247.181 31.0926 245.468 33.0872C245.41 33.1551 245.338 33.2096 245.256 33.2469C245.175 33.2842 245.086 33.3034 244.997 33.3033ZM256.146 22.0503C256.019 22.0504 255.896 22.0118 255.792 21.9397C255.688 21.8676 255.608 21.7653 255.564 21.6468C255.519 21.5282 255.512 21.3989 255.544 21.2762C255.575 21.1535 255.643 21.0433 255.738 20.9603C257.747 19.2172 259.827 17.5595 261.975 15.9915C262.108 15.8944 262.274 15.8542 262.437 15.8796C262.6 15.9051 262.746 15.9942 262.843 16.1273C262.94 16.2603 262.98 16.4265 262.955 16.5893C262.929 16.752 262.84 16.8979 262.707 16.995C260.588 18.5429 258.534 20.1789 256.552 21.8988C256.44 21.9968 256.295 22.0506 256.146 22.0503ZM268.945 12.7428C268.809 12.7429 268.677 12.6984 268.569 12.6161C268.46 12.5338 268.382 12.4182 268.346 12.2871C268.31 12.1561 268.318 12.0167 268.368 11.8905C268.419 11.7643 268.509 11.6583 268.626 11.5886C270.91 10.2237 273.259 8.97071 275.665 7.834C275.739 7.79724 275.819 7.77562 275.902 7.7704C275.984 7.76518 276.067 7.77647 276.145 7.80361C276.223 7.83074 276.295 7.87318 276.356 7.92843C276.418 7.98368 276.467 8.05061 276.503 8.12535C276.538 8.20008 276.558 8.28111 276.561 8.36366C276.565 8.44621 276.552 8.52862 276.523 8.60608C276.495 8.68355 276.451 8.75451 276.394 8.8148C276.338 8.87509 276.27 8.9235 276.194 8.95719C273.825 10.0767 271.512 11.3107 269.263 12.6546C269.167 12.7125 269.057 12.743 268.945 12.7428ZM283.248 6.00577C283.101 6.00589 282.959 5.95415 282.847 5.85967C282.735 5.76519 282.66 5.63408 282.635 5.48956C282.611 5.34504 282.638 5.19645 282.712 5.07005C282.786 4.94366 282.903 4.84763 283.041 4.79897C285.55 3.91417 288.102 3.15833 290.688 2.5344C290.848 2.49575 291.017 2.5223 291.158 2.60821C291.299 2.69412 291.399 2.83235 291.438 2.9925C291.477 3.15264 291.45 3.32157 291.364 3.46214C291.278 3.60271 291.14 3.70339 290.98 3.74204C288.435 4.35596 285.924 5.09963 283.455 5.97017C283.388 5.99381 283.318 6.00586 283.248 6.00577ZM337.788 5.73709C337.732 5.73709 337.674 5.72924 337.617 5.71268C335.091 4.98741 332.541 4.34754 329.972 3.79419C329.892 3.77709 329.816 3.74447 329.749 3.69815C329.682 3.65183 329.625 3.59274 329.58 3.52425C329.536 3.45576 329.506 3.37921 329.491 3.29898C329.476 3.21875 329.477 3.13641 329.494 3.05665C329.512 2.9769 329.544 2.90128 329.59 2.83414C329.637 2.767 329.696 2.70965 329.764 2.66534C329.833 2.62104 329.909 2.59064 329.99 2.57592C330.07 2.56119 330.152 2.56241 330.232 2.57951C332.829 3.13893 335.406 3.7857 337.959 4.51869C338.103 4.55964 338.228 4.65141 338.31 4.77704C338.391 4.90267 338.425 5.0537 338.404 5.20221C338.384 5.35072 338.31 5.48668 338.196 5.585C338.083 5.68332 337.938 5.73734 337.788 5.73709ZM322.299 2.43298C322.271 2.43298 322.243 2.4313 322.214 2.42716C319.613 2.06997 316.999 1.8208 314.377 1.6803C314.296 1.67601 314.216 1.65572 314.143 1.62059C314.069 1.58546 314.003 1.53618 313.948 1.47555C313.894 1.41492 313.852 1.34415 313.825 1.26726C313.797 1.19037 313.786 1.10888 313.79 1.02744C313.794 0.945811 313.814 0.865743 313.849 0.791883C313.884 0.718024 313.933 0.651845 313.993 0.597189C314.054 0.542533 314.125 0.500489 314.202 0.4735C314.28 0.446511 314.361 0.435111 314.443 0.439968C317.045 0.577416 319.716 0.831623 322.382 1.19636C322.539 1.21708 322.681 1.29654 322.781 1.41862C322.881 1.5407 322.931 1.69626 322.92 1.85367C322.91 2.01108 322.839 2.15856 322.724 2.26615C322.609 2.37375 322.457 2.43339 322.299 2.43298ZM298.607 2.30006C298.45 2.2996 298.299 2.23955 298.184 2.132C298.07 2.02445 298 1.87743 297.99 1.72058C297.979 1.56373 298.028 1.40872 298.128 1.28684C298.227 1.16497 298.369 1.0853 298.525 1.06387C301.159 0.707206 303.808 0.478126 306.465 0.377454C306.806 0.375384 307.096 0.631657 307.109 0.974449C307.115 1.13897 307.056 1.29924 306.944 1.42003C306.832 1.54083 306.677 1.61226 306.513 1.61862C303.882 1.71922 301.252 1.94651 298.692 2.29468C298.664 2.2981 298.636 2.29989 298.607 2.30006ZM349.226 9.59186C349.15 9.59171 349.074 9.57753 349.003 9.55004C347.72 9.055 346.431 8.57831 345.136 8.12009C344.98 8.06519 344.853 7.95083 344.782 7.80219C344.711 7.65355 344.702 7.48278 344.757 7.32747C344.812 7.17216 344.926 7.04501 345.075 6.97401C345.223 6.90301 345.394 6.89397 345.55 6.94887C346.838 7.40427 348.151 7.88949 349.45 8.39085C349.586 8.44275 349.699 8.54057 349.77 8.66731C349.841 8.79405 349.865 8.94167 349.838 9.08449C349.812 9.22732 349.736 9.35629 349.624 9.44899C349.512 9.54169 349.372 9.59226 349.226 9.59186Z" fill="#FFBE55"/>
</svg>
