<svg width="474" height="249" viewBox="0 0 474 249" fill="none" xmlns="http://www.w3.org/2000/svg">
<path d="M5.59575 92.9018C5.5767 92.9018 5.55767 92.901 5.53821 92.8993C2.97141 92.6637 1.47479 92.648 1.45947 92.648L0.515137 92.6397L0.89726 91.7757C1.45744 90.5092 2.03156 89.2489 2.6195 87.9951C2.65385 87.9208 2.70254 87.854 2.76277 87.7986C2.82301 87.7432 2.89361 87.7003 2.97049 87.6723C3.04738 87.6442 3.12904 87.6317 3.2108 87.6353C3.29255 87.639 3.37278 87.6587 3.44687 87.6935C3.52096 87.7282 3.58746 87.7773 3.64252 87.8378C3.69759 87.8984 3.74015 87.9692 3.76776 88.0462C3.79536 88.1233 3.80747 88.205 3.80338 88.2867C3.79929 88.3685 3.77908 88.4486 3.74393 88.5225C3.29049 89.4895 2.84528 90.4604 2.40836 91.435C3.11837 91.4665 4.21589 91.5306 5.65164 91.6623C5.81093 91.6766 5.95855 91.7518 6.06378 91.8722C6.16901 91.9926 6.22372 92.149 6.21652 92.3088C6.20931 92.4685 6.14076 92.6194 6.02512 92.7298C5.90948 92.8403 5.75567 92.9019 5.59575 92.9018ZM98.338 195.113C98.1807 195.112 98.0293 195.053 97.9144 194.945C97.7996 194.838 97.7297 194.691 97.719 194.534C97.5309 191.745 97.2721 188.96 96.9428 186.184C96.9233 186.021 96.9696 185.856 97.0714 185.727C97.1733 185.597 97.3224 185.514 97.486 185.494C97.6495 185.475 97.8141 185.521 97.9435 185.623C98.0729 185.725 98.1566 185.874 98.1761 186.037C98.5079 188.834 98.7687 191.639 98.9581 194.45C98.9639 194.535 98.9521 194.62 98.9235 194.7C98.8949 194.78 98.8501 194.854 98.792 194.916C98.7338 194.978 98.6635 195.028 98.5854 195.061C98.5073 195.095 98.4231 195.113 98.338 195.113ZM96.3326 178.406C96.1867 178.406 96.0455 178.355 95.9339 178.261C95.8222 178.167 95.7472 178.037 95.7219 177.893C95.237 175.143 94.6677 172.408 94.0146 169.693C93.9781 169.534 94.006 169.367 94.092 169.228C94.1781 169.089 94.3154 168.99 94.4742 168.951C94.633 168.913 94.8006 168.939 94.9405 169.023C95.0804 169.107 95.1815 169.244 95.2218 169.402C95.8808 172.142 96.4554 174.901 96.9449 177.677C96.9608 177.766 96.9569 177.858 96.9335 177.946C96.91 178.033 96.8676 178.115 96.8092 178.185C96.7509 178.254 96.6779 178.31 96.5955 178.348C96.5132 178.387 96.4234 178.407 96.3326 178.406ZM92.3722 162.061C92.2401 162.061 92.1115 162.019 92.0051 161.941C91.8986 161.863 91.8198 161.753 91.7802 161.627C90.944 158.965 90.0101 156.335 88.9803 153.742C88.9501 153.666 88.9352 153.585 88.9363 153.504C88.9374 153.422 88.9546 153.342 88.9869 153.267C89.0191 153.192 89.0658 153.124 89.1243 153.067C89.1828 153.01 89.2519 152.966 89.3277 152.936C89.4034 152.905 89.4844 152.89 89.5659 152.891C89.6475 152.893 89.728 152.91 89.8029 152.942C89.8778 152.974 89.9456 153.021 90.0024 153.079C90.0593 153.138 90.104 153.207 90.1341 153.283C91.1755 155.904 92.1196 158.563 92.9647 161.254C92.9939 161.347 93.0008 161.446 92.9849 161.542C92.969 161.638 92.9306 161.729 92.8729 161.808C92.8152 161.886 92.7398 161.95 92.6528 161.994C92.5659 162.038 92.4697 162.061 92.3722 162.061ZM86.1407 146.445C86.0247 146.445 85.9111 146.413 85.8126 146.352C85.7142 146.291 85.6348 146.203 85.5835 146.099C84.3495 143.599 83.0099 141.153 81.5685 138.766C81.5263 138.697 81.4982 138.619 81.4859 138.539C81.4736 138.458 81.4773 138.376 81.4968 138.296C81.5163 138.217 81.5512 138.143 81.5995 138.077C81.6478 138.011 81.7086 137.956 81.7784 137.914C81.8481 137.871 81.9256 137.843 82.0062 137.831C82.0868 137.819 82.1691 137.822 82.2483 137.842C82.3275 137.861 82.402 137.896 82.4677 137.945C82.5334 137.993 82.589 138.054 82.6312 138.123C84.0907 140.54 85.4471 143.018 86.6967 145.549C86.7434 145.644 86.7652 145.749 86.7601 145.854C86.755 145.96 86.7231 146.062 86.6675 146.152C86.6119 146.241 86.5343 146.315 86.4421 146.367C86.3499 146.418 86.2462 146.445 86.1407 146.445ZM77.4318 132.066C77.2409 132.066 77.0521 131.978 76.9308 131.812C75.2816 129.565 73.5302 127.395 71.6822 125.308C71.577 125.184 71.5245 125.024 71.5359 124.862C71.5474 124.7 71.622 124.548 71.7436 124.441C71.8652 124.333 72.0242 124.277 72.1864 124.285C72.3487 124.293 72.5014 124.365 72.6116 124.484C74.4848 126.6 76.2602 128.8 77.9323 131.078C78.0002 131.17 78.0411 131.28 78.0504 131.394C78.0598 131.508 78.0373 131.623 77.9855 131.725C77.9337 131.828 77.8545 131.914 77.7568 131.974C77.659 132.034 77.5465 132.066 77.4318 132.066ZM66.2786 119.481C66.1209 119.482 65.969 119.422 65.8543 119.313C63.8189 117.407 61.6977 115.594 59.4973 113.88C59.4322 113.83 59.3776 113.768 59.3366 113.697C59.2957 113.626 59.2692 113.547 59.2587 113.466C59.2482 113.385 59.2539 113.302 59.2756 113.223C59.2972 113.144 59.3342 113.07 59.3846 113.005C59.435 112.941 59.4977 112.886 59.5691 112.846C59.6405 112.806 59.7191 112.78 59.8005 112.77C59.882 112.76 59.9645 112.767 60.0434 112.789C60.1223 112.811 60.196 112.849 60.2603 112.9C62.4908 114.637 64.6409 116.474 66.7038 118.407C66.7948 118.492 66.858 118.603 66.8853 118.724C66.9126 118.846 66.9027 118.973 66.8568 119.089C66.8109 119.205 66.7313 119.304 66.6282 119.374C66.5251 119.444 66.4033 119.482 66.2786 119.481ZM53.0074 109.141C52.8923 109.141 52.7756 109.109 52.6717 109.042C50.3241 107.531 47.9133 106.121 45.4457 104.815C45.3719 104.778 45.3063 104.727 45.2526 104.664C45.199 104.601 45.1584 104.528 45.1333 104.45C45.1082 104.371 45.099 104.288 45.1063 104.206C45.1137 104.123 45.1374 104.043 45.176 103.97C45.2147 103.897 45.2675 103.833 45.3314 103.78C45.3953 103.728 45.4691 103.689 45.5483 103.665C45.6275 103.642 45.7106 103.634 45.7927 103.643C45.8749 103.653 45.9544 103.678 46.0266 103.718C48.5254 105.04 50.9667 106.468 53.344 107.998C53.4566 108.071 53.5426 108.178 53.5893 108.303C53.6359 108.429 53.6406 108.566 53.6028 108.695C53.5649 108.824 53.4865 108.936 53.3792 109.017C53.2719 109.097 53.1415 109.14 53.0074 109.141ZM38.1328 101.256C38.0513 101.256 37.9681 101.24 37.8882 101.205C35.3194 100.105 32.709 99.1054 30.0627 98.2076C29.9855 98.1814 29.9142 98.1402 29.853 98.0865C29.7917 98.0327 29.7415 97.9674 29.7055 97.8943C29.6694 97.8212 29.6481 97.7417 29.6428 97.6603C29.6375 97.579 29.6482 97.4974 29.6744 97.4202C29.7006 97.343 29.7418 97.2717 29.7955 97.2104C29.8493 97.1491 29.9146 97.099 29.9877 97.0629C30.0608 97.0269 30.1403 97.0056 30.2217 97.0002C30.303 96.9949 30.3846 97.0057 30.4618 97.0319C33.1387 97.94 35.7794 98.9516 38.3779 100.064C38.5092 100.121 38.6171 100.221 38.6832 100.348C38.7493 100.474 38.7697 100.62 38.7409 100.76C38.7121 100.9 38.6359 101.026 38.5251 101.116C38.4143 101.206 38.2758 101.256 38.1328 101.256ZM22.1818 95.8346C22.1305 95.8346 22.0783 95.8279 22.0266 95.8147C19.3178 95.1177 16.5837 94.5227 13.8302 94.0312C13.7489 94.018 13.6711 93.9887 13.6013 93.9451C13.5314 93.9015 13.4709 93.8444 13.4233 93.7772C13.3757 93.7101 13.342 93.6341 13.324 93.5537C13.306 93.4734 13.3042 93.3902 13.3187 93.3092C13.3332 93.2281 13.3636 93.1507 13.4083 93.0815C13.4529 93.0123 13.5109 92.9527 13.5788 92.9062C13.6467 92.8596 13.7232 92.827 13.8038 92.8102C13.8844 92.7935 13.9676 92.793 14.0484 92.8086C16.8326 93.3058 19.5972 93.9073 22.3363 94.612C22.4834 94.6489 22.612 94.7384 22.6976 94.8637C22.7833 94.9889 22.8201 95.1412 22.8011 95.2918C22.7821 95.4423 22.7085 95.5807 22.5944 95.6807C22.4803 95.7807 22.3336 95.8354 22.1818 95.8346ZM98.1339 208.332V207.119C98.1339 205.739 98.1194 204.35 98.0908 202.991C98.0874 202.826 98.1495 202.667 98.2634 202.548C98.3774 202.429 98.5339 202.361 98.6985 202.357C99.048 202.357 99.3253 202.623 99.3324 202.965C99.3531 203.947 99.3668 204.945 99.3726 205.943C100.205 205.391 101.048 204.855 101.9 204.335C102.041 204.249 102.21 204.222 102.37 204.261C102.53 204.299 102.668 204.4 102.754 204.54C102.84 204.681 102.867 204.85 102.828 205.01C102.79 205.17 102.689 205.308 102.549 205.394C100.338 206.747 99.1299 207.614 99.1179 207.622L98.1339 208.332ZM247.09 218.868C246.947 218.868 246.802 218.818 246.685 218.717C244.504 216.835 242.271 215.012 239.99 213.251C239.924 213.202 239.868 213.14 239.826 213.069C239.784 212.998 239.756 212.919 239.745 212.838C239.734 212.756 239.739 212.673 239.76 212.593C239.781 212.513 239.818 212.438 239.868 212.373C239.919 212.308 239.982 212.253 240.054 212.212C240.125 212.172 240.204 212.146 240.286 212.136C240.368 212.126 240.451 212.133 240.531 212.155C240.61 212.178 240.684 212.216 240.749 212.268C243.048 214.043 245.298 215.88 247.496 217.777C247.592 217.86 247.66 217.97 247.692 218.093C247.723 218.215 247.717 218.345 247.672 218.464C247.628 218.582 247.549 218.685 247.445 218.757C247.341 218.829 247.217 218.868 247.09 218.868ZM233.345 208.285C233.225 208.285 233.103 208.25 232.996 208.178C230.616 206.556 228.185 205.011 225.707 203.544C225.637 203.503 225.575 203.448 225.526 203.382C225.477 203.317 225.442 203.243 225.421 203.164C225.401 203.085 225.397 203.003 225.408 202.922C225.42 202.841 225.447 202.764 225.489 202.693C225.53 202.623 225.585 202.562 225.65 202.513C225.716 202.464 225.79 202.428 225.869 202.408C225.948 202.388 226.03 202.383 226.111 202.395C226.191 202.406 226.269 202.434 226.339 202.475C228.84 203.956 231.293 205.515 233.695 207.151C233.805 207.226 233.888 207.334 233.932 207.459C233.976 207.584 233.978 207.721 233.939 207.847C233.9 207.974 233.821 208.085 233.714 208.164C233.607 208.243 233.478 208.285 233.345 208.285ZM109.804 201.259C109.664 201.259 109.529 201.212 109.419 201.126C109.31 201.039 109.232 200.919 109.2 200.783C109.167 200.648 109.181 200.505 109.239 200.378C109.297 200.252 109.397 200.148 109.521 200.085C112.112 198.763 114.745 197.528 117.417 196.38C117.569 196.315 117.74 196.313 117.893 196.374C118.046 196.435 118.168 196.554 118.233 196.705C118.298 196.857 118.3 197.028 118.239 197.181C118.178 197.334 118.059 197.456 117.908 197.521C115.261 198.658 112.652 199.882 110.086 201.191C109.998 201.236 109.902 201.259 109.804 201.259ZM218.41 199.467C218.313 199.466 218.218 199.444 218.131 199.4C215.561 198.106 212.945 196.902 210.289 195.794C210.214 195.762 210.145 195.716 210.088 195.659C210.03 195.601 209.985 195.532 209.954 195.457C209.923 195.382 209.907 195.301 209.907 195.219C209.907 195.138 209.923 195.057 209.955 194.982C209.986 194.906 210.032 194.838 210.09 194.78C210.147 194.723 210.216 194.677 210.291 194.646C210.367 194.615 210.448 194.599 210.529 194.6C210.611 194.6 210.691 194.616 210.767 194.648C213.45 195.768 216.093 196.983 218.69 198.291C218.815 198.354 218.915 198.457 218.974 198.584C219.032 198.711 219.047 198.854 219.014 198.989C218.982 199.125 218.905 199.246 218.795 199.333C218.686 199.42 218.55 199.467 218.41 199.467ZM125.744 194.404C125.598 194.403 125.457 194.351 125.345 194.257C125.234 194.162 125.159 194.032 125.134 193.888C125.109 193.744 125.136 193.595 125.21 193.469C125.283 193.343 125.399 193.247 125.536 193.197C128.276 192.224 131.047 191.341 133.845 190.549C134.004 190.504 134.173 190.524 134.317 190.604C134.461 190.685 134.567 190.819 134.612 190.978C134.657 191.136 134.637 191.306 134.556 191.45C134.476 191.593 134.342 191.699 134.183 191.744C131.412 192.529 128.667 193.404 125.952 194.367C125.883 194.392 125.813 194.404 125.744 194.404ZM202.401 192.801C202.337 192.801 202.271 192.791 202.206 192.769C199.475 191.863 196.71 191.061 193.919 190.365C193.839 190.346 193.764 190.311 193.698 190.263C193.632 190.214 193.576 190.154 193.533 190.083C193.491 190.013 193.463 189.936 193.45 189.855C193.438 189.774 193.442 189.691 193.462 189.612C193.482 189.532 193.517 189.457 193.566 189.391C193.615 189.326 193.676 189.27 193.746 189.228C193.817 189.186 193.895 189.159 193.976 189.147C194.057 189.135 194.139 189.14 194.219 189.16C197.041 189.863 199.836 190.674 202.597 191.591C202.737 191.637 202.856 191.732 202.933 191.858C203.01 191.984 203.039 192.134 203.015 192.279C202.992 192.425 202.917 192.558 202.804 192.653C202.692 192.749 202.549 192.801 202.401 192.801ZM142.441 189.69C142.287 189.69 142.139 189.633 142.025 189.53C141.911 189.427 141.839 189.286 141.823 189.133C141.807 188.98 141.848 188.827 141.939 188.703C142.029 188.579 142.163 188.493 142.313 188.461C145.159 187.861 148.025 187.361 150.906 186.962C151.067 186.943 151.23 186.988 151.358 187.088C151.486 187.187 151.571 187.333 151.593 187.493C151.615 187.654 151.574 187.817 151.477 187.948C151.38 188.079 151.237 188.166 151.076 188.192C148.224 188.587 145.387 189.082 142.569 189.676C142.527 189.685 142.484 189.69 142.441 189.69ZM185.574 188.617C185.54 188.617 185.506 188.614 185.471 188.608C182.633 188.133 179.778 187.769 176.912 187.515C176.75 187.498 176.601 187.418 176.497 187.292C176.393 187.166 176.343 187.005 176.357 186.842C176.372 186.68 176.449 186.53 176.574 186.424C176.698 186.319 176.859 186.266 177.021 186.278C179.909 186.533 182.821 186.905 185.676 187.383C185.83 187.409 185.969 187.491 186.065 187.614C186.161 187.737 186.207 187.892 186.194 188.047C186.181 188.202 186.11 188.347 185.996 188.453C185.881 188.559 185.73 188.617 185.574 188.617ZM159.624 187.322C159.463 187.322 159.308 187.26 159.192 187.148C159.076 187.035 159.008 186.882 159.003 186.721C158.998 186.56 159.056 186.403 159.164 186.284C159.273 186.164 159.424 186.092 159.585 186.082C162.488 185.894 165.397 185.816 168.306 185.847C168.471 185.848 168.629 185.915 168.745 186.032C168.86 186.149 168.925 186.307 168.924 186.472C168.923 186.636 168.857 186.794 168.74 186.91C168.622 187.026 168.464 187.09 168.299 187.089H168.292C165.415 187.057 162.537 187.135 159.665 187.321C159.651 187.322 159.638 187.322 159.624 187.322ZM256.354 227.735L256.05 227.43C255.077 226.458 254.094 225.496 253.099 224.546C252.98 224.432 252.911 224.276 252.907 224.111C252.904 223.946 252.965 223.787 253.079 223.668C253.193 223.549 253.349 223.48 253.514 223.476C253.679 223.472 253.838 223.534 253.957 223.648C254.856 224.506 255.745 225.374 256.625 226.25C257.765 225.751 258.911 225.266 260.063 224.798C260.139 224.767 260.22 224.751 260.301 224.751C260.383 224.752 260.464 224.768 260.539 224.799C260.615 224.831 260.683 224.877 260.741 224.935C260.798 224.993 260.844 225.062 260.874 225.137C260.905 225.213 260.921 225.294 260.921 225.376C260.92 225.457 260.904 225.538 260.872 225.613C260.84 225.689 260.794 225.757 260.736 225.814C260.678 225.872 260.609 225.917 260.533 225.948C258.098 226.942 256.76 227.55 256.746 227.556L256.354 227.735ZM463.472 239.535C463.331 239.535 463.19 239.487 463.073 239.389C460.984 237.638 458.844 235.949 456.654 234.325C456.522 234.227 456.434 234.08 456.41 233.917C456.386 233.754 456.427 233.588 456.525 233.456C456.623 233.324 456.77 233.236 456.933 233.212C457.096 233.188 457.262 233.229 457.394 233.327C459.603 234.966 461.763 236.67 463.871 238.438C463.969 238.52 464.039 238.63 464.072 238.753C464.106 238.876 464.1 239.006 464.056 239.126C464.013 239.246 463.933 239.35 463.829 239.423C463.724 239.496 463.599 239.535 463.472 239.535ZM450.283 229.754C450.166 229.754 450.049 229.721 449.944 229.653C447.661 228.164 445.333 226.743 442.965 225.392C442.894 225.352 442.832 225.298 442.782 225.233C442.732 225.169 442.695 225.095 442.673 225.017C442.652 224.938 442.646 224.856 442.656 224.775C442.667 224.694 442.693 224.616 442.733 224.545C442.773 224.474 442.827 224.412 442.892 224.362C442.956 224.312 443.03 224.275 443.108 224.254C443.187 224.232 443.269 224.226 443.35 224.237C443.431 224.247 443.509 224.273 443.58 224.313C445.97 225.676 448.319 227.11 450.623 228.613C450.735 228.686 450.821 228.793 450.867 228.919C450.913 229.045 450.917 229.182 450.879 229.311C450.841 229.439 450.762 229.552 450.655 229.632C450.547 229.711 450.417 229.754 450.283 229.754ZM267.961 223.034C267.815 223.034 267.674 222.982 267.563 222.889C267.451 222.795 267.376 222.665 267.35 222.521C267.325 222.378 267.351 222.23 267.423 222.104C267.496 221.977 267.611 221.88 267.748 221.83C270.326 220.885 272.919 219.977 275.524 219.108C275.68 219.055 275.85 219.067 275.998 219.141C276.145 219.214 276.257 219.343 276.31 219.5C276.362 219.656 276.35 219.826 276.276 219.974C276.203 220.121 276.074 220.233 275.917 220.285C273.324 221.151 270.743 222.055 268.175 222.996C268.105 223.022 268.032 223.034 267.961 223.034ZM436.018 221.618C435.926 221.618 435.832 221.598 435.743 221.554C433.299 220.347 430.82 219.21 428.31 218.146C428.233 218.115 428.164 218.07 428.105 218.012C428.047 217.954 428 217.884 427.969 217.808C427.937 217.732 427.921 217.651 427.921 217.568C427.922 217.486 427.938 217.404 427.971 217.328C428.003 217.252 428.05 217.184 428.109 217.126C428.168 217.069 428.237 217.023 428.314 216.993C428.391 216.963 428.473 216.948 428.555 216.95C428.637 216.951 428.719 216.969 428.794 217.003C431.327 218.076 433.828 219.223 436.294 220.441C436.442 220.514 436.554 220.643 436.607 220.799C436.66 220.955 436.648 221.126 436.576 221.273C436.524 221.377 436.445 221.464 436.346 221.525C436.248 221.586 436.134 221.619 436.018 221.618ZM283.553 217.822C283.404 217.822 283.26 217.768 283.148 217.671C283.035 217.574 282.961 217.439 282.939 217.292C282.918 217.145 282.949 216.995 283.029 216.869C283.108 216.743 283.23 216.65 283.373 216.607C286 215.81 288.638 215.047 291.285 214.321C291.364 214.299 291.446 214.293 291.527 214.303C291.608 214.313 291.686 214.339 291.757 214.38C291.828 214.42 291.89 214.474 291.94 214.538C291.99 214.603 292.027 214.676 292.049 214.755C292.07 214.833 292.076 214.916 292.066 214.997C292.056 215.077 292.03 215.156 291.99 215.226C291.949 215.297 291.895 215.36 291.831 215.41C291.767 215.46 291.693 215.497 291.614 215.518C288.977 216.242 286.35 217.002 283.733 217.796C283.675 217.813 283.614 217.822 283.553 217.822ZM420.9 215.205C420.829 215.205 420.758 215.193 420.69 215.169C418.124 214.248 415.534 213.398 412.921 212.618C412.768 212.567 412.641 212.459 412.566 212.315C412.492 212.172 412.476 212.005 412.522 211.851C412.568 211.696 412.673 211.565 412.814 211.486C412.955 211.407 413.121 211.386 413.277 211.428C415.911 212.214 418.523 213.072 421.11 214C421.247 214.049 421.362 214.146 421.435 214.272C421.509 214.398 421.535 214.546 421.51 214.69C421.485 214.834 421.41 214.964 421.299 215.059C421.187 215.153 421.046 215.205 420.9 215.205ZM299.404 213.471C299.252 213.471 299.106 213.415 298.992 213.314C298.879 213.213 298.806 213.075 298.788 212.924C298.77 212.773 298.807 212.621 298.894 212.496C298.98 212.371 299.109 212.282 299.257 212.246C301.923 211.591 304.598 210.973 307.281 210.391C307.442 210.356 307.61 210.386 307.749 210.476C307.887 210.565 307.985 210.705 308.019 210.866C308.054 211.027 308.024 211.195 307.935 211.334C307.846 211.472 307.705 211.569 307.544 211.604C304.872 212.184 302.208 212.8 299.553 213.453C299.503 213.465 299.453 213.471 299.404 213.471ZM405.172 210.501C405.123 210.501 405.074 210.495 405.025 210.484C402.375 209.841 399.709 209.264 397.03 208.753C396.868 208.723 396.725 208.629 396.633 208.492C396.54 208.356 396.505 208.189 396.536 208.027C396.567 207.865 396.661 207.722 396.797 207.63C396.934 207.537 397.101 207.503 397.263 207.533C399.976 208.051 402.686 208.638 405.319 209.277C405.479 209.316 405.618 209.417 405.703 209.557C405.789 209.698 405.815 209.867 405.776 210.027C405.743 210.162 405.666 210.282 405.556 210.368C405.447 210.454 405.312 210.501 405.172 210.501ZM315.467 209.991C315.313 209.99 315.164 209.932 315.05 209.828C314.937 209.723 314.866 209.58 314.852 209.427C314.837 209.273 314.881 209.12 314.974 208.996C315.066 208.873 315.202 208.788 315.353 208.759C318.052 208.254 320.758 207.788 323.47 207.362C323.551 207.349 323.633 207.352 323.713 207.371C323.792 207.39 323.867 207.424 323.933 207.472C323.999 207.52 324.055 207.581 324.097 207.651C324.139 207.721 324.168 207.798 324.18 207.879C324.205 208.041 324.165 208.207 324.068 208.341C323.971 208.474 323.826 208.563 323.663 208.588C320.962 209.013 318.268 209.477 315.582 209.98C315.544 209.987 315.505 209.991 315.467 209.991ZM331.704 207.444C331.545 207.445 331.393 207.385 331.277 207.276C331.162 207.168 331.092 207.02 331.082 206.862C331.072 206.704 331.123 206.548 331.225 206.426C331.326 206.305 331.47 206.226 331.627 206.207C334.352 205.864 337.082 205.565 339.816 205.31C340.15 205.272 340.46 205.528 340.492 205.87C340.524 206.212 340.273 206.515 339.931 206.546C337.246 206.796 334.504 207.097 331.782 207.439C331.756 207.443 331.73 207.444 331.704 207.444ZM389.046 207.418C389.017 207.418 388.987 207.416 388.957 207.412C386.256 207.028 383.546 206.704 380.83 206.442C380.749 206.434 380.67 206.41 380.598 206.372C380.526 206.333 380.463 206.281 380.411 206.218C380.359 206.155 380.32 206.083 380.296 206.005C380.272 205.927 380.264 205.845 380.272 205.764C380.28 205.682 380.304 205.603 380.342 205.531C380.38 205.459 380.432 205.396 380.495 205.344C380.558 205.292 380.631 205.253 380.709 205.229C380.787 205.205 380.869 205.197 380.95 205.205C383.685 205.47 386.413 205.795 389.133 206.181C389.288 206.203 389.43 206.284 389.529 206.406C389.627 206.528 389.676 206.683 389.665 206.84C389.654 206.997 389.584 207.144 389.469 207.251C389.354 207.358 389.203 207.418 389.046 207.418ZM348.067 205.925C347.906 205.924 347.752 205.861 347.636 205.748C347.521 205.636 347.454 205.483 347.449 205.322C347.445 205.161 347.503 205.004 347.611 204.885C347.72 204.766 347.87 204.694 348.031 204.684C350.773 204.522 353.518 204.408 356.264 204.343C356.602 204.354 356.891 204.607 356.899 204.95C356.903 205.114 356.841 205.274 356.727 205.393C356.614 205.512 356.457 205.581 356.293 205.585C353.549 205.65 350.807 205.763 348.067 205.925ZM372.702 205.827L372.668 205.826C369.943 205.679 367.215 205.586 364.486 205.547C364.321 205.544 364.164 205.477 364.049 205.358C363.934 205.24 363.871 205.082 363.873 204.917C363.876 204.754 363.942 204.598 364.058 204.484C364.175 204.369 364.331 204.305 364.494 204.305H364.503C367.249 204.344 369.993 204.438 372.735 204.586C372.897 204.594 373.049 204.666 373.159 204.785C373.269 204.904 373.328 205.061 373.324 205.223C373.32 205.385 373.252 205.538 373.136 205.651C373.02 205.764 372.864 205.827 372.702 205.827ZM473.156 248.714L472.158 247.716C471.186 246.744 470.201 245.787 469.201 244.843C469.14 244.788 469.091 244.721 469.056 244.646C469.021 244.571 469.001 244.49 468.998 244.408C468.995 244.325 469.008 244.243 469.037 244.165C469.066 244.088 469.11 244.017 469.167 243.957C469.223 243.897 469.291 243.849 469.367 243.816C469.442 243.782 469.524 243.764 469.606 243.763C469.689 243.761 469.771 243.776 469.848 243.806C469.924 243.837 469.994 243.882 470.053 243.94C470.714 244.564 471.369 245.194 472.018 245.83C472.033 245.152 472.048 244.245 472.053 243.136C472.054 242.972 472.119 242.814 472.236 242.698C472.352 242.583 472.51 242.518 472.674 242.518H472.677C472.758 242.518 472.839 242.534 472.914 242.566C472.989 242.598 473.058 242.644 473.115 242.702C473.172 242.76 473.218 242.828 473.249 242.904C473.28 242.979 473.295 243.06 473.295 243.142C473.282 245.777 473.217 247.289 473.217 247.304L473.156 248.714ZM472.563 235.825C472.402 235.825 472.247 235.762 472.131 235.65C472.015 235.537 471.948 235.385 471.943 235.223C471.86 232.58 471.736 229.937 471.57 227.297C471.56 227.133 471.615 226.971 471.724 226.848C471.833 226.724 471.987 226.649 472.151 226.639C472.232 226.633 472.314 226.644 472.392 226.67C472.469 226.696 472.54 226.738 472.602 226.792C472.663 226.846 472.713 226.911 472.748 226.985C472.784 227.058 472.805 227.138 472.81 227.22C472.977 229.882 473.102 232.561 473.184 235.184C473.187 235.266 473.173 235.347 473.144 235.423C473.115 235.499 473.072 235.569 473.016 235.629C472.96 235.688 472.893 235.736 472.819 235.77C472.745 235.803 472.664 235.822 472.583 235.824C472.577 235.825 472.57 235.825 472.563 235.825ZM471.571 219.952C471.416 219.952 471.267 219.894 471.153 219.79C471.039 219.686 470.968 219.543 470.953 219.389C470.707 216.757 470.419 214.129 470.09 211.506C470.07 211.342 470.115 211.177 470.216 211.047C470.317 210.917 470.465 210.832 470.629 210.812C470.792 210.791 470.957 210.836 471.087 210.937C471.217 211.038 471.302 211.187 471.323 211.35C471.654 213.987 471.943 216.628 472.19 219.274C472.198 219.36 472.188 219.447 472.16 219.529C472.133 219.611 472.089 219.686 472.03 219.75C471.972 219.814 471.901 219.865 471.822 219.9C471.743 219.934 471.657 219.952 471.571 219.952ZM469.583 204.178C469.435 204.178 469.292 204.125 469.18 204.03C469.068 203.934 468.994 203.801 468.97 203.655C468.553 201.046 468.089 198.445 467.578 195.852C467.562 195.772 467.562 195.69 467.578 195.61C467.594 195.53 467.626 195.454 467.671 195.386C467.717 195.318 467.775 195.26 467.843 195.215C467.911 195.17 467.987 195.139 468.067 195.123C468.147 195.107 468.229 195.107 468.309 195.123C468.389 195.139 468.465 195.171 468.533 195.216C468.601 195.262 468.659 195.32 468.704 195.388C468.75 195.456 468.781 195.532 468.797 195.612C469.31 198.219 469.777 200.835 470.197 203.459C470.212 203.548 470.206 203.639 470.182 203.726C470.158 203.812 470.115 203.892 470.056 203.961C469.998 204.029 469.925 204.084 469.843 204.122C469.762 204.159 469.673 204.179 469.583 204.178ZM466.494 188.588C466.354 188.588 466.219 188.541 466.109 188.455C466 188.368 465.923 188.248 465.89 188.112C465.277 185.544 464.607 182.99 463.881 180.452C463.837 180.294 463.857 180.125 463.937 179.982C464.017 179.838 464.15 179.732 464.308 179.687C464.466 179.642 464.635 179.661 464.779 179.74C464.922 179.82 465.029 179.953 465.075 180.11C465.805 182.666 466.48 185.237 467.098 187.823C467.12 187.914 467.12 188.009 467.1 188.101C467.08 188.192 467.039 188.278 466.981 188.352C466.923 188.426 466.849 188.485 466.765 188.526C466.68 188.567 466.588 188.588 466.494 188.588ZM462.107 173.319C461.977 173.319 461.851 173.278 461.746 173.203C461.64 173.127 461.561 173.021 461.519 172.898C460.67 170.403 459.752 167.931 458.766 165.487C458.708 165.335 458.711 165.166 458.776 165.016C458.841 164.867 458.962 164.749 459.113 164.688C459.264 164.627 459.433 164.628 459.583 164.69C459.734 164.753 459.854 164.872 459.917 165.021C460.912 167.487 461.838 169.98 462.695 172.497C462.727 172.591 462.736 172.691 462.722 172.788C462.707 172.886 462.67 172.979 462.612 173.06C462.555 173.14 462.479 173.205 462.391 173.251C462.303 173.296 462.206 173.319 462.107 173.319ZM456.136 158.606C456.019 158.607 455.904 158.574 455.805 158.511C455.706 158.449 455.626 158.36 455.576 158.254C454.436 155.879 453.211 153.546 451.903 151.26C451.863 151.189 451.836 151.111 451.826 151.03C451.816 150.949 451.821 150.867 451.843 150.788C451.864 150.709 451.901 150.636 451.951 150.571C452 150.506 452.062 150.452 452.133 150.412C452.204 150.371 452.282 150.345 452.363 150.335C452.444 150.324 452.526 150.33 452.605 150.351C452.684 150.373 452.757 150.409 452.822 150.459C452.886 150.509 452.941 150.571 452.981 150.642C454.304 152.955 455.543 155.314 456.695 157.716C456.741 157.811 456.762 157.916 456.756 158.021C456.75 158.126 456.718 158.227 456.662 158.316C456.606 158.405 456.528 158.479 456.436 158.529C456.344 158.58 456.241 158.607 456.136 158.606ZM448.212 144.848C448.015 144.848 447.821 144.755 447.701 144.58C446.21 142.417 444.617 140.325 442.928 138.313C442.824 138.186 442.773 138.024 442.787 137.861C442.802 137.697 442.881 137.546 443.006 137.441C443.132 137.335 443.294 137.283 443.457 137.297C443.621 137.31 443.772 137.388 443.879 137.513C445.593 139.556 447.209 141.679 448.723 143.874C448.788 143.967 448.826 144.077 448.833 144.19C448.84 144.303 448.815 144.416 448.763 144.516C448.71 144.616 448.631 144.701 448.534 144.759C448.437 144.818 448.326 144.849 448.212 144.848ZM437.989 132.745C437.834 132.745 437.679 132.687 437.559 132.572C435.672 130.761 433.68 129.061 431.595 127.483C431.53 127.434 431.475 127.372 431.434 127.302C431.392 127.231 431.365 127.154 431.354 127.073C431.343 126.992 431.348 126.91 431.368 126.831C431.389 126.752 431.424 126.678 431.474 126.613C431.523 126.548 431.584 126.493 431.655 126.452C431.725 126.41 431.803 126.383 431.884 126.372C431.964 126.361 432.047 126.366 432.126 126.386C432.204 126.407 432.279 126.442 432.344 126.492C434.468 128.1 436.497 129.83 438.419 131.675C438.508 131.761 438.57 131.872 438.596 131.993C438.622 132.114 438.611 132.24 438.565 132.355C438.519 132.471 438.439 132.569 438.336 132.638C438.234 132.708 438.113 132.745 437.989 132.745ZM425.369 123.238C425.263 123.238 425.157 123.211 425.059 123.155C422.793 121.852 420.447 120.694 418.034 119.689C417.958 119.658 417.889 119.613 417.831 119.555C417.772 119.497 417.726 119.429 417.694 119.353C417.663 119.277 417.646 119.196 417.646 119.114C417.646 119.032 417.662 118.951 417.694 118.875C417.726 118.799 417.772 118.73 417.83 118.672C417.888 118.615 417.958 118.569 418.034 118.538C418.11 118.507 418.191 118.492 418.273 118.493C418.355 118.493 418.436 118.511 418.512 118.543C420.973 119.569 423.367 120.75 425.679 122.078C425.797 122.147 425.89 122.252 425.942 122.379C425.995 122.505 426.004 122.645 425.969 122.777C425.933 122.909 425.855 123.026 425.747 123.109C425.638 123.193 425.505 123.238 425.369 123.238ZM410.797 117.158C410.74 117.158 410.684 117.15 410.63 117.135C408.11 116.438 405.551 115.888 402.967 115.486C402.807 115.457 402.666 115.367 402.572 115.235C402.479 115.103 402.44 114.94 402.465 114.78C402.49 114.62 402.577 114.476 402.706 114.379C402.836 114.282 402.998 114.239 403.158 114.26C405.79 114.668 408.396 115.229 410.963 115.938C411.108 115.978 411.234 116.069 411.317 116.195C411.4 116.32 411.434 116.472 411.414 116.621C411.394 116.77 411.32 116.907 411.206 117.005C411.093 117.104 410.947 117.158 410.797 117.158ZM395.179 114.692C395.169 114.692 395.158 114.692 395.147 114.691C393.779 114.623 392.409 114.589 391.039 114.59H390.216L390.442 113.798C390.447 113.783 390.871 112.293 391.374 109.816C391.39 109.736 391.422 109.66 391.467 109.592C391.513 109.525 391.571 109.467 391.639 109.422C391.707 109.377 391.784 109.345 391.864 109.33C391.944 109.314 392.026 109.315 392.106 109.331C392.186 109.347 392.262 109.379 392.329 109.424C392.397 109.47 392.455 109.528 392.5 109.596C392.545 109.664 392.576 109.741 392.592 109.821C392.608 109.901 392.607 109.983 392.591 110.063C392.369 111.165 392.121 112.261 391.846 113.351C392.977 113.362 394.105 113.395 395.21 113.45C395.374 113.455 395.529 113.525 395.642 113.644C395.754 113.764 395.815 113.923 395.811 114.086C395.807 114.25 395.738 114.406 395.62 114.52C395.501 114.633 395.343 114.695 395.179 114.692ZM393.225 102.556C393.138 102.556 393.052 102.538 392.972 102.502C392.892 102.467 392.821 102.415 392.762 102.35C392.704 102.285 392.66 102.208 392.633 102.125C392.607 102.042 392.598 101.954 392.607 101.867C392.901 99.202 393.065 96.524 393.1 93.8428C393.102 93.6794 393.168 93.5234 393.284 93.4085C393.4 93.2936 393.557 93.2293 393.721 93.2293H393.728C393.81 93.2302 393.89 93.2473 393.965 93.2794C394.04 93.3115 394.108 93.358 394.165 93.4164C394.222 93.4748 394.267 93.5438 394.297 93.6195C394.328 93.6952 394.343 93.7762 394.342 93.8577C394.307 96.5791 394.14 99.2971 393.842 102.002C393.825 102.154 393.753 102.295 393.639 102.397C393.525 102.499 393.378 102.556 393.225 102.556ZM393.357 86.3751C393.204 86.3749 393.056 86.3181 392.942 86.2155C392.828 86.1129 392.756 85.9719 392.74 85.8195C392.449 83.0618 391.977 80.4098 391.338 77.9365C391.316 77.8569 391.309 77.7736 391.32 77.6916C391.33 77.6095 391.356 77.5303 391.398 77.4587C391.439 77.387 391.494 77.3242 391.56 77.2741C391.625 77.224 391.701 77.1876 391.781 77.1669C391.861 77.1462 391.944 77.1417 392.026 77.1537C392.108 77.1657 392.186 77.1939 392.257 77.2366C392.328 77.2794 392.389 77.3359 392.438 77.4028C392.487 77.4696 392.522 77.5455 392.54 77.626C393.195 80.158 393.677 82.8706 393.975 85.6891C393.984 85.7757 393.975 85.8633 393.948 85.9461C393.921 86.029 393.877 86.1052 393.819 86.1699C393.761 86.2346 393.689 86.2863 393.61 86.3217C393.53 86.357 393.444 86.3752 393.357 86.3751ZM389.218 70.7822C389.1 70.7823 388.985 70.7489 388.885 70.6857C388.786 70.6226 388.706 70.5324 388.656 70.4257C387.497 67.9674 386.098 65.6917 384.496 63.6626C384.397 63.5331 384.353 63.3697 384.373 63.2078C384.393 63.0459 384.477 62.8985 384.605 62.7974C384.733 62.6963 384.896 62.6497 385.058 62.6677C385.22 62.6857 385.369 62.7668 385.471 62.8934C387.131 64.9965 388.581 67.3526 389.779 69.8966C389.824 69.9912 389.844 70.0955 389.837 70.1998C389.831 70.3042 389.798 70.4052 389.742 70.4935C389.686 70.5818 389.609 70.6546 389.517 70.705C389.425 70.7555 389.323 70.782 389.218 70.7822ZM379.246 58.2198C379.113 58.2198 378.979 58.1775 378.866 58.0902C376.825 56.5128 374.538 55.1363 372.069 53.9986C371.922 53.928 371.809 53.8025 371.754 53.6492C371.699 53.4958 371.706 53.3269 371.774 53.1789C371.843 53.0309 371.966 52.9156 372.119 52.858C372.271 52.8004 372.44 52.805 372.589 52.8709C375.143 54.0479 377.511 55.4733 379.626 57.1073C379.728 57.1866 379.803 57.2959 379.841 57.4201C379.878 57.5442 379.876 57.6769 379.834 57.7995C379.792 57.9222 379.713 58.0286 379.607 58.104C379.502 58.1794 379.375 58.2198 379.246 58.2198ZM364.701 51.3913C364.651 51.3913 364.6 51.385 364.548 51.3722C362.089 50.7504 359.437 50.2854 356.669 49.9907C356.329 49.9543 356.082 49.6483 356.118 49.3076C356.154 48.9669 356.452 48.7201 356.801 48.7557C359.627 49.0567 362.336 49.532 364.853 50.1687C364.999 50.2062 365.127 50.2958 365.212 50.4206C365.297 50.5454 365.334 50.697 365.315 50.8469C365.296 50.9967 365.224 51.1347 365.111 51.2349C364.998 51.3351 364.852 51.3907 364.701 51.3913ZM348.686 49.4869C348.546 49.4869 348.404 49.4393 348.288 49.342C347.698 48.8485 345.495 47.0306 341.903 44.3533C341.837 44.3049 341.781 44.2439 341.738 44.1737C341.695 44.1035 341.667 44.0255 341.655 43.9443C341.643 43.8631 341.647 43.7802 341.666 43.7006C341.686 43.6209 341.722 43.5459 341.771 43.4801C341.82 43.4142 341.882 43.3588 341.952 43.3169C342.023 43.2751 342.101 43.2477 342.183 43.2363C342.264 43.2249 342.347 43.2297 342.426 43.2505C342.506 43.2714 342.58 43.3078 342.646 43.3576C346.263 46.054 348.489 47.8909 349.085 48.3893C349.183 48.4713 349.253 48.5813 349.286 48.7045C349.319 48.8276 349.314 48.958 349.27 49.0778C349.226 49.1976 349.147 49.3012 349.043 49.3744C348.938 49.4475 348.814 49.4868 348.686 49.4869ZM335.678 39.7417C335.556 39.7417 335.433 39.7061 335.325 39.6312C333.106 38.0952 330.863 36.5945 328.596 35.1297C328.458 35.0403 328.361 34.8996 328.326 34.7385C328.292 34.5775 328.323 34.4093 328.412 34.2709C328.501 34.1326 328.642 34.0354 328.803 34.0008C328.964 33.9662 329.133 33.997 329.271 34.0865C331.548 35.5582 333.802 37.0661 336.032 38.6094C336.314 38.8048 336.385 39.1915 336.189 39.4734C336.132 39.5563 336.056 39.6241 335.967 39.6709C335.878 39.7176 335.779 39.7419 335.678 39.7417ZM322.05 30.9334C321.941 30.9334 321.831 30.9049 321.73 30.8444C319.419 29.4523 317.087 28.0965 314.733 26.7777C314.662 26.7379 314.6 26.6844 314.549 26.6204C314.498 26.5564 314.461 26.483 314.439 26.4046C314.417 26.3261 314.41 26.244 314.42 26.163C314.429 26.082 314.455 26.0037 314.495 25.9325C314.534 25.8614 314.588 25.7987 314.652 25.7482C314.716 25.6977 314.789 25.6603 314.868 25.6382C314.946 25.616 315.028 25.6095 315.109 25.6191C315.19 25.6286 315.269 25.654 315.34 25.6939C317.705 27.0188 320.049 28.3812 322.372 29.7805C322.488 29.8505 322.578 29.9568 322.628 30.083C322.678 30.2091 322.686 30.3483 322.649 30.4791C322.613 30.61 322.535 30.7252 322.426 30.8073C322.318 30.8893 322.186 30.9336 322.05 30.9334ZM163.255 26.48C163.127 26.4803 163.002 26.441 162.897 26.3675C162.793 26.2939 162.713 26.1898 162.67 26.0694C162.627 25.9489 162.622 25.818 162.656 25.6946C162.69 25.5712 162.761 25.4613 162.86 25.38C164.955 23.6534 167.11 22 169.321 20.4228C169.455 20.3289 169.621 20.2918 169.782 20.3196C169.944 20.3474 170.087 20.4379 170.182 20.5712C170.278 20.7046 170.316 20.8701 170.29 21.0317C170.263 21.1934 170.174 21.338 170.042 21.4342C167.855 22.9944 165.723 24.6301 163.649 26.3385C163.534 26.4337 163.394 26.48 163.255 26.48ZM307.894 23.0103C307.798 23.0103 307.7 22.988 307.609 22.9408C305.213 21.7018 302.797 20.504 300.36 19.3481C300.287 19.3131 300.221 19.264 300.166 19.2036C300.111 19.1431 300.069 19.0724 300.042 18.9956C300.014 18.9188 300.002 18.8373 300.006 18.7559C300.01 18.6744 300.03 18.5946 300.065 18.5209C300.1 18.4472 300.149 18.3811 300.21 18.3264C300.27 18.2717 300.341 18.2294 300.418 18.202C300.495 18.1746 300.576 18.1626 300.657 18.1666C300.739 18.1707 300.819 18.1908 300.892 18.2257C303.342 19.3878 305.771 20.5919 308.18 21.8374C308.303 21.9016 308.401 22.0053 308.459 22.132C308.517 22.2587 308.53 22.401 308.497 22.5361C308.464 22.6713 308.387 22.7915 308.277 22.8775C308.168 22.9634 308.033 23.0102 307.894 23.0103ZM176.446 17.0926C176.31 17.0929 176.178 17.0487 176.07 16.9668C175.962 16.8849 175.883 16.7699 175.847 16.6392C175.81 16.5085 175.817 16.3695 175.867 16.2433C175.917 16.1171 176.007 16.0107 176.123 15.9404C178.445 14.5309 180.821 13.2108 183.245 11.983C183.392 11.9086 183.562 11.8957 183.719 11.947C183.875 11.9983 184.005 12.1097 184.079 12.2567C184.154 12.4036 184.167 12.5741 184.115 12.7307C184.064 12.8872 183.953 13.0169 183.806 13.0913C181.411 14.3046 179.063 15.6093 176.767 17.0024C176.67 17.0614 176.559 17.0926 176.446 17.0926ZM293.235 16.0675C293.153 16.0675 293.07 16.051 292.99 16.0166C290.514 14.952 288.017 13.9361 285.501 12.9692C285.347 12.9101 285.223 12.7923 285.156 12.6418C285.089 12.4913 285.085 12.3204 285.144 12.1666C285.203 12.0128 285.32 11.8888 285.471 11.8219C285.622 11.7549 285.792 11.7505 285.946 11.8095C288.477 12.7825 290.989 13.8047 293.48 14.8756C293.612 14.932 293.72 15.032 293.786 15.1589C293.852 15.2857 293.873 15.4316 293.844 15.5718C293.815 15.712 293.739 15.8379 293.628 15.9283C293.517 16.0186 293.378 16.0678 293.235 16.0675ZM278.096 10.2616C278.03 10.2616 277.963 10.2512 277.897 10.2289C275.345 9.36933 272.773 8.56775 270.184 7.82479C270.105 7.80269 270.032 7.76523 269.967 7.71457C269.903 7.66391 269.849 7.60103 269.81 7.52958C269.77 7.45813 269.744 7.37949 269.735 7.2982C269.725 7.2169 269.732 7.13457 269.755 7.0559C269.777 6.97722 269.815 6.90377 269.866 6.83977C269.917 6.77578 269.98 6.72251 270.052 6.68301C270.124 6.64351 270.202 6.61856 270.284 6.6096C270.365 6.60065 270.447 6.60787 270.526 6.63083C273.133 7.37912 275.723 8.1862 278.293 9.05148C278.433 9.09816 278.552 9.19316 278.629 9.31948C278.705 9.4458 278.734 9.59518 278.71 9.74083C278.686 9.88648 278.611 10.0189 278.499 10.1143C278.386 10.2097 278.243 10.2619 278.096 10.2616ZM190.891 9.78882C190.747 9.78894 190.608 9.73905 190.496 9.64772C190.385 9.55638 190.309 9.42927 190.281 9.28807C190.253 9.14687 190.275 9.00036 190.344 8.87361C190.412 8.74687 190.522 8.64775 190.655 8.59318C193.169 7.56184 195.724 6.63099 198.312 5.80283C198.467 5.75836 198.634 5.7761 198.776 5.85228C198.919 5.92846 199.026 6.0571 199.075 6.21094C199.124 6.36478 199.111 6.53173 199.04 6.67641C198.968 6.8211 198.843 6.93214 198.69 6.98603C196.133 7.80436 193.61 8.72389 191.126 9.74245C191.052 9.7731 190.972 9.78885 190.891 9.78882ZM262.511 5.80447C262.464 5.80447 262.416 5.7991 262.369 5.78792C259.749 5.17341 257.113 4.62812 254.464 4.15261C254.301 4.12357 254.158 4.03131 254.063 3.89614C253.969 3.76097 253.933 3.59395 253.962 3.43183C253.991 3.26971 254.083 3.12578 254.218 3.03168C254.353 2.93758 254.52 2.90103 254.683 2.93007C257.353 3.40935 260.01 3.95906 262.652 4.57862C262.801 4.61238 262.932 4.70008 263.021 4.82486C263.109 4.94964 263.149 5.10272 263.131 5.2547C263.114 5.40669 263.041 5.54687 262.926 5.64834C262.812 5.74981 262.664 5.8054 262.511 5.80447ZM206.308 4.85599C206.155 4.85611 206.008 4.80014 205.894 4.69872C205.781 4.5973 205.708 4.45753 205.691 4.30605C205.673 4.15457 205.712 4.00196 205.8 3.87731C205.888 3.75267 206.018 3.66468 206.167 3.63014C208.811 3.01096 211.478 2.49392 214.162 2.08014C214.243 2.06772 214.325 2.07128 214.404 2.09065C214.484 2.11002 214.558 2.1448 214.624 2.19301C214.69 2.24122 214.745 2.3019 214.788 2.37161C214.83 2.44132 214.858 2.51868 214.871 2.59928C214.883 2.67988 214.88 2.76214 214.86 2.84135C214.841 2.92057 214.806 2.99521 214.758 3.06099C214.71 3.12676 214.649 3.18241 214.579 3.22473C214.51 3.26705 214.432 3.29521 214.352 3.30763C211.699 3.71662 209.063 4.22761 206.45 4.83944C206.403 4.85062 206.355 4.85599 206.308 4.85599ZM246.561 2.9607C246.536 2.9607 246.511 2.95946 246.486 2.95615C243.817 2.6339 241.138 2.39395 238.455 2.23663C238.29 2.22702 238.136 2.15256 238.027 2.0296C237.917 1.90664 237.861 1.74525 237.87 1.58086C237.89 1.23848 238.19 0.98138 238.526 0.996698C241.19 1.15153 243.918 1.39578 246.634 1.72284C246.792 1.74112 246.936 1.81902 247.038 1.94055C247.14 2.06209 247.192 2.21805 247.182 2.37641C247.173 2.53478 247.103 2.68355 246.988 2.79221C246.872 2.90086 246.719 2.96113 246.561 2.9607ZM222.3 2.38152C222.14 2.38095 221.986 2.31856 221.871 2.20737C221.756 2.09617 221.688 1.94478 221.682 1.78477C221.676 1.62477 221.732 1.46854 221.838 1.34869C221.944 1.22884 222.092 1.15464 222.252 1.14159C224.959 0.929673 227.672 0.812593 230.387 0.790532H230.392C230.557 0.789874 230.715 0.854652 230.832 0.970647C230.949 1.08664 231.015 1.24433 231.016 1.40903C231.017 1.57373 230.952 1.73195 230.836 1.84888C230.72 1.96581 230.562 2.03187 230.397 2.03253C227.696 2.05447 224.989 2.1712 222.349 2.37944C222.333 2.38076 222.317 2.38146 222.3 2.38152ZM154.35 34.8267L153.946 34.6189C153.933 34.6123 152.604 33.9291 150.229 32.8979C150.154 32.8659 150.085 32.8194 150.028 32.7608C149.97 32.7022 149.925 32.6328 149.894 32.5567C149.864 32.4805 149.849 32.399 149.85 32.317C149.851 32.2349 149.868 32.1539 149.901 32.0786C149.934 32.0034 149.981 31.9353 150.04 31.8784C150.099 31.8215 150.169 31.7769 150.245 31.7471C150.322 31.7173 150.404 31.703 150.486 31.705C150.568 31.7069 150.648 31.7251 150.723 31.7585C152.396 32.4847 153.543 33.0333 154.109 33.3115C154.987 32.4396 155.877 31.5799 156.779 30.7327C156.9 30.6231 157.058 30.5653 157.221 30.5717C157.384 30.5781 157.538 30.6483 157.649 30.767C157.761 30.8857 157.821 31.0435 157.818 31.2064C157.814 31.3693 157.746 31.5241 157.629 31.6377C156.628 32.5783 155.642 33.5344 154.671 34.5054L154.35 34.8267ZM6.96981 81.2862C6.86273 81.2861 6.75748 81.2583 6.66429 81.2056C6.5711 81.1528 6.49315 81.0769 6.43798 80.9851C6.38282 80.8933 6.35234 80.7888 6.34948 80.6818C6.34662 80.5747 6.37149 80.4687 6.42167 80.3741C7.74369 77.8803 9.13248 75.4225 10.5865 73.0033C10.6715 72.8621 10.809 72.7605 10.9688 72.7208C11.1287 72.681 11.2978 72.7064 11.4389 72.7913C11.5801 72.8763 11.6817 73.0138 11.7215 73.1736C11.7612 73.3335 11.7358 73.5026 11.6509 73.6438C10.2083 76.0438 8.83067 78.4823 7.51961 80.9567C7.46642 81.0562 7.38718 81.1395 7.29034 81.1975C7.19351 81.2556 7.08271 81.2862 6.96981 81.2862ZM15.6758 66.85C15.5628 66.8498 15.452 66.8188 15.3553 66.7604C15.2587 66.7019 15.1798 66.6181 15.1272 66.5181C15.0746 66.4181 15.0502 66.3056 15.0568 66.1928C15.0634 66.08 15.1006 65.9711 15.1645 65.8779C16.762 63.5479 18.4353 61.2708 20.1818 59.0503C20.2851 58.9251 20.4332 58.8452 20.5946 58.8279C20.756 58.8106 20.9177 58.8572 21.0452 58.9576C21.1726 59.058 21.2557 59.2043 21.2767 59.3653C21.2976 59.5262 21.2547 59.6889 21.1572 59.8186C19.4276 62.0178 17.7705 64.273 16.1883 66.5805C16.0679 66.756 15.8737 66.85 15.6758 66.85ZM26.1177 53.6206C25.9973 53.6206 25.8795 53.5856 25.7787 53.5199C25.6778 53.4541 25.5982 53.3605 25.5496 53.2504C25.501 53.1402 25.4855 53.0183 25.5049 52.8995C25.5243 52.7806 25.5779 52.67 25.659 52.5811C27.5637 50.4907 29.5489 48.4752 31.6103 46.5392C31.7309 46.4294 31.8899 46.3714 32.0528 46.3778C32.2158 46.3843 32.3697 46.4546 32.4813 46.5735C32.5929 46.6925 32.6532 46.8506 32.6492 47.0137C32.6451 47.1768 32.5771 47.3317 32.4598 47.445C30.4222 49.3588 28.4599 51.3513 26.5773 53.4178C26.4543 53.5523 26.2866 53.6206 26.1177 53.6206ZM38.4197 42.1061C38.2908 42.106 38.1651 42.0659 38.06 41.9912C37.9549 41.9165 37.8756 41.8109 37.8333 41.6891C37.7909 41.5673 37.7875 41.4354 37.8235 41.3116C37.8596 41.1878 37.9332 41.0783 38.0343 40.9982C40.2535 39.2416 42.5492 37.5839 44.9146 36.0298C44.9827 35.9842 45.0593 35.9526 45.1397 35.9368C45.2201 35.921 45.3029 35.9212 45.3833 35.9375C45.4636 35.9539 45.5399 35.9859 45.6078 36.0319C45.6757 36.0779 45.7338 36.1368 45.7788 36.2054C45.8238 36.2739 45.8547 36.3507 45.8699 36.4313C45.8851 36.5118 45.8841 36.5946 45.8671 36.6748C45.8501 36.755 45.8174 36.8311 45.7709 36.8986C45.7244 36.9661 45.6649 37.0237 45.596 37.0681C43.2613 38.6022 40.9953 40.2386 38.8048 41.9723C38.6951 42.059 38.5595 42.1061 38.4197 42.1061ZM52.5082 32.8697C52.3695 32.87 52.2346 32.8238 52.1252 32.7386C52.0158 32.6533 51.9381 32.5339 51.9045 32.3993C51.8709 32.2647 51.8833 32.1228 51.9397 31.9961C51.9961 31.8694 52.0934 31.7652 52.2159 31.7002C54.7157 30.3703 57.2757 29.1568 59.8877 28.0636C60.0385 28.0061 60.2057 28.0095 60.354 28.0731C60.5023 28.1367 60.6201 28.2555 60.6824 28.4044C60.7446 28.5533 60.7465 28.7205 60.6877 28.8708C60.6289 29.0211 60.5139 29.1425 60.3671 29.2095C57.7905 30.288 55.2652 31.4851 52.7992 32.7969C52.7096 32.8447 52.6097 32.8697 52.5082 32.8697ZM142.625 29.8645C142.554 29.8645 142.484 29.8523 142.417 29.8285C139.778 28.8894 137.111 28.0286 134.421 27.2472C134.263 27.2012 134.129 27.0943 134.05 26.95C133.971 26.8057 133.952 26.6357 133.998 26.4776C134.044 26.3194 134.151 26.186 134.295 26.1066C134.439 26.0273 134.609 26.0085 134.767 26.0545C137.481 26.8427 140.171 27.711 142.834 28.6585C142.972 28.7076 143.088 28.8039 143.162 28.9303C143.236 29.0567 143.262 29.2051 143.237 29.3494C143.212 29.4936 143.137 29.6244 143.025 29.7187C142.913 29.8129 142.772 29.8646 142.625 29.8645ZM68.0493 26.3662C67.9006 26.3668 67.7566 26.3139 67.6436 26.2173C67.5305 26.1206 67.456 25.9866 67.4334 25.8396C67.4109 25.6926 67.4419 25.5424 67.5209 25.4163C67.5998 25.2902 67.7214 25.1967 67.8634 25.1528C70.5653 24.3062 73.3036 23.5806 76.0702 22.978C76.2284 22.9497 76.3914 22.9839 76.525 23.0733C76.6586 23.1627 76.7523 23.3003 76.7866 23.4574C76.8208 23.6144 76.7929 23.7786 76.7086 23.9155C76.6244 24.0524 76.4903 24.1513 76.3347 24.1915C73.6045 24.7864 70.9021 25.5026 68.2356 26.3381C68.1752 26.3565 68.1124 26.366 68.0493 26.3662ZM126.425 25.1577C126.379 25.1577 126.333 25.1528 126.287 25.142C123.556 24.521 120.807 23.9839 118.043 23.5315C117.962 23.5184 117.885 23.4896 117.816 23.4466C117.746 23.4037 117.686 23.3475 117.639 23.2813C117.591 23.2151 117.557 23.1402 117.538 23.0608C117.519 22.9814 117.517 22.8991 117.53 22.8186C117.543 22.7381 117.572 22.661 117.615 22.5917C117.658 22.5223 117.714 22.4621 117.78 22.4145C117.846 22.3669 117.921 22.3328 118 22.3141C118.08 22.2954 118.162 22.2926 118.243 22.3057C121.032 22.7622 123.806 23.3041 126.562 23.9306C126.711 23.964 126.843 24.0513 126.932 24.1759C127.021 24.3005 127.061 24.4535 127.044 24.6057C127.027 24.7578 126.954 24.8983 126.84 25.0002C126.726 25.1021 126.578 25.1582 126.425 25.1577ZM84.5129 22.7652C84.3549 22.7654 84.2028 22.7054 84.0875 22.5974C83.9723 22.4894 83.9025 22.3415 83.8924 22.1838C83.8824 22.0262 83.9327 21.8707 84.0333 21.7489C84.1339 21.627 84.2771 21.5481 84.4338 21.5282C87.2403 21.1651 90.0602 20.9147 92.8868 20.7776C93.2255 20.7544 93.5207 21.0248 93.5372 21.3675C93.5538 21.7103 93.2896 22.0014 92.9473 22.018C90.1358 22.1554 87.3255 22.405 84.5936 22.7598C84.5668 22.7635 84.5399 22.7653 84.5129 22.7652ZM109.776 22.4498C109.756 22.4498 109.736 22.4489 109.716 22.4469C106.93 22.1765 104.136 22.0035 101.338 21.9281C100.995 21.919 100.724 21.6338 100.733 21.291C100.742 20.9482 101.034 20.6799 101.371 20.6865C104.151 20.7598 106.999 20.9362 109.835 21.2107C109.994 21.226 110.141 21.3019 110.245 21.4225C110.349 21.543 110.403 21.6991 110.396 21.8584C110.388 22.0177 110.319 22.1679 110.204 22.278C110.089 22.3881 109.935 22.4496 109.776 22.4498Z" fill="#FFBE55"/>
</svg>
