<svg width="650" height="410" viewBox="0 0 650 410" fill="none" xmlns="http://www.w3.org/2000/svg">
<path opacity="0.36" d="M102.756 284.548C102.779 279.425 102.552 250.189 84.9539 222.448C63.3729 188.429 38.282 192.303 19.1279 167.386C-10.8242 128.422 -2.8849 49.4643 35.6879 20.83C66.9991 -2.41403 93.248 26.2455 185.142 21.658C267.778 17.5329 270.492 -6.83803 323.004 3.028C376.481 13.0754 392.259 41.843 448.446 44.428C484.386 46.0815 490.996 27.4246 523.38 31.594C558.686 36.1397 601.2 60.5417 604.938 91.21C609.273 126.777 557.693 139.899 559.398 176.08C561.528 221.292 643.389 228.751 648.822 275.026C653.279 312.99 604.654 363.073 554.844 369.004C493.983 376.251 474.987 312.386 413.67 320.152C361.655 326.74 352.821 375.547 293.61 376.042C264.982 376.281 253.891 364.982 224.058 370.246C189.263 376.386 187.395 401.873 156.576 407.92C126.745 413.773 87.0843 400.624 77.9159 376.87C67.9389 351.021 102.524 334.514 102.756 284.548Z" fill="#CCE9FF"/>
</svg>
