<svg width="252" height="175" viewBox="0 0 252 175" fill="none" xmlns="http://www.w3.org/2000/svg">
<path d="M0.7557 174.74C0.655838 174.74 0.557443 174.716 0.468877 174.67C0.38031 174.624 0.304163 174.557 0.246918 174.475C0.189672 174.393 0.153012 174.299 0.140032 174.2C0.127051 174.101 0.138156 174 0.172375 173.906C0.193489 173.848 0.705595 172.451 1.80518 170.05C1.87488 169.902 2.00017 169.788 2.15381 169.732C2.30745 169.675 2.47705 169.682 2.62575 169.75C2.77445 169.818 2.89025 169.943 2.948 170.096C3.00575 170.249 3.00077 170.418 2.93415 170.568C1.85775 172.918 1.34399 174.318 1.33902 174.332C1.29532 174.452 1.2159 174.555 1.11156 174.628C1.00722 174.701 0.883006 174.74 0.7557 174.74ZM5.8835 163.986C5.77554 163.986 5.66945 163.958 5.57573 163.904C5.482 163.851 5.40388 163.774 5.34904 163.681C5.29421 163.588 5.26456 163.482 5.26303 163.374C5.2615 163.266 5.28814 163.16 5.34033 163.065C6.60313 160.779 7.93995 158.535 9.34868 156.337C9.39215 156.267 9.44905 156.206 9.51606 156.159C9.58307 156.111 9.65884 156.077 9.73903 156.059C9.81921 156.041 9.90221 156.039 9.98317 156.053C10.0641 156.067 10.1415 156.098 10.2107 156.142C10.2799 156.186 10.3396 156.244 10.3864 156.312C10.4332 156.379 10.4661 156.455 10.4832 156.536C10.5003 156.616 10.5012 156.699 10.486 156.78C10.4708 156.861 10.4396 156.938 10.3944 157.006C9.00034 159.182 7.67731 161.403 6.42748 163.665C6.37398 163.763 6.29525 163.844 6.19953 163.9C6.10382 163.957 5.99466 163.987 5.8835 163.986ZM14.2802 150.87C14.1655 150.87 14.0531 150.838 13.9555 150.778C13.8578 150.718 13.7787 150.632 13.7269 150.53C13.6752 150.427 13.6527 150.312 13.6621 150.198C13.6715 150.084 13.7123 149.974 13.7801 149.882C15.3256 147.779 16.9387 145.726 18.6169 143.727C18.6688 143.663 18.733 143.61 18.8056 143.571C18.8783 143.532 18.958 143.508 19.0401 143.5C19.1222 143.492 19.205 143.5 19.2837 143.525C19.3625 143.549 19.4356 143.589 19.4987 143.642C19.5619 143.695 19.6138 143.76 19.6516 143.834C19.6893 143.907 19.712 143.987 19.7185 144.069C19.7249 144.152 19.7149 144.234 19.689 144.313C19.6632 144.391 19.622 144.463 19.5679 144.525C17.9068 146.504 16.3104 148.535 14.7812 150.617C14.6595 150.783 14.4711 150.87 14.2802 150.87ZM24.297 138.956C24.1751 138.956 24.0559 138.92 23.9543 138.853C23.8526 138.786 23.7729 138.69 23.7252 138.578C23.6774 138.466 23.6637 138.343 23.6858 138.223C23.7078 138.103 23.7645 137.992 23.849 137.904C25.6582 136.023 27.5323 134.205 29.4678 132.453C29.59 132.343 29.7511 132.285 29.9156 132.294C30.0802 132.302 30.2346 132.375 30.3451 132.498C30.4556 132.62 30.513 132.781 30.5046 132.945C30.4963 133.11 30.423 133.264 30.3008 133.375C28.3867 135.107 26.5333 136.905 24.7441 138.766C24.6224 138.892 24.4597 138.956 24.297 138.956ZM35.8426 128.526C35.7132 128.526 35.5869 128.486 35.4814 128.411C35.376 128.336 35.2966 128.23 35.2545 128.108C35.2123 127.985 35.2094 127.853 35.2463 127.729C35.2832 127.605 35.3579 127.495 35.4601 127.416C37.5181 125.81 39.6353 124.281 41.8071 122.832C41.8749 122.786 41.9513 122.754 42.0317 122.737C42.1121 122.72 42.1951 122.72 42.2757 122.736C42.3563 122.751 42.433 122.783 42.5013 122.828C42.5697 122.874 42.6284 122.932 42.6739 123.001C42.7195 123.069 42.751 123.146 42.7667 123.226C42.7825 123.307 42.782 123.39 42.7655 123.47C42.7489 123.551 42.7166 123.627 42.6703 123.695C42.6241 123.763 42.5648 123.821 42.496 123.866C40.35 125.297 38.258 126.808 36.2243 128.395C36.1153 128.48 35.9809 128.526 35.8426 128.526ZM48.788 119.904C48.6504 119.905 48.5167 119.859 48.4077 119.776C48.2987 119.692 48.2206 119.574 48.1858 119.441C48.1509 119.308 48.1612 119.167 48.215 119.04C48.2689 118.914 48.3632 118.809 48.4833 118.742C50.7601 117.465 53.0855 116.276 55.4542 115.179C55.5282 115.145 55.6083 115.125 55.6898 115.122C55.7713 115.119 55.8526 115.132 55.9292 115.16C56.0058 115.188 56.0761 115.231 56.1361 115.286C56.1961 115.341 56.2446 115.408 56.2789 115.482C56.3132 115.556 56.3325 115.636 56.3359 115.717C56.3392 115.799 56.3265 115.88 56.2984 115.957C56.2703 116.033 56.2274 116.104 56.1721 116.164C56.1168 116.224 56.0503 116.272 55.9763 116.306C53.6367 117.39 51.3399 118.564 49.091 119.825C48.995 119.879 48.891 119.904 48.788 119.904ZM62.8967 113.372C62.7511 113.372 62.6103 113.32 62.4987 113.227C62.3871 113.133 62.3119 113.004 62.2861 112.861C62.2604 112.717 62.2857 112.57 62.3577 112.443C62.4297 112.317 62.5438 112.219 62.6802 112.168C65.1264 111.26 67.6064 110.444 70.1148 109.724C70.2731 109.679 70.443 109.698 70.5871 109.778C70.7312 109.858 70.8377 109.991 70.8831 110.15C70.9286 110.308 70.9093 110.478 70.8295 110.622C70.7497 110.766 70.6159 110.873 70.4576 110.918C67.9797 111.63 65.5298 112.435 63.1132 113.333C63.0416 113.36 62.9683 113.372 62.8967 113.372ZM77.8367 109.078C77.6829 109.078 77.5346 109.021 77.4204 108.918C77.3062 108.815 77.2343 108.674 77.2187 108.521C77.203 108.368 77.2447 108.214 77.3356 108.09C77.4265 107.966 77.5602 107.88 77.7108 107.849C80.2645 107.319 82.8363 106.88 85.4212 106.533C85.5844 106.512 85.7495 106.556 85.8804 106.655C86.0112 106.755 86.0973 106.903 86.1196 107.066C86.1415 107.229 86.0977 107.394 85.9978 107.525C85.8979 107.656 85.75 107.742 85.5868 107.764C83.0313 108.108 80.4888 108.542 77.9642 109.066C77.9222 109.074 77.8795 109.078 77.8367 109.078ZM93.2421 106.998C93.0793 107.001 92.9221 106.939 92.8043 106.827C92.6865 106.714 92.6175 106.56 92.6122 106.398C92.6069 106.235 92.6658 106.077 92.7761 105.957C92.8864 105.837 93.0393 105.766 93.2019 105.758C95.8035 105.587 98.4098 105.5 101.017 105.495H101.018C101.183 105.495 101.341 105.56 101.458 105.677C101.574 105.793 101.64 105.951 101.64 106.116C101.64 106.28 101.575 106.438 101.458 106.555C101.342 106.671 101.184 106.737 101.019 106.737C98.4216 106.742 95.8188 106.83 93.2834 106.997C93.2697 106.998 93.2559 106.998 93.2421 106.998ZM113.311 107.292L112.895 107.256C111.527 107.135 110.156 107.035 108.784 106.956C108.62 106.947 108.466 106.872 108.357 106.749C108.247 106.626 108.191 106.465 108.2 106.3C108.211 106.136 108.286 105.983 108.408 105.874C108.531 105.764 108.692 105.708 108.856 105.716C110.088 105.787 111.343 105.877 112.593 105.983C112.888 105.434 113.511 104.3 114.462 102.719C114.504 102.649 114.559 102.589 114.625 102.54C114.69 102.492 114.765 102.456 114.844 102.437C114.923 102.417 115.005 102.413 115.086 102.425C115.166 102.437 115.244 102.465 115.314 102.507C115.384 102.549 115.444 102.604 115.493 102.67C115.541 102.735 115.577 102.81 115.596 102.889C115.616 102.968 115.62 103.05 115.608 103.131C115.596 103.212 115.568 103.289 115.526 103.359C114.204 105.56 113.509 106.908 113.502 106.921L113.311 107.292ZM119.595 96.6079C119.482 96.6077 119.37 96.5764 119.273 96.5173C119.176 96.4582 119.097 96.3736 119.045 96.2727C118.992 96.1718 118.969 96.0585 118.976 95.9451C118.984 95.8317 119.023 95.7225 119.088 95.6296C120.714 93.3195 122.42 91.0668 124.202 88.8756C124.307 88.751 124.457 88.6726 124.619 88.6574C124.781 88.6422 124.943 88.6913 125.069 88.7941C125.196 88.897 125.276 89.0454 125.294 89.2073C125.312 89.3692 125.266 89.5317 125.165 89.6597C123.401 91.8285 121.713 94.058 120.104 96.3442C120.046 96.4257 119.97 96.4922 119.882 96.5381C119.793 96.584 119.695 96.6079 119.595 96.6079ZM130.243 83.5573C130.122 83.5574 130.003 83.5218 129.902 83.455C129.8 83.3882 129.721 83.2931 129.673 83.1814C129.625 83.0698 129.61 82.9466 129.632 82.827C129.653 82.7075 129.709 82.5968 129.793 82.5087C131.738 80.4566 133.772 78.4899 135.887 76.6141C136.011 76.5101 136.171 76.4587 136.333 76.4707C136.494 76.4828 136.645 76.5574 136.752 76.6788C136.859 76.8001 136.915 76.9585 136.907 77.1202C136.899 77.282 136.829 77.4344 136.71 77.5448C134.621 79.3965 132.614 81.338 130.694 83.364C130.636 83.4251 130.566 83.4738 130.488 83.507C130.411 83.5402 130.328 83.5574 130.243 83.5573ZM142.879 72.4427C142.747 72.4428 142.619 72.4011 142.513 72.3237C142.407 72.2463 142.328 72.1371 142.287 72.0119C142.247 71.8867 142.248 71.752 142.289 71.6271C142.33 71.5022 142.41 71.3937 142.517 71.317C144.875 69.6279 147.292 68.104 149.7 66.7875C149.844 66.7084 150.014 66.69 150.172 66.7363C150.33 66.7825 150.463 66.8897 150.543 67.0342C150.622 67.1787 150.64 67.3487 150.594 67.5068C150.547 67.6648 150.44 67.798 150.296 67.8771C147.931 69.17 145.558 70.6666 143.24 72.3268C143.13 72.405 143.004 72.4427 142.879 72.4427ZM198.52 66.6438C198.429 66.6439 198.339 66.6239 198.257 66.5854C195.676 65.3798 193.063 64.3626 190.493 63.5624C190.415 63.5383 190.342 63.499 190.279 63.4468C190.216 63.3946 190.165 63.3306 190.127 63.2583C190.089 63.186 190.065 63.1069 190.058 63.0255C190.05 62.9442 190.059 62.8622 190.083 62.7842C190.108 62.7063 190.147 62.6338 190.199 62.5711C190.252 62.5084 190.316 62.4567 190.388 62.4188C190.461 62.3809 190.54 62.3577 190.621 62.3505C190.703 62.3433 190.785 62.3522 190.862 62.3767C193.486 63.1935 196.15 64.231 198.783 65.4602C198.932 65.5299 199.048 65.656 199.104 65.8108C199.16 65.9656 199.153 66.1364 199.083 66.2857C199.033 66.3927 198.953 66.4832 198.853 66.5466C198.754 66.61 198.638 66.6437 198.52 66.6438ZM157.641 64.4397C157.495 64.4399 157.354 64.3889 157.242 64.2955C157.13 64.2022 157.054 64.0724 157.029 63.9291C157.003 63.7857 157.028 63.6377 157.1 63.5111C157.172 63.3845 157.287 63.2873 157.423 63.2366C160.12 62.2276 162.872 61.4394 165.605 60.8942C165.685 60.8782 165.767 60.8781 165.847 60.8939C165.927 60.9098 166.003 60.9413 166.071 60.9865C166.139 61.0318 166.197 61.09 166.243 61.1578C166.288 61.2256 166.32 61.3016 166.336 61.3816C166.352 61.4617 166.352 61.544 166.336 61.624C166.32 61.7041 166.289 61.7802 166.243 61.8481C166.198 61.9159 166.14 61.9742 166.072 62.0196C166.004 62.065 165.928 62.0966 165.848 62.1126C163.181 62.6446 160.492 63.4142 157.858 64.3999C157.789 64.4261 157.715 64.4395 157.641 64.4397ZM182.478 61.7089C182.447 61.7089 182.417 61.7067 182.387 61.7023C179.643 61.2983 176.869 61.1278 174.096 61.1926C173.763 61.2104 173.468 60.9302 173.46 60.587C173.456 60.4223 173.517 60.2628 173.631 60.1436C173.745 60.0243 173.901 59.9551 174.066 59.9511C176.867 59.8819 179.734 60.0579 182.567 60.474C182.722 60.4974 182.862 60.5782 182.959 60.7004C183.057 60.8225 183.105 60.9769 183.093 61.1328C183.082 61.2887 183.012 61.4346 182.898 61.5413C182.784 61.6481 182.634 61.708 182.478 61.7089ZM210.538 73.7932L209.062 72.788C207.929 72.0162 206.778 71.2716 205.61 70.5548C205.47 70.4688 205.369 70.3304 205.331 70.1703C205.292 70.0101 205.319 69.8412 205.405 69.7008C205.491 69.5603 205.629 69.4599 205.79 69.4214C205.95 69.383 206.119 69.4098 206.259 69.4958C206.965 69.9286 207.664 70.3716 208.357 70.8248C208.189 70.1856 207.985 69.3725 207.764 68.4087C207.746 68.3292 207.744 68.2469 207.757 68.1665C207.771 68.086 207.8 68.0091 207.844 67.94C207.887 67.871 207.944 67.8111 208.01 67.764C208.077 67.7168 208.152 67.6832 208.231 67.6651C208.392 67.6287 208.56 67.6574 208.7 67.745C208.839 67.8325 208.938 67.9717 208.975 68.1321C209.535 70.5822 210 72.0742 210.004 72.0891L210.538 73.7932ZM206.86 60.1651C206.708 60.1648 206.561 60.109 206.448 60.0081C206.335 59.9071 206.262 59.7681 206.244 59.6174C205.893 56.6598 205.715 53.7614 205.715 51.0029L205.716 50.7015C205.716 50.5372 205.782 50.3799 205.898 50.264C206.015 50.148 206.172 50.083 206.337 50.083H206.339C206.421 50.0833 206.501 50.0997 206.576 50.1312C206.652 50.1627 206.72 50.2087 206.777 50.2666C206.835 50.3245 206.88 50.3932 206.911 50.4686C206.942 50.5441 206.958 50.6249 206.958 50.7064L206.957 51.0029C206.957 53.7125 207.132 56.5616 207.477 59.4708C207.488 59.558 207.48 59.6464 207.453 59.7302C207.427 59.814 207.383 59.8913 207.325 59.9569C207.266 60.0225 207.195 60.075 207.115 60.1109C207.034 60.1468 206.948 60.1652 206.86 60.1651ZM207.066 42.501C206.976 42.501 206.886 42.4814 206.804 42.4433C206.722 42.4053 206.649 42.3498 206.591 42.2807C206.533 42.2117 206.49 42.1307 206.466 42.0434C206.442 41.9562 206.438 41.8648 206.453 41.7756C206.987 38.6524 207.817 35.7457 208.922 33.1371C208.953 33.0607 208.999 32.9912 209.057 32.9327C209.115 32.8741 209.184 32.8278 209.26 32.7962C209.336 32.7646 209.418 32.7485 209.501 32.7489C209.583 32.7492 209.664 32.7659 209.74 32.798C209.816 32.8302 209.885 32.8771 209.942 32.9361C210 32.9951 210.045 33.0649 210.076 33.1416C210.106 33.2182 210.121 33.3001 210.119 33.3825C210.117 33.4649 210.099 33.5461 210.066 33.6215C208.999 36.1419 208.195 38.9559 207.677 41.9847C207.652 42.129 207.578 42.2599 207.466 42.3543C207.354 42.4488 207.212 42.5007 207.066 42.501ZM214.103 26.4808C213.984 26.4807 213.868 26.4466 213.768 26.3824C213.668 26.3183 213.588 26.2268 213.539 26.1189C213.489 26.0109 213.472 25.8911 213.488 25.7735C213.505 25.6559 213.555 25.5455 213.632 25.4553C215.584 23.1833 217.918 21.2466 220.568 19.6995C220.638 19.6576 220.716 19.6301 220.797 19.6185C220.879 19.607 220.961 19.6116 221.041 19.6321C221.12 19.6527 221.194 19.6887 221.26 19.7382C221.325 19.7876 221.38 19.8496 221.421 19.9203C221.463 19.9911 221.49 20.0694 221.5 20.1506C221.511 20.2319 221.506 20.3145 221.485 20.3937C221.464 20.4729 221.427 20.5471 221.377 20.612C221.327 20.677 221.265 20.7314 221.194 20.7722C218.663 22.2497 216.436 24.0978 214.574 26.2651C214.516 26.3329 214.443 26.3872 214.362 26.4244C214.281 26.4616 214.192 26.4809 214.103 26.4808ZM229.054 17.5392C228.903 17.5388 228.758 17.4836 228.645 17.3839C228.532 17.2842 228.459 17.1467 228.439 16.9972C228.42 16.8476 228.456 16.6962 228.54 16.5711C228.624 16.446 228.751 16.3557 228.897 16.3171C231.604 15.6063 234.58 15.1405 237.743 14.9327C237.825 14.9264 237.907 14.9365 237.985 14.9623C238.062 14.9881 238.134 15.0292 238.195 15.0831C238.257 15.137 238.307 15.2027 238.343 15.2762C238.379 15.3498 238.4 15.4298 238.404 15.5115C238.415 15.6758 238.36 15.8376 238.251 15.9615C238.143 16.0853 237.99 16.161 237.825 16.1718C234.741 16.3747 231.843 16.8276 229.212 17.5181C229.161 17.5322 229.107 17.5393 229.054 17.5392ZM250.812 16.592C250.788 16.592 250.765 16.5908 250.741 16.5879C249.35 16.4281 247.972 16.3022 246.647 16.2136C246.483 16.2026 246.329 16.1267 246.221 16.0027C246.113 15.8787 246.058 15.7168 246.069 15.5524C246.074 15.471 246.095 15.3914 246.132 15.3182C246.168 15.245 246.218 15.1796 246.279 15.1259C246.341 15.0722 246.412 15.0312 246.49 15.0052C246.567 14.9792 246.649 14.9688 246.73 14.9745C248.076 15.0643 249.472 15.1923 250.882 15.3542C251.04 15.3724 251.184 15.45 251.286 15.5712C251.388 15.6924 251.44 15.848 251.431 16.0061C251.422 16.1642 251.353 16.3129 251.238 16.4218C251.123 16.5307 250.971 16.5916 250.812 16.592ZM60.0616 3.25086C59.9743 3.25086 59.8853 3.23225 59.8004 3.19292C57.4712 2.11155 56.0595 1.66359 56.0458 1.65904C55.8912 1.60766 55.763 1.49762 55.6888 1.35261C55.6146 1.2076 55.6004 1.03924 55.6492 0.883826C55.6979 0.728408 55.8058 0.598355 55.9495 0.521727C56.0933 0.445099 56.2614 0.428031 56.4176 0.474172C56.4776 0.492802 57.9117 0.946963 60.3237 2.06642C60.4521 2.12593 60.5564 2.22753 60.6192 2.35441C60.6819 2.48128 60.6995 2.62579 60.6689 2.76401C60.6384 2.90223 60.5615 3.02587 60.451 3.11441C60.3406 3.20295 60.2032 3.25108 60.0616 3.25086ZM112.418 95.1754C112.261 95.1753 112.111 95.116 111.996 95.0096C111.881 94.9031 111.811 94.7572 111.799 94.6012C111.602 91.9797 111.348 89.3628 111.035 86.7526C111.019 86.5908 111.066 86.4291 111.168 86.3021C111.27 86.1752 111.417 86.0932 111.579 86.0738C111.74 86.0544 111.903 86.0991 112.032 86.1983C112.161 86.2975 112.245 86.4433 112.268 86.6044C112.583 89.2329 112.839 91.8681 113.037 94.5081C113.043 94.5894 113.033 94.6711 113.008 94.7486C112.982 94.826 112.942 94.8977 112.889 94.9596C112.836 95.0214 112.771 95.0722 112.698 95.1089C112.625 95.1457 112.546 95.1677 112.465 95.1738C112.449 95.1746 112.433 95.1754 112.418 95.1754ZM110.52 79.467C110.373 79.4669 110.232 79.4148 110.12 79.3202C110.008 79.2256 109.933 79.0944 109.908 78.9499C109.47 76.3596 108.964 73.7811 108.39 71.2173C108.354 71.0565 108.383 70.888 108.471 70.7489C108.56 70.6098 108.699 70.5114 108.86 70.4753C109.021 70.4393 109.189 70.4687 109.329 70.5569C109.468 70.6451 109.566 70.7849 109.602 70.9457C110.18 73.5307 110.691 76.1304 111.133 78.7421C111.149 78.8313 111.144 78.9227 111.12 79.0099C111.096 79.0971 111.054 79.178 110.995 79.2471C110.937 79.3161 110.864 79.3715 110.782 79.4095C110.7 79.4475 110.61 79.4672 110.52 79.467ZM107.046 64.0335C106.911 64.0334 106.78 63.9893 106.672 63.908C106.565 63.8266 106.486 63.7124 106.449 63.5827C105.73 61.0576 104.932 58.5553 104.059 56.0793C104.03 56.0021 104.017 55.9199 104.02 55.8376C104.023 55.7552 104.043 55.6744 104.078 55.5998C104.113 55.5251 104.162 55.4581 104.223 55.4028C104.284 55.3474 104.356 55.3047 104.434 55.2773C104.511 55.2498 104.594 55.2381 104.676 55.2428C104.758 55.2474 104.839 55.2684 104.913 55.3046C104.987 55.3407 105.053 55.3912 105.107 55.4531C105.162 55.5151 105.203 55.5872 105.229 55.6653C106.112 58.1652 106.917 60.6918 107.644 63.2415C107.67 63.334 107.675 63.4315 107.658 63.5261C107.64 63.6207 107.601 63.71 107.543 63.7868C107.485 63.8636 107.41 63.9259 107.323 63.9687C107.237 64.0116 107.142 64.0337 107.046 64.0335ZM101.76 49.1254C101.638 49.1255 101.52 49.0899 101.418 49.0232C101.317 48.9564 101.237 48.8614 101.189 48.7499C100.151 46.3403 99.0266 43.9689 97.818 41.6403C97.742 41.4941 97.7272 41.3238 97.7768 41.1667C97.8264 41.0096 97.9364 40.8787 98.0825 40.8027C98.2287 40.7268 98.399 40.7119 98.5561 40.7616C98.7131 40.8112 98.8441 40.9211 98.9201 41.0673C100.125 43.3857 101.272 45.8051 102.33 48.2585C102.37 48.3529 102.387 48.456 102.378 48.5585C102.369 48.661 102.335 48.7596 102.278 48.8456C102.222 48.9315 102.145 49.0021 102.054 49.0509C101.964 49.0998 101.863 49.1254 101.76 49.1254ZM94.4551 35.0966C94.2477 35.0966 94.0448 34.9926 93.9272 34.8035C92.5428 32.5767 91.0683 30.4072 89.5074 28.3004C89.4569 28.235 89.42 28.1603 89.3988 28.0805C89.3775 28.0007 89.3724 27.9175 89.3837 27.8357C89.3951 27.7539 89.4226 27.6752 89.4647 27.6042C89.5068 27.5332 89.5626 27.4712 89.6289 27.4221C89.6952 27.3729 89.7707 27.3374 89.8508 27.3177C89.931 27.298 90.0143 27.2945 90.0959 27.3074C90.1774 27.3203 90.2556 27.3494 90.3258 27.3928C90.396 27.4363 90.4568 27.4933 90.5047 27.5605C92.0859 29.6945 93.5795 31.892 94.9817 34.1477C95.0401 34.2417 95.0724 34.3496 95.0751 34.4602C95.0779 34.5708 95.051 34.6802 94.9973 34.7769C94.9436 34.8737 94.865 34.9543 94.7697 35.0105C94.6744 35.0667 94.5657 35.0964 94.4551 35.0966ZM85.0225 22.4029C84.8507 22.4029 84.6801 22.3321 84.5571 22.1934C82.8202 20.2307 80.9957 18.3473 79.0891 16.549C79.0279 16.4935 78.9784 16.4264 78.9435 16.3516C78.9086 16.2768 78.889 16.1958 78.8857 16.1133C78.8825 16.0309 78.8957 15.9485 78.9247 15.8712C78.9536 15.7939 78.9977 15.7232 79.0543 15.6631C79.1109 15.603 79.1789 15.5548 79.2544 15.5213C79.3298 15.4879 79.4112 15.4698 79.4937 15.4681C79.5762 15.4664 79.6583 15.4812 79.735 15.5116C79.8117 15.542 79.8816 15.5874 79.9406 15.6452C81.8747 17.4691 83.7253 19.3795 85.487 21.3704C85.5664 21.4599 85.6183 21.5704 85.6363 21.6886C85.6544 21.8069 85.6379 21.9278 85.5888 22.0369C85.5397 22.146 85.4601 22.2386 85.3597 22.3036C85.2592 22.3685 85.1421 22.403 85.0225 22.4029ZM73.5025 11.5681C73.3696 11.5681 73.2355 11.5255 73.1221 11.4377C71.0537 9.83007 68.9043 8.32955 66.6823 6.94209C66.5455 6.85366 66.4489 6.71502 66.4133 6.55604C66.3778 6.39705 66.4061 6.23046 66.4923 6.09218C66.5784 5.9539 66.7154 5.85501 66.8738 5.81683C67.0322 5.77864 67.1992 5.80421 67.3389 5.88804C69.5971 7.29812 71.7816 8.82297 73.8838 10.4565C73.9861 10.5359 74.0611 10.6453 74.0981 10.7694C74.1352 10.8935 74.1325 11.0261 74.0905 11.1486C74.0485 11.2711 73.9692 11.3774 73.8638 11.4527C73.7583 11.5279 73.632 11.5682 73.5025 11.5681Z" fill="#FFBE55"/>
</svg>
