<svg width="136" height="136" viewBox="0 0 136 136" fill="none" xmlns="http://www.w3.org/2000/svg">
<path d="M39.4937 35.8309C39.4937 33.895 41.063 32.3257 42.9988 32.3257H93.5118C95.4475 32.3257 97.017 33.895 97.017 35.8309V108.809C97.017 110.744 95.4475 112.314 93.5118 112.314H42.9988C41.063 112.314 39.4937 110.744 39.4937 108.809V35.8309Z" fill="#F1F1F1"/>
<path fill-rule="evenodd" clip-rule="evenodd" d="M29.7236 10.2819C29.7236 9.48559 30.3691 8.84009 31.1655 8.84009H35.8895C36.6857 8.84009 37.3313 9.48559 37.3313 10.2819C37.3313 10.9342 37.772 11.4982 38.3873 11.7148C40.1116 12.3219 41.6878 13.2428 43.0476 14.4091C43.5433 14.8343 44.2529 14.9338 44.8185 14.6072C45.5095 14.2084 46.3926 14.4451 46.7915 15.1359L49.1521 19.2241C49.5505 19.9141 49.3139 20.7964 48.6239 21.1948C48.0591 21.5208 47.7907 22.1839 47.9104 22.8248C48.0727 23.6979 48.1574 24.5983 48.1574 25.5184C48.1574 26.4386 48.0727 27.3389 47.9104 28.212C47.7907 28.853 48.0591 29.516 48.6239 29.8421C49.3139 30.2404 49.5501 31.1228 49.1521 31.8128L46.7915 35.9009C46.3926 36.5918 45.5095 36.8285 44.8185 36.4296C44.2529 36.1031 43.5433 36.2025 43.0476 36.6277C41.6878 37.794 40.1116 38.715 38.3873 39.322C37.772 39.5386 37.3313 40.1026 37.3313 40.7549C37.3313 41.5513 36.6857 42.1968 35.8895 42.1968H31.1655C30.3691 42.1968 29.7236 41.5513 29.7236 40.7549C29.7236 40.1026 29.2829 39.5386 28.6676 39.322C26.9433 38.715 25.3671 37.794 24.0074 36.6277C23.5117 36.2025 22.802 36.1031 22.2364 36.4296C21.5455 36.8285 20.6621 36.5918 20.2633 35.9009L17.903 31.8128C17.5046 31.1227 17.741 30.2404 18.4311 29.842C18.9957 29.516 19.2641 28.853 19.1447 28.212C18.9823 27.3389 18.8973 26.4386 18.8973 25.5184C18.8973 24.5983 18.9823 23.6979 19.1447 22.8248C19.2641 22.1839 18.9957 21.5208 18.4311 21.1948C17.741 20.7964 17.5046 19.9141 17.903 19.2241L20.2633 15.1359C20.6621 14.4451 21.5455 14.2084 22.2364 14.6073C22.802 14.9338 23.5117 14.8343 24.0074 14.4091C25.3671 13.2429 26.9433 12.3219 28.6676 11.7148C29.2829 11.4982 29.7236 10.9342 29.7236 10.2819ZM41.8761 25.5184C41.8761 30.218 38.1425 34.0278 33.5369 34.0278C28.9313 34.0278 25.1977 30.218 25.1977 25.5184C25.1977 20.8188 28.9313 17.0091 33.5369 17.0091C38.1425 17.0091 41.8761 20.8188 41.8761 25.5184Z" fill="#FAC22F"/>
<path fill-rule="evenodd" clip-rule="evenodd" d="M66.3135 16.8207C66.5474 16.4322 67.0524 16.3072 67.441 16.5414L69.7452 17.9306C70.1338 18.1648 70.2589 18.6696 70.025 19.0581C69.8327 19.3763 69.8822 19.7811 70.1183 20.0677C70.7811 20.871 71.2793 21.7838 71.5994 22.7527C71.7163 23.1059 72.0332 23.3631 72.4054 23.3701C72.8596 23.3788 73.221 23.754 73.2123 24.2084L73.1616 26.8969C73.153 27.3507 72.778 27.7116 72.3243 27.703C71.953 27.696 71.627 27.9405 71.4969 28.2883C71.3192 28.762 71.0957 29.2262 70.8251 29.6751C70.5544 30.124 70.2484 30.5383 69.9125 30.9164C69.6655 31.194 69.6015 31.5964 69.7811 31.9215C70.0005 32.3188 69.8563 32.8187 69.4592 33.0382L67.1055 34.3385C66.7075 34.5581 66.207 34.4138 65.9876 34.016C65.8076 33.6904 65.4322 33.5303 65.065 33.5919C64.0586 33.761 63.0191 33.7467 61.9991 33.5357C61.6356 33.4604 61.2548 33.606 61.0625 33.9242C60.8286 34.3127 60.3236 34.4377 59.9351 34.2035L57.6308 32.8142C57.2423 32.58 57.1172 32.0752 57.3516 31.6868C57.5433 31.3685 57.4939 30.9638 57.2577 30.6772C56.595 29.8739 56.0967 28.9611 55.7767 27.9922C55.6597 27.639 55.3428 27.3817 54.9707 27.3747C54.5164 27.3661 54.1551 26.9908 54.1637 26.5365L54.2145 23.848C54.2231 23.3942 54.598 23.0333 55.0518 23.0418C55.4231 23.0489 55.749 22.8043 55.8791 22.4565C56.0568 21.9829 56.2803 21.5186 56.551 21.0697C56.8216 20.6208 57.1276 20.2066 57.4635 19.8285C57.7106 19.5509 57.7745 19.1485 57.595 18.8233C57.3756 18.4261 57.5197 17.9261 57.9169 17.7066L60.2706 16.4064C60.6686 16.1867 61.1691 16.3311 61.389 16.7288C61.5685 17.0544 61.9443 17.2146 62.311 17.153C63.3174 16.9839 64.3569 16.9982 65.3769 17.2092C65.7405 17.2844 66.1218 17.1389 66.3135 16.8207ZM67.7243 27.8057C66.3806 30.0349 63.4838 30.7525 61.2548 29.4087C59.0257 28.0648 58.3081 25.1683 59.6518 22.9392C60.9955 20.71 63.8923 19.9923 66.1213 21.3362C68.3503 22.68 69.068 25.5765 67.7243 27.8057Z" fill="#F15846"/>
<path fill-rule="evenodd" clip-rule="evenodd" d="M86.1848 18.6649C86.3915 18.5565 86.6467 18.636 86.755 18.8425L87.3983 20.0675C87.5067 20.2741 87.4273 20.5294 87.2206 20.6378C87.0515 20.7266 86.9654 20.9177 86.993 21.1068C87.0701 21.6366 87.0461 22.1708 86.9287 22.6822C86.8861 22.8686 86.9568 23.0663 87.1186 23.1684C87.3163 23.2933 87.3752 23.5546 87.2501 23.7521L86.5116 24.9209C86.3869 25.1182 86.1258 25.177 85.9286 25.0523C85.7672 24.9503 85.5587 24.971 85.4086 25.0892C85.2042 25.2502 84.9825 25.3949 84.7436 25.5202C84.5051 25.6455 84.2599 25.7461 84.0115 25.8228C83.8292 25.8792 83.6937 26.039 83.686 26.2299C83.6765 26.463 83.4802 26.6445 83.2467 26.6352L81.8654 26.5798C81.6319 26.5704 81.4501 26.3736 81.4597 26.1401C81.4674 25.949 81.345 25.7785 81.1668 25.7078C80.6795 25.514 80.2257 25.2307 79.8336 24.8662C79.6939 24.7362 79.4872 24.6987 79.3181 24.7875C79.1118 24.8959 78.8566 24.8164 78.7478 24.6099L78.1045 23.3849C77.9962 23.1783 78.076 22.923 78.2822 22.8146C78.4513 22.7258 78.5375 22.5347 78.5103 22.3456C78.4327 21.8158 78.4568 21.2816 78.5742 20.7702C78.6168 20.5837 78.5461 20.3862 78.3842 20.284C78.187 20.1591 78.1281 19.8978 78.2528 19.7003L78.9917 18.5315C79.1164 18.3342 79.3775 18.2754 79.5747 18.4001C79.7361 18.5021 79.9446 18.4814 80.0947 18.3632C80.2987 18.2022 80.5208 18.0575 80.7593 17.9322C80.9977 17.8069 81.243 17.7064 81.4914 17.6296C81.6741 17.5733 81.8092 17.4134 81.8169 17.2225C81.8264 16.9893 82.0231 16.8079 82.2562 16.8172L83.6379 16.8726C83.8714 16.882 84.0527 17.0788 84.0437 17.3123C84.036 17.5034 84.1583 17.6739 84.3361 17.7446C84.8238 17.9384 85.2772 18.2218 85.6693 18.5862C85.8094 18.7163 86.0157 18.7538 86.1848 18.6649ZM83.8782 23.8718C82.6932 24.494 81.228 24.0378 80.606 22.8529C79.9836 21.6679 80.4397 20.2029 81.6247 19.5806C82.8097 18.9584 84.2749 19.4146 84.8973 20.5995C85.5193 21.7845 85.0632 23.2495 83.8782 23.8718Z" fill="#53B3CC"/>
<path fill-rule="evenodd" clip-rule="evenodd" d="M24.9556 87.4948C25.1454 87.1802 25.5543 87.0791 25.869 87.2686L27.7358 88.3942C28.0505 88.5837 28.1519 88.9927 27.9621 89.3073C27.8067 89.5652 27.8465 89.893 28.0381 90.1255C28.5749 90.7761 28.9784 91.5155 29.2379 92.3002C29.3325 92.5867 29.5892 92.7948 29.8906 92.8006C30.2586 92.8074 30.5513 93.1116 30.5444 93.4797L30.5032 95.6576C30.4962 96.0252 30.1926 96.3176 29.825 96.3104C29.5241 96.3049 29.2601 96.503 29.1546 96.7845C29.0108 97.1685 28.8299 97.5443 28.6106 97.9084C28.3914 98.2719 28.1433 98.6074 27.8711 98.9138C27.6712 99.1387 27.6193 99.4646 27.7648 99.728C27.9426 100.05 27.8258 100.455 27.504 100.632L25.5972 101.686C25.275 101.864 24.8695 101.747 24.6915 101.425C24.5458 101.161 24.2416 101.031 23.9444 101.081C23.1292 101.218 22.2869 101.206 21.4608 101.035C21.1661 100.975 20.8575 101.093 20.7021 101.35C20.5124 101.665 20.1035 101.766 19.7888 101.577L17.9219 100.451C17.6072 100.261 17.5059 99.8522 17.6956 99.5376C17.851 99.2801 17.8112 98.9519 17.6197 98.7198C17.0829 98.0693 16.6794 97.3299 16.4199 96.5447C16.3253 96.2587 16.0685 96.0501 15.7672 96.0447C15.3991 96.0374 15.1064 95.7337 15.1134 95.3656L15.1546 93.1878C15.1615 92.8201 15.4652 92.5277 15.8328 92.5345C16.1336 92.5404 16.3976 92.3423 16.5032 92.0604C16.647 91.6768 16.8279 91.3006 17.0471 90.937C17.2664 90.5734 17.5144 90.238 17.7867 89.9315C17.9865 89.7067 18.0384 89.3807 17.8929 89.1173C17.7152 88.7954 17.832 88.3906 18.1538 88.2129L20.0605 87.1594C20.3827 86.9812 20.7882 87.0982 20.9663 87.4205C21.112 87.6843 21.4161 87.814 21.7133 87.7641C22.5285 87.6272 23.3709 87.639 24.1969 87.8099C24.4917 87.8706 24.8002 87.7528 24.9556 87.4948ZM26.0986 96.3938C25.0099 98.1994 22.6635 98.781 20.8577 97.6921C19.0519 96.6037 18.4705 94.2572 19.5592 92.4516C20.6478 90.6455 22.9942 90.0643 24.8 91.1528C26.6059 92.2417 27.1872 94.5881 26.0986 96.3938Z" fill="#F15846"/>
<path d="M36.4302 33.1079C36.4302 31.1721 37.9995 29.6028 39.9353 29.6028H90.4486C92.3843 29.6028 93.9537 31.1721 93.9537 33.1079V106.086C93.9537 108.022 92.3843 109.591 90.4486 109.591H39.9353C37.9995 109.591 36.4302 108.022 36.4302 106.086V33.1079Z" fill="white"/>
<path fill-rule="evenodd" clip-rule="evenodd" d="M36.0796 33.108C36.0796 30.9786 37.8058 29.2523 39.9353 29.2523H90.4485C92.5778 29.2523 94.3041 30.9786 94.3041 33.108V106.086C94.3041 108.215 92.5778 109.942 90.4485 109.942H39.9353C37.8058 109.942 36.0796 108.215 36.0796 106.086V33.108ZM39.9353 29.9534C38.193 29.9534 36.7806 31.3657 36.7806 33.108V106.086C36.7806 107.828 38.193 109.24 39.9353 109.24H90.4485C92.1906 109.24 93.6028 107.828 93.6028 106.086V33.108C93.6028 31.3657 92.1906 29.9534 90.4485 29.9534H39.9353Z" fill="#3E3D3D"/>
<path d="M48.6836 29.6028H82.0403L80.7538 33.2049C80.5044 33.9024 79.8439 34.368 79.1032 34.368H51.6203C50.8795 34.368 50.219 33.9024 49.9697 33.2049L48.6836 29.6028Z" fill="#3E3D3D"/>
<path fill-rule="evenodd" clip-rule="evenodd" d="M72.4849 41.3204H83.4274V52.263H72.4849V41.3204ZM74.2374 43.073V50.5105H81.6748V43.073H74.2374Z" fill="#E5E5E5"/>
<path d="M46.6411 41.1755H63.6597V98.6988H46.6411V41.1755Z" fill="#53B3CC"/>
<path fill-rule="evenodd" clip-rule="evenodd" d="M72.4849 64.4657H83.4274V75.4083H72.4849V64.4657ZM74.2374 66.2183V73.6557H81.6748V66.2183H74.2374Z" fill="#E5E5E5"/>
<path fill-rule="evenodd" clip-rule="evenodd" d="M72.4849 87.6113H83.4274V98.5543H72.4849V87.6113ZM74.2374 89.3639V96.8018H81.6748V89.3639H74.2374Z" fill="#E5E5E5"/>
<path fill-rule="evenodd" clip-rule="evenodd" d="M107.015 27.9806C107.261 26.8455 108.381 26.1252 109.516 26.3717L129.416 30.6939C130.551 30.9404 131.271 32.0604 131.025 33.1954L124.813 61.7966C124.567 62.9313 123.446 63.6517 122.312 63.4051L102.412 59.083C101.277 58.8364 100.556 57.7166 100.803 56.5815L107.015 27.9806ZM109.368 27.0568C108.611 26.8925 107.864 27.3726 107.7 28.1293L101.488 56.7302C101.324 57.4872 101.804 58.2339 102.56 58.398L122.46 62.7201C123.217 62.8846 123.964 62.4046 124.128 61.6475L130.34 33.0466C130.504 32.2899 130.024 31.5433 129.268 31.379L109.368 27.0568Z" fill="#FAC22F"/>
<path d="M12.0107 45.2599L33.367 53.1301L21.8553 84.3675L0.499023 76.4976L12.0107 45.2599Z" fill="#53B3CC"/>
<path d="M14.358 49.5076L28.6962 54.7934L26.2069 61.5458L11.8687 56.2595L14.358 49.5076Z" fill="#46A4BC"/>
<path d="M19.3368 61.9308L25.2154 64.0978L22.8034 70.6403L16.9248 68.4729L19.3368 61.9308Z" fill="#46A4BC"/>
<path d="M15.9989 70.9866L21.8775 73.154L19.4655 79.6965L13.5869 77.5291L15.9989 70.9866Z" fill="#46A4BC"/>
<path d="M10.9369 58.9835L16.5101 61.0385L14.098 67.5805L8.5249 65.526L10.9369 58.9835Z" fill="#46A4BC"/>
<path d="M7.59951 68.0399L13.1726 70.0944L10.7606 76.6369L5.1875 74.582L7.59951 68.0399Z" fill="#46A4BC"/>
<path d="M94.6343 83.3821H102.122V98.6988H94.6343V83.3821Z" fill="#53B3CC"/>
<path d="M105.866 73.511H113.355V98.6987H105.866V73.511Z" fill="#F15846"/>
<path d="M117.779 78.2766H125.268V98.6988H117.779V78.2766Z" fill="#FAC22F"/>
<path d="M69.106 29.7728C69.106 31.9346 67.3534 33.6871 65.1919 33.6871C63.0299 33.6871 61.2773 31.9346 61.2773 29.7728C61.2773 27.611 63.0299 25.8585 65.1919 25.8585C67.3534 25.8585 69.106 27.611 69.106 29.7728Z" fill="#3E3D3D"/>
<path d="M22.1345 98.5288L13.2193 125.587C12.7115 127.129 12.7541 128.798 13.3399 130.312L14.4761 133.247H32.516L29.3511 128.089C28.4314 126.591 28.1073 124.804 28.4487 123.079C29.6464 117.028 31.5274 107.706 32.3458 104.315C33.5371 99.3797 35.0688 99.8902 37.111 95.6357C39.1533 91.3807 39.6638 91.2107 38.6427 90.1893C37.8258 89.3724 36.8274 90.5298 36.4303 91.2107C36.7707 88.147 35.9197 85.9348 33.3669 85.0839C30.8141 84.233 28.942 83.8925 26.8998 84.5734C24.8575 85.2539 23.496 88.828 23.1557 92.2316C22.8834 94.9548 22.3615 97.5641 22.1345 98.5288Z" fill="#EFCB96"/>
<path d="M91.6627 113.077L81.533 130.786L87.1457 133.247H100.08L108.778 115.505C109.758 113.507 109.731 111.161 108.704 109.186L99.2112 90.9243C98.1404 88.9092 95.9604 84.6339 95.8049 83.6551C95.1126 79.4572 94.4258 76.6312 92.6637 74.1895C91.2543 72.2361 89.3285 72.4718 88.542 72.834C86.9526 72.3676 85.856 73.3091 85.5065 73.8382C84.0032 73.7938 83.2521 74.9942 83.0648 75.5998L79.5615 70.5479C79.0306 69.7405 77.7033 68.3347 76.6429 69.1661C75.5821 69.998 75.7988 70.95 76.0395 71.3217L79.42 77.3878L79.0057 80.8127C78.8461 82.1306 79.3398 83.554 80.2075 84.5591C80.5502 84.9562 80.9641 85.4426 81.46 86.0347C83.3772 88.3235 84.9965 88.9192 85.5668 88.931L92.1709 107.214C92.8695 109.148 92.6837 111.292 91.6627 113.077Z" fill="#EFCB96"/>
<path d="M80.1915 127.709L76.5947 133.247H82.5515H92.252L80.1915 127.709Z" fill="#53B3CC"/>
<path fill-rule="evenodd" clip-rule="evenodd" d="M86.4856 43.0643L77.8573 49.6292L75.1509 44.8404L76.6768 43.978L78.3949 47.018L85.4243 41.6696L86.4856 43.0643Z" fill="#53B3CC"/>
<path d="M100.417 31.1485C100.231 30.1986 100.85 29.2777 101.8 29.0915L121.784 25.1748C122.734 24.9887 123.654 25.6078 123.841 26.5576L129.47 55.2792C129.656 56.2289 129.037 57.1497 128.087 57.336L108.104 61.2528C107.154 61.4387 106.233 60.8199 106.046 59.8697L100.417 31.1485Z" fill="#FAC22F"/>
<path fill-rule="evenodd" clip-rule="evenodd" d="M121.12 33.3773L105.74 36.4611L105.602 35.7738L120.982 32.69L121.12 33.3773ZM122.288 39.2044L106.908 42.2882L106.77 41.6008L122.15 38.5171L122.288 39.2044ZM123.456 45.0315L108.076 48.1154L107.939 47.4276L123.318 44.3441L123.456 45.0315ZM124.602 50.7442L109.222 53.8278L109.084 53.1406L124.464 50.057L124.602 50.7442Z" fill="#E9B11D"/>
<path fill-rule="evenodd" clip-rule="evenodd" d="M0 133.247C0 133.054 0.156931 132.897 0.350516 132.897H135.65C135.843 132.897 136 133.054 136 133.247C136 133.441 135.843 133.598 135.65 133.598H0.350516C0.156931 133.598 0 133.441 0 133.247Z" fill="#3E3D3D"/>
</svg>
