<svg width="143" height="138" viewBox="0 0 143 138" fill="none" xmlns="http://www.w3.org/2000/svg">
<path d="M91.4934 4.42343L69.4235 16.0547C66.6941 17.4931 63.4375 17.5201 60.6847 16.1267L46.783 9.09152C41.3771 6.35557 34.8249 9.29787 33.2772 15.1555L27.8677 35.6346C26.9019 39.2896 23.8654 42.0273 20.1301 42.611L12.0626 43.8707C4.11932 45.1106 1.19321 55.0286 7.19059 60.3824L43.7807 93.0447C45.8172 94.8628 46.9756 97.4674 46.9618 100.197L46.8208 127.535C46.7806 135.347 55.6459 139.881 61.9558 135.276L74.6884 125.983C79.627 122.379 86.6352 124.297 89.0496 129.914C92.1467 137.119 102.137 137.7 106.05 130.905L110.839 122.586C112.79 119.196 116.616 117.345 120.485 117.917L123.36 118.342C131.839 119.597 137.529 109.887 132.29 103.103L122.337 90.2133C119.617 86.6904 119.699 81.7535 122.537 78.3241L140.801 56.247C145.754 50.2598 141.837 41.1803 134.083 40.6752L112.029 39.2392C106.465 38.8769 102.402 33.8333 103.232 28.32L105.348 14.2641C106.511 6.54453 98.4002 0.783489 91.4934 4.42343Z" fill="#1EF4A6"/>
<path d="M34.3522 105.854C36.1632 109.384 37.5897 113.109 38.5303 117.016C39.0071 118.996 39.3503 121.151 38.5309 123.017C37.6359 125.054 35.498 126.318 33.3217 126.781C28.0045 127.911 22.4907 124.882 19.1422 120.599C15.7938 116.316 14.1796 110.966 12.6836 105.74C11.5055 101.625 10.3417 97.4477 8.30761 93.6566C7.43542 92.0316 2.48419 85.8326 4.60589 84.0654C7.5038 81.5604 16.3349 83.7241 22.2021 89.5553C27.0358 94.3584 31.2558 99.8189 34.3522 105.854Z" fill="black"/>
<path d="M33.3226 127.252C33.1144 127.252 32.9243 127.114 32.8667 126.903C32.8523 126.85 31.3989 121.549 28.0552 114.295C24.9732 107.609 19.6086 97.8458 11.5538 89.3111C11.3744 89.1215 11.3834 88.8222 11.5729 88.6434C11.7625 88.4647 12.0618 88.4731 12.2406 88.6626C20.3891 97.2964 25.8094 107.163 28.922 113.919C32.2944 121.24 33.7635 126.602 33.7779 126.656C33.8463 126.908 33.6975 127.167 33.4456 127.235C33.4048 127.247 33.3634 127.252 33.3226 127.252Z" fill="white"/>
<path d="M29.5119 116.989C29.5047 116.989 29.4975 116.989 29.4903 116.988C29.23 116.977 29.0278 116.756 29.0392 116.495C29.0452 116.362 29.5491 102.994 22.1043 94.3378C21.9345 94.1398 21.9567 93.8417 22.1547 93.6713C22.3526 93.5016 22.6507 93.5238 22.8205 93.7217C26.8468 98.4036 28.5791 104.358 29.3236 108.53C30.1286 113.038 29.9888 116.397 29.9822 116.538C29.972 116.791 29.7633 116.989 29.5119 116.989Z" fill="white"/>
<path d="M25.1619 109.467C23.5638 109.467 20.0481 108.698 16.3949 102.853C16.257 102.631 16.3241 102.34 16.5449 102.202C16.7662 102.063 17.0578 102.131 17.1957 102.352C21.6401 109.463 25.7593 108.47 25.8001 108.46C26.0508 108.393 26.31 108.541 26.3784 108.791C26.4467 109.041 26.3022 109.299 26.0526 109.37C26.0047 109.383 25.6861 109.467 25.1619 109.467Z" fill="white"/>
<path d="M32.1618 52.2192C32.1516 48.3309 34.8864 43.601 38.266 41.6509L67.4215 24.8261C69.1227 23.8441 70.6649 23.7529 71.7783 24.4002L74.384 25.9208C74.387 25.9226 74.39 25.9244 74.393 25.9262L74.4098 25.9358V25.9364C75.5082 26.5752 76.1896 27.9315 76.195 29.8631L76.1644 107.321C76.1746 111.204 73.4399 115.939 70.0603 117.89L40.9054 134.715C39.2042 135.696 37.6631 135.786 36.5498 135.138V135.139L33.9176 133.604C32.8187 132.965 32.1372 131.606 32.1318 129.677L32.1618 52.2192Z" fill="black"/>
<path d="M39.4316 134.52L47.144 130.068L65.1229 119.695L69.8846 116.946C73.2792 114.987 75.3703 111.365 75.3709 107.446L75.3823 29.3085C75.3823 27.1976 73.098 25.8785 71.2696 26.9331L65.0431 30.5262C64.9789 30.5634 64.9208 30.6108 64.8716 30.666L60.3642 35.748C60.315 35.8038 60.2569 35.8506 60.1927 35.8877L51.058 41.1581C50.9249 41.2349 50.7695 41.2649 50.6171 41.2439L47.5183 40.809C47.3659 40.7874 47.2105 40.818 47.0774 40.8948L41.4219 44.1586C37.9805 46.1447 35.8606 49.8158 35.86 53.7887L35.8486 132.45C35.8468 134.29 37.8378 135.44 39.4316 134.52Z" fill="white"/>
<path d="M59.6576 35.1849L53.5834 38.6911C53.2487 38.8843 52.9775 38.7697 52.9775 38.435C52.9775 38.1003 53.2487 37.6726 53.5834 37.4794L59.6576 33.9732C59.9923 33.7801 60.2634 33.8947 60.2634 34.2294C60.2634 34.5641 59.9923 34.9918 59.6576 35.1849Z" fill="white"/>
<path d="M33.609 66.3489C33.7278 66.4845 33.8291 66.6441 33.9029 66.8114C33.9869 67.001 34.0349 67.2001 34.0349 67.3831L34.0343 73.8214C34.0337 74.0625 33.9491 74.2317 33.8136 74.3109L33.2629 74.63C33.3991 74.5508 33.4836 74.3816 33.4842 74.1405L33.4848 67.7022C33.4854 67.5193 33.4368 67.3201 33.3529 67.1306C33.2791 66.9638 33.1777 66.8036 33.0589 66.6687C32.9588 66.5547 32.846 66.4575 32.726 66.3885L32.5167 66.268C32.3061 66.1462 32.1148 66.1354 31.9756 66.2164L32.5257 65.8966C32.6642 65.8157 32.8562 65.8271 33.0667 65.9482L33.2761 66.0688C33.3961 66.1384 33.5088 66.235 33.609 66.3489Z" fill="white"/>
<path d="M33.5052 67.7091L33.4584 74.1474C33.4536 74.6333 33.1123 74.824 32.6918 74.5769L32.4836 74.4545C32.0667 74.2098 31.7296 73.6207 31.7344 73.1348L31.7812 66.6966C31.786 66.2161 32.1309 66.0229 32.5478 66.2671L32.756 66.3894C33.1771 66.6372 33.5094 67.2286 33.5052 67.7091Z" fill="black"/>
<path d="M51.1643 38.6218C50.7534 38.8587 50.4217 39.434 50.4229 39.9061C50.4241 40.3781 50.7582 40.5689 51.1691 40.332C51.58 40.095 51.9123 39.5197 51.9111 39.0477C51.9099 38.5756 51.5758 38.3848 51.1643 38.6218Z" fill="white"/>
<path d="M59.5929 118.845C59.6649 118.831 59.7327 118.824 59.7933 118.824C59.9114 118.824 60.0032 118.851 60.0488 118.902C60.1166 118.978 60.1166 119.151 60.0494 119.352C59.8443 119.968 59.1034 120.621 58.4634 120.75C58.2516 120.792 58.0771 120.771 58.0087 120.693C57.9415 120.617 57.9409 120.444 58.0081 120.243C58.2162 119.617 58.9421 118.977 59.5929 118.845Z" fill="white"/>
<path d="M57.3012 121.319C57.5303 121.578 57.8723 121.716 58.2694 121.716C58.3917 121.716 58.5195 121.702 58.6509 121.676C59.6257 121.479 60.634 120.59 60.9465 119.65C61.1247 119.115 61.0557 118.614 60.757 118.276C60.4571 117.937 59.9646 117.806 59.4073 117.919C58.4331 118.116 57.4254 119.005 57.1122 119.945C56.9335 120.48 57.0025 120.981 57.3012 121.319ZM58.0084 120.244C58.2172 119.617 58.943 118.977 59.5939 118.845C59.6658 118.831 59.7336 118.824 59.7942 118.824C59.9124 118.824 60.0042 118.851 60.0497 118.902C60.1175 118.978 60.1175 119.151 60.0504 119.352C59.8452 119.968 59.1044 120.621 58.4643 120.75C58.2526 120.792 58.078 120.771 58.0096 120.693C57.9412 120.617 57.9412 120.445 58.0084 120.244Z" fill="black"/>
<path d="M36.335 65.7838L53.0494 75.4337V74.0505L36.335 56.9809V65.7838Z" fill="white"/>
<path d="M83.3779 58.4993L86.52 56.6853V55.3884L83.3779 57.203V58.4993Z" fill="white"/>
<path d="M86.1621 54.4405L69.1502 37.0668L66.0039 38.8832L81.6854 54.8988L83.0153 56.2569L86.1621 54.4405Z" fill="white"/>
<path d="M56.9824 73.7402L60.1245 71.9262V70.6275L56.9824 72.4421V73.7402Z" fill="white"/>
<path d="M39.6035 54.1254L56.6155 71.4991L59.7617 69.6827L45.0142 54.6215L42.7498 52.309L39.6035 54.1254Z" fill="white"/>
<path d="M76.7734 62.3128L79.9155 60.4982V59.2013L76.7734 61.0153V62.3128Z" fill="white"/>
<path d="M79.5616 58.2513L62.5496 40.8776L59.4033 42.6946L69.8541 53.3673L76.4153 60.0677L79.5616 58.2513Z" fill="white"/>
<path d="M92.6228 53.1615V51.8652L89.9805 53.3906V54.6869L92.6228 53.1615Z" fill="white"/>
<path d="M92.3385 50.8744L75.3265 33.5007L72.6025 35.0735L74.8622 37.3812L89.6145 52.4472L92.3385 50.8744Z" fill="white"/>
<path d="M70.1797 66.12L73.3223 64.3054V63.0079L70.1797 64.8219V66.12Z" fill="white"/>
<path d="M72.9619 62.0612L55.95 44.6876L52.8037 46.5045L69.3466 63.3995L69.8157 63.8782L72.9619 62.0612Z" fill="white"/>
<path d="M63.5762 69.9329L66.7188 68.1184V66.8209L63.5762 68.6348V69.9329Z" fill="white"/>
<path d="M66.3614 65.8724L49.35 48.4987L46.2031 50.3151L49.1304 53.3042L63.2151 67.6888L66.3614 65.8724Z" fill="white"/>
<path d="M93.3724 50.5665C93.3658 50.5623 93.358 50.5611 93.3508 50.5575L75.4895 32.3165L35.7375 55.267C35.7063 55.273 35.6757 55.2814 35.6457 55.2934C35.4573 55.3702 35.335 55.5532 35.335 55.7565V66.0735C35.335 66.2522 35.4303 66.4172 35.5851 66.5066L53.2995 76.7336C53.3769 76.7779 53.4633 76.8007 53.5497 76.8007C53.636 76.8007 53.7224 76.7785 53.7998 76.7336L93.373 53.8832C93.5278 53.7938 93.6232 53.6288 93.6232 53.4501V50.9996C93.622 50.8209 93.5266 50.6559 93.3724 50.5665ZM92.6226 51.8652V53.1615L89.9802 54.687V53.3907L92.6226 51.8652ZM45.0143 54.6216L59.7618 69.6828L56.6155 71.4992L39.6036 54.1255L42.7498 52.3091L45.0143 54.6216ZM53.0494 75.4343L36.3349 65.7843V56.9808L53.0494 74.0504V75.4343ZM60.1247 71.9263L56.9826 73.7409V72.4422L60.1247 70.6282V71.9263ZM49.1305 53.3043L46.2032 50.3152L49.3494 48.4988L66.3614 65.8725L63.2152 67.6889L49.1305 53.3043ZM66.7189 68.1184L63.5769 69.933V68.6349L66.7189 66.8209V68.1184ZM69.3463 63.3999L52.8028 46.5049L55.9491 44.6885L72.9611 62.0622L69.8148 63.8786L69.3463 63.3999ZM73.3222 64.3057L70.1801 66.1203V64.8228L73.3222 63.0088V64.3057ZM69.8538 53.3673L59.4031 42.6946L62.5493 40.8782L79.5613 58.2519L76.415 60.0683L69.8538 53.3673ZM79.9158 60.4984L76.7738 62.313V61.0155L79.9158 59.2015V60.4984ZM81.6848 54.8993L66.0027 38.8843L69.149 37.0679L86.1609 54.4416L83.0147 56.258L81.6848 54.8993ZM86.519 56.6857L83.377 58.5003V57.2034L86.519 55.3894V56.6857ZM74.8626 37.3811L72.6029 35.0734L75.3269 33.5006L92.3389 50.8743L89.6149 52.4471L74.8626 37.3811Z" fill="black"/>
<path d="M82.1404 101.485C83.7264 101.107 85.0701 100.133 85.9249 98.7445L87.4642 96.2419C88.3178 94.8544 88.5793 93.2186 88.202 91.6356C87.8499 90.1575 86.9639 88.8708 85.7078 88.0142L79.2515 83.6364C78.6127 83.2495 77.7782 83.4517 77.3859 84.0887C77.1892 84.4085 77.1304 84.7744 77.215 85.1283C77.2996 85.4822 77.5167 85.7821 77.8262 85.9723L78.2935 86.2608C78.5281 86.406 78.6013 86.7137 78.4567 86.9483C78.3121 87.1834 78.0044 87.2566 77.7692 87.1114L75.7807 85.8883C75.1413 85.4954 74.3003 85.6952 73.9068 86.3352C73.5097 86.9813 73.7058 87.8163 74.3375 88.2128L76.3356 89.4419C76.5707 89.5864 76.6439 89.8942 76.4994 90.1293C76.3548 90.3645 76.0471 90.4376 75.8119 90.2931L73.8234 89.07C73.8192 89.0676 73.815 89.0646 73.8108 89.0622L72.6303 88.3363C72.3201 88.1456 71.9542 88.0868 71.6009 88.1708C71.247 88.2554 70.9471 88.4725 70.7563 88.7826C70.7545 88.785 70.7473 88.797 70.7455 88.7994C70.358 89.4299 70.556 90.2673 71.1912 90.662L74.3789 92.6229C74.614 92.7675 74.6872 93.0752 74.5426 93.3104C74.3981 93.5455 74.0903 93.6187 73.8552 93.4741L70.6735 91.5168C70.6711 91.515 70.6681 91.5138 70.6657 91.512L65.8963 88.5781C65.6785 88.4443 65.4338 88.3753 65.1848 88.3753C65.0793 88.3753 64.9725 88.3879 64.8669 88.4131C64.513 88.4977 64.2131 88.7148 64.0223 89.025C63.6228 89.674 63.8232 90.515 64.4632 90.9085L76.3992 98.2502C76.5593 98.3486 76.6505 98.5291 76.6355 98.7163C76.6205 98.9034 76.5012 99.0666 76.3272 99.1386L70.1259 101.686C69.2987 102.012 68.8344 102.904 69.0383 103.762C69.1433 104.202 69.5866 104.474 70.0269 104.37L82.1404 101.485Z" fill="white"/>
<path d="M89.174 91.4043C88.7643 89.6833 87.7332 88.186 86.2695 87.1879L79.8024 82.8029C79.7964 82.7987 79.7898 82.7945 79.7838 82.7909C78.6747 82.1089 77.2171 82.4562 76.5284 83.5749C76.2681 83.9984 76.1499 84.4813 76.1823 84.9672C75.09 84.3811 73.7121 84.7428 73.0492 85.8214C72.7721 86.2725 72.6647 86.7806 72.7097 87.2712C72.2826 87.1177 71.8207 87.0913 71.369 87.1993C70.7554 87.3456 70.2353 87.7223 69.9096 88.252C69.9078 88.2544 69.9006 88.2664 69.8988 88.2688C69.633 88.7007 69.5239 89.1854 69.5545 89.6563L66.4202 87.7283C65.8821 87.3972 65.2481 87.2958 64.635 87.4422C64.0214 87.5886 63.5013 87.9647 63.1648 88.5123C62.4827 89.6215 62.8301 91.0791 63.9392 91.7618L75.0384 98.5888L69.7518 100.761C68.4717 101.267 67.7465 102.657 68.0656 103.995C68.2648 104.831 69.0128 105.394 69.8364 105.394C69.9756 105.394 70.1171 105.378 70.2581 105.344L82.3716 102.458C84.2174 102.018 85.7812 100.886 86.7758 99.269L88.315 96.7664C89.3084 95.1516 89.6131 93.247 89.174 91.4043ZM69.0386 103.763C68.834 102.905 69.2989 102.014 70.1261 101.688L76.3275 99.14C76.5014 99.0687 76.6208 98.9055 76.6358 98.7177C76.6508 98.5306 76.5596 98.35 76.3994 98.2516L64.4635 90.91C63.824 90.5165 63.6231 89.6755 64.0226 89.0264C64.2133 88.7163 64.5133 88.4992 64.8672 88.4146C64.9728 88.3894 65.0789 88.3768 65.1851 88.3768C65.434 88.3768 65.6794 88.4458 65.8965 88.5795L70.666 91.5134C70.6684 91.5146 70.6708 91.5164 70.6738 91.5182L73.8554 93.4756C74.0906 93.6195 74.3983 93.547 74.5429 93.3118C74.6875 93.0767 74.6143 92.7689 74.3791 92.6244L71.1915 90.6634C70.5568 90.2681 70.3589 89.4307 70.7458 88.8009C70.7476 88.7985 70.7548 88.7865 70.7566 88.7841C70.9473 88.474 71.2473 88.2568 71.6012 88.1722C71.9551 88.0877 72.3204 88.1464 72.6305 88.3378L73.8111 89.0636C73.8153 89.066 73.8195 89.069 73.8237 89.0714L75.8122 90.2945C76.0473 90.4391 76.3551 90.3659 76.4996 90.1308C76.6442 89.8956 76.571 89.5879 76.3359 89.4433L74.3377 88.2142C73.7061 87.8177 73.5099 86.9827 73.907 86.3367C74.3005 85.6972 75.1409 85.4969 75.781 85.8898L77.7695 87.1129C78.0047 87.258 78.3124 87.1843 78.457 86.9497C78.6015 86.7146 78.5289 86.4068 78.2938 86.2623L77.8265 85.9738C77.517 85.7836 77.2998 85.4837 77.2153 85.1297C77.1307 84.7758 77.1895 84.4099 77.3862 84.0902C77.7779 83.4531 78.6129 83.2516 79.2518 83.6379L85.708 88.0157C86.9641 88.8723 87.8501 90.159 88.2023 91.637C88.5796 93.22 88.3174 94.8558 87.4644 96.2433L85.9252 98.7459C85.071 100.135 83.7267 101.108 82.1407 101.486L70.0272 104.373C69.5863 104.475 69.143 104.203 69.0386 103.763Z" fill="black"/>
<path d="M4.78809 43.7155C7.54346 60.1534 13.1281 81.1662 24.2632 91.4982C29.9778 96.801 34.7593 96.9488 35.6678 96.9255C48.1764 92.802 57.1211 82.0446 62.2543 64.9459C65.3681 54.5729 66.0631 44.8524 66.2191 41.1886L34.9126 30.6158L4.78809 43.7155Z" fill="white"/>
<path d="M34.7159 26L0 41.0971L0.262679 42.7457C9.09795 98.1926 30.8373 101.234 35.4902 101.234C35.9513 101.234 36.244 101.204 36.3412 101.193L36.545 101.168L36.7407 101.105C50.638 96.637 60.8974 84.5265 66.4096 66.0816C70.503 52.3854 70.5686 40.1709 70.57 39.6579L70.5727 38.1092L34.7159 26ZM62.2532 64.9447C57.1201 82.0434 48.1767 92.8008 35.6667 96.9243C34.7569 96.9476 29.9767 96.7999 24.2621 91.497C13.127 81.1651 7.5424 60.1522 4.78702 43.7143L34.9101 30.6147L66.2167 41.1874C66.0621 44.8526 65.3671 54.573 62.2532 64.9447Z" fill="black"/>
<path d="M35.5029 91.2911C34.0363 91.2911 29.8554 90.856 25.1135 86.4562C17.6737 79.5541 12.3736 66.4653 9.36102 47.5553C9.27894 47.0422 9.5553 46.5374 10.0328 46.3308L34.5056 35.6883C34.7641 35.5761 35.0569 35.5638 35.3251 35.6541L60.6885 44.2198C61.1523 44.3758 61.4642 44.8122 61.4642 45.302C61.4642 45.6864 61.415 54.8377 58.3449 65.1082C54.231 78.8686 46.597 87.8982 36.2677 91.22C36.1993 91.2419 36.1282 91.2583 36.0556 91.2665C36.016 91.2692 35.8244 91.2911 35.5029 91.2911ZM11.7525 48.0683C13.8006 60.473 17.9993 76.5456 26.4556 84.5901C31.1386 89.0447 35.0186 89.046 35.6904 89.0077C56.8988 82.0728 58.962 51.5064 59.1603 46.1106L35.009 37.9539L11.7525 48.0683Z" fill="black"/>
<path d="M102.229 134.616C101.599 134.616 100.949 134.453 100.321 134.117C99.8774 133.878 99.2187 133.236 99.794 131.607C100.33 130.09 101.921 127.859 104.035 125.528C103.226 124.103 101.988 122.596 100.233 121.096C98.4077 119.536 96.3922 118.918 94.2441 119.259C87.6409 120.308 81.7119 129.894 81.6531 129.991C81.5091 130.226 81.2014 130.301 80.9657 130.156C80.7299 130.012 80.6561 129.705 80.8001 129.469C80.8625 129.366 82.3603 126.931 84.7364 124.322C87.9618 120.781 91.1081 118.745 94.0876 118.271C96.538 117.882 98.8246 118.577 100.883 120.335C102.532 121.745 103.836 123.242 104.748 124.76C108.39 120.917 113.284 116.989 117.094 115.676C117.116 114.893 117.189 114.123 117.313 113.384C117.938 109.686 119.799 106.834 122.695 105.136C122.934 104.996 123.24 105.076 123.379 105.314C123.519 105.552 123.439 105.858 123.201 105.998C119.874 107.948 118.699 111.182 118.299 113.55C118.199 114.144 118.134 114.76 118.104 115.385C118.882 115.21 119.599 115.168 120.231 115.286C122.605 115.734 123.024 118.207 122.957 120.202C122.843 123.594 122.213 125.332 121.03 125.516C119.968 125.682 118.892 124.458 118.073 122.16C117.483 120.504 117.149 118.614 117.095 116.744C113.542 118.118 108.76 121.964 105.249 125.679C105.539 126.269 105.77 126.86 105.937 127.449C106.52 129.502 106.305 131.484 105.345 132.887C104.574 134.016 103.437 134.616 102.229 134.616ZM104.516 126.474C102.644 128.553 101.234 130.531 100.737 131.94C100.565 132.425 100.436 133.044 100.794 133.236C102.174 133.976 103.636 133.617 104.52 132.324C105.441 130.976 105.592 128.875 104.516 126.474ZM118.086 116.418C118.109 118.278 118.427 120.175 119.015 121.825C119.712 123.782 120.525 124.586 120.875 124.529C121.201 124.479 121.846 123.502 121.958 120.169C122.076 116.652 120.547 116.364 120.045 116.27C119.485 116.164 118.822 116.223 118.086 116.418Z" fill="black"/>
<path d="M81.2971 15.8984C80.906 15.8984 80.5221 15.8444 80.1598 15.7316C79.062 15.3897 78.3614 14.5553 78.2378 13.4432C78.0345 11.6124 80.879 9.0738 83.4194 7.19564C82.6378 6.58558 81.4729 6.16688 79.9348 5.94494C76.0165 5.37927 69.7636 6.15668 62.7801 8.07743C61.3662 8.46614 60.0465 8.86804 58.836 9.26995C58.9788 11.4396 57.7239 12.7773 56.7539 13.4785C54.7528 14.9248 50.9155 15.5793 49.7332 14.2668C49.5106 14.0202 49.0877 13.3418 49.9557 12.3712C50.8681 11.3515 53.8284 9.93639 57.7221 8.59211C57.5751 7.92567 57.2878 7.21363 56.8583 6.46141C56.1864 5.28329 55.1541 4.54427 53.7006 4.20055C45.8287 2.33919 29.4496 13.1738 29.2852 13.2836C29.0555 13.4366 28.7453 13.3748 28.5918 13.145C28.4388 12.9153 28.5006 12.6052 28.7303 12.4516C29.4166 11.9939 45.6361 1.26544 53.9298 3.22758C55.6436 3.63308 56.9207 4.55446 57.7257 5.96653C58.2056 6.80873 58.5103 7.57475 58.6783 8.26938C59.8906 7.86988 61.1791 7.48057 62.5137 7.11346C69.6251 5.15732 76.0261 4.37091 80.0764 4.95517C81.9276 5.22211 83.3258 5.77098 84.255 6.59158C87.3389 4.4195 91.0484 2.35898 94.0855 1.14007C97.4219 -0.198211 99.42 -0.356574 100.193 0.655986C100.361 0.875534 100.319 1.18926 100.1 1.35662C99.8801 1.52398 99.5664 1.48199 99.399 1.26244C99.0817 0.846742 97.597 0.80835 94.458 2.06745C91.2397 3.35835 87.7492 5.34688 84.922 7.339C85.036 7.50517 85.1362 7.67912 85.2226 7.86088C86.832 11.2519 85.7241 13.3118 84.9202 14.238C84.0127 15.2859 82.6144 15.8984 81.2971 15.8984ZM84.1116 7.92627C81.1513 10.1139 79.1082 12.2248 79.2312 13.3334C79.3326 14.2428 79.9534 14.6207 80.4573 14.7778C81.6564 15.151 83.2508 14.6387 84.1662 13.5847C85.2778 12.304 85.3323 10.4241 84.3204 8.29158C84.2604 8.16441 84.1908 8.04324 84.1116 7.92627ZM57.8372 9.61067C53.9634 10.9639 51.384 12.2746 50.7013 13.0383C50.5658 13.19 50.3558 13.4642 50.4764 13.5979C51.0193 14.2002 54.1265 14.145 56.1684 12.6687C57.2764 11.8685 57.8336 10.8356 57.8372 9.61067Z" fill="black"/>
</svg>
