<svg width="46" height="43" viewBox="0 0 46 43" fill="none" xmlns="http://www.w3.org/2000/svg">
<rect width="46" height="43" rx="8" fill="#CBFFEB"/>
<path d="M23 18C23 17.7348 23.1054 17.4804 23.2929 17.2929C23.4804 17.1054 23.7348 17 24 17C24.2652 17 24.5196 17.1054 24.7071 17.2929C24.8946 17.4804 25 17.7348 25 18V22C25 22.2652 24.8946 22.5196 24.7071 22.7071C24.5196 22.8946 24.2652 23 24 23H20C19.7348 23 19.4804 22.8946 19.2929 22.7071C19.1054 22.5196 19 22.2652 19 22C19 21.7348 19.1054 21.4804 19.2929 21.2929C19.4804 21.1054 19.7348 21 20 21H23V18Z" fill="#00AC6B"/>
<path fill-rule="evenodd" clip-rule="evenodd" d="M33 21C33 26.523 28.523 31 23 31C17.477 31 13 26.523 13 21C13 15.477 17.477 11 23 11C28.523 11 33 15.477 33 21ZM31 21C31 23.1217 30.1571 25.1566 28.6569 26.6569C27.1566 28.1571 25.1217 29 23 29C20.8783 29 18.8434 28.1571 17.3431 26.6569C15.8429 25.1566 15 23.1217 15 21C15 18.8783 15.8429 16.8434 17.3431 15.3431C18.8434 13.8429 20.8783 13 23 13C25.1217 13 27.1566 13.8429 28.6569 15.3431C30.1571 16.8434 31 18.8783 31 21Z" fill="#00AC6B"/>
</svg>
