<svg width="16" height="16" viewBox="0 0 16 16" fill="none" xmlns="http://www.w3.org/2000/svg">
<path d="M11.468 5.26576L7.99601 8.80276L4.52301 5.26676C4.4408 5.18292 4.3427 5.11631 4.23444 5.07084C4.12618 5.02537 4.00993 5.00195 3.89251 5.00195C3.77509 5.00195 3.65885 5.02537 3.55058 5.07084C3.44232 5.11631 3.34422 5.18292 3.26201 5.26676C3.09464 5.43856 3.00098 5.66892 3.00098 5.90876C3.00098 6.14861 3.09464 6.37897 3.26201 6.55076L7.36901 10.7328C7.45102 10.8171 7.54912 10.8842 7.6575 10.93C7.76589 10.9758 7.88235 10.9994 8.00001 10.9994C8.11767 10.9994 8.23414 10.9758 8.34252 10.93C8.4509 10.8842 8.549 10.8171 8.63101 10.7328L12.738 6.55076C12.9057 6.37892 12.9995 6.14835 12.9995 5.90826C12.9995 5.66818 12.9057 5.4376 12.738 5.26576C12.5695 5.09759 12.3411 5.00314 12.103 5.00314C11.8649 5.00314 11.6365 5.09759 11.468 5.26576Z" fill="white"/>
</svg>
