<svg width="191" height="150" viewBox="0 0 191 150" fill="none" xmlns="http://www.w3.org/2000/svg">
<path d="M162.821 72.4762V67.1467C162.821 66.1304 162.418 65.1558 161.699 64.4372C160.981 63.7186 160.006 63.3149 158.99 63.3148H154.84C154.337 63.3148 153.839 63.2157 153.374 63.0232C152.909 62.8306 152.487 62.5483 152.131 62.1925C151.775 61.8367 151.493 61.4143 151.3 60.9494C151.108 60.4845 151.009 59.9862 151.009 59.483V54.1535C151.009 53.1373 151.412 52.1626 152.131 51.444C152.849 50.7254 153.824 50.3217 154.84 50.3217H155.267C155.77 50.3217 156.268 50.2226 156.733 50.03C157.198 49.8374 157.621 49.5552 157.976 49.1993C158.332 48.8435 158.614 48.4211 158.807 47.9562C158.999 47.4913 159.099 46.993 159.099 46.4898V41.1604C159.099 40.1441 158.695 39.1694 157.976 38.4508C157.258 37.7322 156.283 37.3285 155.267 37.3285H43.3918C42.8886 37.3285 42.3904 37.4276 41.9255 37.6202C41.4607 37.8127 41.0383 38.095 40.6825 38.4508C40.3267 38.8066 40.0445 39.2291 39.8519 39.694C39.6594 40.1589 39.5603 40.6572 39.5603 41.1604V46.4898C39.5603 46.993 39.6594 47.4913 39.8519 47.9562C40.0445 48.4211 40.3267 48.8435 40.6825 49.1993C41.0383 49.5552 41.4607 49.8374 41.9255 50.03C42.3904 50.2226 42.8886 50.3217 43.3918 50.3217C43.8949 50.3217 44.3932 50.4208 44.858 50.6134C45.3229 50.8059 45.7452 51.0882 46.101 51.444C46.4568 51.7998 46.739 52.2222 46.9316 52.6872C47.1241 53.1521 47.2232 53.6503 47.2232 54.1535V59.483C47.2232 59.9862 47.1241 60.4845 46.9316 60.9494C46.739 61.4143 46.4568 61.8367 46.101 62.1925C45.7452 62.5484 45.3229 62.8306 44.858 63.0232C44.3932 63.2157 43.8949 63.3149 43.3918 63.3149H28.5751C28.072 63.3149 27.5737 63.414 27.1089 63.6065C26.644 63.7991 26.2217 64.0814 25.8659 64.4372C25.5101 64.793 25.2279 65.2154 25.0353 65.6803C24.8428 66.1452 24.7437 66.6435 24.7437 67.1467V72.4762C24.7437 72.9794 24.8428 73.4777 25.0353 73.9426C25.2279 74.4075 25.5101 74.8299 25.8659 75.1857C26.2217 75.5415 26.644 75.8238 27.1089 76.0164C27.5737 76.2089 28.072 76.308 28.5751 76.308H34.389C34.8921 76.308 35.3903 76.4072 35.8552 76.5997C36.3201 76.7923 36.7424 77.0745 37.0982 77.4304C37.454 77.7862 37.7362 78.2086 37.9288 78.6735C38.1213 79.1384 38.2204 79.6367 38.2204 80.1399V85.4694C38.2204 86.4857 37.8168 87.4603 37.0982 88.1789C36.3797 88.8975 35.4051 89.3013 34.389 89.3013H34.3749C33.3587 89.3013 32.3842 89.705 31.6656 90.4236C30.9471 91.1422 30.5434 92.1168 30.5434 93.1331V98.4625C30.5434 98.9657 30.6425 99.464 30.8351 99.9289C31.0276 100.394 31.3098 100.816 31.6656 101.172C32.0214 101.528 32.4438 101.81 32.9087 102.003C33.3735 102.195 33.8717 102.294 34.3749 102.294H35.216C35.7192 102.294 36.2174 102.394 36.6823 102.586C37.1471 102.779 37.5695 103.061 37.9253 103.417C38.2811 103.773 38.5633 104.195 38.7558 104.66C38.9484 105.125 39.0475 105.623 39.0475 106.126V111.456C39.0475 112.472 38.6438 113.447 37.9253 114.165C37.2068 114.884 36.2322 115.288 35.216 115.288H33.129C32.6258 115.288 32.1276 115.387 31.6628 115.579C31.1979 115.772 30.7755 116.054 30.4197 116.41C30.064 116.766 29.7817 117.188 29.5892 117.653C29.3966 118.118 29.2975 118.616 29.2975 119.119V124.449C29.2975 125.465 29.7012 126.44 30.4197 127.158C31.1383 127.877 32.1128 128.281 33.129 128.281H160.253C161.27 128.281 162.244 127.877 162.963 127.158C163.681 126.44 164.085 125.465 164.085 124.449V119.119C164.085 118.103 163.681 117.129 162.963 116.41C162.244 115.691 161.27 115.288 160.253 115.288H154.002C153.499 115.288 153.001 115.188 152.536 114.996C152.071 114.803 151.648 114.521 151.293 114.165C150.937 113.809 150.655 113.387 150.462 112.922C150.27 112.457 150.171 111.959 150.171 111.456V106.126C150.171 105.11 150.574 104.135 151.293 103.417C152.011 102.698 152.986 102.294 154.002 102.294H161.835C162.338 102.294 162.836 102.195 163.301 102.003C163.766 101.81 164.189 101.528 164.544 101.172C164.9 100.816 165.182 100.394 165.375 99.9289C165.567 99.464 165.667 98.9657 165.667 98.4625V93.1331C165.667 92.6299 165.567 92.1316 165.375 91.6667C165.182 91.2018 164.9 90.7794 164.544 90.4236C164.189 90.0677 163.766 89.7855 163.301 89.5929C162.836 89.4004 162.338 89.3012 161.835 89.3012H159.459C158.443 89.3012 157.468 88.8975 156.75 88.1789C156.031 87.4603 155.627 86.4857 155.627 85.4694V80.1399C155.627 79.1236 156.031 78.149 156.75 77.4304C157.468 76.7118 158.443 76.308 159.459 76.308H158.99C160.006 76.308 160.981 75.9043 161.699 75.1857C162.418 74.4671 162.821 73.4924 162.821 72.4762Z" fill="#DBE8EC"/>
<path d="M93.223 128.043C121.312 128.043 144.082 105.27 144.082 77.1784C144.082 49.0867 121.312 26.3138 93.223 26.3138C65.1342 26.3138 42.3638 49.0867 42.3638 77.1784C42.3638 105.27 65.1342 128.043 93.223 128.043Z" fill="#DBE8EC"/>
<path d="M156.13 125.155H95.75L98.0012 119.658H153.334L156.13 125.155Z" fill="#B9D4DB"/>
<path d="M82.6528 114.345H74.4992L72.7082 112.619C71.9762 111.913 71.5375 110.957 71.4797 109.942C71.4219 108.927 71.7492 107.927 72.3963 107.143L72.6529 106.832C72.9536 106.468 73.1208 106.011 73.127 105.539C73.1332 105.067 72.9779 104.606 72.6869 104.234L72.6843 104.231C72.4631 103.948 72.3191 103.613 72.2665 103.257C72.2138 102.902 72.2543 102.539 72.384 102.204L74.4992 96.7419H82.6528L84.7676 102.203C84.8974 102.538 84.9378 102.902 84.885 103.257C84.8321 103.613 84.6878 103.948 84.4662 104.231C84.1747 104.603 84.019 105.064 84.025 105.536C84.0309 106.009 84.198 106.465 84.4987 106.83L84.757 107.143C85.4038 107.927 85.7309 108.927 85.6729 109.942C85.615 110.957 85.1763 111.913 84.4444 112.618L82.6528 114.345Z" fill="#F9AE2B"/>
<path d="M75.17 110.741C74.438 110.035 73.9993 109.079 73.9414 108.064C73.8836 107.049 74.211 106.05 74.858 105.265L75.1157 104.953C75.4163 104.589 75.5834 104.133 75.5894 103.661C75.5954 103.188 75.4399 102.728 75.1487 102.356L75.1461 102.353C74.9248 102.071 74.7807 101.735 74.728 101.38C74.6752 101.025 74.7156 100.663 74.8453 100.328L76.2339 96.7419H74.4992L72.3835 102.206C72.2539 102.54 72.2135 102.903 72.2662 103.258C72.319 103.613 72.4631 103.948 72.6844 104.231L72.6869 104.234C72.9781 104.606 73.1336 105.066 73.1276 105.538C73.1216 106.011 72.9545 106.467 72.6539 106.831L72.3963 107.143C71.7492 107.927 71.4219 108.927 71.4797 109.942C71.5375 110.957 71.9763 111.913 72.7082 112.619L74.4992 114.345H82.6528L84.4445 112.618C84.4946 112.57 84.5391 112.518 84.5862 112.468H79.4488C77.8528 112.468 76.319 111.849 75.17 110.741Z" fill="#EA9918"/>
<path d="M92.1472 125.155H64.9515C64.8175 125.155 64.6866 125.115 64.5755 125.04C64.4645 124.965 64.3783 124.859 64.3282 124.735C64.278 124.61 64.2661 124.474 64.294 124.343C64.3219 124.212 64.3883 124.092 64.4848 123.999L65.767 123.179C69.2967 120.922 72.2769 117.904 74.4895 114.346H82.6092C84.8217 117.904 87.802 120.922 91.3316 123.179L92.6139 123.999C92.7103 124.092 92.7767 124.212 92.8046 124.343C92.8325 124.474 92.8207 124.61 92.7705 124.735C92.7203 124.859 92.6342 124.965 92.5232 125.04C92.4121 125.115 92.2812 125.155 92.1472 125.155Z" fill="#F9AE2B"/>
<path d="M91.3317 123.179C90.8686 122.883 90.4153 122.574 89.9718 122.251H72.0819C71.9479 122.251 71.817 122.211 71.7059 122.136C71.5949 122.061 71.5087 121.955 71.4586 121.83C71.4084 121.706 71.3965 121.57 71.4244 121.439C71.4523 121.308 71.5187 121.188 71.6151 121.095L72.8975 120.275C75.4141 118.665 77.6578 116.663 79.5438 114.346H74.4895C72.2769 117.904 69.2967 120.922 65.767 123.179L64.4848 123.999C64.3883 124.092 64.3219 124.212 64.294 124.343C64.2661 124.474 64.278 124.61 64.3282 124.735C64.3783 124.859 64.4645 124.965 64.5755 125.04C64.6866 125.115 64.8175 125.155 64.9515 125.155H92.1472C92.2812 125.155 92.4121 125.115 92.5231 125.04C92.6342 124.965 92.7203 124.859 92.7705 124.735C92.8206 124.61 92.8325 124.474 92.8046 124.343C92.7767 124.212 92.7103 124.092 92.6139 123.999L91.3317 123.179Z" fill="#EA9918"/>
<path d="M60.5889 39.2764C61.0474 39.8734 61.4832 40.4822 61.9312 41.0846L63.2366 42.912C64.1042 44.1316 64.9506 45.3622 65.7868 46.5981C67.1293 49.2409 68.5095 51.8643 69.869 54.4984L78.055 70.2877L86.2411 86.0769L90.3342 93.9716C90.8552 95.3709 91.3762 96.7703 91.8737 98.1818L92.6191 100.299C92.8568 101.011 93.1046 101.717 93.3332 102.434C92.8796 101.834 92.4452 101.224 92.0007 100.62L90.6997 98.7906C89.8328 97.5706 88.9894 96.3384 88.1462 95.1062L84.0531 87.2116L75.867 71.4223L67.681 55.633C66.3118 53.004 64.9632 50.3642 63.577 47.744C63.0489 46.3483 62.5309 44.9474 62.0342 43.5355L61.293 41.4155C61.0589 40.7022 60.8125 39.9952 60.5889 39.2764Z" fill="#EE781D"/>
<path d="M78.5763 103.666C71.0434 103.663 63.7298 101.129 57.8088 96.472C51.8877 91.8147 47.7022 85.3036 45.9236 77.9828C44.1451 70.6621 44.8765 62.9562 48.0007 56.1009C51.1248 49.2457 56.4606 43.6385 63.1521 40.1786C63.4425 40.029 63.7803 40.0008 64.0915 40.1002C64.4026 40.1995 64.6616 40.4184 64.8115 40.7086C64.9614 40.9989 64.9899 41.3367 64.8908 41.648C64.7918 41.9593 64.5732 42.2185 64.2831 42.3686C56.9511 46.1554 51.4211 52.697 48.907 60.5575C46.3929 68.418 47.1003 76.955 50.8738 84.2944C54.6474 91.6338 61.1787 97.1758 69.0339 99.7038C76.8892 102.232 85.4266 101.539 92.7718 97.7782C93.0627 97.6293 93.4008 97.602 93.7118 97.7024C94.0229 97.8028 94.2813 98.0227 94.4302 98.3136C94.5791 98.6045 94.6064 98.9427 94.506 99.2538C94.4056 99.5648 94.1858 99.8232 93.8949 99.9722C89.1515 102.395 83.9023 103.66 78.5763 103.666Z" fill="#409CB5"/>
<path d="M78.576 97.1902C93.5645 97.1902 105.715 85.0384 105.715 70.0484C105.715 55.0584 93.5645 42.9066 78.576 42.9066C63.5876 42.9066 51.437 55.0584 51.437 70.0484C51.437 85.0384 63.5876 97.1902 78.576 97.1902Z" fill="#409CB5"/>
<path d="M79.3694 102.872L79.3475 101.976C80.2295 101.955 81.1194 101.896 81.9924 101.802L82.0885 102.693C81.1908 102.79 80.276 102.85 79.3694 102.872ZM76.6454 102.825C75.7404 102.771 74.8286 102.679 73.935 102.55L74.0627 101.663C74.9316 101.788 75.8184 101.878 76.6984 101.93L76.6454 102.825ZM84.7834 102.29L84.6138 101.41C85.4793 101.243 86.3473 101.038 87.1936 100.801L87.4356 101.664C86.5654 101.908 85.6732 102.118 84.7834 102.29ZM71.2569 102.048C70.3761 101.844 69.4925 101.6 68.6305 101.323L68.9051 100.47C69.7432 100.739 70.6025 100.977 71.4589 101.175L71.2569 102.048ZM90.0268 100.82L89.7141 99.9801C90.5393 99.6729 91.3614 99.3274 92.1579 98.9532L92.539 99.7641C91.7204 100.149 90.8751 100.504 90.0268 100.82ZM66.0726 100.379C65.239 100.032 64.4081 99.6433 63.6029 99.2258L64.0154 98.4302C64.7988 98.8363 65.607 99.2138 66.4176 99.5521L66.0726 100.379ZM61.2375 97.8724C60.4724 97.3916 59.7168 96.8723 58.9918 96.329L59.5292 95.6117C60.2346 96.1404 60.9698 96.6456 61.7143 97.1135L61.2375 97.8724ZM56.8802 94.607C56.2034 94.0074 55.5426 93.3724 54.9162 92.7192L55.563 92.0986C56.1727 92.7345 56.8157 93.3527 57.4744 93.9361L56.8802 94.607ZM53.1126 90.6776C52.5414 89.9753 51.9927 89.2412 51.4818 88.4956L52.2209 87.9888C52.7182 88.7142 53.2521 89.4285 53.8079 90.1121L53.1126 90.6776ZM50.0355 86.1877C49.5869 85.4016 49.166 84.5876 48.7844 83.7683L49.5968 83.3898C49.968 84.187 50.3774 84.9787 50.8138 85.7435L50.0355 86.1877ZM47.7386 81.2538C47.4262 80.4043 47.1462 79.5318 46.9067 78.6611L47.7708 78.4235C48.0037 79.2701 48.2759 80.1183 48.5797 80.9444L47.7386 81.2538ZM46.2952 76.0057C46.1294 75.1159 45.9996 74.2084 45.9092 73.3084L46.8009 73.2191C46.8888 74.0942 47.015 74.9765 47.1763 75.8415L46.2952 76.0057ZM45.7506 70.5888C45.7475 70.4092 45.746 70.229 45.7461 70.0483C45.7461 69.3233 45.7706 68.5883 45.8188 67.8638L46.7131 67.9233C46.6662 68.6281 46.6423 69.343 46.6423 70.0483C46.6423 70.224 46.6437 70.3992 46.6466 70.5739L45.7506 70.5888ZM46.9998 65.2875L46.1137 65.1536C46.2491 64.2575 46.4238 63.357 46.6331 62.4773L47.5051 62.6848C47.3015 63.5404 47.1316 64.4159 46.9998 65.2875ZM48.2247 60.1333L47.3729 59.8545C47.6547 58.9938 47.9759 58.1349 48.3278 57.3017L49.1533 57.6505C48.8112 58.461 48.4988 59.2963 48.2247 60.1333ZM50.2844 55.2526L49.4904 54.8368C49.9096 54.0359 50.3679 53.242 50.8524 52.477L51.6095 52.9566C51.1381 53.7009 50.6923 54.4733 50.2844 55.2526ZM53.1195 50.7782L52.4046 50.2377C52.9497 49.5167 53.5324 48.809 54.1363 48.1341L54.8041 48.732C54.2165 49.3884 53.6497 50.0769 53.1195 50.7782ZM56.6519 46.833L56.0359 46.1818C56.6938 45.5594 57.3852 44.9578 58.0908 44.3935L58.6505 45.0937C57.9641 45.6426 57.2916 46.2277 56.6519 46.833ZM60.7864 43.5263L60.2868 42.7823C61.0368 42.2788 61.8181 41.8 62.6092 41.3597L63.0452 42.1426C62.2758 42.5711 61.5158 43.0366 60.7864 43.5263Z" fill="#25788E"/>
<path d="M79.6014 49.2999C79.1114 50.1418 78.2369 51.6396 76.586 52.195C75.1185 52.6876 74.1636 52.0543 71.8819 52.3156C70.5023 52.474 69.6354 52.572 68.7459 53.1601C67.4542 54.0145 67.5321 54.9519 66.5747 55.9345C64.5091 58.0556 60.6368 57.3067 60.4232 57.2615C58.7754 56.8894 57.2801 56.0242 56.1362 54.781C58.623 51.1199 61.9684 48.1235 65.88 46.0536C69.7917 43.9836 74.1507 42.9031 78.5762 42.9065C79.2546 42.9065 79.9306 42.9316 80.5965 42.9794C80.8629 44.6355 80.9056 47.0657 79.6014 49.2999Z" fill="#25788E"/>
<path d="M71.2788 59.7947C73.1734 57.4522 75.1234 55.0411 77.5509 55.3314C79.4649 55.5603 81.2455 57.4172 81.6519 59.3122C82.1595 61.679 80.236 62.7659 80.9283 64.9818C81.3989 66.4887 82.3778 66.2725 83.8231 68.4801C84.5058 69.523 85.6588 71.284 85.5117 73.5466C85.478 74.0642 85.204 77.2597 82.4963 78.6131C80.7168 79.5025 78.4885 79.2953 77.0685 78.2512C75.4281 77.045 75.955 75.5228 74.4148 74.7529C73.0107 74.051 72.1932 75.1266 69.8314 74.6323C68.9608 74.45 67.3538 74.1137 66.5747 72.9434C65.5044 71.3359 66.5434 68.9762 68.1427 65.3437C69.0437 63.2976 69.7581 61.675 71.2788 59.7947Z" fill="#25788E"/>
<path d="M105.715 70.0483C105.716 72.3404 105.428 74.6236 104.858 76.8438C102.363 77.4318 99.4228 77.3313 97.0909 75.8385C96.4023 75.3987 94.6433 74.2729 94.1961 72.3402C93.8593 70.8826 94.593 70.375 94.6785 67.7563C94.7162 66.5676 94.7665 65.0346 94.0754 63.4136C93.2688 61.5212 92.2888 61.4785 91.6631 60.036C90.7283 57.8822 91.6782 55.153 92.7486 53.6426C93.8894 52.0342 95.661 51.1194 97.5984 50.6922C100.173 53.2148 102.217 56.2266 103.611 59.5506C105.005 62.8746 105.72 66.4438 105.715 70.0483Z" fill="#25788E"/>
<path d="M87.0797 84.8859C86.4966 83.9234 86.6597 82.311 87.4416 81.7495C88.1592 81.2341 88.9876 81.8991 89.9746 81.267C90.6981 80.8035 90.5444 80.2593 91.1808 79.94C92.0588 79.4995 93.5064 79.9559 94.1962 80.9051C95.0845 82.1273 94.5386 83.922 93.7137 84.8859C92.0404 86.8409 88.141 86.6375 87.0797 84.8859Z" fill="#25788E"/>
<path d="M79.0435 97.1826C78.8876 97.1876 78.7318 97.1901 78.576 97.1901C74.2178 97.1932 69.9232 96.1452 66.0562 94.1349C62.1892 92.1247 58.8639 89.2115 56.3623 85.6423C56.7327 84.6485 57.2925 83.7361 58.0108 82.9558C58.2319 82.717 60.996 79.8345 64.2829 80.5432C65.4228 80.8217 66.4652 81.4055 67.2983 82.232C68.3588 83.3127 68.1074 83.9183 68.987 84.6446C70.1404 85.5971 71.133 85.0166 73.5704 85.489C74.9475 85.7554 76.8849 86.1324 78.1539 87.5398C79.4555 88.9823 79.4681 90.8571 79.4807 92.7268C79.4883 93.6291 79.5008 95.4963 79.0435 97.1826Z" fill="#25788E"/>
<path d="M45.179 78.4987C44.8295 78.9688 44.4946 79.4488 44.1657 79.9315C43.8359 80.4135 43.5201 80.9037 43.2182 81.4021C43.1915 81.4463 43.1485 81.478 43.0984 81.4904C43.0484 81.5028 42.9955 81.4948 42.9514 81.4681C42.9072 81.4415 42.8755 81.3985 42.8631 81.3484C42.8507 81.2984 42.8587 81.2455 42.8854 81.2014C42.8876 81.1977 42.8901 81.1937 42.8926 81.1903C43.2312 80.7065 43.5833 80.2338 43.9489 79.7721C44.3145 79.3105 44.6987 78.8645 45.0881 78.4248C45.0981 78.4135 45.1121 78.4065 45.1272 78.4052C45.1422 78.404 45.1572 78.4086 45.169 78.4182C45.1807 78.4277 45.1883 78.4414 45.1902 78.4564C45.1921 78.4714 45.1881 78.4866 45.179 78.4987Z" fill="#DBE8EC"/>
<path d="M41.6394 84.4972C41.1923 85.5479 40.8858 86.6529 40.7277 87.7837C40.7215 87.8339 40.7054 87.8824 40.6804 87.9264C40.6554 87.9704 40.622 88.0091 40.582 88.0402C40.5421 88.0712 40.4964 88.0942 40.4476 88.1076C40.3988 88.121 40.3479 88.1247 40.2977 88.1185C40.2474 88.1122 40.1989 88.0961 40.1549 88.0711C40.1109 88.0461 40.0723 88.0127 40.0412 87.9727C40.0101 87.9328 39.9872 87.8871 39.9738 87.8383C39.9604 87.7896 39.9567 87.7386 39.9629 87.6884L39.9648 87.6749C40.1747 86.4865 40.551 85.3336 41.0826 84.2502C41.1165 84.1782 41.1773 84.1224 41.2519 84.0946C41.3264 84.0668 41.4089 84.0693 41.4817 84.1016C41.5544 84.1339 41.6117 84.1933 41.6411 84.2673C41.6706 84.3412 41.67 84.4237 41.6394 84.4972Z" fill="#DBE8EC"/>
<path d="M41.0748 91.0341C41.1972 91.2744 41.2943 91.5266 41.4318 91.7576C41.5703 91.988 41.7262 92.2074 41.8982 92.4139C42.2486 92.8279 42.6547 93.1914 43.1049 93.4939C43.2125 93.5671 43.2865 93.68 43.3108 93.8078C43.3351 93.9356 43.3076 94.0678 43.2345 94.1753C43.1613 94.2829 43.0484 94.3569 42.9206 94.3812C42.7928 94.4055 42.6606 94.378 42.5531 94.3049L42.5432 94.2979C42.0282 93.9325 41.5663 93.4975 41.1709 93.0052C40.9738 92.7562 40.7961 92.4925 40.6394 92.2163C40.4838 91.9394 40.3727 91.6407 40.2401 91.3537C40.1914 91.2481 40.186 91.1275 40.2251 91.0179C40.2642 90.9083 40.3447 90.8185 40.4493 90.7676C40.5539 90.7167 40.6743 90.7088 40.7847 90.7457C40.895 90.7825 40.9865 90.8612 41.0396 90.9648L41.0748 91.0341Z" fill="#DBE8EC"/>
<path d="M46.1575 94.7983C47.2654 95.0624 48.3947 95.2266 49.5319 95.2891C49.6702 95.2981 49.7994 95.3614 49.8912 95.4654C49.983 95.5693 50.0298 95.7054 50.0215 95.8438C50.0132 95.9822 49.9504 96.1117 49.8469 96.204C49.7434 96.2962 49.6075 96.3437 49.4691 96.336C48.2643 96.2756 47.0687 96.0938 45.9004 95.7934C45.7685 95.7593 45.6555 95.6742 45.5863 95.5568C45.5171 95.4393 45.4974 95.2992 45.5315 95.1673C45.5656 95.0353 45.6507 94.9223 45.7681 94.8531C45.8855 94.7839 46.0256 94.7642 46.1575 94.7983Z" fill="#DBE8EC"/>
<path d="M52.9832 95.2964C54.1366 95.2362 55.2902 95.1352 56.4439 94.9934C56.5577 94.9794 56.6725 95.0106 56.7636 95.0801C56.8548 95.1497 56.9151 95.2521 56.9318 95.3655C56.9485 95.4789 56.9201 95.5944 56.8528 95.6872C56.7856 95.7801 56.6846 95.8429 56.5717 95.8623C55.4039 96.067 54.2265 96.2126 53.044 96.2985C52.9112 96.3077 52.7802 96.2638 52.6798 96.1764C52.5793 96.089 52.5177 95.9653 52.5085 95.8325C52.4993 95.6996 52.5432 95.5686 52.6306 95.4682C52.718 95.3677 52.8417 95.3061 52.9745 95.2969L52.9832 95.2964Z" fill="#DBE8EC"/>
<path d="M59.8899 94.4457L63.3064 93.6937L63.3209 93.6905C63.3917 93.675 63.4658 93.6877 63.5274 93.7261C63.5889 93.7645 63.633 93.8254 63.6503 93.8959C63.6675 93.9663 63.6565 94.0407 63.6196 94.1032C63.5827 94.1657 63.5229 94.2112 63.4529 94.2301L60.0415 95.1496C59.9493 95.1744 59.851 95.1615 59.7683 95.1138C59.6856 95.0662 59.6251 94.9876 59.6003 94.8954C59.5755 94.8032 59.5882 94.705 59.6358 94.6222C59.6834 94.5394 59.7619 94.4789 59.854 94.454C59.859 94.4526 59.864 94.4514 59.869 94.4502L59.8899 94.4457Z" fill="#DBE8EC"/>
<path d="M66.6826 92.7541C67.7928 92.39 68.898 92.0088 70.0039 91.6297L70.011 91.6273C70.0564 91.6117 70.1061 91.6147 70.1492 91.6356C70.1924 91.6566 70.2254 91.6938 70.2412 91.7391C70.257 91.7844 70.2541 91.8341 70.2333 91.8774C70.2125 91.9206 70.1754 91.9538 70.1302 91.9697C69.0231 92.3608 67.9155 92.7496 66.8127 93.1556C66.7867 93.1652 66.7591 93.1695 66.7314 93.1684C66.7037 93.1673 66.6765 93.1608 66.6513 93.1491C66.6262 93.1375 66.6035 93.121 66.5848 93.1007C66.566 93.0803 66.5514 93.0564 66.5418 93.0304C66.5322 93.0044 66.5279 92.9768 66.529 92.9491C66.5301 92.9214 66.5366 92.8942 66.5483 92.869C66.5599 92.8438 66.5764 92.8212 66.5967 92.8024C66.6171 92.7836 66.641 92.769 66.667 92.7594L66.6732 92.7572L66.6826 92.7541Z" fill="#DBE8EC"/>
<path d="M73.2669 90.3416C74.3383 89.8724 75.4015 89.3848 76.4682 88.9067L76.4753 88.9036C76.501 88.8921 76.5288 88.8857 76.5569 88.8849C76.5851 88.8841 76.6132 88.8889 76.6395 88.8989C76.6659 88.9089 76.69 88.9241 76.7105 88.9434C76.731 88.9628 76.7475 88.986 76.759 89.0117C76.7705 89.0375 76.7769 89.0652 76.7777 89.0934C76.7785 89.1216 76.7737 89.1497 76.7637 89.176C76.7536 89.2024 76.7385 89.2265 76.7191 89.247C76.6998 89.2675 76.6766 89.284 76.6509 89.2955L76.6475 89.297C75.5674 89.7588 74.4839 90.2111 73.4084 90.6817C73.3862 90.6915 73.3623 90.6968 73.3381 90.6974C73.3139 90.6979 73.2898 90.6936 73.2672 90.6849C73.2446 90.6761 73.224 90.6629 73.2065 90.6461C73.189 90.6293 73.175 90.6093 73.1653 90.5871C73.1556 90.5649 73.1504 90.541 73.1499 90.5167C73.1495 90.4925 73.1538 90.4684 73.1627 90.4459C73.1716 90.4233 73.1848 90.4027 73.2016 90.3853C73.2185 90.3679 73.2386 90.354 73.2608 90.3443L73.2669 90.3416Z" fill="#DBE8EC"/>
<path d="M79.6008 87.3305L81.1411 86.4925C81.6547 86.214 82.1677 85.9348 82.6733 85.642C82.7127 85.6192 82.7563 85.6043 82.8014 85.5983C82.8466 85.5922 82.8925 85.5952 82.9365 85.6069C82.9805 85.6186 83.0218 85.6389 83.058 85.6666C83.0942 85.6943 83.1245 85.7288 83.1474 85.7682C83.1702 85.8077 83.185 85.8512 83.191 85.8964C83.197 85.9416 83.194 85.9875 83.1823 86.0315C83.1705 86.0755 83.1502 86.1168 83.1224 86.1529C83.0947 86.1891 83.0601 86.2194 83.0207 86.2422L83.009 86.2487L83.0055 86.2505C82.4845 86.5233 81.9553 86.7802 81.429 87.0421L79.8498 87.8261C79.7848 87.8584 79.7097 87.8639 79.6407 87.8414C79.5716 87.819 79.5142 87.7703 79.4806 87.7059C79.4471 87.6416 79.4401 87.5666 79.4612 87.4971C79.4823 87.4277 79.5298 87.3693 79.5935 87.3345L79.6008 87.3305Z" fill="#DBE8EC"/>
<path d="M85.6807 83.8455L88.6324 81.9645L88.6467 81.9553C88.6996 81.9216 88.7586 81.8987 88.8204 81.8878C88.8822 81.8769 88.9456 81.8782 89.0068 81.8918C89.0681 81.9054 89.1261 81.9309 89.1775 81.9669C89.2289 82.0029 89.2727 82.0487 89.3064 82.1016C89.3401 82.1545 89.3631 82.2135 89.374 82.2753C89.3849 82.3371 89.3835 82.4005 89.3699 82.4618C89.3563 82.523 89.3308 82.581 89.2948 82.6324C89.2589 82.6838 89.2131 82.7276 89.1602 82.7614L89.1475 82.7692L86.1107 84.573C86.0155 84.6296 85.9018 84.6465 85.7942 84.62C85.6866 84.5935 85.5937 84.5258 85.5355 84.4315C85.4773 84.3372 85.4586 84.2238 85.4833 84.1157C85.508 84.0077 85.5741 83.9137 85.6675 83.854L85.6807 83.8455Z" fill="#DBE8EC"/>
<path d="M91.5149 79.9836L94.3294 77.9123L94.3474 77.899C94.4062 77.8557 94.473 77.8244 94.5439 77.8069C94.6148 77.7895 94.6884 77.7861 94.7606 77.7971C94.8328 77.8081 94.9022 77.8332 94.9647 77.871C95.0271 77.9087 95.0816 77.9585 95.1249 78.0173C95.1682 78.0761 95.1994 78.1429 95.2169 78.2138C95.2344 78.2847 95.2377 78.3584 95.2267 78.4306C95.2158 78.5028 95.1907 78.5721 95.1529 78.6346C95.1151 78.6971 95.0654 78.7516 95.0066 78.7948L94.9993 78.8001L92.1164 80.8505C92.0031 80.931 91.8625 80.9635 91.7253 80.9409C91.5882 80.9183 91.4655 80.8424 91.3839 80.7298C91.3024 80.6172 91.2686 80.477 91.2899 80.3396C91.3113 80.2022 91.386 80.0788 91.4978 79.9962L91.5149 79.9836Z" fill="#DBE8EC"/>
<path d="M97.0528 75.7276L99.6685 73.4216L99.6917 73.4011C99.8138 73.2938 99.9734 73.2393 100.136 73.2497C100.298 73.26 100.449 73.3342 100.557 73.4561C100.664 73.578 100.719 73.7376 100.709 73.8998C100.698 74.062 100.624 74.2135 100.503 74.3212L100.495 74.3277L97.7973 76.6294C97.68 76.7292 97.528 76.7788 97.3744 76.7672C97.2208 76.7556 97.078 76.6838 96.977 76.5675C96.8761 76.4511 96.8251 76.2996 96.8353 76.1459C96.8454 75.9922 96.9158 75.8487 97.0312 75.7466L97.0528 75.7276Z" fill="#DBE8EC"/>
<path d="M102.163 70.9964C102.972 70.1671 103.749 69.3087 104.498 68.4299C104.605 68.3042 104.758 68.226 104.922 68.2124C105.087 68.1988 105.25 68.251 105.377 68.3575C105.503 68.4639 105.582 68.6161 105.596 68.7806C105.611 68.9451 105.559 69.1087 105.453 69.2354C104.691 70.1483 103.885 71.0201 103.058 71.869C102.942 71.9877 102.784 72.0556 102.618 72.0578C102.453 72.0599 102.293 71.9962 102.174 71.8805C102.055 71.7649 101.988 71.6068 101.985 71.4411C101.983 71.2754 102.047 71.1156 102.163 70.9969L102.163 70.9964Z" fill="#DBE8EC"/>
<path d="M106.622 65.7039C107.282 64.7681 107.879 63.7895 108.409 62.7747C108.477 62.6413 108.596 62.5404 108.739 62.4938C108.881 62.4471 109.037 62.4585 109.171 62.5255C109.305 62.5925 109.408 62.7097 109.456 62.8517C109.505 62.9937 109.496 63.1491 109.431 63.2844C108.902 64.3621 108.294 65.3993 107.612 66.3873C107.522 66.519 107.384 66.6098 107.227 66.6396C107.071 66.6694 106.909 66.6358 106.777 66.5462C106.645 66.4567 106.554 66.3184 106.524 66.1619C106.494 66.0054 106.528 65.8433 106.617 65.7114L106.622 65.7039Z" fill="#DBE8EC"/>
<path d="M109.622 59.6232C109.905 58.5587 109.945 57.4443 109.741 56.362L109.74 56.3601C109.714 56.2394 109.736 56.1132 109.802 56.0087C109.868 55.9043 109.972 55.8299 110.093 55.8016C110.213 55.7734 110.339 55.7935 110.445 55.8577C110.551 55.9219 110.627 56.025 110.657 56.1448C110.938 57.3659 110.936 58.6351 110.651 59.8554C110.637 59.9233 110.609 59.9876 110.57 60.0448C110.531 60.102 110.481 60.1509 110.423 60.1887C110.364 60.2265 110.299 60.2525 110.231 60.2651C110.163 60.2777 110.093 60.2768 110.025 60.2624C109.957 60.2479 109.893 60.2202 109.836 60.1809C109.779 60.1416 109.73 60.0913 109.692 60.0331C109.654 59.9749 109.629 59.9098 109.616 59.8416C109.604 59.7734 109.605 59.7034 109.619 59.6355L109.622 59.6232Z" fill="#DBE8EC"/>
<path d="M108.143 53.5922C107.299 52.8454 106.312 52.2772 105.243 51.9221C105.165 51.8947 105.101 51.8378 105.064 51.7636C105.028 51.6894 105.022 51.6039 105.047 51.5253C105.073 51.4467 105.129 51.3813 105.202 51.3432C105.275 51.305 105.361 51.2971 105.44 51.3212C106.62 51.6539 107.719 52.2229 108.672 52.9936C108.712 53.0275 108.745 53.0689 108.77 53.1155C108.794 53.1621 108.808 53.213 108.813 53.2653C108.817 53.3176 108.812 53.3703 108.796 53.4203C108.78 53.4704 108.754 53.5168 108.72 53.5569C108.687 53.5971 108.645 53.6302 108.599 53.6543C108.552 53.6785 108.501 53.6932 108.449 53.6977C108.396 53.7022 108.344 53.6963 108.294 53.6805C108.244 53.6646 108.197 53.639 108.157 53.6052C108.153 53.6013 108.147 53.5963 108.143 53.5922Z" fill="#DBE8EC"/>
<path d="M101.879 51.1564C100.723 51.0132 99.5579 50.9449 98.3923 50.9519C98.3655 50.9519 98.3397 50.9415 98.3203 50.9228C98.301 50.9042 98.2896 50.8788 98.2886 50.8519C98.2876 50.8251 98.2971 50.7989 98.315 50.7789C98.3329 50.7588 98.3578 50.7465 98.3846 50.7445C99.5618 50.6543 100.744 50.645 101.922 50.7167C101.951 50.7185 101.979 50.726 102.005 50.7388C102.032 50.7516 102.055 50.7694 102.074 50.7911C102.093 50.8129 102.108 50.8383 102.117 50.8657C102.127 50.8932 102.131 50.9222 102.129 50.9512C102.127 50.9802 102.119 51.0085 102.107 51.0346C102.094 51.0606 102.076 51.0839 102.054 51.1031C102.033 51.1223 102.007 51.137 101.98 51.1464C101.952 51.1558 101.923 51.1597 101.894 51.1579C101.89 51.1576 101.884 51.1571 101.879 51.1564Z" fill="#DBE8EC"/>
<path d="M97.4948 41.2842C96.3269 44.3556 87.7356 51.9364 85.9772 53.4663C85.9468 53.4929 85.9097 53.5108 85.8699 53.5179C85.8301 53.5251 85.789 53.5213 85.7512 53.5069C85.7134 53.4925 85.6802 53.4681 85.6552 53.4363C85.6302 53.4045 85.6144 53.3665 85.6093 53.3263C85.3117 51.0145 83.9279 39.6401 85.0957 36.5687C85.721 34.9243 86.9738 33.5957 88.5786 32.8751C90.1833 32.1545 92.0086 32.101 93.6528 32.7263C95.297 33.3516 96.6255 34.6046 97.346 36.2095C98.0665 37.8144 98.12 39.6399 97.4948 41.2842Z" fill="#D62828"/>
<path d="M91.2954 42.022C93.0049 42.022 94.3906 40.636 94.3906 38.9264C94.3906 37.2168 93.0049 35.8309 91.2954 35.8309C89.586 35.8309 88.2002 37.2168 88.2002 38.9264C88.2002 40.636 89.586 42.022 91.2954 42.022Z" fill="#DBE8EC"/>
<path d="M69.9272 79.1614C70.1825 81.0349 67.9279 87.2311 67.4605 88.4884C67.4524 88.5102 67.4386 88.5295 67.4204 88.544C67.4023 88.5586 67.3805 88.568 67.3574 88.5711C67.3344 88.5743 67.3109 88.5711 67.2895 88.5619C67.2681 88.5527 67.2496 88.5379 67.236 88.519C66.4493 87.4327 62.6189 82.0659 62.3636 80.1923C62.2269 79.1892 62.4942 78.1729 63.1068 77.3669C63.7194 76.561 64.627 76.0314 65.63 75.8947C66.633 75.758 67.6492 76.0253 68.4551 76.6379C69.2609 77.2506 69.7905 78.1583 69.9272 79.1614Z" fill="#D62828"/>
<path d="M66.1454 81.4582C67.1291 81.4582 67.9266 80.6606 67.9266 79.6768C67.9266 78.693 67.1291 77.8955 66.1454 77.8955C65.1617 77.8955 64.3643 78.693 64.3643 79.6768C64.3643 80.6606 65.1617 81.4582 66.1454 81.4582Z" fill="#DBE8EC"/>
<path d="M89.4438 119.658L100.278 125.155L111.113 119.658L121.947 125.155L132.782 119.658L143.618 125.155L154.454 119.658L146.636 98.0344L138.406 102.209L130.176 98.0344L121.947 102.209L113.719 98.0344L105.491 102.209L97.2624 98.0344L89.4438 119.658Z" fill="#409CB5"/>
<path d="M89.4438 119.658L100.278 125.155L111.113 119.658L121.947 125.155L132.782 119.658L143.618 125.155L154.454 119.658L146.636 98.0344L138.406 102.209L130.176 98.0344L121.947 102.209L113.719 98.0344L105.491 102.209L97.2624 98.0344L89.4438 119.658Z" fill="#409CB5"/>
<path d="M94.7471 104.99C96.2054 105.662 97.6544 106.352 99.1031 107.042L101.277 108.076L103.445 109.121H103.216C104.728 108.315 106.243 107.516 107.762 106.723C109.278 105.926 110.797 105.134 112.319 104.349L112.493 104.26L112.673 104.349L117.269 106.644L121.857 108.956H121.46L126.048 106.642C127.576 105.868 129.108 105.102 130.644 104.344L130.827 104.254L131.003 104.344C132.524 105.131 134.046 105.917 135.562 106.716C137.079 107.511 138.597 108.304 140.108 109.111L139.869 109.111C141.394 108.368 142.924 107.635 144.459 106.911L146.757 105.819C147.523 105.453 148.296 105.102 149.064 104.743C148.32 105.151 147.581 105.567 146.833 105.968L144.594 107.178C143.103 107.988 141.608 108.789 140.108 109.583L139.994 109.643L139.869 109.583C138.325 108.84 136.788 108.083 135.25 107.329C133.711 106.579 132.178 105.814 130.644 105.052H131.003C129.482 105.84 127.959 106.624 126.434 107.403L121.857 109.738L121.658 109.839L121.46 109.738L116.885 107.401L112.319 105.047H112.673C111.14 105.812 109.605 106.57 108.065 107.322C106.528 108.078 104.989 108.829 103.445 109.573L103.325 109.631L103.216 109.573L101.093 108.44L98.9748 107.295C97.5622 106.533 96.1501 105.771 94.7471 104.99Z" fill="#3086A3"/>
<path d="M151.775 112.37L149.326 113.705L146.87 115.024C145.234 115.906 143.594 116.78 141.95 117.647L141.836 117.707L141.712 117.647L136.705 115.196L131.71 112.722H132.066C130.415 113.574 128.766 114.43 127.109 115.271L122.143 117.804L121.945 117.906L121.746 117.804L116.782 115.271C115.125 114.43 113.476 113.576 111.826 112.723H112.183L107.188 115.197L102.18 117.648L102.057 117.709L101.941 117.648C100.297 116.783 98.6576 115.909 97.0232 115.025L94.568 113.705L92.1206 112.37L94.6434 113.556L97.1583 114.758C98.8364 115.557 100.51 116.363 102.18 117.177H101.942L106.878 114.586L111.826 112.018L112.001 111.927L112.183 112.018C113.846 112.845 115.51 113.672 117.167 114.512L122.143 117.021H121.746L126.724 114.512C128.381 113.672 130.046 112.847 131.71 112.019L131.892 111.928L132.066 112.019L137.014 114.587L141.95 117.178H141.712C143.382 116.362 145.056 115.555 146.736 114.759L149.251 113.557L151.775 112.37Z" fill="#3086A3"/>
<path d="M105.491 102.209C105.234 104.161 104.892 106.095 104.521 108.021C104.343 108.986 104.135 109.944 103.941 110.906L103.313 113.779L102.639 116.642C102.398 117.593 102.173 118.548 101.916 119.495C101.419 121.392 100.891 123.283 100.278 125.155C100.534 123.202 100.875 121.269 101.247 119.343C101.424 118.377 101.634 117.42 101.827 116.458L102.456 113.585L103.132 110.722C103.372 109.771 103.598 108.817 103.855 107.87C104.352 105.972 104.879 104.081 105.491 102.209Z" fill="#3086A3"/>
<path d="M113.72 98.0344C113.683 99.8581 113.56 101.672 113.407 103.481C113.339 104.387 113.239 105.289 113.154 106.193L112.852 108.899L112.503 111.599C112.37 112.497 112.254 113.397 112.105 114.293C111.824 116.088 111.512 117.878 111.113 119.658C111.148 117.835 111.271 116.021 111.424 114.211C111.492 113.305 111.593 112.404 111.677 111.5L111.98 108.794L112.33 106.094C112.462 105.196 112.58 104.296 112.729 103.399C113.01 101.605 113.322 99.8146 113.72 98.0344Z" fill="#3086A3"/>
<path d="M121.948 102.209C122.13 104.121 122.225 106.033 122.289 107.945C122.33 108.902 122.339 109.858 122.362 110.814L122.387 113.682L122.364 116.55C122.339 117.506 122.331 118.463 122.29 119.419C122.226 121.331 122.13 123.243 121.947 125.155C121.764 123.243 121.669 121.331 121.604 119.419C121.564 118.463 121.556 117.506 121.531 116.55L121.508 113.682L121.533 110.814C121.557 109.858 121.566 108.902 121.606 107.945C121.671 106.033 121.766 104.121 121.948 102.209Z" fill="#3086A3"/>
<path d="M130.176 98.0344C130.574 99.8146 130.886 101.605 131.167 103.399C131.316 104.296 131.433 105.196 131.565 106.094L131.915 108.794L132.218 111.5C132.302 112.404 132.403 113.306 132.471 114.211C132.624 116.021 132.747 117.835 132.782 119.658C132.383 117.878 132.071 116.088 131.79 114.293C131.641 113.397 131.525 112.497 131.392 111.599L131.043 108.899L130.741 106.193C130.657 105.289 130.557 104.387 130.489 103.481C130.336 101.672 130.213 99.8581 130.176 98.0344Z" fill="#3086A3"/>
<path d="M138.406 102.209C139.018 104.081 139.545 105.972 140.042 107.87C140.299 108.817 140.525 109.771 140.765 110.722L141.44 113.585L142.069 116.458C142.263 117.42 142.472 118.377 142.65 119.343C143.021 121.269 143.362 123.202 143.618 125.155C143.006 123.283 142.478 121.392 141.981 119.495C141.724 118.548 141.499 117.593 141.258 116.642L140.584 113.779L139.956 110.906C139.762 109.944 139.554 108.986 139.376 108.021C139.005 106.095 138.663 104.161 138.406 102.209Z" fill="#3086A3"/>
<path d="M101.915 111.318L99.8764 110.822C99.7192 110.783 99.5608 110.88 99.5225 111.037L98.8708 113.713C98.8326 113.87 98.929 114.029 99.0862 114.067L101.124 114.564C101.282 114.602 101.44 114.505 101.478 114.348L102.13 111.672C102.168 111.515 102.072 111.356 101.915 111.318Z" fill="#F9AE2B"/>
<path d="M136.907 105.261L134.827 105.532C134.666 105.553 134.553 105.7 134.574 105.86L134.93 108.592C134.951 108.752 135.098 108.865 135.258 108.845L137.338 108.573C137.499 108.553 137.612 108.405 137.591 108.245L137.235 105.514C137.214 105.353 137.067 105.24 136.907 105.261Z" fill="#F9AE2B"/>
<path d="M150.233 111.161L148.244 111.826C148.09 111.877 148.007 112.043 148.059 112.197L148.932 114.809C148.983 114.963 149.149 115.045 149.302 114.994L151.292 114.329C151.445 114.278 151.528 114.112 151.477 113.959L150.604 111.346C150.553 111.193 150.387 111.11 150.233 111.161Z" fill="#F9AE2B"/>
<path d="M114.921 115.908L112.854 115.62C112.776 115.609 112.696 115.629 112.633 115.677C112.57 115.724 112.528 115.795 112.517 115.874L111.931 120.074L114.461 121.357L115.175 116.245C115.186 116.166 115.165 116.087 115.118 116.024C115.07 115.961 114.999 115.919 114.921 115.908Z" fill="#F9AE2B"/>
<path d="M93.2881 109.025C93.714 108.782 94.1604 108.576 94.6222 108.41C94.8539 108.327 95.0889 108.253 95.3275 108.191L96.0558 108.036C96.0705 108.033 96.0857 108.033 96.1005 108.035C96.1153 108.038 96.1294 108.044 96.1421 108.052C96.1547 108.06 96.1656 108.07 96.1742 108.083C96.1827 108.095 96.1887 108.109 96.1918 108.124C96.195 108.139 96.1952 108.154 96.1924 108.169C96.1896 108.184 96.184 108.198 96.1757 108.21C96.1675 108.223 96.1569 108.234 96.1444 108.242C96.132 108.251 96.118 108.257 96.1033 108.26L96.0957 108.261L96.0811 108.263L95.3673 108.363C95.1296 108.408 94.894 108.465 94.6604 108.53C94.1918 108.662 93.7332 108.828 93.2881 109.025Z" fill="#F9AE2B"/>
<path d="M99.0003 107.942L101.929 107.942C101.995 107.942 102.059 107.968 102.106 108.014C102.153 108.061 102.179 108.124 102.18 108.19C102.18 108.257 102.154 108.32 102.108 108.367C102.061 108.414 101.998 108.441 101.931 108.442C101.929 108.442 101.924 108.441 101.921 108.441L98.9914 108.336C98.9397 108.334 98.8907 108.312 98.8551 108.275C98.8194 108.237 98.7999 108.187 98.8008 108.136C98.8017 108.084 98.8229 108.034 98.8598 107.998C98.8967 107.962 98.9463 107.942 98.9981 107.942L99.0003 107.942Z" fill="#F9AE2B"/>
<path d="M104.855 107.942L106.309 107.906L107.035 107.888C107.277 107.887 107.521 107.862 107.763 107.85L107.772 107.849C107.849 107.845 107.925 107.872 107.982 107.924C108.039 107.976 108.073 108.048 108.077 108.125C108.081 108.202 108.055 108.278 108.003 108.335C107.951 108.393 107.879 108.427 107.802 108.432L107.8 108.432C107.555 108.442 107.312 108.465 107.065 108.465L106.328 108.478L104.854 108.504C104.78 108.505 104.708 108.477 104.654 108.426C104.601 108.374 104.57 108.304 104.568 108.229C104.567 108.155 104.595 108.083 104.646 108.03C104.697 107.976 104.768 107.945 104.842 107.943L104.855 107.942Z" fill="#F9AE2B"/>
<path d="M110.648 107.551C111.6 107.404 112.541 107.192 113.465 106.917C113.53 106.898 113.6 106.904 113.661 106.936C113.721 106.967 113.766 107.021 113.787 107.086C113.807 107.151 113.801 107.221 113.77 107.282C113.739 107.342 113.685 107.388 113.621 107.409C112.679 107.717 111.716 107.951 110.738 108.111C110.664 108.123 110.588 108.105 110.527 108.061C110.466 108.017 110.425 107.95 110.413 107.876C110.401 107.802 110.419 107.726 110.463 107.665C110.507 107.604 110.573 107.563 110.648 107.551Z" fill="#F9AE2B"/>
<path d="M116.143 105.849C117.003 105.409 117.819 104.888 118.58 104.292C118.608 104.27 118.644 104.26 118.68 104.264C118.716 104.267 118.748 104.285 118.771 104.313C118.794 104.34 118.806 104.376 118.803 104.412C118.8 104.448 118.784 104.481 118.757 104.505C118.015 105.161 117.206 105.736 116.342 106.221C116.293 106.248 116.236 106.255 116.182 106.24C116.128 106.225 116.083 106.189 116.055 106.14C116.028 106.091 116.021 106.034 116.036 105.98C116.051 105.926 116.087 105.88 116.136 105.853L116.143 105.849Z" fill="#F9AE2B"/>
<path d="M120.706 102.304L121.144 101.803L120.754 102.343C120.75 102.35 120.742 102.354 120.734 102.355C120.726 102.357 120.718 102.355 120.711 102.35C120.705 102.345 120.7 102.338 120.699 102.33C120.697 102.322 120.699 102.313 120.704 102.307L120.706 102.304Z" fill="#F9AE2B"/>
<path d="M96.6182 123.296L97.7557 122.374C97.7592 122.371 97.7632 122.369 97.7675 122.367C97.7718 122.366 97.7763 122.366 97.7808 122.366C97.7853 122.367 97.7896 122.368 97.7936 122.37C97.7975 122.372 97.801 122.375 97.8038 122.379C97.8066 122.382 97.8088 122.386 97.81 122.39C97.8113 122.395 97.8117 122.399 97.8113 122.404C97.8108 122.408 97.8094 122.413 97.8073 122.416C97.8052 122.42 97.8023 122.424 97.7988 122.427L97.7971 122.428L96.6182 123.296Z" fill="#F9AE2B"/>
<path d="M100.151 120.536L102.607 118.776C102.622 118.765 102.639 118.757 102.658 118.753C102.676 118.749 102.695 118.748 102.713 118.751C102.732 118.754 102.749 118.761 102.765 118.77C102.781 118.78 102.795 118.793 102.806 118.808C102.817 118.824 102.824 118.841 102.829 118.859C102.833 118.877 102.833 118.896 102.83 118.915C102.827 118.933 102.821 118.951 102.811 118.967C102.801 118.982 102.788 118.996 102.773 119.007L102.769 119.01L102.765 119.012L100.256 120.681L100.253 120.683C100.234 120.696 100.21 120.701 100.187 120.696C100.163 120.692 100.143 120.679 100.13 120.659C100.116 120.64 100.111 120.616 100.115 120.593C100.119 120.57 100.132 120.549 100.151 120.536Z" fill="#F9AE2B"/>
<path d="M105.134 117.117L107.727 115.558C107.75 115.544 107.776 115.535 107.803 115.531C107.83 115.527 107.858 115.528 107.884 115.535C107.911 115.541 107.936 115.553 107.958 115.569C107.979 115.586 107.998 115.606 108.012 115.629C108.026 115.653 108.036 115.679 108.04 115.706C108.044 115.733 108.042 115.76 108.036 115.787C108.029 115.813 108.017 115.838 108.001 115.86C107.985 115.882 107.964 115.901 107.941 115.915L107.938 115.917L107.93 115.921L105.318 117.417L105.312 117.42C105.272 117.444 105.224 117.45 105.18 117.438C105.135 117.426 105.096 117.397 105.073 117.357C105.05 117.317 105.043 117.269 105.054 117.224C105.066 117.18 105.094 117.141 105.134 117.117Z" fill="#F9AE2B"/>
<path d="M110.387 114.114C111.289 113.648 112.218 113.235 113.169 112.879C113.2 112.867 113.234 112.862 113.267 112.863C113.301 112.864 113.334 112.872 113.365 112.886C113.395 112.9 113.423 112.92 113.446 112.944C113.469 112.969 113.486 112.998 113.498 113.029C113.51 113.061 113.515 113.094 113.514 113.128C113.513 113.162 113.505 113.195 113.491 113.225C113.477 113.256 113.457 113.283 113.432 113.306C113.407 113.329 113.378 113.347 113.346 113.358L113.344 113.359C112.409 113.706 111.494 114.102 110.601 114.545C110.544 114.572 110.479 114.576 110.419 114.555C110.359 114.535 110.31 114.492 110.282 114.435C110.254 114.378 110.249 114.313 110.269 114.253C110.289 114.193 110.331 114.143 110.387 114.114Z" fill="#F9AE2B"/>
<path d="M116.121 112.074L117.643 111.886C118.156 111.836 118.672 111.828 119.187 111.862C119.26 111.867 119.328 111.9 119.377 111.955C119.425 112.01 119.45 112.082 119.446 112.155C119.441 112.228 119.408 112.296 119.353 112.345C119.299 112.394 119.227 112.419 119.154 112.414L119.152 112.414C118.907 112.398 118.662 112.389 118.418 112.391C118.175 112.395 117.93 112.4 117.684 112.427L116.211 112.598L116.184 112.601C116.114 112.609 116.045 112.589 115.99 112.545C115.935 112.502 115.899 112.439 115.891 112.369C115.883 112.299 115.902 112.229 115.945 112.174C115.988 112.119 116.051 112.083 116.121 112.074Z" fill="#F9AE2B"/>
<path d="M122.207 112.252C123.199 112.428 124.192 112.602 125.181 112.794C125.255 112.808 125.321 112.852 125.364 112.915C125.407 112.978 125.423 113.055 125.409 113.13C125.394 113.205 125.351 113.271 125.288 113.314C125.225 113.357 125.148 113.373 125.073 113.359L122.111 112.819L122.105 112.818C122.03 112.804 121.964 112.761 121.921 112.699C121.877 112.636 121.861 112.559 121.874 112.484C121.888 112.409 121.93 112.343 121.993 112.299C122.055 112.256 122.132 112.239 122.207 112.252Z" fill="#F9AE2B"/>
<path d="M128.142 113.39L131.096 114.034C131.164 114.049 131.225 114.09 131.263 114.15C131.301 114.209 131.314 114.281 131.299 114.35C131.285 114.419 131.243 114.479 131.184 114.518C131.125 114.556 131.053 114.57 130.984 114.555L130.98 114.554L128.031 113.934L128.026 113.933C127.991 113.925 127.957 113.911 127.926 113.89C127.896 113.87 127.87 113.843 127.85 113.813C127.83 113.782 127.817 113.748 127.81 113.712C127.803 113.677 127.804 113.64 127.811 113.604C127.819 113.568 127.833 113.534 127.854 113.504C127.874 113.474 127.901 113.448 127.931 113.429C127.962 113.409 127.996 113.395 128.032 113.388C128.068 113.382 128.105 113.382 128.14 113.39L128.142 113.39Z" fill="#F9AE2B"/>
<path d="M134.028 114.639C134.512 114.706 135 114.725 135.487 114.697C135.733 114.69 135.977 114.645 136.223 114.621L136.959 114.539L136.983 114.537C137.046 114.53 137.109 114.548 137.159 114.587C137.209 114.627 137.241 114.684 137.249 114.747C137.256 114.81 137.239 114.874 137.2 114.924C137.161 114.974 137.103 115.007 137.04 115.015L136.279 115.114C136.024 115.14 135.771 115.188 135.514 115.197C134.996 115.231 134.476 115.214 133.962 115.147L133.96 115.146C133.892 115.138 133.831 115.102 133.79 115.048C133.749 114.994 133.731 114.926 133.74 114.859C133.748 114.792 133.784 114.731 133.838 114.69C133.892 114.648 133.96 114.63 134.027 114.639L134.028 114.639Z" fill="#F9AE2B"/>
<path d="M139.821 113.763C140.75 113.403 141.643 112.96 142.491 112.439C142.53 112.415 142.578 112.407 142.623 112.417C142.669 112.428 142.708 112.456 142.733 112.495C142.758 112.535 142.766 112.582 142.756 112.628C142.746 112.673 142.718 112.713 142.679 112.738C141.822 113.29 140.918 113.763 139.976 114.151C139.95 114.162 139.923 114.167 139.895 114.167C139.868 114.167 139.841 114.162 139.815 114.151C139.79 114.14 139.767 114.125 139.747 114.105C139.728 114.086 139.713 114.063 139.702 114.037C139.692 114.012 139.686 113.985 139.687 113.957C139.687 113.929 139.692 113.902 139.703 113.877C139.714 113.852 139.729 113.829 139.749 113.809C139.768 113.79 139.792 113.775 139.817 113.764L139.821 113.763Z" fill="#F9AE2B"/>
<path d="M144.881 110.653C145.623 109.984 146.293 109.239 146.88 108.431C146.894 108.412 146.915 108.399 146.938 108.395C146.961 108.391 146.985 108.396 147.005 108.41C147.024 108.423 147.037 108.444 147.042 108.467C147.046 108.491 147.041 108.515 147.028 108.534C146.46 109.376 145.806 110.156 145.077 110.862C145.063 110.876 145.047 110.886 145.03 110.893C145.012 110.9 144.993 110.903 144.975 110.903C144.956 110.902 144.937 110.898 144.92 110.891C144.903 110.883 144.887 110.873 144.874 110.859C144.861 110.846 144.851 110.83 144.844 110.812C144.837 110.795 144.834 110.776 144.834 110.757C144.834 110.739 144.838 110.72 144.846 110.703C144.853 110.686 144.864 110.67 144.878 110.657L144.881 110.653Z" fill="#F9AE2B"/>
<path d="M148.401 105.841L148.971 104.496L148.464 105.869C148.463 105.873 148.46 105.877 148.457 105.881C148.454 105.884 148.451 105.887 148.446 105.889C148.442 105.89 148.438 105.892 148.433 105.892C148.429 105.892 148.424 105.891 148.42 105.89C148.416 105.888 148.412 105.886 148.408 105.883C148.405 105.879 148.402 105.876 148.401 105.872C148.399 105.867 148.398 105.863 148.397 105.858C148.397 105.854 148.398 105.849 148.4 105.845L148.4 105.844L148.401 105.841Z" fill="#F9AE2B"/>
<path d="M149.767 106.697L148.568 106.854L147.971 106.928C147.773 106.959 147.575 106.998 147.379 107.037C146.594 107.195 145.821 107.408 145.067 107.677C144.321 107.96 143.598 108.299 142.902 108.69C142.197 109.072 141.493 109.461 140.79 109.856C139.387 110.647 137.975 111.425 136.563 112.201L132.311 114.505C131.602 114.887 130.868 115.236 130.147 115.603L129.062 116.147C128.703 116.334 128.334 116.502 127.958 116.655C126.457 117.282 124.925 117.794 123.394 118.3C120.334 119.313 117.259 120.276 114.173 121.212C117.185 120.061 120.209 118.946 123.245 117.868C124.756 117.311 126.279 116.79 127.74 116.145C128.479 115.838 129.18 115.443 129.898 115.088C130.61 114.72 131.329 114.372 132.037 113.987C134.877 112.468 137.723 110.957 140.573 109.456C141.288 109.083 142.001 108.706 142.728 108.35C143.452 107.978 144.204 107.663 144.976 107.406C145.755 107.176 146.549 107.002 147.352 106.885C147.552 106.856 147.753 106.828 147.954 106.807L148.559 106.767L149.767 106.697Z" fill="#F9AE2B"/>
<path d="M130.176 93.9989C130.176 96.5151 126.09 104.28 125.248 105.853C125.234 105.881 125.212 105.904 125.185 105.92C125.159 105.936 125.129 105.944 125.098 105.944C125.067 105.944 125.036 105.936 125.01 105.92C124.983 105.904 124.961 105.881 124.947 105.853C124.105 104.28 120.019 96.5151 120.019 93.9989C120.019 92.6518 120.554 91.3598 121.506 90.4072C122.459 89.4546 123.75 88.9194 125.098 88.9194C126.445 88.9194 127.736 89.4546 128.689 90.4072C129.641 91.3598 130.176 92.6518 130.176 93.9989Z" fill="#D62828"/>
<path d="M125.097 96.3693C126.406 96.3693 127.467 95.308 127.467 93.9988C127.467 92.6897 126.406 91.6284 125.097 91.6284C123.788 91.6284 122.727 92.6897 122.727 93.9988C122.727 95.308 123.788 96.3693 125.097 96.3693Z" fill="#DBE8EC"/>
<path d="M154.397 105.406C154.086 107.093 150.389 111.795 149.63 112.746C149.617 112.762 149.599 112.775 149.579 112.782C149.56 112.79 149.538 112.792 149.518 112.788C149.497 112.784 149.477 112.775 149.462 112.761C149.446 112.747 149.434 112.729 149.428 112.709C149.057 111.55 147.275 105.839 147.586 104.152C147.752 103.249 148.27 102.449 149.027 101.928C149.783 101.406 150.715 101.207 151.618 101.373C152.521 101.539 153.321 102.058 153.842 102.814C154.364 103.57 154.563 104.502 154.397 105.406Z" fill="#D62828"/>
<path d="M150.991 106.395C151.884 106.395 152.607 105.671 152.607 104.779C152.607 103.886 151.884 103.163 150.991 103.163C150.099 103.163 149.375 103.886 149.375 104.779C149.375 105.671 150.099 106.395 150.991 106.395Z" fill="#DBE8EC"/>
<path d="M105.928 39.4625H114.81" stroke="#B9D4DB" stroke-width="0.878906" stroke-miterlimit="10" stroke-linecap="round"/>
<path d="M105.928 42.0229H114.81" stroke="#B9D4DB" stroke-width="0.878906" stroke-miterlimit="10" stroke-linecap="round"/>
<path d="M105.928 44.5832H114.81" stroke="#B9D4DB" stroke-width="0.878906" stroke-miterlimit="10" stroke-linecap="round"/>
<path d="M149.335 81.1139H158.218" stroke="#B9D4DB" stroke-width="0.878906" stroke-miterlimit="10" stroke-linecap="round"/>
<path d="M149.335 83.6742H158.218" stroke="#B9D4DB" stroke-width="0.878906" stroke-miterlimit="10" stroke-linecap="round"/>
<path d="M149.335 86.2345H158.218" stroke="#B9D4DB" stroke-width="0.878906" stroke-miterlimit="10" stroke-linecap="round"/>
<path d="M24.7437 119.847H33.6257" stroke="#B9D4DB" stroke-width="0.878906" stroke-miterlimit="10" stroke-linecap="round"/>
<path d="M24.7437 122.407H33.6257" stroke="#B9D4DB" stroke-width="0.878906" stroke-miterlimit="10" stroke-linecap="round"/>
<path d="M24.7437 124.967H33.6257" stroke="#B9D4DB" stroke-width="0.878906" stroke-miterlimit="10" stroke-linecap="round"/>
<path d="M126.287 73.8751C128.384 73.8751 130.084 72.1752 130.084 70.0782C130.084 67.9813 128.384 66.2814 126.287 66.2814C124.19 66.2814 122.491 67.9813 122.491 70.0782C122.491 72.1752 124.19 73.8751 126.287 73.8751Z" fill="#B9D4DB"/>
<path d="M120.052 80.3539C121.139 80.3539 122.02 79.4725 122.02 78.3852C122.02 77.2979 121.139 76.4164 120.052 76.4164C118.964 76.4164 118.083 77.2979 118.083 78.3852C118.083 79.4725 118.964 80.3539 120.052 80.3539Z" fill="#B9D4DB"/>
<path d="M116.627 68.628C118.18 68.628 119.439 67.3688 119.439 65.8155C119.439 64.2622 118.18 63.003 116.627 63.003C115.074 63.003 113.814 64.2622 113.814 65.8155C113.814 67.3688 115.074 68.628 116.627 68.628Z" fill="#B9D4DB"/>
<path d="M55.3701 120.18C57.8648 120.18 59.8872 118.157 59.8872 115.662C59.8872 113.167 57.8648 111.144 55.3701 111.144C52.8754 111.144 50.853 113.167 50.853 115.662C50.853 118.157 52.8754 120.18 55.3701 120.18Z" fill="#B9D4DB"/>
<path d="M46.7386 114.798C48.0381 114.798 49.0915 113.744 49.0915 112.444C49.0915 111.145 48.0381 110.091 46.7386 110.091C45.4392 110.091 44.3857 111.145 44.3857 112.444C44.3857 113.744 45.4392 114.798 46.7386 114.798Z" fill="#B9D4DB"/>
<path d="M48.9003 105.803C49.6499 105.803 50.2576 105.195 50.2576 104.445C50.2576 103.696 49.6499 103.088 48.9003 103.088C48.1507 103.088 47.543 103.696 47.543 104.445C47.543 105.195 48.1507 105.803 48.9003 105.803Z" fill="#B9D4DB"/>
<path d="M56.4132 108.66C58.2101 108.66 59.6667 107.203 59.6667 105.406C59.6667 103.609 58.2101 102.152 56.4132 102.152C54.6163 102.152 53.1597 103.609 53.1597 105.406C53.1597 107.203 54.6163 108.66 56.4132 108.66Z" fill="#B9D4DB"/>
<path d="M69.5786 37.6983C72.0733 37.6983 74.0957 35.6758 74.0957 33.1808C74.0957 30.6858 72.0733 28.6632 69.5786 28.6632C67.0839 28.6632 65.0615 30.6858 65.0615 33.1808C65.0615 35.6758 67.0839 37.6983 69.5786 37.6983Z" fill="#B9D4DB"/>
<path d="M70.9618 26.4258C72.2612 26.4258 73.3146 25.3722 73.3146 24.0727C73.3146 22.7731 72.2612 21.7195 70.9618 21.7195C69.6623 21.7195 68.6089 22.7731 68.6089 24.0727C68.6089 25.3722 69.6623 26.4258 70.9618 26.4258Z" fill="#B9D4DB"/>
<path d="M86.3196 29.5167C87.4443 29.5167 88.356 28.6048 88.356 27.48C88.356 26.3552 87.4443 25.4434 86.3196 25.4434C85.1949 25.4434 84.2832 26.3552 84.2832 27.48C84.2832 28.6048 85.1949 29.5167 86.3196 29.5167Z" fill="#B9D4DB"/>
<path d="M79.2328 25.9088C79.9825 25.9088 80.5902 25.3011 80.5902 24.5514C80.5902 23.8018 79.9825 23.1941 79.2328 23.1941C78.4832 23.1941 77.8755 23.8018 77.8755 24.5514C77.8755 25.3011 78.4832 25.9088 79.2328 25.9088Z" fill="#B9D4DB"/>
<path d="M79.8302 35.3567C81.6271 35.3567 83.0837 33.8999 83.0837 32.1028C83.0837 30.3058 81.6271 28.849 79.8302 28.849C78.0333 28.849 76.5767 30.3058 76.5767 32.1028C76.5767 33.8999 78.0333 35.3567 79.8302 35.3567Z" fill="#B9D4DB"/>
<path d="M124.287 56.7429C123.491 58.8368 117.634 64.005 116.435 65.048C116.414 65.0661 116.389 65.0783 116.362 65.0832C116.334 65.0881 116.306 65.0855 116.281 65.0757C116.255 65.0659 116.232 65.0492 116.215 65.0276C116.198 65.0059 116.187 64.9799 116.184 64.9526C115.981 63.3765 115.038 55.622 115.834 53.5281C116.26 52.4071 117.114 51.5013 118.208 51.01C119.302 50.5188 120.547 50.4823 121.668 50.9086C122.788 51.3349 123.694 52.1891 124.185 53.2832C124.677 54.3774 124.713 55.6219 124.287 56.7429Z" fill="#409CB5"/>
<path d="M120.06 57.246C121.226 57.246 122.171 56.3011 122.171 55.1356C122.171 53.9701 121.226 53.0252 120.06 53.0252C118.895 53.0252 117.95 53.9701 117.95 55.1356C117.95 56.3011 118.895 57.246 120.06 57.246Z" fill="#DBE8EC"/>
<path d="M49.9153 101.809C50.2048 104.031 47.4908 111.356 46.9284 112.842C46.9187 112.868 46.9022 112.89 46.8806 112.908C46.8589 112.925 46.8331 112.936 46.8057 112.939C46.7784 112.943 46.7506 112.939 46.7253 112.928C46.7 112.917 46.6782 112.899 46.6623 112.877C45.7377 111.584 41.2371 105.2 40.9476 102.978C40.8708 102.389 40.9108 101.791 41.0653 101.218C41.2197 100.644 41.4856 100.107 41.8477 99.6362C42.5789 98.6857 43.6579 98.0645 44.847 97.9095C46.0362 97.7545 47.2383 98.0783 48.1888 98.8097C49.1393 99.541 49.7603 100.62 49.9153 101.809Z" fill="#409CB5"/>
<path d="M45.4315 104.504C46.5969 104.504 47.5416 103.559 47.5416 102.394C47.5416 101.228 46.5969 100.283 45.4315 100.283C44.266 100.283 43.3213 101.228 43.3213 102.394C43.3213 103.559 44.266 104.504 45.4315 104.504Z" fill="#DBE8EC"/>
</svg>
