<svg width="164" height="143" viewBox="0 0 164 143" fill="none" xmlns="http://www.w3.org/2000/svg">
<path d="M73.284 68.7432C85.0216 67.0691 93.2071 56.388 91.5668 44.8864C89.9264 33.3849 79.0814 25.4182 67.3438 27.0924C55.6061 28.7666 47.4206 39.4476 49.0609 50.9492C50.7013 62.4508 61.5463 70.4174 73.284 68.7432Z" fill="#DC952D"/>
<path d="M75.1721 68.5431C86.9098 66.8689 95.0953 56.1879 93.455 44.6863C91.8146 33.1847 80.9696 25.2181 69.2319 26.8923C57.4943 28.5664 49.3088 39.2475 50.9491 50.7491C52.5894 62.2506 63.4345 70.2173 75.1721 68.5431Z" fill="#FCC84E"/>
<path d="M50.8984 50.0153C60.0227 42.5001 69.147 34.9961 78.2824 27.4809C79.5922 27.8694 81.1462 28.4578 82.8001 29.3569C83.7548 29.8786 84.5873 30.4226 85.3088 30.9554L53.4182 57.6858C53.4182 57.6858 51.076 55.1105 50.8984 50.0153Z" fill="#FEF04F"/>
<path d="M60.6001 65.4782C71.0786 56.8307 81.5571 48.1722 92.0245 39.5248C92.4685 40.6015 92.9014 41.9003 93.2122 43.3878C93.3676 44.1538 93.4786 44.8864 93.5563 45.5636C84.5985 53.0676 75.6407 60.5828 66.683 68.0868C65.9947 67.9203 65.2399 67.6872 64.4518 67.3986C62.9089 66.8213 61.6324 66.1331 60.6001 65.4782Z" fill="#F59E1B"/>
<path d="M72.3664 63.9688C81.2677 63.9688 88.4837 56.7525 88.4837 47.8507C88.4837 38.9488 81.2677 31.7325 72.3664 31.7325C63.465 31.7325 56.249 38.9488 56.249 47.8507C56.249 56.7525 63.465 63.9688 72.3664 63.9688Z" fill="#D2753F"/>
<path d="M75.4462 63.1271C83.8701 61.9256 89.723 54.1075 88.5189 45.6649C87.3149 37.2223 79.5098 31.3523 71.0859 32.5539C62.662 33.7554 56.8091 41.5735 58.0132 50.0161C59.2172 58.4586 67.0223 64.3287 75.4462 63.1271Z" fill="#FDAA40"/>
<path d="M72.2776 41.1015C72.2776 41.1015 73.6984 41.5123 74.4754 41.9896C75.2524 42.4669 76.7287 41.9785 76.3957 40.5465C76.0627 39.1145 74.5975 38.5817 73.6762 38.4041C72.7549 38.2265 72.322 38.2265 72.322 38.2265L72.0667 38.171L71.8114 36.4171C71.8114 36.4171 71.323 35.9952 70.4128 35.9064C69.5026 35.8176 69.103 36.8611 69.103 36.8611L69.436 38.7926C69.436 38.7926 64.9293 40.0803 65.6064 44.1875C66.2835 48.2948 70.2796 48.1283 70.2796 48.1283C70.2796 48.1283 75.7075 47.2291 76.2736 50.5149C76.8397 53.8007 73.9537 55.0107 72.6106 54.7443C71.2675 54.4779 69.8134 54.6222 68.7256 52.6462C67.6377 50.6703 65.9727 52.6351 65.9616 53.0126C65.9505 53.39 67.1493 56.143 69.1141 57.1309C69.1141 57.1309 70.1353 57.5971 70.9123 57.6193C71.6893 57.6304 71.9224 57.5416 71.9224 57.5416L72.2554 59.6286C72.2554 59.6286 72.4552 59.9394 73.5541 60.0615C74.653 60.1836 75.0748 59.2622 75.0748 59.2622L74.7973 57.0754C74.7973 57.0754 78.2272 56.6203 79.2818 51.736C80.3363 46.8517 75.0082 45.1533 72.9547 45.2532C70.9012 45.3642 68.548 46.008 68.5813 43.1552C68.5924 42.7444 69.6802 40.824 72.2776 41.1015Z" fill="#D2753F"/>
<path d="M73.343 41.0014C73.343 41.0014 74.7638 41.4122 75.5408 41.8895C76.3178 42.3668 77.7942 41.8784 77.4612 40.4464C77.1282 39.0144 75.6629 38.4816 74.7416 38.304C73.8203 38.1264 73.3874 38.1264 73.3874 38.1264L73.1321 38.0709L72.8768 36.317C72.8768 36.317 72.3884 35.8951 71.4782 35.8063C70.568 35.7175 70.1684 36.761 70.1684 36.761L70.5014 38.6925C70.5014 38.6925 65.9947 39.9802 66.6719 44.0874C67.349 48.1947 71.345 48.0282 71.345 48.0282C71.345 48.0282 76.773 47.129 77.3391 50.4148C77.9052 53.7006 75.0191 54.9106 73.676 54.6442C72.3329 54.3778 70.8788 54.5221 69.791 52.5461C68.7032 50.5702 67.0382 52.535 67.0271 52.9125C67.016 53.2899 68.2148 56.0429 70.1795 57.0308C70.1795 57.0308 71.2007 57.4971 71.9777 57.5193C72.7547 57.5304 72.9878 57.4415 72.9878 57.4415L73.3208 59.5285C73.3208 59.5285 73.5206 59.8393 74.6195 59.9614C75.7184 60.0835 76.1403 59.1622 76.1403 59.1622L75.8627 56.9753C75.8627 56.9753 79.2927 56.5202 80.3472 51.6359C81.4128 46.7627 76.0736 45.0532 74.0201 45.1531C71.9666 45.2641 69.6134 45.9079 69.6467 43.0551C69.6467 42.6443 70.7345 40.7239 73.343 41.0014Z" fill="#FECB51"/>
<path d="M86.918 121.892L87.7061 125.655L87.9281 127.598L91.7465 127.354C91.7465 127.354 91.358 122.425 90.9695 121.27C90.581 120.116 86.918 121.892 86.918 121.892Z" fill="#FEABB5"/>
<path d="M115.468 116.929L118.62 117.484L118.576 121.514L113.259 120.904L114.247 117.484L114.391 116.696L115.468 116.929Z" fill="#FEABB5"/>
<path d="M87.5405 28.5125C87.6404 29.9445 87.7514 31.3765 87.8513 32.8085C88.151 33.2747 88.4507 33.741 88.7615 34.2072C90.8817 34.0962 93.0018 33.9963 95.1108 33.8853L94.9887 33.5522L92.8131 27.4913L87.5405 28.5125Z" fill="#FEABB5"/>
<path d="M88.2056 33.1195C88.2056 33.1195 89.1269 33.2527 90.4589 33.4858C91.7909 33.7189 93.1118 33.6745 93.5669 33.5857C94.022 33.4969 94.9544 33.3526 94.9544 33.3526L95.1209 33.8855C95.1209 33.8855 90.248 34.1186 90.1259 34.1186C90.0038 34.1186 88.8383 33.6967 88.8383 33.6967L88.2056 33.1195Z" fill="#FE8D90"/>
<path d="M87.8626 32.8089C87.8293 32.8866 87.796 32.9865 87.8071 33.1197C87.8404 33.4749 88.2178 33.7081 88.3288 33.7747C88.3732 33.808 88.8505 34.4185 89.8051 35.6285C89.8051 35.6285 90.7264 36.8051 91.6921 39.0142C92.6135 41.1233 93.7124 46.1408 93.3572 52.6236C93.2684 54.2887 92.7689 60.827 90.0604 67.1655C89.572 68.3089 89.1391 69.1858 88.8505 69.7519C87.4075 72.627 84.355 77.8554 84.355 77.8554C84.355 77.8554 85.0543 79.576 91.8809 78.8434C98.7074 78.1108 100.051 76.4013 100.051 76.4013L100.117 76.1348L99.3512 54.7993L95.2886 33.597C94.4894 33.808 93.2795 34.03 91.8031 33.919C90.016 33.7858 88.6618 33.2085 87.8626 32.8089Z" fill="white"/>
<path d="M83.3995 70.5065C83.3995 70.5065 69.8352 91.8753 69.2469 96.8595C68.6586 101.844 70.7232 103.065 71.6112 103.986C72.4992 104.907 86.8517 123.124 86.8517 123.124C86.8517 123.124 89.1605 123.534 90.8366 123.124C92.5127 122.713 92.7569 121.847 92.7569 121.847C92.7569 121.847 81.5014 101.389 81.235 98.569C80.9353 95.5163 88.2392 84.7486 88.2392 84.7486C88.2392 84.7486 92.5904 106.806 92.879 108.182C93.1676 109.559 113.481 122.913 113.481 122.913C113.481 122.913 114.813 122.102 116.089 119.805C117.366 117.518 117.366 115.731 117.366 115.731L101.137 103.942C101.137 103.942 103.502 87.2574 103.502 81.041C103.502 81.041 103.402 78.6544 103.258 77.7885C103.113 76.9227 95.1989 71.5277 89.7377 70.2623C84.2764 68.9857 83.3995 70.5065 83.3995 70.5065Z" fill="#4F2926"/>
<path d="M90.77 13.0938C90.6257 12.8718 86.33 16.3796 84.9092 20.287C83.4884 24.1945 84.3875 27.2139 86.4743 28.0908C88.5611 28.9678 91.0031 28.3572 91.7801 28.002C92.5682 27.6468 94.5663 26.6477 94.6551 26.3924C94.7439 26.126 95.5209 26.681 96.7086 25.8041C97.8963 24.9271 97.8408 23.9503 97.0527 22.8735L96.5865 22.2519C96.5865 22.2519 97.8075 19.3657 97.8741 18.3666C97.9407 17.3787 97.2858 17.09 96.5643 16.8458C95.865 16.6016 92.7347 16.2464 90.77 13.0938Z" fill="#FEABB5"/>
<path d="M90.2476 12.8716C90.2476 12.8716 90.07 13.36 90.5362 14.1593C91.0024 14.9585 92.4232 16.224 93.6664 16.6458C94.9096 17.0676 96.9298 17.0898 97.0075 17.7892C97.0852 18.4885 96.7522 19.9871 96.6412 20.3534C96.5191 20.7198 96.6412 21.9297 96.6412 21.9297C96.6412 21.9297 98.1397 19.2656 98.1397 18.9548C98.1397 18.6439 98.4727 17.323 97.3849 16.6791C96.2971 16.0353 94.2991 15.8244 94.2214 15.78C94.1326 15.7467 90.2476 12.8716 90.2476 12.8716Z" fill="#FE8D90"/>
<path d="M91.6361 6.96623C91.6361 6.96623 89.6825 8.48702 89.5049 11.018C89.3384 13.5489 92.4797 15.6026 93.6119 16.0355C94.7442 16.4795 96.6756 16.8902 96.6756 16.8902C96.6756 16.8902 97.6968 17.4231 97.5303 18.6552C97.3638 19.8874 96.3759 22.1853 96.3759 22.1853C96.3759 22.1853 97.83 23.4063 97.2528 24.8605C96.6756 26.3147 94.9551 26.3591 94.5777 26.2259C94.5777 26.2259 93.512 27.0029 93.1568 27.1917C93.1568 27.1917 93.845 28.2906 97.4748 27.2361C101.105 26.1815 102.603 22.7958 102.98 21.7412C103.358 20.6867 103.68 17.4675 101.848 15.647C100.017 13.8264 98.7624 14.1706 98.9733 11.462C99.1842 8.75344 97.0974 8.77564 96.9753 8.77564C96.8532 8.77564 94.2447 9.27517 94.2447 9.27517C94.2447 9.27517 93.29 8.68683 92.9792 7.73218C92.6684 6.77752 92.1023 6.5 92.1023 6.5L91.6361 6.96623Z" fill="#4F2926"/>
<path d="M97.2418 73.3592C97.2418 73.3592 96.8533 78.6876 98.8402 81.5182C100.827 84.36 103.114 84.2379 103.114 84.2379C103.114 84.2379 103.813 78.2546 102.836 76.6228C101.859 74.991 97.042 73.2371 97.042 73.2371L97.2418 73.3592Z" stroke="white" stroke-width="0.837891" stroke-miterlimit="10"/>
<path d="M95.2763 33.5967C95.2763 33.5967 99.3056 32.3534 102.658 35.7946C105.999 39.2247 109.762 44.4976 111.383 52.7787C113.003 61.0598 111.505 68.0976 109.64 71.006C107.764 73.9144 105.555 76.2011 103.857 77.3889C102.158 78.5766 102.158 78.5766 102.158 78.5766C102.158 78.5766 99.4832 76.3787 98.8838 71.9717C98.2844 67.5648 99.35 65.3668 99.35 65.3668L95.1209 33.8853C95.1209 33.8853 95.0765 33.5745 95.2763 33.5967Z" fill="#5670C4"/>
<path d="M96.0093 62.2032C96.4644 62.0589 100.494 61.2374 103.18 58.1182C105.866 54.9989 106.665 47.1396 105.955 43.2099C105.245 39.2803 103.857 36.5495 101.959 35.1953C100.061 33.841 96.0093 62.2032 96.0093 62.2032Z" fill="#C92615"/>
<path d="M80.3247 66.4218C80.2581 66.4662 78.6264 67.543 77.9049 67.432C77.1834 67.321 74.9523 66.0444 73.9311 66.5107C72.9099 66.9769 72.7656 68.1424 73.7202 68.753C74.6748 69.3746 75.363 69.4745 75.363 69.4745C75.363 69.4745 72.9765 70.7733 72.5769 70.6623C72.1773 70.5513 71.6667 70.1295 71.2337 70.3293C70.8119 70.5291 69.935 73.8926 72.4881 75.258C75.0411 76.6234 77.2944 76.8676 79.2147 76.2237C81.1239 75.5799 82.9999 75.036 83.9989 74.2256C84.9979 73.4153 85.0867 72.9712 85.0867 72.9712L85.0201 72.505L80.3247 66.4218Z" fill="#FEABB5"/>
<path d="M82.7446 68.5419C82.7002 68.664 83.3329 72.7823 81.3015 74.1033C79.2813 75.4243 76.9059 76.0459 75.9735 76.0903C75.0411 76.1347 73.1763 75.6241 73.1763 75.6241C73.1763 75.6241 76.0401 77.1227 79.3035 76.1569C79.3035 76.1569 82.012 75.4909 83.6437 74.4696C85.2754 73.4484 85.2754 72.4826 85.2754 72.4826L82.7446 68.5419Z" fill="#FE8D90"/>
<path d="M96.9308 33.4634C96.9308 33.4634 93.9338 34.7178 93.5453 40.2015C93.1679 45.6853 93.4232 51.4354 92.6572 53.4557C91.8913 55.4761 79.9365 65.2558 79.9365 65.2558C79.9365 65.2558 79.9809 68.1641 82.5784 70.6729C85.1758 73.1816 85.087 72.7376 85.087 72.7376C85.087 72.7376 98.6624 65.4334 99.7391 64.4343C102.825 61.6147 103.014 57.7406 103.757 54.5214C104.601 50.8915 105.456 44.8638 104.002 37.2377C103.258 36.3274 102.547 35.6614 102.004 35.2062C101.104 34.4625 100.305 33.9741 99.5171 33.6188C98.4404 33.1415 97.7855 33.0749 97.2305 33.2969C97.0973 33.3635 96.9974 33.419 96.9308 33.4634Z" fill="#F0512A"/>
<path d="M89.3937 15.3803C89.3937 15.3803 90.8256 16.1574 91.1475 16.6902C91.4694 17.223 91.758 17.6337 91.7025 18.0223C91.647 18.4219 91.0476 19.9316 90.7368 20.3978C90.426 20.864 89.7045 21.6744 89.5269 21.8187C89.3604 21.963 89.3604 21.963 89.3604 21.963" stroke="#4F2926" stroke-width="0.279297" stroke-miterlimit="10"/>
<path d="M93.6221 19.1547C93.6221 19.1547 94.6322 19.0215 95.1428 19.4766C95.6534 19.9317 95.9309 20.9641 95.9309 20.9641" stroke="#4F2926" stroke-width="0.279297" stroke-miterlimit="10"/>
<path d="M89.5602 18.7921C89.8742 18.154 89.714 17.4326 89.2024 17.1809C88.6908 16.9291 88.0216 17.2424 87.7076 17.8805C87.3937 18.5186 87.5539 19.24 88.0655 19.4917C88.577 19.7435 89.2463 19.4302 89.5602 18.7921Z" fill="#4F2926"/>
<path d="M94.8625 22.1293C95.1764 21.4912 95.0162 20.7698 94.5047 20.5181C93.9931 20.2664 93.3239 20.5796 93.0099 21.2177C92.6959 21.8559 92.8561 22.5772 93.3677 22.829C93.8793 23.0807 94.5485 22.7674 94.8625 22.1293Z" fill="#4F2926"/>
<path d="M86.3527 23.2064C87.1252 23.2064 87.7513 22.5752 87.7513 21.7966C87.7513 21.018 87.1252 20.3868 86.3527 20.3868C85.5803 20.3868 84.9541 21.018 84.9541 21.7966C84.9541 22.5752 85.5803 23.2064 86.3527 23.2064Z" fill="#FE8D90"/>
<path d="M92.4128 26.3149C93.1852 26.3149 93.8114 25.6837 93.8114 24.9051C93.8114 24.1265 93.1852 23.4953 92.4128 23.4953C91.6403 23.4953 91.0142 24.1265 91.0142 24.9051C91.0142 25.6837 91.6403 26.3149 92.4128 26.3149Z" fill="#FE8D90"/>
<path d="M87.5171 23.1957C87.5171 23.1957 87.9833 24.339 88.4939 24.7387C89.0045 25.1383 89.8925 25.1938 89.8925 25.1938" stroke="#4F2926" stroke-width="0.279297" stroke-miterlimit="10"/>
<path d="M118.077 117.007C117.788 117.029 117.977 120.981 117.977 120.981L116.012 121.037C116.012 121.037 115.768 121.647 115.968 122.358C116.168 123.068 117.588 125.155 117.588 125.155C117.588 125.155 117.544 131.105 117.833 131.716C118.121 132.326 119.453 130.794 120.241 129.074C121.029 127.342 122.528 121.314 122.828 119.993C123.127 118.672 123.127 118.217 123.127 118.217C123.127 118.217 123.272 116.519 118.077 117.007Z" fill="#F0512A"/>
<path d="M87.639 124.9C87.639 124.9 88.4826 126.998 89.2596 126.998C90.0367 126.998 91.5796 125.355 91.5796 125.355C91.5796 125.355 92.2789 125.122 92.3899 125.389C92.5009 125.655 92.6119 131.461 92.6119 131.461C92.6119 131.461 86.64 131.15 83.9094 131.117C81.1788 131.083 79.5582 130.473 79.3362 130.007C79.1142 129.551 79.4472 129.019 79.8135 129.019C80.1798 129.019 83.2767 128.541 83.9205 128.353C84.5643 128.164 87.3282 124.745 87.3282 124.745L87.639 124.9Z" fill="#F0512A"/>
<path d="M87.5405 28.4573C87.5405 28.4573 89.2166 28.3685 90.0714 28.091C90.9261 27.8134 91.692 27.4027 91.692 27.4027C91.692 27.4027 91.5255 28.5683 89.8715 29.1344C88.2176 29.7006 87.6515 29.6672 87.6515 29.6672L87.5405 28.5128V28.4573Z" fill="#FE8D90"/>
<path d="M95.6878 23.1622C95.6878 23.1622 96.4981 23.7172 96.4093 24.3388C96.3205 24.9605 95.9764 25.2158 95.6656 25.0271C95.3548 24.8384 95.0884 24.361 95.2327 24.1945C95.377 24.028 95.8987 23.7616 95.9542 24.1279C95.9986 24.4832 95.6767 24.4387 95.6767 24.4387" stroke="#FE8D90" stroke-width="0.279297" stroke-miterlimit="10"/>
<path d="M86.2081 127.187C86.4349 127.187 86.6188 127.038 86.6188 126.854C86.6188 126.67 86.4349 126.521 86.2081 126.521C85.9812 126.521 85.7974 126.67 85.7974 126.854C85.7974 127.038 85.9812 127.187 86.2081 127.187Z" fill="#F9ECDC"/>
<path d="M85.5534 127.953C85.7496 127.953 85.9087 127.824 85.9087 127.664C85.9087 127.505 85.7496 127.376 85.5534 127.376C85.3573 127.376 85.1982 127.505 85.1982 127.664C85.1982 127.824 85.3573 127.953 85.5534 127.953Z" fill="#F9ECDC"/>
<path d="M84.8195 128.608C84.9972 128.608 85.1414 128.478 85.1414 128.319C85.1414 128.16 84.9972 128.03 84.8195 128.03C84.6417 128.03 84.4976 128.16 84.4976 128.319C84.4976 128.478 84.6417 128.608 84.8195 128.608Z" fill="#F9ECDC"/>
<path d="M117.157 122.136C117.235 121.923 117.158 121.699 116.985 121.636C116.813 121.573 116.609 121.694 116.532 121.907C116.454 122.121 116.531 122.344 116.703 122.408C116.876 122.471 117.079 122.349 117.157 122.136Z" fill="#F9ECDC"/>
<path d="M117.644 123.014C117.711 122.83 117.645 122.636 117.495 122.581C117.345 122.526 117.169 122.631 117.102 122.816C117.035 123 117.101 123.194 117.251 123.248C117.401 123.303 117.577 123.198 117.644 123.014Z" fill="#F9ECDC"/>
<path d="M118.011 123.924C118.072 123.757 118 123.577 117.85 123.522C117.7 123.467 117.529 123.559 117.468 123.726C117.407 123.893 117.479 124.072 117.629 124.127C117.779 124.182 117.95 124.091 118.011 123.924Z" fill="#F9ECDC"/>
<path d="M9.99409 112.489C9.99409 112.489 14.9891 115.609 21.294 113C21.294 113 23.8026 111.846 25.8339 108.604C27.8653 105.363 27.8098 105.374 28.9753 105.951C30.1297 106.528 30.1297 117.396 30.1297 117.396L31.7281 117.496C31.7281 117.496 31.7281 107.983 30.3295 105.085C30.3295 105.085 29.941 102.676 28.9753 102.477C28.0096 102.277 26.0781 102.144 22.6038 103.687C19.1295 105.23 18.741 103.009 14.1566 104.797C9.57228 106.584 7.88507 109.281 7.39666 111.168C6.90826 113.056 8.02937 115.131 8.02937 115.131C8.02937 115.131 7.87397 113.766 9.99409 112.489Z" fill="#529A74"/>
<path d="M8.39502 112.511C8.53932 112.078 9.69373 111.013 16.9421 110.047C24.1794 109.081 26.355 104.641 27.4206 104.497" stroke="#328A5A" stroke-width="0.837891" stroke-miterlimit="10"/>
<path d="M16.3209 90.1105C16.7094 90.0439 17.4309 92.8635 21.6268 95.0836C25.8226 97.3038 27.9538 97.548 29.2525 97.2594C30.5513 96.9707 31.4726 95.6609 31.9055 95.8607C32.3384 96.0605 32.3384 117.007 32.3384 117.007H33.8813C33.8813 117.007 33.6371 95.4278 33.4484 94.9948C33.2597 94.5619 32.627 93.0189 28.8085 90.5102C24.9901 88.0014 22.2373 85.2928 17.4198 86.4584C17.4198 86.4584 15.2997 87.2355 14.2341 88.7784C13.1685 90.3214 13.8012 91.2872 13.8012 91.2872C13.8012 91.2872 13.6125 90.5435 16.3209 90.1105Z" fill="#529A74"/>
<path d="M15.3994 89.056C15.3994 89.056 21.0494 88.2345 24.7679 90.9875C28.4864 93.7404 30.318 94.8505 30.318 94.8505" stroke="#328A5A" stroke-width="0.837891" stroke-miterlimit="10"/>
<path d="M34.8364 117.196C34.4035 116.397 34.6588 91.0537 34.8364 90.2877C35.014 89.5218 35.1583 88.4006 38.5993 87.2128C42.0403 86.0251 50.0435 78.8873 53.3735 79.287C56.7036 79.6866 60.2889 82.9391 60.2223 84.027C60.1446 85.1148 58.191 84.6819 56.4594 84.8595C54.7166 85.0371 53.7398 87.3905 51.4643 90.5097C49.1777 93.629 45.2039 94.7835 41.1079 93.407C37.012 92.0305 36.4681 91.2313 36.4681 91.2313L35.7799 117.34L34.8364 117.196Z" fill="#328A5A"/>
<path d="M37.1784 117.396C36.9342 116.819 39.0099 100.112 37.8999 94.1734C36.7899 88.2345 37.1784 86.6471 34.6698 85.6814C32.1612 84.7156 26.6999 80.8526 25.5455 76.9895C24.3911 73.1265 24.2468 70.9508 24.1025 70.7176C23.9582 70.4845 23.714 69.7519 22.5596 70.9064C21.4052 72.0608 20.9168 70.429 22.604 68.1534C24.2912 65.8778 25.9784 65.2561 28.9311 67.232C31.8837 69.208 36.7566 74.7139 37.8666 77.5668C38.9766 80.4196 37.7667 84.76 37.8666 86.0144C37.9665 87.2688 39.6982 94.4176 40.0423 99.535C40.3753 104.652 38.9322 117.352 38.9322 117.352L37.1784 117.396Z" fill="#529A74"/>
<path d="M37.0008 90.9096C37.0008 90.9096 44.0605 92.2528 46.3804 91.1316C48.7003 90.0105 52.2413 82.0069 54.4169 81.5739C56.5925 81.141 60.2111 84.2159 60.2111 84.2159C60.2111 84.2159 60.2888 84.9374 57.9245 84.8708C55.5602 84.8042 55.1051 85.1595 53.5067 87.5128C51.9083 89.8661 50.4985 92.7301 47.0242 93.5183C43.5499 94.3175 41.2632 93.596 39.4539 92.8633C37.6446 92.1418 36.4458 91.2315 36.4458 91.2315L37.0008 90.9096Z" fill="#529A74"/>
<path d="M25.4453 68.342C25.4453 68.342 32.2053 75.5352 33.7038 79.1096C35.2023 82.6841 35.8239 84.7599 35.8239 84.7599" stroke="#328A5A" stroke-width="0.837891" stroke-miterlimit="10"/>
<path d="M21.5825 70.7506C21.6269 70.1733 23.7581 65.5333 27.2325 68.486C30.7068 71.4388 30.6624 74.2362 33.3597 76.645C36.0682 79.0539 37.0339 80.5081 36.8896 82.2953C36.7453 84.0825 36.9895 86.3026 37.6111 87.3128C38.2438 88.323 38.3881 88.2786 38.2438 88.323C38.0995 88.3674 37.7332 85.7587 37.7332 85.7587C37.7332 85.7587 39.3316 79.5312 37.5889 76.856C35.8462 74.1807 30.8511 67.1207 26.9106 66.1771C22.9589 65.2336 21.5825 70.7506 21.5825 70.7506Z" fill="#328A5A"/>
<path d="M62.2869 105.784C62.2869 105.784 57.2919 108.715 50.987 106.262C50.987 106.262 48.4784 105.174 46.4471 102.121C45.1151 100.123 44.6822 99.4349 44.2048 99.3461C44.2048 99.3461 43.783 99.3017 43.3057 99.6125C41.5075 100.767 41.9626 113.899 42.1291 117.673C41.6851 117.729 41.2411 117.784 40.7971 117.84C40.3975 114.487 40.2199 110.347 40.7416 105.662C41.0191 103.131 41.4631 100.834 41.9626 98.791C41.9626 98.791 42.3511 96.5154 43.3168 96.3378C44.2825 96.1602 46.214 96.0159 49.6883 97.47C53.1626 98.9242 53.5511 96.8373 58.1355 98.5135C62.7198 100.201 64.407 102.743 64.8954 104.519C65.3727 106.295 64.2627 108.249 64.2627 108.249C64.2627 108.249 64.407 106.983 62.2869 105.784Z" fill="#328A5A"/>
<path d="M63.6187 105.274C63.3412 104.719 62.0092 103.531 55.782 103.808C49.5549 104.086 46.1694 98.5356 45.248 98.5689" stroke="#529A74" stroke-width="0.837891" stroke-miterlimit="10"/>
<path d="M43.9381 136.467H26.8106C26.1224 136.467 25.5674 135.912 25.5674 135.224V118.24C25.5674 117.551 26.1224 116.996 26.8106 116.996H43.9381C44.6263 116.996 45.1813 117.551 45.1813 118.24V135.224C45.1924 135.901 44.6263 136.467 43.9381 136.467Z" fill="#FEABB5"/>
<path d="M29.4414 136.245C29.5191 136.067 32.3052 130.916 35.8462 127.697C39.3982 124.478 45.1925 123.646 45.1925 123.646L45.2702 134.979C45.2702 134.979 45.1592 136.422 43.2055 136.5L29.4414 136.245Z" fill="#FE8D90"/>
<path d="M51.3071 21.5739H21.9363C20.7597 21.5739 19.7939 20.6193 19.7939 19.4315V14.5472C19.7939 13.3705 20.7486 12.4048 21.9363 12.4048H51.3071C52.4838 12.4048 53.4495 13.3594 53.4495 14.5472V19.4315C53.4495 20.6193 52.4838 21.5739 51.3071 21.5739Z" fill="#F1CFAA"/>
<path d="M50.2532 16.3348H30.0732C29.9289 16.3348 29.8179 16.2238 29.8179 16.0795V15.0138C29.8179 14.8695 29.9289 14.7585 30.0732 14.7585H50.2532C50.3975 14.7585 50.5085 14.8695 50.5085 15.0138V16.0795C50.5085 16.2238 50.3864 16.3348 50.2532 16.3348Z" fill="#F9ECDC"/>
<path d="M50.4081 19.4648H30.2392C30.0949 19.4648 29.9839 19.3538 29.9839 19.2095V18.1438C29.9839 17.9995 30.0949 17.8885 30.2392 17.8885H50.4192C50.5635 17.8885 50.6745 17.9995 50.6745 18.1438V19.2095C50.6634 19.3538 50.5524 19.4648 50.4081 19.4648Z" fill="#F9ECDC"/>
<path d="M25.4219 20.2974C27.2365 20.2974 28.7075 18.9207 28.7075 17.2225C28.7075 15.5243 27.2365 14.1476 25.4219 14.1476C23.6073 14.1476 22.1362 15.5243 22.1362 17.2225C22.1362 18.9207 23.6073 20.2974 25.4219 20.2974Z" fill="#FAEFE5"/>
<path d="M25.4216 14.1476V17.4334L22.1582 16.9783C22.1693 16.9672 22.2914 14.292 25.4216 14.1476Z" fill="#E6B78B"/>
<path d="M12.9121 41.3679C12.9121 41.3679 15.3208 40.3356 16.3642 40.4244C17.4077 40.5132 17.9849 41.5011 18.9284 41.6232C19.8719 41.7564 21.6479 40.3356 23.1575 40.5465C24.6782 40.7574 24.6782 41.5788 25.8215 41.6232C26.9759 41.6676 27.8084 40.2024 29.6844 40.4577C31.5714 40.713 30.5169 41.4456 32.2485 41.4456C33.9801 41.4456 34.2354 40.5465 35.5896 40.6686C36.9438 40.7907 37.1547 41.0571 37.1547 41.0571" stroke="#E6B78B" stroke-width="1.11719" stroke-miterlimit="10"/>
<path d="M13.5894 42.822C15.1101 42.267 16.098 42.4335 16.986 42.6555C17.874 42.8664 17.874 44.1985 19.3947 43.6879C20.9154 43.1773 22.0587 42.3114 22.7913 42.4446C23.5239 42.5778 24.7228 43.5214 25.7218 43.5658C26.7097 43.6102 28.2304 42.6666 29.1184 42.6666C30.0064 42.6666 31.2052 43.5214 32.4151 43.3993C33.6139 43.2661 34.6574 42.4113 35.39 42.4113C36.1226 42.4113 37.0106 42.8442 37.0106 42.8442" stroke="#E6B78B" stroke-width="1.11719" stroke-miterlimit="10"/>
<path d="M123.161 95.972H115.846C115.113 95.972 114.514 95.3725 114.514 94.6399V85.6373C114.514 84.9046 115.113 84.3052 115.846 84.3052H123.161C123.893 84.3052 124.493 84.9046 124.493 85.6373V94.6399C124.493 95.3725 123.893 95.972 123.161 95.972Z" fill="#F1CFAA"/>
<path d="M119.564 93.0971C117.299 91.4098 116.078 89.5227 116.556 88.4015C116.7 88.0685 117.122 87.4913 117.799 87.3803C118.676 87.236 119.342 87.9575 119.408 88.0352C119.53 87.8909 120.041 87.3359 120.862 87.2693C121.007 87.2582 121.839 87.1916 122.328 87.7466C122.328 87.7466 122.561 88.013 122.638 88.4237C122.816 89.3118 121.595 91.1212 119.564 93.0971Z" fill="#F0512A"/>
<path d="M132.63 66.2214C132.63 66.2214 135.039 65.1891 136.083 65.2779C137.126 65.3667 137.703 66.3546 138.647 66.4768C139.59 66.61 141.366 65.1891 142.876 65.4C144.396 65.6109 144.396 66.4323 145.54 66.4768C146.694 66.5212 147.527 65.0559 149.403 65.3112C151.279 65.5665 150.235 66.2991 151.967 66.2991C153.698 66.2991 153.954 65.4 155.308 65.5221C156.662 65.6553 156.873 65.9106 156.873 65.9106" stroke="#E6B78B" stroke-width="1.11719" stroke-miterlimit="10"/>
<path d="M133.307 67.6867C134.827 67.1316 135.815 67.2981 136.703 67.5202C137.591 67.7311 137.591 69.0631 139.112 68.5525C140.633 68.0419 141.776 67.176 142.509 67.3092C143.241 67.4424 144.44 68.386 145.439 68.4304C146.438 68.4748 147.948 67.5313 148.836 67.5313C149.724 67.5313 150.923 68.386 152.132 68.2639C153.342 68.1418 154.375 67.2759 155.107 67.2759C155.84 67.2759 156.728 67.7089 156.728 67.7089" stroke="#E6B78B" stroke-width="1.11719" stroke-miterlimit="10"/>
<path d="M131.253 69.3293L129.31 68.3635L127.412 69.4181L127.723 67.2757L126.136 65.7993L128.278 65.433L129.188 63.457L130.198 65.3774L132.352 65.6439L130.831 67.198L131.253 69.3293Z" fill="#E6B78B"/>
<path d="M43.4708 68.9303C45.9475 68.9303 47.9552 66.9224 47.9552 64.4456C47.9552 61.9688 45.9475 59.9609 43.4708 59.9609C40.9941 59.9609 38.9863 61.9688 38.9863 64.4456C38.9863 66.9224 40.9941 68.9303 43.4708 68.9303Z" fill="#F1CFAA"/>
<path d="M45.8354 66.0218L44.0705 65.7665L42.8495 67.0652L42.5498 65.3113L40.9292 64.5565L42.5165 63.7239L42.7274 61.9589L44.0039 63.2022L45.7577 62.8581L44.9696 64.4566L45.8354 66.0218Z" fill="#FDAA40"/>
<path d="M142.353 49.4269H121.84C120.53 49.4269 119.476 48.3723 119.476 47.0624V25.8268C119.476 24.517 120.53 23.4624 121.84 23.4624H142.353C143.663 23.4624 144.717 24.517 144.717 25.8268V47.0513C144.717 48.3612 143.663 49.4269 142.353 49.4269Z" fill="#F1CFAA"/>
<path d="M131.064 28.7131C131.175 28.7242 131.042 26.0822 131.042 26.0822L133.584 26.1155L133.573 28.8685C133.573 28.8685 135.271 29.1238 135.87 29.6344C136.47 30.1562 136.747 30.4781 136.747 30.4781L134.561 32.7426C134.561 32.7426 132.773 31.1774 130.975 32.4207C130.975 32.4207 130.087 34.2745 131.73 34.7851C131.73 34.7851 133.506 34.7407 134.616 35.1404C135.726 35.54 138.102 37.2495 137.336 40.4132C136.57 43.5769 133.884 44.2429 133.884 44.2429L133.628 44.2984L133.761 46.5741C133.761 46.5741 131.364 46.7073 131.253 46.6518C131.142 46.5963 131.208 44.1097 131.208 44.1097C131.208 44.1097 129.366 43.8877 127.867 42.6444L127.357 41.9784L129.71 39.6805C129.71 39.6805 130.909 41.1569 132.918 41.0348C134.927 40.9016 134.394 38.3596 133.406 38.2264C132.418 38.0931 129.221 38.293 127.734 35.1404C126.224 31.9989 129.166 28.6132 131.064 28.7131Z" fill="#DC952D"/>
</svg>
