<svg width="31" height="31" viewBox="0 0 31 31" fill="none" xmlns="http://www.w3.org/2000/svg">
<path d="M23.0366 23.0415H19.6882V17.7935C19.6882 16.5421 19.6631 14.9314 17.9418 14.9314C16.1967 14.9314 15.9303 16.2933 15.9303 17.7017V23.0415H12.5807V12.2502H15.7971V13.7202H15.8411C16.2909 12.8734 17.384 11.9775 19.0173 11.9775C22.4096 11.9775 23.0378 14.2114 23.0378 17.1175V23.0415H23.0366ZM8.79894 10.7739C8.54333 10.7742 8.29017 10.7241 8.05397 10.6264C7.81777 10.5287 7.60317 10.3853 7.42249 10.2045C7.2418 10.0237 7.09858 9.80905 7.00103 9.57278C6.90348 9.33652 6.85352 9.08333 6.85402 8.82772C6.85427 8.44305 6.96858 8.06709 7.1825 7.74739C7.39641 7.42769 7.70033 7.1786 8.05581 7.03162C8.4113 6.88464 8.80238 6.84638 9.17961 6.92167C9.55684 6.99696 9.90327 7.18242 10.1751 7.45459C10.4469 7.72677 10.6319 8.07344 10.7067 8.45077C10.7815 8.8281 10.7428 9.21913 10.5953 9.57442C10.4479 9.92972 10.1984 10.2333 9.87844 10.4468C9.55846 10.6603 9.18361 10.7741 8.79894 10.7739ZM10.4775 23.0415H7.11912V12.2502H10.4788V23.0415H10.4775ZM24.7139 3.76941H5.4393C4.51458 3.76941 3.76953 4.49813 3.76953 5.39897V24.7552C3.76953 25.6561 4.51584 26.3848 5.43804 26.3848H24.7089C25.6311 26.3848 26.3849 25.6561 26.3849 24.7552V5.39897C26.3849 4.49813 25.6311 3.76941 24.7089 3.76941H24.7139Z" fill="black"/>
</svg>
